<?xml version="1.0" standalone="no"?>
<!DOCTYPE svg PUBLIC "-//W3C//DTD SVG 20010904//EN"
 "http://www.w3.org/TR/2001/REC-SVG-20010904/DTD/svg10.dtd">
<svg version="1.0" xmlns="http://www.w3.org/2000/svg"
 width="512.000000pt" height="512.000000pt" viewBox="0 0 512.000000 512.000000"
 preserveAspectRatio="xMidYMid meet">
<metadata>
Created by potrace 1.11, written by Peter Selinger 2001-2013
</metadata>
<g transform="translate(0.000000,512.000000) scale(0.100000,-0.100000)"
fill="#000000" stroke="none">
<path d="M2447 5104 c-1 -1 -42 -4 -92 -8 -49 -3 -101 -8 -115 -10 -14 -3 -59
-10 -100 -16 -492 -77 -981 -325 -1349 -683 -64 -62 -140 -146 -231 -253 -14
-16 -66 -90 -116 -165 -180 -269 -310 -581 -374 -899 -29 -143 -30 -153 -46
-320 -4 -44 -4 -342 0 -395 2 -22 7 -65 11 -95 4 -30 8 -68 11 -85 5 -43 40
-212 54 -265 7 -25 12 -45 11 -45 -1 0 14 -45 32 -100 89 -263 202 -485 360
-705 34 -47 64 -87 67 -90 3 -3 32 -36 64 -75 340 -400 839 -702 1351 -819 72
-16 85 -19 190 -36 219 -35 547 -35 770 0 229 37 451 102 635 188 41 19 93 43
115 53 337 155 727 497 967 849 152 222 307 565 353 780 1 8 8 35 15 60 26 96
24 124 -11 133 -28 8 -55 -22 -63 -69 -28 -160 -129 -436 -227 -624 -119 -227
-251 -403 -448 -601 -284 -283 -625 -488 -1016 -608 -106 -32 -315 -77 -402
-86 -29 -3 -77 -8 -105 -11 -68 -7 -341 -7 -393 0 -22 3 -69 8 -105 11 -303
30 -677 158 -954 327 -48 29 -94 58 -104 63 -37 22 -178 130 -250 193 -303
263 -559 632 -696 1003 -36 99 -100 333 -111 404 -3 22 -10 65 -15 95 -23 129
-33 445 -19 560 4 30 10 81 13 113 8 83 51 287 79 382 200 660 643 1191 1252
1500 190 96 472 195 628 219 20 3 54 9 75 12 20 3 48 7 62 10 167 29 508 26
723 -7 82 -12 107 -5 107 31 0 27 -31 47 -85 54 -27 3 -60 8 -73 10 -56 12
-434 29 -445 20z"/>
<path d="M3104 5007 c-5 -23 -8 -46 -9 -51 0 -9 122 -44 157 -45 19 -1 46 76
31 89 -4 4 -39 15 -78 24 -38 10 -75 19 -82 21 -7 2 -15 -13 -19 -38z"/>
<path d="M3416 4905 c-14 -43 -14 -46 2 -52 9 -3 44 -17 76 -29 33 -13 63 -24
68 -24 11 0 40 68 36 82 -3 9 -140 68 -158 68 -4 0 -15 -20 -24 -45z"/>
<path d="M3721 4781 c-12 -22 -21 -42 -21 -45 0 -6 151 -89 154 -85 15 21 47
81 45 84 -2 2 -39 22 -81 45 l-77 41 -20 -40z"/>
<path d="M2388 4692 c-22 -3 -28 -9 -28 -27 0 -46 7 -51 68 -45 56 5 57 6 56
35 -1 17 -2 33 -3 36 -1 6 -47 7 -93 1z"/>
<path d="M2580 4663 l0 -38 60 -3 c43 -2 60 1 61 10 0 7 2 23 5 35 4 25 -8 30
-78 32 l-48 2 0 -38z"/>
<path d="M2806 4674 c-3 -8 -6 -26 -6 -38 0 -21 6 -24 56 -30 31 -4 58 -5 59
-4 2 2 6 17 9 35 7 30 6 31 -36 38 -24 3 -50 9 -59 11 -9 3 -19 -3 -23 -12z"/>
<path d="M2180 4666 c-25 -6 -44 -14 -42 -18 1 -5 2 -16 2 -25 0 -36 12 -42
65 -31 62 13 66 17 57 52 -9 34 -21 37 -82 22z"/>
<path d="M3022 4618 c-8 -30 -6 -34 17 -44 14 -6 40 -14 58 -17 28 -6 32 -3
42 25 6 17 11 32 11 34 0 3 -104 34 -114 34 -3 0 -9 -15 -14 -32z"/>
<path d="M4000 4604 c-13 -20 -19 -39 -14 -44 5 -5 36 -29 69 -54 l59 -46 21
22 c50 57 51 52 -23 107 -38 28 -74 51 -80 51 -6 0 -20 -16 -32 -36z"/>
<path d="M1970 4616 c-41 -11 -45 -15 -43 -41 3 -40 17 -51 48 -37 14 7 34 12
45 12 25 0 33 15 25 50 -7 33 -10 34 -75 16z"/>
<path d="M3233 4556 l-11 -34 55 -21 c30 -12 56 -21 58 -21 8 0 24 65 18 71
-6 5 -100 39 -108 39 -1 0 -6 -15 -12 -34z"/>
<path d="M1753 4540 c-24 -11 -43 -21 -43 -23 0 -6 22 -67 23 -67 1 0 27 10
57 23 55 22 55 22 45 55 -11 37 -22 38 -82 12z"/>
<path d="M3441 4473 c-7 -19 -11 -35 -9 -36 21 -13 101 -47 103 -45 1 2 9 16
18 33 14 28 14 30 -12 43 -14 7 -40 19 -57 27 -30 12 -31 12 -43 -22z"/>
<path d="M1560 4446 c-53 -28 -57 -38 -33 -70 l18 -24 47 26 c52 29 52 29 38
66 -12 32 -14 32 -70 2z"/>
<path d="M4260 4405 l-34 -35 63 -64 64 -64 36 34 36 34 -65 65 -66 65 -34
-35z"/>
<path d="M3637 4370 l-18 -30 47 -30 c27 -16 51 -30 55 -30 6 0 39 45 39 54 0
4 -94 66 -101 66 -3 0 -13 -13 -22 -30z"/>
<path d="M1375 4334 c-22 -15 -44 -30 -48 -34 -10 -8 20 -60 34 -60 4 0 29 14
54 31 l45 31 -21 29 c-11 16 -21 29 -22 29 -1 0 -20 -12 -42 -26z"/>
<path d="M3821 4251 l-21 -29 45 -38 46 -37 27 27 27 27 -25 20 c-14 11 -37
28 -52 39 l-26 20 -21 -29z"/>
<path d="M1189 4192 l-46 -38 23 -29 23 -29 45 38 c25 20 46 40 46 44 -1 8
-36 52 -42 52 -2 0 -24 -17 -49 -38z"/>
<path d="M4483 4167 l-39 -32 49 -62 c27 -35 53 -66 58 -69 10 -6 79 41 79 54
0 4 -24 37 -54 74 l-54 68 -39 -33z"/>
<path d="M2295 4130 c-244 -43 -436 -119 -632 -252 -130 -87 -256 -205 -351
-328 -37 -47 -69 -87 -72 -90 -3 -3 -11 -16 -18 -29 -8 -13 -23 -40 -35 -60
-69 -122 -157 -334 -157 -382 0 -10 -4 -19 -9 -19 -4 0 -8 -8 -8 -17 0 -44 -3
-54 -15 -47 -10 6 -10 5 -1 -7 7 -9 8 -20 3 -29 -5 -8 -6 -18 -4 -22 3 -4 2
-13 -2 -20 -4 -7 -8 -24 -8 -38 -1 -14 -5 -31 -9 -37 -5 -8 -4 -13 3 -13 6 0
8 -5 5 -11 -4 -6 -7 -26 -7 -45 0 -21 -4 -32 -11 -27 -6 4 -7 1 -2 -7 4 -7 9
-50 10 -94 1 -45 6 -110 10 -146 5 -36 9 -74 9 -85 1 -11 5 -26 9 -32 5 -7 6
-13 3 -13 -3 0 -1 -12 4 -26 6 -16 6 -23 0 -19 -5 3 -3 -7 5 -22 8 -15 15 -34
15 -42 0 -7 11 -45 25 -83 14 -38 22 -74 19 -80 -4 -7 -2 -8 4 -4 11 7 16 -7
15 -41 -1 -7 3 -11 7 -8 8 5 33 -48 33 -71 0 -8 4 -14 8 -14 5 0 18 -19 29
-42 16 -33 17 -44 8 -51 -9 -6 -8 -7 4 -3 10 3 20 1 23 -4 4 -6 0 -10 -7 -11
-7 0 -3 -4 10 -9 12 -5 22 -16 22 -25 0 -8 4 -15 9 -15 5 0 12 -8 16 -19 3
-10 14 -29 25 -41 11 -12 17 -27 13 -33 -3 -5 -1 -7 5 -3 12 7 54 -42 46 -55
-3 -5 0 -8 8 -7 7 2 12 -3 10 -10 -1 -6 2 -11 7 -10 11 3 107 -94 103 -105 -1
-4 4 -6 10 -5 7 2 12 -3 10 -10 -1 -8 2 -11 7 -8 5 3 28 -12 50 -33 23 -22 43
-39 45 -38 4 3 54 -33 77 -55 9 -9 20 -14 23 -11 3 4 6 1 6 -5 0 -7 7 -12 15
-12 8 0 15 -5 15 -11 0 -5 4 -8 9 -4 5 3 12 1 16 -4 7 -12 189 -101 205 -101
6 0 9 -4 6 -9 -3 -5 0 -8 7 -7 22 2 117 -27 117 -36 0 -5 4 -6 10 -3 5 3 10 1
10 -5 0 -6 4 -9 9 -6 16 11 70 -6 74 -23 4 -12 5 -12 6 3 1 20 1 20 17 0 8
-10 12 -13 8 -5 -6 11 -2 13 17 7 13 -4 48 -9 77 -13 28 -3 52 -10 52 -14 0
-5 5 -9 11 -9 5 0 7 5 3 12 -5 7 -3 8 6 3 7 -4 33 -8 59 -9 25 -1 53 -6 60
-11 10 -5 12 -4 7 3 -4 7 -1 12 9 12 9 0 13 -5 9 -11 -5 -8 -1 -8 13 0 14 7
24 7 33 -2 10 -9 11 -9 6 1 -11 19 21 14 34 -5 11 -17 11 -17 6 0 -5 16 -1 17
26 13 20 -3 36 0 40 7 6 9 11 8 18 -3 7 -11 12 -12 18 -3 4 7 28 13 52 14 25
1 50 5 55 8 6 3 15 6 20 7 11 2 123 26 140 30 26 7 116 41 122 47 3 4 12 -1
20 -11 12 -16 13 -16 7 0 -4 13 1 20 17 27 46 17 135 61 184 91 28 17 56 33
64 37 8 4 22 13 30 20 63 54 89 72 95 66 3 -3 6 -1 6 5 0 7 7 12 16 12 8 0 12
4 9 10 -3 5 -2 10 2 10 5 0 22 12 38 27 16 16 33 27 38 25 5 -1 6 1 3 6 -3 5
13 26 34 46 22 21 40 42 40 47 0 6 5 7 10 4 6 -3 10 -1 10 4 0 6 8 19 18 29 9
10 30 37 46 60 26 39 47 59 30 30 -4 -7 -3 -9 1 -5 5 4 10 14 11 21 1 8 19 40
41 72 21 33 45 74 52 92 7 17 17 32 22 32 5 0 8 3 7 8 -1 4 7 25 17 47 10 22
19 46 21 54 1 8 9 18 16 22 7 5 10 9 5 9 -4 0 -1 16 7 35 8 19 12 35 9 35 -3
0 -1 6 5 13 6 6 13 29 17 50 4 20 10 37 14 37 3 0 7 12 7 28 1 15 4 38 7 52 3
14 8 48 12 75 10 68 13 90 15 90 1 0 2 66 3 148 1 81 0 147 -3 147 -3 0 -7 17
-8 38 -6 97 -47 267 -92 377 -26 65 -95 205 -117 237 -14 21 -22 42 -17 49 4
7 3 10 -4 5 -6 -3 -16 3 -23 16 -6 12 -16 27 -20 32 -46 56 -77 101 -73 108 3
5 2 8 -3 7 -4 -1 -57 46 -117 104 -238 233 -501 366 -856 432 -19 4 -116 8
-215 10 -137 2 -204 -2 -280 -15z"/>
<path d="M3986 4104 l-19 -26 43 -40 42 -40 26 26 26 26 -39 40 c-21 22 -44
40 -50 40 -5 0 -18 -12 -29 -26z"/>
<path d="M1017 4043 c-258 -266 -450 -613 -536 -968 -63 -261 -76 -605 -33
-850 70 -391 215 -711 457 -1010 67 -82 214 -232 290 -295 443 -367 1000 -542
1580 -497 107 9 118 10 325 52 111 22 293 90 445 164 215 106 380 223 548 388
350 344 565 785 626 1283 10 79 7 430 -3 490 -4 19 -11 67 -17 105 -40 257
-161 566 -315 803 -58 88 -185 252 -222 286 -29 26 -72 15 -72 -19 0 -19 40
-78 71 -105 22 -19 146 -193 188 -265 118 -199 223 -460 247 -615 3 -19 8 -38
10 -41 2 -4 6 -31 10 -60 3 -30 8 -57 10 -60 8 -14 18 -170 18 -289 0 -128 -7
-223 -23 -320 -18 -104 -22 -122 -42 -199 -188 -702 -728 -1249 -1429 -1446
-47 -13 -101 -27 -120 -30 -19 -3 -43 -8 -52 -11 -9 -3 -65 -11 -125 -19 -107
-14 -477 -14 -533 -1 -14 4 -41 8 -60 11 -298 40 -661 193 -920 388 -53 40
-190 155 -200 169 -3 3 -39 41 -80 85 -277 288 -473 694 -536 1113 -29 196
-23 475 17 676 5 28 12 62 14 76 3 14 18 67 34 119 102 330 248 580 489 835
68 72 80 89 73 107 -5 13 -18 23 -33 25 -21 2 -41 -12 -101 -75z"/>
<path d="M4682 3905 c-18 -12 -35 -25 -37 -27 -3 -3 14 -38 38 -80 l43 -75 42
21 c23 11 42 24 42 29 0 11 -78 144 -88 150 -4 3 -22 -5 -40 -18z"/>
<path d="M4834 3618 l-41 -21 33 -80 c19 -45 34 -82 34 -84 0 -1 20 5 45 15
25 9 45 20 45 25 0 11 -60 151 -68 158 -4 4 -25 -2 -48 -13z"/>
<path d="M4953 3313 c-24 -8 -43 -19 -43 -24 0 -14 39 -151 45 -157 2 -3 24
-1 47 4 48 11 47 7 23 103 -22 91 -22 91 -72 74z"/>
<path d="M5049 2995 c-3 -2 -20 -5 -37 -7 -30 -2 -32 -4 -27 -33 3 -16 8 -56
11 -88 l7 -58 41 2 c48 3 67 9 62 18 -2 3 -7 33 -10 66 -10 83 -16 105 -30
105 -7 0 -15 -2 -17 -5z"/>
<path d="M5012 2579 l0 -87 45 -4 c24 -2 48 1 52 7 6 8 7 130 2 168 -1 4 -23
7 -50 6 l-48 -2 -1 -88z"/>
<path d="M5007 2343 c-5 -8 -8 -25 -23 -135 -5 -36 -4 -37 38 -46 24 -5 46 -6
50 -3 8 7 16 47 24 124 l6 57 -30 0 c-17 0 -37 3 -45 6 -8 3 -17 2 -20 -3z"/>
<path d="M3915 1771 c-3 -5 -2 -12 3 -15 5 -3 9 1 9 9 0 17 -3 19 -12 6z"/>
<path d="M1371 1507 c2 -1 13 -9 24 -17 19 -14 19 -14 6 3 -7 9 -18 17 -24 17
-6 0 -8 -1 -6 -3z"/>
<path d="M1495 1380 c-3 -5 -1 -10 4 -10 6 0 11 5 11 10 0 6 -2 10 -4 10 -3 0
-8 -4 -11 -10z"/>
<path d="M3409 1243 c-13 -16 -12 -17 4 -4 9 7 17 15 17 17 0 8 -8 3 -21 -13z"/>
<path d="M3336 1207 c3 -10 9 -15 12 -12 3 3 0 11 -7 18 -10 9 -11 8 -5 -6z"/>
<path d="M3166 1118 c3 -5 10 -6 15 -3 13 9 11 12 -6 12 -8 0 -12 -4 -9 -9z"/>
<path d="M2866 1018 c3 -5 10 -6 15 -3 13 9 11 12 -6 12 -8 0 -12 -4 -9 -9z"/>
<path d="M2756 1007 c3 -10 9 -15 12 -12 3 3 0 11 -7 18 -10 9 -11 8 -5 -6z"/>
<path d="M2415 980 c-3 -5 -1 -10 4 -10 6 0 11 5 11 10 0 6 -2 10 -4 10 -3 0
-8 -4 -11 -10z"/>
<path d="M2555 980 c-3 -5 -1 -10 4 -10 6 0 11 5 11 10 0 6 -2 10 -4 10 -3 0
-8 -4 -11 -10z"/>
<path d="M2709 963 c-13 -16 -12 -17 4 -4 9 7 17 15 17 17 0 8 -8 3 -21 -13z"/>
</g>
</svg>
