<svg width="219" height="225" xmlns="http://www.w3.org/2000/svg">

 <g>
  <title>background</title>
  <rect fill="none" id="canvas_background" height="227" width="221" y="-1" x="-1"/>
 </g>
 <g>
  <title>Layer 1</title>
  <g id="svg_1" fill-rule="evenodd" fill="none">
   <path id="svg_2" d="m-40,209.100006l0,-208.100006l104.5,0l0,119.199997c0,49.100006 -39.799999,88.800003 -88.799999,88.800003l-15.700001,0l0,0.100006z" fill-rule="nonzero" fill="#C1F1F0"/>
   <g id="svg_3">
    <path id="svg_4" d="m41.400002,148.600006c17.400002,0 31.599998,14.199997 31.599998,31.600006c0,17.399994 -14.199997,31.600006 -31.599998,31.600006c-17.400002,0 -31.599998,-14.200012 -31.599998,-31.600006c0,-17.400009 14.099998,-31.600006 31.599998,-31.600006m0,-13c-24.599998,0 -44.599998,20 -44.599998,44.599991s20,44.599991 44.599998,44.599991s44.599998,-20 44.599998,-44.599991c-0.100006,-24.599991 -20,-44.599991 -44.599998,-44.599991z" fill-rule="nonzero" fill="#9F93DD"/>
    <circle id="svg_5" fill-rule="nonzero" fill="#67DAD6" r="16.399994" cy="98.8" cx="125"/>
    <path id="svg_6" d="m108.600006,45.699997c-24.599991,0 -44.599991,20 -44.599991,44.600006s20,44.599991 44.599991,44.599991l0,-89.199997z" fill-rule="nonzero" fill="#59449B"/>
    <path id="svg_7" d="m141.600006,-2.200001c0,20.899998 17,37.899998 37.899994,37.899998s37.900024,-17 37.900024,-37.899998m-294.800026,150.000004c56.300003,0 102,-45.699997 102,-102s-45.699997,-102.000004 -102,-102.000004" stroke-width="2" stroke="#205058"/>
   </g>
  </g>
 </g>
</svg>