<svg xmlns="http://www.w3.org/2000/svg" width="246" height="263" viewBox="0 0 246 263">
    <g fill="none" fill-rule="evenodd" transform="rotate(-180 123 131.5)">
        <circle cx="183.501" cy="152.501" r="16.501" fill="#67DAD6" fill-rule="nonzero" transform="rotate(-9.265 183.5 152.5)"/>
        <g fill-rule="nonzero" transform="translate(153 1)">
            <path fill="#2E6B72" d="M.4 0h97.3v97.3H.4z"/>
            <circle cx="49.069" cy="48.61" r="17.899" fill="#91F7F3" transform="rotate(-13.386 49.069 48.61)"/>
        </g>
        <path fill="#9F93DD" fill-rule="nonzero" d="M.3.6c0 42.5 34.5 77 77 77s77-34.5 77-77H.3z"/>
        <path fill="#59449B" fill-rule="nonzero" d="M251.1 165.9c-26.9 0-48.6 21.8-48.6 48.6s21.8 48.6 48.6 48.6v-97.2z"/>
        <path stroke="#205058" stroke-width="2" d="M146.1 125.6c0 56.3 45.7 102 102 102s102-45.7 102-102"/>
    </g>
</svg>
