<svg xmlns="http://www.w3.org/2000/svg" width="71" height="68" viewBox="0 0 71 68">
    <g fill="none" fill-rule="evenodd">
        <g transform="translate(-16.961 -18.553) translate(17 19)">
            <path fill="#EAEAEA" stroke="#205058" stroke-width="2" d="M7.184 4.006H52.64c2.217 0 4.03 1.808 4.03 4.017v43.734c0 2.209-1.813 4.016-4.03 4.016H7.184c-2.217 0-4.031-1.807-4.031-4.016V8.023c0-2.21 1.814-4.017 4.03-4.017z"/>
            <path fill="#F9F9F9" stroke="#205058" stroke-width="2" d="M5.392.72h48.591c2.217 0 4.031 1.774 4.031 3.944v42.944c0 2.17-1.814 3.944-4.03 3.944H5.391c-2.217 0-4.03-1.774-4.03-3.944V4.664c0-2.17 1.813-3.944 4.03-3.944z"/>
            <path stroke="#2E6B72" stroke-linecap="round" stroke-linejoin="round" stroke-width="2" d="M8.415 65.685L33.047 65.685M37.973 65.685L48.497 65.685M18.94 47.061L29.352 47.17"/>
            <path fill="#463581" stroke="#205058" stroke-width="2" d="M5.392.72h48.591c2.217 0 4.031 1.774 4.031 3.944v9.86h0H1.362v-9.86c0-2.17 1.813-3.944 4.03-3.944z"/>
            <path stroke="#2E6B72" stroke-linecap="round" stroke-linejoin="round" stroke-width="2" d="M33.159 47.17L37.973 47.061"/>
            <path stroke="#F4F0FB" stroke-linecap="round" stroke-linejoin="round" stroke-opacity=".519" d="M25.657 4.662L34.547 4.728M45.519 4.575L52.223 4.476"/>
            <ellipse cx="19.499" cy="7.95" fill="#C1F1F0" stroke="#1F1F1F" rx="3.135" ry="3.067"/>
            <ellipse cx="40.1" cy="7.731" fill="#C1F1F0" stroke="#1F1F1F" rx="3.135" ry="3.067"/>
            <path stroke="#1F1F1F" stroke-linecap="round" stroke-linejoin="round" d="M19.611 7.841L40.884 7.841"/>
            <path fill="#A3A3A3" fill-opacity=".194" d="M1.362 14.962H58.014V19.344H1.362zM1.809 38.187H57.342V43.446H1.809z"/>
            <path stroke="#205058" stroke-width="2" d="M1.362 14.633L1.362 34.791"/>
            <path fill="#000" fill-rule="nonzero" d="M35.97 35.952v2.016h-8.957v-2.016h3.269v-9.246c0-.373.022-.745.022-1.118l-2.329 1.906a.864.864 0 01-.403.198.983.983 0 01-.358 0 1.313 1.313 0 01-.313-.11.525.525 0 01-.202-.175l-.873-1.183 4.948-4.12h2.262v13.848h2.933z"/>
            <path fill="#F9F9F9" stroke="#205058" stroke-linecap="round" stroke-linejoin="round" stroke-width="2" d="M69.658 34.79c-1.052 4.098-3.045 6.136-6.024 6.136H8.393C4.452 40.86 2.1 38.8 1.362 34.79"/>
            <path stroke="#205058" stroke-linecap="round" stroke-linejoin="round" stroke-width="2" d="M1.362 14.633L58.014 14.633 58.014 34.681 69.658 34.681M58.798 34.681H13.789c0 3.484-2.306 5.478-6.941 6.026"/>
            <path stroke="#205058" stroke-width="4" d="M1.362 14.523L0.802 14.523"/>
            <path stroke="#FFF" stroke-linecap="round" stroke-linejoin="round" d="M17.82 37.639L63.5 37.639"/>
        </g>
    </g>
</svg>
