<svg xmlns="http://www.w3.org/2000/svg" viewBox="0 0 15 15" width="20" height="20">
	<style>
		tspan { white-space:pre }
		.shp0 { fill: #693996 } 
	</style>
	<path id="Layer" fill-rule="evenodd" class="shp0" d="M9.55 0C9.65 0 9.76 0.02 9.85 0.06C9.95 0.1 10.03 0.15 10.11 0.22C10.18 0.3 10.24 0.38 10.28 0.48C10.32 0.57 10.34 0.68 10.34 0.78L10.34 5.93C10.34 6.03 10.32 6.14 10.28 6.23C10.24 6.33 10.18 6.42 10.11 6.49C10.04 6.56 9.95 6.62 9.85 6.66C9.76 6.7 9.65 6.72 9.55 6.72L4.55 6.72C4.45 6.72 4.34 6.7 4.25 6.66C4.15 6.62 4.06 6.56 3.99 6.49C3.92 6.42 3.86 6.33 3.82 6.23C3.78 6.14 3.76 6.03 3.76 5.93L3.76 0.78C3.76 0.68 3.78 0.58 3.82 0.48C3.86 0.39 3.92 0.3 3.99 0.23C4.07 0.16 4.15 0.1 4.25 0.06C4.35 0.02 4.45 0 4.55 0L9.55 0ZM9.1 5.37C9.11 5.35 9.13 5.33 9.14 5.31C9.15 5.28 9.16 5.26 9.17 5.23C9.18 5.2 9.18 5.18 9.18 5.15C9.17 5.11 9.17 5.07 9.16 5.03C9.15 4.99 9.14 4.96 9.13 4.92C9.12 4.88 9.1 4.84 9.09 4.81C9.07 4.77 9.06 4.74 9.04 4.7L7.84 2C7.83 1.97 7.82 1.94 7.81 1.91C7.8 1.88 7.79 1.85 7.78 1.82C7.76 1.79 7.75 1.76 7.74 1.73C7.73 1.7 7.71 1.67 7.7 1.64C7.69 1.62 7.68 1.6 7.67 1.58C7.66 1.56 7.65 1.54 7.64 1.52C7.63 1.5 7.62 1.48 7.61 1.46C7.59 1.44 7.58 1.42 7.57 1.4C7.56 1.38 7.54 1.37 7.52 1.35C7.51 1.33 7.49 1.32 7.47 1.3C7.46 1.29 7.44 1.28 7.42 1.26C7.4 1.25 7.38 1.24 7.36 1.23C7.34 1.22 7.31 1.21 7.28 1.2C7.26 1.19 7.23 1.18 7.2 1.18C7.18 1.17 7.15 1.17 7.12 1.16C7.1 1.16 7.07 1.16 7.04 1.16C7.01 1.16 6.98 1.16 6.95 1.17C6.92 1.18 6.89 1.18 6.86 1.19C6.84 1.2 6.81 1.21 6.78 1.22C6.75 1.23 6.73 1.25 6.7 1.26C6.68 1.27 6.66 1.28 6.64 1.29C6.62 1.3 6.6 1.32 6.58 1.33C6.56 1.35 6.55 1.37 6.53 1.38C6.52 1.4 6.5 1.42 6.49 1.44C6.48 1.46 6.46 1.48 6.45 1.51C6.43 1.53 6.42 1.55 6.41 1.57C6.4 1.59 6.38 1.62 6.37 1.64C6.36 1.66 6.35 1.69 6.34 1.71L6.22 2L5.04 4.72L4.91 4.98C4.91 4.99 4.91 5.01 4.9 5.02C4.9 5.04 4.9 5.05 4.9 5.07C4.9 5.09 4.9 5.1 4.9 5.12C4.91 5.13 4.91 5.15 4.91 5.16C4.91 5.19 4.91 5.22 4.91 5.25C4.92 5.27 4.93 5.3 4.94 5.33C4.95 5.35 4.96 5.38 4.98 5.4C5 5.42 5.02 5.44 5.04 5.46C5.06 5.48 5.09 5.49 5.11 5.51C5.14 5.52 5.17 5.53 5.2 5.54C5.22 5.55 5.25 5.56 5.28 5.56C5.31 5.57 5.34 5.57 5.37 5.57C5.4 5.57 5.43 5.57 5.46 5.56C5.48 5.55 5.51 5.55 5.54 5.53C5.56 5.52 5.59 5.5 5.61 5.48C5.63 5.47 5.65 5.44 5.67 5.42C5.69 5.39 5.71 5.35 5.73 5.32C5.75 5.29 5.77 5.25 5.79 5.22C5.81 5.18 5.82 5.15 5.84 5.11C5.85 5.07 5.87 5.04 5.88 5L6.1 4.46L7.95 4.46L8.17 5L8.29 5.26C8.3 5.28 8.31 5.29 8.31 5.31C8.32 5.33 8.33 5.34 8.34 5.36C8.35 5.37 8.36 5.39 8.37 5.4C8.38 5.42 8.39 5.44 8.4 5.45C8.41 5.46 8.42 5.47 8.43 5.48C8.44 5.49 8.46 5.5 8.47 5.5C8.48 5.51 8.49 5.52 8.5 5.53C8.51 5.54 8.53 5.54 8.54 5.55L8.72 5.55C8.75 5.55 8.78 5.55 8.81 5.54C8.84 5.54 8.86 5.53 8.89 5.52C8.92 5.51 8.94 5.5 8.97 5.48C8.99 5.47 9.02 5.45 9.04 5.43C9.06 5.41 9.08 5.39 9.1 5.37Z" />
	<path id="Layer" class="shp0" d="M6.33 3.82L7.69 3.82L7.04 2.06L6.33 3.82L6.33 3.82Z" />
	<path id="Layer" class="shp0" d="M3.69 10.2C3.72 10.19 3.74 10.18 3.77 10.17C3.79 10.16 3.82 10.14 3.84 10.13C3.86 10.11 3.88 10.09 3.9 10.07C3.92 10.05 3.94 10.02 3.95 10C3.96 9.98 3.98 9.96 3.99 9.93C4 9.91 4.01 9.89 4.02 9.86C4.03 9.84 4.03 9.81 4.03 9.79C4.04 9.76 4.04 9.74 4.04 9.71C4.05 9.67 4.04 9.62 4.04 9.58C4.03 9.54 4.01 9.5 3.99 9.46C3.97 9.42 3.95 9.38 3.92 9.35C3.88 9.32 3.85 9.3 3.81 9.28C3.75 9.26 3.7 9.24 3.64 9.22C3.58 9.21 3.52 9.2 3.46 9.19C3.4 9.18 3.34 9.17 3.28 9.17C3.22 9.17 3.16 9.17 3.1 9.17L2.41 9.17L2.41 10.26L3.19 10.26C3.23 10.26 3.27 10.26 3.32 10.26C3.36 10.26 3.4 10.26 3.44 10.25C3.48 10.25 3.53 10.24 3.57 10.23C3.61 10.22 3.65 10.21 3.69 10.2Z" />
	<path id="Layer" class="shp0" d="M3.3 10.87L2.41 10.87L2.41 12.11L3.33 12.11C3.91 12.11 4.23 11.91 4.23 11.49C4.24 11.44 4.24 11.4 4.23 11.35C4.23 11.31 4.22 11.26 4.2 11.22C4.18 11.18 4.16 11.14 4.13 11.1C4.11 11.06 4.08 11.03 4.04 11C3.98 10.97 3.92 10.95 3.86 10.93C3.8 10.91 3.74 10.9 3.68 10.88C3.62 10.87 3.55 10.87 3.49 10.86C3.43 10.86 3.36 10.86 3.3 10.87Z" />
	<path id="Layer" fill-rule="evenodd" class="shp0" d="M5.82 7.28C5.92 7.28 6.03 7.3 6.12 7.34C6.22 7.38 6.31 7.44 6.38 7.51C6.45 7.58 6.51 7.67 6.55 7.77C6.59 7.86 6.61 7.97 6.61 8.07L6.61 13.22C6.61 13.32 6.59 13.43 6.55 13.52C6.51 13.62 6.45 13.7 6.38 13.78C6.3 13.85 6.22 13.9 6.12 13.94C6.03 13.98 5.92 14 5.82 14L0.82 14C0.72 14 0.62 13.98 0.52 13.94C0.42 13.9 0.34 13.84 0.26 13.77C0.19 13.7 0.13 13.61 0.09 13.52C0.05 13.42 0.03 13.32 0.03 13.22L0.03 8.07C0.03 7.97 0.05 7.86 0.09 7.77C0.13 7.67 0.19 7.58 0.26 7.51C0.33 7.44 0.42 7.38 0.52 7.34C0.61 7.3 0.72 7.28 0.82 7.28L5.82 7.28ZM4.87 12.17C4.9 12.12 4.93 12.06 4.96 12.01C4.98 11.95 5 11.89 5.02 11.83C5.04 11.77 5.05 11.71 5.05 11.65C5.06 11.58 5.06 11.52 5.06 11.46C5.06 11.34 5.04 11.22 5 11.11C4.96 11 4.91 10.9 4.83 10.81C4.75 10.72 4.66 10.64 4.56 10.58C4.46 10.52 4.35 10.48 4.23 10.46C4.32 10.42 4.41 10.38 4.49 10.32C4.56 10.25 4.63 10.18 4.69 10.1C4.74 10.02 4.79 9.93 4.82 9.84C4.85 9.75 4.87 9.65 4.87 9.55C4.87 9.49 4.86 9.43 4.85 9.37C4.84 9.32 4.83 9.26 4.81 9.2C4.79 9.15 4.76 9.09 4.73 9.04C4.7 8.99 4.67 8.94 4.63 8.9C4.61 8.88 4.59 8.86 4.57 8.84C4.55 8.81 4.53 8.79 4.5 8.77C4.48 8.76 4.46 8.74 4.43 8.72C4.41 8.7 4.39 8.69 4.36 8.67C4.33 8.65 4.3 8.64 4.27 8.62C4.24 8.61 4.2 8.59 4.17 8.58C4.14 8.57 4.11 8.56 4.07 8.55C4.04 8.54 4 8.54 3.97 8.53C3.93 8.53 3.88 8.52 3.84 8.52C3.8 8.52 3.75 8.52 3.71 8.52C3.67 8.52 3.62 8.52 3.58 8.52C3.54 8.52 3.49 8.53 3.45 8.53L2.04 8.53C2.01 8.53 1.97 8.53 1.94 8.53C1.9 8.54 1.87 8.54 1.83 8.55C1.8 8.56 1.77 8.58 1.74 8.59C1.71 8.61 1.68 8.63 1.65 8.65C1.63 8.68 1.61 8.71 1.59 8.74C1.58 8.77 1.56 8.8 1.55 8.84C1.54 8.87 1.54 8.91 1.53 8.94C1.53 8.98 1.53 9.01 1.53 9.05L1.53 12.21C1.53 12.25 1.53 12.28 1.53 12.32C1.53 12.35 1.54 12.39 1.55 12.42C1.56 12.46 1.57 12.49 1.59 12.52C1.61 12.55 1.63 12.58 1.65 12.61C1.68 12.63 1.7 12.66 1.73 12.67C1.76 12.69 1.8 12.71 1.83 12.72C1.86 12.73 1.9 12.74 1.93 12.75C1.97 12.75 2 12.75 2.04 12.75L3.37 12.75C3.42 12.75 3.47 12.75 3.52 12.75C3.56 12.74 3.61 12.74 3.66 12.74C3.71 12.73 3.76 12.73 3.81 12.72C3.85 12.71 3.9 12.71 3.95 12.7C3.99 12.69 4.02 12.69 4.06 12.68C4.1 12.67 4.14 12.67 4.17 12.66C4.21 12.65 4.25 12.64 4.28 12.63C4.32 12.61 4.35 12.6 4.39 12.59C4.44 12.57 4.49 12.54 4.53 12.51C4.58 12.48 4.62 12.45 4.66 12.42C4.7 12.38 4.74 12.34 4.77 12.3C4.81 12.26 4.84 12.22 4.87 12.17Z" />
	<path id="Layer" fill-rule="evenodd" class="shp0" d="M13.29 7.3C13.39 7.3 13.5 7.32 13.59 7.36C13.69 7.4 13.77 7.45 13.85 7.52C13.92 7.6 13.98 7.68 14.02 7.78C14.06 7.87 14.08 7.98 14.08 8.08L14.08 13.21C14.08 13.31 14.06 13.42 14.02 13.51C13.98 13.61 13.92 13.69 13.85 13.77C13.77 13.84 13.69 13.89 13.59 13.93C13.5 13.97 13.39 13.99 13.29 13.99L8.29 13.99C8.19 13.99 8.09 13.97 7.99 13.93C7.9 13.89 7.81 13.83 7.74 13.76C7.67 13.69 7.61 13.6 7.57 13.51C7.53 13.41 7.51 13.31 7.51 13.21L7.51 8.08C7.51 7.98 7.53 7.88 7.57 7.78C7.61 7.69 7.67 7.6 7.74 7.53C7.81 7.46 7.9 7.4 7.99 7.36C8.09 7.32 8.19 7.3 8.29 7.3L13.29 7.3ZM12.51 11.82C12.52 11.79 12.54 11.75 12.55 11.72C12.56 11.68 12.57 11.65 12.58 11.61C12.59 11.58 12.59 11.54 12.6 11.51C12.6 11.47 12.61 11.44 12.61 11.4C12.61 11.37 12.6 11.35 12.6 11.33C12.59 11.3 12.58 11.28 12.57 11.25C12.56 11.23 12.54 11.21 12.53 11.19C12.51 11.17 12.49 11.16 12.47 11.14C12.45 11.12 12.44 11.11 12.42 11.09C12.4 11.08 12.38 11.07 12.36 11.06C12.33 11.05 12.31 11.05 12.29 11.04C12.27 11.04 12.24 11.04 12.22 11.04C12.2 11.04 12.17 11.04 12.15 11.04C12.12 11.04 12.1 11.05 12.08 11.06C12.05 11.07 12.03 11.08 12.01 11.09C11.99 11.11 11.98 11.12 11.96 11.14C11.95 11.16 11.94 11.18 11.93 11.2C11.92 11.22 11.91 11.25 11.91 11.27C11.9 11.29 11.89 11.31 11.89 11.33C11.88 11.36 11.87 11.38 11.87 11.4C11.85 11.45 11.83 11.5 11.8 11.55C11.78 11.6 11.75 11.64 11.72 11.69C11.69 11.73 11.65 11.77 11.61 11.81C11.57 11.85 11.53 11.89 11.49 11.92C11.45 11.95 11.4 11.98 11.35 12C11.3 12.02 11.25 12.04 11.2 12.05C11.15 12.07 11.1 12.08 11.05 12.08C11 12.09 10.94 12.09 10.89 12.09C10.84 12.09 10.79 12.09 10.74 12.09C10.69 12.08 10.64 12.07 10.59 12.06C10.55 12.05 10.5 12.03 10.45 12.01C10.41 11.99 10.36 11.97 10.32 11.94C10.28 11.91 10.24 11.88 10.2 11.85C10.16 11.81 10.12 11.78 10.09 11.74C10.06 11.7 10.03 11.65 10 11.61C9.98 11.57 9.96 11.52 9.94 11.47C9.92 11.41 9.9 11.34 9.88 11.28C9.86 11.21 9.84 11.15 9.83 11.08C9.82 11.02 9.81 10.95 9.81 10.88C9.8 10.81 9.8 10.75 9.8 10.68C9.79 10.58 9.8 10.49 9.81 10.39C9.82 10.29 9.84 10.2 9.86 10.1C9.89 10.01 9.92 9.92 9.96 9.83C10.01 9.74 10.05 9.66 10.11 9.58C10.16 9.52 10.21 9.46 10.27 9.41C10.33 9.36 10.4 9.32 10.47 9.29C10.54 9.26 10.61 9.23 10.69 9.21C10.76 9.2 10.84 9.19 10.92 9.19C10.97 9.19 11.02 9.19 11.06 9.19C11.11 9.2 11.16 9.21 11.2 9.22C11.25 9.23 11.29 9.25 11.34 9.27C11.38 9.29 11.42 9.31 11.46 9.34C11.5 9.37 11.54 9.4 11.57 9.43C11.61 9.47 11.64 9.5 11.68 9.54C11.71 9.58 11.74 9.62 11.77 9.66C11.79 9.7 11.82 9.75 11.84 9.79C11.85 9.81 11.86 9.84 11.87 9.86C11.88 9.88 11.9 9.91 11.91 9.93C11.93 9.95 11.94 9.97 11.96 9.99C11.97 10.01 11.99 10.03 12.01 10.05C12.03 10.06 12.04 10.08 12.06 10.09C12.08 10.1 12.1 10.1 12.12 10.11C12.14 10.12 12.16 10.12 12.19 10.13C12.21 10.13 12.23 10.13 12.25 10.13C12.27 10.13 12.3 10.13 12.32 10.12C12.34 10.12 12.36 10.11 12.38 10.1C12.4 10.09 12.42 10.08 12.44 10.07C12.46 10.05 12.48 10.04 12.49 10.02C12.51 10 12.52 9.99 12.54 9.97C12.55 9.95 12.56 9.93 12.57 9.91C12.58 9.88 12.59 9.86 12.59 9.84C12.6 9.82 12.6 9.79 12.6 9.77C12.6 9.72 12.59 9.67 12.58 9.62C12.57 9.57 12.55 9.53 12.54 9.48C12.52 9.43 12.5 9.39 12.47 9.34C12.45 9.3 12.42 9.26 12.39 9.22C12.35 9.17 12.31 9.12 12.27 9.07C12.22 9.03 12.17 8.98 12.12 8.94C12.07 8.9 12.02 8.86 11.97 8.83C11.91 8.79 11.86 8.76 11.8 8.73C11.73 8.7 11.66 8.67 11.59 8.64C11.52 8.62 11.45 8.6 11.37 8.58C11.3 8.56 11.22 8.55 11.15 8.54C11.07 8.53 11 8.53 10.92 8.53C10.85 8.53 10.79 8.53 10.72 8.54C10.66 8.54 10.59 8.55 10.53 8.57C10.46 8.58 10.4 8.6 10.34 8.61C10.27 8.63 10.21 8.65 10.15 8.68C10.09 8.7 10.03 8.73 9.98 8.76C9.92 8.78 9.87 8.82 9.81 8.85C9.76 8.89 9.71 8.92 9.66 8.96C9.61 9 9.56 9.05 9.52 9.09C9.48 9.14 9.43 9.19 9.39 9.24C9.36 9.3 9.32 9.35 9.28 9.41C9.25 9.46 9.22 9.52 9.19 9.58C9.16 9.64 9.13 9.7 9.11 9.76C9.08 9.83 9.06 9.9 9.04 9.98C9.03 10.05 9.01 10.12 9 10.2C8.99 10.27 8.98 10.35 8.97 10.42C8.97 10.5 8.97 10.57 8.97 10.65C8.97 10.7 8.97 10.75 8.97 10.79C8.97 10.84 8.98 10.89 8.98 10.94C8.98 10.98 8.99 11.03 9 11.08C9 11.13 9.01 11.17 9.02 11.22C9.03 11.26 9.04 11.31 9.05 11.35C9.07 11.39 9.08 11.44 9.09 11.48C9.11 11.52 9.12 11.56 9.14 11.61C9.16 11.65 9.17 11.69 9.19 11.73C9.21 11.77 9.23 11.81 9.25 11.84C9.27 11.88 9.3 11.92 9.32 11.95C9.34 11.99 9.37 12.02 9.39 12.06C9.42 12.09 9.44 12.13 9.47 12.16C9.5 12.19 9.53 12.23 9.56 12.26C9.59 12.29 9.62 12.32 9.65 12.35C9.69 12.38 9.72 12.4 9.76 12.43C9.79 12.45 9.83 12.48 9.87 12.5C9.91 12.52 9.94 12.54 9.98 12.56C10.02 12.58 10.06 12.6 10.1 12.62C10.14 12.63 10.18 12.65 10.22 12.66C10.27 12.67 10.31 12.68 10.35 12.69C10.4 12.7 10.45 12.71 10.5 12.72C10.55 12.72 10.59 12.73 10.64 12.74C10.69 12.74 10.74 12.74 10.79 12.75C10.84 12.75 10.89 12.75 10.94 12.75C11 12.75 11.07 12.75 11.13 12.75C11.19 12.74 11.26 12.73 11.32 12.72C11.38 12.71 11.44 12.69 11.5 12.68C11.56 12.66 11.62 12.64 11.68 12.61C11.73 12.59 11.78 12.57 11.83 12.54C11.87 12.52 11.92 12.49 11.96 12.46C12.01 12.43 12.05 12.4 12.09 12.37C12.13 12.33 12.17 12.3 12.21 12.26C12.24 12.23 12.27 12.19 12.3 12.16C12.33 12.12 12.35 12.09 12.38 12.05C12.4 12.02 12.43 11.98 12.45 11.94C12.47 11.9 12.49 11.86 12.51 11.82Z" />
</svg>