<svg xmlns="http://www.w3.org/2000/svg" viewBox="0 0 16 14" width="20" height="20">
	<style>
		tspan { white-space:pre }
		.shp0 { fill: #ffffff }
	</style>
	<path id="Layer" fill-rule="evenodd" class="shp0" d="M14.45 1C14.9 1.41 15.27 1.9 15.52 2.45C15.78 3 15.92 3.6 15.93 4.21C15.95 4.81 15.84 5.42 15.62 5.98C15.39 6.55 15.06 7.06 14.63 7.49L8.63 13.74C8.54 13.83 8.43 13.9 8.31 13.95C8.19 14 8.06 14.02 7.94 14.02C7.81 14.02 7.68 14 7.56 13.95C7.44 13.9 7.33 13.83 7.24 13.74L1.24 7.49C0.82 7.05 0.5 6.53 0.28 5.96C0.07 5.39 -0.02 4.79 0.01 4.18C0.03 3.57 0.19 2.98 0.45 2.43C0.72 1.88 1.09 1.4 1.55 1C1.96 0.66 2.44 0.4 2.95 0.23C3.46 0.06 4 -0.01 4.54 0.03C5.07 0.06 5.6 0.19 6.09 0.42C6.57 0.65 7.01 0.97 7.38 1.36L8 2L8.62 1.42C8.98 1.02 9.42 0.7 9.91 0.47C10.39 0.23 10.92 0.09 11.45 0.06C11.99 0.02 12.53 0.08 13.04 0.24C13.55 0.4 14.03 0.66 14.45 1ZM11.51 6.75C11.51 6.68 11.5 6.62 11.47 6.56C11.45 6.49 11.41 6.44 11.36 6.39C11.31 6.35 11.26 6.31 11.19 6.29C11.13 6.26 11.07 6.25 11 6.25L8.75 6.25L8.75 4C8.75 3.93 8.74 3.87 8.71 3.81C8.69 3.74 8.65 3.69 8.61 3.64C8.56 3.59 8.51 3.55 8.44 3.53C8.38 3.5 8.32 3.49 8.25 3.49L7.75 3.49C7.68 3.49 7.62 3.5 7.56 3.53C7.49 3.55 7.44 3.59 7.39 3.64C7.35 3.69 7.31 3.74 7.29 3.81C7.26 3.87 7.25 3.93 7.25 4L7.25 6.25L5 6.25C4.93 6.25 4.87 6.26 4.81 6.29C4.74 6.31 4.69 6.35 4.64 6.39C4.59 6.44 4.55 6.49 4.53 6.56C4.5 6.62 4.49 6.68 4.49 6.75L4.49 7.25C4.49 7.32 4.51 7.38 4.53 7.44C4.56 7.5 4.6 7.56 4.64 7.61C4.69 7.65 4.75 7.69 4.81 7.72C4.87 7.74 4.93 7.76 5 7.76L7.25 7.76L7.25 9.99C7.25 10.06 7.26 10.12 7.29 10.18C7.31 10.25 7.35 10.3 7.39 10.35C7.44 10.4 7.49 10.44 7.56 10.46C7.62 10.49 7.68 10.5 7.75 10.5L8.25 10.5C8.32 10.5 8.38 10.49 8.44 10.46C8.5 10.44 8.56 10.4 8.6 10.35C8.65 10.31 8.69 10.25 8.71 10.19C8.74 10.13 8.75 10.07 8.75 10L8.75 7.79L11.01 7.79C11.08 7.79 11.14 7.78 11.2 7.75C11.27 7.73 11.32 7.69 11.37 7.65C11.42 7.6 11.46 7.55 11.48 7.48C11.51 7.42 11.52 7.36 11.52 7.29L11.51 6.75Z" />
</svg>
