<svg xmlns="http://www.w3.org/2000/svg" width="90" height="80" viewBox="0 0 90 80">
  <g fill="none" fill-rule="evenodd">
    <rect width="85" height="77" y="3" fill="#E7E7E7" rx="5"/>
    <rect width="85" height="77" x="5" fill="#FFF" rx="5"/>
    <path fill="#696969" fill-rule="nonzero" d="M44.33,22.9425 C44.951,22.9425 45.54725,22.8255 46.11875,22.5915 C46.69025,22.3575 47.192,22.02675 47.624,21.59925 C48.056,21.17175 48.4025,20.661 48.6635,20.067 C48.9245,19.473 49.055,18.816 49.055,18.096 C49.055,17.349 48.938,16.67175 48.704,16.06425 C48.47,15.45675 48.14375,14.937 47.72525,14.505 C47.30675,14.073 46.80725,13.73775 46.22675,13.49925 C45.64625,13.26075 45.014,13.1415 44.33,13.1415 C43.646,13.1415 43.01825,13.26075 42.44675,13.49925 C41.87525,13.73775 41.38025,14.073 40.96175,14.505 C40.54325,14.937 40.217,15.45675 39.983,16.06425 C39.749,16.67175 39.632,17.349 39.632,18.096 C39.632,18.816 39.749,19.473 39.983,20.067 C40.217,20.661 40.54325,21.17175 40.96175,21.59925 C41.38025,22.02675 41.87525,22.3575 42.44675,22.5915 C43.01825,22.8255 43.646,22.9425 44.33,22.9425 Z M43.547,33 C43.835,33 44.08025,32.94375 44.28275,32.83125 C44.48525,32.71875 44.654,32.577 44.789,32.406 L44.789,32.406 L59.612,13.3305 L56.561,13.3305 C56.21,13.3305 55.9355,13.39575 55.7375,13.52625 C55.5395,13.65675 55.373,13.7985 55.238,13.9515 L55.238,13.9515 L40.415,33 L43.547,33 Z M44.33,20.337 C44.114,20.337 43.916,20.301 43.736,20.229 C43.556,20.157 43.403,20.0355 43.277,19.8645 C43.151,19.6935 43.052,19.464 42.98,19.176 C42.908,18.888 42.872,18.528 42.872,18.096 C42.872,17.637 42.908,17.25675 42.98,16.95525 C43.052,16.65375 43.151,16.413 43.277,16.233 C43.403,16.053 43.556,15.927 43.736,15.855 C43.916,15.783 44.114,15.747 44.33,15.747 C44.546,15.747 44.74625,15.783 44.93075,15.855 C45.11525,15.927 45.275,16.053 45.41,16.233 C45.545,16.413 45.65075,16.65375 45.72725,16.95525 C45.80375,17.25675 45.842,17.637 45.842,18.096 C45.842,18.528 45.80375,18.888 45.72725,19.176 C45.65075,19.464 45.545,19.6935 45.41,19.8645 C45.275,20.0355 45.11525,20.157 44.93075,20.229 C44.74625,20.301 44.546,20.337 44.33,20.337 Z M55.643,33.243 C56.264,33.243 56.86025,33.126 57.43175,32.892 C58.00325,32.658 58.505,32.32725 58.937,31.89975 C59.369,31.47225 59.7155,30.95925 59.9765,30.36075 C60.2375,29.76225 60.368,29.103 60.368,28.383 C60.368,27.636 60.251,26.95875 60.017,26.35125 C59.783,25.74375 59.45675,25.224 59.03825,24.792 C58.61975,24.36 58.12025,24.02475 57.53975,23.78625 C56.95925,23.54775 56.327,23.4285 55.643,23.4285 C54.959,23.4285 54.33125,23.54775 53.75975,23.78625 C53.18825,24.02475 52.69325,24.36 52.27475,24.792 C51.85625,25.224 51.53,25.74375 51.296,26.35125 C51.062,26.95875 50.945,27.636 50.945,28.383 C50.945,29.103 51.062,29.76225 51.296,30.36075 C51.53,30.95925 51.85625,31.47225 52.27475,31.89975 C52.69325,32.32725 53.18825,32.658 53.75975,32.892 C54.33125,33.126 54.959,33.243 55.643,33.243 Z M55.643,30.624 C55.427,30.624 55.229,30.588 55.049,30.516 C54.869,30.444 54.716,30.3225 54.59,30.1515 C54.464,29.9805 54.365,29.751 54.293,29.463 C54.221,29.175 54.185,28.815 54.185,28.383 C54.185,27.933 54.221,27.55725 54.293,27.25575 C54.365,26.95425 54.464,26.7135 54.59,26.5335 C54.716,26.3535 54.869,26.2275 55.049,26.1555 C55.229,26.0835 55.427,26.0475 55.643,26.0475 C55.859,26.0475 56.05925,26.0835 56.24375,26.1555 C56.42825,26.2275 56.588,26.3535 56.723,26.5335 C56.858,26.7135 56.96375,26.95425 57.04025,27.25575 C57.11675,27.55725 57.155,27.933 57.155,28.383 C57.155,28.815 57.11675,29.175 57.04025,29.463 C56.96375,29.751 56.858,29.9805 56.723,30.1515 C56.588,30.3225 56.42825,30.444 56.24375,30.516 C56.05925,30.588 55.859,30.624 55.643,30.624 Z"/>
    <g transform="translate(11.5 49)">
      <circle cx="2.5" cy="2.5" r="2.5" fill="#73C5C2"/>
      <circle cx="10.5" cy="2.5" r="2.5" fill="#73C5C2"/>
      <circle cx="17.5" cy="2.5" r="2.5" fill="#73C5C2"/>
      <circle cx="25.5" cy="2.5" r="2.5" fill="#73C5C2"/>
      <circle cx="32.5" cy="2.5" r="2.5" fill="#73C5C2"/>
      <circle cx="40.5" cy="2.5" r="2.5" fill="#73C5C2"/>
      <circle cx="47.5" cy="2.5" r="2.5" fill="#73C5C2"/>
      <circle cx="55.5" cy="2.5" r="2.5" fill="#D8D8D8"/>
      <circle cx="62.5" cy="2.5" r="2.5" fill="#D8D8D8"/>
      <circle cx="70.5" cy="2.5" r="2.5" fill="#D8D8D8"/>
    </g>
    <line x1="27" x2="67" y1="42.5" y2="42.5" stroke="#D8D8D8" stroke-linecap="round" stroke-linejoin="round" stroke-width="2"/>
    <line x1="11.5" x2="51.5" y1="64" y2="64" stroke="#D8D8D8" stroke-linecap="round" stroke-linejoin="round" stroke-width="2"/>
    <line x1="11.5" x2="51.5" y1="70" y2="70" stroke="#D8D8D8" stroke-linecap="round" stroke-linejoin="round" stroke-width="2"/>
  </g>
</svg>
