<svg xmlns="http://www.w3.org/2000/svg" viewBox="0 0 20 14" width="20" height="20">
	<style>
		tspan { white-space:pre }
		.shp0 { fill: #ffffff }
	</style>
	<path id="Layer" class="shp0" d="M6 7C7.42 7 8.69 6.15 9.23 4.84C9.78 3.53 9.48 2.03 8.47 1.03C7.47 0.02 5.97 -0.28 4.66 0.27C3.35 0.81 2.5 2.08 2.5 3.5C2.5 3.96 2.59 4.41 2.77 4.84C2.94 5.26 3.2 5.65 3.53 5.97C3.85 6.3 4.24 6.56 4.66 6.73C5.09 6.91 5.54 7 6 7L6 7ZM8.4 8L8.14 8C7.81 8.16 7.46 8.29 7.1 8.37C6.74 8.46 6.37 8.5 6 8.5C5.63 8.5 5.26 8.46 4.9 8.37C4.54 8.29 4.19 8.16 3.86 8L3.6 8C3.13 8 2.66 8.09 2.22 8.27C1.79 8.45 1.39 8.72 1.05 9.05C0.72 9.39 0.45 9.79 0.27 10.22C0.09 10.66 0 11.13 0 11.6L0 12.5C0 12.7 0.04 12.89 0.11 13.07C0.19 13.26 0.3 13.42 0.44 13.56C0.58 13.7 0.74 13.81 0.93 13.89C1.11 13.96 1.3 14 1.5 14L10.5 14C10.7 14 10.89 13.96 11.07 13.89C11.26 13.81 11.42 13.7 11.56 13.56C11.7 13.42 11.81 13.26 11.89 13.07C11.96 12.89 12 12.7 12 12.5L12 11.6C12 11.13 11.91 10.66 11.73 10.22C11.55 9.79 11.28 9.39 10.95 9.05C10.61 8.72 10.21 8.45 9.78 8.27C9.34 8.09 8.87 8 8.4 8L8.4 8ZM15 7C16.21 7 17.31 6.27 17.77 5.15C18.24 4.03 17.98 2.74 17.12 1.88C16.26 1.02 14.97 0.76 13.85 1.23C12.73 1.69 12 2.79 12 4C12 4.39 12.08 4.78 12.23 5.15C12.38 5.51 12.6 5.84 12.88 6.12C13.16 6.4 13.49 6.62 13.85 6.77C14.22 6.92 14.61 7 15 7ZM16.5 8L16.38 8C16.16 8.08 15.93 8.15 15.7 8.19C15.47 8.23 15.24 8.25 15 8.25C14.76 8.25 14.53 8.23 14.3 8.19C14.07 8.15 13.84 8.08 13.62 8L13.5 8C13.35 8 13.2 8.01 13.04 8.03C12.89 8.05 12.74 8.08 12.6 8.12C12.45 8.16 12.31 8.21 12.17 8.27C12.03 8.33 11.89 8.4 11.76 8.48C11.96 8.69 12.13 8.92 12.29 9.16C12.44 9.4 12.57 9.66 12.68 9.92C12.78 10.19 12.86 10.46 12.92 10.75C12.97 11.03 13 11.31 13 11.6L13 12.8C13 12.87 13 12.93 13 13L18.5 13C18.7 13 18.89 12.96 19.07 12.89C19.26 12.81 19.42 12.7 19.56 12.56C19.7 12.42 19.81 12.26 19.89 12.07C19.96 11.89 20 11.7 20 11.5C20 11.04 19.91 10.59 19.73 10.16C19.56 9.74 19.3 9.35 18.97 9.03C18.65 8.7 18.26 8.44 17.84 8.27C17.41 8.09 16.96 8 16.5 8Z" />
</svg>
