<?xml version="1.0" encoding="utf-8"?>
<!-- Generator: Adobe Illustrator 24.0.0, SVG Export Plug-In . SVG Version: 6.00 Build 0)  -->
<svg version="1.1" id="Layer_1" xmlns="http://www.w3.org/2000/svg" xmlns:xlink="http://www.w3.org/1999/xlink" x="0px" y="0px"
	 viewBox="0 0 42 25" style="enable-background:new 0 0 42 25;" xml:space="preserve">
<style type="text/css">
	.st0{enable-background:new    ;}
	.st1{fill:#FFFFFF;}
</style>
<g transform="translate(-5 -5)">
	<g class="st0">
		<path class="st1" d="M17.5,20.7c1.4,0,3,0.2,4.8,0.6c2,0.5,3.5,1.1,4.8,2c1.4,1,2.2,2,2.2,3.2v2.9H5.8v-2.9c0-1.2,0.7-2.3,2.2-3.2
			c1.2-0.8,2.8-1.5,4.8-2C14.5,20.9,16.1,20.7,17.5,20.7z M17.5,17.8c-1,0-2-0.3-2.9-0.8c-0.9-0.5-1.6-1.2-2.1-2.1
			C12,14,11.7,13,11.7,11.9c0-1.1,0.3-2,0.8-2.9s1.2-1.6,2.1-2.2c0.9-0.5,1.9-0.8,2.9-0.8s2,0.3,2.9,0.8C21.3,7.4,22,8.1,22.5,9
			s0.8,1.9,0.8,2.9c0,1-0.3,2-0.8,2.9c-0.5,0.9-1.2,1.6-2.1,2.1C19.5,17.5,18.5,17.8,17.5,17.8z"/>
	</g>
</g>
<g>
	<path class="st1" d="M39.6,24.2v-2.9c0-1.2-0.7-2.3-2.2-3.2c-1.2-0.8-2.8-1.5-4.8-2c-1.7-0.4-3.3-0.6-4.8-0.6c-1.4,0-3,0.2-4.8,0.6
		c-0.9,0.2-1.8,0.5-2.5,0.8c0.8,0.3,1.6,0.7,2.2,1.1c1.4,1,2.2,2,2.2,3.2v2.9"/>
	<path class="st1" d="M25,11.7c0.9,0.5,1.9,0.8,2.9,0.8s2-0.3,2.9-0.8c0.9-0.5,1.6-1.2,2.1-2.1c0.5-0.9,0.8-1.9,0.8-2.9
		c0-1.1-0.3-2-0.8-2.9s-1.2-1.6-2.1-2.2c-0.9-0.5-1.9-0.8-2.9-0.8s-2,0.3-2.9,0.8c-0.9,0.5-1.6,1.2-2.1,2.2s-0.8,1.9-0.8,2.9
		c0,1,0.3,2,0.8,2.9C23.4,10.5,24.1,11.2,25,11.7z"/>
</g>
</svg>
