<svg xmlns="http://www.w3.org/2000/svg" viewBox="0 0 1207.59 740.07"><style>.st1,.st13{fill:none;stroke-width:3;stroke-linejoin:round;stroke-linecap:round}.st1{stroke-miterlimit:10;stroke:#e4ba80}.st13{stroke:#2a2f41}.st13,.st21,.st23{stroke-miterlimit:10}.st21{stroke:#214dff;fill:#214dff}.st23{fill:none;stroke-width:3;stroke-linejoin:round;stroke:#2a2f41}.st24,.st25{stroke:#214dff;stroke-miterlimit:10}.st24{stroke-width:3;stroke-linecap:round;stroke-linejoin:round;fill:#214dff}.st25{fill:#f2f2f2}</style><g id="Art"><path class="st1" d="M1045.57 297.64v321.54c0 34.66-28.1 62.75-62.75 62.75h-62.4m-89.95.01h-63.49c-29.34 0-57.58-11.15-79-31.2a115.642 115.642 0 0 0-79-31.2h-96.13m-217.29 0H162.39c-39.82 0-72.1-32.28-72.1-72.1V223.77c0-47.09 38.18-85.27 85.27-85.27h266.59"/><path d="M386.79 360.89h55.36m14.13 0c18.19 0 32.94-14.75 32.94-32.94v-50.57c0-18.19 14.75-32.94 32.94-32.94h246.96" stroke-miterlimit="10" stroke="#e4ba80" fill="none" stroke-width="3" stroke-linejoin="round"/><path class="st1" d="M379.46 395.32h144.55m254.53-1.63h427.55m-525.8-283.62h107.77c15.23 0 27.58 12.35 27.58 27.58m0 155.7c0 26.88 21.79 48.68 48.68 48.68h341.77M965.28 80.16v18.89c0 8.3 6.73 15.03 15.03 15.03h130.52c8.3 0 15.03-6.73 15.03-15.03V80.16m-80.29 0v67.85"/><path class="st21" d="M994.69 463.18h211.4v24.59h-211.4zm0 50.6h211.4v24.59h-211.4zm0 50.59h211.4v24.59h-211.4z"/><g id="XMLID_6_"><path class="st21" d="M680.3 158.06v31.26c-75.4-25.29-148.63 26.17-224.01.89v-31.26c75.38 25.28 148.61-26.18 224.01-.89zm0-62.52v31.26c-75.4-25.29-148.63 26.17-224.01.89V96.43c75.38 25.28 148.61-26.17 224.01-.89zm0-62.52v31.26c-75.4-25.28-148.63 26.18-224.01.89V33.92c75.38 25.28 148.61-26.18 224.01-.9z"/><path d="M680.3 33.02v156.3m-224.01.89V33.92m0 0c75.38 25.28 148.61-26.18 224.01-.9M456.29 65.17C531.67 90.46 604.9 39 680.3 64.28M456.29 96.43c75.38 25.28 148.61-26.17 224.01-.89m-224.01 32.15c75.38 25.28 148.61-26.18 224.01-.89m-224.01 32.15c75.38 25.28 148.61-26.18 224.01-.89m-224.01 32.15c75.38 25.28 148.61-26.18 224.01-.89" stroke-linecap="round" stroke="#214dff" fill="none" stroke-width="3" stroke-linejoin="round" stroke-miterlimit="10"/></g><path class="st13" d="M456.14 190.21V26.71c0-3.86-3.13-7-7-7-3.86 0-7 3.13-7 7v368.61h13.99V190.21m80.78 105.28c44.32 42.49 96.99 65.39 151.07 65.39v65.59c-54.08 0-106.75 22.9-151.07 65.39-4.85 4.65-12.9 1.24-12.9-5.48V300.97c0-6.72 8.05-10.13 12.9-5.48zm208.84 130.99h-57.77v-65.59h57.77c18.11 0 32.8 14.68 32.8 32.8-.01 18.1-14.69 32.79-32.8 32.79z"/><path class="st13" d="M701.49 426.48c3.46 38.52-5.06 77.17-24.39 110.66h42.85c9.51 0 17.21-7.71 17.21-17.21v-93.45"/><path class="st23" d="M942.06 535.55v50.38c0 5.17-1.19 10.28-3.48 14.92l-15.91 32.27a34.32 34.32 0 0 0-3.54 15.19v90.26h-88.41V630.26c0-7.64-2.55-15.07-7.25-21.1l-35.62-45.74a19.716 19.716 0 0 1-2.36-20.36l18.12-39.43a19.72 19.72 0 0 1 17.93-11.49h55.59c-4.06 14.23-17.06 24.05-31.86 24.05h-3.97l-9.7 20.15c-4.04 8.39.25 18.37 9.08 21.34 22.35 7.5 38.45 28.61 38.45 53.48v2.37"/><path class="st13" d="M876.93 567.86c-6.65-3.07-9.56-10.95-6.49-17.61l27.44-59.47c3.07-6.65 10.95-9.56 17.61-6.49 6.65 3.07 9.56 10.95 6.49 17.61l-27.44 59.47c-3.07 6.65-10.96 9.56-17.61 6.49zm29.55 15.45c-6.65-3.07-9.56-10.95-6.49-17.61l16.75-36.3c3.07-6.65 10.95-9.56 17.61-6.49 6.65 3.07 9.56 10.95 6.49 17.61l-16.75 36.3c-3.07 6.65-10.95 9.56-17.61 6.49zm-55.34-91.18l8.72-18.89c3.07-6.65.16-14.54-6.49-17.61-6.65-3.07-14.54-.16-17.61 6.49l-13.84 30.01h29.22zm25.99 0c-3.75 13.16-15.16 22.54-28.57 23.88l-9.19 19.92c-3.07 6.65-.16 14.54 6.49 17.61 6.65 3.07 14.54.16 17.61-6.49l27.44-59.47c3.07-6.65.16-14.54-6.49-17.61-6.65-3.07-14.54-.16-17.61 6.49l-7.23 15.68h17.55z"/><path class="st21" d="M829.23 669.24h91.42v25.4h-91.42z"/><path class="st13" d="M317.79 127.94h-57.03c-4.36 0-7.9 3.54-7.9 7.9v2.66h72.82v-2.66c.01-4.36-3.52-7.9-7.89-7.9z"/><path class="st13" d="M297.35 117.39H281.2c-3.26 0-5.9 2.64-5.9 5.9v4.66h27.94v-4.66c.01-3.26-2.63-5.9-5.89-5.9zm-5.66-13.15h-4.82c-2.14 0-3.87 1.73-3.87 3.87v9.27h12.56v-9.27c0-2.14-1.73-3.87-3.87-3.87zm-2.41 0V35.06M236.1 51.99c8.17 19.94 31.19-9.41 53.17-9.41s45 29.35 53.17 9.41"/><path class="st13" d="M227.03 104.24l20.13-45.31 20.14 45.31m84.23 0l-20.14-45.31-20.13 45.31"/><path class="st24" d="M267.3 104.24h-40.27v5.83c0 4.04 3.28 7.32 7.32 7.32h25.64c4.04 0 7.32-3.28 7.32-7.32v-5.83zm43.96 0h40.27v5.83c0 4.04-3.28 7.32-7.32 7.32h-25.64c-4.04 0-7.32-3.28-7.32-7.32v-5.83z"/><circle class="st24" cx="289.28" cy="30.61" r="4.79"/><path class="st13" d="M761.11 293.35h109.07m-101.05-97.83h93.03v97.83h-93.03zm-8.02-16.86h109.07v16.86H761.11z"/><circle class="st21" cx="815.64" cy="244.43" r="26.81"/><path class="st13" d="M790.18 178.66l-10.54-26.93 60.82-23.79 14.24 36.43-36.55 14.29m-8.23-23.79l25.04-9.8M814 165.3l25.04-9.79m-43.71 5.07l8.34-3.27m-4.26 13.7l8.34-3.26"/><path class="st25" d="M815.64 228.85l3.5 10.77h11.33l-9.17 6.65 3.5 10.77-9.16-6.65-9.16 6.65 3.5-10.77-9.16-6.65h11.32z"/><path class="st23" d="M295.56 670.9v67.67h14.14V670.9m189.01 0v67.67h14.14V670.9"/><path class="st13" d="M295.56 568.19v-7.37a7.07 7.07 0 1 1 14.14 0v7.37m189.01 0v-7.37a7.07 7.07 0 1 1 14.14 0v7.37"/><g id="XMLID_4_"><path class="st21" d="M361.77 487.78H216.8V218.65h43.36v1.02c0 6.76 5.48 12.24 12.24 12.24h33.76c6.76 0 12.24-5.48 12.24-12.24v-1.02h43.37v107.78h-31.99c0 19.02 15.42 34.44 34.44 34.44h-34.44c0 19.03 15.42 34.45 34.44 34.45h-34.44c0 19.02 15.42 34.44 34.44 34.44h-34.44c0 18.21 14.11 33.11 31.99 34.36v23.66zm-32.31-217.94l8.12-5.9h-10.04l-3.1-9.54-3.1 9.54h-10.03l8.12 5.9-3.1 9.54 8.11-5.89 8.12 5.89-3.1-9.54zm-35.16 0l8.11-5.9h-10.03l-3.1-9.54-3.1 9.54h-10.03l8.12 5.9-3.1 9.54 8.11-5.89 8.12 5.89-3.1-9.54zm-35.16 0l8.11-5.9h-10.03l-3.1-9.54-3.1 9.54h-10.03l8.11 5.9-3.1 9.54 8.12-5.89 8.12 5.89-3.1-9.54z"/><path class="st25" d="M337.58 263.94l-8.12 5.9 3.1 9.54-8.12-5.89-8.11 5.89 3.1-9.54-8.12-5.9h10.03l3.1-9.54 3.1 9.54zm-35.17 0l-8.11 5.9 3.1 9.54-8.12-5.89-8.11 5.89 3.1-9.54-8.12-5.9h10.03l3.1-9.54 3.1 9.54zm-35.16 0l-8.11 5.9 3.1 9.54-8.12-5.89-8.12 5.89 3.1-9.54-8.11-5.9h10.03l3.1-9.54 3.1 9.54z"/><path class="st13" d="M203.8 359.25v-143.6c0-5.52 4.48-10 10-10h150.96c5.53 0 10 4.48 10 10v110.78m0 137.78v26.57c0 5.52-4.47 10-10 10H213.8c-5.52 0-10-4.48-10-10v-38.47"/><path class="st13" d="M361.77 464.12v23.66H216.8V218.65h144.97v107.78M203.8 452.31v-93.06c0-19.02-15.42-34.44-34.45-34.44v93.05c0 19.02 15.43 34.45 34.45 34.45z"/><path class="st13" d="M364.22 360.87c-19.02 0-34.44-15.42-34.44-34.44h61.06c9.51 0 17.22 7.71 17.22 17.22 0 4.76-1.93 9.06-5.04 12.18a17.196 17.196 0 0 1-12.18 5.04"/><path class="st13" d="M364.22 395.32c-19.02 0-34.44-15.42-34.44-34.45h61.06c9.51 0 17.22 7.72 17.22 17.23 0 4.75-1.93 9.06-5.04 12.18a17.196 17.196 0 0 1-12.18 5.04"/><path class="st13" d="M364.22 429.76c-19.02 0-34.44-15.42-34.44-34.44h61.06c9.51 0 17.22 7.71 17.22 17.22 0 4.75-1.93 9.06-5.04 12.18a17.196 17.196 0 0 1-12.18 5.04"/><path class="st13" d="M390.84 429.76c9.51 0 17.22 7.72 17.22 17.23 0 4.76-1.93 9.06-5.04 12.18a17.196 17.196 0 0 1-12.18 5.04h-26.62c-.82 0-1.64-.03-2.45-.09-17.88-1.25-31.99-16.15-31.99-34.36h61.06z"/><path d="M318.4 218.65v1.02c0 6.76-5.48 12.24-12.24 12.24H272.4c-6.76 0-12.24-5.48-12.24-12.24v-1.02" fill="none" stroke="#2a2f41" stroke-width="2" stroke-linecap="round" stroke-linejoin="round" stroke-miterlimit="10"/></g><circle class="st21" cx="745.49" cy="393.68" r="22.01"/><circle cx="289.28" cy="359.25" r="35.16" fill="#e4ba80" stroke="#214dff" stroke-miterlimit="10"/><path class="st1" d="M1093.61 297.64h-97.45c-14.41 0-26.09-11.68-26.09-26.09V174.1c0-14.41 11.68-26.09 26.09-26.09h97.45c14.41 0 26.09 11.68 26.09 26.09v97.45c0 14.41-11.68 26.09-26.09 26.09z"/><path class="st13" d="M1145.26 80.16h-38.81c-5.52 0-10-4.48-10-10V31.35c0-5.52 4.48-10 10-10h38.81c5.52 0 10 4.48 10 10v38.81c0 5.52-4.48 10-10 10zm-80.97 0h-38.81c-5.52 0-10-4.48-10-10V31.35c0-5.52 4.48-10 10-10h38.81c5.52 0 10 4.48 10 10v38.81c0 5.52-4.47 10-10 10zm-79.6 0h-38.81c-5.52 0-10-4.48-10-10V31.35c0-5.52 4.48-10 10-10h38.81c5.52 0 10 4.48 10 10v38.81c0 5.52-4.48 10-10 10z"/><path class="st25" d="M894.43 675.01l1.72 5.29h5.56l-4.5 3.27 1.72 5.3-4.5-3.28-4.5 3.28 1.72-5.3-4.51-3.27h5.57zm-19.51 0l1.72 5.29h5.57l-4.5 3.27 1.72 5.3-4.51-3.28-4.5 3.28 1.72-5.3-4.5-3.27h5.56zm-19.5 0l1.72 5.29h5.56l-4.5 3.27 1.72 5.3-4.5-3.28-4.5 3.28 1.72-5.3-4.51-3.27h5.57zM745.49 381.94l2.92 8.98h9.44l-7.64 5.55 2.92 8.98-7.64-5.55-7.64 5.55 2.92-8.98-7.65-5.55h9.45z"/><path class="st21" d="M964.53 34.54l3.81 11.72h12.33l-9.97 7.25 3.81 11.73-9.98-7.25-9.97 7.25 3.81-11.73-9.98-7.25h12.33z"/><path class="st13" d="M1038.67 208.96a11.21 11.21 0 0 1 12.3 0m-6.08-34.11c-16.68 0-30.2 13.52-30.2 30.2v23.55a44.41 44.41 0 0 0 10.89 29.13l5.19 5.97a18.68 18.68 0 0 0 14.11 6.43c5.41 0 10.56-2.35 14.11-6.43l5.19-5.97a44.43 44.43 0 0 0 10.89-29.13v-23.55c.02-16.68-13.5-30.2-30.18-30.2z"/><path class="st13" d="M1017.8 244.91l15.18-6.79a9.793 9.793 0 0 1 8.12.05l.78.36a7 7 0 0 0 5.87 0l.78-.36a9.793 9.793 0 0 1 8.12-.05l15.18 6.79"/><circle class="st24" cx="1030.9" cy="214.87" r="9.77"/><circle class="st24" cx="1058.87" cy="214.87" r="9.77"/><path class="st13" d="M1033.43 247.77c7 4.41 15.91 4.41 22.91 0m18.75-18.84v-17.99c3.94 0 7.13 3.19 7.13 7.13v3.73c0 3.93-3.19 7.13-7.13 7.13zm-60.4 0v-17.99c-3.94 0-7.13 3.19-7.13 7.13v3.73c-.01 3.93 3.19 7.13 7.13 7.13z"/><path class="st25" d="M1030.9 208.5l1.59 4.87h5.12l-4.15 3.01 1.59 4.87-4.15-3.01-4.14 3.01 1.58-4.87-4.14-3.01h5.12zm27.97 0l1.58 4.87h5.12l-4.14 3.01 1.58 4.87-4.14-3.01-4.14 3.01 1.58-4.87-4.14-3.01h5.12z"/><path class="st21" d="M1032.59 43.66v14.19l12.3 7.1 12.29-7.1V43.66l-12.29-7.1zm93.27-7.1l-14.08 24.37h28.15zM283.62 371.21l-12.11-15.33 3.93-3.1 8.87 11.24 19.47-16.74 3.26 3.79z"/><path d="M21.35 241.28v-42.7m21.34 21.35H0M822.44 42.69V0m21.35 21.35H801.1M605.99 576.1v-42.7m21.35 21.35h-42.7m555.29 120.98v-42.69m21.35 21.35h-42.7M909.53 138.62v-21.35m10.67 10.67h-21.35M677.1 308.32v-21.35m10.68 10.67h-21.35M162.58 560.4v-21.35m10.67 10.68H151.9M42.69 643.71v-21.34m10.68 10.67H32.02" fill="none" stroke-width="3" stroke="#214dff" stroke-miterlimit="10"/><path fill="#214dff" stroke="#214dff" stroke-width="3" stroke-miterlimit="10" d="M295.56 568.19h217.29v102.7H295.56z"/><path class="st25" d="M460.53 599.54l4.97 15.28h16.07l-13 9.45 4.97 15.28-13.01-9.44-13 9.44 4.97-15.28-13-9.45h16.07zm-56.32 0l4.96 15.28h16.07l-13 9.45 4.97 15.28-13-9.44-13.01 9.44 4.97-15.28-13-9.45h16.07zm-56.33 0l4.96 15.28h16.07l-13 9.45 4.97 15.28-13-9.44-13.01 9.44 4.97-15.28-13-9.45h16.07z"/></g></svg>