<svg xmlns="http://www.w3.org/2000/svg" width="139" height="32"><g fill="none" fill-rule="evenodd"><path fill="#2B2523" d="M.722 31.98h76.739V.116H.722z"/><path fill="#686969" d="M77.46 31.98h61.119V.116H77.46z"/><path fill="#FFF" d="M53.564 23.49h-3.72V8.616h3.72a7.437 7.437 0 010 14.874m0-19.123h-7.968v23.372h7.968c6.456 0 11.688-5.23 11.688-11.686 0-6.454-5.232-11.686-11.688-11.686M67.915 27.74h4.249V4.377h-4.249zM22.237 12.319c0-4.692-3.803-8.473-8.495-8.473-4.691 0-8.494 3.78-8.494 8.473v15.425h4.247V12.319c0-2.345 1.9-4.225 4.247-4.225 2.344 0 4.247 1.88 4.247 4.225v15.425h4.248V12.319z"/><path fill="#FFF" d="M16.929 18.2a3.186 3.186 0 10-3.185 3.187 3.185 3.185 0 003.185-3.187m68.541-.326c-1.54 0-2.74-1.297-2.74-2.955 0-1.657 1.2-2.955 2.74-2.955 1.282 0 2.23.727 2.58 1.886h-1.166c-.255-.514-.76-.896-1.414-.896-.93 0-1.662.897-1.662 1.965 0 1.079.732 1.976 1.662 1.976.645 0 1.16-.4 1.414-.916h1.16c-.362 1.152-1.317 1.895-2.574 1.895m6.002-2.188c0-.727-.464-1.232-1.035-1.232-.569 0-1.036.505-1.036 1.232 0 .71.467 1.2 1.036 1.2.571 0 1.035-.49 1.035-1.2m1.085-.009c0 1.257-.951 2.196-2.12 2.196-1.167 0-2.112-.939-2.112-2.196 0-1.256.945-2.212 2.112-2.212 1.169 0 2.12.956 2.12 2.212m6.885 2.099h-1.08v-2.458c0-.237-.081-.798-.79-.798-.474 0-.816.324-.816.798v2.457h-1.078v-2.457c0-.237-.075-.798-.783-.798-.481 0-.816.324-.816.798v2.457h-1.078v-2.432c0-1.068.742-1.878 1.894-1.878.57 0 1.035.23 1.337.597a1.756 1.756 0 011.34-.597c1.177 0 1.87.776 1.87 1.878v2.432zm2.423.098c-1.175 0-1.87-.775-1.87-1.876v-2.425h1.079v2.457c0 .237.08.8.79.8.475 0 .817-.335.817-.8v-2.457h1.078v2.425c0 1.068-.751 1.876-1.894 1.876m4.401-4.408c1.176 0 1.871.776 1.871 1.876v2.434h-1.08v-2.458c0-.236-.081-.798-.791-.798-.474 0-.816.326-.816.798v2.458h-1.077v-2.434c0-1.068.75-1.876 1.893-1.876m2.589 4.309h1.076v-4.202h-1.076v4.202zm-.008-4.66v-.604c0-.3.245-.536.546-.536.297 0 .538.236.538.536v.604h-1.084zm3.755 4.759c-1.264 0-2.168-.98-2.168-2.194 0-1.219.904-2.214 2.169-2.214 1.013 0 1.779.572 2.025 1.517h-1.152a1.003 1.003 0 00-.873-.528c-.597 0-1.076.553-1.076 1.231 0 .66.479 1.209 1.076 1.209a1 1 0 00.885-.54h1.147c-.245.956-1.012 1.518-2.032 1.518m4.451-3.394c-.597 0-1.077.514-1.077 1.207 0 .668.48 1.183 1.077 1.183.596 0 1.078-.531 1.078-1.183 0-.667-.482-1.207-1.078-1.207zm2.153 3.296h-1.017v-.442c-.318.353-.776.533-1.282.533-1.11 0-2.015-.98-2.015-2.187 0-1.217.89-2.213 2.161-2.213 1.265 0 2.153.996 2.153 2.213v2.096zm2.418.425c.36-.138.923.017.923.54 0 .407-.305.651-.75.651a1.16 1.16 0 01-.783-.343l.144-.253c.157.147.374.22.58.22.188 0 .342-.088.342-.26 0-.14-.12-.27-.324-.27a.41.41 0 00-.287.105l-.294-.196.277-.537c-1.1-.149-1.86-1.07-1.86-2.17 0-1.225.907-2.22 2.171-2.22 1.011 0 1.78.572 2.033 1.517h-1.16c-.163-.284-.482-.472-.873-.472-.595 0-1.076.53-1.076 1.174 0 .63.481 1.151 1.076 1.151.4 0 .72-.19.88-.483h1.153c-.235.942-.98 1.503-1.976 1.528l-.196.318zm4.766-3.721c-.594 0-1.078.514-1.078 1.207 0 .668.484 1.183 1.078 1.183.597 0 1.079-.531 1.079-1.183 0-.667-.482-1.207-1.079-1.207zm.66-1.542c-.473 0-.822-.302-1.141-.302-.188 0-.309.098-.366.332h-.507c.073-.488.352-.97.898-.97.474 0 .815.312 1.116.312.189 0 .288-.098.354-.344h.504c-.065.498-.345.972-.858.972zm1.494 4.838h-1.018v-.442c-.32.353-.777.533-1.282.533-1.11 0-2.014-.98-2.014-2.187 0-1.217.888-2.213 2.16-2.213 1.265 0 2.154.996 2.154 2.213v2.096zm3.594-2.089c0-.727-.467-1.232-1.036-1.232-.573 0-1.036.505-1.036 1.232 0 .71.463 1.2 1.036 1.2.569 0 1.036-.49 1.036-1.2m1.084-.009c0 1.257-.952 2.196-2.12 2.196-1.168 0-2.113-.939-2.113-2.196 0-1.256.945-2.212 2.113-2.212 1.168 0 2.12.956 2.12 2.212m-47.54 6.91a1.058 1.058 0 00-.831-.377c-.622 0-1.119.49-1.144 1.208l1.975-.83zm1.207 1.647c-.243.857-.987 1.436-2.029 1.436-1.194 0-2.156-.977-2.156-2.194 0-1.215.962-2.213 2.156-2.213 1.009 0 1.858.637 2.062 1.763l-2.971 1.25a1.1 1.1 0 00.9.45c.349 0 .71-.156.89-.492h1.148zm5.38-3.321h-1.021v3.659h1.02c1.28 0 1.477-1.155 1.477-1.837 0-.834-.263-1.822-1.476-1.822m0 4.662h-2.1v-5.666h2.1c1.575 0 2.552 1.085 2.552 2.835 0 1.727-1.002 2.831-2.552 2.831m3.144 0h1.079v-4.203h-1.079v4.203zm-.008-4.662v-.604a.54.54 0 01.547-.539c.295 0 .54.237.54.539v.604h-1.087zm4.019 1.389c-.687-.123-1.145.244-1.145.838v2.435h-1.076V23.14c0-1.19.825-2.023 2.221-1.851v1.013zm3.053.285a1.056 1.056 0 00-.833-.377c-.62 0-1.117.49-1.142 1.208l1.975-.83zm1.208 1.647c-.243.857-.988 1.436-2.033 1.436-1.19 0-2.154-.977-2.154-2.194 0-1.215.965-2.213 2.154-2.213 1.014 0 1.86.637 2.065 1.763l-2.97 1.25c.213.286.532.45.897.45.352 0 .71-.156.89-.492h1.15zm.732 1.398h1.078V21.43h-1.078v4.202zm-.005-4.66v-.603c0-.303.242-.538.544-.538.294 0 .539.235.539.538v.603h-1.083zm3.633 4.652c-1.233.132-1.884-.61-1.884-1.764v-3.497h1.076v1.067h.76v.953h-.76v1.486c0 .587.27.808.808.776v.979zm3.391-2.082c0-.726-.465-1.233-1.035-1.233-.571 0-1.038.507-1.038 1.233 0 .711.467 1.201 1.038 1.201.57 0 1.035-.49 1.035-1.2m1.084-.01c0 1.258-.953 2.198-2.12 2.198-1.168 0-2.114-.94-2.114-2.198 0-1.256.946-2.212 2.115-2.212 1.166 0 2.119.956 2.119 2.212m.127 1.055c.279.025.52 0 .678-.156.108-.095.21-.292.21-.905 0-.555.058-1.19.549-1.657.35-.341.818-.482 1.419-.433v1.047c-.301-.036-.522.023-.675.179-.1.103-.214.26-.214.864 0 .555-.056 1.248-.537 1.698-.351.335-.833.447-1.43.407v-1.044zM42.407 12.319c0-4.692-3.805-8.473-8.496-8.473-4.69 0-8.493 3.78-8.493 8.473v15.425h4.247V12.319c0-2.345 1.9-4.225 4.246-4.225a4.228 4.228 0 014.248 4.225v15.425h4.248V12.319z"/></g></svg>