<svg fill="#59449b" viewBox="0 -11 511.998 511" xmlns="http://www.w3.org/2000/svg"><path d="M209.809 349.477l9.328.3a.543.543 0 01.492.368l4.05 12.152a7.56 7.56 0 1014.344-4.781l-4.05-12.149c-2.063-6.191-7.828-10.492-14.352-10.703-9.207-.297-9.77-.016-9.848-.789l-5.707-58.242c-.765-7.793-7.195-14.371-16.433-14.113-.57.011-2.02.054-2.617-.168-.07-.16-7.028-23.043-7.078-23.211a15.669 15.669 0 00-10.11-10.325c-39.973-13.082-31.445-9.453-45.793-18.214h-.004a.538.538 0 01-.258-.493l.36-6.09c.687-11.714-11.266-19.984-21.973-15.238-19.183 8.489-27.476 12.297-29.742 13.086-12.926-.832-13.23-.543-13.258-1.344l-.074-2.171a15.703 15.703 0 00-6.89-12.438 15.704 15.704 0 00-14.114-1.738.547.547 0 01-.59-.153l-20.234-22.898a.535.535 0 01-.106-.54l7.52-21.062a.56.56 0 01.406-.351l29.465-5.785c6.812-1.34 11.86-6.88 12.562-13.79 5.387-53.14 5.801-38.421-.316-66.288-.191-.922-.129-.563 20.254-3.664a.553.553 0 01.488.18l11.961 13.734c4.86 5.582 13.063 6.988 19.504 3.355l16.242-9.16c6.473-3.652 9.496-11.426 7.2-18.488l-5-15.364c-.313-.922.054-.636 39.847-7.27.707-.124-.129-1.831 11.738 33.778a15.596 15.596 0 0018.43 10.297l21.195-4.96c7.805-1.829 11.329-8.524 11.977-12.962.367-.594-.594-.566 23.086 5.934 6.3 1.73 13.09-.68 16.887-6l5.746-8.043a.534.534 0 01.945.12c13.23 34.606 12.762 36.368 19.625 39.798l22.082 11.043a7.557 7.557 0 0010.145-3.38 7.56 7.56 0 00-3.383-10.144l-22.09-11.047c-1.39-2.523-4.941-12.539-12.254-31.668-4.457-11.652-20.125-13.66-27.371-3.507l-5.746 8.043a.545.545 0 01-.582.207l-22.48-6.172a15.726 15.726 0 00-12.372 1.773c-4.27 2.637-5.922 6.016-7.133 10.258 0 .367-.144.938-.527 1.027-22.176 5.188-21.578 5.368-21.832 4.606l-11.14-33.418C187.776 3.855 180.444-.56 172.796.719l-39.422 6.57c-9.453 1.574-15.277 11.195-12.316 20.297l5 15.36c.222.687.488.222-16.493 9.8a.542.542 0 01-.671-.113l-11.96-13.738a15.574 15.574 0 00-14.164-5.196l-19.805 3.012c-4.266.648-8.113 3.062-10.555 6.617s-3.312 8.012-2.387 12.223l4.266 19.433c-.125 2.36-1.187 12.121-4.226 42.086-.063.625 1.546.09-29.899 6.266-5.387 1.059-9.879 4.93-11.73 10.101L.91 154.5a15.67 15.67 0 003.016 15.637l20.234 22.902c4.293 4.852 10.996 6.563 17.09 4.348.36-.13.71.125.723.488l.078 2.172a15.596 15.596 0 0014.64 15.086c20.793 1.344 10.82 3.629 49.586-13.528a.534.534 0 01.758.528c-.34 5.781-1.969 14.84 7.133 20.383l.012-.02-.012.02c16.164 9.87 6.312 5.714 48.957 19.672a.544.544 0 01.348.355l6.992 22.98c2.61 8.57 9.277 11.102 18.012 11.102.761 0 .183-3.117 6.25 58.727.765 7.8 7.25 13.87 15.082 14.125zm248.355-126.352c-22.336 20.836-23.281 20.773-24.586 26.719-9.523 43.324-12.617 57.941-13.512 61.144-.226.325-36.007 51.91-36.402 51.942-55.402 4.265-53.144 3.203-58.121 7.582-26.39 23.011-27.617 22.84-28.7 29.941-2.527 16.617-3.652 25.168-4.277 27.504l-45.886 46.496a.538.538 0 01-.762.004l-32.5-31.98c-.77-.747-1.645.5 33.078-26.504a15.687 15.687 0 005.32-17.078l-2.968-10.934a7.556 7.556 0 00-9.278-5.316 7.561 7.561 0 00-5.316 9.277c.094.34 3.031 11.183 3.14 11.52a.54.54 0 01-.18.593L204.18 429.73c-7.473 5.813-8.114 16.883-1.371 23.524l32.5 31.98c6.148 6.051 16.078 5.977 22.132-.16l45.875-46.484c5.825-5.906 4.118-11.887 8.48-35.88 1.833-2.042 9.36-8.32 23.65-20.776 3.433-.633 17.156-1.45 49.374-3.93a15.585 15.585 0 0011.653-6.668l36.03-51.75c2.25-2.91 1.552-1.469 15.84-66.496 1.552-1.8 8.009-7.594 20.134-18.906a7.56 7.56 0 00-10.312-11.059zm50.055-72.41c-.934-7.88-7.621-13.817-15.551-13.817h-11.14c-3.294-2.218-15.11-12.644-43.391-36.707-6.13-5.214-8.344-3.84-49.73-1.836-2.165-.867-9.86-4.984-26.47-13.52-3.71-1.91-8.269-.444-10.18 3.27-1.91 3.711-.445 8.27 3.27 10.18 29.332 15.078 28.743 15.438 34.106 15.172 25.031-1.21 35.668-1.996 39.23-1.727 45.063 38.336 45.594 40.293 52.446 40.293 11.957-.003 12.3-.308 12.394.473.047.402 3.8 31.098 3.512 31.379l-16.969 16.781c-4.82 4.766-1.379 12.934 5.313 12.934 4.082 0 3.964-.848 22.285-18.961a15.754 15.754 0 004.652-11.137c.004-1.293.219.906-3.777-32.777zm0 0"/></svg>