<svg xmlns="http://www.w3.org/2000/svg" width="515" height="514">
  <defs>
    <linearGradient id="b" x1="96.48%" x2="0%" y1="73.51%" y2="26.49%">
      <stop offset="0%" stop-color="#72DEDB"/>
      <stop offset="100%" stop-color="#67DAD6"/>
    </linearGradient>
    <linearGradient id="c" x1="95.93%" x2=".6%" y1="100%" y2="0%">
      <stop offset="0%" stop-color="#72DEDB"/>
      <stop offset="100%" stop-color="#67DAD6"/>
    </linearGradient>
    <linearGradient id="d" x1="96.48%" x2="0%" y1="99.01%" y2=".99%">
      <stop offset="0%" stop-color="#50BBB8"/>
      <stop offset="100%" stop-color="#67DAD6"/>
    </linearGradient>
    <linearGradient id="e" x1="96.48%" x2="0%" y1="96.24%" y2="3.76%">
      <stop offset="0%" stop-color="#72DEDB"/>
      <stop offset="100%" stop-color="#67DAD6"/>
    </linearGradient>
    <linearGradient id="f" x1="66.75%" x2="31.98%" y1="100%" y2="0%">
      <stop offset="0%" stop-color="#50BBB8"/>
      <stop offset="100%" stop-color="#67DAD6"/>
    </linearGradient>
    <linearGradient id="g" x1="96.48%" x2="0%" y1="74.56%" y2="25.44%">
      <stop offset="0%" stop-color="#72DEDB"/>
      <stop offset="100%" stop-color="#67DAD6"/>
    </linearGradient>
    <linearGradient id="h" x1="96.48%" x2="0%" y1="68.69%" y2="31.31%">
      <stop offset="0%" stop-color="#50BBB8"/>
      <stop offset="100%" stop-color="#67DAD6"/>
    </linearGradient>
    <filter id="a" width="105.1%" height="105.1%" x="-2.6%" y="-2.6%" filterUnits="objectBoundingBox">
      <feOffset dy="2" in="SourceAlpha" result="shadowOffsetOuter1"/>
      <feGaussianBlur in="shadowOffsetOuter1" result="shadowBlurOuter1" stdDeviation="2"/>
      <feColorMatrix in="shadowBlurOuter1" result="shadowMatrixOuter1" values="0 0 0 0 0 0 0 0 0 0 0 0 0 0 0 0 0 0 0.5 0"/>
      <feMerge>
        <feMergeNode in="shadowMatrixOuter1"/>
        <feMergeNode in="SourceGraphic"/>
      </feMerge>
    </filter>
  </defs>
  <g fill="none" stroke="#FFF" stroke-width=".5" filter="url(#a)" transform="translate(4 3)">
    <path fill="#C1F1F0" d="M362.58 378.93l-.43 1.59-1.59.43-.65-.8 1.6-1.94 1.07.72zm-94.47-17.05l2.45-3.1 1.52-.51 2.03-1.66 1.88-.87 1.8-1.59.73-2.02 1.95-2.6 1.37-.94-.8-1.52 2.97-2.6-.07-2.24 3.03-3.76.15-2.3 3.68-4.34 2.32-.8 1.8-2.46 1.52-1.37 2.6-1 1.23-1.38 1.67-.15 1 1.01 5.57.94 4.12.08 1.96.72 1.37-.15-.29 2.6.87 1.67.8.07 1.37-1.95.86 1.15-.07 2.17 1.23.15-.14-1.88.57-1.23 7.6-.43 1.8.57 1.09-1.59.72 1.16.65-1.37 2.02-.36.73.72 2.24-.8.36 1.02 2.38 2.3-.79 2.83 1.66 1.37.44 1.44-1.3 2.17-.22 1.45.86.86.22 1.95.8.94.5 2.68 2.32-.44 3.61 1.45.14.86-2.24 3.62.44 2.3-1.01 1.02 1.15.94-1.3 2.38.65 1.16 2.97 1.73-1.09 1.95 1.16.87.07 1.3 2.53.72 2.9-.72.57.5 1.37-.72-.65-1.3 1.95-1.37 1.38.87 1.44.07 4.41-2.1 2.75-.65.72.3 1.45 2.38 1.15.36 3.9-.15.51 1.45-1.37 1.52-2.46.21-3.97 1.6-.22 1.87-.72.87 1.44 2.02-1.95-.29-1.95 1.01-.29 1.16-.94-.43-.65 1.08-1.23-.07-1.66 1.08.22 2.1-5.35-1.16-3.47.94-.3 1.73-2.09-.21-3.1 1.37-4.56 2.53-.43 1.37-2.24 1.52-4.49 2.53-2.89 2.24-1.3 1.44.87-1.88-1.38 1.74.51.36-.8 1.8-1.66 1.3.65-.93-1.37-.15-.8-2.75-2.16-.79-1.23 1.52-.58-.36.36-3.18.72-.8-1.44-.94-2.03.15-2.89-.94-.72.72-2.46-.43-.14-1.74 1.08-2.45-2.02-3.33-2.24-2.96.65-1.95-1.09-2.74.5-1.23-.2-1.95-1.1-2.02-2.09-.94-.65-1.67-3.9.44-3.98-.5-1.95.28-1.08-1.59-2.75-.8-2.9-1.58-2.3.43-3.98-1.01-2.24-1.23-1.8 1.6-8.83-1.02-2.67 1.66z"/>
    <path fill="#91F7F3" d="M381.38 105.4l.22 1.67-1.3 1.44.72-4.11.36 1zm34.77-.43l-.07 3.54-2.1 2.6-2.82 2.6-3.1.58-.59-.36-2.3 3.25.14 1.16-.94 1.73-3.4 4.2.5 1.94 1.16 1.45-1.16 2.1-.07 1.51 1.23 2.17.58 2.96-.36 1.95-2.9 3.69-.72.36.3 5.7 1.37 1.74 1.44.94-.14 2.96-.8 2.46-.87 1-2.81.08-3.4 1.01-2.75-1.88-4.7.8-2.89 3.03-.65 1.37-1.88.44-3.47 3.18-1.3-.44-2.75 1.6-3.54.79-2.31 1.51-.94 2.53-.5 3.69-2.1 3.61-1.16 3.47-1.45 1.08-.72 1.88.94 3.25.07 1.95 1.23 1.74-.58.93-.43 6.14-1.23 2.24.07 1.81-1.8-1.44-3.33-.58-1.52-2.17-.43-1.95-2.02-1.52 1.73-2.45-.29-.73-2.46-1.22-.94-1.3-.14-1.88-1.23-1.3-1.8-.44 2.3-2.67.37-3.18 1.23-1.88 3.76-.43-.58-1.08 1.08-3.18-.29-1.38-1.08-.79-3.83.65-1.88 1.01-1.74-2.46-2.46-2.6-1.87-2.74-.15-2.24-1.73.36-1.23-1.52 1.3-.43 1.66-1.88.36-4.04 1.09-2.82.5-3.25-.65-1.67.22-3.03-.94-1.66.22-2.02-.87-1.45-2.39-1.15-1.51-.15-.3-1.3-1.73-.65-2.02.29-2.39-1.23-2.02.3-1.52 1.8-1.45.36-.14-.22 12.22-9.54 1.88.15.94-.8 1.66-2.67.94-.8 1.23-2.52 2.96-3.1.58-3.12 1.01-2.6 1.6-.94 2.01-3.03.3-2.6.93-.58-1.15-1.44 3.1-2.97.22-3.54 1.45-.79 1.15-3.25v-1.6l-1.3-.93 1.45-.72.07-2.53 1.52-3.54 1.52-1.95-.44 1.8 1.23-.36 1.66 1.23.73-1.73.86 1.88-.28 1.15 1.73-1.23.15 1.88.86-.58-.36 1.74 2.39-2.31.14 1.15-.94.8.58 3.54 1.3-.8.3-2.1 1.44-.79 1.8.5 1.09-1-.58 1.66 1.44 2.02 3.62 1.88.22 2.46-2.46 3.03.8.07 1.8-1.59 1.23.65.5 1.45-.43 1.23-1.52-.5v1.36l-1.59 2.96-.72 4.12.8.5-2.1 1.89v.72l1.8-1.01 2.75-2.9.87-5.2 3.9-1.94.3 2.02-1.16 1.52-2.68 1.44 2.03-.29-.22 1.45 1.08-1.45.73.22.65-1.8 1.15-1.16 2.03-.3-.58-.93.94-.5.8-1.96 1-.14-.36 1.37 2.32 2.6.5-1.3-.5-1.52 1.88.08 7.73 2.89 3.33 2.52 2.45.15.37 1.01 2.02-.43 1.8.5-.93-1.3-1.16.44-1.88-.51.15-.72 1.66 1.08.22-1.08 3.25 1.15z"/>
    <path fill="#205058" d="M333.31 81.78l-1.16-.94 1.52-1.73.43 1.3-.8 1.37zM299.41 76l-.22 1.74-3.25 1.37.36-1.95 3.1-1.16zm-5.14-.36l.94 1.01-1.73 5.13-.65-.29-1.3 2.31-4.56 3.4-1.44.43-.8-.79 1.09-2.31 2.67-2.39-.07-2.74 2.17-3.1 2.6-1.16 1.08.5zm-1.95-1.23l1.45-3.1 1.23-1.09.21 1.67-.65 1-2.24 1.52zm6.22-2.02l-1.88-.87 1.23-2.96 2.31-.72 1.81 1.73-3.47 2.82zm18.36-4.84l1.8 1.01-1.22 1.45-3.62.36-1.51-.58 2.67-2.1 1.88-.14zm-12.43.87l-1.6.07-.93-.94.29-1.52 2.17.8.07 1.59zm2.89-3.4l1.44.58.94-1.01 1.45.07 3.54-1.23h1.16l.43 1.09-2.1 1.3-1.8 2.45-2.31.87-.8-.94-3.61-.36-.3-2.17 1.96-.65zm-1.66-3.4l.29 2.39-1.38 2.24-1.16-.5L304.9 63l-.29-1.66.8-.94.29 1.23zm4.12-.72l-.22.94-3.04 1.95-.29-2.24.8-.8 2.24-.71.5.86zm6.5 29.33l-1.88 1.16-1.95.58-2.38-.94-.3-1.08-1.66 1.51-.94-.5-.14-1.52-.8 2.31-1.37.36-2.6-.86.22-1.02-2.82-3.32.14-4.4 3.04 1.22-3.04-2.1.22-4.62 1.59-5.13.94-.93 2.24-.37.58-.79 3.54.36 5.78 1.45 2.46-.3 3.18-1 4.41.28-.14.65 3.47.08 2.53.5.72 1.45-1.09 1.51-1.08 5.28-1.66 1.37.29 1.08-2.6 1.67.64.86-.5 1.81-1.45-1.59-.5.5 1.88 1.38-2.97 1.16-1.08-1.67-.5 2.68-1.38.14-1.3-1.15.29 1.51-1.74-.8-.29 1.23zm44.82-6l-1.52 3.55-.07 2.53-1.45.72 1.3.94v1.59l-1.15 3.25-1.45.8-.21 3.53-3.11 2.97 1.15 1.44-.94.58-.29 2.6-2.02 3.03-1.59.94-1.01 2.6-.58 3.11-2.96 3.1-1.23 2.54-.94.8-1.67 2.66-.94.8-1.87-.15-12.22 9.54.14.22 2.17.8 2.46-.15 2.82 3.18-1.88 1 .87 2.46-1.45.8.58 1.59-1.88.94.5 2.45-1.44-.14-1.37 1.08-1.01 2.97-4.27 1.44-2.46 1.59-.29.8.44 3.39-2.46 3.54-.22 1.23 1.01 1.52 1.88 1.22-.5 3.25-1.52 4.2-.87.72-2.45 4.84-2.46 1.37-3.9 5.13-1.3 4.91-1.1 1.8-13.58-.79-48.72-3.03-17.57-1.16-2.74-1.15-1.23.29-.87-1.6-2.67-.57-.73-2.31-2.53-1.16-2.38-2.17-1.3-.43-1.3-4.12.5-2.67-1.88-2.38-1.44-4.56-2.17-3.6-1.02-.95-1.08-2.96-2.31-1.95-.94-3.32 2.17-2.68 19.73-42.91 4.7-10.33-.07-1.52-1.3-1.44-1.81.8-1.45-.59.07-1.59-3.4-1.51-1.08-1.6-3.25-1.08-4.2-1.8-2.23-1.88-4.34-2.67-2.96-2.46-.65-2.39-2.46-1.22-1.6-1.88.15-2.46-1.44-1-.3-7.52-1.3-14.1 1.02 1.24 1.59.21 1.23-1.08 2.1.22.07-2.24 1.66-.65.72-1.3 2.39.94h1.59l.5-1.81 2.53-.58 2.97-.07 1.73-2.46 1.16-.86 1.37.21 1.74-.94 1.15 1.38 2.68.57 2.17-.79 3.54.07 4.55 1.23 1.23-.65.15-1.95-2.68-3.83 1.38-.87.28-1.59 3.47 1.67 1.52-.51 2.68.07 1.3-1.15 4.19-.3 1.3 1.24 1.38-.15.72 2.46-1.01 3.32.8 3.04 4.76.14 2.53 1.37 1.23 1.95.94-.21 1.52 1.51 2.96-.14 1.38.65.21 1.59 1.3-.22-.36 1.37.65 2.75 2.03 2.1 1.95.79-.22 4.26 1.16 1.8.29 2.47 1.3 3.25 1.15-.15 2.6 2.75-.07 2.1 1.38 1.15.14 2.96 1.52-.07.58 2.6 3.9 1.8 1.95-.72-.21 2.24-1.88 1.01-1.67-.8-3.6 1.81-2.76.8-.29.72 3.7-.5 1.87-.58.36 2.38 1.66-1.08 2.68-.65 3.25-2.17 5.2-2.31 1.38-1.52 1.66-.86.3-1.3h2.45l-.15 1.58-1.59.87 1.74 1.37.07 2.68 1.66 2.24.44 1.66-2.24 2.45 1.59-.28.58-1.38 2.82 1.74.21 1.66 1.88-2.17 1.6.29.64-.87 1.74-.29 1.3.65.21 2.17.65-1.88 2.03.3 1.37-1.74.15.94 2.6-1.88.8.65-1.16 1.66-1.09 3.76-1.37 2.96.07 1.37-1.88 1.95 2.1-.5 1.23-2.1.14-1.3 1.23-2.1 1.3-3.32 1.45-2.3 2.02-2.25h.94l-1 2.46 2.09-2.17 2.17-3.03 1.44 2.53 1.45.86-.8-1.73 2.03-.5-2.32-.3.3-2.16 1.87.43.43-1.66-2.02-.3.5-1.15 2.9-.57.8-1.74-.22-1.52 1.51-1.59 1.02 1.6-.08-1.96 1.88.44 1.16-1.6 1.8 1.74.15-1.3 1.16 2.46 1.52.07-1.09-2.31 5.06 1.08-.07 2.1 1.59-1.66.8 1 1-.93 1.53 2.16 1.3-.14-.08 1.16 1.38-.94.29 1.8 2.02-.07 1.95-1.23-.65 2.82 1.66-.8.15 1.74z"/>
    <path fill="url(#b)" d="M320.95 429.43l-.15-1.01.73-2.24v-1.8l1-.44.59.94-.5 1.73-1.67 2.82zm.36-18.13l-1.37-1.45 1.88-1.8.65.86-1.16 2.39zm.22-5.71l-.07 2.31-1.81.8-.58-2.17.29 3.03 1.66 1.95-.72 1.52-.3 2.1 1.16.8-.5.79v3.46l1.01.22.3 1.23-1.38.07.5 1.59-1.15 1.73.8 1.52-.88.65.8 2.82-1.23 4.48-1.59 3.54-.07-1.52-.87-.36.15 1.66.79.72-.43 1.09-1.45.36-4.77 3.47-2.46 2.52-1.95 2.46-2.67-1.8-1.45.65.29 1.44-1.3-1.01.07-1.09 1.16-1.3.72.15.72-1.95v-2.02l1.88-2.17 1.09-.36-.58-1.6-1.45-.28-3.18.29-.65-.44-4.55-1.15-1.74-2.9-1-.35-.23-1.38-1.37-1.15-.8-1.52-1.66-.72-2.6-2.6h-1.08l-1.23-1.23-1.38.5-1.44-.36-1.3-2.16-1.81-.8-.65.65-1.74-.43-.72-.94-2.96.72-1.88-1.52-1.3.73-.87-1.52-3.04 1.23.44-1.01-1.09-.58-1.52.65v.87l-2.02-.5-1.88.13 1.52-3.75-.43-2.31.29-4.12.72-1.52 2.31.36 1.23-.58 2.75 1.67 3.54-.44 2.02.87 5.2.72 2.18 1.74 1.59.28 4.26.08.94 1.3 2.17-1.16-.5-2.38.43-1.01 2.1-1.38 2.02.58 1.95-.58 1.08-2.02 2.17-.5 1.66.36 4.34-.37 4.05 2.82 3.54-1.37 2.24-1.37 6.15.07z"/>
    <path fill="#91F7F3" d="M449.11 247.23l-.72 3.54-.15-2.1-.72-1.44h1.6zm-20.38 59.89l.21-2.82-3.18-3.03.15-1.23-1.6-1.09.73-1.66-.07-1.66.8-2.67.79-.8 2.17.3.8-4.13 1.44-.14 1.15-1.95 1.52-.94 1.09-2.67-4.34-4.2-2.96-.72-.8.22-1.59-1.16-1.16.22-2.24-1.01-2.74 1.3-2.1-1.01-.22-2.96-5.27-5.42-1.74.72-1.88.07-6-3.6-.65.06-3.9-3.6-3.4-.73-3.4 1.8-2.67-.79-1.95-1.08-.15-1.3 1.23-2.82-.58-.44-6-1.15-3.1 1.15-3.55 2.17-.65 1.01-2.82 1.45-1.51.21-1.3 1.45-1.81 1.08-1.16-.14-2.1 2.38-2.67-.07-1.88 1.52 1.3-3.4-.5-1.52 1.44-2.24-.58-2.09.65-2.38-2.53-2.24-1.51-4.2-.08-2.74 1.16-3.25 1.16-.65.21-1.3-1.15-.5.43-2.46.87-1.38-1.88-1.66 1.01-2.45.07-1.3-1.95-1.09-.22-3.9 1.67-1.59 1.8-.94-1-1.23-1.16.08.07-1.52 1.8-.72.3-.87-1.38-.72-2.96-.73-1.74-2.38 1.38-1.8 1.3-2.68 1.73-1.08-.87-1.66 2.82-2.17 2.97-1.45 1.37-1.73h1.95l1.66 2.1.37 1.73 1.51 2.17 3.4 1.59 3.33-.44.43-.94 2.82-1.88 1.52-.5 2.6.58 1.23-.44 1.73-1.73 1.02-.29 2.81-5.06.37-3.1-.51-.72-1.01-4.2 1.52.22 1.15-1.37 2.03-.36.86 1.44 2.53.15.73-.58 2.53 1.3.94 1.16 1.3-.37 1.73.65.5-1 1.16.2 2.39-2.45 2.02-.07 1.45-1.15 2.46.72 1.52-1.52.07-2.02 3.03-.5 1.74-2.9h2.75l3.4 2.1-.15 2.38.43 1.52 1.88.94.15 1.73-.94 1.37 1.73.51 2.82-1.59h1.01l.87-3.25h2.02l2.82-1.59.08-1.88 2.67-.58.07-1.66 3.76-1.51 1.45.43.86 1.59 2.39.86.8.8 1.44-.22 1.88 1.01.58 1.74 1.73-1.95.15 1.73 1.23 1.23 1.15-.58.94 4.63.44 1.15 2.3.94.15.72-.65 1.01.87 3.62 2.24 2.89-.21 3.03-.73 1.52.5 2.82-2.45 1.51-2.82-.65-.65 2.46 1.52 1.8.5 1.88.94 1.02-.36 1.58 1.95 1.23.58 1.16 1.74.58 2.24-.44 1.52-.5-.94 1.23-3.18 6.28-5.5 7.59-3.61 3.75-2.46 1.02.43-1.38-.21-2.6-1.45-.36-1.15-1.16-.87 2.39-1.09.5 2.24.44 1.09 1.59-4.84 3.46-.08 1.45-1.08-.14.65 4.11-.29 2.17-1.59-1.59 1.23 2.17-.8.65.87.94.87-1.3v1.44l-1.01 2.68v1.37l-1.38 4.77.44 1.88-.08 5.56.51 6.5.65 1.73-2.96 7.73-1.38 4.77.08 1.3-1.38 3.47-.07 5.85.43 1.09-1.88 2.3-2.89 1.67-1.73 2.38-.72 1.67-6-4.63-.3-.43z"/>
    <path fill="#205058" d="M309.24 56.35l-.36-.36 2.24-1.37-2.24 4.04-2.24.15.65-1.52 1.95-.94zm-5.06-15.39l-.07-.8 2.02 3.04-1.95.87-.8-1.52.8-1.59zm-18.8 42.41l-1.95.72-3.9-1.8-.58-2.6-1.52.07-.14-2.96-1.37-1.16.07-2.1-2.6-2.74-1.16.15-1.3-3.26-.3-2.45-1.15-1.8.22-4.27-1.95-.8-2.03-2.09-.65-2.75.36-1.37-1.3.22-.21-1.6-1.38-.64-2.96.14-1.52-1.51-.94.21-1.23-1.95-2.53-1.37-4.77-.15-.8-3.03 1.02-3.32-.72-2.46.94.14v1.6l1.8.07 1.09 1.3 4.48 1.37 3.97-2.6 3.83.87 2.46-1.38 1.45 1.3 3.54.94 1.08-1.08 2.24-1.3 1.96-2.75-.22-.86 2.82-5.42-.07-.94 1.73-1.66 2.75-4.63.36-1.08 1.95-2.17.65-1.44 1.95-1.16.51-1.88 1.23 1.45-.8-3.25.58-1.09 1.66 1.01 2.1 2.53.65 1.81v4.84l.8-3.32.5.29-.14 6.57 1.95 7.15.5.36 2.1 5.35.87 2.67 2.75 4.63 3.68-.08 2.32.87 1.23 1.16.5 3.97-.5 1.08-2.97 1.02 2.82-.3.43.66-3.68 3.25-1.81 1.3-2.02 2.24-1.81 3.47-2.39 2.67-1.8.22-1.81 2.24-3.25.94.86.43-.94 1.15-1.59 3.33-3.25 3.54-.36 3.75-2.39 1.52z"/>
    <path fill="url(#c)" d="M257.2 378l-1.96 1.3-2.1-1.74-2.6-1.45-3.61 2.17-3.04.65-2.38-.5-.58-3.11-1.01-1.74.14-2.89-.29-1.95-1.23-2.89-.29-2.38.3-2.46-1.3-1.15-.3-1.88-1.37-.94-3.9-.43-1.45-.94-1.3-1.74-1.08.3-1.81 2.16-.58-.58-1.52 1.01-4.55-1.23-2.03.37-2.74-.36-.58-.94-2.24.57-1.74-1.37.65-1.73-.36-.65.65-2.17-.5-.8.07-2.24.8-1.58v-3.83l.36-1.09-1.16-.58.65-.72-1.01-.72 1-.72-1.5-.58-.23-3.4-1.15-.65-1.02-2.74 3.62-2.46-3.33-3.18 3.9-8.81.95-.22-.87-1.66 2.67-9.46-2.3-4.34v-1.44l1.58 1 2.24.59 3.55-1.09 1.88-1.73.14-1.01 1.37-1.23 1.16-2.17 5.35-.5.94-.87 1.88-.43 3.9 2.1 2.24.5.87 1.44 4.48 2.31 3.47-.5 2.46-1.66 2.17-.08 1.3.87.36 1.16 3.1-.58 2.4-2.17 1.58-1.95 1.74-.65-.87 4.99-1.37.57-1.6 2.75 3.26 1.37 5.2-.07 3.11.22-.07 3.6.87 1.24 1.01-.58 1.52.65-1.38 3.18.3.5 3.1.58 1.52-.21 1.88 1.44h.87l2.6 1.73 5.06 2.46 2.89.5 1.16 1.16 2.16.44 2.1 2.45-.87 3.61.37 4.56-1.81 2.45-2.32.8-3.68 4.33-.15 2.31-3.03 3.76.07 2.24-2.96 2.6.8 1.52-1.38.94-1.95 2.6-.73 2.02-1.8 1.59-1.88.87-2.03 1.66-1.52.5-2.45 3.11-3.69 1.66-1.45 1.16-.5 2.38-1.01 2.46-2.68 1.66-1.44 5.06z"/>
    <path fill="#C1F1F0" d="M294.93 328.57l-.37-4.55.87-3.6 1.16.14.36-2.46 2.31-2.31h1.38l.57-2.31 2.24-2.75 4.12-1.23 2.4.22 3.82-1.52 1.6 1.66 2.88-2.74 2.24-1.01 9.04.72 1.08.65 2.82.65 3.11-1.59 1.3-1.45 3.47-1.8-.8-2.31 1.1-2.75-.22-1.59-2.97-1.3.44-1.59 4.48-4.48-1.3-4.12-2.24-2.3 1.37-2.4.72-3.39.94-.07 1.3-1.44.58.29 3.18-1.16-.36-3.32-.8-2.1 1.09-1.37-.94-1.23.58-2.31 1.95-.36 1.23.72 1.15-.36-.36-3.18.87-1.08 1.6.86 1.07 1.8 2.75.3.72-.73.51 1.52-1.3 3.4 1.88-1.52 2.67.07 2.1-2.38 1.16.14 1.8-1.08 1.3-1.45 1.52-.21 2.82-1.45.65-1 3.54-2.18 3.11-1.15 6 1.15.58.44-1.23 2.82.15 1.3 1.95 1.08 2.67.8 3.4-1.81 3.4.72 3.9 3.61.65-.07 6 3.61 1.88-.07 1.74-.72 5.27 5.42.22 2.96 2.1 1.01 2.74-1.3 2.24 1.01 1.16-.22 1.59 1.16.8-.22 2.96.73 4.34 4.19-1.09 2.67-1.52.94-1.15 1.95-1.45.14-.8 4.12-2.16-.29-.8.8-.8 2.67.08 1.66-.72 1.66 1.59 1.09-.15 1.23 3.18 3.03-.21 2.82-2.6-1.38-3.04.65h-3.04l1.52 1.74h-1.66l-1.88.87-1.16 1.44 1.6 2.17-.51 2.45 1.22.8-.14 1.52-3.83.36 1.59.58.5 1.95 1.23 1.59.08 1.95-.58 2.3-2.6 2.32-.58 2.67-1.52 1.09-1.01 2.96-.5.36-3.77-.36-1.8 1.95.65.87-.44 2.89-.72 1.66-1.37 1.59-1.6.07-1.95 5.35-.94.86-1.15 2.9 1.01 1.15-9.4 3.4-3.68-.58-1.45.65-4.26-.22-3.47 1.23-1.52.86-2.75-.07-2.75 1.3-2.02.36-2.75.65-4.4 2.1-1.45-.07-1.38-.87-1.95 1.37.65 1.3-1.37.73-.58-.5-2.89.71-2.53-.72-.07-1.3-1.16-.87 1.09-1.95-2.97-1.73-.65-1.16 1.3-2.38-1.15-.94 1-1.01-.43-2.31 2.24-3.62-.14-.86-3.61-1.45-2.32.44-.5-2.68-.8-.94-.21-1.95-.87-.86.21-1.45 1.3-2.17-.43-1.44-1.66-1.37.8-2.82-2.4-2.31-.35-1.02-2.24.8-.73-.72-2.02.36-.65 1.37-.72-1.16-1.09 1.6-1.8-.58-7.6.43-.57 1.23.14 1.88-1.23-.15.08-2.17-.87-1.15-1.38 1.95-.8-.07-.86-1.66.3-2.6-1.38.14-1.95-.72-4.12-.08-5.57-.94-1.01-1-1.67.14-1.22 1.37-2.6 1.01z"/>
    <path fill="url(#d)" d="M341.19 280.46l-1.37 2.38 2.24 2.31 1.3 4.12-4.49 4.48-.43 1.6 2.96 1.3.22 1.58-1.08 2.75.8 2.3-3.48 1.82-1.3 1.44-3.1 1.59-2.83-.65-1.08-.65-9.04-.72-2.24 1-2.89 2.75-1.59-1.66-3.83 1.52-2.38-.22-4.12 1.23-2.25 2.75-.57 2.3h-1.38l-2.31 2.32-.36 2.46-1.16-.15-2.1-2.46-2.16-.43-1.16-1.15-2.9-.51-5.05-2.46-2.6-1.73h-.87l-1.88-1.45-1.52.22-3.1-.58-.3-.5 1.38-3.18-1.52-.65-1.01.58-.87-1.23.07-3.61-2.31-5.86.5-3.6 1.96-2.9.36-2.45 2.67-1.6 2.17-2.81.22-1.3-.65-1.74 1.66-.86v-.72l2.6-1.67 1.01-1.59 4.63-1.37 2.6-5.49.3-2.17 1.8-1.87 2.46-1.38 1.8.3 1.02-1.16 1.66-4.77-.29-1.52.94-3.61.87-.22v-5.06l.86-.43.51-1.73 1.23-1.52 1.16-2.53-.15-1.95 1.16-1.59.14-1.37.5-1.88 1.24-2.02 2.6-1.81.14 1.01-1.8 3.98.43 1.87 7.01 3.25 3.76 1.02 1.16-3.18 2.1-3.4 1.51-1.01.3 1.23 2.16 1.66.65 2.89-.14 3.32 1.08-.21.43-2.03 3.7.22 2.81-1.44-.36 1.37 6.14 2.45-.43-2.67 1.01-.43 1.23 2.38 5.71-2.45 3.4-.3 2.31-1.8 5.28-1.52 1.88 1.67-.87 1.37-.43 2.45 1.15.51-.21 1.3-1.16.65-1.16 3.25.07 2.75 1.52 4.19 2.53 2.24-.65 2.38.58 2.1-1.45 2.24-.72.72-2.75-.3-1.08-1.8-1.59-.86-.87 1.08.36 3.18-1.15.36-1.23-.72-1.95.36-.58 2.31.94 1.23-1.09 1.37.8 2.1.36 3.32-3.18 1.16-.58-.3-1.3 1.45-.94.07-.65-.8.8-5.05-1.45-1.23-9.47-.43-.8 2.6.44.58-1.01 1.37 1.15 2.6 11 .36z"/>
    <path fill="url(#e)" d="M306.78 448.43l-1.16 1.52-2.82 4.7-3.32 8.3-4.77 7.44-4.92 5.5-4.7 3.75-3.32 1.95-2.53 2.75.87-2.53-.8-1.23.44-.65 1.37.8 2.46-.94 3.25-3.47 1.95-.65.72-1.38.37-3.75 1.66.07.65-1.88 2.53-1.66.65-1.88v-3.75l.87 1.73.86-2.1-.72-1.66-.8 1.16-2.52.21-.3 1.67-1.3-.87.3-1.23-2.46-1.37-.5-2.24-.59 2.82 1.52 1.8-1.23 3.4-1.01.43.15 2.82-1.02.14-.36 1.6.44.86-2.03.65-.22 1.6-3.18.57-.94 1.59-.07 2.81-.36-1-.65 1.58-1.23.44-.36 1.95.94.43-.94.72.22 1.52 1.44-.65-.14 1.73-1.81 1.45-1.37 2.82-1.09 3.9-1.73 3.9-2.17 2.82-4.92 4.55-1.23.8-1.73-1.23 1.08-1.6-.21-3.75 1.59-2.24.65.43 1.08-1.73.44-2.1 1.37.37 1.3 1.3 1.6-.8 1.58-3.61v-1.16l-1.3-2.1.65-1.94-.8.21-1.08 1.96.5.5-2.3 1.37-.22 1.09-1.81 1-2.67-1.22-2.53-2.96-.3-1.45-1.08-2.3-3.25-2.18-.72.37-3.69-3.04-.22-1.16-1.23-1.44-2.53-.43-2.3-2.17-.66.8-1.95-1.3-1.09-2.17-2.67-2.68-2.96 2.96-1.67.15-.07-3.69-2.6-2.96-1.52-1-2.96-3.04-2.32-1.81-2.74.07-1.52 2.46-3.62-.07-.86-1.16 1.15-.58 1.96-2.17.36-2.16 2.17-.87 4.62-5.78.58-2.02 2.31-1.45.22-1.3 1.01-.94.15-1.3 1.15-.5 1.81-2.1.14-1.15 1.3-.5.58-1.45 1.6.8.43-1.1-1.23-1.22 1.88-1.52 1.88-.5 1.44-2.17 1.6-.8 1.73-.14-.65-.8 1.95-.57.14-1.45 4.2-1.8 2.17-1.23.65.43 1.3-2.38 1.01.5 1.45-1.66 1.44.15 1.88-.15 2.03.5v-.86l1.51-.65 1.09.58-.44 1 3.04-1.22.87 1.52 1.3-.73 1.88 1.52 2.96-.72.72.94 1.74.43.65-.65 1.8.8 1.3 2.16 1.45.37 1.38-.51 1.23 1.23h1.08l2.6 2.6 1.67.72.79 1.52 1.37 1.15.22 1.38 1.01.36 1.74 2.89 4.55 1.15.65.44 3.18-.3 1.45.3.58 1.59-1.09.36-1.88 2.17v2.02l-.72 1.95-.72-.15-1.16 1.3-.07 1.09 1.3 1.01-.29-1.45 1.45-.64z"/>
    <path fill="url(#f)" d="M361.28 203.01l1.52.22.87.07-1.37 1.73-2.97 1.45-2.82 2.17.87 1.66-1.73 1.08-1.3 2.68-1.38 1.8 1.74 2.39 2.96.72 1.37.72-.29.87-1.8.72-.08 1.52 1.16-.07 1.01 1.22-1.8.94-1.67 1.6.22 3.9 1.95 1.08-.07 1.3-1.01 2.45-5.28 1.52-2.31 1.8-3.4.3-5.71 2.45-1.23-2.38-1.01.43.43 2.67-6.14-2.45.36-1.37-2.82 1.44-3.69-.22-.43 2.03-1.08.21.14-3.32-.65-2.89-2.17-1.66-.29-1.23-1.52 1.01-2.1 3.4-1.15 3.18-3.76-1.02-7-3.25-.44-1.87 1.8-3.98-.14-1.01-2.6 1.8-1.23 2.03-.5 1.88-1.38-.5-.87-2.32.72-2.6-.72-3.1-.14-2.46.43-1.6-.65-2.16.72-1.3-1.15-1.45 1.73-6.06-.29-1.23.5-3.61 1.02-1.23 1.23-2.82.65-3.03.94-1.09.94-2.31 1.08-1.8 1.3-4.92 3.9-5.13 2.47-1.37 2.45-4.84.87-.72 1.52-4.2.5-3.25-1.88-1.22-1-1.52.21-1.23 2.46-3.54-.44-3.4.3-.79 2.45-1.59 4.27-1.44 1-2.97 1.38-1.08 1.45.14-.5-2.45 1.87-.94-.58-1.6 1.45-.78-.87-2.46 1.88-1.01-2.82-3.18-2.46.14-2.16-.8 1.44-.35 1.52-1.81 2.02-.29 2.39 1.23 2.02-.29 1.74.65.29 1.3 1.51.15 2.39 1.15.87 1.45-.22 2.02.94 1.66-.22 3.04.65 1.66-.5 3.25-1.09 2.82-.36 4.04-1.66 1.88-1.3.43 1.23 1.52 1.73-.36.15 2.24 1.88 2.74 2.45 2.6 1.74 2.46 1.88-1.01 3.83-.65 1.08.8.3 1.37-1.1 3.18.59 1.08-3.76.43-1.23 1.88-.36 3.18-2.32 2.67 1.81.44 1.23 1.3.14 1.88.94 1.3 2.46 1.23.3.72-1.74 2.45 2.02 1.52.43 1.95 1.52 2.17 3.33.58z"/>
    <path fill="#91F7F3" d="M363.67 203.3l-.87-.07-1.52-.22-.07-1.8 1.23-2.25.43-6.14.58-.94-1.23-1.73-.07-1.95-.94-3.25.73-1.88 1.44-1.08 1.16-3.47 2.1-3.61.5-3.69.94-2.52 2.31-1.52 3.54-.8 2.75-1.59 1.3.44 3.47-3.18 1.88-.44.65-1.37 2.9-3.03 4.7-.8 2.74 1.88 3.4-1.01 2.82-.07.86-1.01.8-2.46.14-2.96-1.44-.94-1.38-1.74-.29-5.7.73-.36 2.89-3.69.36-1.95-.58-2.96-1.23-2.17.08-1.52 1.15-2.1-1.15-1.44-.51-1.95 3.4-4.19.94-1.73-.15-1.16 2.32-3.25.57.36 3.11-.57 2.82-2.6 2.1-2.6.07-3.55.43-.29 1.74 1.81 4.34.58 1.15 1.23-.07.86-2.24 3.18-.36 1.6 1.23 3.6.86 1.3.65 3.11 1.38 1.8.58 2.03-2.1 2.75.5 4.98 1.6 3.4-.15 1.8 1.52 1.52.58 7.87 1 3.26.37 3.17.72 2.24 2.97 1.09.8 1-2.32 5.07.5 2.6-1.95.5.8 2.75-.58 1.59 1.45 1-.08 2.61-.65 1.3-2.02 1.52-2.39 2.38-1.15-.21-2.6 2.81-2.1.94-1.74 2.9-3.03.5-.07 2.02-1.52 1.52-2.46-.72-1.45 1.15-2.02.07-2.39 2.46-1.15-.22-.5 1.01-1.74-.65-1.3.36-.94-1.15-2.53-1.3-.73.58-2.53-.15-.86-1.44-2.03.36-1.15 1.37-1.52-.22 1 4.2.52.72-.37 3.1-2.82 5.06-1 .3-1.74 1.72-1.23.44-2.6-.58-1.52.5-2.82 1.88-.43.94-3.33.44-3.4-1.6-1.51-2.16-.37-1.73-1.66-2.1zm136.7-13.51l-2.18 3.69-2.1 1.95-3.25 4.26-1.3-1.23-.14 1.95-3.18 4.33-2.9 2.39-2.16 3.25-.65-1.3h-1.38l-.57-2.17-.87.22-1.66-.87-1.38-1.59v-1.23l-3.4-1.73-1-1.3-3.4-1.23-5.43-2.89-.14-.72-2.31-.94-.44-1.16 1.95-1.87 1.6-.5 2.02-2.1.94-1.52.8 1.59 2.09-.36 4.12 4.19 3.1 1.73 1.38-1.23 3.25.58 3.04-1.08 3.04-2.39 1.44-1.59 2.75-.14 1.01.72 3.25-1.01.94.72zm3.82-32.73l-.14 1.6.72 3.68.58.43-.87 2.89 1.09-1.88.43 2.31-.43 5.2h-1.02l-2.16-1.95-2.6-.5-1.38 1.01-1.59-.07-.87 2.6-3.9 1.3-.22.65-7.15-.07-.37 1.15-1.59.15-1.23 1.08.37 1.01-2.03 1.8-2.38.73-2.03-1.73-.21-2.53-2.46.22 2.38-3.11-.29-2.6 2.39-.8v-1.37l-2.96-1.88-2.39.94-1.59 1.66-2.02.87-3.62 2.9-2.24-.08-1.37 1.01-1.16-2.1-2.24.87-2.17-2.1 2.32-4.26-1.81-1.87-.58-3.62 1.45-1.73-.37-.87 1.74-4.12 3.1 1.74 1.96.29 1.01-1.01 2.75-1.3 1.16-2.17 6.5-1.8 1.09 1.22-2.97 3.61-.5 1.66-1.02.5-.14 1.67 2.31.36 1.45 1.74 3.03-1.45 2.53.87.15 2.17.8.65 1.73-.58 1.01-1.88-.36-2.02 1.23-.15-.87-1.95.36-1.37 1.45-.94 1.15.07.44 1.45 4.26.86 3.26-.43 2.67.65 2.02.94 3.33.22z"/>
    <path fill="#91F7F3" d="M458.22 153.88l-1.74 4.12.37.87-1.45 1.73.58 3.61 1.8 1.88-2.3 4.27-1.6.57-2.02 2.39h-1.37l-.37-1.37-1.73-1.02-1.3-1.8-2.39-1.09-1.44-1.37-2.53-.43-2.75.72-6.15-.43-.5-2.6 2.31-5.06-.8-1.01-2.96-1.09-.72-2.24-.36-3.17-1.01-3.26-.58-7.87-1.52-1.52.15-1.8-1.6-3.4-.5-4.98 2.1-2.75-.58-2.02-1.38-1.8-.65-3.12-.86-1.3-1.23-3.6.36-1.6 2.24-3.18.07-.86-.29-1.74 1.74.07 7.3-.65 1.01-.57 6.72.94 3.62 2.6h1.08l1.74 1.44 1.66.5 3.54 2.68 1.23.22.87 1.51 1.44.58 1.88 1.74 2.32.36 1.3 2.31 1.59 1.3 1.8 2.6 3.26 3.03 1.08.3.72 1.58 1.3 1.3 3.7 1.3 1.07 1.81-3.97 1.23-2.39 1.73-2.67 5.35-1.74 1.95-1.15 3.54-2.32 2.53-1.51-.22-2.17 2.6-.36 1.8zm24.94 56.5l-2.24.58-4.34 2.74-1.88 2.32-1.66 3.1-1.45 1.09-.72 1.73-1.45-.14-.8 1.51-2.23.44-1.74-.58-.58-1.16-1.95-1.23.36-1.59-.94-1-.5-1.89-1.52-1.8.65-2.46 2.82.65 2.46-1.51-.5-2.82.72-1.52.21-3.03-2.24-2.9-.87-3.6.65-1.02 5.42 2.9 3.4 1.22 1.02 1.3 3.4 1.74v1.22l1.37 1.6 1.66.86.87-.22.57 2.17h1.38z"/>
    <path fill="#205058" d="M136.11 39.16v-2.39l-5.78-.14-2.82-.58.73-3.1-1.45-3.19-1.45-2.3-.29-3.9.58-2.32-1.51-1.66-2.68-1.74-1.66-1.95-1.95-3.4.86-.43 2.03 2.24 2.89-.36 3.1.87.8 2.31.87.44 1.59-.87 3.25.22 1.45 1.08 1.16-1.52 1.8.65 3.69 4.26.87.44 1.73-.36.58-.87-.43-3.1.29-1.6 2.67-.21.29-1.16 2.02-.58 2.46 1.09 2.1-.87 1.3.22 2.82-1.38 1.95.08 1.44-2.24 2.1-.3v-1l1.88.43 1.8-.36 1.45-2.31 1.81-.73 1.95-1.87.22-1.23-.94-2.82 2.82.5L177.6 0l2.97 2.38-.65 4.7-1.52 2.75 2.68.14 3.32 1.59-.58 2.67 2.53 3.18-1.95 2.96-2.1 1.23.22 3.18-1.8 3.83-.58 4.84 1.23 3.03.07 1.3 2.02 1.3-.07 5.35 1.3.15-.43.94 1.44.5 4.27 4.55 3.47.87 1.3 14.09-11.64-.08-3.33.08-1.37 1.22-2.38 4.77-1.02 3.69.94 1.3-.29 1.08-1.66.5-.58 1.16-2.89.22-1.01-2.1-1.52-1.73-2.31-.8-4.55 1.89-1.02 1.22-.57 2.82.21 1.01-.72 3.25.22 1.88-2.03-.72-1.59.14-1.95-2.96-2.31-1.3-2.75-2.82-1.16-.72.36-1.01 1.3.29.87-1.01-.72-2.24-.07-1.66-1.38-1.52-1.3-3.18.65-1.01-.5-1.01.5-3.33.58-1.44-.65-2.53 1.16-.94-2.24-8.02-2.17-2.45.94-1.74.14-2.74-1.88-.94h-2.02l-1.8-2.1-2.03.15z"/>
    <path fill="#91F7F3" d="M500.36 189.79l-3.1-.58-.95-.72-3.25 1.01-1.01-.72-2.75.14-1.44 1.6-3.04 2.38-3.04 1.08-3.25-.58-1.37 1.23-3.11-1.73-4.12-4.2-2.1.37-.8-1.6-.93 1.53-2.03 2.1-1.59.5-1.95 1.87-.94-4.62-1.15.58-1.23-1.23-.15-1.73-1.73 1.95-.58-1.74-1.88-1-1.45.2-.8-.79-2.38-.86-.86-1.6-1.45-.43-3.76 1.52-.07 1.66-2.68.58-.07 1.88-2.82 1.59h-2.02l-.87 3.25h-1.01l-2.82 1.59-1.73-.5.94-1.38-.15-1.73-1.88-.94-.43-1.52.14-2.38-3.4-2.1h-2.74l2.1-.94 2.6-2.82 1.15.22 2.39-2.38 2.02-1.52.65-1.3.08-2.6-1.45-1.01.58-1.6-.8-2.74 1.95-.5 6.15.43 2.75-.72 2.53.43 1.44 1.37 2.39 1.09 1.3 1.8 1.73 1.02.36 1.37h1.38l2.02-2.39 1.6-.57 2.16 2.1 2.24-.88 1.16 2.1 1.37-1.01 2.24.07 3.62-2.89 2.02-.87 1.6-1.66 2.38-.94 2.96 1.88v1.37l-2.39.8.3 2.6-2.4 3.1 2.47-.21.21 2.53 2.03 1.73 2.38-.72 2.03-1.8-.37-1.02 1.23-1.08 1.6-.15.36-1.15 7.15.07.22-.65 3.9-1.3.87-2.6 1.59.07 1.37-1.01 2.6.5 2.17 1.95 1.09 1.09-.65 2.74.36 1.16-1.74 4.48-.14 1.52-2.75 6.06z"/>
    <path fill="url(#g)" d="M262.1 407.9l-1.22-3.03-.72-.73-.08-2.1-.86-2.3-2.53-1.01.21-.65-3.47 1.15-.72.65-1.59-.87-.14-1.8 2.3-.87-.5-.87 3.4-.94-2.46-.28-.07-.94 1.16-1.01-1.38-.65.3-1.95 1.08.79-.5-1.52.57-.94 1.52-.14-1.38-.8-.21-1.8.65-2.9-.8-1.65.58-1.45 1.95-1.3.15-1.73 1.44-5.06 2.68-1.66 1-2.46.52-2.38 1.44-1.16 3.69-1.66 2.67-1.66 8.82 1.01 1.8-1.59 2.25 1.23 3.97 1.01 2.32-.43 2.89 1.59 2.75.8 1.08 1.58 1.95-.29 3.98.5 3.9-.43.65 1.67 2.1.93 1.08 2.03.22 1.95-.5 1.23 1.08 2.74-.65 1.95 2.24 2.96 2.02 3.33-1.08 2.45.14 1.74 2.46.43.72-.72 2.9.94 2.02-.15 1.44.94-.72.8-.36 3.18.58.36 1.23-1.52 2.17.8.8 2.74 1.36.14-.65.94-1.51 1.95-1.96.73.73-3.76-.58.94-1.01-.8.43 2.17-.58.72-2.1-.43-1.15-1.01 1.37 2.17 1.09-.15 1.88.8-.87.65-1.95 4.55-6.15-.07-2.24 1.37-3.54 1.37-4.05-2.82-4.33.37-1.67-.37-2.17.51-1.08 2.02-1.95.58-2.03-.58-2.1 1.38-.43 1 .5 2.4-2.16 1.15-.94-1.3-4.26-.08-1.6-.28-2.16-1.74-5.2-.72-2.03-.87-3.54.44-2.75-1.67-1.23.58z"/>
    <path fill="#C1F1F0" d="M405.74 342.52l.72-1.66.44-2.9-.65-.86 1.8-1.95 3.76.36.5-.36 1.02-2.96 1.52-1.09.58-2.67 2.6-2.31.58-2.31-.08-1.95-1.22-1.6-.51-1.94-1.6-.58 3.84-.36.15-1.52-1.23-.8.5-2.45-1.59-2.17 1.16-1.44 1.88-.87h1.66l-1.52-1.73h3.04l3.03-.65 2.6 1.37.3.43 6 4.63-1.3 4.7-.15 2.88.14 4.55-.36 2.31-1.73 3.04-2.53 1.23-2.1 3.54-1.08 3.03-1.45-.72-.07 1.23 1.3.07-1.3 2.24-3.76 4.19h-1.23l-1.23 2.46-2.1 2.96-1.15-.87h-2.38l-2.1-.58-3.18-1.44-.07-3.83z"/>
    <path fill="#C1F1F0" d="M368.87 373.8l-1.44-2.02.72-.87.22-1.88 3.97-1.59 2.46-.21 1.37-1.52-.5-1.45-3.9.15-1.16-.36-1.45-2.39-.72-.29 2.02-.36 2.75-1.3 2.75.07 1.52-.86 3.47-1.23 4.26.22 1.45-.65 3.68.57 9.4-3.4-1.01-1.15 1.15-2.89.94-.86 1.96-5.35 1.59-.07 1.37-1.6 1.45.66.07 3.83 3.18 1.44 2.1.58h2.38l1.16.87-.08 1.23-1.44 1.95.8 5.7-.44.87-3.1 1.45-5.29 1.37-3.83 3.03-.5 2.17 1.15 1.16-1.23.5-1 1.6-6.73-.73-.87.29-4.04-.22-1.09-1.16 1.23-1.44-.36-1.45-2.39.87 1.16 2.02-.8 1.3-9.47.58 4.85-.8-3.04-1.5-1.23.14-3.25 1.8 1.66 1.3-2.89.5-.5-.79 1.66-1.15v-.87l-2.32-.22-3.25 1.23-.22 1.37 2.32.94-.94 1.01z"/>
    <path fill="#91F7F3" d="M458.22 153.88l-1.01.15.36-1.8 2.17-2.6 1.52.2 2.3-2.52 1.17-3.54 1.73-1.95 2.67-5.35 2.39-1.73 3.98-1.23 1.3 1.37 3.03.22 1.38 1.52 2.89 1.08 1.88-.5 3.76.29 1.73-.66 6.29 1.52 1.08.94 1.96 3.76 1.3 6 .5 1.08.08 2.6.72.65.8 3.68-1.1.44-3.32-.22-2.02-.94-2.67-.65-3.26.43-4.26-.86-.44-1.45-1.15-.07-1.45.94-.36 1.37.87 1.95-1.23.15.36 2.02-1.01 1.88-1.74.58-.8-.65-.14-2.17-2.53-.87-3.03 1.45-1.45-1.74-2.31-.36.14-1.66 1.02-.5.5-1.67 2.97-3.61-1.09-1.23-6.5 1.8-1.16 2.17-2.75 1.3-1.01 1.02-1.95-.3z"/>
    <path fill="#205058" d="M136.11 39.16l1.09.94 2.02-.15 1.8 2.1h2.03l1.88.94-.14 2.74-.94 1.74 2.17 2.45 2.24 8.02-1.16.94.65 2.53-.58 1.44-.5 3.33.5 1-.65 1.02 1.3 3.18 1.38 1.52.07 1.66.72 2.24-.87 1-1.3-.28-.36 1.01 1.16.72 2.75 2.82 2.3 1.3 1.96 2.96 1.6-.14 2.01.72-.21-1.88.72-3.25-.22-1 .58-2.83 1.01-1.23 4.56-1.87 2.31.8 1.52 1.73 1.01 2.1 2.9-.23.57-1.15 1.66-.5.3-1.1-.95-1.3 1.02-3.68 2.38-4.77 1.37-1.22 3.33-.08 11.64.08.29 7.51 1.44 1.01-.14 2.46 1.59 1.88 2.46 1.22.65 2.39 2.96 2.46 4.34 2.67 2.24 1.88 4.2 1.8L218 91.9l1.09 1.59 3.4 1.51-.08 1.6 1.45.57 1.8-.8 1.3 1.45.08 1.52-4.7 10.33-19.73 42.91-2.17 2.68.94 3.32 2.31 1.95 1.08 2.96-.94 1.01v2.24l-2.16 2.97.94 3.9-.37 1.8-1.22 2.03.29 1.66-1.6 2.74-39.46.87-1.38-1.01-1.51.72-.51 1.52-3.33-1.09-.5-2.02-1.74-.5-.94-2.46-2.16-.22-2.46-3.83-2.32-.65-8.16.08-.65 2.16-1.74.36-.29 1.23-2.1.72-.93 1.38.94 1.23-.94 1.95-1.67.14.22 3.25-4.55.36-1.6 1.01-2.3-.5-1.81 1.88.28 1.23-2.3 2.96-1.82-2.31-2.45 1.8-2.68.87-1.66 1.66-2.17-1.95-6 .07v1.6l-1.3 1.5-2.96 1.6-1.09 1.23-38.96-16.91-7.37-3.68-29.86-6.43-15.03-5.78.43-2.97 1.01-1.3 3.9-3.25 2.18-.65.86-1.52-1.51-4.84 1.15-2.74 1.66-2.39.3-3.32.93-2.67-.36-1.88 3.69-1.59 4.84-3.68 2.24-2.17 3.83-1.8 1.38.35 2.1-.86 1.8.07.94-1.08h4.2l1.73-2.82 2.53-.87.65 1.01 2.02-.87 1.52.44.07 1.23 1.38 1.08.57-1.01 2.17.58.5-1.52 6.66-40.53-.65-2.53-1.23-1.01-1.16-2.53.58-1.15-.65-1.88-4.05-2.68-1.66-2.38.29-9.6 5.64-.8 1.52-1.09 1.8 1.23 2.97-.14-.73-.87.5-2.02-1.73-2.32-1.08-.36-6.29.08V45.5l3.62-.8 2.96.73 15.47.07-1.52-1.44 1.08-2.39 1.23 1.16 1.38 2.31 2.67-.8 2.6-3.17 2.03-1.16 1.23.65 2.89 5.13.58 2.24-.37 3.76.44 1.08 2.46-.65 6.07 5.64 3.25.86 2.39-.94 2.96-2.23h2.17l.8 1.51-.87 1.6.29 1.15 1.44-.5 1.66-2.9 1.6-.14.86-2.67 1.45-.15 2.45-1.73 1.38.29 2.38-2.24 1.81-1.16.22 1.52 3.4-2.39.65-.94.36-3.17.8-.87 3.03-.36 1.88-1.52 2.67-.58z"/>
    <path fill="#39858E" d="M204.78 163.5l1.02.93 2.17 3.61 1.44 4.56 1.88 2.38-.5 2.67 1.3 4.12 1.3.43 2.38 2.17 2.53 1.16.73 2.31 2.67.58.87 1.59 1.23-.3 2.74 1.16 17.57 1.16 48.72 3.03 13.59.8-.94 2.31-.94 1.09-.65 3.03-1.23 2.82-1.01 1.22-.5 3.62.28 1.23-1.73 6.06 1.15 1.45-.72 1.3.65 2.17-.43 1.59.14 2.45.73 3.1-.73 2.6.87 2.32 1.37.5-.14 1.38-1.16 1.59.15 1.95-1.16 2.53-1.23 1.52-.5 1.73-.87.43v5.06l-.87.22-.94 3.61.29 1.52-1.66 4.77-1.01 1.15-1.81-.29-2.46 1.38-1.8 1.87-.3 2.17-2.6 5.5-4.62 1.36-1.02 1.6-2.6 1.65v.73l-1.66.86.65 1.74-.22 1.3-2.17 2.82-2.67 1.59-.36 2.45-1.95 2.9-.51 3.6 2.31 5.86-3.1-.22-5.21.07-3.25-1.37 1.59-2.75 1.37-.57.87-4.99-1.74.65-1.59 1.95-2.38 2.17-3.11.58-.36-1.16-1.3-.87-2.17.08-2.46 1.66-3.47.5-4.48-2.3-.87-1.45-2.24-.5-3.9-2.1-1.88.43-.94.87-5.35.5-1.16 2.17-1.37 1.23-.15 1-1.88 1.74-3.54 1.09-2.24-.58-1.59-1.01-.87-2.32-2.67-.72-2.82-2.1-1.88-.79-1.15-4.91-.22-2.6 1.44-2.31.15-2.82-1.52.58-20.82-.22-.65-.65-1.01-9.32-4.48-5.13 3.9-.14-.43-6.07-2.32-4.48-.07-2.31.94-1.52-1.08-2.46-3.26-1.66 4.2-3.25 1.37-4.62.87-1.3 1.44-.58.94-2.6 1.16-1.45 1.01-3.03-.87-1.88V226l-1.3-2.75-.94-.14-.65-3.98 2.39-2.82-1.23-3.1-3.54-.72-1.3.28-.8-1.3-13.15.22-.65-.58.5-6.72-1.23-2.24-.21-2.6.57-2.6-.57-1.73 1.08-1.23-1.8-4.12 1-1.23-.36-1.22.87-2.82-1.66-1.88 39.47-.87 1.59-2.74-.3-1.66 1.24-2.03.36-1.8-.94-3.9 2.17-2.97v-2.24z"/>
    <path fill="url(#h)" d="M341.91 277.06l-10.99-.36-1.15-2.6 1-1.37-.42-.58.8-2.6 9.46.43 1.45 1.23-.8 5.06z"/>
    <path fill="#205058" d="M96.07 199.62l-3.18 2.45-1.96 2.24-1.73 1.01-1.73.08-1.88 1.95-1.23.5-1.6 2.82-1.87-.58-2.97.65-2.3 3.9-4.06 1.95-2.17.3.3-1.52-8.17-.65-4.12.65-3.04-.51-4.12 2.17-1.95-.22-1.3-1.3-1.3 1.08-.8-15.6 1.16-1.74-1.16-2.09 1.23-1.88-4.34 3.32-1.73 2.17-1.81.87-.43.94-2.46 1-10.27.51.37-1.59-1.45-1.58-.65-3.04-1.66-.65-4.92-.72-5.2.22 3.03-4.55-.21-1.38-2.75-3.47-2.39-1.51-.14-1.66-2.24-1.3-2.03-4.84-1.51-.73-.22-1.08 1.01-1.23-1.66-.87-2.46-2.3 1.37-2.4 2.39-1.08-1.3-2.45 15.03 5.78 29.86 6.43 7.37 3.68 38.96 16.9z"/>
    <path fill="#205058" d="M173.12 246.14l-2.24-1.37-1.59-.15-.36-.93-1.23.72-2.53-.22-1.37.65-1.66-.36-3.26.36-2.02-2.16-2.24-3.11-3.25.22-.44-.58-2.31-.58-.65-.8-1.52.37-1.59-1.81-.58.07-1.37-2.53-2.02.65-1.96-.36-1.37-1.44-2.1-.94-1.8-.22-1.52 1.23-2.82-.14-.94-.58-2.31-.15-1.23-1.08.21-1.45-3.18-1.37-1.08-1.52-2.6-.36-1.01-3.18-1.67-.07-.43-2.89-.87-.14-1.52-4.55 1.09-2.24-.3-1.6-1-.72.14-1.51-.72-.87.22-2.38 1.51-3.11-.72-3.76.29-1.37-.87-1.44-1.08-.37-1.6 2.1-1.65-1.01-6.15.8-3.32 1.3-2.46.43-2.39-.94 1.09-1.23 2.96-1.6 1.3-1.5v-1.6l6-.07 2.17 1.95 1.66-1.66 2.68-.87 2.46-1.8 1.8 2.3 2.32-2.95-.3-1.23 1.81-1.88 2.32.5 1.59-1 4.55-.37-.22-3.25 1.67-.14.94-1.95-.94-1.23.94-1.37 2.1-.73.28-1.22 1.74-.37.65-2.16 8.17-.08 2.3.65 2.47 3.83 2.16.22.94 2.46 1.74.5.5 2.03 3.33 1.08.5-1.52 1.52-.72 1.38 1.01 1.66 1.88-.87 2.82.36 1.22-1 1.23 1.8 4.12-1.08 1.23.57 1.73-.57 2.6.21 2.6 1.23 2.24-.5 6.72.65.58 13.15-.22.8 1.3 1.3-.28 3.54.72 1.23 3.1-2.39 2.82.65 3.98.94.14 1.3 2.75v1.44l.87 1.88-1.01 3.03-1.16 1.45-.94 2.6-1.44.58-.87 1.3-1.37 4.62z"/>
  </g>
</svg>
