<svg xmlns="http://www.w3.org/2000/svg" width="71" height="68"><g transform="translate(.039 .447)" fill="none" fill-rule="evenodd"><path fill="#EAEAEA" stroke="#205058" stroke-width="2" d="M7.184 4.006H52.64c2.217 0 4.03 1.808 4.03 4.017v43.734c0 2.209-1.813 4.016-4.03 4.016H7.184c-2.217 0-4.031-1.807-4.031-4.016V8.023c0-2.21 1.814-4.017 4.03-4.017z"/><path fill="#F9F9F9" stroke="#205058" stroke-width="2" d="M5.392.72h48.591c2.217 0 4.031 1.774 4.031 3.944v42.944c0 2.17-1.814 3.944-4.03 3.944H5.391c-2.217 0-4.03-1.774-4.03-3.944V4.664c0-2.17 1.813-3.944 4.03-3.944z"/><path stroke="#2E6B72" stroke-linecap="round" stroke-linejoin="round" stroke-width="2" d="M8.415 65.685h24.632m4.926 0h10.524M18.94 47.061l10.412.109"/><path fill="#463581" stroke="#205058" stroke-width="2" d="M5.392.72h48.591c2.217 0 4.031 1.774 4.031 3.944v9.86h0H1.362v-9.86c0-2.17 1.813-3.944 4.03-3.944z"/><path stroke="#2E6B72" stroke-linecap="round" stroke-linejoin="round" stroke-width="2" d="M33.159 47.17l4.814-.109"/><path stroke="#F4F0FB" stroke-linecap="round" stroke-linejoin="round" stroke-opacity=".519" d="M25.657 4.662l8.89.066m10.972-.153l6.704-.099"/><ellipse cx="19.499" cy="7.95" fill="#C1F1F0" stroke="#1F1F1F" rx="3.135" ry="3.067"/><ellipse cx="40.1" cy="7.731" fill="#C1F1F0" stroke="#1F1F1F" rx="3.135" ry="3.067"/><path stroke="#1F1F1F" stroke-linecap="round" stroke-linejoin="round" d="M19.611 7.841h21.273"/><path fill="#A3A3A3" fill-opacity=".194" d="M1.362 14.962h56.652v4.382H1.362zm.447 23.225h55.533v5.259H1.809z"/><path stroke="#205058" stroke-width="2" d="M1.362 14.633v20.158"/><path fill="#000" fill-rule="nonzero" d="M35.97 35.952v2.016h-8.957v-2.016h3.269v-9.246c0-.373.022-.745.022-1.118l-2.329 1.906a.864.864 0 01-.403.198.983.983 0 01-.358 0 1.313 1.313 0 01-.313-.11.525.525 0 01-.202-.175l-.873-1.183 4.948-4.12h2.262v13.848h2.933z"/><path fill="#F9F9F9" stroke="#205058" stroke-linecap="round" stroke-linejoin="round" stroke-width="2" d="M69.658 34.79c-1.052 4.098-3.045 6.136-6.024 6.136H8.393C4.452 40.86 2.1 38.8 1.362 34.79"/><path stroke="#205058" stroke-linecap="round" stroke-linejoin="round" stroke-width="2" d="M1.362 14.633h56.652v20.048h11.644m-10.86 0H13.789c0 3.484-2.306 5.478-6.941 6.026"/><path stroke="#205058" stroke-width="4" d="M1.362 14.523h-.56"/><path stroke="#FFF" stroke-linecap="round" stroke-linejoin="round" d="M17.82 37.639H63.5"/></g></svg>