<svg xmlns="http://www.w3.org/2000/svg" width="97" height="94"><g fill="none" fill-rule="evenodd"><path fill="#E3E3E3" d="M10.43 87.481c.1.402.152.823.152 1.255C10.582 91.643 8.213 94 5.29 94S0 91.643 0 88.736c0-.432.052-.853.151-1.255z"/><path fill="#F9F9F9" d="M5.039 94c2.922 0 5.29-2.357 5.29-5.264V31.835a5.774 5.774 0 015.766-5.515h21.697V5.765A5.765 5.765 0 0143.558 0h42.608v61.95c0 7.179-5.82 13-13 13H58.704V76c0 9.941-8.059 18-18 18H5.039z"/><path fill="#E3E3E3" d="M91.235 0A5.765 5.765 0 0197 5.765H48.626l-.26-.35c.006-.091.008-.184.008-.276 0-2.41-1.668-4.433-3.918-4.988L44.343 0z"/><path d="M18.417 63.795h7.256m-7.256 2.256h7.256m-7.256-12.283h7.256m-7.256 2.256h7.256m-7.256 2.256h7.256m-7.256-13.536h7.256M18.417 47h7.256m-7.256 2.256h7.256m-7.256-14.539h7.256m-7.256 2.256h7.256m-7.256 2.256h7.256" stroke="#979797" stroke-linecap="round" stroke-linejoin="round"/><path fill="#E3E3E3" d="M24.439 33.249a6.931 6.931 0 00-5.291-6.734v-.195h18.644v41.451a6.677 6.677 0 11-13.353 0V33.25z"/><path stroke="#979797" stroke-linecap="round" stroke-linejoin="round" d="M44.021 48h5.958m-5.958 2h5.958"/><path stroke="#979797" stroke-linecap="round" d="M44.125 44h35.75"/><path fill="#40a19d" d="M46.27 32.183h6.037v7.565H46.27zm8.804-4.035h6.037v11.6h-6.037zm8.803-4.287h6.037v15.887h-6.037zm8.804-3.531h6.037v19.417h-6.037z"/><path fill="#D8D8D8" stroke="#1F1F1F" stroke-linecap="round" stroke-linejoin="round" stroke-width=".5" d="M43.252 11.204v28.592m40.573-.048h-40.65"/><path stroke="#979797" stroke-linecap="round" stroke-linejoin="round" d="M18.125 86h35.75m-35.748 2.75L48 88.5m-3.875-31.368h35.75M44.125 59.5h35.75m-35.75 2.368h35.75"/><path fill="#463581" d="M18 77h10v7H18z"/><path fill="#E3E3E3" d="M30 77h10v7H30zm13 0h10v7H43z"/><path fill="#654EAA" d="M30 80h10v4H30z"/><path d="M45.127 33.875l3.812-5.25m0 0l8.893 2.5m0 0L66.5 25.5m0 0l9.373-3.375" stroke="#2E6B72" stroke-dasharray="1" stroke-linecap="square" stroke-width=".5"/><g fill="#205058" transform="translate(44 21)"><ellipse cx="4.864" cy="7.75" rx="1.024" ry="1"/><circle cx="1" cy="13" r="1"/><circle cx="14" cy="10" r="1"/><circle cx="31.976" cy="1" r="1"/><circle cx="23" cy="4" r="1"/></g><path fill="#9F93DD" d="M43 82h10v2H43z"/></g></svg>
