<svg xmlns="http://www.w3.org/2000/svg" viewBox="0 0 1063.51 741.81"><style>.st1,.st5{fill:none;stroke:#e4ba80;stroke-width:3;stroke-linecap:round;stroke-linejoin:round;stroke-miterlimit:10}.st5{stroke:#f2f2f2}.st8{fill:#f2f2f2}.st13{fill:none;stroke:#2a2f41;stroke-width:3;stroke-linecap:round;stroke-linejoin:round;stroke-miterlimit:10}.st14,.st17{stroke:#e4ba80}.st14,.st17,.st18,.st19{fill:none;stroke-width:3}.st14{stroke-linecap:round;stroke-linejoin:round}.st17,.st18,.st19{stroke-miterlimit:10}.st18{stroke:#2a2f41}.st19{stroke:#f2f2f2}.st22{stroke-linecap:round;stroke-linejoin:round}.st22,.st28{fill:none;stroke:#214dff;stroke-width:3;stroke-miterlimit:10}.st30{fill:#214dff}</style><g id="Art"><path class="st14" d="M346.69 646.82h5"/><path fill="none" stroke="#e4ba80" stroke-width="3" stroke-linecap="round" stroke-linejoin="round" stroke-dasharray="9.7659,14.6488" d="M366.34 646.82l285.65.01"/><path class="st14" d="M659.31 646.84h5"/><path class="st1" d="M80.79 332.03l-39.04-.02C19.52 332 1.5 350.02 1.5 372.24v234.34c0 22.22 18.01 40.23 40.23 40.23l304.96.02m239.23-369.09h100.43m328.33 38.2c0 16.57-13.43 30-30 30H779.71c-16.57 0-30 13.43-30 30v4.21"/><path d="M501.93 43.11V27.76c0-14.5 11.76-26.26 26.26-26.26H696.7c14.5 0 26.26 11.76 26.26 26.26v211.78" fill="none" stroke="#e4ba80" stroke-width="3" stroke-linecap="round" stroke-linejoin="round" stroke-miterlimit="10" stroke-dasharray="10,15"/><path class="st17" d="M798.52 277.74h-35.78m213.74 0H940.7"/><path class="st1" d="M940.7 185.32h7.04c19.98 0 36.19-16.2 36.19-36.19 0-19.26-15.05-35-34.02-36.12.49-1.98.76-4.05.76-6.18 0-14.1-11.43-25.54-25.54-25.54-3.61 0-7.04.75-10.15 2.1-6.6-14.9-21.5-25.29-38.85-25.29-17.76 0-32.97 10.91-39.31 26.38a35.076 35.076 0 0 0-14.63-3.19c-18.33 0-33.39 14.03-35.03 31.93-17.87 2.2-31.71 17.43-31.71 35.9 0 19.98 16.2 36.19 36.19 36.19h6.89"/><path class="st13" d="M933.99 158.92H805.23c-3.71 0-6.71-3.01-6.71-6.71v-16.94c0-3.71 3.01-6.71 6.71-6.71h128.76c3.71 0 6.71 3.01 6.71 6.71v16.94c0 3.7-3 6.71-6.71 6.71z"/><circle class="st30" cx="816.16" cy="143.74" r="5.5"/><circle class="st30" cx="836.84" cy="143.74" r="5.5"/><path class="st30" d="M924.42 147.04h-62.71c-1.7 0-3.08-1.38-3.08-3.08 0-1.7 1.38-3.08 3.08-3.08h62.71c1.7 0 3.08 1.38 3.08 3.08 0 1.7-1.38 3.08-3.08 3.08z"/><path class="st13" d="M933.99 200.51H805.23c-3.71 0-6.71-3.01-6.71-6.71v-16.94c0-3.71 3.01-6.71 6.71-6.71h128.76c3.71 0 6.71 3.01 6.71 6.71v16.94c0 3.7-3 6.71-6.71 6.71z"/><circle class="st30" cx="816.16" cy="185.32" r="5.5"/><circle class="st30" cx="836.84" cy="185.32" r="5.5"/><path class="st30" d="M924.42 188.62h-62.71c-1.7 0-3.08-1.38-3.08-3.08 0-1.7 1.38-3.08 3.08-3.08h62.71c1.7 0 3.08 1.38 3.08 3.08 0 1.7-1.38 3.08-3.08 3.08z"/><path class="st13" d="M933.99 242.09H805.23c-3.71 0-6.71-3.01-6.71-6.71v-16.94c0-3.71 3.01-6.71 6.71-6.71h128.76c3.71 0 6.71 3.01 6.71 6.71v16.94c0 3.71-3 6.71-6.71 6.71z"/><circle class="st30" cx="816.16" cy="226.91" r="5.5"/><circle class="st30" cx="836.84" cy="226.91" r="5.5"/><path class="st30" d="M924.42 230.21h-62.71c-1.7 0-3.08-1.38-3.08-3.08 0-1.7 1.38-3.08 3.08-3.08h62.71c1.7 0 3.08 1.38 3.08 3.08 0 1.7-1.38 3.08-3.08 3.08z"/><path class="st13" d="M905.37 263h-71.53c-2.13 0-3.86 1.73-3.86 3.86v21.76c0 2.13 1.73 3.86 3.86 3.86h71.53c2.13 0 3.86-1.73 3.86-3.86v-21.76a3.85 3.85 0 0 0-3.86-3.86zm3.87 7.11h23.83c4.22 0 7.63 3.42 7.63 7.63 0 4.22-3.42 7.63-7.63 7.63h-23.83v-15.26zm-103.09 0h23.83v15.27h-23.83c-4.22 0-7.63-3.42-7.63-7.63 0-4.23 3.41-7.64 7.63-7.64zm53.54-28.02h19.84v20.9h-19.84zm0-41.58h19.84v11.22h-19.84zm0-41.59h19.84v11.22h-19.84z"/><circle class="st30" cx="724.54" cy="277.74" r="30.92"/><circle class="st19" cx="724.54" cy="277.74" r="23.4"/><circle class="st17" cx="724.54" cy="277.74" r="38.2"/><path id="Path_113_1_" class="st8" d="M739.25 275.6l-2.96-.83c-.3-.09-.55-.31-.67-.6l-.72-1.74c-.12-.29-.1-.62.05-.9l1.5-2.68c.23-.4.16-.91-.17-1.24l-1.61-1.61c-.33-.33-.83-.4-1.24-.17l-2.68 1.5c-.28.15-.61.17-.9.05l-1.74-.72c-.29-.12-.51-.37-.6-.67l-.83-2.96c-.13-.45-.53-.75-.99-.75h-2.28c-.46 0-.87.31-.99.75l-.83 2.96c-.09.3-.31.55-.6.67l-1.74.72c-.29.12-.62.1-.9-.05l-2.68-1.5c-.4-.23-.91-.16-1.24.17l-1.61 1.61c-.33.33-.4.83-.17 1.24l1.5 2.68c.15.28.17.61.05.9l-.72 1.74c-.12.29-.37.51-.67.6l-2.96.83c-.45.13-.75.53-.75.99v2.28c0 .46.31.87.75.99l2.96.83c.3.09.55.31.67.6l.72 1.74c.12.29.1.62-.05.9l-1.5 2.68c-.23.4-.16.91.17 1.24l1.61 1.61c.33.33.83.4 1.24.17l2.68-1.5c.28-.15.61-.17.9-.05l1.74.72c.29.12.51.37.6.67l.83 2.96c.13.45.53.75.99.75h2.28c.46 0 .87-.31.99-.75l.83-2.96c.09-.3.31-.55.6-.67l1.74-.72c.29-.12.62-.1.9.05l2.68 1.5c.4.23.91.16 1.24-.17l1.61-1.61c.33-.33.4-.83.17-1.24l-1.5-2.68c-.15-.28-.17-.61-.05-.9l.72-1.74c.12-.29.37-.51.67-.6l2.96-.83c.45-.13.75-.53.75-.99v-2.28c0-.45-.31-.86-.75-.99zm-14.71 9.87c-4.27 0-7.73-3.46-7.73-7.73 0-4.27 3.46-7.73 7.73-7.73 4.27 0 7.73 3.46 7.73 7.73s-3.46 7.73-7.73 7.73z"/><circle class="st30" cx="1014.68" cy="277.74" r="30.92"/><circle class="st19" cx="1014.68" cy="277.74" r="23.4"/><circle class="st17" cx="1014.68" cy="277.74" r="38.2"/><path class="st30" d="M890.55 272.07h-41.89c-3.13 0-5.67 2.54-5.67 5.67s2.54 5.67 5.67 5.67h41.89c3.13 0 5.67-2.54 5.67-5.67s-2.53-5.67-5.67-5.67z"/><path class="st8" d="M1008.93 272.46l-6.09 6.06 6.09 6.09-1.65 1.63-7.72-7.74 7.69-7.71 1.68 1.67zm3.29 14.09h-2.2l7.36-17.61h2.2l-7.36 17.61zm9.88-15.77l7.69 7.71-7.72 7.74-1.65-1.63 6.09-6.09-6.09-6.06 1.68-1.67z"/><path class="st30" d="M314.56 431.39H140.83a4.59 4.59 0 0 1-4.59-4.59V246.2a4.59 4.59 0 0 1 4.59-4.59h173.73a4.59 4.59 0 0 1 4.59 4.59v180.6a4.59 4.59 0 0 1-4.59 4.59z"/><path class="st18" d="M561.4 181.78H105.31c-13.54 0-24.52 10.98-24.52 24.52v254.24c0 13.54 10.98 24.52 24.52 24.52h106.67c10.77 0 19.49 8.73 19.49 19.49 0 10.77-8.73 19.49-19.49 19.49h-20.97c-21.53 0-38.99 17.46-38.99 38.99h362.66c0-21.53-17.46-38.99-38.99-38.99h-20.97c-10.77 0-19.49-8.73-19.49-19.49 0-10.77 8.73-19.49 19.49-19.49H561.4c13.54 0 24.52-10.98 24.52-24.52V206.3c0-13.54-10.98-24.52-24.52-24.52z"/><path class="st18" d="M105.31 453.18V213.66a7.36 7.36 0 0 1 7.36-7.36h441.38a7.36 7.36 0 0 1 7.36 7.36v239.53a7.36 7.36 0 0 1-7.36 7.36H112.66a7.373 7.373 0 0 1-7.35-7.37z"/><circle class="st30" cx="357.97" cy="252.9" r="11.29"/><circle class="st30" cx="357.97" cy="295.27" r="11.29"/><circle class="st30" cx="357.97" cy="337.65" r="11.29"/><circle class="st30" cx="357.97" cy="380.02" r="11.29"/><circle class="st30" cx="357.97" cy="422.4" r="11.29"/><path class="st30" d="M443.53 295.27h-39.81c-3.82 0-6.93-3.1-6.93-6.93v-39.81c0-3.82 3.1-6.93 6.93-6.93h39.81c3.82 0 6.93 3.1 6.93 6.93v39.81c-.01 3.83-3.11 6.93-6.93 6.93zm71.55 0h-39.81c-3.82 0-6.93-3.1-6.93-6.93v-39.81c0-3.82 3.1-6.93 6.93-6.93h39.81c3.82 0 6.93 3.1 6.93 6.93v39.81c-.01 3.83-3.11 6.93-6.93 6.93zm-71.55 69.21h-39.81c-3.82 0-6.93-3.1-6.93-6.93v-39.81c0-3.82 3.1-6.93 6.93-6.93h39.81c3.82 0 6.93 3.1 6.93 6.93v39.81c-.01 3.83-3.11 6.93-6.93 6.93zm71.55 0h-39.81c-3.82 0-6.93-3.1-6.93-6.93v-39.81c0-3.82 3.1-6.93 6.93-6.93h39.81c3.82 0 6.93 3.1 6.93 6.93v39.81c-.01 3.83-3.11 6.93-6.93 6.93zm-71.55 69.21h-39.81c-3.82 0-6.93-3.1-6.93-6.93v-39.81c0-3.82 3.1-6.93 6.93-6.93h39.81c3.82 0 6.93 3.1 6.93 6.93v39.81c-.01 3.83-3.11 6.93-6.93 6.93zm71.55 0h-39.81c-3.82 0-6.93-3.1-6.93-6.93v-39.81c0-3.82 3.1-6.93 6.93-6.93h39.81c3.82 0 6.93 3.1 6.93 6.93v39.81c-.01 3.83-3.11 6.93-6.93 6.93z"/><path class="st8" d="M412.89 262.25v12.39l10.73 6.19 10.73-6.19v-12.39l-10.73-6.2zm71.55 0v12.39l10.73 6.19 10.73-6.19v-12.39l-10.73-6.2zm-71.55 69.2v12.39l10.73 6.2 10.73-6.2v-12.39l-10.73-6.19zm71.55 0v12.39l10.73 6.2 10.73-6.2v-12.39l-10.73-6.19zm-71.55 73.47v12.39l10.73 6.19 10.73-6.19v-12.39l-10.73-6.19zm71.55 0v12.39l10.73 6.19 10.73-6.19v-12.39l-10.73-6.19z"/><path class="st30" d="M377.31 509.21H289.4c-5.56 0-10.06-4.5-10.06-10.06 0-5.56 4.5-10.06 10.06-10.06h87.91c5.56 0 10.06 4.5 10.06 10.06-.01 5.56-4.51 10.06-10.06 10.06z"/><g id="XMLID_9_"><path d="M819.9 657.9H677.12V392.83h42.71v1c0 6.66 5.4 12.06 12.06 12.06h33.25c6.66 0 12.06-5.4 12.06-12.06v-1h42.72v106.15h-31.51c0 18.73 15.19 33.92 33.92 33.92h-33.92c0 18.74 15.19 33.93 33.92 33.93h-33.92c0 18.73 15.19 33.92 33.92 33.92h-33.92c0 17.94 13.9 32.61 31.51 33.84v23.31z" fill="#214dff" stroke="#f2f2f2" stroke-miterlimit="10"/><path class="st5" d="M688.81 435.23v18.9c0 4.21 3.42 7.63 7.63 7.63h18.9c4.21 0 7.63-3.42 7.63-7.63v-18.9c0-4.21-3.42-7.63-7.63-7.63h-18.9c-4.22.01-7.63 3.42-7.63 7.63zm43.83 0v18.9c0 4.21 3.42 7.63 7.63 7.63h18.9c4.21 0 7.63-3.42 7.63-7.63v-18.9c0-4.21-3.42-7.63-7.63-7.63h-18.9c-4.22.01-7.63 3.42-7.63 7.63zm43.83 0v18.9c0 4.21 3.42 7.63 7.63 7.63H803c4.21 0 7.63-3.42 7.63-7.63v-18.9c0-4.21-3.42-7.63-7.63-7.63h-18.9c-4.22.01-7.63 3.42-7.63 7.63zm-87.66 47.51v18.9c0 4.21 3.42 7.63 7.63 7.63h18.9c4.21 0 7.63-3.42 7.63-7.63v-18.9c0-4.21-3.42-7.63-7.63-7.63h-18.9c-4.22 0-7.63 3.42-7.63 7.63zm43.83 0v18.9c0 4.21 3.42 7.63 7.63 7.63h18.9c4.21 0 7.63-3.42 7.63-7.63v-18.9c0-4.21-3.42-7.63-7.63-7.63h-18.9c-4.22 0-7.63 3.42-7.63 7.63zm77.98 16.24v-16.24c0-4.21-3.42-7.63-7.63-7.63h-18.9c-4.21 0-7.63 3.42-7.63 7.63v18.9c0 4.21 3.42 7.63 7.63 7.63h5.89m-101.17 20.98v18.9c0 4.21 3.42 7.63 7.63 7.63h18.9c4.21 0 7.63-3.42 7.63-7.63v-18.9c0-4.21-3.42-7.63-7.63-7.63h-18.9c-4.22 0-7.63 3.42-7.63 7.63zm43.83 0v18.9c0 4.21 3.42 7.63 7.63 7.63h18.9c4.21 0 7.63-3.42 7.63-7.63v-18.9c0-4.21-3.42-7.63-7.63-7.63h-18.9c-4.22 0-7.63 3.42-7.63 7.63zm65.36-7.63h-13.9c-4.21 0-7.63 3.42-7.63 7.63v18.9c0 4.21 3.42 7.63 7.63 7.63h14.12m-109.41 20.98v18.9c0 4.21 3.42 7.63 7.63 7.63h18.9c4.21 0 7.63-3.42 7.63-7.63v-18.9c0-4.21-3.42-7.63-7.63-7.63h-18.9c-4.22 0-7.63 3.41-7.63 7.63zm43.83 0v18.9c0 4.21 3.42 7.63 7.63 7.63h18.9c4.21 0 7.63-3.42 7.63-7.63v-18.9c0-4.21-3.42-7.63-7.63-7.63h-18.9c-4.22 0-7.63 3.41-7.63 7.63zm55.91-7.63h-4.46c-4.21 0-7.63 3.42-7.63 7.63v18.9c0 4.21 3.42 7.63 7.63 7.63h4.48m-111.45 21.86h122.69"/><path class="st13" d="M664.31 531.31V389.87c0-5.44 4.41-9.85 9.85-9.85h148.68c5.45 0 9.85 4.41 9.85 9.85v109.11m0 135.71v26.17c0 5.44-4.4 9.85-9.85 9.85H674.16c-5.44 0-9.85-4.41-9.85-9.85v-37.89m0 0v-91.66c0-18.73-15.19-33.92-33.93-33.92v91.65c0 18.73 15.2 33.93 33.93 33.93z"/><path class="st13" d="M822.31 532.9c-18.73 0-33.92-15.19-33.92-33.92h60.14c9.37 0 16.96 7.59 16.96 16.96 0 4.69-1.9 8.92-4.96 12a16.946 16.946 0 0 1-12 4.96m-26.22 33.94c-18.73 0-33.92-15.19-33.92-33.93h60.14c9.37 0 16.96 7.6 16.96 16.97 0 4.68-1.9 8.92-4.96 12a16.946 16.946 0 0 1-12 4.96"/><path class="st13" d="M822.31 600.76c-18.73 0-33.92-15.19-33.92-33.92h60.14c9.37 0 16.96 7.59 16.96 16.96 0 4.68-1.9 8.92-4.96 12a16.946 16.946 0 0 1-12 4.96"/><path class="st13" d="M848.53 600.76c9.37 0 16.96 7.6 16.96 16.97 0 4.69-1.9 8.92-4.96 12a16.946 16.946 0 0 1-12 4.96h-26.22c-.81 0-1.62-.03-2.41-.09-17.61-1.23-31.51-15.91-31.51-33.84h60.14z"/></g><path class="st5" d="M259.68 329.19c0-17.83-14.59-32.25-32.48-31.98-17.06.26-31.06 14.12-31.48 31.18-.2 8.25 2.72 15.8 7.67 21.58 3.99 4.66 6.08 10.67 6.08 16.81v.08h36.47v-.28c0-6.18 2.3-12.1 6.27-16.84a31.871 31.871 0 0 0 7.47-20.55zm-50.34 46.08h36.71m-31.96 8.42h27.22"/><path d="M231.97 406.86h-8.55a8.14 8.14 0 0 1-8.14-8.14v-6.61h24.83v6.61a8.14 8.14 0 0 1-8.14 8.14z" fill="#214dff" stroke="#f2f2f2" stroke-width="3" stroke-miterlimit="10"/><path class="st5" d="M227.7 268.44v19.16m12.64-17.83l-3.99 18.74m16.08-14.81l-7.8 17.5m18.8-11.15l-11.26 15.5m20.71-6.99l-14.24 12.82m21.71-2.54l-16.59 9.58m21.76 2.03l-18.22 5.92m20.86 6.51l-19.05 2.01m19.05 10.7l-19.05-2m16.41 14.43l-18.22-5.91m-97.42 5.91l18.22-5.91m-20.86-6.52l19.05-2m-19.05-10.71l19.05 2.01m-16.41-14.44l18.22 5.92m-13.05-17.53l16.59 9.58m-9.12-19.86l14.23 12.82m-4.79-21.33l11.26 15.5m-.25-21.85l7.79 17.5m4.3-21.43l3.98 18.74m8.66-20.07v19.16m0 9.61v10.22c4.31 0 7.81 3.5 7.81 7.81s-3.5 7.81-7.81 7.81v18.66c-4.31 0-7.81 3.5-7.81 7.81s3.5 7.81 7.81 7.81v9.53"/><path class="st5" d="M195.87 332.38h6.88c0-4.31 3.5-7.81 7.81-7.81s7.81 3.5 7.81 7.81h18.66c0 4.31 3.5 7.81 7.81 7.81s7.81-3.5 7.81-7.81h6.88"/><path class="st13" d="M1062.01 447.4c0-37.15-30.11-67.26-67.26-67.26-37.15 0-67.26 30.11-67.26 67.26h49.13c0-10.01 8.12-18.13 18.13-18.13s18.13 8.12 18.13 18.13h49.13zm-85.38 0H927.5m24.15-24.88l-15.14-8.74m33.36-9.48l-8.74-15.14m33.63 8.65v-17.66m24.89 24.15l8.74-15.14m9.45 33.37l15.16-8.75m-40.11 33.62h49.12"/><path class="st30" d="M985.01 447.4l9.75-45.18 9.75 45.18z"/><circle class="st30" cx="994.76" cy="447.4" r="9.75"/><path class="st13" d="M1056.87 504.13H932.64c-2.84 0-5.14-2.3-5.14-5.14s2.3-5.14 5.14-5.14h124.23c2.84 0 5.14 2.3 5.14 5.14 0 2.83-2.3 5.14-5.14 5.14z"/><path class="st30" d="M994.76 481.8a7.74 7.74 0 0 0-7.74 7.74v18.88a7.74 7.74 0 0 0 7.74 7.74 7.74 7.74 0 0 0 7.74-7.74v-18.88c0-4.27-3.47-7.74-7.74-7.74z"/><path class="st18" d="M585.91 206.12h37.33c6.28 0 11.37-5.09 11.37-11.37V54.48c0-6.28-5.09-11.37-11.37-11.37H380.62c-6.28 0-11.37 5.09-11.37 11.37v127.3"/><path class="st18" d="M580.64 191.12h38.97V58.11H384.26v123.67"/><circle class="st30" cx="428.14" cy="140.85" r="18.66"/><path class="st30" d="M582.49 84.44l-10.22 10.22-10.22-10.22-5.94 5.94 10.22 10.22-10.22 10.22 5.94 5.94 10.22-10.22 10.22 10.22 5.94-5.94-10.22-10.22 10.22-10.22z"/><path class="st28" d="M444.25 131.46a221.942 221.942 0 0 1 122.07-30.86"/><circle class="st13" cx="944.58" cy="560.77" r="17.08"/><path class="st13" d="M944.58 560.77h17.08"/><circle class="st13" cx="994.76" cy="560.77" r="17.08"/><path class="st13" d="M994.76 560.77l12.07-12.08"/><circle class="st13" cx="1044.94" cy="560.77" r="17.08"/><path class="st13" d="M1044.94 560.77l-12.08-12.08"/><path class="st22" d="M924.97 670.7l51.51-36.01 42.93 20.7 42.6-32.42"/><path class="st22" d="M1059.74 639.41l2.27-16.44-16.44-2.28"/><circle class="st30" cx="272.05" cy="100.6" r="40.49"/><path class="st8" d="M284.19 116.73c-2.37 2.43-5.66 3.82-9.42 4.22v5.26h-4.22V121c-3.64-.29-7-1.5-9.83-4.11-2.31-2.08-4.04-5.26-4.11-8.9h7.11c.06 1.97.92 3.7 2.14 4.86 1.33 1.27 2.95 1.85 4.68 2.02v-11.45c-.92-.12-1.91-.23-2.83-.4-6.24-.98-10.06-4.97-10.06-10.87 0-3.07 1.45-5.61 3.53-7.63 2.26-2.26 5.49-3.82 9.36-4.16v-5.38h4.22v5.49c3.23.4 6.13 1.62 8.27 3.59 2.31 2.14 3.87 5.09 3.99 8.27h-7.11c-.06-1.39-.87-2.95-1.79-3.93-.81-.87-2.02-1.45-3.35-1.79v10.58l1.96.29c5.9.93 10.76 4.63 10.76 11.16 0 3.64-1.38 6.13-3.3 8.09zm-13.64-30.3c-1.56.23-3.12.81-4.28 1.91-.92.87-1.56 2.14-1.56 3.64 0 2.66 1.68 3.93 4.11 4.34.57.12 1.15.23 1.73.29V86.43zm5.2 17.81l-.98-.17v10.75c1.68-.29 3.07-.87 4.11-1.91.92-.93 1.61-2.08 1.61-3.99 0-2.94-2.25-4.21-4.74-4.68z"/><circle class="st30" cx="162.48" cy="100.6" r="40.49"/><circle class="st8" cx="162.48" cy="89.23" r="11.82"/><path class="st8" d="M181.54 120.11c0-10.52-8.53-19.06-19.06-19.06-10.52 0-19.06 8.53-19.06 19.06"/><path class="st28" d="M1014.78 69.32V26.63m21.34 21.35h-42.69M80.79 584.39v-42.7m21.34 21.35H59.44m690.27 178.77v-42.7m21.35 21.35h-42.69m-97.99-372.14v-21.34m10.68 10.67h-21.35m259.82 91.18v-21.35m10.68 10.67h-21.35"/></g></svg>