<svg xmlns="http://www.w3.org/2000/svg" width="60" height="72"><g fill="none" fill-rule="evenodd"><rect width="57" height="69" y="3" fill="#EAEAEA" rx="5"/><rect width="55" height="68" x="5" fill="#F9F9F9" rx="5"/><circle cx="45" cy="4" r="2" fill="#E3E3E3"/><circle cx="53" cy="4" r="2" fill="#E3E3E3"/><path d="M11.5 25.5h18m-18 7h18m-18 12h18m-18 13h18m3-32h18m-15 7h18m-20 25h18m-40-19h11m-11 13h11m11-7h18m-26-6h10m3 0h11m-24 13h10m3 0h11" stroke="#979797" stroke-linecap="round" stroke-linejoin="round" stroke-width="2"/><text fill="#463581" font-family="Lato-Heavy, Lato" font-size="10" font-weight="600"><tspan x="11.23" y="12">PDF</tspan></text></g></svg>