<svg xmlns="http://www.w3.org/2000/svg" viewBox="0 0 357.84 453.35"><style>.st0,.st2{fill:none;stroke:#e4ba80;stroke-width:3;stroke-miterlimit:10}.st2{stroke:#f2f2f2}.st3{fill:#4066ff}</style><g id="Arte"><path class="st2" d="M339.11 116.64H18.72c-9.51 0-17.22 7.71-17.22 17.22v178.6c0 9.51 7.71 17.22 17.22 17.22h74.93c7.56 0 13.69 6.13 13.69 13.69s-6.13 13.69-13.69 13.69H78.93c-15.13 0-27.39 12.26-27.39 27.39H306.3c0-15.13-12.26-27.39-27.39-27.39h-14.73c-7.56 0-13.69-6.13-13.69-13.69s6.13-13.69 13.69-13.69h74.93c9.51 0 17.22-7.71 17.22-17.22v-178.6c.01-9.5-7.7-17.22-17.22-17.22z"/><path class="st2" d="M18.73 307.3V139.04a5.17 5.17 0 0 1 5.17-5.17h310.05a5.17 5.17 0 0 1 5.17 5.17V307.3a5.17 5.17 0 0 1-5.17 5.17H23.89a5.175 5.175 0 0 1-5.16-5.17z"/><path class="st3" d="M165.83 174.53H43.57c-1.72 0-3.11-1.39-3.11-3.11v-9.63c0-1.72 1.39-3.11 3.11-3.11h122.27c1.72 0 3.11 1.39 3.11 3.11v9.63c0 1.72-1.4 3.11-3.12 3.11zm.25 117.46H43.33a2.87 2.87 0 0 1-2.87-2.87v-99.79a2.87 2.87 0 0 1 2.87-2.87h122.75a2.87 2.87 0 0 1 2.87 2.87v99.79c0 1.58-1.29 2.87-2.87 2.87z"/><circle class="st3" cx="196.22" cy="166.6" r="7.93"/><circle class="st3" cx="196.22" cy="196.37" r="7.93"/><circle class="st3" cx="196.22" cy="226.14" r="7.93"/><circle class="st3" cx="196.22" cy="255.91" r="7.93"/><circle class="st3" cx="196.22" cy="285.67" r="7.93"/><path class="st3" d="M256.32 196.37h-27.97a4.87 4.87 0 0 1-4.87-4.87v-27.97a4.87 4.87 0 0 1 4.87-4.87h27.97a4.87 4.87 0 0 1 4.87 4.87v27.97c-.01 2.69-2.19 4.87-4.87 4.87zm50.26 0h-27.97a4.87 4.87 0 0 1-4.87-4.87v-27.97a4.87 4.87 0 0 1 4.87-4.87h27.97a4.87 4.87 0 0 1 4.87 4.87v27.97c-.01 2.69-2.18 4.87-4.87 4.87zm-50.26 48.62h-27.97a4.87 4.87 0 0 1-4.87-4.87v-27.97a4.87 4.87 0 0 1 4.87-4.87h27.97a4.87 4.87 0 0 1 4.87 4.87v27.97c-.01 2.69-2.19 4.87-4.87 4.87zm50.26 0h-27.97a4.87 4.87 0 0 1-4.87-4.87v-27.97a4.87 4.87 0 0 1 4.87-4.87h27.97a4.87 4.87 0 0 1 4.87 4.87v27.97c-.01 2.69-2.18 4.87-4.87 4.87zm-50.26 48.61h-27.97a4.87 4.87 0 0 1-4.87-4.87v-27.97a4.87 4.87 0 0 1 4.87-4.87h27.97a4.87 4.87 0 0 1 4.87 4.87v27.97c-.01 2.69-2.19 4.87-4.87 4.87zm50.26 0h-27.97a4.87 4.87 0 0 1-4.87-4.87v-27.97a4.87 4.87 0 0 1 4.87-4.87h27.97a4.87 4.87 0 0 1 4.87 4.87v27.97c-.01 2.69-2.18 4.87-4.87 4.87z"/><path d="M234.8 173.17v8.7l7.53 4.36 7.54-4.36v-8.7l-7.54-4.35zm50.26 0v8.7l7.54 4.36 7.53-4.36v-8.7l-7.53-4.35zm-50.26 48.62v8.7l7.53 4.35 7.54-4.35v-8.7l-7.54-4.36zm50.26 0v8.7l7.54 4.35 7.53-4.35v-8.7l-7.53-4.36zm-50.26 51.6v8.71l7.53 4.35 7.54-4.35v-8.71l-7.54-4.35zm50.26 0v8.71l7.54 4.35 7.53-4.35v-8.71l-7.53-4.35z" fill="#2a2f41"/><path class="st3" d="M209.8 346.66h-61.75a7.07 7.07 0 1 1 0-14.14h61.75c3.9 0 7.07 3.16 7.07 7.07-.01 3.9-3.17 7.07-7.07 7.07z"/><path class="st0" d="M161.62 18.88C98.37 23.38 41.87 52.3 1.5 96.28m354.84 0c-40.37-43.97-96.87-72.9-160.13-77.39m.01-.09h142.89m-320.38 0h142.89"/><path class="st2" d="M353.6 27.41h-11.74c-1.51 0-2.74-1.23-2.74-2.74V12.93c0-1.51 1.23-2.74 2.74-2.74h11.74c1.51 0 2.74 1.23 2.74 2.74v11.74c0 1.51-1.23 2.74-2.74 2.74zm-337.62 0H4.24c-1.51 0-2.74-1.23-2.74-2.74V12.93c0-1.51 1.23-2.74 2.74-2.74h11.74c1.51 0 2.74 1.23 2.74 2.74v11.74a2.731 2.731 0 0 1-2.74 2.74zM190.68 1.5h-23.52a5.54 5.54 0 0 0-5.54 5.54v23.52a5.54 5.54 0 0 0 5.54 5.54h23.52a5.54 5.54 0 0 0 5.54-5.54V7.04a5.54 5.54 0 0 0-5.54-5.54z"/><path class="st0" d="M352.19 451.85H5.65c-2.29 0-4.15-1.86-4.15-4.15v-20.15c0-2.29 1.86-4.15 4.15-4.15h346.53c2.29 0 4.15 1.86 4.15 4.15v20.15a4.138 4.138 0 0 1-4.14 4.15zM18.4 423.38v11.57m16.89-11.57v11.57m16.9-11.57v11.57m16.9-11.57v11.57m16.9-11.57v11.57m16.89-11.57v11.57m16.9-11.57v11.57m16.9-11.57v11.57m16.89-11.57v11.57m16.9-11.57v11.57m16.9-11.57v11.57m16.9-11.57v11.57m16.89-11.57v11.57m16.9-11.57v11.57m16.9-11.57v11.57m16.89-11.57v11.57m16.9-11.57v11.57m16.9-11.57v11.57m16.89-11.57v11.57m16.9-11.57v11.57"/></g></svg>