<svg xmlns="http://www.w3.org/2000/svg" viewBox="0 0 336.8 199.03"><style>.st3{fill:#4066ff}.st4{stroke:#4066ff;stroke-width:3;stroke-miterlimit:10}.st4,.st6{fill:none}</style><g id="Arte"><ellipse transform="rotate(-31.717 111.973 114.23)" class="st3" cx="111.97" cy="114.22" rx="18.8" ry="18.8"/><ellipse transform="rotate(-7.973 205 114.223)" class="st3" cx="205" cy="114.22" rx="18.8" ry="18.8"/><path class="st4" d="M308.84 36.43v40.52m-20 0V36.43m19.01 115.06c-4.93 26.17-27.95 46.04-55.53 46.04h-.8c-27.58 0-50.6-19.87-55.53-46.04"/><path class="st4" d="M287.3 151.49c-4.52 15.04-18.48 26.04-34.98 26.04h-.8c-16.49 0-30.46-10.99-34.98-26.04M102.29 76.95c3-28.36 27.06-50.52 56.2-50.52 29.14 0 53.19 22.17 56.2 50.52"/><path class="st4" d="M194.5 76.95c-2.87-17.29-17.92-30.52-36.02-30.52s-33.15 13.23-36.02 30.52m175.18 74.54c-4.76 20.64-23.23 36.04-45.32 36.04h-.81c-22.08 0-40.56-15.4-45.32-36.04m-84.22 0c0 25.38-20.65 46.04-46.04 46.04H0"/><path class="st4" d="M0 177.53h75.93c14.36 0 26.04-11.68 26.04-26.04"/><path class="st4" d="M111.97 151.49c0 19.9-16.13 36.04-36.04 36.04H0M298.84 76.95V36.43M204.6 76.95c-2.94-22.86-22.46-40.52-46.12-40.52-23.66 0-43.18 17.67-46.12 40.52"/><circle class="st3" cx="298.03" cy="114.22" r="18.8"/><path d="M115.81 120.75l-.96-2.83h-5.87l-.96 2.83h-2.71l5.19-14.77h2.94l5.19 14.77h-2.82zm-3.9-11.48l-2.1 6.23h4.21l-2.11-6.23zm98.15 10.5c-1.15.88-2.52 1-3.94 1h-5.88v-14.79h5.88c1.19 0 2.42.17 3.42.81 1.08.71 1.71 1.94 1.71 3.21 0 1.21-.56 2.56-1.81 3.13 1.4.65 2.12 1.96 2.12 3.33 0 1.31-.43 2.49-1.5 3.31zm-3.83-11.48h-3.31V112h3.38c1.21 0 2.23-.44 2.23-1.83-.01-1.42-1.09-1.88-2.3-1.88zm.08 5.96h-3.4v4.1h3.31c1.25 0 2.6-.46 2.6-1.96.01-1.58-1.09-2.14-2.51-2.14zm101.62-.76l-1.97 1.97-5.74-5.74v15.2h-2.76v-15.2l-5.77 5.74-1.94-1.97 9.09-9.04 9.09 9.04z" fill="#2a2f41"/><path class="st6" d="M307.85 151.49c-4.93 26.17-27.95 46.04-55.53 46.04h-.8c-27.58 0-50.6-19.87-55.53-46.04"/><path class="st6" d="M287.3 151.49c-4.52 15.04-18.48 26.04-34.98 26.04h-.8c-16.49 0-30.46-10.99-34.98-26.04M102.29 76.95c3-28.36 27.06-50.52 56.2-50.52 29.14 0 53.19 22.17 56.2 50.52"/><path class="st6" d="M194.5 76.95c-2.87-17.29-17.92-30.52-36.02-30.52s-33.15 13.23-36.02 30.52m175.18 74.54c-4.76 20.64-23.23 36.04-45.32 36.04h-.81c-22.08 0-40.56-15.4-45.32-36.04"/><path class="st6" d="M204.6 76.95c-2.94-22.86-22.46-40.52-46.12-40.52-23.66 0-43.18 17.67-46.12 40.52"/><path class="st3" d="M298.84 0l-21.03 36.43h42.06z"/><path d="M335.3 87.2v54.04c0 5.66-4.59 10.25-10.25 10.25h-54.04c-5.66 0-10.25-4.59-10.25-10.25V87.2c0-5.66 4.59-10.25 10.25-10.25h54.04c5.66 0 10.25 4.59 10.25 10.25zm-186.07 0v54.04c0 5.66-4.59 10.25-10.25 10.25H84.95c-5.66 0-10.25-4.59-10.25-10.25V87.2c0-5.66 4.59-10.25 10.25-10.25h54.04c5.66 0 10.24 4.59 10.24 10.25z" fill="none" stroke="#e4ba80" stroke-width="3" stroke-miterlimit="10"/><path d="M242.27 87.2v54.04c0 5.66-4.59 10.25-10.25 10.25h-54.04c-5.66 0-10.25-4.59-10.25-10.25V87.2c0-5.66 4.59-10.25 10.25-10.25h54.04c5.66 0 10.25 4.59 10.25 10.25z" fill="none" stroke="#fff" stroke-width="3" stroke-miterlimit="10"/></g></svg>