<svg xmlns="http://www.w3.org/2000/svg" viewBox="0 0 15 15" width="20" height="20"><style>.shp0{fill:#fff}</style><path id="Layer" fill-rule="evenodd" class="shp0" d="M9.55 0a.869.869 0 01.56.22c.07.08.13.16.17.26.04.09.06.2.06.3v5.15c0 .1-.02.21-.06.3-.04.1-.1.19-.17.26s-.16.13-.26.17c-.09.04-.2.06-.3.06h-5c-.1 0-.21-.02-.3-.06-.1-.04-.19-.1-.26-.17a.782.782 0 01-.17-.26.765.765 0 01-.06-.3V.78c0-.1.02-.2.06-.3.04-.09.1-.18.17-.25A.803.803 0 014.55 0h5zM9.1 5.37c.01-.02.03-.04.04-.06.01-.03.02-.05.03-.08.01-.03.01-.05.01-.08-.01-.04-.01-.08-.02-.12l-.03-.11c-.01-.04-.03-.08-.04-.11-.02-.04-.03-.07-.05-.11L7.84 2l-.03-.09-.03-.09c-.02-.03-.03-.06-.04-.09-.01-.03-.03-.06-.04-.09l-.03-.06-.03-.06-.03-.06c-.02-.02-.03-.04-.04-.06-.01-.02-.03-.03-.05-.05-.01-.02-.03-.03-.05-.05-.01-.01-.03-.02-.05-.04l-.06-.03c-.02-.01-.05-.02-.08-.03a.188.188 0 00-.08-.02c-.02-.01-.05-.01-.08-.02h-.08c-.03 0-.06 0-.09.01s-.06.01-.09.02c-.02.01-.05.02-.08.03-.03.01-.05.03-.08.04l-.06.03c-.02.01-.04.03-.06.04-.02.02-.03.04-.05.05-.01.02-.03.04-.04.06-.01.02-.03.04-.04.07-.02.02-.03.04-.04.06-.01.02-.03.05-.04.07-.01.02-.02.05-.03.07L6.22 2 5.04 4.72l-.13.26c0 .01 0 .03-.01.04v.1c.01.01.01.03.01.04v.09c.01.02.02.05.03.08.01.02.02.05.04.07l.06.06c.02.02.05.03.07.05l.09.03c.02.01.05.02.08.02.03.01.06.01.09.01s.06 0 .09-.01c.02-.01.05-.01.08-.03.02-.01.05-.03.07-.05.02-.01.04-.04.06-.06.02-.03.04-.07.06-.1.02-.03.04-.07.06-.1.02-.04.03-.07.05-.11.01-.04.03-.07.04-.11l.22-.54h1.85l.22.54.12.26c.01.02.02.03.02.05.01.02.02.03.03.05.01.01.02.03.03.04.01.02.02.04.03.05l.03.03c.01.01.03.02.04.02l.03.03c.01.01.03.01.04.02h.18c.03 0 .06 0 .09-.01.03 0 .05-.01.08-.02a.3.3 0 00.08-.04c.02-.01.05-.03.07-.05l.06-.06z"/><path id="Layer" class="shp0" d="M6.33 3.82h1.36l-.65-1.76-.71 1.76zM3.69 10.2c.03-.01.05-.02.08-.03.02-.01.05-.03.07-.04l.06-.06c.02-.02.04-.05.05-.07.01-.02.03-.04.04-.07.01-.02.02-.04.03-.07.01-.02.01-.05.01-.07.01-.03.01-.05.01-.08.01-.04 0-.09 0-.13a.612.612 0 00-.05-.12.413.413 0 00-.07-.11.673.673 0 00-.11-.07c-.06-.02-.11-.04-.17-.06l-.18-.03c-.06-.01-.12-.02-.18-.02h-.87v1.09h.91c.04 0 .08 0 .12-.01.04 0 .09-.01.13-.02l.12-.03zm-.39.67h-.89v1.24h.92c.58 0 .9-.2.9-.62a.33.33 0 000-.14c0-.04-.01-.09-.03-.13a.746.746 0 00-.07-.12.284.284 0 00-.09-.1c-.06-.03-.12-.05-.18-.07-.06-.02-.12-.03-.18-.05-.06-.01-.13-.01-.19-.02-.06 0-.13 0-.19.01z"/><path id="Layer" fill-rule="evenodd" class="shp0" d="M5.82 7.28c.1 0 .21.02.3.06.1.04.19.1.26.17s.13.16.17.26c.04.09.06.2.06.3v5.15c0 .1-.02.21-.06.3-.04.1-.1.18-.17.26a.869.869 0 01-.56.22h-5a.803.803 0 01-.73-.48c-.04-.1-.06-.2-.06-.3V8.07c0-.1.02-.21.06-.3.04-.1.1-.19.17-.26s.16-.13.26-.17c.09-.04.2-.06.3-.06h5zm-.95 4.89c.03-.05.06-.11.09-.16l.06-.18c.02-.06.03-.12.03-.18.01-.07.01-.13.01-.19a1.03 1.03 0 00-.23-.65c-.08-.09-.17-.17-.27-.23s-.21-.1-.33-.12c.09-.04.18-.08.26-.14.07-.07.14-.14.2-.22.05-.08.1-.17.13-.26a.93.93 0 00.05-.29c0-.06-.01-.12-.02-.18-.01-.05-.02-.11-.04-.17-.02-.05-.05-.11-.08-.16s-.06-.1-.1-.14l-.06-.06a.234.234 0 00-.07-.07c-.02-.01-.04-.03-.07-.05-.02-.02-.04-.03-.07-.05-.03-.02-.06-.03-.09-.05-.03-.01-.07-.03-.1-.04-.03-.01-.06-.02-.1-.03-.03-.01-.07-.01-.1-.02-.04 0-.09-.01-.13-.01h-.26c-.04 0-.09.01-.13.01H1.94c-.04.01-.07.01-.11.02-.03.01-.06.03-.09.04l-.09.06-.06.09c-.01.03-.03.06-.04.1-.01.03-.01.07-.02.1v3.38c0 .03.01.07.02.1a.3.3 0 00.04.1l.06.09c.03.02.05.05.08.06.03.02.07.04.1.05l.1.03h1.59c.04-.01.09-.01.14-.01.05-.01.1-.01.15-.02.04-.01.09-.01.14-.02.04-.01.07-.01.11-.02.04-.01.08-.01.11-.02.04-.01.08-.02.11-.03.04-.02.07-.03.11-.04.05-.02.1-.05.14-.08.05-.03.09-.06.13-.09.04-.04.08-.08.11-.12.04-.04.07-.08.1-.13zm8.42-4.87a.869.869 0 01.56.22c.07.08.13.16.17.26.04.09.06.2.06.3v5.13c0 .1-.02.21-.06.3-.04.1-.1.18-.17.26a.869.869 0 01-.56.22h-5c-.1 0-.2-.02-.3-.06a.852.852 0 01-.25-.17.852.852 0 01-.17-.25c-.04-.1-.06-.2-.06-.3V8.08c0-.1.02-.2.06-.3.04-.09.1-.18.17-.25s.16-.13.25-.17c.1-.04.2-.06.3-.06h5zm-.78 4.52c.01-.03.03-.07.04-.1l.03-.11c.01-.03.01-.07.02-.1 0-.04.01-.07.01-.11 0-.03-.01-.05-.01-.07-.01-.03-.02-.05-.03-.08-.01-.02-.03-.04-.04-.06-.02-.02-.04-.03-.06-.05l-.05-.05-.06-.03c-.03-.01-.05-.01-.07-.02h-.14c-.03 0-.05.01-.07.02-.03.01-.05.02-.07.03l-.05.05-.03.06c-.01.02-.02.05-.02.07-.01.02-.02.04-.02.06-.01.03-.02.05-.02.07-.02.05-.04.1-.07.15-.02.05-.05.09-.08.14-.03.04-.07.08-.11.12-.04.04-.08.08-.12.11-.04.03-.09.06-.14.08a.88.88 0 01-.15.05c-.05.02-.1.03-.15.03-.05.01-.11.01-.16.01h-.15l-.15-.03c-.04-.01-.09-.03-.14-.05-.04-.02-.09-.04-.13-.07l-.12-.09c-.04-.04-.08-.07-.11-.11-.03-.04-.06-.09-.09-.13-.02-.04-.04-.09-.06-.14-.02-.06-.04-.13-.06-.19-.02-.07-.04-.13-.05-.2-.01-.06-.02-.13-.02-.2-.01-.07-.01-.13-.01-.2-.01-.1 0-.19.01-.29.01-.1.03-.19.05-.29.03-.09.06-.18.1-.27.05-.09.09-.17.15-.25.05-.06.1-.12.16-.17.06-.05.13-.09.2-.12s.14-.06.22-.08c.07-.01.15-.02.23-.02h.14c.05.01.1.02.14.03.05.01.09.03.14.05.04.02.08.04.12.07.04.03.08.06.11.09l.11.11.09.12c.02.04.05.09.07.13.01.02.02.05.03.07.01.02.03.05.04.07.02.02.03.04.05.06.01.02.03.04.05.06.02.01.03.03.05.04.02.01.04.01.06.02.02.01.04.01.07.02h.06c.02 0 .05 0 .07-.01.02 0 .04-.01.06-.02l.06-.03c.02-.02.04-.03.05-.05l.05-.05.03-.06c.01-.03.02-.05.02-.07.01-.02.01-.05.01-.07 0-.05-.01-.1-.02-.15-.01-.05-.03-.09-.04-.14a.914.914 0 00-.07-.14.834.834 0 00-.08-.12l-.12-.15c-.05-.04-.1-.09-.15-.13-.05-.04-.1-.08-.15-.11-.06-.04-.11-.07-.17-.1l-.21-.09c-.07-.02-.14-.04-.22-.06-.07-.02-.15-.03-.22-.04-.08-.01-.15-.01-.23-.01-.07 0-.13 0-.2.01-.06 0-.13.01-.19.03-.07.01-.13.03-.19.04-.07.02-.13.04-.19.07-.06.02-.12.05-.17.08-.06.02-.11.06-.17.09-.05.04-.1.07-.15.11-.05.04-.1.09-.14.13-.04.05-.09.1-.13.15-.03.06-.07.11-.11.17-.03.05-.06.11-.09.17-.03.06-.06.12-.08.18-.03.07-.05.14-.07.22-.01.07-.03.14-.04.22l-.03.22v.37c0 .05.01.1.01.15 0 .04.01.09.02.14 0 .05.01.09.02.14l.03.13c.02.04.03.09.04.13.02.04.03.08.05.13.02.04.03.08.05.12.02.04.04.08.06.11.02.04.05.08.07.11.02.04.05.07.07.11.03.03.05.07.08.1s.06.07.09.1l.09.09.11.08c.03.02.07.05.11.07.04.02.07.04.11.06l.12.06c.04.01.08.03.12.04.05.01.09.02.13.03l.15.03c.05 0 .09.01.14.02.05 0 .1 0 .15.01h.34l.19-.03c.06-.01.12-.03.18-.04.06-.02.12-.04.18-.07.05-.02.1-.04.15-.07.04-.02.09-.05.13-.08.05-.03.09-.06.13-.09.04-.04.08-.07.12-.11.03-.03.06-.07.09-.1l.08-.11c.02-.03.05-.07.07-.11l.06-.12z"/></svg>