<svg xmlns="http://www.w3.org/2000/svg" viewBox="0 0 451.05 379.89"><style>.st3{fill:#4066ff}.st4{fill:none;stroke:#4066ff;stroke-width:3;stroke-miterlimit:10}.st5{fill:#2a2f41}.st10,.st11,.st7{fill:none;stroke-width:3;stroke-miterlimit:10}.st7{stroke:#fff}.st10{stroke:#2a2f41}.st11{stroke:#f2f2f2;stroke-linecap:round;stroke-linejoin:round}</style><g id="Arte"><path class="st4" d="M410.6 145.91c9.26 0 16.76 7.5 16.76 16.76 0 9.26-7.5 16.76-16.76 16.76"/><path class="st4" d="M410.6 134.61c15.5 0 28.06 12.56 28.06 28.06s-12.56 28.06-28.06 28.06"/><path class="st4" d="M410.6 123.73c21.51 0 38.94 17.43 38.94 38.94s-17.43 38.94-38.94 38.94M40.44 179.43c-9.26 0-16.76-7.5-16.76-16.76 0-9.26 7.5-16.76 16.76-16.76"/><path class="st4" d="M40.44 190.73c-15.5 0-28.06-12.56-28.06-28.06s12.56-28.06 28.06-28.06"/><path class="st4" d="M40.44 201.61c-21.51 0-38.94-17.43-38.94-38.94s17.43-38.94 38.94-38.94"/><circle class="st3" cx="225.52" cy="51.51" r="40.49"/><circle class="st10" cx="225.52" cy="51.51" r="30.63"/><circle class="st10" cx="225.52" cy="51.51" r="25.33"/><circle class="st3" cx="225.52" cy="328.39" r="40.49"/><circle class="st10" cx="225.52" cy="328.39" r="30.63"/><circle class="st10" cx="225.52" cy="328.39" r="25.33"/><circle class="st10" cx="225.52" cy="328.39" r="13.82"/><path class="st10" d="M217.16 328.39c0 4.62 3.74 8.36 8.36 8.36s8.36-3.74 8.36-8.36M211.99 44.44v11.21c0 1.84 1.49 3.32 3.32 3.32h11.44l7.3 7.3v-7.3h1.67c1.84 0 3.32-1.49 3.32-3.32V44.44c0-1.84-1.49-3.32-3.32-3.32H215.3c-1.82 0-3.31 1.49-3.31 3.32z"/><circle class="st5" cx="231.7" cy="49.92" r="1.55"/><circle class="st5" cx="225.52" cy="49.92" r="1.55"/><circle class="st5" cx="219.34" cy="49.92" r="1.55"/><circle class="st5" cx="220.66" cy="324.49" r="1.55"/><circle class="st5" cx="230.39" cy="324.49" r="1.55"/><path d="M355.66 126.64V85.18c0-20.33-16.48-36.8-36.8-36.8h-43.32m-.01 280.01h43.32c20.33 0 36.8-16.48 36.8-36.8V198.7m-263.36 1.49v91.4c0 20.33 16.48 36.8 36.8 36.8h46.42m.01-280.02H129.1c-20.33 0-36.8 16.48-36.8 36.8v39.98" fill="none" stroke="#e4ba80" stroke-width="3" stroke-miterlimit="10"/><path class="st11" d="M401.67 94.66c-30.7 29.43-67.18 45.3-104.64 45.3v45.43c37.46 0 73.94 15.87 104.64 45.3 3.36 3.22 8.94.86 8.94-3.8V98.45c-.01-4.65-5.58-7.01-8.94-3.79zm-144.66 90.73h40.02v-45.43h-40.02c-12.55 0-22.72 10.17-22.72 22.72 0 12.54 10.17 22.71 22.72 22.71z"/><path class="st11" d="M287.67 185.39c-2.4 26.68 3.5 53.45 16.89 76.65h-29.68c-6.58 0-11.92-5.34-11.92-11.92v-64.73M49.38 94.66c30.7 29.43 67.18 45.3 104.64 45.3v45.43c-37.46 0-73.94 15.87-104.64 45.3-3.36 3.22-8.94.86-8.94-3.8V98.45c0-4.65 5.58-7.01 8.94-3.79z"/><path class="st11" d="M194.04 185.39h-40.02v-45.43h40.02c12.55 0 22.72 10.17 22.72 22.72-.01 12.54-10.18 22.71-22.72 22.71zm-30.66 0c2.4 26.68-3.5 53.45-16.89 76.65h29.68c6.58 0 11.92-5.34 11.92-11.92v-64.73"/><circle class="st7" cx="225.52" cy="51.51" r="50.01"/><circle class="st7" cx="225.52" cy="328.39" r="50.01"/></g></svg>