<svg height="0" width="0"><defs><clipPath id="svgPath"><path id="Layer" fill-rule="evenodd" class="shp2" d="M2.8 4.2c0 1.77 1.43 3.2 3.2 3.2 1.77 0 3.2-1.43 3.2-3.2C9.2 2.43 7.77 1 6 1 4.23 1 2.8 2.43 2.8 4.2zm9.16 14.51l-2.4-9.6c-.03-.13-.08-.25-.15-.36a1.56 1.56 0 00-.27-.3c-.11-.08-.22-.14-.35-.19a1.32 1.32 0 00-.39-.06h-.57a4.41 4.41 0 01-3.66 0H3.6c-.13 0-.26.02-.39.06-.13.05-.24.11-.35.19-.1.09-.19.18-.27.3-.07.11-.12.23-.15.36l-2.4 9.6A1.2 1.2 0 001.2 20.2H4v5.2c0 .66.54 1.2 1.2 1.2h1.6c.66 0 1.2-.54 1.2-1.2v-5.2h2.8c.78 0 1.35-.73 1.16-1.49z"/><path id="Layer copy" fill-rule="evenodd" class="shp0" d="M26.8 4.2c0 1.77 1.43 3.2 3.2 3.2 1.77 0 3.2-1.43 3.2-3.2C33.2 2.43 31.77 1 30 1c-1.77 0-3.2 1.43-3.2 3.2zm9.16 14.51l-2.4-9.6c-.03-.13-.08-.25-.15-.36a1.56 1.56 0 00-.27-.3c-.11-.08-.22-.14-.35-.19a1.32 1.32 0 00-.39-.06h-.57a4.41 4.41 0 01-3.66 0h-.57c-.13 0-.26.02-.39.06-.13.05-.24.11-.35.19-.1.09-.19.18-.27.3-.07.11-.12.23-.15.36l-2.4 9.6a1.2 1.2 0 001.16 1.49H28v5.2c0 .66.54 1.2 1.2 1.2h1.6c.66 0 1.2-.54 1.2-1.2v-5.2h2.8c.78 0 1.35-.73 1.16-1.49z"/><path id="Layer copy 2" fill-rule="evenodd" class="shp0" d="M50.8 4.2c0 1.77 1.43 3.2 3.2 3.2 1.77 0 3.2-1.43 3.2-3.2C57.2 2.43 55.77 1 54 1c-1.77 0-3.2 1.43-3.2 3.2zm9.16 14.51l-2.4-9.6c-.03-.13-.08-.25-.15-.36a1.56 1.56 0 00-.27-.3c-.11-.08-.22-.14-.35-.19a1.32 1.32 0 00-.39-.06h-.57a4.41 4.41 0 01-3.66 0h-.57c-.13 0-.26.02-.39.06-.13.05-.24.11-.35.19-.1.09-.19.18-.27.3-.07.11-.12.23-.15.36l-2.4 9.6a1.2 1.2 0 001.16 1.49H52v5.2c0 .66.54 1.2 1.2 1.2h1.6c.66 0 1.2-.54 1.2-1.2v-5.2h2.8c.78 0 1.35-.73 1.16-1.49z"/><path id="Layer copy 3" fill-rule="evenodd" class="shp0" d="M74.8 4.2c0 1.77 1.43 3.2 3.2 3.2 1.77 0 3.2-1.43 3.2-3.2C81.2 2.43 79.77 1 78 1c-1.77 0-3.2 1.43-3.2 3.2zm9.16 14.51l-2.4-9.6c-.03-.13-.08-.25-.15-.36a1.56 1.56 0 00-.27-.3c-.11-.08-.22-.14-.35-.19a1.32 1.32 0 00-.39-.06h-.57a4.41 4.41 0 01-3.66 0h-.57c-.13 0-.26.02-.39.06-.13.05-.24.11-.35.19-.1.09-.19.18-.27.3-.07.11-.12.23-.15.36l-2.4 9.6a1.2 1.2 0 001.16 1.49H76v5.2c0 .66.54 1.2 1.2 1.2h1.6c.66 0 1.2-.54 1.2-1.2v-5.2h2.8c.78 0 1.35-.73 1.16-1.49z"/><path id="Layer copy 4" fill-rule="evenodd" class="shp0" d="M98.8 4.2c0 1.77 1.43 3.2 3.2 3.2 1.77 0 3.2-1.43 3.2-3.2 0-1.77-1.43-3.2-3.2-3.2-1.77 0-3.2 1.43-3.2 3.2zm9.16 14.51l-2.4-9.6c-.03-.13-.08-.25-.15-.36a1.56 1.56 0 00-.27-.3c-.11-.08-.22-.14-.35-.19a1.32 1.32 0 00-.39-.06h-.57a4.41 4.41 0 01-3.66 0h-.57c-.13 0-.26.02-.39.06-.13.05-.24.11-.35.19-.1.09-.19.18-.27.3-.07.11-.12.23-.15.36l-2.4 9.6a1.2 1.2 0 001.16 1.49h2.8v5.2c0 .66.54 1.2 1.2 1.2h1.6c.66 0 1.2-.54 1.2-1.2v-5.2h2.8c.78 0 1.35-.73 1.16-1.49z"/><path id="Layer copy 5" fill-rule="evenodd" class="shp0" d="M122.8 4.2c0 1.77 1.43 3.2 3.2 3.2 1.77 0 3.2-1.43 3.2-3.2 0-1.77-1.43-3.2-3.2-3.2-1.77 0-3.2 1.43-3.2 3.2zm9.16 14.51l-2.4-9.6c-.03-.13-.08-.25-.15-.36a1.56 1.56 0 00-.27-.3c-.11-.08-.22-.14-.35-.19a1.32 1.32 0 00-.39-.06h-.57a4.41 4.41 0 01-3.66 0h-.57c-.13 0-.26.02-.39.06-.13.05-.24.11-.35.19-.1.09-.19.18-.27.3-.07.11-.12.23-.15.36l-2.4 9.6a1.2 1.2 0 001.16 1.49h2.8v5.2c0 .66.54 1.2 1.2 1.2h1.6c.66 0 1.2-.54 1.2-1.2v-5.2h2.8c.78 0 1.35-.73 1.16-1.49z"/><path id="Layer copy 6" fill-rule="evenodd" class="shp0" d="M146.8 4.2c0 1.77 1.43 3.2 3.2 3.2 1.77 0 3.2-1.43 3.2-3.2 0-1.77-1.43-3.2-3.2-3.2-1.77 0-3.2 1.43-3.2 3.2zm9.16 14.51l-2.4-9.6c-.03-.13-.08-.25-.15-.36a1.56 1.56 0 00-.27-.3c-.11-.08-.22-.14-.35-.19a1.32 1.32 0 00-.39-.06h-.57a4.41 4.41 0 01-3.66 0h-.57c-.13 0-.26.02-.39.06-.13.05-.24.11-.35.19-.1.09-.19.18-.27.3-.07.11-.12.23-.15.36l-2.4 9.6a1.2 1.2 0 001.16 1.49h2.8v5.2c0 .66.54 1.2 1.2 1.2h1.6c.66 0 1.2-.54 1.2-1.2v-5.2h2.8c.78 0 1.35-.73 1.16-1.49z"/><path id="Layer copy 7" fill-rule="evenodd" class="shp0" d="M170.8 4.2c0 1.77 1.43 3.2 3.2 3.2 1.77 0 3.2-1.43 3.2-3.2 0-1.77-1.43-3.2-3.2-3.2-1.77 0-3.2 1.43-3.2 3.2zm9.16 14.51l-2.4-9.6c-.03-.13-.08-.25-.15-.36a1.56 1.56 0 00-.27-.3c-.11-.08-.22-.14-.35-.19a1.32 1.32 0 00-.39-.06h-.57a4.41 4.41 0 01-3.66 0h-.57c-.13 0-.26.02-.39.06-.13.05-.24.11-.35.19-.1.09-.19.18-.27.3-.07.11-.12.23-.15.36l-2.4 9.6a1.2 1.2 0 001.16 1.49h2.8v5.2c0 .66.54 1.2 1.2 1.2h1.6c.66 0 1.2-.54 1.2-1.2v-5.2h2.8c.78 0 1.35-.73 1.16-1.49z"/><path id="Layer copy 8" fill-rule="evenodd" class="shp0" d="M194.8 4.2c0 1.77 1.43 3.2 3.2 3.2 1.77 0 3.2-1.43 3.2-3.2 0-1.77-1.43-3.2-3.2-3.2-1.77 0-3.2 1.43-3.2 3.2zm9.16 14.51l-2.4-9.6c-.03-.13-.08-.25-.15-.36a1.56 1.56 0 00-.27-.3c-.11-.08-.22-.14-.35-.19a1.32 1.32 0 00-.39-.06h-.57a4.41 4.41 0 01-3.66 0h-.57c-.13 0-.26.02-.39.06-.13.05-.24.11-.35.19-.1.09-.19.18-.27.3-.07.11-.12.23-.15.36l-2.4 9.6a1.2 1.2 0 001.16 1.49h2.8v5.2c0 .66.54 1.2 1.2 1.2h1.6c.66 0 1.2-.54 1.2-1.2v-5.2h2.8c.78 0 1.35-.73 1.16-1.49z"/><path id="Layer copy 9" fill-rule="evenodd" class="shp0" d="M218.8 4.2c0 1.77 1.43 3.2 3.2 3.2 1.77 0 3.2-1.43 3.2-3.2 0-1.77-1.43-3.2-3.2-3.2-1.77 0-3.2 1.43-3.2 3.2zm9.16 14.51l-2.4-9.6c-.03-.13-.08-.25-.15-.36a1.56 1.56 0 00-.27-.3c-.11-.08-.22-.14-.35-.19a1.32 1.32 0 00-.39-.06h-.57a4.41 4.41 0 01-3.66 0h-.57c-.13 0-.26.02-.39.06-.13.05-.24.11-.35.19-.1.09-.19.18-.27.3-.07.11-.12.23-.15.36l-2.4 9.6a1.2 1.2 0 001.16 1.49h2.8v5.2c0 .66.54 1.2 1.2 1.2h1.6c.66 0 1.2-.54 1.2-1.2v-5.2h2.8c.78 0 1.35-.73 1.16-1.49z"/></clipPath></defs></svg>