<svg xmlns="http://www.w3.org/2000/svg" viewBox="0 0 410 168.28"><style>.st3{fill:#4066ff}.st5{fill:#2a2f41}</style><g id="Arte"><path d="M410 81.88h-93.82M410 96.77h-93.82M410 66.99h-93.82M93.82 81.88H0m93.82 14.89H0m93.82-29.78H0" fill="none" stroke="#4066ff" stroke-width="3" stroke-miterlimit="10"/><path d="M302.2 1.5H107.8c-7.72 0-13.98 5.83-13.98 13.02v139.25c0 7.19 6.26 13.02 13.98 13.02h194.4c7.72 0 13.98-5.83 13.98-13.02V14.52c0-7.19-6.26-13.02-13.98-13.02z" fill="none" stroke="#f2f2f2" stroke-width="3" stroke-miterlimit="10"/><path class="st3" d="M136.33 143.04h-7.68a7.37 7.37 0 0 1 0-14.74h7.68c4.07 0 7.37 3.3 7.37 7.37-.01 4.07-3.3 7.37-7.37 7.37zm0-34.35h-7.68a7.37 7.37 0 0 1 0-14.74h7.68c4.07 0 7.37 3.3 7.37 7.37-.01 4.07-3.3 7.37-7.37 7.37zm0-34.36h-7.68a7.37 7.37 0 0 1 0-14.74h7.68c4.07 0 7.37 3.3 7.37 7.37-.01 4.07-3.3 7.37-7.37 7.37zm0-34.36h-7.68a7.37 7.37 0 0 1 0-14.74h7.68a7.37 7.37 0 0 1 0 14.74z"/><path d="M247.61 143.04h-83.45a7.37 7.37 0 0 1 0-14.74h83.45a7.37 7.37 0 0 1 0 14.74zm0-34.35h-83.45a7.37 7.37 0 0 1 0-14.74h83.45a7.37 7.37 0 0 1 0 14.74zm0-34.36h-83.45a7.37 7.37 0 0 1 0-14.74h83.45a7.37 7.37 0 0 1 0 14.74zm0-34.36h-83.45a7.37 7.37 0 0 1 0-14.74h83.45a7.37 7.37 0 0 1 0 14.74z" fill="none" stroke="#e4ba80" stroke-width="3" stroke-miterlimit="10"/><circle class="st3" cx="285.11" cy="32.6" r="14.92"/><path class="st5" d="M281.88 40.86l-7.13-9.04 3.92-3.1 3.91 4.95 9.31-8.01 3.26 3.79z"/><circle class="st3" cx="285.11" cy="66.96" r="14.92"/><path class="st5" d="M281.88 75.22l-7.13-9.04 3.92-3.1 3.91 4.94 9.31-8 3.26 3.79z"/><circle class="st3" cx="285.11" cy="101.32" r="14.92"/><path class="st5" d="M281.88 109.57l-7.13-9.03 3.92-3.1 3.91 4.94 9.31-8 3.26 3.79z"/><circle class="st3" cx="285.11" cy="135.68" r="14.92"/><path class="st5" d="M281.88 143.93l-7.13-9.04 3.92-3.09 3.91 4.94 9.31-8 3.26 3.79z"/></g></svg>