<svg xmlns="http://www.w3.org/2000/svg" width="167" height="48"><g fill="none" fill-rule="evenodd"><path fill="#FFF" d="M72.037 28.087v7.136c1.377 0 2.756-.03 3.97-.03 3.543 0 4.264-2.036 4.264-3.539 0-1.474-.951-3.568-4.462-3.568h-3.772zm0-2.418h3.445c3.083 0 3.772-1.65 3.772-3.037 0-1.444-.623-3.036-3.707-3.036-.92 0-2.461 0-3.51-.03v6.103zm3.575-8.462c4.823 0 7.153 2.005 7.153 5.337 0 1.857-1.248 3.48-3.083 4.128 2.229.59 4.166 2.623 4.166 5.16 0 3.273-2.363 5.75-7.808 5.75-2.658 0-4.79-.06-7.251-.09l-.197-.206V17.502l.197-.206c2.395-.03 4.658-.089 6.823-.089zm14.298 9.642c1.279-.03 2.723-.06 3.642-.06 3.214 0 4.003-1.827 4.003-3.538 0-1.798-.79-3.567-4.003-3.567-.953 0-2.527 0-3.642-.029v7.194zm7.053 1.769c1.083.354 1.87 1.356 2.33 2.506l1.443 3.45c.328.796.722 1.591 1.476 2.123-.458.618-1.476.972-2.362.972-1.312 0-1.771-.648-2.295-1.917l-1.642-3.979c-.557-1.357-1.28-2.418-3.314-2.418h-2.69v8.108c-.523.088-1.181.118-1.737.118-.527 0-1.214-.03-1.707-.118V17.502l.197-.206c2.46-.03 4.823-.089 7.053-.089 4.56 0 7.447 2.123 7.447 6.044 0 2.713-1.805 4.689-4.2 5.367zm12.987 1.416c.525 0 1.411-.03 1.673-.03h3.28c.23 0 1.115.03 1.642.03l-1.51-4.275c-.59-1.71-1.279-3.775-1.739-5.337h-.163c-.329 1.326-.919 3.184-1.281 4.275l-1.902 5.337zm-.886 2.535l-1.739 4.924c-.426.089-.983.118-1.509.118-.624 0-1.246-.09-1.706-.206l-.098-.148 7.415-19.931c.524-.088 1.443-.118 2.001-.118.557 0 1.475.03 1.968.118l7.349 19.93c-.492.296-1.28.414-2.034.414-1.083 0-1.641-.355-2.067-1.651l-1.214-3.45c-.557 0-1.707.029-1.969.029h-4.494c-.263 0-1.345-.03-1.903-.03zm16.794.648c1.902 1.12 4.33 2.006 6.594 2.006 2.657 0 4.166-1.15 4.2-2.773 0-1.385-1.084-2.447-2.986-3.183l-3.87-1.504c-2.757-1.062-4.497-2.595-4.497-5.1 0-3.216 3.018-5.72 7.415-5.72 2.723 0 5.248.765 6.956 1.532-.034.885-.558 1.857-1.28 2.448-1.706-.768-3.937-1.387-5.61-1.387-2.428 0-3.937 1.21-3.937 2.773 0 1.297 1.116 2.033 2.723 2.653l3.806 1.474c2.821 1.061 4.921 2.86 4.921 5.484 0 3.391-2.625 5.926-8.039 5.926-2.723 0-5.675-.825-7.873-2.21.098-.915.754-1.889 1.477-2.419m18.511-15.891c.492-.088 1.214-.118 1.738-.118.527 0 1.214.03 1.74.118v20.138c-.526.088-1.213.118-1.74.118-.524 0-1.246-.03-1.738-.118V17.326zm22.115 17.424c0 .324-.033.855-.099 1.238-.196 1.003-1.017 1.504-2.263 1.504h-8.563c-1.18 0-2.034-.678-2.034-1.946V17.384l.23-.177h1.312c1.443 0 1.97.62 1.97 2.005v15.656a33.935 33.935 0 012.918-.118h6.53zM70.583 9.042c.49-.016 1.025-.03 1.248-.03 1.322 0 1.589-1.085 1.589-1.872 0-.802-.267-1.872-1.59-1.872-.37 0-.801 0-1.247-.016v3.79zm1.366 1.515h-1.366v3.373c-.312.06-.713.073-.995.073a5.98 5.98 0 01-.996-.073V3.857l.104-.088c1.189-.03 2.184-.06 3.253-.06 2.05 0 3.522 1.114 3.522 3.432 0 2.244-1.471 3.417-3.522 3.417zm6.39-.505c.208 0 .52-.015.668-.015h1.278c.133 0 .415.015.624.015l-.446-1.516a74.96 74.96 0 01-.803-2.88h-.09c-.147.755-.46 1.826-.652 2.51l-.58 1.886zm-.491 1.574l-.697 2.32c-.253.057-.55.073-.863.073-.311 0-.713-.045-.951-.134l-.073-.104 3.312-10c.327-.043.818-.073 1.159-.073.312 0 .833.03 1.145.09l3.253 9.998c-.282.163-.758.253-1.145.253-.637 0-.95-.224-1.188-1.07l-.416-1.353c-.222 0-.58.016-.728.016h-2.08c-.148 0-.49 0-.728-.016zm8.35-5.094c0-.402.015-.685.015-1.1h-.015c-.208 0-.684.014-.893.014h-1.648a4.258 4.258 0 01-.075-.831c0-.223.015-.535.075-.833h7.103c.058.209.102.52.102.773 0 .654-.341.89-1.069.89h-.698c-.209 0-.684-.013-.892-.013h-.014c0 .415.014.698.014 1.1v7.398c-.342.06-.713.074-1.01.074-.283 0-.654-.014-.995-.074V6.532zm7.918 1.96c.521-.03 1.085-.044 1.367-.044 1.293 0 1.589-.787 1.589-1.604 0-.832-.296-1.605-1.589-1.605-.357 0-.906 0-1.367-.016v3.269zm3.149 1.07c.536.194.892.699 1.1 1.307l.55 1.5c.148.417.372.818.698 1.086-.253.356-.802.595-1.322.595-.728 0-.981-.402-1.263-1.175l-.625-1.768c-.222-.594-.519-1.07-1.381-1.07h-.906v3.893c-.327.06-.714.074-.996.074-.252 0-.669-.014-.981-.074V3.857l.105-.09c1.188-.03 2.317-.058 3.388-.058 2.064 0 3.491 1.024 3.491 3.135 0 1.41-.892 2.377-1.858 2.718zm3.953-5.78c.298-.06.729-.073.995-.073.282 0 .669.014.995.073V13.93c-.326.06-.713.074-.995.074-.266 0-.697-.014-.995-.074V3.782zm6.551 6.27c.208 0 .52-.015.67-.015h1.276c.134 0 .416.015.624.015l-.446-1.516a74.968 74.968 0 01-.802-2.88h-.089c-.149.755-.46 1.826-.653 2.51l-.58 1.886zm-.49 1.574l-.698 2.32c-.253.057-.55.073-.863.073-.31 0-.713-.045-.95-.134l-.074-.104 3.312-10c.327-.043.818-.073 1.16-.073.312 0 .832.03 1.143.09l3.254 9.998c-.282.163-.758.253-1.144.253-.638 0-.95-.224-1.188-1.07l-.416-1.353c-.223 0-.58.016-.729.016h-2.08c-.148 0-.49 0-.727-.016zm13.045-1.574c.208 0 .52-.015.668-.015h1.278c.133 0 .415.015.624.015l-.446-1.516c-.252-.846-.58-1.99-.802-2.88h-.09c-.148.755-.46 1.826-.653 2.51l-.579 1.886zm-.491 1.574l-.697 2.32c-.253.057-.55.073-.863.073-.311 0-.713-.045-.951-.134l-.073-.104 3.312-10c.327-.043.818-.073 1.159-.073.312 0 .833.03 1.145.09l3.253 9.998c-.282.163-.758.253-1.145.253-.637 0-.95-.224-1.188-1.07l-.415-1.353c-.223 0-.58.016-.729.016h-2.08c-.148 0-.49 0-.728-.016zm8.231-7.829c.43-.074.995-.104 1.336-.104.357 0 .847.03 1.264.104l1.143 4.116c.105.415.476 1.946.565 2.54h.104c.09-.594.46-2.125.565-2.54l1.128-4.116a8.206 8.206 0 012.616 0l.787 10.104c-.282.073-.684.102-1.01.102-.312 0-.595-.014-.877-.059l-.282-4.769c-.06-.92-.118-2.288-.118-3.224h-.105l-1.739 6.463a8.015 8.015 0 01-1.024.074c-.268 0-.713-.029-1.01-.074l-1.739-6.463h-.104a79.72 79.72 0 01-.119 3.224l-.282 4.77a5.814 5.814 0 01-.892.058c-.312 0-.713-.029-.995-.102l.787-10.104zm13.743 6.255c.208 0 .52-.015.668-.015h1.278c.133 0 .415.015.624.015l-.446-1.516a74.96 74.96 0 01-.803-2.88h-.089c-.148.755-.46 1.826-.653 2.51l-.579 1.886zm-.49 1.574l-.698 2.32c-.253.057-.55.073-.863.073-.31 0-.713-.045-.95-.134l-.074-.104 3.312-10c.327-.043.818-.073 1.16-.073.311 0 .832.03 1.144.09l3.253 9.998c-.282.163-.758.253-1.145.253-.637 0-.95-.224-1.188-1.07l-.415-1.353c-.223 0-.58.016-.729.016h-2.08c-.148 0-.49 0-.728-.016zm11.335-6.343c-.564 0-1.025 0-1.62-.015v7.176c.595-.014 1.056-.014 1.62-.014 1.946 0 2.23-1.947 2.23-3.581s-.284-3.566-2.23-3.566m2.66 7.979c-.654.535-1.858.742-2.66.742-1.248 0-2.214-.03-3.506-.06l-.104-.088v-10l.104-.088a92.113 92.113 0 013.506-.06c.802 0 2.006.209 2.66.743 1.365 1.1 1.618 2.675 1.618 4.398 0 1.738-.237 3.313-1.619 4.413m5.378-3.21c.21 0 .521-.015.67-.015h1.276c.134 0 .416.015.624.015l-.445-1.516a74.96 74.96 0 01-.803-2.88h-.089c-.148.755-.46 1.826-.653 2.51l-.58 1.886zm-.49 1.574l-.698 2.32a4.04 4.04 0 01-.862.073c-.31 0-.713-.045-.95-.134l-.074-.104 3.312-10a10.26 10.26 0 011.16-.073c.311 0 .831.03 1.142.09l3.255 9.998c-.282.163-.758.253-1.145.253-.637 0-.95-.224-1.188-1.07l-.416-1.353c-.223 0-.579.016-.728.016h-2.08c-.148 0-.49 0-.728-.016zM81.498.307c.294.154.695.619.799 1.062l-2.461 1.462c-.248-.09-.475-.42-.55-.666L81.499.307zM71.047 43.639l1.135-.007c.51 0 .764.24.764.722v1.9a6.431 6.431 0 01-1.957.295 2.3 2.3 0 01-.921-.173 1.772 1.772 0 01-.67-.498 2.197 2.197 0 01-.41-.799 3.897 3.897 0 01-.136-1.072c0-.437.064-.819.19-1.144.129-.326.3-.596.514-.813.215-.217.46-.379.74-.487.279-.109.57-.162.874-.162.626 0 1.214.173 1.762.52a.754.754 0 01-.054.234c-.031.08-.07.156-.115.231-.046.074-.1.143-.16.202-.06.061-.121.113-.184.155-.4-.259-.804-.389-1.213-.389-.785 0-1.177.55-1.177 1.646 0 1.093.402 1.64 1.206 1.64a3.374 3.374 0 00.628-.059v-.483a6.315 6.315 0 01.014-.498h-.36c-.207 0-.351-.04-.43-.119-.08-.08-.12-.204-.12-.372 0-.145.027-.302.08-.47m6.363 1.459c.13.376.392.563.786.563a.736.736 0 00.48-.148c.124-.099.22-.224.29-.375.07-.152.116-.322.14-.51.025-.187.036-.373.036-.555 0-.169-.005-.357-.017-.564a2.367 2.367 0 00-.105-.58 1.1 1.1 0 00-.274-.456c-.126-.123-.31-.185-.55-.185-.23 0-.407.06-.53.177a1.098 1.098 0 00-.275.438 2.19 2.19 0 00-.112.552 6.749 6.749 0 00-.021.516c0 .222.01.42.032.592.022.174.06.351.12.535m-.586.996c-.515-.429-.772-1.134-.772-2.115 0-.424.049-.796.148-1.116.099-.32.24-.589.426-.805.185-.217.41-.38.675-.49a2.26 2.26 0 01.895-.167c.333 0 .633.054.9.166.267.11.493.275.678.494.186.22.328.49.427.808.099.321.147.691.147 1.11 0 .42-.048.788-.147 1.108-.1.321-.241.59-.427.805a1.759 1.759 0 01-.678.491 2.325 2.325 0 01-.9.166c-.548 0-1.006-.15-1.372-.455m8.479-.62l.945-3.965c.117-.029.266-.044.448-.044.251 0 .448.027.593.079l.043.059-1.35 4.838a7.89 7.89 0 01-.828.044c-.276 0-.477-.035-.599-.106-.123-.069-.216-.208-.278-.415l-1.2-4.354c.261-.111.475-.166.643-.166.203 0 .352.046.448.137.097.091.171.236.225.433l.556 2.059c.085.322.177.76.274 1.314.01.058.036.087.08.087m6.253-.491l-.007.52v.006c.221-.008.398-.014.532-.014h1.67c0 .178-.007.316-.02.412-.059.37-.305.556-.738.556h-1.919c-.208 0-.37-.06-.489-.18-.118-.121-.176-.284-.176-.491v-4.233l.05-.05h3.113c.03.14.044.29.044.454 0 .165-.035.335-.102.513H91.55l.007.52v.506c.125-.004.287-.007.49-.007h1.1c.042.134.063.289.063.462 0 .173-.02.332-.064.476h-1.589v.55zm6.622-2.658v1.423c.218 0 .402-.004.556-.011a.873.873 0 00.373-.087.52.52 0 00.213-.215.887.887 0 00.073-.398c0-.47-.227-.704-.68-.704h-.3c-.089 0-.168-.003-.235-.008m2.391.708c0 .159-.024.31-.072.45a1.416 1.416 0 01-.473.68c-.108.084-.22.148-.335.19.25.093.434.315.555.665l.217.615c.081.24.201.419.361.534a.8.8 0 01-.325.242 1.145 1.145 0 01-.476.098c-.174 0-.31-.05-.405-.15-.096-.097-.185-.27-.267-.515l-.26-.758a.784.784 0 00-.214-.332c-.09-.077-.221-.116-.4-.116h-.297v1.805c-.154.03-.347.044-.577.044-.232 0-.422-.014-.57-.044v-4.896l.05-.05 1.058-.023c.286-.003.511-.006.675-.006.264 0 .507.032.722.097a1.5 1.5 0 01.553.293c.151.13.27.293.353.49.085.198.127.427.127.687m7.265-1.575l.05.051v4.91c-.192.044-.42.065-.682.065a4.8 4.8 0 01-.697-.044l-1.134-2.585a13.27 13.27 0 01-.411-1.018l-.022.008c.058.702.086 1.423.086 2.16v1.435c-.148.03-.33.044-.541.044-.212 0-.39-.014-.534-.044v-4.91a2.87 2.87 0 01.66-.065c.258 0 .488.014.69.044l1.12 2.577c.202.476.352.843.447 1.1l.03-.016a23.925 23.925 0 01-.087-2.13v-.882c0-.25.05-.429.15-.538.103-.108.266-.162.492-.162h.383zm4.687 3.64c.13.376.392.563.786.563.198 0 .36-.049.481-.148a1.03 1.03 0 00.29-.375 1.77 1.77 0 00.14-.51c.024-.187.035-.373.035-.555 0-.169-.005-.357-.017-.564a2.367 2.367 0 00-.105-.58 1.09 1.09 0 00-.274-.456c-.126-.123-.309-.185-.55-.185-.23 0-.407.06-.53.177a1.098 1.098 0 00-.275.438 2.19 2.19 0 00-.112.552c-.015.195-.02.367-.02.516 0 .222.01.42.031.592.022.174.061.351.12.535m-.586.996c-.515-.429-.772-1.134-.772-2.115 0-.424.05-.796.148-1.116.1-.32.24-.589.426-.805.185-.217.41-.38.675-.49a2.26 2.26 0 01.895-.167c.333 0 .633.054.9.166.267.11.493.275.678.494.186.22.328.49.427.808.1.321.147.691.147 1.11 0 .42-.048.788-.147 1.108-.099.321-.24.59-.427.805-.185.217-.41.381-.678.491a2.325 2.325 0 01-.9.166c-.548 0-1.006-.15-1.372-.455m12.017-3.603l.008.563v.456h1.553c.038.144.057.3.057.472s-.02.329-.057.474h-1.553v1.985a3.167 3.167 0 01-.574.044 3.17 3.17 0 01-.575-.044v-4.888l.05-.043h3.092c.029.12.043.27.043.45s-.05.314-.148.4c-.1.088-.255.13-.467.13h-1.43zm6.341 2.492l-.007.52v.006c.22-.008.399-.014.532-.014h1.67c0 .178-.007.316-.021.412-.058.37-.304.556-.737.556h-1.92c-.207 0-.371-.06-.488-.18-.118-.121-.177-.284-.177-.491v-4.233l.05-.05h3.113c.029.14.044.29.044.454 0 .165-.035.335-.102.513h-1.964l.007.52v.506c.125-.004.288-.007.489-.007h1.1c.043.134.065.289.065.462 0 .173-.022.332-.065.476h-1.59v.55zm7.337.599c.636 0 .954-.535.954-1.603 0-1.073-.318-1.61-.954-1.61h-.408c-.117 0-.22-.003-.307-.008v3.228c.087-.004.19-.007.307-.007h.408zm1.329.541a1.465 1.465 0 01-.606.274 3.694 3.694 0 01-.831.087c-.15 0-.365-.002-.646-.007-.282-.005-.635-.012-1.058-.022l-.05-.05v-4.86l.05-.05a45.234 45.234 0 011.82-.03c.409 0 .75.066 1.025.195.275.13.493.308.657.535.164.227.28.492.347.797.067.306.1.636.1.986 0 .483-.055.898-.165 1.25-.111.352-.326.65-.643.895zm5.243-1.14l-.008.52v.006c.22-.008.399-.014.533-.014h1.67c0 .178-.007.316-.021.412-.058.37-.304.556-.737.556h-1.921c-.207 0-.37-.06-.488-.18-.118-.121-.176-.284-.176-.491v-4.233l.05-.05h3.113c.029.14.043.29.043.454 0 .165-.034.335-.101.513h-1.965l.008.52v.506c.124-.004.287-.007.488-.007h1.1c.044.134.065.289.065.462 0 .173-.021.332-.064.476h-1.59v.55zm6.622-2.658v1.423c.217 0 .402-.004.556-.011a.864.864 0 00.372-.087.508.508 0 00.213-.215.889.889 0 00.072-.398c0-.47-.227-.704-.679-.704h-.3c-.088 0-.167-.003-.234-.008m2.391.708a1.498 1.498 0 01-.264.834 1.39 1.39 0 01-.282.296c-.109.084-.22.148-.336.19.251.093.436.315.556.665l.217.615c.081.24.202.419.361.534a.8.8 0 01-.325.242 1.146 1.146 0 01-.477.098c-.173 0-.308-.05-.404-.15-.096-.097-.185-.27-.267-.515l-.26-.758a.784.784 0 00-.214-.332c-.089-.077-.222-.116-.4-.116h-.296v1.805a3.11 3.11 0 01-.578.044c-.231 0-.421-.014-.57-.044v-4.896l.05-.05 1.058-.023c.286-.003.512-.006.676-.006a2.5 2.5 0 01.721.097c.217.066.402.162.553.293.152.13.27.293.354.49.084.198.127.427.127.687m4.556 1.465l.288-.008h.527l.127.005.134.003-.123-.447c-.115-.404-.248-.9-.397-1.489h-.043c-.039.207-.155.667-.347 1.38l-.166.556zm.021.91a4.1 4.1 0 01-.289-.007l-.31 1.047c-.115.03-.276.044-.484.044-.23 0-.418-.027-.563-.08l-.036-.057 1.59-4.846c.186-.03.405-.044.656-.044.283 0 .51.017.68.051l1.558 4.852a1.16 1.16 0 01-.57.139c-.25 0-.426-.044-.527-.13-.1-.087-.188-.254-.26-.498l-.138-.478a3.76 3.76 0 01-.28.008h-1.027zm7.709.059h1.254c0 .191-.013.356-.036.493a.568.568 0 01-.232.355.828.828 0 01-.512.148h-1.632c-.207 0-.371-.06-.491-.18-.121-.122-.181-.285-.181-.492v-4.282l.05-.05h.424c.45 0 .674.244.674.736v3.3a7.68 7.68 0 01.682-.029"/><path fill="#231F20" d="M1.22 47.866h62.901V2.54H1.22z"/><path fill="#FFF" d="M2.274 46.495h60.438V3.717H2.274z"/><path fill="#FFF" d="M2.274 3.709V26.97L26.325 7.563l36.387 16.049V3.709z"/><path fill="#FFF" d="M2.274 44.261a.803.803 0 01-.8-.8v-16.49c0-.243.11-.472.298-.623L25.824 6.941a.79.79 0 01.825-.11l36.388 16.05a.798.798 0 01-.323 1.531h-.023a92.266 92.266 0 00-19.293 1.495.804.804 0 01-.627-.148 21.34 21.34 0 00-12.937-4.32c-10.63 0-19.57 7.605-21.256 18.084a.799.799 0 01-.348.54c-3.494 2.32-5.41 3.984-5.429 4.001a.798.798 0 01-.526.197"/><path fill="#231F20" d="M26.326 5.963c-.359 0-.716.121-1.005.354L1.269 25.725c-.376.303-.595.76-.595 1.245v16.491a1.6 1.6 0 002.653 1.205c.018-.015 1.904-1.652 5.345-3.938.372-.247.624-.638.694-1.078 1.624-10.089 10.231-17.412 20.467-17.412 4.535 0 8.843 1.438 12.456 4.16a1.602 1.602 0 001.253.294 91.56 91.56 0 0119.125-1.48l.046.001a1.6 1.6 0 00.645-3.064L26.971 6.099a1.624 1.624 0 00-.645-.136m-.001 1.6l36.388 16.05a92.78 92.78 0 00-19.461 1.506 22.234 22.234 0 00-13.419-4.48c-11.117 0-20.335 8.123-22.046 18.757-3.589 2.383-5.513 4.065-5.513 4.065v-16.49L26.325 7.562"/><path fill="#231F20" d="M43.261 25.12c-16.48 3.032-28.865 9.86-35.523 14.276-3.594 2.383-5.521 4.066-5.521 4.066V46.5s1.771-1.475 5.234-3.514c7.026-4.136 21.02-10.589 41.39-11.769a116.39 116.39 0 0113.913.04v-7.645a92.916 92.916 0 00-19.493 1.508"/></g></svg>