<svg xmlns="http://www.w3.org/2000/svg" viewBox="0 0 16 14" width="20" height="20"><style/><path id="Layer" fill-rule="evenodd" d="M14.45 1c.45.41.82.9 1.07 1.45.26.55.4 1.15.41 1.76a4.47 4.47 0 01-1.3 3.28l-6 6.25a.971.971 0 01-.69.28.986.986 0 01-.7-.28l-6-6.25C.82 7.05.5 6.53.28 5.96c-.21-.57-.3-1.17-.27-1.78A4.434 4.434 0 011.55 1c.41-.34.89-.6 1.4-.77C3.46.06 4-.01 4.54.03c.53.03 1.06.16 1.55.39.48.23.92.55 1.29.94L8 2l.62-.58c.36-.4.8-.72 1.29-.95.48-.24 1.01-.38 1.54-.41.54-.04 1.08.02 1.59.18s.99.42 1.41.76zm-2.94 5.75c0-.07-.01-.13-.04-.19a.386.386 0 00-.11-.17.478.478 0 00-.17-.1.406.406 0 00-.19-.04H8.75V4c0-.07-.01-.13-.04-.19a.478.478 0 00-.1-.17.386.386 0 00-.17-.11.406.406 0 00-.19-.04h-.5c-.07 0-.13.01-.19.04-.07.02-.12.06-.17.11-.04.05-.08.1-.1.17-.03.06-.04.12-.04.19v2.25H5c-.07 0-.13.01-.19.04-.07.02-.12.06-.17.1-.05.05-.09.1-.11.17-.03.06-.04.12-.04.19v.5c0 .07.02.13.04.19.03.06.07.12.11.17.05.04.11.08.17.11.06.02.12.04.19.04h2.25v2.23c0 .07.01.13.04.19.02.07.06.12.1.17.05.05.1.09.17.11.06.03.12.04.19.04h.5c.07 0 .13-.01.19-.04.06-.02.12-.06.16-.11.05-.04.09-.1.11-.16.03-.06.04-.12.04-.19V7.79h2.26c.07 0 .13-.01.19-.04.07-.02.12-.06.17-.1.05-.05.09-.1.11-.17.03-.06.04-.12.04-.19l-.01-.54z" fill="#693996"/></svg>