<svg xmlns="http://www.w3.org/2000/svg" viewBox="0 0 498.68 371.96"><style>.st3{fill:#4066ff}.st10,.st11,.st7{fill:none;stroke-width:3;stroke-miterlimit:10}.st7{stroke:#fff}.st10{stroke:#2a2f41}.st11{stroke:#f2f2f2;stroke-linecap:round;stroke-linejoin:round}</style><g id="Arte"><path d="M367.76 57.87h13.47c35.58 0 64.43 28.84 64.43 64.43v144.85m-392.51 0V122.3c0-35.58 28.84-64.43 64.43-64.43h17.48m18.13 260.93h-48.38m289.06 0h-48.39" fill="none" stroke="#e4ba80" stroke-width="3" stroke-miterlimit="10"/><path class="st11" d="M345.48 193.82h21.96c30.21 0 54.71-24.49 54.71-54.71 0-29.11-22.75-52.91-51.44-54.6a38.85 38.85 0 0 0 1.15-9.34c0-21.32-17.29-38.61-38.61-38.61a38.45 38.45 0 0 0-15.34 3.18C307.93 17.22 285.4 1.5 259.18 1.5c-26.85 0-49.84 16.49-59.43 39.88a52.907 52.907 0 0 0-22.12-4.82c-27.72 0-50.47 21.21-52.95 48.28-27.02 3.33-47.94 26.35-47.94 54.27 0 30.21 24.49 54.71 54.71 54.71h21.76"/><path class="st11" d="M336.4 158.11H162.27c-5.01 0-9.08-4.07-9.08-9.08v-22.9c0-5.01 4.07-9.08 9.08-9.08H336.4c5.01 0 9.08 4.07 9.08 9.08v22.9c0 5.02-4.06 9.08-9.08 9.08z"/><circle class="st3" cx="177.05" cy="137.58" r="7.44"/><circle class="st3" cx="205.03" cy="137.58" r="7.44"/><path class="st3" d="M323.46 142.05h-84.81c-2.3 0-4.17-1.87-4.17-4.17s1.87-4.17 4.17-4.17h84.81c2.3 0 4.17 1.87 4.17 4.17s-1.87 4.17-4.17 4.17z"/><path class="st11" d="M336.4 214.36H162.27c-5.01 0-9.08-4.07-9.08-9.08v-22.9c0-5.01 4.07-9.08 9.08-9.08H336.4c5.01 0 9.08 4.07 9.08 9.08v22.9a9.08 9.08 0 0 1-9.08 9.08z"/><circle class="st3" cx="177.05" cy="193.82" r="7.44"/><circle class="st3" cx="205.03" cy="193.82" r="7.44"/><path class="st3" d="M323.46 198.29h-84.81c-2.3 0-4.17-1.87-4.17-4.17s1.87-4.17 4.17-4.17h84.81c2.3 0 4.17 1.87 4.17 4.17s-1.87 4.17-4.17 4.17z"/><path class="st11" d="M336.4 270.6H162.27c-5.01 0-9.08-4.07-9.08-9.08v-22.9c0-5.01 4.07-9.08 9.08-9.08H336.4c5.01 0 9.08 4.07 9.08 9.08v22.9a9.08 9.08 0 0 1-9.08 9.08z"/><circle class="st3" cx="177.05" cy="250.06" r="7.44"/><circle class="st3" cx="205.03" cy="250.06" r="7.44"/><path class="st3" d="M323.46 254.53h-84.81c-2.3 0-4.17-1.87-4.17-4.17s1.87-4.17 4.17-4.17h84.81c2.3 0 4.17 1.87 4.17 4.17s-1.87 4.17-4.17 4.17z"/><path class="st11" d="M297.7 298.87h-96.73c-2.89 0-5.23 2.34-5.23 5.23v29.42c0 2.89 2.34 5.23 5.23 5.23h96.73c2.89 0 5.23-2.34 5.23-5.23V304.1c0-2.89-2.34-5.23-5.23-5.23zm5.23 9.61h32.23c5.7 0 10.32 4.62 10.32 10.32s-4.62 10.32-10.32 10.32h-32.23v-20.64z"/><path class="st11" d="M163.52 308.48h32.23v20.65h-32.23c-5.7 0-10.32-4.62-10.32-10.32-.01-5.71 4.62-10.33 10.32-10.33zm72.4-37.88h26.84v28.27h-26.84zm0-56.24h26.84v15.18h-26.84zm0-56.25h26.84v15.18h-26.84z"/><circle class="st3" cx="53.15" cy="318.8" r="41.82"/><circle class="st10" cx="53.15" cy="318.8" r="31.64"/><circle class="st10" cx="53.15" cy="318.8" r="26.16"/><circle class="st7" cx="53.15" cy="318.8" r="51.65"/><path id="Path_113_3_" class="st10" d="M67.74 316.68l-2.94-.83c-.3-.09-.55-.3-.67-.59l-.71-1.72c-.12-.29-.1-.62.05-.89l1.49-2.66c.22-.4.15-.9-.17-1.23l-1.6-1.6c-.32-.32-.83-.39-1.23-.17l-2.66 1.49c-.27.15-.6.17-.89.05l-1.72-.71c-.29-.12-.51-.37-.59-.67l-.83-2.94c-.12-.44-.53-.75-.99-.75h-2.26c-.46 0-.86.31-.99.75l-.83 2.94c-.09.3-.3.55-.59.67l-1.72.71c-.29.12-.62.1-.89-.05l-2.66-1.49c-.4-.22-.9-.15-1.23.17l-1.6 1.6c-.32.32-.39.83-.17 1.23l1.49 2.66c.15.27.17.6.05.89l-.71 1.72c-.12.29-.37.51-.67.59l-2.94.83c-.44.12-.75.53-.75.99v2.26c0 .46.31.86.75.99l2.94.83c.3.09.55.3.67.59l.71 1.72c.12.29.1.62-.05.89l-1.49 2.66c-.22.4-.15.9.17 1.23l1.6 1.6c.32.32.83.39 1.23.17l2.66-1.49c.27-.15.6-.17.89-.05l1.72.71c.29.12.51.37.59.67l.83 2.94c.12.44.53.75.99.75h2.26c.46 0 .86-.31.99-.75l.83-2.94c.09-.3.3-.55.59-.67l1.72-.71c.29-.12.62-.1.89.05l2.66 1.49c.4.22.9.16 1.23-.17l1.6-1.6c.32-.32.39-.83.17-1.23l-1.49-2.66c-.15-.27-.17-.6-.05-.89l.71-1.72c.12-.29.37-.51.67-.59l2.94-.83c.44-.12.75-.53.75-.99v-2.26c0-.46-.31-.86-.75-.99zm-14.59 9.79c-4.23 0-7.67-3.43-7.67-7.67 0-4.23 3.43-7.67 7.67-7.67 4.23 0 7.67 3.43 7.67 7.67s-3.43 7.67-7.67 7.67z"/><circle class="st3" cx="445.52" cy="318.8" r="41.82"/><circle class="st10" cx="445.52" cy="318.8" r="31.64"/><circle class="st10" cx="445.52" cy="318.8" r="26.16"/><circle class="st7" cx="445.52" cy="318.8" r="51.65"/><path class="st3" d="M277.66 311.14h-56.65c-4.23 0-7.67 3.43-7.67 7.67 0 4.23 3.43 7.67 7.67 7.67h56.65c4.23 0 7.67-3.43 7.67-7.67s-3.43-7.67-7.67-7.67z"/><path d="M439.2 312.99l-6.7 6.67 6.7 6.7-1.82 1.79-8.49-8.52 8.47-8.49 1.84 1.85zm3.62 15.5h-2.43l8.09-19.38h2.43l-8.09 19.38zm10.87-17.35l8.47 8.49-8.49 8.52-1.82-1.79 6.7-6.7-6.7-6.67 1.84-1.85z" fill="#2a2f41"/></g></svg>