<svg xmlns="http://www.w3.org/2000/svg" width="90" height="80"><g fill="none" fill-rule="evenodd"><rect width="85" height="77" y="3" fill="#E7E7E7" rx="5"/><rect width="85" height="77" x="5" fill="#FFF" rx="5"/><path fill="#696969" fill-rule="nonzero" d="M44.33 22.942c.621 0 1.217-.116 1.789-.35a4.59 4.59 0 001.505-.993 4.847 4.847 0 001.431-3.503c0-.747-.117-1.424-.351-2.032a4.572 4.572 0 00-.979-1.559 4.373 4.373 0 00-1.498-1.006 4.943 4.943 0 00-1.897-.357c-.684 0-1.312.119-1.883.357a4.404 4.404 0 00-1.485 1.006 4.572 4.572 0 00-.979 1.56c-.234.607-.351 1.284-.351 2.031 0 .72.117 1.377.351 1.971a4.54 4.54 0 00.979 1.532 4.37 4.37 0 001.485.992 4.902 4.902 0 001.883.351zM43.547 33c.288 0 .533-.056.736-.169.202-.112.371-.254.506-.425l14.823-19.075h-3.051c-.351 0-.626.065-.824.195-.198.13-.364.273-.499.425L40.415 33h3.132zm.783-12.663c-.216 0-.414-.036-.594-.108a1.05 1.05 0 01-.459-.364 1.958 1.958 0 01-.297-.689 4.544 4.544 0 01-.108-1.08c0-.459.036-.84.108-1.14.072-.302.171-.543.297-.723.126-.18.279-.306.459-.378.18-.072.378-.108.594-.108.216 0 .416.036.6.108.185.072.345.198.48.378s.24.42.317.722c.077.302.115.682.115 1.141 0 .432-.038.792-.115 1.08a1.883 1.883 0 01-.317.689 1.13 1.13 0 01-.48.364 1.638 1.638 0 01-.6.108zm11.313 12.906a4.68 4.68 0 001.789-.351 4.59 4.59 0 001.505-.992 4.885 4.885 0 001.431-3.517c0-.747-.117-1.424-.351-2.032a4.572 4.572 0 00-.979-1.559 4.373 4.373 0 00-1.498-1.006 4.943 4.943 0 00-1.897-.358c-.684 0-1.312.12-1.883.358a4.404 4.404 0 00-1.485 1.006 4.572 4.572 0 00-.979 1.56c-.234.607-.351 1.284-.351 2.031 0 .72.117 1.38.351 1.978.234.598.56 1.111.979 1.539a4.37 4.37 0 001.485.992 4.92 4.92 0 001.883.351zm0-2.619c-.216 0-.414-.036-.594-.108a1.05 1.05 0 01-.459-.364 1.958 1.958 0 01-.297-.689 4.544 4.544 0 01-.108-1.08c0-.45.036-.826.108-1.127.072-.302.171-.543.297-.723.126-.18.279-.306.459-.378.18-.072.378-.108.594-.108.216 0 .416.037.6.108.185.072.345.198.48.378s.24.421.317.723c.077.301.115.677.115 1.127 0 .432-.038.792-.115 1.08a1.883 1.883 0 01-.317.688 1.13 1.13 0 01-.48.365 1.638 1.638 0 01-.6.108z"/><g transform="translate(11.5 49)"><circle cx="2.5" cy="2.5" r="2.5" fill="#73C5C2"/><circle cx="10.5" cy="2.5" r="2.5" fill="#73C5C2"/><circle cx="17.5" cy="2.5" r="2.5" fill="#73C5C2"/><circle cx="25.5" cy="2.5" r="2.5" fill="#73C5C2"/><circle cx="32.5" cy="2.5" r="2.5" fill="#73C5C2"/><circle cx="40.5" cy="2.5" r="2.5" fill="#73C5C2"/><circle cx="47.5" cy="2.5" r="2.5" fill="#73C5C2"/><circle cx="55.5" cy="2.5" r="2.5" fill="#D8D8D8"/><circle cx="62.5" cy="2.5" r="2.5" fill="#D8D8D8"/><circle cx="70.5" cy="2.5" r="2.5" fill="#D8D8D8"/></g><path stroke="#D8D8D8" stroke-linecap="round" stroke-linejoin="round" stroke-width="2" d="M27 42.5h40M11.5 64h40m-40 6h40"/></g></svg>