<svg xmlns="http://www.w3.org/2000/svg" viewBox="0 0 1083.43 669.24"><style>.st0{fill:#2a2f41}.st1,.st5{fill:none;stroke:#e4ba80;stroke-width:3;stroke-linecap:round;stroke-linejoin:round;stroke-miterlimit:10}.st5{stroke:#f2f2f2}.st10{fill:#e4ba80}.st13{fill:none;stroke-width:3;stroke-miterlimit:10;stroke-linecap:round;stroke-linejoin:round;stroke:#2a2f41}.st30{fill:#214dff}.st33{fill:#fff}</style><g id="Art"><path class="st1" d="M806.03 215.33h57.12m145.53 0h33.53c21.94 0 39.72 17.78 39.72 39.72v231.22c0 21.94-17.78 39.72-39.72 39.72h-34.02m-145.52 0h-56.64m-255.61.42h-55.23m-151.9 0h-55.22M128.04 215.33H41.22c-21.94 0-39.72 17.78-39.72 39.72v348.06c0 21.94 17.78 39.72 39.72 39.72h546.04c21.94 0 39.72-17.78 39.72-39.72v-70.07m0-13.26V412.07"/><path class="st30" d="M592 519.78h11.24v13.26H592zm-23.45 0h11.24v13.26h-11.24z"/><path class="st13" d="M795.71 5.51H138.36c-5.7 0-10.32 4.62-10.32 10.32v385.93c0 5.7 4.62 10.32 10.32 10.32h657.35c5.7 0 10.32-4.62 10.32-10.32V15.82c0-5.69-4.62-10.31-10.32-10.31z"/><path transform="rotate(90 467.036 208.786)" class="st13" d="M278.76-115.2h376.56v647.98H278.76z"/><g id="XMLID_13_"><g id="XMLID_11_"><path class="st30" d="M403.05 104.92l-.01.01-59.73 74.31c-7-5.64-15.9-9.01-25.59-9.01-22.56 0-40.85 18.29-40.85 40.84 0 22.56 18.29 40.85 40.85 40.85 17.48 0 32.4-10.99 38.22-26.44l89.24 33.64c-19.41 51.51-69.16 88.14-127.46 88.14-75.22 0-136.19-60.97-136.19-136.19 0-75.21 60.97-136.19 136.19-136.19 32.3 0 61.98 11.25 85.33 30.04z"/><path class="st10" d="M358.56 211.07h95.35c0 16.91-3.08 33.11-8.73 48.05l-89.24-33.64c1.7-4.48 2.62-9.34 2.62-14.41z"/><path class="st33" d="M403.05 104.92c31.01 24.97 50.86 63.24 50.86 106.15h-95.35c0-12.86-5.95-24.34-15.25-31.83l59.73-74.31.01-.01z"/><path class="st13" d="M453.91 211.07c0-42.91-19.85-81.18-50.86-106.15-23.35-18.79-53.03-30.04-85.33-30.04-75.22 0-136.19 60.98-136.19 136.19 0 75.22 60.97 136.19 136.19 136.19 58.3 0 108.05-36.63 127.46-88.14 5.65-14.94 8.73-31.14 8.73-48.05z"/><path class="st13" d="M358.56 211.07c0-12.86-5.95-24.34-15.25-31.83-7-5.64-15.9-9.01-25.59-9.01-22.56 0-40.85 18.29-40.85 40.84 0 22.56 18.29 40.85 40.85 40.85 17.48 0 32.4-10.99 38.22-26.44 1.7-4.48 2.62-9.34 2.62-14.41zm0 0h95.35"/><path class="st13" d="M343.3 179.25l.01-.01 59.73-74.31m-47.1 120.55l89.24 33.64"/></g></g><path class="st30" d="M511.72 153.29h12.46v37.56h-12.46zm25.34-13.4h12.46v50.96h-12.46zm25.33-16.98h12.46v67.94h-12.46zm25.34-16.39h12.46v84.33h-12.46zm25.33 8.41h12.46v75.92h-12.46zm25.34 13.48h12.46v62.44H638.4zm25.33 14.7h12.46v47.74h-12.46zm25.34-10.24h12.46v57.99h-12.46zm25.33-13.25h12.46v71.23H714.4z"/><path class="st13" d="M736.55 190.85H502.04c-5.61 0-10.16-4.55-10.16-10.16V85.04c0-5.61 4.55-10.16 10.16-10.16h234.51c5.61 0 10.16 4.55 10.16 10.16v95.65c0 5.61-4.55 10.16-10.16 10.16zm-161.69 45.74h171.85"/><circle class="st30" cx="616" cy="236.59" r="10.97"/><path class="st13" d="M574.86 280.33h171.85"/><circle class="st30" cx="690.56" cy="280.33" r="10.97"/><circle class="st30" cx="502.38" cy="236.59" r="10.5"/><circle class="st30" cx="539.02" cy="280.33" r="10.5"/><path class="st13" d="M539.02 247.09h-36.65c-5.8 0-10.5-4.7-10.5-10.5s4.7-10.5 10.5-10.5h36.65c5.8 0 10.5 4.7 10.5 10.5s-4.7 10.5-10.5 10.5zm0 43.74h-36.65c-5.8 0-10.5-4.7-10.5-10.5s4.7-10.5 10.5-10.5h36.65c5.8 0 10.5 4.7 10.5 10.5s-4.7 10.5-10.5 10.5z"/><path class="st30" d="M506.08 322.67l-14.2 24.59h28.39zm43.44 24.59l14.2-24.59h-28.39z"/><circle class="st30" cx="606.25" cy="334.97" r="12.29"/><circle class="st0" cx="650.14" cy="334.97" r="12.29"/><circle class="st30" cx="694.02" cy="334.97" r="12.29"/><circle class="st0" cx="737.91" cy="334.97" r="12.29"/><path class="st30" d="M337.07 219.78v5.81c-12.89-4.72-25.83 4.72-38.73 0v-5.81c12.88 4.71 25.85-4.72 38.73 0zm-38.72-11.62v5.81c12.89 4.72 25.84-4.72 38.73 0v-5.81c-12.9-4.72-25.85 4.72-38.73 0zm0-11.62v5.81c12.89 4.72 25.84-4.72 38.73 0v-5.81c-12.9-4.72-25.85 4.72-38.73 0zm682.02 253.22c0-23.99-19.45-43.43-43.43-43.43-23.99 0-43.43 19.45-43.43 43.43h86.86z"/><path class="st5" d="M967.74 449.76c0-17.01-13.79-30.8-30.8-30.8s-30.8 13.79-30.8 30.8"/><path class="st5" d="M959.95 449.76c0-12.71-10.3-23.01-23.01-23.01s-23.01 10.3-23.01 23.01"/><path class="st1" d="M1000.87 595.29H869.98c-4.04 0-7.32-3.28-7.32-7.32V457.08c0-4.04 3.28-7.32 7.32-7.32h130.89c4.04 0 7.32 3.28 7.32 7.32v130.89c0 4.04-3.28 7.32-7.32 7.32z"/><circle class="st30" cx="935.43" cy="522.52" r="40.49"/><path d="M947.57 538.66c-2.37 2.43-5.66 3.82-9.42 4.22v5.26h-4.22v-5.21c-3.64-.29-7-1.5-9.83-4.11-2.31-2.08-4.04-5.26-4.11-8.9h7.11c.06 1.97.92 3.7 2.14 4.86 1.33 1.27 2.95 1.85 4.68 2.02v-11.45c-.92-.12-1.91-.23-2.83-.4-6.24-.98-10.06-4.97-10.06-10.87 0-3.07 1.45-5.61 3.53-7.63 2.26-2.26 5.49-3.82 9.36-4.16v-5.38h4.22v5.49c3.23.4 6.13 1.62 8.27 3.59 2.31 2.14 3.87 5.09 3.99 8.27h-7.11c-.06-1.39-.87-2.95-1.79-3.93-.81-.87-2.02-1.45-3.35-1.79v10.58l1.96.29c5.9.93 10.76 4.63 10.76 11.16 0 3.63-1.39 6.12-3.3 8.09zm-13.65-30.3c-1.56.23-3.12.81-4.28 1.91-.92.87-1.56 2.14-1.56 3.64 0 2.66 1.68 3.93 4.11 4.34.57.12 1.15.23 1.73.29v-10.18zm5.21 17.81l-.98-.17v10.75c1.68-.29 3.07-.87 4.11-1.91.92-.93 1.61-2.08 1.61-3.99 0-2.95-2.25-4.22-4.74-4.68z" fill="#f2f2f2"/><path class="st13" d="M997.97 331.14h-124.1c-5.92 0-10.71-4.8-10.71-10.71V85.11c0-5.92 4.8-10.71 10.71-10.71h124.1c5.92 0 10.71 4.8 10.71 10.71v235.32c0 5.91-4.8 10.71-10.71 10.71z"/><path transform="rotate(90 935.916 192.793)" class="st13" d="M832.52 135.03h206.79v115.52H832.52z"/><path class="st13" d="M878.15 208.79h115.53"/><path class="st30" d="M900.95 259.53h4v17.57h-4zm8.12-6.27h4v23.84h-4zm8.12-7.94h4v31.78h-4zm8.12-7.67h4v39.45h-4zm8.12 3.93h4v35.51h-4zm8.12 6.31h4v29.21h-4zm8.12 6.88h4v22.33h-4zm8.12-4.8h4v27.12h-4zm8.12-6.19h4v33.32h-4z"/><path class="st13" d="M973.01 277.1h-75.17a3.26 3.26 0 0 1-3.26-3.26v-43.69c0-1.8 1.46-3.26 3.26-3.26h75.17c1.8 0 3.26 1.46 3.26 3.26v43.69c0 1.8-1.46 3.26-3.26 3.26zm-11.63 41.5h-47.91c-2.5 0-4.53-2.03-4.53-4.53 0-2.5 2.03-4.53 4.53-4.53h47.91c2.5 0 4.53 2.03 4.53 4.53 0 2.5-2.03 4.53-4.53 4.53z"/><g id="XMLID_18_"><g id="XMLID_19_"><path class="st30" d="M961.02 115.84l-17.91 22.29c-2.1-1.69-4.77-2.7-7.67-2.7-6.77 0-12.25 5.48-12.25 12.25s5.48 12.25 12.25 12.25c5.24 0 9.72-3.3 11.46-7.93l26.76 10.09c-5.82 15.45-20.74 26.43-38.22 26.43-22.56 0-40.84-18.28-40.84-40.84 0-22.55 18.28-40.84 40.84-40.84 9.67-.01 18.57 3.37 25.58 9z"/><path class="st10" d="M947.68 147.67h28.59c0 5.07-.92 9.93-2.62 14.41l-26.76-10.09c.51-1.34.79-2.8.79-4.32z"/><path class="st33" d="M961.02 115.84c9.3 7.49 15.25 18.96 15.25 31.83h-28.59c0-3.86-1.78-7.3-4.57-9.55l17.91-22.28z"/><path class="st13" d="M976.27 147.67c0-12.87-5.95-24.34-15.25-31.83-7-5.63-15.9-9.01-25.59-9.01-22.56 0-40.84 18.29-40.84 40.84 0 22.56 18.28 40.84 40.84 40.84 17.48 0 32.4-10.98 38.22-26.43a40.76 40.76 0 0 0 2.62-14.41z"/><path class="st13" d="M947.68 147.67c0-3.86-1.78-7.3-4.57-9.55-2.1-1.69-4.77-2.7-7.67-2.7-6.77 0-12.25 5.48-12.25 12.25s5.48 12.25 12.25 12.25c5.24 0 9.72-3.3 11.46-7.93.5-1.34.78-2.8.78-4.32zm0 0h28.59m-33.17-9.54l17.91-22.29m-14.12 36.15l26.76 10.09"/></g></g><circle class="st13" cx="746.55" cy="526.41" r="59.47"/><ellipse transform="rotate(-76.714 746.621 526.426)" class="st30" cx="746.55" cy="526.41" rx="44.47" ry="44.47"/><path class="st13" d="M687.08 526.41c0-2.24.14-4.45.38-6.63H557.05c-3.66 0-6.63 2.97-6.63 6.63 0 3.66 2.97 6.63 6.63 6.63h130.41c-.25-2.18-.38-4.39-.38-6.63zm-406.17 68.88H135.2c-3.95 0-7.15-3.2-7.15-7.15V450.55c0-3.95 3.2-7.15 7.15-7.15h145.71c3.95 0 7.15 3.2 7.15 7.15v137.59c.01 3.94-3.2 7.15-7.15 7.15z"/><path class="st30" d="M265.45 487.59H150.66c-1.33 0-2.4-1.07-2.4-2.4v-22.36c0-1.33 1.07-2.4 2.4-2.4h114.78c1.33 0 2.4 1.07 2.4 2.4v22.36c.01 1.33-1.07 2.4-2.39 2.4z"/><path class="st13" d="M166.42 519.02h-16.25a1.9 1.9 0 0 1-1.9-1.9v-16.25c0-1.05.85-1.9 1.9-1.9h16.25c1.05 0 1.9.85 1.9 1.9v16.25a1.9 1.9 0 0 1-1.9 1.9zm33.17 0h-16.25a1.9 1.9 0 0 1-1.9-1.9v-16.25c0-1.05.85-1.9 1.9-1.9h16.25c1.05 0 1.9.85 1.9 1.9v16.25a1.9 1.9 0 0 1-1.9 1.9zm33.18 0h-16.25a1.9 1.9 0 0 1-1.9-1.9v-16.25c0-1.05.85-1.9 1.9-1.9h16.25c1.05 0 1.9.85 1.9 1.9v16.25a1.9 1.9 0 0 1-1.9 1.9zm33.18 0H249.7a1.9 1.9 0 0 1-1.9-1.9v-16.25c0-1.05.85-1.9 1.9-1.9h16.25c1.05 0 1.9.85 1.9 1.9v16.25a1.9 1.9 0 0 1-1.9 1.9zm-99.53 30.06h-16.25a1.9 1.9 0 0 1-1.9-1.9v-16.25c0-1.05.85-1.9 1.9-1.9h16.25c1.05 0 1.9.85 1.9 1.9v16.25c0 1.04-.85 1.9-1.9 1.9zm33.17 0h-16.25a1.9 1.9 0 0 1-1.9-1.9v-16.25c0-1.05.85-1.9 1.9-1.9h16.25c1.05 0 1.9.85 1.9 1.9v16.25c0 1.04-.85 1.9-1.9 1.9zm33.18 0h-16.25a1.9 1.9 0 0 1-1.9-1.9v-16.25c0-1.05.85-1.9 1.9-1.9h16.25c1.05 0 1.9.85 1.9 1.9v16.25c0 1.04-.85 1.9-1.9 1.9zm33.18 0H249.7a1.9 1.9 0 0 1-1.9-1.9v-16.25c0-1.05.85-1.9 1.9-1.9h16.25c1.05 0 1.9.85 1.9 1.9v16.25c0 1.04-.85 1.9-1.9 1.9zm-99.53 30.05h-16.25a1.9 1.9 0 0 1-1.9-1.9v-16.25c0-1.05.85-1.9 1.9-1.9h16.25c1.05 0 1.9.85 1.9 1.9v16.25a1.9 1.9 0 0 1-1.9 1.9zm33.17 0h-16.25a1.9 1.9 0 0 1-1.9-1.9v-16.25c0-1.05.85-1.9 1.9-1.9h16.25c1.05 0 1.9.85 1.9 1.9v16.25a1.9 1.9 0 0 1-1.9 1.9zm33.18 0h-16.25a1.9 1.9 0 0 1-1.9-1.9v-16.25c0-1.05.85-1.9 1.9-1.9h16.25c1.05 0 1.9.85 1.9 1.9v16.25a1.9 1.9 0 0 1-1.9 1.9zm33.18 0H249.7a1.9 1.9 0 0 1-1.9-1.9v-16.25c0-1.05.85-1.9 1.9-1.9h16.25c1.05 0 1.9.85 1.9 1.9v16.25a1.9 1.9 0 0 1-1.9 1.9z"/><circle class="st1" cx="419.24" cy="519.34" r="75.95"/><circle class="st13" cx="419.24" cy="519.34" r="60.95"/><path class="st30" d="M430.35 508.23c-6.13-6.13-16.08-6.13-22.22 0-6.13 6.13-6.13 16.08 0 22.22 6.13 6.13 16.08 6.13 22.22 0 6.13-6.14 6.13-16.08 0-22.22zm-7.71 14.51a4.804 4.804 0 0 1-6.8 0 4.804 4.804 0 0 1 0-6.8 4.804 4.804 0 0 1 6.8 0 4.804 4.804 0 0 1 0 6.8zm-17.16 10.36a19.401 19.401 0 0 1-3.82-5.46l-15.63 24.91 24.91-15.63c-1.97-.93-3.82-2.19-5.46-3.82zm22.06-31.34c1.97.93 3.83 2.19 5.46 3.82s2.89 3.49 3.82 5.46l15.63-24.91-24.91 15.63z"/><path d="M64.05 360.89v-42.7m21.35 21.35H42.71m703.84 329.7v-42.7m21.35 21.35h-42.69m210.71-605.2V0m21.34 21.35h-42.69M64.05 106.6V85.25m10.68 10.67H53.38m883.56 288.27v-21.35m10.67 10.67h-21.34M549.52 604.67v-21.34M560.2 594h-21.35" stroke="#214dff" fill="none" stroke-width="3" stroke-miterlimit="10"/></g></svg>