<?xml version="1.0" encoding="utf-8"?>
<!-- Generator: Adobe Illustrator 23.0.6, SVG Export Plug-In . SVG Version: 6.00 Build 0)  -->
<svg version="1.1" id="Layer_1" xmlns="http://www.w3.org/2000/svg" xmlns:xlink="http://www.w3.org/1999/xlink" x="0px" y="0px"
	 viewBox="0 0 29 24" style="enable-background:new 0 0 29 24;" xml:space="preserve">
<style type="text/css">
	.st0{enable-background:new    ;}
	.st1{fill:#FFFFFF;}
	.st2{fill-rule:evenodd;clip-rule:evenodd;fill:#0033FF;}
	.st3{fill:none;stroke:#0033FF;stroke-width:3;}
</style>
<g class="st0">
	<path class="st1" d="M19.3,12.8v9.6c0,0.4-0.2,0.8-0.5,1.1S18.1,24,17.7,24H1.6c-0.4,0-0.8-0.2-1.1-0.5S0,22.8,0,22.4v-9.6
		c0-0.4,0.2-0.8,0.5-1.1s0.7-0.5,1.1-0.5h0.5V7.9c0-2.1,0.7-3.8,2.2-5.3c1.5-1.5,3.2-2.2,5.3-2.2c2.1,0,3.8,0.7,5.3,2.2
		c1.5,1.5,2.2,3.2,2.2,5.3v3.2h0.5c0.4,0,0.8,0.2,1.1,0.5S19.3,12.3,19.3,12.8z M5.4,11.1h8.6V7.9c0-1.2-0.4-2.2-1.3-3
		c-0.8-0.8-1.8-1.3-3-1.3c-1.2,0-2.2,0.4-3,1.3s-1.3,1.8-1.3,3V11.1z"/>
</g>
<path class="st2" d="M9.5,13.5c-1.1,0-2,0.9-2,2c0,0.7,0.4,1.4,1,1.7v2.3c0,0.6,0.4,1,1,1s1-0.4,1-1v-2.3c0.6-0.3,1-1,1-1.7
	C11.5,14.4,10.6,13.5,9.5,13.5z"/>
<g class="st0">
	<path class="st1" d="M27.1,5c0,0.3-0.1,0.6-0.3,0.8l-8.1,8.1l-1.5,1.5c-0.2,0.2-0.5,0.3-0.8,0.3s-0.6-0.1-0.8-0.3l-1.5-1.5l-4-4
		C9.9,9.6,9.8,9.3,9.8,9c0-0.3,0.1-0.5,0.3-0.8l1.5-1.5c0.2-0.2,0.5-0.3,0.8-0.3c0.3,0,0.6,0.1,0.8,0.3l3.3,3.3l7.3-7.3
		c0.2-0.2,0.5-0.3,0.8-0.3c0.3,0,0.6,0.1,0.8,0.3l1.5,1.5C27,4.4,27.1,4.7,27.1,5z"/>
</g>
<g class="st0">
	<path class="st3" d="M27.1,5c0,0.3-0.1,0.6-0.3,0.8l-8.1,8.1l-1.5,1.5c-0.2,0.2-0.5,0.3-0.8,0.3s-0.6-0.1-0.8-0.3l-1.5-1.5l-4-4
		C9.9,9.6,9.8,9.3,9.8,9c0-0.3,0.1-0.5,0.3-0.8l1.5-1.5c0.2-0.2,0.5-0.3,0.8-0.3c0.3,0,0.6,0.1,0.8,0.3l3.3,3.3l7.3-7.3
		c0.2-0.2,0.5-0.3,0.8-0.3c0.3,0,0.6,0.1,0.8,0.3l1.5,1.5C27,4.4,27.1,4.7,27.1,5z"/>
</g>
</svg>
