<svg xmlns="http://www.w3.org/2000/svg" width="478" height="55" viewBox="0 0 478 55">
  <path d="M26.46 54.47c-.13 0-.26-.04-.37-.1a.702.702 0 0 1-.26-.28.671.671 0 0 1-.08-.37c0-.13.04-.25.11-.36l2-3-.44.23a.727.727 0 0 1-.89-.19.746.746 0 0 1 .01-.91l3-3.5L25 48.57a.7.7 0 0 1-.51.06.69.69 0 0 1-.42-.29.675.675 0 0 1-.12-.5c.02-.17.11-.33.24-.45l11-8.8-10.89 6.15c-.16.1-.35.13-.54.09a.736.736 0 0 1-.44-.31.729.729 0 0 1 .2-.99l16.36-11.92-13.4 7.51c-.16.1-.35.13-.54.09a.736.736 0 0 1-.44-.31.729.729 0 0 1 .2-.99l13.08-9.61-14.38 8.29c-.16.09-.35.12-.52.07a.72.72 0 0 1-.44-.3c-.1-.15-.13-.34-.1-.52s.12-.34.27-.45l14.22-10.68-15 8.66c-.16.09-.35.12-.52.07a.72.72 0 0 1-.44-.3.726.726 0 0 1-.1-.52c.03-.18.12-.34.27-.45l13.57-10.31-16.25 9.38c-.16.09-.34.11-.52.07a.75.75 0 0 1-.42-.3.763.763 0 0 1-.12-.51c.03-.18.12-.34.26-.45l12-9.39L17.85 28c-.16.09-.34.11-.52.07a.75.75 0 0 1-.42-.3.763.763 0 0 1-.12-.51c.03-.18.12-.34.26-.45l12.67-9.91-14.65 8.5a.726.726 0 0 1-.95-.2.717.717 0 0 1 .12-.97l9.48-8L8.36 25c-.16.09-.35.12-.52.07a.72.72 0 0 1-.44-.3.726.726 0 0 1-.1-.52c.03-.18.12-.34.27-.45l12.53-9.57-15.75 9c-.16.09-.34.11-.52.07a.75.75 0 0 1-.42-.3.763.763 0 0 1-.12-.51c.03-.18.12-.34.26-.45l10.14-8-12.48 7.13c-.16.11-.35.16-.54.13a.724.724 0 0 1-.46-.3.669.669 0 0 1-.13-.53c.03-.19.13-.36.29-.47l7.64-7L6 14.2c-.14.07-.3.09-.45.07a.726.726 0 0 1-.59-.63c-.02-.15.01-.31.09-.44l2.59-3.74-.72.42c-.17.09-.36.12-.55.07a.696.696 0 0 1-.43-.34.729.729 0 0 1-.08-.54c.05-.19.18-.34.34-.44l3.49-2c.14-.07.3-.09.45-.07a.726.726 0 0 1 .59.63c.02.15-.01.31-.09.44L8 11.39l4.87-2.76a.7.7 0 0 1 .51-.08c.17.04.33.14.43.28.11.15.15.32.14.5a.74.74 0 0 1-.24.46l-7.55 6.87L21.39 8c.16-.09.34-.11.52-.07.17.05.32.15.42.3.1.15.14.33.12.51-.03.18-.12.34-.26.45L12 17.21l16.72-9.54c.16-.09.35-.12.52-.07.18.04.34.15.44.3.1.15.13.34.1.52s-.12.34-.27.45l-12.4 9.45L29.82 11c.16-.08.33-.1.51-.06.17.04.32.14.42.28a.736.736 0 0 1-.11.95l-9.32 7.9 16.78-9.69c.16-.09.34-.11.52-.07.17.05.32.15.42.3.1.15.14.33.12.51-.03.18-.12.34-.26.45L26 21.64l12.63-7.25c.16-.09.34-.11.52-.07.17.05.32.15.42.3.1.15.14.33.12.51-.03.18-.12.34-.26.45l-11.89 9.3 17.33-10c.16-.09.35-.12.52-.07.18.04.34.15.44.3.1.15.13.34.1.52s-.12.34-.27.45L32 26.42l15.36-8.85c.16-.09.35-.12.52-.07.18.04.34.15.44.3.1.15.13.34.1.52s-.12.34-.27.45L33.91 29.45l15.34-8.84c.16-.09.35-.12.52-.07.18.04.34.15.44.3.1.15.13.34.1.52s-.12.34-.27.45l-14.1 10.37 13.76-7.71c.16-.1.35-.13.54-.09.18.04.34.16.44.31a.729.729 0 0 1-.2.99l-16 11.68 7.92-4.48c.16-.09.34-.11.52-.07.17.05.32.15.42.3.1.15.14.33.12.51-.03.18-.12.34-.26.45l-10.68 8.49c.15-.04.31-.04.45.01.15.06.27.15.36.28.08.13.12.28.12.44a.74.74 0 0 1-.17.42l-3.39 4c.14-.01.27.01.39.07.13.06.23.15.3.27.07.12.11.25.11.39 0 .13-.05.27-.12.38l-3.5 5.32c-.03.05-.07.1-.12.14-.04.04-.09.07-.14.1-.06.03-.11.05-.17.07-.06.01-.12.02-.18.02Z" class="shp0"/>
  <path d="M16 8.26c-.05 0-.1-.01-.16-.02a.578.578 0 0 1-.14-.05.573.573 0 0 1-.25-.19l-1.64-2-.22.13a.716.716 0 0 1-.96-.27.704.704 0 0 1-.08-.53c.04-.18.15-.34.31-.44l.75-.44c.07-.04.15-.07.24-.09.08-.01.17-.01.25 0 .08.02.16.04.24.09.07.04.14.09.19.16l1.65 2 3.62-2a.708.708 0 0 1 .93.31c.09.16.11.35.07.52-.05.18-.16.33-.31.43l-4.14 2.27c-.03.02-.05.03-.08.05l-.09.03-.09.03c-.03 0-.06.01-.09.01Zm19.87 34.19a.71.71 0 0 1-.44-.15.726.726 0 0 1-.26-.38.728.728 0 0 1 .03-.46c.06-.15.16-.27.3-.35l6.66-4c.16-.08.35-.1.52-.05.18.05.32.17.42.32.09.16.12.34.09.52-.04.18-.14.33-.29.44l-6.66 4c-.03.02-.06.03-.09.05l-.09.03c-.03.01-.06.02-.09.02-.03.01-.07.01-.1.01Z" class="shp0"/>
  <path fill-rule="evenodd" d="M296.73 12.8c0 .22 0 .44-.02.66-.02.22-.05.43-.08.65-.04.22-.09.43-.14.64-.06.21-.12.42-.2.63-.07.19-.15.37-.24.55-.09.17-.18.35-.29.51-.1.17-.22.33-.34.49-.12.16-.25.31-.39.45s-.28.28-.43.4c-.15.13-.31.25-.48.36-.16.11-.33.21-.5.3-.18.09-.36.18-.54.25-.4.15-.81.27-1.23.35-.42.07-.84.11-1.27.11-.43 0-.85-.04-1.27-.11-.42-.08-.83-.2-1.23-.35-.18-.07-.36-.16-.53-.25-.18-.09-.35-.19-.51-.3-.16-.11-.32-.23-.47-.36-.15-.12-.29-.26-.43-.4s-.27-.29-.39-.45c-.12-.16-.24-.32-.34-.49-.11-.16-.2-.34-.29-.51a5.38 5.38 0 0 1-.24-.55c-.15-.41-.26-.84-.33-1.27-.08-.43-.11-.87-.11-1.31 0-.43.03-.87.11-1.3.07-.43.18-.86.33-1.27.07-.19.15-.37.24-.54.09-.18.18-.35.29-.52.11-.17.22-.33.34-.49.12-.16.25-.31.39-.45s.28-.28.43-.4c.15-.13.31-.25.47-.36.16-.11.33-.22.51-.31.17-.09.35-.18.53-.25.4-.15.81-.27 1.23-.35a6.746 6.746 0 0 1 2.54 0c.42.08.83.2 1.23.35.18.07.36.15.53.25.17.09.34.19.5.3.16.1.31.22.46.34.15.13.29.26.43.4s.27.29.39.45c.12.16.23.32.34.49.11.17.2.34.29.52.09.17.17.35.24.54.08.21.15.42.21.63.06.21.11.43.14.65a7.467 7.467 0 0 1 .12 1.32Zm-1.74-.53a4.88 4.88 0 0 0-.06-.52 4.59 4.59 0 0 0-.1-.51 9.67 9.67 0 0 0-.14-.51c-.05-.14-.1-.28-.16-.42-.06-.14-.13-.27-.2-.4a4.982 4.982 0 0 0-.53-.73c-.1-.11-.2-.21-.3-.31-.11-.09-.22-.18-.34-.27a7.22 7.22 0 0 0-.36-.23c-.13-.07-.26-.13-.39-.19-.29-.11-.59-.2-.9-.25-.3-.06-.61-.09-.93-.09-.31 0-.62.03-.92.09-.31.05-.61.14-.9.25-.13.06-.26.12-.39.19s-.25.15-.37.23c-.11.09-.23.18-.33.27-.11.1-.21.2-.31.31-.1.11-.19.23-.28.35-.09.12-.17.25-.25.38-.07.13-.14.26-.2.4s-.11.28-.16.42c-.1.33-.18.68-.23 1.02-.06.35-.08.7-.08 1.04 0 .35.02.7.08 1.05.05.34.13.69.23 1.02.05.14.1.28.16.42.06.13.13.27.21.4.07.13.15.25.24.37s.18.24.28.35a4.533 4.533 0 0 0 .64.58c.12.08.24.16.37.23s.26.13.39.19a5.443 5.443 0 0 0 1.82.34 5.443 5.443 0 0 0 1.83-.34c.13-.06.26-.12.39-.19.12-.07.25-.15.36-.23.12-.08.23-.18.34-.27.1-.1.21-.2.3-.31.1-.11.19-.23.28-.35.09-.12.17-.24.24-.37.08-.13.15-.27.21-.4.06-.14.11-.28.16-.42.05-.17.1-.33.14-.5.04-.17.07-.34.1-.52.03-.17.05-.34.06-.52.01-.17.01-.35.01-.52 0-.18 0-.35-.01-.53Zm5.18-.79c.09-.1.18-.2.28-.29.1-.09.2-.18.31-.27.1-.08.21-.16.32-.23.12-.08.23-.15.35-.21.12-.07.25-.12.38-.17.13-.05.27-.09.41-.12.13-.04.27-.06.41-.07.14-.02.28-.02.42-.02.12 0 .24 0 .36.02.12.01.24.03.36.05.11.03.23.06.34.1.12.03.23.08.34.13.1.05.2.1.3.17.1.06.19.12.28.2.09.07.18.15.26.23.08.08.15.17.22.26.08.1.15.21.22.31.06.11.12.22.18.34.06.11.11.23.15.35.05.12.09.24.12.36.04.15.07.29.1.44.03.15.06.3.08.45a6.563 6.563 0 0 1 .05.91c0 .17 0 .34-.01.51-.01.16-.02.33-.05.5-.02.17-.05.33-.08.5-.03.16-.07.33-.12.49-.04.14-.08.27-.13.4s-.11.26-.17.39l-.21.36c-.07.12-.15.24-.24.35-.08.1-.16.21-.25.3-.1.1-.19.19-.29.27-.1.08-.21.16-.32.23a2.502 2.502 0 0 1-.72.35c-.13.05-.26.08-.4.11-.13.03-.26.05-.4.06-.14.02-.27.02-.41.02-.13 0-.25 0-.38-.01a2.5 2.5 0 0 1-.38-.06c-.12-.03-.24-.06-.36-.11a2.17 2.17 0 0 1-.35-.15 2.746 2.746 0 0 1-.55-.41 5.78 5.78 0 0 1-.24-.25l-.21-.27-.08.8c-.01.05-.02.09-.04.14-.02.04-.06.08-.09.11a.31.31 0 0 1-.13.06c-.04.02-.09.02-.14.02h-1V6.2h1.56l-.05 5.28Zm0 5.43c.06.09.12.17.19.25.07.07.15.15.23.21.08.07.16.14.25.19.09.06.18.11.27.16.09.04.18.08.27.11.09.03.18.05.28.07.09.02.19.04.28.05.1.01.19.01.29.01.18.01.37 0 .54-.04.18-.03.36-.09.52-.16.17-.08.33-.17.47-.29.14-.11.27-.24.38-.39a4.418 4.418 0 0 0 .54-1.26c.06-.22.09-.45.11-.67.02-.23.03-.46.01-.69.02-.21.02-.42 0-.62-.02-.21-.05-.42-.1-.62s-.12-.4-.2-.59c-.08-.19-.18-.37-.29-.55-.1-.13-.21-.24-.34-.34-.12-.1-.26-.18-.41-.25-.14-.06-.3-.11-.45-.14-.16-.03-.32-.04-.48-.03-.12 0-.23 0-.35.02-.11.01-.22.03-.33.06-.12.03-.23.07-.33.11-.11.05-.21.1-.31.16-.1.07-.19.14-.28.21l-.27.24-.24.27c-.07.09-.14.18-.21.28l-.04 4.24Z" class="shp0"/>
  <path d="M313.52 11.67c-.01.03-.03.06-.06.08-.02.03-.04.05-.07.06-.03.02-.06.03-.09.04-.03.01-.07.01-.1.01s-.05 0-.08-.01-.05-.01-.08-.02c-.02-.01-.05-.02-.07-.03-.02-.01-.05-.03-.07-.04l-.41-.21c-.05-.02-.09-.04-.14-.06-.05-.02-.09-.04-.14-.06-.05-.02-.1-.04-.14-.05-.05-.02-.1-.04-.15-.05-.06-.02-.13-.03-.19-.05l-.2-.03c-.07-.01-.13-.01-.2-.02h-.38c-.06.01-.12.01-.18.02l-.18.03c-.05.02-.11.03-.17.05-.05.01-.1.03-.14.05-.05.02-.1.04-.14.06-.05.02-.09.05-.13.07-.05.03-.09.06-.13.09-.04.03-.07.06-.1.09s-.06.06-.09.1a.7.7 0 0 0-.08.1c-.03.04-.05.08-.07.12-.02.04-.04.08-.05.12-.02.04-.03.08-.04.12-.01.04-.02.09-.02.13-.01.04-.01.09-.01.13a.757.757 0 0 0 .05.3c.01.05.04.1.06.14.03.05.06.09.09.13l.12.12c.04.03.08.07.12.1.04.03.09.06.14.09.04.03.09.06.14.08.06.03.12.06.18.08.06.03.12.06.18.08.06.03.12.05.18.07.06.02.13.04.19.06l.84.27a7.668 7.668 0 0 1 1.03.41c.07.03.13.07.19.1l.18.12c.06.04.11.09.17.13.05.04.11.09.15.14a1.92 1.92 0 0 1 .27.32c.03.06.07.12.1.18.03.07.06.14.09.22.03.07.05.15.06.22.02.08.03.16.04.24.01.07.01.15.01.23 0 .1 0 .19-.01.29a2.886 2.886 0 0 1-.11.57c-.03.09-.06.18-.1.27-.04.09-.08.17-.12.25l-.15.24c-.06.07-.12.15-.18.21-.06.07-.13.14-.2.2-.07.07-.15.13-.23.18-.08.06-.16.12-.24.17-.09.05-.17.09-.26.14a3.06 3.06 0 0 1-.62.21 4.402 4.402 0 0 1-.72.11c-.12.01-.24.01-.36.01-.14 0-.28 0-.43-.01-.14-.02-.28-.03-.42-.06-.14-.03-.28-.06-.42-.1-.13-.03-.27-.08-.4-.13-.12-.04-.23-.09-.34-.15-.11-.05-.22-.11-.33-.18-.11-.06-.21-.13-.31-.21-.1-.07-.2-.15-.29-.23l.37-.59c.01-.02.02-.03.03-.05.02-.02.03-.03.05-.04.01-.02.02-.03.04-.05.02-.01.03-.02.05-.03l.06-.03c.02-.01.04-.01.06-.02.02 0 .04-.01.06-.01h.06c.03 0 .06.01.09.01.03.01.06.01.08.02.03.02.06.03.09.04.02.02.05.03.07.05l.42.27c.05.03.1.05.15.08.05.02.1.05.15.07l.15.06c.05.02.11.04.16.06.07.02.14.04.22.06.07.01.15.03.22.04.07.01.15.01.22.02h.23c.07 0 .13 0 .2-.01.07 0 .13-.01.2-.02s.13-.02.2-.04c.06-.01.13-.03.19-.05l.15-.06c.05-.02.1-.04.15-.07.05-.03.1-.06.14-.09.05-.03.09-.06.13-.1.04-.03.07-.06.1-.1.04-.03.07-.07.1-.11.03-.04.05-.08.08-.12.02-.04.04-.09.06-.13.02-.04.03-.09.05-.14l.03-.13c.01-.05.02-.1.02-.15.01-.04.01-.09.01-.14 0-.05 0-.11-.01-.16a.75.75 0 0 0-.04-.16.395.395 0 0 0-.06-.15c-.03-.05-.06-.1-.09-.14-.04-.04-.07-.08-.11-.12-.04-.04-.09-.08-.13-.11-.04-.04-.09-.07-.14-.1a.638.638 0 0 0-.14-.08l-.18-.09c-.06-.03-.12-.05-.18-.08-.06-.02-.13-.05-.19-.07-.06-.02-.13-.04-.19-.06l-.85-.27c-.29-.09-.57-.2-.85-.32-.07-.03-.13-.06-.2-.09-.06-.04-.12-.07-.19-.11l-.18-.12c-.06-.04-.11-.08-.17-.13-.05-.05-.11-.09-.16-.15-.05-.05-.09-.1-.14-.16-.04-.05-.08-.11-.12-.17-.04-.06-.07-.13-.1-.19-.04-.08-.07-.16-.09-.24-.03-.08-.05-.16-.07-.25-.02-.08-.03-.17-.04-.25v-.26c0-.09 0-.17.01-.26.01-.08.02-.17.04-.25.02-.09.04-.17.07-.25.02-.08.05-.16.09-.24.04-.08.07-.15.12-.23.04-.07.09-.14.14-.21.05-.07.11-.14.17-.2.05-.06.12-.12.18-.18.07-.06.15-.12.23-.18l.24-.15c.09-.05.17-.09.26-.13.09-.04.18-.07.27-.1.11-.04.22-.07.32-.1.11-.02.22-.04.34-.06.11-.02.22-.03.33-.04.11-.01.23-.01.34-.01.13 0 .27 0 .4.01s.26.03.39.05c.13.02.26.05.39.09.13.03.26.07.38.12.11.04.22.09.33.14.1.06.21.11.31.18.1.06.19.13.29.2.09.07.18.15.27.23l-.37.65Z" class="shp0"/>
  <path fill-rule="evenodd" d="M323.09 17.8a2.59 2.59 0 0 1-.32.33l-.18.15c-.06.04-.12.09-.19.13l-.21.12c-.07.04-.14.08-.21.11-.07.04-.14.07-.22.1-.07.03-.14.06-.22.09-.08.03-.15.05-.23.08-.08.02-.16.05-.24.07-.08.02-.16.04-.24.05-.08.02-.16.04-.24.05-.08.01-.17.03-.25.04-.08.01-.16.02-.25.02-.08.01-.17.01-.25.02h-.25c-.14 0-.29 0-.43-.02-.15-.01-.29-.03-.43-.05-.14-.03-.28-.06-.42-.1a4.93 4.93 0 0 1-.41-.14c-.13-.05-.25-.11-.37-.17-.12-.06-.23-.14-.35-.21a3.833 3.833 0 0 1-.61-.53c-.1-.11-.19-.22-.28-.33l-.24-.36a4.761 4.761 0 0 1-.36-.79c-.05-.16-.1-.32-.14-.49-.04-.16-.07-.33-.1-.5-.03-.16-.04-.33-.06-.5-.01-.17-.01-.34-.01-.51 0-.15 0-.29.01-.44.02-.15.03-.29.06-.44.02-.14.05-.29.08-.43.04-.14.08-.28.13-.42.04-.13.09-.25.15-.38.06-.12.12-.24.19-.36.07-.11.14-.23.22-.34.08-.1.17-.21.26-.31s.19-.19.29-.28c.1-.09.2-.17.31-.25.11-.08.22-.15.34-.21a3.523 3.523 0 0 1 .78-.33c.14-.05.28-.08.43-.11.14-.03.29-.05.44-.06.14-.02.29-.02.44-.02.13 0 .25 0 .38.02.12.01.24.02.37.05.12.02.24.05.36.08s.24.07.36.12c.11.04.22.09.32.14.11.06.21.12.31.18.09.07.19.14.28.21.09.08.18.16.26.24.08.09.16.18.24.28.08.09.15.2.21.3.06.1.12.21.18.32.05.11.1.22.14.34.05.13.09.27.13.41l.09.42c.02.14.04.28.05.42.01.14.01.29.01.43v.13c0 .04 0 .08-.01.12l-.03.12c-.01.04-.02.08-.04.12l-.06.06c-.02.01-.05.03-.07.04-.03.01-.06.02-.09.02H317c0 .12.01.25.02.37s.02.25.04.37.05.24.07.36c.03.12.06.24.1.36.03.09.07.18.1.27.04.09.09.17.14.26.04.08.1.16.15.24.06.08.12.16.18.23s.12.13.19.19.14.12.21.17c.07.05.15.1.23.14.08.05.16.09.24.12.09.04.18.07.27.09.1.03.19.05.28.07.1.02.2.03.29.04.1.01.19.01.29.01.08 0 .17 0 .25-.01.09 0 .17-.01.26-.02.08-.01.16-.03.24-.05.09-.01.17-.04.25-.06.06-.02.12-.04.19-.06.06-.02.12-.05.18-.07.06-.02.12-.05.18-.08.06-.02.12-.05.18-.08.04-.02.09-.04.13-.07.04-.02.09-.04.13-.07.04-.02.08-.05.13-.07.04-.03.08-.05.12-.08.03-.02.05-.04.08-.05.03-.02.06-.03.09-.04l.09-.03c.03 0 .06-.01.09-.01s.06 0 .09.01c.03 0 .05.01.08.03.03.01.05.02.07.04.02.02.04.05.06.07l.4.56Zm-1.25-4.14c0-.08 0-.17-.01-.25 0-.09-.01-.17-.02-.26-.02-.08-.03-.16-.05-.25-.02-.08-.04-.16-.07-.24-.02-.07-.05-.14-.08-.21-.03-.07-.07-.14-.11-.2a.76.76 0 0 0-.12-.19c-.04-.06-.09-.12-.14-.18-.05-.05-.1-.11-.16-.16-.05-.05-.11-.09-.17-.13a1.865 1.865 0 0 0-.38-.22c-.23-.09-.46-.14-.7-.17-.24-.02-.49-.01-.72.03-.24.04-.47.11-.69.22-.22.1-.43.23-.61.39a2.95 2.95 0 0 0-.55.83c-.07.16-.13.31-.17.48-.05.16-.07.32-.09.49l4.84.02Z" class="shp0"/>
  <path d="M326.6 12c.06-.13.12-.27.19-.39.07-.13.15-.26.23-.37.09-.12.18-.24.27-.35.1-.11.2-.21.31-.31.1-.09.21-.16.33-.23.12-.06.24-.12.37-.16.13-.04.26-.08.39-.1.13-.02.27-.02.4-.02h.14c.04.01.09.01.13.01.05.01.09.02.14.02l.13.03.12.03c.04.01.08.03.12.04.04.02.07.04.11.06.04.02.07.04.11.06l-.09 1.15c0 .03-.01.06-.03.09-.01.03-.03.05-.06.07-.02.02-.05.04-.08.05-.03.01-.06.01-.09.01s-.06 0-.09-.01c-.03 0-.06 0-.09-.01-.03 0-.06 0-.09-.01s-.06-.01-.09-.02a.585.585 0 0 0-.13-.02c-.05-.01-.09-.02-.13-.02-.05 0-.09-.01-.14-.01h-.32l-.19.03-.19.03-.18.06c-.05.02-.11.04-.16.07-.05.02-.1.05-.15.08-.05.03-.09.06-.14.1-.04.03-.09.07-.13.11-.05.04-.09.09-.13.13l-.12.15c-.04.05-.08.1-.11.15-.04.05-.07.11-.1.16-.04.06-.07.13-.11.2-.03.06-.06.13-.09.2-.03.06-.06.13-.09.2s-.06.14-.08.21V19h-1.56v-8.79h.96c.03 0 .06.01.09.02.03 0 .06.02.09.03.03.01.06.03.08.05.02.02.04.05.05.07.02.03.03.06.04.08l.03.09c0 .03.01.06.01.09l.12 1.36Zm12.4-1.79L335.44 19H334l-3.6-8.83h1.26c.03 0 .06 0 .08.01.03 0 .06.01.08.01.03.01.06.02.08.04.02.01.05.02.07.04.02.01.04.03.05.05.02.01.04.03.05.05.02.02.03.04.04.06.01.03.02.05.03.07l2.24 5.68c.07.21.13.42.18.63.05.21.1.41.15.61.05-.21.1-.41.15-.61.05-.2.12-.41.19-.63l2.27-5.68c.01-.02.02-.04.03-.07a.21.21 0 0 1 .04-.06c.01-.02.03-.03.05-.05a.12.12 0 0 1 .05-.05c.02-.02.04-.03.07-.04.02-.01.04-.02.07-.03.02-.01.05-.01.07-.02h.08l1.22.03Z" class="shp0"/>
  <path fill-rule="evenodd" d="M340.06 11.46c.11-.11.23-.22.36-.32.12-.1.25-.19.38-.28.13-.09.27-.17.41-.25.14-.07.28-.14.43-.2.15-.06.3-.11.45-.16.16-.04.31-.08.47-.11.15-.03.31-.05.47-.06.16-.02.32-.02.48-.02a3.86 3.86 0 0 1 .67.05c.11.02.22.05.33.08.11.03.22.07.32.11.09.04.19.08.28.13.09.04.17.1.26.15.08.06.16.12.24.19.08.06.15.14.22.21.07.08.13.16.19.24.06.08.11.17.16.25.05.09.09.18.13.28.04.09.08.18.11.28l.09.33c.03.12.05.23.06.34a4.165 4.165 0 0 1 .05.69V19h-.78c-.03 0-.06-.01-.09-.01a.292.292 0 0 0-.09-.02c-.03-.01-.05-.03-.08-.04-.02-.02-.05-.04-.07-.06-.02-.02-.03-.04-.05-.07-.02-.02-.03-.05-.04-.08a.689.689 0 0 1-.03-.08l-.17-.84c-.05.05-.11.1-.16.15l-.17.14a11.84 11.84 0 0 1-.35.28c-.05.04-.11.08-.17.12-.05.04-.11.07-.17.11-.06.03-.12.07-.18.1l-.18.09c-.06.03-.13.06-.19.08-.06.03-.13.05-.19.07l-.2.06c-.07.02-.13.04-.2.05-.08.02-.15.03-.23.04l-.23.03c-.07.01-.15.01-.23.02h-.23c-.08 0-.17 0-.25-.01-.09 0-.17-.01-.26-.02-.08-.01-.16-.03-.24-.05-.09-.01-.17-.04-.25-.06-.07-.02-.14-.05-.21-.08l-.21-.09c-.06-.04-.13-.08-.19-.12-.06-.05-.12-.09-.18-.14-.06-.05-.11-.1-.16-.16-.05-.05-.1-.11-.15-.17-.04-.07-.08-.13-.12-.2-.04-.06-.07-.13-.1-.2l-.09-.24-.06-.25c-.02-.08-.03-.17-.04-.25-.01-.09-.01-.17-.01-.26s.01-.18.02-.26c.01-.09.03-.18.06-.26.02-.08.05-.17.09-.25.03-.08.07-.16.12-.23a2.39 2.39 0 0 1 .66-.69c.09-.06.18-.12.27-.17.13-.07.27-.14.4-.2.14-.06.28-.12.42-.17.14-.05.28-.1.42-.14.15-.04.29-.08.44-.11.21-.04.42-.08.63-.11.21-.04.42-.07.63-.09.22-.02.43-.04.64-.05.21-.01.43-.02.64-.02v-.69c.01-.14.01-.28 0-.41-.02-.14-.04-.28-.08-.41a3.12 3.12 0 0 0-.15-.39c-.06-.12-.13-.24-.21-.35-.08-.09-.17-.17-.27-.24-.1-.07-.21-.13-.32-.18-.11-.04-.23-.07-.35-.09-.12-.02-.24-.03-.36-.02h-.25c-.09 0-.17.01-.26.02-.08.02-.16.03-.25.05a2.172 2.172 0 0 0-.41.14c-.06.02-.12.05-.17.07-.06.03-.11.06-.17.09-.05.03-.11.06-.16.09l-.49.32-.09.06c-.04.02-.07.03-.1.04l-.11.03c-.04.01-.07.01-.11.01h-.07c-.03-.01-.05-.01-.07-.02-.02-.01-.05-.01-.07-.02-.02-.01-.04-.03-.06-.04a.12.12 0 0 1-.05-.05.12.12 0 0 1-.05-.05.12.12 0 0 1-.05-.05c-.01-.02-.03-.04-.04-.06l-.23-.48Zm5 3.61c-.15 0-.31.01-.46.02l-.46.03c-.15.02-.3.03-.46.05-.15.02-.3.05-.45.07l-.32.06c-.1.02-.2.05-.31.08l-.3.09-.3.12c-.07.03-.13.06-.2.09l-.18.12c-.06.04-.11.09-.16.14-.06.05-.1.1-.15.16-.03.05-.07.1-.09.15-.03.05-.05.11-.07.16-.02.06-.03.12-.04.17-.01.06-.01.12-.01.18v.15c.01.05.01.11.02.16s.02.1.04.15c.01.04.03.09.05.14l.06.12c.02.03.04.07.07.1.03.04.06.07.09.1.02.03.06.06.09.09l.11.08.12.06c.04.02.08.04.12.05.04.02.09.03.13.04l.14.03c.05.01.09.02.14.02.05.01.1.01.15.02h.33c.06-.01.12-.01.19-.02.06 0 .12-.01.18-.02.07-.01.13-.03.19-.04.06-.01.11-.03.17-.05.05-.01.1-.03.16-.05.05-.02.1-.04.16-.07.05-.02.1-.04.15-.07.05-.03.1-.05.15-.08l.15-.09c.05-.03.09-.06.14-.1.05-.03.09-.06.14-.1.05-.04.1-.08.14-.12.05-.04.09-.08.14-.12.04-.04.09-.08.13-.13.05-.04.09-.09.13-.13l-.02-1.81Z" class="shp0"/>
  <path d="M351.55 19.18c-.15.01-.29 0-.44-.02-.14-.02-.29-.05-.43-.1-.13-.05-.27-.11-.39-.19-.13-.08-.24-.17-.35-.27-.1-.11-.19-.24-.26-.37-.08-.13-.14-.27-.19-.41-.04-.15-.08-.3-.1-.45-.02-.15-.02-.3-.01-.45v-5.4h-1.12c-.03-.01-.05-.01-.07-.02-.02 0-.04-.01-.06-.02-.02-.01-.03-.03-.05-.04l-.05-.05c-.01-.02-.02-.05-.03-.07-.01-.02-.01-.04-.02-.07v-.69l1.45-.18.36-2.73c0-.02.01-.04.02-.06 0-.02.01-.04.02-.06.01-.01.02-.03.04-.05.01-.01.02-.03.04-.04.02-.01.03-.03.05-.04.02-.01.04-.02.06-.02.02-.01.04-.01.07-.02h.84v3h2.55v1.13h-2.55v5.3a.81.81 0 0 0 0 .22c.01.08.03.15.05.22.02.07.05.14.09.21.04.06.08.12.13.18.05.05.1.09.15.12.05.04.11.06.17.09.06.02.12.04.19.05.06.01.13.01.19.01h.11c.03-.01.07-.01.1-.02.04 0 .07-.01.11-.02l.1-.03c.03-.01.05-.02.08-.03.03-.01.05-.02.08-.03.02-.01.05-.03.07-.04.03-.01.06-.03.08-.04l.22-.14c.01-.01.02-.02.04-.03.01 0 .02-.01.03-.02.02 0 .03-.01.05-.01.01-.01.03-.01.04-.01.02 0 .05.01.07.01.02.01.04.02.06.04.02.01.04.02.05.04.02.02.03.04.04.06l.45.74c-.07.07-.15.13-.23.18-.07.06-.16.12-.24.17-.08.05-.17.09-.26.13-.09.04-.18.08-.27.11-.09.04-.18.07-.27.09-.1.03-.19.06-.28.08-.1.01-.19.03-.29.04-.1.01-.19.02-.29.02Z" class="shp0"/>
  <path fill-rule="evenodd" d="M358.76 10.07c.15 0 .3 0 .44.01l.45.06c.14.03.29.06.43.11.14.04.28.08.42.14.13.05.25.11.37.17.12.07.23.14.35.22.11.07.21.16.32.25.1.09.2.18.29.28.09.1.18.21.26.32.09.11.16.23.23.35.08.12.14.24.2.37.05.13.11.26.15.39a5.987 5.987 0 0 1 .29 1.88 5.987 5.987 0 0 1-.29 1.88c-.04.13-.1.26-.15.39-.06.13-.12.25-.2.37-.07.12-.14.24-.23.35-.08.11-.17.22-.26.32s-.19.19-.29.28c-.11.09-.21.17-.32.25-.12.07-.23.15-.35.21-.12.06-.24.12-.37.17-.14.05-.28.1-.42.14-.14.04-.29.08-.43.11-.15.02-.3.04-.45.05-.14.02-.29.02-.44.02-.15 0-.3 0-.45-.01l-.45-.06c-.14-.03-.29-.06-.43-.11-.15-.04-.29-.08-.43-.14a4.17 4.17 0 0 1-.37-.17 3.24 3.24 0 0 1-.35-.21c-.11-.08-.21-.16-.32-.25-.1-.09-.2-.18-.29-.28-.09-.1-.18-.21-.27-.32-.08-.11-.15-.23-.22-.35-.08-.12-.14-.24-.2-.37-.05-.13-.11-.26-.15-.39a5.987 5.987 0 0 1-.29-1.88 5.987 5.987 0 0 1 .29-1.88c.04-.13.1-.26.15-.39.06-.13.12-.25.2-.37.07-.12.14-.24.22-.35.09-.11.18-.22.27-.32.09-.1.19-.19.29-.28.11-.09.21-.18.32-.25.12-.08.23-.15.35-.22.12-.06.24-.12.37-.17.14-.06.28-.1.43-.14.14-.05.29-.08.43-.11l.45-.06c.15-.01.3-.01.45-.01Zm0 7.88c.19.02.38.01.57-.02.19-.03.37-.09.54-.16.18-.08.34-.18.49-.3.15-.11.28-.25.4-.4.12-.18.22-.37.3-.57.09-.19.16-.4.22-.6.05-.21.09-.42.11-.64.02-.21.02-.43.01-.64.01-.22.01-.43-.01-.65-.02-.21-.06-.42-.11-.63a4.44 4.44 0 0 0-.22-.61c-.08-.2-.18-.39-.3-.57-.12-.15-.25-.29-.4-.41-.15-.11-.31-.21-.49-.29a2.41 2.41 0 0 0-.54-.16 2.18 2.18 0 0 0-.57-.02c-.1 0-.2 0-.3.01-.1.01-.2.02-.29.04-.1.02-.2.05-.29.08-.1.03-.19.06-.28.1-.08.04-.16.08-.23.12-.08.05-.15.1-.22.15-.07.06-.13.12-.2.18-.06.06-.12.13-.17.2-.06.08-.11.16-.16.24-.05.09-.1.17-.14.26-.04.09-.08.18-.11.27a4.333 4.333 0 0 0-.15.63c-.02.11-.04.23-.05.35-.02.12-.03.24-.03.35-.01.12-.01.24-.01.36-.01.21-.01.43.01.64.02.22.06.43.12.64.05.21.12.41.21.61.09.19.19.38.31.56.11.15.24.29.39.41.15.12.31.22.48.31.17.08.36.14.54.17.19.04.38.05.57.04v-.05Zm2.55-11.54-2 2.25c-.02.02-.03.04-.05.06-.02.01-.04.03-.06.05-.02.01-.04.03-.06.04-.03.01-.05.03-.07.04-.02.01-.05.02-.07.03-.03.01-.05.01-.08.02-.02 0-.05.01-.07.01h-1l1.29-2.11c.02-.03.03-.06.05-.08.02-.03.05-.06.07-.08l.07-.07c.03-.02.05-.04.08-.06.03-.02.07-.03.1-.04.03-.02.07-.03.1-.03.04-.01.08-.02.11-.02h.11l1.48-.01Z" class="shp0"/>
  <path d="M366.4 12c.06-.13.12-.27.19-.39.07-.13.15-.26.23-.37.09-.12.18-.24.27-.35.1-.11.2-.21.31-.31.1-.09.21-.16.33-.23.12-.06.24-.12.37-.16.13-.04.26-.08.39-.1.13-.02.27-.02.4-.02h.14c.04.01.09.01.13.01.05.01.09.02.14.02l.13.03.12.03c.04.01.08.03.12.04.04.02.07.04.11.06.04.02.07.04.11.06l-.11 1.16c0 .03-.01.06-.03.09-.01.03-.03.05-.06.07-.02.02-.05.04-.08.05-.03.01-.06.01-.09.01s-.06 0-.09-.01c-.03 0-.06 0-.09-.01-.03 0-.06 0-.09-.01s-.06-.01-.09-.02a.585.585 0 0 0-.13-.02c-.05-.01-.09-.02-.13-.02-.05 0-.09-.01-.14-.01h-.32l-.19.03-.19.03-.18.06c-.05.02-.11.04-.16.07-.05.02-.1.05-.15.08-.05.03-.09.06-.14.1-.04.03-.09.07-.13.11-.05.04-.09.09-.13.13l-.12.15c-.04.05-.08.1-.11.15-.04.05-.07.11-.1.16-.04.06-.07.13-.11.2-.03.06-.06.13-.09.2a3.904 3.904 0 0 0-.17.41V19h-1.56v-8.79h.98c.03 0 .06.01.09.02.03 0 .06.02.09.03.03.01.06.03.08.05.02.02.04.05.05.07.02.03.03.06.04.08l.03.09c0 .03.01.06.01.09l.12 1.36Zm6.84-4.56c0 .04 0 .07-.01.11 0 .03 0 .07-.01.1-.01.04-.02.08-.03.11-.01.03-.03.07-.04.1-.01.03-.03.06-.05.1-.02.03-.03.06-.05.09-.02.02-.05.05-.07.08-.02.03-.05.05-.07.08-.03.03-.05.05-.08.07a.55.55 0 0 1-.09.07c-.03.02-.06.04-.09.05-.03.02-.07.04-.1.05-.03.01-.07.03-.1.04l-.11.03c-.04 0-.07.01-.11.01-.04.01-.07.01-.11.01-.04 0-.07 0-.11-.01-.03 0-.07 0-.1-.01-.04-.01-.08-.02-.11-.03-.03-.01-.07-.03-.1-.04a.405.405 0 0 1-.09-.05c-.03-.02-.06-.03-.09-.05a.572.572 0 0 1-.08-.07.27.27 0 0 1-.08-.07.5.5 0 0 1-.07-.08c-.02-.03-.05-.05-.07-.08-.02-.03-.03-.06-.05-.09-.02-.04-.04-.07-.05-.1-.01-.03-.03-.07-.04-.1-.01-.03-.02-.07-.03-.11-.01-.03-.01-.07-.01-.1-.01-.04-.01-.07-.01-.11 0-.04 0-.07.01-.11 0-.04.01-.07.01-.11l.03-.11c.01-.03.03-.07.04-.1.01-.03.03-.07.05-.1.01-.03.03-.06.05-.09a.55.55 0 0 1 .07-.09.5.5 0 0 1 .07-.08c.02-.03.05-.05.08-.07.02-.02.05-.05.08-.07.03-.02.06-.04.09-.05.03-.02.06-.04.09-.05.03-.01.07-.03.1-.04.03-.01.07-.02.11-.03.03-.01.07-.01.1-.01.04-.01.07-.01.11-.01.04 0 .07 0 .11.01.04 0 .07.01.11.01l.11.03c.03.01.07.03.1.04.03.01.07.03.1.05.03.01.06.03.09.05.03.02.06.04.09.07a.5.5 0 0 1 .08.07.5.5 0 0 1 .07.08c.02.03.05.06.07.09.02.03.04.06.05.09.02.03.04.07.05.1.02.03.03.07.04.1l.03.11c.01.04.01.07.02.11v.11Zm-.33 2.77V19h-1.55v-8.79h1.55Z" class="shp0"/>
  <path fill-rule="evenodd" d="M379.18 10.07c.15 0 .3 0 .44.01l.45.06c.14.03.29.06.43.11.14.04.28.08.42.14.13.05.25.11.37.17.12.07.23.14.35.22.11.07.21.16.32.25.1.09.2.18.29.28.09.1.18.21.26.32.09.11.16.23.23.35.08.12.14.24.2.37.05.13.11.26.15.39a5.987 5.987 0 0 1 .29 1.88 5.987 5.987 0 0 1-.29 1.88c-.04.13-.1.26-.15.39-.06.13-.12.25-.2.37-.07.12-.14.24-.23.35-.08.11-.17.22-.26.32s-.19.19-.29.28c-.11.09-.21.17-.32.25-.12.07-.23.15-.35.21-.12.06-.24.12-.37.17-.14.05-.28.1-.42.14-.14.04-.29.08-.43.11-.15.02-.3.04-.45.05-.14.02-.29.02-.44.02-.15 0-.3 0-.45-.01l-.45-.06c-.14-.03-.29-.06-.43-.11-.15-.04-.29-.08-.43-.14a4.17 4.17 0 0 1-.37-.17 3.24 3.24 0 0 1-.35-.21 3.833 3.833 0 0 1-.61-.53c-.09-.1-.18-.21-.26-.32-.09-.11-.16-.23-.23-.35-.08-.12-.14-.24-.2-.37-.05-.13-.11-.26-.15-.39a5.987 5.987 0 0 1-.29-1.88 5.987 5.987 0 0 1 .29-1.88c.04-.13.1-.26.15-.39.06-.13.12-.25.2-.37.07-.12.14-.24.23-.35.08-.11.17-.22.26-.32s.19-.19.29-.28c.11-.09.21-.18.32-.25.12-.08.23-.15.35-.22.12-.06.24-.12.37-.17.14-.06.28-.1.43-.14.14-.05.29-.08.43-.11l.45-.06c.15-.01.3-.01.45-.01Zm0 7.88c.19.02.38.01.57-.02.19-.03.37-.09.54-.16.18-.08.34-.18.49-.3.15-.11.28-.25.4-.4.12-.18.22-.37.3-.57.09-.19.16-.4.22-.6.05-.21.09-.42.11-.64.02-.21.02-.43.01-.64.01-.22.01-.43-.01-.65-.02-.21-.06-.42-.11-.63a4.44 4.44 0 0 0-.22-.61c-.08-.2-.18-.39-.3-.57-.12-.15-.25-.29-.4-.41-.15-.11-.31-.21-.49-.29a2.41 2.41 0 0 0-.54-.16 2.18 2.18 0 0 0-.57-.02c-.1 0-.2 0-.3.01-.1.01-.2.02-.29.04-.1.02-.2.05-.29.08-.1.03-.19.06-.28.1-.08.04-.16.08-.23.12-.08.05-.15.1-.22.15-.07.06-.13.12-.2.18-.06.06-.12.13-.17.2-.06.08-.11.16-.16.24-.05.09-.1.17-.14.26-.04.09-.08.18-.11.27a4.333 4.333 0 0 0-.15.63c-.02.11-.04.23-.05.35-.02.12-.03.24-.03.35-.01.12-.01.24-.01.36-.01.21-.01.43.01.64.02.22.06.43.12.64.05.21.12.41.21.61.09.19.19.38.31.56.11.15.24.29.39.41.15.12.31.22.48.31.17.08.36.14.54.17.19.04.38.05.57.04v-.05ZM397.11 6.2V19h-.92c-.05 0-.1 0-.14-.02a.31.31 0 0 1-.13-.06c-.04-.03-.07-.07-.1-.11a.502.502 0 0 1-.05-.13l-.14-1.07c-.09.11-.19.22-.28.32-.1.1-.21.2-.32.29a4.192 4.192 0 0 1-.69.49c-.13.07-.26.13-.39.19-.14.05-.28.1-.42.13-.14.04-.28.06-.43.08-.14.02-.28.02-.43.02-.12 0-.24 0-.36-.01-.11-.02-.23-.03-.35-.06-.11-.02-.23-.05-.34-.09-.11-.04-.22-.08-.33-.13-.1-.05-.2-.1-.3-.17-.1-.06-.19-.12-.28-.2-.09-.07-.17-.15-.25-.23-.08-.08-.15-.17-.22-.26-.08-.11-.15-.21-.22-.33-.07-.11-.13-.22-.18-.34a2.75 2.75 0 0 1-.15-.36c-.05-.13-.09-.25-.12-.38-.04-.16-.08-.32-.11-.48-.03-.16-.06-.32-.08-.48-.02-.16-.03-.33-.04-.49-.01-.16-.01-.33-.01-.49 0-.15 0-.31.01-.46a7.18 7.18 0 0 1 .13-.91l.12-.45c.04-.13.08-.26.14-.39.05-.13.11-.25.17-.37.06-.13.13-.25.2-.36.08-.12.16-.23.24-.34.08-.1.16-.2.26-.3.09-.09.18-.18.28-.27.1-.08.21-.16.32-.23.11-.08.22-.14.34-.2.12-.06.25-.11.38-.16.13-.04.26-.08.4-.11.13-.03.27-.05.41-.06.13-.02.27-.02.41-.02.12 0 .24 0 .36.01s.23.03.35.05c.12.02.23.05.35.09.11.03.22.07.33.12.09.05.19.1.28.15.09.06.17.12.26.18.08.07.16.13.24.21.08.07.15.14.22.22V6.2h1.58Zm-1.55 6.11c-.06-.09-.12-.17-.19-.25a2.39 2.39 0 0 0-.23-.22c-.08-.07-.16-.13-.25-.19s-.18-.11-.27-.16c-.09-.04-.18-.07-.27-.1-.09-.03-.19-.06-.28-.08-.1-.02-.19-.03-.29-.04-.1-.01-.19-.01-.29-.01-.18-.01-.36 0-.54.04-.18.03-.35.09-.51.16a2.338 2.338 0 0 0-.84.68c-.12.18-.23.38-.32.58-.08.2-.16.41-.21.62-.06.21-.1.43-.12.65-.02.22-.02.44-.01.66 0 .12 0 .25.01.37a4.349 4.349 0 0 0 .07.74c.02.13.04.25.07.37.02.09.04.18.07.26.03.09.06.18.1.26.04.09.08.17.12.25.05.08.1.15.15.23.04.06.09.12.15.18.05.06.11.11.17.16.06.05.12.09.18.13.07.04.14.08.21.11l.24.09c.08.02.17.04.25.05.08.02.17.03.25.04h.26c.12 0 .23 0 .35-.02.12-.01.23-.03.34-.06.12-.03.23-.07.34-.11.1-.05.21-.1.31-.16l.3-.21.27-.24c.09-.08.17-.17.25-.26.08-.1.16-.19.23-.29l-.07-4.23Zm7.73-2.24c.15 0 .3 0 .44.01l.45.06c.14.03.29.06.43.11.14.04.28.08.42.14.13.05.25.11.37.17.12.07.23.14.35.22.11.07.21.16.32.25.1.09.2.18.29.28.09.1.18.21.26.32.09.11.16.23.23.35.08.12.14.24.2.37.05.13.11.26.15.39a5.987 5.987 0 0 1 .29 1.88 5.987 5.987 0 0 1-.29 1.88c-.04.13-.1.26-.15.39-.06.13-.12.25-.2.37-.07.12-.14.24-.23.35-.08.11-.17.22-.26.32a3.833 3.833 0 0 1-.61.53c-.12.07-.23.15-.35.21-.12.06-.24.12-.37.17-.14.05-.28.1-.42.14-.14.04-.29.08-.43.11-.15.02-.3.04-.45.05-.14.02-.29.02-.44.02-.15 0-.3 0-.45-.01l-.45-.06c-.14-.03-.29-.06-.43-.11-.15-.04-.29-.08-.43-.14a4.17 4.17 0 0 1-.37-.17 3.24 3.24 0 0 1-.35-.21 3.833 3.833 0 0 1-.88-.85c-.08-.11-.15-.23-.22-.35-.08-.12-.14-.24-.2-.37-.05-.13-.11-.26-.15-.39a5.987 5.987 0 0 1-.29-1.88 5.987 5.987 0 0 1 .29-1.88c.04-.13.1-.26.15-.39.06-.13.12-.25.2-.37.07-.12.14-.24.22-.35.09-.11.18-.22.27-.32.09-.1.19-.19.29-.28.11-.09.21-.18.32-.25.12-.08.23-.15.35-.22.12-.06.24-.12.37-.17.14-.06.28-.1.43-.14.14-.05.29-.08.43-.11l.45-.06c.15-.01.3-.01.45-.01Zm0 7.88c.19.02.38.01.57-.02.19-.03.37-.09.54-.16.18-.08.34-.18.49-.3.15-.11.28-.25.4-.4.12-.18.22-.37.3-.57.09-.19.16-.4.22-.6.05-.21.09-.42.11-.64.02-.21.02-.43.01-.64.01-.22.01-.43-.01-.65-.02-.21-.06-.42-.11-.63a4.44 4.44 0 0 0-.22-.61c-.08-.2-.18-.39-.3-.57-.12-.15-.25-.29-.4-.41-.15-.11-.31-.21-.49-.29a2.41 2.41 0 0 0-.54-.16 2.18 2.18 0 0 0-.57-.02c-.1 0-.2 0-.3.01-.1.01-.2.02-.29.04-.1.02-.2.05-.29.08-.1.03-.19.06-.28.1-.08.04-.16.08-.23.12-.08.05-.15.1-.22.15-.07.06-.13.12-.2.18-.06.06-.12.13-.17.2-.06.08-.11.16-.16.24-.05.09-.1.17-.14.26-.04.09-.08.18-.11.27a4.333 4.333 0 0 0-.15.63c-.02.11-.04.23-.05.35-.02.12-.03.24-.03.35-.01.12-.01.24-.01.36-.01.21-.01.43.01.64.02.22.06.43.12.64.05.21.12.41.21.61.09.19.19.38.31.56.11.15.24.29.39.41.15.12.31.22.48.31.17.08.36.14.54.17.19.04.38.05.57.04v-.05Z" class="shp0"/>
  <path d="M427.28 6.55V19h-1.48V9.04l-4.29 7.81a.639.639 0 0 1-.25.29c-.05.03-.11.06-.17.08-.06.01-.13.02-.19.02h-.24c-.06 0-.13-.01-.19-.02a.886.886 0 0 1-.17-.08.639.639 0 0 1-.25-.29L415.71 9c.01.07.02.14.02.21.01.07.01.14.02.21 0 .08 0 .15.01.22V19h-1.48V6.55h1.25c.03 0 .06-.01.09-.01h.17c.03 0 .06.01.09.01.03.01.05.03.07.04.03.02.05.04.07.06.02.02.04.04.06.07.01.02.03.04.04.07l4.32 7.69.2.44c.07.15.13.3.19.46L421 15c.02-.04.03-.07.05-.11a.37.37 0 0 1 .05-.11c.02-.04.03-.08.05-.11.02-.04.04-.07.06-.11l4.24-7.68a.3.3 0 0 1 .04-.08c.02-.02.03-.04.05-.06.02-.02.04-.04.07-.06.02-.01.04-.03.07-.04.03 0 .06-.01.09-.01h.17c.03 0 .06.01.09.01l1.25-.09Z" class="shp0"/>
  <path fill-rule="evenodd" d="M429.62 11.46c.11-.11.23-.22.36-.32.12-.1.25-.19.38-.28.13-.09.27-.17.41-.25.14-.07.28-.14.43-.2.15-.06.3-.11.45-.16.16-.04.31-.08.47-.11.15-.03.31-.05.47-.06.16-.02.32-.02.48-.02a3.86 3.86 0 0 1 .67.05c.11.02.22.05.33.08.11.03.22.07.32.11.09.04.19.08.28.13.09.04.17.1.26.15.08.06.16.12.24.19.08.06.15.14.22.21.07.08.13.16.19.24.06.08.11.17.16.25.05.09.09.18.13.28.04.09.08.18.11.28l.09.33c.03.12.05.23.06.34a4.165 4.165 0 0 1 .05.69V19h-.78c-.03 0-.06-.01-.09-.01a.292.292 0 0 0-.09-.02c-.03-.01-.05-.03-.08-.04-.02-.02-.05-.04-.07-.06-.02-.02-.03-.04-.05-.07-.02-.02-.03-.05-.04-.08a.689.689 0 0 1-.03-.08l-.17-.84c-.05.05-.11.1-.16.15l-.17.14a11.84 11.84 0 0 1-.35.28c-.05.04-.11.08-.17.12-.05.04-.11.07-.17.11-.06.03-.12.07-.18.1l-.18.09c-.06.03-.13.06-.19.08-.06.03-.13.05-.19.07l-.2.06c-.07.02-.13.04-.2.05-.08.02-.15.03-.23.04l-.23.03c-.07.01-.15.01-.23.02h-.23c-.08 0-.17 0-.25-.01-.09 0-.17-.01-.26-.02-.08-.01-.16-.03-.24-.05-.09-.01-.17-.04-.25-.06-.07-.02-.14-.05-.21-.08l-.21-.09c-.06-.04-.13-.08-.19-.12-.06-.05-.12-.09-.18-.14-.06-.05-.11-.1-.16-.16-.05-.05-.1-.11-.15-.17-.04-.07-.08-.13-.12-.2-.04-.06-.07-.13-.1-.2l-.09-.24-.06-.25c-.02-.08-.03-.17-.04-.25-.01-.09-.01-.17-.01-.26s.01-.18.02-.26c.01-.09.03-.18.06-.26.02-.08.05-.17.09-.25.03-.08.07-.16.12-.23a2.476 2.476 0 0 1 .41-.49c.08-.07.16-.14.25-.2s.18-.12.27-.17c.13-.07.27-.14.4-.2.14-.06.28-.12.42-.17.14-.05.28-.1.42-.14.15-.04.29-.08.44-.11.21-.04.42-.08.63-.11.21-.04.42-.07.63-.09.22-.02.43-.04.64-.05.21-.01.43-.02.64-.02v-.69c.01-.14.01-.28 0-.41-.02-.14-.04-.28-.08-.41a3.12 3.12 0 0 0-.15-.39c-.06-.12-.13-.24-.21-.35-.08-.09-.17-.17-.27-.24-.1-.07-.21-.13-.32-.18-.11-.04-.23-.07-.35-.09-.12-.02-.24-.03-.36-.02h-.25c-.09 0-.17.01-.26.02-.08.02-.16.03-.25.05a2.172 2.172 0 0 0-.41.14c-.06.02-.12.05-.17.07-.06.03-.11.06-.17.09-.05.03-.11.06-.16.09l-.49.32-.09.06a.69.69 0 0 1-.1.04l-.11.03c-.04.01-.07.01-.11.01h-.07c-.03-.01-.05-.01-.07-.02-.02-.01-.05-.01-.07-.02-.02-.01-.04-.03-.06-.04a.12.12 0 0 1-.05-.05.12.12 0 0 1-.05-.05.12.12 0 0 1-.05-.05c-.01-.02-.03-.04-.04-.06l-.23-.48Zm5 3.61c-.15 0-.31.01-.46.02l-.46.03c-.15.02-.3.03-.46.05-.15.02-.3.05-.45.07l-.32.06c-.1.02-.2.05-.31.08l-.3.09-.3.12c-.07.03-.13.06-.2.09l-.18.12c-.06.04-.11.09-.16.14-.06.05-.1.1-.15.16-.03.05-.07.1-.09.15-.03.05-.05.11-.07.16-.02.06-.03.12-.04.17-.01.06-.01.12-.01.18v.15c.01.05.01.11.02.16s.02.1.04.15c.01.04.03.09.05.14l.06.12c.02.03.04.07.07.1.03.04.06.07.08.1.03.03.07.06.1.09s.07.05.1.08l.12.06c.04.03.08.04.12.06.04.01.08.03.12.04l.14.03c.05.01.09.02.14.02.05.01.1.01.15.02h.33c.06-.01.12-.01.19-.02.06 0 .12-.01.18-.02.07-.01.13-.03.19-.04.06-.01.11-.03.17-.05.05-.01.1-.03.16-.05.05-.02.1-.04.16-.07.05-.02.1-.04.15-.07.05-.03.1-.05.15-.08l.15-.09c.05-.03.09-.06.14-.1.05-.03.09-.06.14-.1.05-.04.1-.08.14-.12.05-.04.09-.08.14-.12.04-.04.09-.08.13-.13.05-.04.09-.09.13-.13v-1.82Z" class="shp0"/>
  <path d="M440 12c.06-.13.12-.27.19-.39.07-.13.15-.26.23-.37.09-.12.18-.24.27-.35.1-.11.2-.21.31-.31.1-.09.21-.16.33-.23.12-.06.24-.12.37-.16.13-.04.26-.08.39-.1.13-.02.27-.02.4-.02h.14c.04.01.09.01.13.01.05.01.09.02.14.02l.13.03.12.03c.04.01.08.03.12.04.04.02.07.04.11.06.04.02.07.04.11.06l-.11 1.16c0 .03-.01.06-.03.09-.01.03-.03.05-.06.07-.02.02-.05.04-.08.05-.03.01-.06.01-.09.01s-.06 0-.09-.01c-.03 0-.06 0-.09-.01-.03 0-.06 0-.09-.01s-.06-.01-.09-.02a.585.585 0 0 0-.13-.02c-.05-.01-.09-.02-.13-.02-.05 0-.09-.01-.14-.01h-.32l-.19.03-.19.03-.18.06c-.05.02-.11.04-.16.07-.05.02-.1.05-.15.08-.05.03-.09.06-.14.1-.04.03-.09.07-.13.11-.05.04-.09.09-.13.13l-.12.15c-.04.05-.08.1-.11.15-.04.05-.07.11-.1.16-.04.06-.07.13-.11.2-.03.06-.06.13-.09.2-.03.06-.06.13-.09.2s-.06.14-.08.21V19h-1.56v-8.79h.98c.03 0 .06.01.09.02.03 0 .06.02.09.03.03.01.06.03.08.05.02.02.04.05.05.07.02.03.03.06.04.08l.03.09c0 .03.01.06.01.09L440 12Zm10.64-.22c-.01.01-.02.03-.03.04-.01.01-.02.03-.03.04-.02.01-.03.02-.04.04-.01.01-.03.02-.04.03-.01.01-.03.02-.04.02-.02.01-.03.02-.05.02-.02 0-.03.01-.05.01h-.05c-.03 0-.05 0-.08-.01-.02-.01-.05-.01-.07-.02a.161.161 0 0 1-.07-.04.161.161 0 0 1-.07-.04l-.39-.24c-.05-.02-.09-.05-.14-.07-.04-.02-.09-.04-.14-.06-.05-.02-.09-.04-.14-.06-.05-.02-.1-.03-.15-.05-.16-.05-.33-.08-.5-.1-.17-.01-.34-.02-.51-.01-.17.01-.34.04-.5.07-.17.04-.33.09-.49.16-.08.04-.16.08-.24.13-.07.05-.15.1-.22.15-.07.06-.13.12-.19.19-.07.06-.13.13-.18.2-.06.08-.11.16-.17.24-.05.09-.09.17-.14.26-.04.09-.08.18-.11.27-.04.09-.07.19-.09.28-.03.11-.06.23-.08.34-.02.12-.04.23-.05.35-.02.12-.03.23-.03.35-.01.12-.01.23-.01.35 0 .12 0 .24.01.36 0 .12.01.24.03.36.01.12.03.23.06.35.02.12.05.23.08.35l.09.27c.04.08.08.17.12.25.05.09.09.17.15.25.05.08.1.16.16.23.05.07.11.13.17.2.06.06.13.12.2.17.06.06.14.11.21.15.07.05.15.09.23.13.08.04.17.07.26.1.08.03.17.05.26.07a2.512 2.512 0 0 0 .55.05c.14.01.27 0 .41-.02.13-.01.26-.04.4-.08.13-.03.25-.08.38-.14.12-.06.24-.12.35-.2l.4-.3c.02-.02.05-.04.07-.05.02-.02.05-.03.08-.04.03-.01.05-.02.08-.03.03-.01.06-.01.09-.01s.06 0 .09.01c.03 0 .05.01.08.03.03.01.05.02.07.04.02.02.04.05.06.07l.44.57c-.05.06-.09.11-.15.17-.05.05-.1.11-.15.16-.06.05-.11.1-.17.15-.06.04-.12.09-.18.13-.06.04-.12.08-.19.12-.06.04-.13.08-.19.11-.07.04-.14.07-.2.1l-.21.09c-.07.03-.14.06-.21.08-.08.02-.15.05-.22.07l-.23.06c-.07.01-.14.03-.22.04l-.23.03-.24.03c-.08.01-.16.01-.23.01-.08.01-.16.01-.24.01-.13 0-.26 0-.39-.02-.14-.01-.27-.03-.4-.05-.12-.03-.25-.06-.38-.1a2.72 2.72 0 0 1-.37-.13c-.12-.05-.23-.11-.34-.17a3.447 3.447 0 0 1-.62-.44 4.03 4.03 0 0 1-.53-.59 6.73 6.73 0 0 1-.22-.35c-.07-.12-.13-.25-.19-.37a3.12 3.12 0 0 1-.15-.39c-.09-.3-.17-.61-.21-.93a5.99 5.99 0 0 1-.08-.95c0-.31.03-.63.08-.94a5.708 5.708 0 0 1 .35-1.32c.06-.13.12-.25.19-.37.06-.12.14-.24.22-.35.08-.12.16-.23.25-.33s.18-.2.28-.29a3.956 3.956 0 0 1 .66-.48c.11-.07.24-.13.36-.18.14-.06.28-.11.43-.15.14-.05.29-.08.44-.11.15-.03.3-.05.45-.06.15-.02.3-.02.45-.02.14 0 .28 0 .42.01.14.01.28.03.42.06.13.02.27.05.4.09.14.04.27.09.4.14.12.05.23.1.34.17.12.06.23.12.33.19.11.07.21.15.31.23.1.08.19.17.28.26l-.41.6Z" class="shp0"/>
  <path fill-rule="evenodd" d="M456.38 10.07c.15 0 .3 0 .44.01l.45.06c.14.03.29.06.43.11.14.04.28.08.42.14.13.05.25.11.37.17.12.07.23.14.35.22.11.07.21.16.32.25.1.09.2.18.29.28.09.1.18.21.26.32.09.11.16.23.23.35.08.12.14.24.2.37.05.13.11.26.15.39a5.987 5.987 0 0 1 .29 1.88 5.987 5.987 0 0 1-.29 1.88c-.04.13-.1.26-.15.39-.06.13-.12.25-.2.37-.07.12-.14.24-.23.35-.08.11-.17.22-.26.32s-.19.19-.29.28c-.11.09-.21.17-.32.25-.12.07-.23.15-.35.21-.12.06-.24.12-.37.17-.14.05-.28.1-.42.14-.14.04-.29.08-.43.11-.15.02-.3.04-.45.05-.14.02-.29.02-.44.02-.15 0-.3 0-.45-.01l-.45-.06c-.14-.03-.29-.06-.43-.11-.15-.04-.29-.08-.43-.14a4.17 4.17 0 0 1-.37-.17 3.24 3.24 0 0 1-.35-.21c-.11-.08-.21-.16-.32-.25-.1-.09-.2-.18-.29-.28-.09-.1-.18-.21-.27-.32-.08-.11-.15-.23-.22-.35-.08-.12-.14-.24-.2-.37-.05-.13-.11-.26-.15-.39a5.987 5.987 0 0 1-.29-1.88 5.987 5.987 0 0 1 .29-1.88c.04-.13.1-.26.15-.39.06-.13.12-.25.2-.37.07-.12.14-.24.22-.35.09-.11.18-.22.27-.32.09-.1.19-.19.29-.28.11-.09.21-.18.32-.25.12-.08.23-.15.35-.22.12-.06.24-.12.37-.17.14-.06.28-.1.43-.14.14-.05.29-.08.43-.11l.45-.06c.15-.01.3-.01.45-.01Zm0 7.88c.19.02.38.01.57-.02.19-.03.37-.09.54-.16.18-.08.34-.18.49-.3.15-.11.28-.25.4-.4.12-.18.22-.37.3-.57.09-.19.16-.4.22-.6.05-.21.09-.42.11-.64.02-.21.02-.43.01-.64.01-.22.01-.43-.01-.65-.02-.21-.06-.42-.11-.63a4.44 4.44 0 0 0-.22-.61c-.08-.2-.18-.39-.3-.57-.12-.15-.25-.29-.4-.41-.15-.11-.31-.21-.49-.29a2.41 2.41 0 0 0-.54-.16 2.18 2.18 0 0 0-.57-.02c-.1 0-.2 0-.3.01-.1.01-.2.02-.29.04-.1.02-.2.05-.29.08-.1.03-.19.06-.28.1-.08.04-.16.08-.23.12-.08.05-.15.1-.22.15-.07.06-.13.12-.2.18-.06.06-.12.13-.17.2-.06.08-.11.16-.16.24-.05.09-.1.17-.14.26-.04.09-.08.18-.11.27a4.333 4.333 0 0 0-.15.63c-.02.11-.04.23-.05.35-.02.12-.03.24-.03.35-.01.12-.01.24-.01.36-.01.21-.01.43.01.64.02.22.06.43.12.64.05.21.12.41.21.61.09.19.19.38.31.56.11.15.24.29.39.41.15.12.31.22.48.31.17.08.36.14.54.17.19.04.38.05.57.04v-.05Z" class="shp0"/>
  <path d="M292.28 40.06v1.42h-7.09V29h1.68v11.06h5.41Z" class="shp0"/>
  <path fill-rule="evenodd" d="M300.3 40.24a2.59 2.59 0 0 1-.32.33l-.18.15-.19.13-.21.12c-.07.04-.14.08-.21.11-.07.04-.14.07-.22.1-.07.03-.14.06-.22.09-.08.03-.15.05-.23.08-.08.02-.16.05-.24.07-.08.02-.16.04-.24.05-.08.02-.16.04-.24.05-.08.01-.17.03-.25.04-.08.01-.16.01-.25.02-.08.01-.17.01-.25.02h-.25c-.14 0-.29 0-.43-.02-.15-.01-.29-.03-.43-.05-.14-.03-.28-.06-.42-.1a4.93 4.93 0 0 1-.41-.14c-.13-.05-.25-.11-.37-.17-.12-.06-.23-.14-.35-.21-.11-.08-.21-.16-.32-.25-.1-.09-.2-.18-.29-.28-.1-.11-.19-.22-.28-.33l-.24-.36a4.761 4.761 0 0 1-.36-.79c-.05-.16-.1-.32-.14-.49-.04-.16-.07-.33-.1-.5-.03-.16-.04-.33-.06-.5-.01-.17-.01-.34-.01-.51 0-.15 0-.29.01-.44.02-.15.03-.29.06-.44.02-.14.05-.29.08-.43.04-.14.08-.28.13-.42.04-.13.09-.25.15-.38.06-.12.12-.24.19-.36.07-.11.14-.23.22-.34.08-.1.17-.21.26-.31s.19-.19.29-.28c.1-.09.2-.17.31-.25.11-.08.22-.15.34-.21a3.523 3.523 0 0 1 .78-.33c.14-.05.28-.08.43-.11.14-.03.29-.05.44-.06.14-.02.29-.02.44-.02.13 0 .25 0 .38.02.12.01.24.02.37.05.12.02.24.05.36.08s.24.07.36.12c.11.04.22.09.32.14.11.06.21.12.31.18.09.07.19.14.28.21.09.08.18.16.26.24.08.09.16.18.24.28.08.09.15.2.21.3.06.1.12.21.18.32.05.11.1.22.14.34.05.13.09.27.13.41l.09.42c.02.14.04.28.05.42.01.14.01.29.01.43v.13c0 .04 0 .08-.01.12l-.03.12c-.01.04-.02.08-.04.12l-.06.06c-.02.01-.05.03-.07.04-.03.01-.06.02-.09.02h-5.98c0 .12.01.25.02.37s.02.25.04.37.05.24.07.36c.03.12.06.24.1.36.03.09.07.18.1.27.04.09.09.17.14.26.04.08.1.16.15.24.06.08.12.16.18.23s.12.13.19.19.14.12.21.17c.07.05.15.1.23.14.08.05.16.09.24.12.09.04.18.07.27.09.1.03.19.05.28.07.1.02.2.03.29.04.1.01.19.01.29.01h.25l.25-.03c.09-.01.17-.02.25-.04.09-.02.17-.04.25-.06.06-.02.12-.04.19-.06.06-.02.12-.05.18-.07.06-.02.12-.05.18-.08.06-.02.12-.05.18-.08.04-.02.09-.04.13-.07.04-.02.09-.04.13-.07.04-.02.08-.05.13-.07.04-.03.08-.05.12-.08.03-.02.05-.04.08-.05.03-.02.06-.03.08-.05.03-.01.06-.02.1-.02a.292.292 0 0 1 .18-.01c.03 0 .05.01.08.03.03.01.05.02.07.04.02.02.04.05.06.07l.48.56ZM299 36.1c0-.08 0-.17-.01-.25 0-.09-.01-.17-.02-.26-.02-.08-.03-.16-.05-.25-.02-.08-.04-.16-.07-.24-.02-.07-.05-.14-.08-.21-.03-.07-.07-.14-.11-.2a.76.76 0 0 0-.12-.19c-.04-.06-.09-.12-.14-.18-.05-.05-.1-.11-.16-.16-.05-.05-.11-.09-.17-.13a1.865 1.865 0 0 0-.38-.22c-.23-.09-.46-.14-.7-.17-.24-.02-.49-.01-.72.03-.24.04-.47.11-.69.22-.22.1-.43.23-.61.39-.12.12-.22.25-.31.39-.1.14-.18.29-.25.44-.07.15-.12.31-.16.48-.05.16-.08.32-.09.49l4.84.02Zm10.8-3.1v.58c0 .19-.12.32-.37.37l-1 .13a2.992 2.992 0 0 1 .23.62c.02.1.04.21.05.32.02.11.02.22.02.33 0 .2-.02.39-.06.58-.03.19-.1.38-.18.56-.08.18-.17.35-.29.5-.12.16-.25.3-.4.43-.07.06-.15.12-.23.18-.08.06-.16.11-.24.16-.09.05-.17.09-.26.13-.09.04-.18.08-.27.11l-.32.09c-.11.02-.22.05-.33.06-.11.02-.22.03-.34.04-.11.01-.22.01-.33.01-.1 0-.2 0-.3-.01-.09 0-.19-.01-.29-.03-.1-.01-.2-.02-.29-.04-.1-.02-.19-.04-.29-.07-.04.02-.08.05-.12.08-.04.02-.08.05-.11.09-.04.03-.07.06-.11.09-.03.04-.06.07-.09.11l-.06.09c-.02.03-.04.06-.05.1l-.03.1c0 .04-.01.07-.01.11 0 .05 0 .1.01.14.01.05.03.09.05.14.03.04.05.08.09.11.03.04.07.07.11.09.05.03.1.06.16.08.05.03.11.05.16.07.06.02.12.03.17.05l.18.03c.08.01.17.03.25.04.08.01.17.01.25.02.08.01.17.02.25.02.08.01.17.01.25.01l1.1.06c.09.01.18.01.28.02l.27.03c.09.01.19.02.28.04.09.01.18.02.27.04.09.01.17.03.26.05.08.02.17.04.25.07.09.02.17.05.25.08.08.04.16.07.24.11.07.03.13.07.2.12.06.04.12.09.18.14.06.05.11.1.16.16s.1.12.14.18c.05.07.09.15.12.23.03.08.06.17.09.25a2.336 2.336 0 0 1 .05.52c0 .1-.01.19-.02.29-.01.09-.03.18-.05.28-.02.09-.05.18-.09.27-.03.09-.07.18-.12.26-.05.09-.11.18-.17.27-.06.09-.12.17-.19.25-.07.08-.14.15-.22.23-.08.07-.16.14-.24.2l-.3.21c-.11.06-.21.12-.32.18l-.33.15c-.12.04-.23.08-.35.12-.14.04-.28.08-.43.11-.14.04-.28.06-.43.08-.15.02-.29.04-.44.05-.15.01-.29.01-.44.01-.14 0-.28 0-.43-.01-.14 0-.28-.02-.42-.03l-.42-.06-.42-.09c-.11-.03-.21-.06-.31-.09-.11-.03-.21-.07-.31-.12-.1-.04-.2-.09-.3-.14-.09-.05-.19-.1-.28-.16l-.21-.15c-.07-.06-.13-.12-.19-.18-.06-.07-.12-.13-.17-.2a1.07 1.07 0 0 1-.15-.22c-.04-.07-.07-.14-.1-.21-.03-.07-.06-.14-.08-.21-.02-.08-.03-.15-.04-.23-.01-.08-.02-.15-.02-.23 0-.1 0-.2.02-.3.02-.1.04-.2.08-.29a1.425 1.425 0 0 1 .31-.52c.08-.08.16-.16.25-.23.08-.07.17-.14.27-.2.09-.06.19-.11.29-.16.1-.05.2-.09.31-.13l-.18-.09c-.05-.03-.11-.07-.16-.11a1.788 1.788 0 0 1-.28-.27 1.74 1.74 0 0 1-.11-.18c-.03-.06-.05-.13-.07-.2a.647.647 0 0 1-.04-.2c-.01-.07-.01-.14-.01-.21v-.1c.01-.04.01-.07.02-.1 0-.04.01-.07.02-.1.01-.04.02-.07.03-.1.01-.04.03-.07.04-.11.02-.03.03-.07.05-.1.02-.04.04-.07.06-.1a.88.88 0 0 1 .06-.1c.01-.04.03-.08.05-.12.01-.04.03-.07.05-.11.02-.04.04-.08.06-.11.02-.04.05-.07.07-.11.04-.03.08-.06.11-.09l.12-.09c.05-.02.09-.05.13-.07.04-.03.09-.05.13-.07-.1-.06-.2-.13-.3-.2-.09-.07-.18-.15-.27-.23-.08-.09-.16-.18-.23-.27-.07-.1-.14-.2-.2-.3-.06-.11-.12-.22-.17-.33a3.58 3.58 0 0 1-.11-.35c-.03-.12-.06-.24-.07-.36-.02-.12-.02-.25-.02-.37 0-.1 0-.2.01-.3.01-.1.03-.2.05-.3.02-.1.05-.19.08-.29.03-.1.07-.19.11-.28.04-.09.08-.17.13-.25.05-.08.11-.16.17-.24.05-.07.12-.15.18-.22.07-.06.14-.13.21-.19l.24-.18c.09-.06.17-.11.26-.16.09-.04.18-.09.28-.13.09-.04.18-.07.28-.1l.33-.09c.11-.03.22-.05.34-.06.11-.02.22-.03.34-.04.11-.01.23-.01.34-.01.09 0 .18 0 .27.01.09 0 .18.01.27.02.09.01.18.03.27.04.08.02.17.04.26.06.08.02.16.04.24.07.08.02.15.05.23.08.07.03.15.07.22.1.08.04.15.08.22.12l2.35.07Zm-1.59 8.86c0-.05-.02-.09-.03-.14-.02-.04-.04-.08-.06-.13-.02-.04-.05-.07-.08-.11a.524.524 0 0 0-.11-.1.834.834 0 0 0-.12-.08c-.04-.03-.08-.05-.12-.08-.05-.02-.09-.03-.14-.05l-.18-.06c-.06-.01-.12-.03-.18-.04-.06-.01-.12-.03-.18-.04-.06-.01-.12-.01-.18-.02l-.87-.07-.93-.05c-.31 0-.62 0-.91-.09-.08.03-.15.07-.22.11-.07.04-.14.09-.21.13-.07.05-.13.1-.19.16-.06.05-.12.11-.18.17-.05.05-.1.11-.13.18a.75.75 0 0 0-.1.2c-.03.06-.05.14-.06.21-.02.07-.02.15-.02.22 0 .05 0 .1.01.14.01.05.01.1.03.15.01.04.03.09.04.13.02.05.05.09.07.13.03.05.06.09.1.13a1.199 1.199 0 0 0 .23.22c.05.03.09.06.14.09.06.03.12.07.19.1.06.03.13.06.19.08.07.03.14.05.2.07.07.02.14.04.21.05.18.04.37.06.56.08a5.115 5.115 0 0 0 1.12 0c.19-.02.38-.04.56-.08.07-.02.15-.03.22-.05.07-.03.14-.05.21-.08a.95.95 0 0 0 .21-.09c.07-.03.13-.06.2-.1.05-.03.1-.06.15-.1.05-.04.1-.08.14-.12.05-.04.09-.09.13-.13.04-.05.08-.1.11-.15.03-.05.06-.1.08-.15.03-.05.05-.11.06-.16.02-.06.03-.11.04-.17.01-.06.01-.11.01-.17 0-.05 0-.09-.01-.14Zm-2.79-4.65h.21l.21-.03c.07-.01.14-.02.21-.04l.2-.06c.06-.02.11-.04.16-.07.06-.02.11-.05.16-.08s.1-.07.15-.1c.04-.04.09-.08.13-.12l.12-.12c.03-.05.07-.09.1-.14.03-.05.06-.09.08-.15.03-.05.05-.1.07-.15.02-.06.04-.12.05-.18.02-.05.03-.11.04-.17.01-.06.02-.13.02-.19.01-.06.01-.12.01-.18.01-.12 0-.24-.02-.35-.02-.12-.05-.24-.09-.35-.04-.11-.1-.21-.16-.31s-.14-.2-.22-.28a2.33 2.33 0 0 0-1.43-.48 2.356 2.356 0 0 0-1.43.48c-.08.08-.16.18-.22.28-.06.1-.12.2-.16.31-.04.11-.07.23-.09.35-.02.11-.03.23-.02.35 0 .06 0 .12.01.18 0 .06.01.13.02.19s.03.12.04.18c.02.05.04.11.06.17.02.05.04.1.07.15.02.05.05.1.08.15.04.05.07.09.1.14l.12.12c.04.04.09.08.13.12.05.03.1.07.15.1.05.03.1.06.16.08.05.03.1.05.16.07.07.02.13.03.2.05l.21.03c.07 0 .13.01.2.01s.14 0 .21-.01v.05Zm5.76-3.32c.11-.11.23-.22.36-.32.12-.1.25-.19.38-.28.13-.09.27-.17.41-.25.14-.07.28-.14.43-.2.15-.06.3-.11.45-.16.16-.04.31-.08.47-.11.15-.03.31-.05.47-.06.16-.02.32-.02.48-.02a3.86 3.86 0 0 1 .67.05c.11.02.22.05.33.08.11.03.22.07.32.11.09.04.19.08.28.13.09.04.17.1.26.15.08.06.16.12.24.19.08.06.15.14.22.21.07.08.13.16.19.24.06.08.11.17.16.25a2.437 2.437 0 0 1 .24.56l.09.33c.03.12.05.23.06.34a4.165 4.165 0 0 1 .05.69v5.65h-.83c-.03 0-.06-.01-.09-.01a.292.292 0 0 0-.09-.02c-.03-.01-.05-.03-.08-.04-.02-.02-.05-.04-.07-.06-.02-.02-.03-.04-.05-.07-.02-.02-.03-.05-.04-.08-.01-.02-.02-.05-.03-.08l-.17-.84c-.05.05-.11.1-.16.15l-.17.14-.17.14c-.06.05-.12.1-.18.14-.05.04-.11.08-.17.12-.05.04-.11.07-.17.11-.06.03-.12.07-.18.1l-.18.09c-.06.03-.13.06-.19.08-.06.03-.13.05-.19.07l-.2.06c-.07.02-.13.04-.2.05-.08.02-.15.03-.23.04l-.23.03c-.07.01-.15.01-.23.02h-.23c-.08 0-.17 0-.25-.01-.09 0-.17-.01-.26-.02-.08-.01-.16-.03-.24-.05-.09-.01-.17-.04-.25-.06-.07-.02-.14-.05-.21-.08l-.21-.09c-.06-.04-.13-.08-.19-.12-.06-.05-.12-.09-.18-.14-.06-.05-.11-.1-.16-.16-.05-.05-.1-.11-.15-.17-.04-.07-.08-.13-.12-.2-.04-.06-.07-.13-.1-.2l-.09-.24-.06-.25c-.02-.08-.03-.17-.04-.25-.01-.09-.01-.17-.01-.26s.01-.18.02-.26c.01-.09.03-.18.06-.26.02-.08.05-.17.09-.25.03-.08.07-.16.12-.23.06-.09.12-.18.19-.26.07-.08.14-.16.22-.23.08-.07.16-.14.25-.2s.18-.12.27-.17c.13-.07.27-.14.4-.2.14-.06.28-.12.42-.17.14-.05.28-.09.42-.13.15-.04.29-.08.44-.11l.63-.12c.21-.03.42-.06.63-.08.22-.02.43-.04.64-.05.21-.01.43-.02.64-.02v-.69c.01-.14.01-.28 0-.41-.02-.14-.04-.28-.08-.41a3.12 3.12 0 0 0-.15-.39c-.06-.12-.13-.24-.21-.35-.08-.09-.17-.17-.27-.24-.1-.07-.21-.13-.32-.18-.11-.04-.23-.07-.35-.09-.12-.02-.24-.03-.36-.02h-.25c-.09 0-.17.01-.26.02-.08.02-.16.03-.25.05a2.172 2.172 0 0 0-.41.14c-.06.02-.12.05-.17.07-.06.03-.11.06-.17.09-.05.03-.11.06-.16.09l-.49.32-.09.06c-.04.02-.07.03-.1.04l-.11.03c-.04.01-.07.01-.11.01h-.07c-.03-.01-.05-.01-.07-.02-.02 0-.05-.01-.07-.02-.02-.01-.04-.03-.06-.04a.218.218 0 0 1-.05-.04c-.02-.02-.04-.03-.05-.05l-.05-.05c-.01-.02-.03-.04-.04-.06l-.18-.54Zm5 3.61c-.15 0-.31.01-.46.02l-.46.03c-.15.02-.3.03-.46.05-.15.02-.3.05-.45.07l-.32.06c-.1.02-.2.05-.31.08l-.3.09-.3.12c-.07.03-.13.06-.2.09l-.18.12c-.06.04-.11.09-.16.14-.06.05-.1.1-.15.16-.03.05-.07.1-.09.15-.03.05-.05.11-.07.16-.02.06-.03.12-.04.17-.01.06-.01.12-.01.18v.15c.01.05.01.11.02.16s.02.1.04.15a1.213 1.213 0 0 0 .11.26c.02.03.04.07.07.1.03.04.06.07.08.1.03.03.07.06.1.09s.07.05.1.08l.12.06.12.06c.04.01.08.03.12.04l.14.03c.05.01.09.02.14.02.05.01.1.01.15.02h.33c.06-.01.12-.01.19-.02.06 0 .12-.01.18-.02.07-.01.13-.03.19-.04.06-.01.11-.03.17-.05.05-.01.1-.03.16-.05.05-.02.1-.04.16-.07.05-.02.1-.04.15-.07.05-.03.1-.05.15-.08l.15-.09c.05-.03.09-.06.14-.1.05-.03.09-.06.14-.1.05-.04.1-.08.14-.12.05-.04.09-.08.14-.12.04-.04.09-.08.13-.13.05-.04.09-.09.13-.13V37.5Z" class="shp0"/>
  <path d="M321.68 28.64v12.84h-1.55V28.64h1.55Z" class="shp0"/>
  <path fill-rule="evenodd" d="M336 28.64v12.84h-1c-.05 0-.1 0-.14-.02a.31.31 0 0 1-.13-.06c-.04-.03-.07-.07-.1-.11a.502.502 0 0 1-.05-.13l-.14-1.07c-.09.11-.18.22-.28.32-.1.1-.21.2-.32.29a4.192 4.192 0 0 1-.69.49c-.13.07-.26.13-.39.19-.14.05-.28.1-.42.13-.14.04-.28.06-.43.08-.14.02-.28.02-.43.02-.12 0-.24 0-.36-.01-.11-.02-.23-.03-.35-.06-.11-.02-.23-.05-.34-.09-.11-.04-.22-.08-.33-.13-.1-.05-.2-.1-.3-.17-.1-.06-.19-.12-.28-.2-.08-.07-.17-.15-.25-.23-.08-.08-.15-.17-.22-.26-.08-.11-.15-.21-.22-.33-.07-.11-.13-.22-.18-.34a2.75 2.75 0 0 1-.15-.36c-.05-.13-.09-.25-.12-.38-.04-.16-.08-.32-.11-.48-.03-.16-.06-.32-.08-.48-.02-.16-.03-.33-.04-.49-.01-.16-.01-.33-.01-.49 0-.15 0-.31.01-.46a7.18 7.18 0 0 1 .13-.91l.12-.45c.04-.13.08-.26.14-.39.05-.13.1-.25.17-.37.06-.13.13-.25.2-.36.08-.12.16-.23.24-.34.08-.1.16-.2.26-.3.09-.09.18-.18.28-.27.1-.08.21-.16.32-.23.11-.07.22-.14.34-.2.12-.06.25-.11.38-.16.13-.04.26-.08.4-.11.13-.03.27-.05.41-.06.13-.02.27-.02.41-.02.12 0 .24 0 .36.01s.23.02.35.05c.12.02.23.05.35.08.11.04.22.08.33.13.09.05.19.1.28.15.09.06.17.12.26.18.08.07.16.13.24.21.08.07.15.14.22.22v-4.87H336Zm-1.55 6.11c-.06-.09-.12-.17-.19-.25a2.39 2.39 0 0 0-.23-.22c-.08-.07-.16-.13-.25-.19s-.18-.11-.27-.16c-.09-.04-.18-.07-.27-.1-.09-.03-.19-.06-.28-.08-.1-.02-.19-.03-.29-.04-.1-.01-.19-.01-.29-.01-.18-.01-.36 0-.54.04-.18.03-.35.09-.51.16a2.338 2.338 0 0 0-.84.68c-.12.18-.23.38-.32.58-.08.2-.16.41-.21.62-.06.21-.1.43-.12.65-.02.22-.02.44-.01.66 0 .12 0 .25.01.37a4.349 4.349 0 0 0 .07.74c.02.13.04.25.07.37.02.09.04.18.07.26.03.09.06.18.1.26.04.09.08.17.12.25.05.08.1.15.15.23.04.06.09.12.15.18.05.06.11.11.17.16.06.05.12.09.18.13.07.04.14.08.21.11l.24.09c.08.02.17.04.25.05.08.02.17.03.25.04h.26c.12 0 .23 0 .35-.02.12-.01.23-.03.34-.06.12-.03.23-.07.34-.11.1-.05.21-.1.31-.16l.3-.21.27-.24c.09-.08.17-.17.25-.26.08-.1.16-.19.23-.29l-.07-4.23Zm3.74-.86c.11-.11.23-.22.36-.32.12-.1.25-.19.38-.28.13-.09.27-.17.41-.25.14-.07.28-.14.43-.2.15-.06.3-.11.45-.16.16-.04.31-.08.47-.11.15-.03.31-.05.47-.06.16-.02.32-.02.48-.02a3.86 3.86 0 0 1 .67.05c.11.02.22.05.33.08.11.03.22.07.32.11.09.04.19.08.28.13.09.04.17.1.26.15.08.06.16.12.24.19.08.06.15.14.22.21.07.08.13.16.19.24.06.08.11.17.16.25a2.437 2.437 0 0 1 .24.56l.09.33c.03.12.05.23.06.34a4.165 4.165 0 0 1 .05.69v5.65h-.84c-.03 0-.06-.01-.09-.01a.292.292 0 0 0-.09-.02c-.03-.01-.05-.03-.08-.04-.02-.02-.05-.04-.07-.06-.02-.02-.03-.04-.05-.07-.02-.02-.03-.05-.04-.08-.01-.02-.02-.05-.03-.08l-.17-.84c-.05.05-.11.1-.16.15l-.17.14-.17.14c-.06.05-.12.1-.18.14-.05.04-.11.08-.17.12-.05.04-.11.07-.17.11-.06.03-.12.07-.18.1l-.18.09c-.06.03-.13.06-.19.08-.06.03-.13.05-.19.07l-.2.06c-.07.02-.13.04-.2.05-.08.02-.15.03-.23.04l-.23.03c-.07.01-.15.01-.23.02h-.23c-.08 0-.17 0-.25-.01-.09 0-.17-.01-.26-.02-.08-.01-.16-.03-.24-.05-.09-.01-.17-.04-.25-.06-.07-.02-.14-.05-.21-.08l-.21-.09c-.06-.04-.13-.08-.19-.12-.06-.05-.12-.09-.18-.14-.06-.05-.11-.1-.16-.16-.05-.05-.1-.11-.15-.17-.04-.07-.08-.13-.12-.2-.04-.06-.07-.13-.1-.2l-.09-.24-.06-.25c-.02-.08-.03-.17-.04-.25-.01-.09-.01-.17-.01-.26s.01-.18.02-.26c.01-.09.03-.18.06-.26.02-.08.05-.17.09-.25.03-.08.07-.16.12-.23.06-.09.12-.18.19-.26.07-.08.14-.16.22-.23.08-.07.16-.14.25-.2s.18-.12.27-.17c.13-.07.27-.14.4-.2.14-.06.28-.12.42-.17.14-.05.28-.09.42-.13.15-.04.29-.08.44-.11l.63-.12c.21-.03.42-.06.63-.08.22-.02.43-.04.64-.05.21-.01.43-.02.64-.02v-.69c.01-.14.01-.28 0-.41-.02-.14-.04-.28-.08-.41a3.12 3.12 0 0 0-.15-.39c-.06-.12-.13-.24-.21-.35-.08-.09-.17-.17-.27-.24-.1-.07-.21-.13-.32-.18-.11-.04-.23-.07-.35-.09-.12-.02-.24-.03-.36-.02h-.25c-.09 0-.17.01-.26.02-.08.02-.16.03-.25.05a2.172 2.172 0 0 0-.41.14c-.06.02-.12.05-.17.07-.06.03-.11.06-.17.09-.05.03-.11.06-.16.09l-.49.32-.09.06c-.04.02-.07.03-.1.04l-.11.03c-.04.01-.07.01-.11.01h-.07c-.03-.01-.05-.01-.07-.02-.02 0-.05-.01-.07-.02-.02-.01-.04-.03-.06-.04a.218.218 0 0 1-.05-.04c-.02-.02-.04-.03-.05-.05l-.05-.05c-.01-.02-.03-.04-.04-.06l-.17-.54Zm5 3.61c-.15 0-.31.01-.46.02l-.46.03c-.15.02-.3.03-.46.05-.15.02-.3.05-.45.07l-.32.06c-.1.02-.2.05-.31.08l-.3.09-.3.12c-.07.03-.13.06-.2.09l-.18.12c-.06.04-.11.09-.16.14-.06.05-.1.1-.15.16-.03.05-.07.1-.09.15-.03.05-.05.11-.07.16-.02.06-.03.12-.04.17-.01.06-.01.12-.01.18v.15c.01.05.01.11.02.16s.02.1.04.15a1.213 1.213 0 0 0 .11.26c.02.03.04.07.07.1.03.04.06.07.08.1.03.03.07.06.1.09s.07.05.1.08l.12.06.12.06c.04.01.08.03.12.04l.14.03c.05.01.09.02.14.02.05.01.1.01.15.02h.33c.06-.01.12-.01.19-.02.06 0 .12-.01.18-.02.07-.01.13-.03.19-.04.06-.01.11-.03.17-.05.05-.01.1-.03.16-.05.05-.02.1-.04.16-.07.05-.02.1-.04.15-.07.05-.03.1-.05.15-.08l.15-.09c.05-.03.09-.06.14-.1.05-.03.09-.06.14-.1.05-.04.1-.08.14-.12.05-.04.09-.08.14-.12.04-.04.09-.08.13-.13.05-.04.09-.09.13-.13V37.5ZM355.6 29c.17 0 .35 0 .52.01.17.01.35.02.52.05.17.02.34.05.51.08.17.04.34.08.51.13.13.04.26.08.39.14.13.05.25.11.38.17.12.07.24.14.35.22.11.08.22.16.33.25.09.08.18.17.27.26.08.1.16.2.23.3.08.1.14.21.2.32.06.11.11.22.16.34.05.13.09.26.13.39.03.13.06.26.09.4.02.13.04.27.05.4.01.14.01.27.01.41 0 .14 0 .27-.01.41l-.06.4c-.03.13-.06.27-.1.4-.03.13-.08.25-.13.38a3.778 3.778 0 0 1-.37.67 3.762 3.762 0 0 1-.52.58c-.11.09-.22.18-.33.26-.12.08-.24.15-.36.22s-.25.13-.38.18c-.12.06-.26.11-.39.15-.16.05-.32.1-.49.13-.16.04-.33.07-.5.1-.17.02-.33.04-.5.05-.17.01-.34.01-.51.01h-2v4.67h-1.68V29h3.68Zm0 6.48c.11 0 .22 0 .32-.01.11 0 .22-.02.33-.03l.32-.06.31-.09c.09-.03.17-.06.25-.1l.24-.12c.08-.05.16-.1.23-.15.07-.05.14-.11.21-.17l.18-.18c.05-.06.1-.13.15-.2.05-.07.09-.14.13-.21.04-.08.08-.15.11-.23.03-.08.06-.17.08-.25.03-.09.05-.18.07-.27l.03-.26c.01-.09.01-.18.01-.27.01-.17 0-.35-.03-.52-.02-.17-.07-.34-.13-.5-.07-.16-.15-.31-.25-.45-.09-.15-.2-.28-.33-.4-.16-.12-.33-.23-.5-.32-.18-.09-.37-.17-.56-.22-.19-.06-.38-.1-.58-.12-.2-.02-.4-.03-.6-.01h-2v5.14h2.01Z" class="shp0"/>
  <path d="M363.32 34.42c.06-.13.12-.27.19-.39.07-.13.15-.26.23-.37.09-.12.18-.24.27-.35.1-.11.2-.21.31-.31.1-.09.21-.16.33-.23.12-.06.24-.12.37-.16.13-.04.26-.08.39-.1.13-.02.27-.02.4-.02h.14c.04.01.09.01.13.01.05.01.09.02.14.02l.13.03.12.03c.04.02.08.03.12.05.04.01.07.03.11.05.04.02.07.04.11.06l-.11 1.16c0 .03-.01.06-.03.09-.01.03-.03.05-.06.07-.02.02-.05.04-.08.05-.03.01-.06.01-.09.01s-.06 0-.09-.01c-.03 0-.06 0-.09-.01-.03 0-.06 0-.09-.01s-.06-.01-.09-.02a.585.585 0 0 0-.13-.02c-.05-.01-.09-.01-.13-.02-.05 0-.09-.01-.14-.01h-.32l-.19.03-.19.03-.18.06c-.05.02-.11.04-.16.07-.05.02-.1.05-.15.08-.05.03-.09.06-.14.1-.04.03-.09.07-.13.11-.05.04-.09.09-.13.13l-.12.15c-.04.05-.08.1-.11.15-.04.05-.07.11-.1.16-.04.06-.07.13-.11.2-.03.06-.06.13-.09.2-.03.06-.06.13-.09.2s-.06.14-.08.21v5.58h-1.56v-8.83h.98c.03 0 .06.01.09.02.03 0 .06.02.09.03.03.01.06.03.08.05.02.02.04.05.05.07.02.03.03.06.04.08l.03.09c0 .03.01.06.01.09l.12 1.34Zm6.84-4.55c0 .04 0 .07-.01.11 0 .03 0 .07-.01.1-.01.04-.02.08-.03.11-.01.03-.03.07-.04.1-.01.03-.03.06-.05.1-.02.03-.03.06-.05.09-.02.02-.05.05-.07.08-.02.03-.05.05-.07.08a.5.5 0 0 1-.08.07.55.55 0 0 1-.09.07c-.03.02-.06.04-.09.05-.03.02-.07.04-.1.05-.04.02-.07.04-.11.05-.04.01-.08.03-.12.04-.04.01-.08.01-.12.02-.04.01-.08.01-.12.01-.04 0-.07 0-.11-.01-.03 0-.07 0-.1-.01-.04-.01-.08-.02-.11-.03-.03-.01-.07-.03-.1-.04a.405.405 0 0 1-.09-.05c-.03-.01-.06-.03-.09-.05a.572.572 0 0 1-.08-.07.27.27 0 0 1-.08-.07.5.5 0 0 1-.07-.08c-.02-.03-.05-.05-.07-.08-.02-.03-.03-.06-.05-.09-.02-.04-.04-.07-.05-.1-.01-.03-.03-.07-.04-.1-.01-.03-.02-.07-.03-.11-.01-.03-.01-.07-.01-.1-.01-.04-.01-.07-.01-.11 0-.04 0-.07.01-.11 0-.04.01-.07.01-.11l.03-.11c.01-.03.03-.07.04-.1.01-.03.03-.07.05-.1.01-.03.03-.06.05-.09a.55.55 0 0 1 .07-.09.5.5 0 0 1 .07-.08c.02-.03.05-.05.08-.07.02-.02.05-.05.08-.07.03-.02.06-.03.09-.05.03-.02.06-.04.09-.05.03-.01.07-.03.1-.04.03-.01.07-.02.11-.03.03-.01.07-.01.1-.01.04-.01.07-.01.11-.01.04 0 .07 0 .11.01.04 0 .07.01.11.01l.11.03c.03.01.07.03.1.04.03.01.07.03.1.05.03.01.06.03.09.05.03.02.06.04.09.07a.5.5 0 0 1 .08.07c.03.03.05.05.07.08.03.03.05.06.07.09.02.03.04.06.05.09.02.03.04.07.05.1.02.03.03.06.05.09.01.04.03.07.04.1.01.04.02.07.02.11.01.03.02.06.02.1Zm-.33 2.77v8.83h-1.55v-8.82l1.55-.01Zm2.55 8.84v-8.83h.93c.05 0 .1 0 .14.01.05.02.09.04.13.07.04.03.07.06.09.11.03.04.04.08.05.13l.11.91c.08-.1.16-.19.24-.28l.27-.27c.09-.08.19-.16.28-.24.1-.07.21-.14.31-.21.11-.06.22-.12.33-.17.11-.05.23-.09.35-.12.12-.03.24-.06.36-.07.12-.02.25-.02.37-.02.13-.01.26 0 .39.02s.25.05.38.09c.12.05.24.1.35.17.11.06.22.14.32.22.1.09.19.19.27.29.08.1.16.21.23.32.06.12.12.23.17.36.05.12.1.24.13.37.03-.08.06-.15.1-.22.03-.07.07-.15.11-.22.04-.07.09-.13.13-.2.05-.06.1-.13.15-.19.05-.06.1-.11.15-.16.05-.06.11-.11.16-.16.06-.05.12-.09.18-.14l.18-.12c.06-.04.13-.07.19-.11.06-.03.13-.06.2-.09.06-.02.13-.05.2-.07l.21-.06c.07-.02.14-.03.21-.05l.22-.03c.07-.01.14-.02.21-.02.08-.01.15-.01.22-.01.11 0 .21 0 .32.01.1.01.21.02.31.04s.21.04.31.07c.1.03.2.06.3.1.09.04.17.08.26.12l.24.15c.07.06.15.12.22.18s.14.13.2.2c.07.08.13.16.19.24.05.08.11.17.15.25a2.437 2.437 0 0 1 .24.56c.03.11.07.23.09.35.03.12.05.23.07.35l.03.36c.01.12.01.24.01.36v5.62h-1.54v-5.6c.01-.14.01-.28-.01-.42a1.89 1.89 0 0 0-.08-.4c-.03-.14-.08-.27-.15-.39-.06-.13-.13-.25-.21-.36-.08-.09-.17-.17-.27-.24a1.536 1.536 0 0 0-.67-.28 1.56 1.56 0 0 0-.37-.02c-.06 0-.12 0-.19.01-.06 0-.12.01-.18.02s-.12.03-.18.04l-.18.06c-.06.02-.11.05-.17.08-.05.02-.1.05-.16.09-.05.03-.1.07-.14.11-.05.04-.1.08-.14.12-.05.05-.09.1-.13.15-.04.05-.08.1-.11.16-.03.05-.07.11-.09.17-.03.06-.06.12-.08.18-.03.07-.05.15-.07.22-.02.08-.03.16-.05.23-.01.08-.02.16-.02.24-.01.07-.01.15-.01.23v5.62h-1.56v-5.62c.01-.14.01-.28 0-.42-.02-.14-.04-.28-.08-.41-.04-.14-.08-.27-.14-.4-.06-.12-.13-.24-.21-.36-.08-.09-.16-.17-.26-.24-.09-.06-.2-.12-.3-.17-.11-.04-.22-.07-.34-.09-.12-.02-.23-.03-.35-.02-.09 0-.19.01-.28.02-.09.01-.18.03-.27.06-.09.03-.18.06-.26.1-.09.04-.17.08-.25.13a4.235 4.235 0 0 0-.49.38 4.465 4.465 0 0 0-.41.46v6.58l-1.56.01Z" class="shp0"/>
  <path fill-rule="evenodd" d="M393.88 40.24a2.495 2.495 0 0 1-.32.33l-.18.15-.19.13-.21.12c-.07.04-.14.08-.21.11-.07.04-.14.07-.22.1-.07.03-.14.06-.22.09-.08.03-.15.05-.23.08-.08.02-.16.05-.24.07-.08.02-.16.04-.24.05-.08.02-.16.04-.24.05-.08.01-.17.03-.25.04-.08.01-.16.01-.25.02-.08.01-.17.01-.25.02h-.25c-.14 0-.29 0-.43-.02-.15-.01-.29-.03-.43-.05-.14-.03-.28-.06-.42-.1a4.93 4.93 0 0 1-.41-.14c-.13-.05-.25-.11-.37-.17-.12-.06-.23-.14-.35-.21-.11-.08-.21-.16-.32-.25-.1-.09-.2-.18-.29-.28-.1-.11-.19-.22-.28-.33l-.24-.36a4.761 4.761 0 0 1-.36-.79c-.05-.16-.1-.32-.14-.49-.04-.16-.07-.33-.1-.5-.03-.16-.04-.33-.06-.5-.01-.17-.01-.34-.01-.51 0-.15 0-.29.01-.44.02-.15.03-.29.06-.44.02-.14.05-.29.08-.43.04-.14.08-.28.13-.42.04-.13.09-.25.15-.38.06-.12.12-.24.19-.36.07-.11.14-.23.22-.34a3.833 3.833 0 0 1 .55-.59c.1-.09.2-.17.31-.25.11-.08.22-.15.34-.21a3.523 3.523 0 0 1 .78-.33c.14-.05.28-.08.43-.11.14-.03.29-.05.44-.06.14-.02.29-.02.44-.02.13 0 .25 0 .38.02.12.01.24.02.37.05.12.02.24.05.36.08s.24.07.36.12c.11.04.22.09.32.14.11.06.21.12.31.18.09.07.19.14.28.21.09.08.18.16.26.24.08.09.16.18.24.28.08.09.15.2.21.3.06.1.12.21.18.32.05.11.1.22.14.34.05.13.09.27.13.41l.09.42c.02.14.04.28.05.42.01.14.01.29.01.43v.13c0 .04 0 .08-.01.12l-.03.12c-.01.04-.02.08-.04.12l-.06.06c-.02.01-.05.03-.07.04-.03.01-.06.02-.09.02h-5.98c0 .12.01.25.02.37s.02.25.04.37.05.24.07.36c.03.12.06.24.1.36.03.09.07.18.1.27.04.09.09.17.14.26.04.08.1.16.15.24.06.08.12.16.18.23s.12.13.19.19.14.12.21.17c.07.05.15.1.23.14.08.05.16.09.24.12.09.04.18.07.27.09.1.03.19.05.28.07.1.02.2.03.29.04.1.01.19.01.29.01h.25l.25-.03c.09-.01.17-.02.25-.04.09-.02.17-.04.25-.06.06-.02.12-.04.19-.06.06-.02.12-.05.18-.07.06-.02.12-.05.18-.08.06-.02.12-.05.18-.08.04-.02.09-.04.13-.07.04-.02.09-.04.13-.07.04-.02.08-.05.13-.07.04-.03.08-.05.12-.08.03-.02.05-.04.08-.05.03-.02.06-.03.08-.05.03-.01.06-.02.1-.02a.277.277 0 0 1 .18-.01c.03 0 .05.01.08.03.03.01.05.02.07.04.02.02.04.05.06.07l.48.56Zm-1.25-4.14c0-.08 0-.17-.01-.25 0-.09-.01-.17-.02-.26-.02-.08-.03-.16-.05-.25-.02-.08-.04-.16-.07-.24-.02-.07-.05-.14-.08-.21-.03-.07-.07-.14-.11-.2a.76.76 0 0 0-.12-.19c-.04-.06-.09-.12-.14-.18-.05-.05-.1-.11-.16-.16-.05-.05-.11-.09-.17-.13a1.865 1.865 0 0 0-.38-.22c-.23-.09-.46-.14-.7-.17-.24-.02-.49-.01-.72.03-.24.04-.48.11-.69.22-.22.1-.43.23-.61.39-.12.12-.22.25-.31.39-.1.14-.18.29-.25.44-.07.15-.12.31-.16.48-.05.16-.08.32-.09.49l4.84.02Z" class="shp0"/>
  <path d="M397.89 29.87c0 .04 0 .07-.01.11 0 .03 0 .07-.01.1-.01.04-.02.08-.03.11-.01.03-.03.07-.04.1-.01.03-.03.06-.05.1-.02.03-.03.06-.05.09-.02.02-.05.05-.07.08-.02.03-.05.05-.07.08-.03.03-.05.05-.08.07a.55.55 0 0 1-.09.07c-.03.02-.06.04-.09.05-.03.02-.07.04-.1.05-.03.01-.07.03-.1.04l-.11.03c-.04 0-.07.01-.11.01-.04.01-.07.01-.11.01-.04 0-.07 0-.11-.01-.03 0-.07 0-.1-.01a1.64 1.64 0 0 1-.11-.03c-.03-.01-.07-.03-.1-.04-.03-.01-.06-.03-.09-.05a.405.405 0 0 1-.09-.05c-.03-.02-.06-.05-.08-.07a.27.27 0 0 1-.08-.07c-.03-.03-.05-.05-.07-.08-.02-.03-.05-.05-.07-.08-.02-.03-.03-.06-.05-.09-.02-.04-.04-.07-.05-.1-.01-.03-.03-.07-.04-.1a1.64 1.64 0 0 1-.03-.11c-.01-.03-.01-.07-.01-.1-.01-.04-.01-.07-.01-.11 0-.04 0-.07.01-.11 0-.04.01-.07.01-.11l.03-.11c.01-.03.03-.07.04-.1.01-.03.03-.07.05-.1.01-.03.03-.06.05-.09a.55.55 0 0 1 .07-.09.5.5 0 0 1 .07-.08c.02-.03.05-.05.08-.07.02-.02.05-.05.08-.07.03-.02.06-.03.09-.05.03-.02.06-.04.09-.05.03-.01.07-.03.1-.04.03-.01.07-.02.11-.03.03-.01.07-.01.1-.01.04-.01.07-.01.11-.01.04 0 .07 0 .11.01.04 0 .07.01.11.01l.11.03c.03.01.07.03.1.04.03.01.07.03.1.05.03.01.06.03.09.05.03.02.06.04.09.07a.5.5 0 0 1 .08.07c.03.03.05.05.07.08.03.03.05.06.07.09.02.03.04.06.05.09.02.03.04.07.05.1.02.03.03.07.04.1l.03.11c.01.04.01.07.02.11v.11Zm-.33 2.77v8.83H396v-8.82l1.56-.01Zm4.02 1.78c.06-.13.12-.27.19-.39.07-.13.15-.26.23-.37.09-.12.18-.24.27-.35.1-.11.2-.21.31-.31.1-.09.21-.16.33-.23.12-.06.24-.12.37-.16.13-.04.26-.08.39-.1.13-.02.27-.02.4-.02h.14c.04.01.09.01.13.01.05.01.09.02.14.02l.13.03.12.03c.04.02.08.03.12.05.04.01.07.03.11.05.04.02.07.04.11.06L405 33.9c0 .03-.01.06-.03.09-.01.03-.03.05-.06.07-.02.02-.05.04-.08.05-.03.01-.06.01-.09.01s-.06 0-.09-.01c-.03 0-.06 0-.09-.01-.03 0-.06 0-.09-.01s-.06-.01-.09-.02a.585.585 0 0 0-.13-.02c-.05-.01-.09-.01-.13-.02-.05 0-.09-.01-.14-.01h-.32l-.19.03-.19.03-.18.06c-.05.02-.11.04-.16.07-.05.02-.1.05-.15.08-.05.03-.09.06-.14.1-.04.03-.09.07-.13.11-.05.04-.09.09-.13.13l-.12.15c-.04.05-.08.1-.11.15-.04.05-.07.11-.1.16-.04.06-.07.13-.11.2-.03.06-.06.13-.09.2-.03.06-.06.13-.09.2s-.06.14-.08.21v5.58h-1.56v-8.83h.96c.03 0 .06.01.09.02.03 0 .06.02.09.03.03.01.06.03.08.05.02.02.04.05.05.07.02.03.03.06.04.08l.03.09c0 .03.01.06.01.09l.1 1.34Z" class="shp0"/>
  <path fill-rule="evenodd" d="M406.09 33.89c.11-.11.23-.22.36-.32.12-.1.25-.19.38-.28.13-.09.27-.17.41-.25.14-.07.28-.14.43-.2.15-.06.3-.11.45-.16.16-.04.31-.08.47-.11.15-.03.31-.05.47-.06.16-.02.32-.02.48-.02a3.86 3.86 0 0 1 .67.05c.11.02.22.05.33.08.11.03.22.07.32.11.09.04.19.08.28.13.09.04.17.1.26.15.08.06.16.12.24.19.08.06.15.14.22.21.07.08.13.16.19.24.06.08.11.17.16.25a2.437 2.437 0 0 1 .24.56l.09.33c.03.12.05.23.06.34a4.165 4.165 0 0 1 .05.69v5.65h-.78c-.03 0-.06-.01-.09-.01a.292.292 0 0 0-.09-.02c-.03-.01-.05-.03-.08-.04-.02-.02-.05-.04-.07-.06-.02-.02-.03-.04-.05-.07a.201.201 0 0 1-.04-.08.689.689 0 0 1-.03-.08l-.17-.84c-.05.05-.11.1-.16.15l-.17.14a11.84 11.84 0 0 1-.35.28c-.05.04-.11.08-.17.12-.05.04-.11.07-.17.11-.06.03-.12.07-.18.1l-.18.09c-.06.03-.13.06-.19.08-.06.03-.13.05-.19.07l-.2.06c-.07.02-.13.04-.2.05-.08.02-.15.03-.23.04l-.23.03c-.07.01-.15.01-.23.02h-.23c-.08 0-.17 0-.25-.01-.09 0-.17-.01-.26-.02-.08-.01-.16-.03-.24-.05-.09-.01-.17-.04-.25-.06-.07-.02-.14-.05-.21-.08l-.21-.09c-.06-.04-.13-.08-.19-.12-.06-.05-.12-.09-.18-.14-.06-.05-.11-.1-.16-.16-.05-.05-.1-.11-.15-.17-.04-.07-.08-.13-.12-.2-.04-.06-.07-.13-.1-.2l-.09-.24-.06-.25c-.02-.08-.03-.17-.04-.25-.01-.09-.01-.17-.01-.26s.01-.18.02-.26c.01-.09.03-.18.06-.26.02-.08.05-.17.09-.25.03-.08.07-.16.12-.23.06-.09.12-.18.19-.26.07-.08.14-.16.22-.23.08-.07.16-.14.25-.2s.18-.12.27-.17c.13-.07.27-.14.4-.2.14-.06.28-.12.42-.17.14-.05.28-.09.42-.13.15-.04.29-.08.44-.11l.63-.12c.21-.03.42-.06.63-.08.22-.02.43-.04.64-.05.21-.01.43-.02.64-.02v-.69c.01-.14.01-.28 0-.41-.02-.14-.04-.28-.08-.41a3.12 3.12 0 0 0-.15-.39c-.06-.12-.13-.24-.21-.35-.08-.09-.17-.17-.27-.24-.1-.07-.21-.13-.32-.18-.11-.04-.23-.07-.35-.09-.12-.02-.24-.03-.36-.02h-.25c-.09 0-.17.01-.26.02-.08.02-.16.03-.25.05a2.172 2.172 0 0 0-.41.14c-.06.02-.12.05-.17.07-.06.03-.11.06-.17.09-.05.03-.11.06-.16.09l-.49.32-.09.06c-.04.02-.07.03-.1.04l-.11.03c-.04.01-.07.01-.11.01h-.07c-.03-.01-.05-.01-.07-.02-.02 0-.05-.01-.07-.02-.02-.01-.04-.03-.06-.04-.02-.01-.04-.03-.05-.04-.02-.02-.04-.03-.05-.05l-.05-.05c-.01-.02-.03-.04-.04-.06l-.23-.54Zm5 3.61c-.15 0-.31.01-.46.02l-.46.03c-.15.02-.3.03-.46.05-.15.02-.3.05-.45.07-.11.01-.22.03-.32.05-.11.02-.22.05-.32.08-.11.02-.21.05-.31.09-.11.03-.21.07-.31.11-.07.03-.13.06-.2.09l-.18.12c-.06.04-.11.09-.16.14-.06.05-.1.1-.15.16-.03.05-.07.1-.09.15-.03.05-.05.11-.07.16-.02.06-.03.12-.04.17-.01.06-.01.12-.01.18v.15c.01.05.01.11.02.16s.02.1.04.15c.01.04.03.09.05.14l.06.12c.02.03.04.07.07.1.03.04.06.07.09.1.02.03.06.06.09.09s.07.05.1.08l.12.06.12.06c.04.01.08.03.12.04l.14.03c.05.01.09.02.14.02.05.01.1.01.15.02h.33c.06-.01.12-.01.19-.02.06 0 .12-.01.18-.02.07-.01.13-.03.19-.04.06-.01.11-.03.17-.05.05-.01.1-.03.16-.05.05-.02.1-.04.16-.07.05-.02.1-.04.15-.07.05-.03.1-.05.15-.08l.15-.09c.05-.03.09-.06.14-.1.05-.03.09-.06.14-.1.05-.04.1-.08.14-.12.05-.04.09-.08.14-.12.04-.04.09-.08.13-.13.05-.04.09-.09.13-.13l.03-1.8Z" class="shp0"/>
  <path d="M421.5 41.48h-1.69V29h1.69v12.48Zm4.16-7.55c.05-.05.09-.1.14-.15l.15-.15c.05-.05.11-.1.16-.14.05-.05.11-.1.16-.14.05-.04.11-.08.16-.13l.17-.11c.06-.04.11-.08.17-.11a3.439 3.439 0 0 1 .37-.19c.06-.03.12-.05.19-.08.06-.02.13-.04.19-.06.07-.03.13-.04.2-.06.07-.02.14-.03.22-.04.07-.02.14-.03.22-.04.07 0 .14-.01.22-.02h.22a3.637 3.637 0 0 1 .65.05c.11.02.22.05.32.08.11.03.21.07.31.11.09.04.17.08.26.13.08.05.16.1.24.16.08.05.15.12.22.18.07.07.14.14.2.21l.18.24c.06.09.11.17.15.26.05.09.09.18.13.28.04.09.07.18.1.28.03.11.06.22.09.34.02.11.04.22.06.34l.03.34c.01.12.01.23.01.35v5.62H430v-5.63c.01-.14.01-.28-.01-.41-.02-.14-.04-.28-.08-.41a3.12 3.12 0 0 0-.15-.39c-.07-.12-.14-.24-.22-.35-.09-.1-.18-.18-.29-.25-.11-.08-.22-.14-.34-.19a2.54 2.54 0 0 0-.37-.1c-.13-.02-.26-.02-.39-.01-.11 0-.22.01-.34.02-.11.01-.22.03-.33.06-.11.03-.21.06-.32.11-.1.04-.2.09-.3.14-.1.06-.2.12-.3.19-.1.07-.2.14-.29.21-.09.08-.18.16-.26.24-.09.08-.17.17-.25.26v6.5h-1.56v-8.82h.93c.05 0 .1 0 .14.01.05.02.09.04.13.07.04.03.07.06.09.11.03.04.04.08.05.13l.12.96Zm8.7 7.55V34l-1-.11c-.03-.01-.05-.01-.08-.02s-.05-.02-.08-.03c-.02-.01-.05-.02-.07-.04-.02-.01-.05-.02-.07-.04-.02-.02-.04-.03-.05-.05-.02-.02-.03-.05-.04-.07-.01-.02-.02-.05-.03-.07v-.72h1.39V32a3.86 3.86 0 0 1 .05-.68c.01-.12.04-.23.06-.34.03-.11.06-.22.1-.33.03-.09.07-.18.11-.27.04-.09.09-.18.14-.26.05-.09.11-.17.17-.25.06-.07.12-.15.19-.22a2 2 0 0 1 .22-.19c.08-.06.16-.12.25-.17.08-.05.17-.1.26-.14.08-.04.18-.08.27-.11.1-.04.2-.07.3-.09.11-.03.21-.05.32-.07.1-.02.21-.03.31-.04.11-.01.21-.01.32-.01.09 0 .18 0 .28.01.09 0 .18.01.27.03.09.01.18.03.27.05.09.02.18.05.27.08v.78c0 .03-.01.06-.02.09a.18.18 0 0 1-.05.07.18.18 0 0 1-.07.05c-.03.01-.06.02-.09.02h-.75c-.07.01-.13.01-.19.02l-.18.03c-.06.02-.12.03-.18.05l-.15.06c-.05.02-.1.05-.15.08-.05.02-.09.06-.14.09-.04.03-.08.07-.12.11-.04.04-.08.09-.12.14-.03.05-.07.1-.1.15-.03.05-.05.1-.08.16-.02.06-.04.11-.06.17-.02.08-.05.16-.06.25-.02.08-.04.16-.05.24-.01.09-.01.17-.02.26v1.06h2.55V34h-2.49v7.53l-1.61-.05Z" class="shp0"/>
  <path fill-rule="evenodd" d="M439.61 33.89c.11-.11.23-.22.36-.32.12-.1.25-.19.38-.28.13-.09.27-.17.41-.25.14-.07.28-.14.43-.2.15-.06.3-.11.45-.16.16-.04.31-.08.47-.11.15-.03.31-.05.47-.06.16-.02.32-.02.48-.02a3.86 3.86 0 0 1 .67.05c.11.02.22.05.33.08.11.03.22.07.32.11.09.04.19.08.28.13.09.04.17.1.26.15.08.06.16.12.24.19.08.06.15.14.22.21.07.08.13.16.19.24.06.08.11.17.16.25a2.437 2.437 0 0 1 .24.56l.09.33c.03.12.05.23.06.34a4.165 4.165 0 0 1 .05.69v5.65h-.78c-.03 0-.06-.01-.09-.01a.292.292 0 0 0-.09-.02c-.03-.01-.05-.03-.08-.04-.02-.02-.05-.04-.07-.06-.02-.02-.03-.04-.05-.07-.02-.02-.03-.05-.04-.08a.689.689 0 0 1-.03-.08l-.17-.84c-.05.05-.11.1-.16.15l-.17.14a11.84 11.84 0 0 1-.35.28c-.05.04-.11.08-.17.12-.05.04-.11.07-.17.11-.06.03-.12.07-.18.1l-.18.09c-.06.03-.13.06-.19.08-.06.03-.13.05-.19.07l-.2.06c-.07.02-.13.04-.2.05-.08.02-.15.03-.23.04l-.23.03c-.07.01-.15.01-.23.02h-.23c-.08 0-.17 0-.25-.01-.09 0-.17-.01-.26-.02-.08-.01-.16-.03-.24-.05-.09-.01-.17-.04-.25-.06-.07-.02-.14-.05-.21-.08l-.21-.09c-.06-.04-.13-.08-.19-.12-.06-.05-.12-.09-.18-.14-.06-.05-.11-.1-.16-.16-.05-.05-.1-.11-.15-.17-.04-.07-.08-.13-.12-.2-.04-.06-.07-.13-.1-.2l-.09-.24-.06-.25c-.02-.08-.03-.17-.04-.25-.01-.09-.01-.17-.01-.26s.01-.18.02-.26c.01-.09.03-.18.06-.26.02-.08.05-.17.09-.25.03-.08.07-.16.12-.23.06-.09.12-.18.19-.26.07-.08.14-.16.22-.23.08-.07.16-.14.25-.2s.18-.12.27-.17c.13-.07.27-.14.4-.2.14-.06.28-.12.42-.17.14-.05.28-.09.42-.13.15-.04.29-.08.44-.11l.63-.12c.21-.03.42-.06.63-.08.22-.02.43-.04.64-.05.21-.01.43-.02.64-.02v-.69c.01-.14.01-.28 0-.41-.02-.14-.04-.28-.08-.41a3.12 3.12 0 0 0-.15-.39c-.06-.12-.13-.24-.21-.35-.08-.09-.17-.17-.27-.24-.1-.07-.21-.13-.32-.18-.11-.04-.23-.07-.35-.09-.12-.02-.24-.03-.36-.02h-.25c-.09 0-.17.01-.26.02-.08.02-.16.03-.25.05a2.172 2.172 0 0 0-.41.14c-.06.02-.12.05-.17.07-.06.03-.11.06-.17.09-.05.03-.11.06-.16.09l-.49.32-.09.06a.69.69 0 0 1-.1.04l-.11.03c-.04.01-.07.01-.11.01h-.07c-.03-.01-.05-.01-.07-.02-.02 0-.05-.01-.07-.02-.02-.01-.04-.03-.06-.04-.02-.01-.04-.03-.05-.04-.02-.02-.04-.03-.05-.05l-.05-.05c-.01-.02-.03-.04-.04-.06l-.23-.54Zm5.93-2.61h-1c-.02 0-.03 0-.05.01h-.1c-.02-.01-.03-.01-.05-.01-.02-.01-.04-.01-.06-.02a.219.219 0 0 0-.05-.03.218.218 0 0 0-.05-.04l-.04-.04L443 30l-.04-.04c-.01-.01-.02-.03-.04-.04-.01-.01-.02-.03-.03-.04-.01-.02-.02-.03-.03-.05l-.08.09-.07.08-1.08 1.15a.467.467 0 0 1-.18.12c-.03.02-.07.03-.1.04-.04 0-.07.01-.11.01h-1.07l1.94-2.3h1.45l1.98 2.26Zm-.92 6.21c-.15 0-.31.01-.46.02l-.46.03c-.15.02-.3.03-.46.05-.15.02-.3.05-.45.07l-.32.06c-.1.02-.2.05-.31.08l-.3.09-.3.12c-.07.03-.13.06-.2.09l-.18.12c-.06.04-.11.09-.16.14-.06.05-.1.1-.15.16-.03.05-.07.1-.09.15-.03.05-.05.11-.07.16-.02.06-.03.12-.04.17-.01.06-.01.12-.01.18v.15c.01.05.01.11.02.16s.02.1.04.15c.01.04.03.09.05.14l.06.12c.02.03.04.07.07.1.03.04.06.07.09.1.02.03.06.06.09.09s.07.05.1.08l.12.06.12.06c.04.01.08.03.12.04l.14.03c.05.01.09.02.14.02.05.01.1.01.15.02h.33c.06-.01.12-.01.19-.02.06 0 .12-.01.18-.02.07-.01.13-.03.19-.04.06-.01.11-.03.17-.05.05-.01.1-.03.16-.05.05-.02.1-.04.16-.07.05-.02.1-.04.15-.07.05-.03.1-.05.15-.08l.15-.09c.05-.03.09-.06.14-.1.05-.03.09-.06.14-.1.05-.04.1-.08.14-.12.05-.04.09-.08.14-.12.04-.04.09-.08.13-.13.05-.04.09-.09.13-.13v-1.82Z" class="shp0"/>
  <path d="M450 33.93c.05-.05.09-.1.14-.15l.15-.15c.05-.05.11-.1.16-.14.05-.05.11-.1.16-.14.05-.04.11-.08.16-.13l.17-.11c.06-.04.11-.08.17-.11a3.439 3.439 0 0 1 .37-.19c.06-.03.12-.05.19-.08.06-.02.13-.04.19-.06.07-.03.13-.04.2-.06.07-.02.14-.03.22-.04.07-.02.14-.03.22-.04.07 0 .14-.01.22-.02h.22a3.637 3.637 0 0 1 .65.05c.11.02.22.05.32.08.11.03.21.07.31.11.09.04.17.08.26.13.08.05.16.1.24.16.08.05.15.12.22.18.07.07.14.14.2.21l.18.24c.06.09.11.17.15.26.05.09.09.18.13.28.04.09.07.18.1.28.03.11.06.22.09.34.02.11.04.22.06.34l.03.34c.01.12.01.23.01.35v5.62h-1.59v-5.63c.01-.14.01-.28-.01-.41-.02-.14-.04-.28-.08-.41a3.12 3.12 0 0 0-.15-.39c-.07-.12-.14-.24-.22-.35-.09-.1-.18-.18-.29-.25-.11-.08-.22-.14-.34-.19a2.54 2.54 0 0 0-.37-.1c-.13-.02-.26-.02-.39-.01-.11 0-.22.01-.34.02-.11.01-.22.03-.33.06-.11.03-.21.06-.32.11-.1.04-.2.09-.3.14-.1.06-.2.12-.3.19-.1.07-.2.14-.29.21-.09.08-.18.16-.26.24-.09.08-.17.17-.25.26v6.5h-1.56v-8.82h.93c.05 0 .1 0 .14.01.05.02.09.04.13.07.04.03.07.06.09.11.03.04.04.08.05.13l.16.96Zm14.38.29c-.01.01-.02.03-.03.04-.01.01-.02.03-.03.04-.02.01-.03.02-.04.04-.01.01-.03.02-.04.03-.01.01-.03.02-.04.02-.02.01-.03.02-.05.02-.02 0-.03.01-.05.01h-.05c-.03 0-.05-.01-.08-.01-.02-.01-.05-.01-.07-.02a.161.161 0 0 1-.07-.04.161.161 0 0 1-.07-.04l-.39-.24c-.05-.02-.09-.05-.14-.07-.04-.02-.09-.04-.14-.06-.05-.02-.09-.04-.14-.06-.05-.02-.1-.03-.15-.05a2.897 2.897 0 0 0-1.01-.11c-.17.01-.34.03-.51.07-.16.04-.32.09-.48.16-.08.04-.16.08-.24.13-.07.05-.15.1-.22.15-.07.06-.13.12-.19.19-.07.06-.13.13-.18.2-.06.08-.11.16-.17.24-.05.09-.09.17-.14.26-.04.09-.08.18-.11.27-.04.09-.07.19-.09.28-.03.11-.06.23-.08.34-.02.12-.04.23-.05.35-.02.12-.03.23-.03.35-.01.12-.01.23-.01.35 0 .12 0 .24.01.36 0 .12.01.24.03.36.01.12.03.24.06.36.02.12.05.23.08.35l.09.27c.04.08.08.17.12.25.05.09.09.17.15.25.05.08.1.16.16.23.05.07.11.13.17.19.06.07.13.12.2.18l.21.15c.07.04.15.08.23.12.08.04.17.07.26.1.08.03.17.05.26.07.09.02.18.03.27.04.1.01.19.01.28.01h.24c.07-.01.15-.01.23-.02.08-.02.16-.03.23-.05.08-.02.16-.04.23-.06.05-.02.11-.04.16-.06.05-.02.1-.05.15-.07.06-.03.11-.05.15-.08l.15-.09.4-.3c.02-.02.04-.04.07-.06.02-.01.05-.03.08-.04.02-.01.05-.02.08-.03.03 0 .06-.01.09-.01s.06 0 .09.01c.03 0 .05.01.08.03.03.01.05.02.07.04.02.02.04.05.06.07l.44.57c-.05.06-.09.12-.15.17-.05.05-.1.11-.15.16-.06.05-.11.1-.17.15-.06.04-.12.09-.18.13-.06.04-.12.08-.19.12-.06.04-.13.08-.19.11-.07.04-.14.07-.2.1l-.21.09c-.07.03-.14.06-.21.08-.08.02-.15.05-.22.07l-.23.06c-.07.01-.14.03-.22.04l-.23.03-.24.03c-.08.01-.16.01-.23.01-.08.01-.16.01-.24.01-.13 0-.26 0-.39-.02-.14-.01-.27-.03-.4-.06-.13-.02-.25-.05-.38-.09a3.592 3.592 0 0 1-.71-.31 3.447 3.447 0 0 1-.62-.44c-.1-.09-.19-.18-.27-.27-.09-.1-.18-.2-.26-.31-.08-.11-.16-.22-.23-.33-.07-.12-.13-.24-.19-.36s-.11-.24-.16-.37c-.09-.3-.17-.61-.21-.93a5.99 5.99 0 0 1-.08-.95c0-.31.03-.63.08-.94a5.708 5.708 0 0 1 .35-1.32c.06-.13.12-.25.19-.37.06-.12.14-.24.22-.35.08-.12.16-.22.25-.33.09-.1.18-.2.28-.29a3.956 3.956 0 0 1 .66-.48c.11-.07.24-.13.36-.18.14-.06.28-.11.43-.15.14-.05.29-.08.44-.11.15-.03.3-.05.45-.06.15-.02.3-.02.45-.02.14 0 .28 0 .42.01.14.01.28.03.42.06.13.02.27.05.4.09.14.04.27.09.4.14.12.05.23.11.34.17.12.06.23.12.33.19.11.08.21.15.31.23.1.08.19.17.28.26l-.39.55Zm4.15-4.35c0 .04 0 .07-.01.11 0 .03 0 .07-.01.1-.01.04-.02.08-.03.11-.01.03-.03.07-.04.1-.01.03-.03.06-.05.1-.02.03-.03.06-.05.09-.02.02-.05.05-.07.08-.02.03-.05.05-.07.08a.5.5 0 0 1-.08.07.55.55 0 0 1-.09.07c-.03.02-.06.04-.09.05-.03.02-.07.04-.1.05-.03.01-.07.03-.1.04l-.11.03c-.04 0-.07.01-.11.01-.04.01-.07.01-.11.01-.04 0-.07 0-.11-.01-.03 0-.07 0-.1-.01-.04-.01-.08-.02-.11-.03-.03-.01-.07-.03-.1-.04-.03-.01-.06-.03-.09-.05a.405.405 0 0 1-.09-.05c-.03-.02-.06-.05-.08-.07a.27.27 0 0 1-.08-.07c-.03-.03-.05-.05-.07-.08-.02-.03-.05-.05-.07-.08-.02-.03-.03-.06-.05-.09-.02-.04-.04-.07-.05-.1-.01-.03-.03-.07-.04-.1-.01-.03-.02-.07-.03-.11-.01-.03-.01-.07-.01-.1-.01-.04-.01-.07-.01-.11 0-.04 0-.07.01-.11 0-.04.01-.07.01-.11l.03-.11c.01-.03.03-.07.04-.1.01-.03.03-.07.05-.1.01-.03.03-.06.05-.09a.55.55 0 0 1 .07-.09.5.5 0 0 1 .07-.08.27.27 0 0 1 .08-.07c.02-.02.05-.05.08-.07.03-.02.06-.03.09-.05.03-.02.06-.04.09-.05.03-.01.07-.03.1-.04.03-.01.07-.02.11-.03.03-.01.07-.01.1-.01.04-.01.07-.01.11-.01.04 0 .07 0 .11.01.04 0 .07.01.11.01l.11.03c.03.01.07.03.1.04.03.01.07.03.1.05.03.01.06.03.09.05.03.02.06.04.09.07a.5.5 0 0 1 .08.07.5.5 0 0 1 .07.08c.03.03.05.06.07.09.02.03.04.06.05.09.02.03.04.07.05.1.02.03.03.07.04.1l.03.11c.01.04.01.07.02.11v.11Zm-.33 2.77v8.83h-1.55v-8.82l1.55-.01Z" class="shp0"/>
  <path fill-rule="evenodd" d="M470.52 33.89c.11-.11.23-.22.36-.32.12-.1.25-.19.38-.28.13-.09.27-.17.41-.25.14-.07.28-.14.43-.2.15-.06.3-.11.45-.16.16-.04.31-.08.47-.11.15-.03.31-.05.47-.06.16-.02.32-.02.48-.02a3.86 3.86 0 0 1 .67.05c.11.02.22.05.33.08.11.03.22.07.32.11.09.04.19.08.28.13.09.04.17.1.26.15.08.06.16.12.24.19.08.06.15.14.22.21.07.08.13.16.19.24.06.08.11.17.16.25a2.437 2.437 0 0 1 .24.56l.09.33c.03.12.05.23.06.34a4.165 4.165 0 0 1 .05.69v5.65h-.78c-.03 0-.06-.01-.09-.01a.292.292 0 0 0-.09-.02c-.03-.01-.05-.03-.08-.04-.02-.02-.05-.04-.07-.06-.02-.02-.03-.04-.05-.07-.02-.02-.03-.05-.04-.08a.689.689 0 0 1-.03-.08l-.17-.84c-.05.05-.11.1-.16.15l-.17.14a11.84 11.84 0 0 1-.35.28c-.05.04-.11.08-.17.12-.05.04-.11.07-.17.11-.06.03-.12.07-.18.1l-.18.09c-.06.03-.13.06-.19.08-.06.03-.13.05-.19.07l-.2.06c-.07.02-.13.04-.2.05-.08.02-.15.03-.23.04l-.23.03c-.07.01-.15.01-.23.02h-.23c-.08 0-.17 0-.25-.01-.09 0-.17-.01-.26-.02-.08-.01-.16-.03-.24-.05-.09-.01-.17-.04-.25-.06-.07-.02-.14-.05-.21-.08l-.21-.09c-.06-.04-.13-.08-.19-.12-.06-.05-.12-.09-.18-.14-.06-.05-.11-.1-.16-.16-.05-.05-.1-.11-.15-.17-.04-.07-.08-.13-.12-.2-.04-.06-.07-.13-.1-.2l-.09-.24-.06-.25c-.02-.08-.03-.17-.04-.25-.01-.09-.01-.17-.01-.26s.01-.18.02-.26c.01-.09.03-.18.06-.26.02-.08.05-.17.09-.25.03-.08.07-.16.12-.23.06-.09.12-.18.19-.26.07-.08.14-.16.22-.23.08-.07.16-.14.25-.2s.18-.12.27-.17c.13-.07.27-.14.4-.2.14-.06.28-.12.42-.17.14-.05.28-.09.42-.13.15-.04.29-.08.44-.11l.63-.12c.21-.03.42-.06.63-.08.22-.02.43-.04.64-.05.21-.01.43-.02.64-.02v-.69c.01-.14.01-.28 0-.41-.02-.14-.04-.28-.08-.41a3.12 3.12 0 0 0-.15-.39c-.06-.12-.13-.24-.21-.35-.08-.09-.17-.17-.27-.24-.1-.07-.21-.13-.32-.18-.11-.04-.23-.07-.35-.09-.12-.02-.24-.03-.36-.02h-.25c-.09 0-.17.01-.26.02-.08.02-.16.03-.25.05a2.172 2.172 0 0 0-.41.14c-.06.02-.12.05-.17.07-.06.03-.11.06-.17.09-.05.03-.11.06-.16.09l-.49.32-.09.06c-.04.02-.07.03-.1.04l-.11.03c-.04.01-.07.01-.11.01h-.07c-.03-.01-.05-.01-.07-.02-.02 0-.05-.01-.07-.02-.02-.01-.04-.03-.06-.04a.218.218 0 0 1-.05-.04c-.02-.02-.04-.03-.05-.05l-.05-.05c-.01-.02-.03-.04-.04-.06l-.23-.54Zm5 3.61c-.15 0-.31.01-.46.02l-.46.03c-.15.02-.3.03-.46.05-.15.02-.3.05-.45.07l-.32.06c-.1.02-.2.05-.31.08l-.3.09-.3.12c-.07.03-.13.06-.2.09l-.18.12c-.06.04-.11.09-.16.14-.06.05-.1.1-.15.16-.03.05-.07.1-.09.15-.03.05-.05.11-.07.16-.02.06-.03.12-.04.17-.01.06-.01.12-.01.18v.15c.01.05.01.11.02.16s.02.1.04.15a1.213 1.213 0 0 0 .11.26c.02.03.04.07.07.1.03.04.06.07.08.1.03.03.07.06.1.09s.07.05.1.08l.12.06.12.06c.04.01.08.03.12.04l.14.03c.05.01.09.02.14.02.05.01.1.01.15.02h.33c.06-.01.12-.01.19-.02.06 0 .12-.01.18-.02.07-.01.13-.03.19-.04.06-.01.11-.03.17-.05.05-.01.1-.03.16-.05.05-.02.1-.04.16-.07.05-.02.1-.04.15-.07.05-.03.1-.05.15-.08l.15-.09c.05-.03.09-.06.14-.1.05-.03.09-.06.14-.1.05-.04.1-.08.14-.12.05-.04.09-.08.14-.12.04-.04.09-.08.13-.13.05-.04.09-.09.13-.13V37.5Z" class="shp0"/>
  <path fill-rule="evenodd" d="M84.94 5.63a20.765 20.765 0 0 1 2.75.13 19.937 19.937 0 0 1 2.7.49c.35.08.69.19 1.02.31.34.12.66.25.98.41.33.15.64.32.94.51.3.18.6.38.88.6.24.19.48.4.69.62.22.22.43.45.61.7.19.24.37.5.52.77.16.27.3.54.42.83.13.31.24.63.33.96a10.935 10.935 0 0 1 .37 1.98c.02.34.04.67.03 1.01 0 .24-.01.48-.03.71-.02.24-.06.48-.1.71-.04.24-.09.47-.16.7-.06.23-.14.46-.22.68-.08.23-.18.45-.28.67-.11.21-.22.43-.34.64-.12.2-.25.41-.39.61-.14.19-.29.38-.44.57-.17.2-.34.39-.52.57-.18.19-.37.36-.57.53-.19.17-.39.32-.6.48-.21.15-.43.29-.65.42-.25.15-.5.28-.76.41-.25.13-.51.25-.78.36-.27.1-.54.2-.81.29-.27.09-.55.16-.83.23.61.06 1.22.16 1.81.31.6.15 1.18.35 1.75.6.56.24 1.11.53 1.63.86.52.32 1.01.69 1.47 1.1.39.38.73.81 1.03 1.26.3.46.55.94.75 1.45.2.51.35 1.03.44 1.57.09.54.12 1.09.1 1.63.01.36-.01.72-.04 1.08a9.498 9.498 0 0 1-.42 2.12 8.283 8.283 0 0 1-.83 1.9c-.17.29-.36.57-.56.84-.21.27-.42.52-.66.76-.23.24-.48.47-.74.68a11.447 11.447 0 0 1-1.85 1.2c-.33.16-.66.32-1 .45a14.352 14.352 0 0 1-2.34.66c-.43.09-.87.17-1.31.23-.44.05-.88.09-1.32.12-.44.03-.89.04-1.33.03H74.37V5.63h10.57ZM77 7.73v15.09h8c.37.01.74 0 1.1-.02.37-.02.74-.06 1.1-.12.37-.05.73-.12 1.09-.21.36-.08.71-.18 1.06-.3.28-.09.55-.19.81-.31.27-.12.52-.25.78-.39.25-.15.49-.3.73-.47.23-.17.46-.35.68-.54a6.51 6.51 0 0 0 .96-1.14c.14-.2.27-.42.38-.64.12-.22.22-.45.31-.68.09-.22.17-.44.24-.67.07-.23.12-.46.17-.69.05-.24.08-.47.1-.71.03-.23.04-.47.04-.71.04-.53.01-1.05-.08-1.57a6.75 6.75 0 0 0-.43-1.52c-.21-.48-.46-.94-.77-1.37-.31-.43-.67-.82-1.07-1.16-1.57-1.27-3.99-1.91-7.26-1.91L77 7.73Zm9.22 32.51c3.22 0 5.66-.7 7.31-2.09.42-.36.79-.77 1.11-1.22.32-.44.6-.93.81-1.43.21-.51.37-1.04.46-1.58.1-.55.13-1.1.1-1.65 0-.27-.01-.54-.03-.81-.03-.26-.07-.53-.12-.79-.06-.27-.13-.53-.21-.78a8.37 8.37 0 0 0-.3-.75 6.285 6.285 0 0 0-.82-1.29c-.16-.2-.33-.39-.51-.57-.18-.18-.38-.34-.58-.5-.23-.17-.46-.33-.71-.48-.24-.15-.49-.29-.75-.41-.25-.13-.52-.24-.78-.34-.27-.1-.54-.19-.82-.26-.34-.09-.68-.17-1.02-.24-.34-.06-.68-.12-1.03-.16-.34-.05-.69-.08-1.04-.1-.34-.02-.69-.02-1.04-.02H77v15.47h9.22Z" class="shp1"/>
  <path d="M128.47 10.09a.7.7 0 0 1-.27.32.761.761 0 0 1-.41.12c-.08-.01-.17-.03-.25-.06-.07-.03-.15-.06-.23-.11-.07-.04-.14-.08-.21-.14-.06-.05-.12-.11-.18-.17-.27-.24-.55-.46-.85-.67a10.607 10.607 0 0 0-1.86-1.07c-.33-.15-.66-.28-1-.4-.56-.17-1.13-.3-1.7-.38-.58-.08-1.16-.12-1.75-.11-.58.01-1.16.06-1.74.15-.57.1-1.14.24-1.69.42-.24.08-.47.18-.69.29-.23.11-.45.23-.67.36-.21.13-.42.27-.62.42-.2.16-.39.32-.57.49-.17.16-.33.33-.48.51-.15.18-.29.36-.42.55-.13.19-.25.39-.36.6-.11.2-.21.41-.3.63-.09.22-.17.44-.23.66a5.2 5.2 0 0 0-.17.68c-.04.23-.08.46-.1.69-.02.23-.03.47-.03.7-.01.27 0 .54.03.81.02.27.07.53.14.79s.15.52.26.77c.1.25.22.49.36.72.14.21.28.41.44.6.15.19.32.37.5.55.17.17.36.34.55.49.19.16.39.31.6.44.23.15.46.29.7.43.24.13.48.26.73.38s.5.23.75.34c.25.1.51.2.77.29 1.1.39 2.23.77 3.39 1.16l3.39 1.26c.26.11.53.23.78.35.26.13.51.27.76.41.24.15.48.3.72.46.24.16.47.33.69.51.22.17.42.36.62.55.2.2.38.4.56.62.18.21.34.44.49.67.15.23.29.47.42.72.14.29.26.59.37.9.1.31.19.62.25.94.07.32.12.64.14.97.03.32.04.65.03.97 0 .37-.01.74-.04 1.11-.04.37-.09.74-.15 1.1a12.147 12.147 0 0 1-.6 2.14c-.13.33-.27.65-.43.97-.16.32-.34.62-.53.92-.2.3-.41.59-.63.86-.22.28-.46.54-.71.79-.26.26-.54.5-.83.73-.28.23-.58.45-.89.65-.31.2-.63.38-.96.55-.33.17-.67.32-1.01.45-.4.15-.8.28-1.21.4-.41.11-.83.2-1.25.27-.42.08-.84.13-1.26.16-.43.04-.85.05-1.28.04-.54.01-1.07 0-1.61-.05s-1.07-.13-1.59-.24c-.53-.1-1.05-.24-1.56-.41-.51-.17-1.01-.36-1.5-.59-.44-.21-.86-.45-1.28-.7-.41-.26-.81-.54-1.19-.83-.39-.3-.76-.61-1.12-.94-.35-.34-.69-.68-1.01-1.05l.73-1.14c.04-.06.09-.11.14-.16.06-.05.11-.09.18-.12.06-.04.13-.06.2-.08.07-.02.14-.03.21-.03.06.01.11.02.17.04.05.01.11.04.16.06.05.03.1.06.14.09.05.04.09.08.13.12l.88.77c.35.3.76.63 1.25 1 .13.1.27.19.4.28.14.09.28.18.42.26.14.08.29.16.43.24.14.08.29.15.44.22.18.08.36.16.54.23.18.08.36.15.55.21.18.06.37.12.55.18l.57.15c.23.05.46.1.7.14.23.04.47.08.71.1.23.03.47.05.71.06.23.01.47.01.71.01.33.01.66 0 .99-.03.33-.02.66-.06.99-.12.33-.05.65-.12.97-.21.32-.09.64-.19.95-.3.27-.1.53-.21.79-.34.26-.12.51-.26.75-.41.24-.15.48-.32.71-.49.22-.18.44-.36.65-.56.2-.19.38-.4.56-.62.17-.21.34-.43.49-.67.15-.23.28-.47.41-.72.12-.25.23-.5.33-.76.1-.27.2-.54.27-.81.08-.28.15-.56.2-.84.05-.28.09-.57.12-.85.02-.29.03-.57.03-.86.01-.28 0-.56-.02-.84-.03-.27-.08-.55-.15-.82-.06-.27-.15-.54-.25-.8-.11-.26-.23-.51-.37-.75-.13-.21-.28-.41-.43-.61-.16-.19-.32-.38-.5-.55-.18-.18-.36-.35-.55-.5-.2-.16-.4-.31-.61-.44-.23-.15-.46-.29-.7-.42-.24-.13-.49-.26-.73-.38-.25-.12-.5-.23-.75-.33-.25-.11-.51-.2-.77-.29-1.1-.38-2.23-.75-3.39-1.12 0 0-1.13-.4-3.4-1.19a9.22 9.22 0 0 1-.78-.35c-.26-.13-.51-.26-.76-.41-.25-.14-.49-.29-.72-.46-.24-.16-.47-.33-.69-.51-.22-.18-.42-.37-.62-.58a8.464 8.464 0 0 1-1.03-1.33c-.14-.24-.28-.49-.4-.74-.14-.31-.26-.62-.37-.94-.1-.32-.19-.65-.25-.98-.07-.33-.12-.66-.15-1-.02-.34-.03-.67-.02-1.01 0-.3.01-.61.04-.91.03-.3.08-.61.13-.9.06-.3.14-.6.22-.89.09-.29.19-.58.31-.86s.25-.56.39-.83c.15-.26.31-.52.48-.78.17-.25.36-.49.55-.72.2-.24.41-.46.63-.67.24-.23.49-.44.75-.65.26-.2.54-.39.82-.56.28-.18.57-.34.86-.49a10.865 10.865 0 0 1 2.01-.76c.37-.1.75-.18 1.13-.25.38-.07.76-.12 1.14-.15.39-.03.77-.04 1.16-.03.44-.01.87.01 1.31.04a13.937 13.937 0 0 1 2.58.46c.42.12.83.25 1.24.41.39.16.77.34 1.14.53.37.2.72.41 1.07.65.35.23.69.48 1.01.75.32.27.63.55.92.85l-.63 1.16Zm35.45 30.08-.05 2.21h-22V5.63h22v2.21h-19.35v14.85h16.1v2.16h-16.1v15.32h19.4Z" class="shp1"/>
  <path fill-rule="evenodd" d="M200.74 42.37h-2.48l-.19-.03c-.06-.01-.12-.03-.18-.04-.06-.02-.12-.04-.18-.07-.06-.03-.11-.07-.17-.1a1.788 1.788 0 0 1-.28-.27.906.906 0 0 1-.11-.16l-11.78-14.91c-.03-.04-.06-.09-.1-.13-.03-.04-.07-.08-.1-.12-.04-.05-.08-.09-.11-.13-.04-.03-.08-.07-.12-.11-.04-.03-.07-.07-.11-.1-.04-.03-.08-.05-.12-.08-.04-.03-.08-.05-.13-.08a2.768 2.768 0 0 0-.29-.12c-.05-.02-.11-.03-.16-.05l-.16-.03-.17-.03c-.08-.01-.15-.02-.23-.02-.08-.01-.15-.02-.23-.02-.08 0-.15-.01-.23-.01h-5.03v16.61h-2.67V5.63h9.4c4.23 0 7.39.82 9.49 2.45.53.43 1.01.92 1.42 1.46.42.55.76 1.14 1.04 1.76.27.63.47 1.28.59 1.95.12.68.15 1.36.11 2.04a10.56 10.56 0 0 1-.17 1.96c-.06.32-.14.64-.23.95-.1.32-.21.63-.33.93-.12.29-.25.57-.4.84a8 8 0 0 1-.49.79c-.17.26-.36.51-.56.74-.2.24-.42.47-.64.68-.24.23-.49.44-.75.65-.26.2-.53.39-.8.57-.28.18-.56.35-.86.5-.29.15-.59.29-.89.42-.35.14-.7.28-1.05.4-.36.12-.72.22-1.08.32-.36.09-.73.17-1.1.24-.37.07-.74.12-1.11.16.11.07.21.14.31.21.1.08.2.16.29.24.1.08.19.17.27.26.09.1.17.19.25.29l12.62 15.93Zm-16.31-18.59c.37.01.74 0 1.11-.02.37-.03.73-.06 1.1-.11.37-.05.73-.11 1.09-.18.37-.08.72-.17 1.08-.27.3-.08.59-.18.88-.3.28-.11.56-.24.84-.38a9.165 9.165 0 0 0 1.55-1c.21-.18.42-.36.61-.56.19-.2.37-.41.54-.63.17-.22.32-.45.47-.69a7.386 7.386 0 0 0 .69-1.57c.09-.28.17-.57.23-.86.06-.29.1-.58.13-.87.02-.3.03-.59.03-.89.04-.55.01-1.1-.08-1.65-.09-.54-.25-1.07-.47-1.58-.23-.5-.51-.98-.85-1.42-.34-.43-.73-.83-1.16-1.17-1.71-1.27-4.2-1.9-7.47-1.9h-6.73v16l6.41.05Z" class="shp1"/>
  <path d="m237.59 5.63-15.17 36.74h-2.36L204.89 5.63H207c.05 0 .11 0 .16.01.05 0 .11.01.16.03l.15.06c.04.03.09.06.13.09.04.03.08.07.11.11.04.04.07.08.1.12.03.05.06.09.08.14.03.04.05.09.07.14l12.52 30.49c.14.38.28.79.42 1.22l.39 1.32c.11-.45.22-.89.34-1.32l.09-.31c.03-.1.07-.2.1-.31.04-.1.07-.2.11-.3l.12-.3 12.49-30.49c.02-.05.04-.09.06-.14.03-.05.06-.09.09-.13a1.06 1.06 0 0 1 .21-.22c.04-.03.09-.06.14-.09.05-.03.1-.05.15-.07.05-.02.11-.03.16-.04.06-.01.11-.01.17-.01h2.07Z" class="shp1"/>
  <path fill-rule="evenodd" d="M272.47 42.37h-2.05c-.05 0-.11 0-.16-.01-.05 0-.11-.01-.16-.03l-.15-.06c-.04-.03-.09-.06-.13-.09a.573.573 0 0 1-.11-.11 1.06 1.06 0 0 1-.1-.12c-.03-.05-.06-.09-.08-.14-.03-.04-.05-.09-.07-.14L265.14 31h-18l-4.31 10.67c-.02.05-.04.09-.06.14-.03.05-.06.09-.09.13-.03.04-.06.08-.1.12-.03.03-.07.07-.11.1-.04.03-.09.06-.14.09-.05.03-.1.05-.15.07-.06.02-.11.03-.16.04-.06.01-.11.01-.17.01h-2l15-36.75h2.62l15 36.75ZM264.34 29l-7.48-18.57-.21-.54c-.07-.18-.14-.36-.2-.54-.06-.18-.12-.36-.18-.55-.05-.18-.11-.36-.16-.55-.11.41-.22.81-.34 1.18-.03.08-.06.17-.09.25-.03.09-.06.17-.09.25-.04.09-.07.17-.1.25-.04.09-.07.17-.11.25L247.9 29h16.44Z" class="shp1"/>
  <path d="M14.2 53.75c-.15-.05-.3-.1-.44-.17a3.418 3.418 0 0 1-.82-.47c-.13-.09-.25-.19-.37-.3-.13-.12-.24-.27-.32-.43a1.52 1.52 0 0 1-.12-.52c-.01-.18.02-.35.08-.52.06-.17.15-.33.27-.46l14.84-16.36c.12-.13.27-.24.43-.32.16-.07.34-.11.52-.12.18-.01.35.02.52.08.17.06.33.15.46.27.56.51 1.25 2 .74 2.52L15.15 53.3c-.06.07-.13.13-.2.18-.07.06-.15.1-.23.14-.08.04-.17.07-.25.09-.09.02-.18.04-.27.04Z" class="shp1"/>
  <path fill-rule="evenodd" d="M41.66.12c2.77 0 5.52.55 8.08 1.61 2.56 1.06 4.89 2.61 6.85 4.57 1.96 1.96 3.51 4.29 4.57 6.85 1.06 2.56 1.61 5.31 1.61 8.08 0 8.54-5.14 16.24-13.03 19.5a21.124 21.124 0 0 1-23.01-4.57 21.124 21.124 0 0 1-4.57-23.01A21.092 21.092 0 0 1 41.66.12Zm0 39.24a18.12 18.12 0 0 0 12.82-5.31 18.12 18.12 0 0 0 5.31-12.82c0-7.33-4.42-13.94-11.19-16.75a18.136 18.136 0 0 0-19.76 3.93 18.117 18.117 0 0 0-3.93 19.76 18.142 18.142 0 0 0 16.75 11.19Z" class="shp1"/>
  <path fill="#fff" d="M55.33 8.77 27.09 34.92S15.84 18.72 29 7.87c0 0 10.23-11 26.33.9Z" opacity=".271" style="mix-blend-mode:darken"/>
</svg>
