<svg xmlns="http://www.w3.org/2000/svg" viewBox="0 0 329.95 202.86"><style>.st0{fill:none;stroke:#e4ba80;stroke-width:3;stroke-miterlimit:10}.st3{fill:#4066ff}.st7,.st8{fill:none;stroke:#fff;stroke-width:3;stroke-miterlimit:10}.st8{fill:#4066ff;stroke:#4066ff}</style><g id="Arte"><circle class="st7" cx="98.58" cy="103.68" r="97.08"/><circle class="st0" cx="98.58" cy="103.68" r="75.73"/><circle class="st0" cx="98.58" cy="103.68" r="54.39"/><circle class="st7" cx="98.58" cy="103.68" r="33.04"/><path class="st8" d="M131.62 103.68h64.04c0-26.15-10.34-49.88-27.15-67.33l-46.13 44.42c5.71 5.94 9.24 14.01 9.24 22.91z"/><path class="st7" d="M317.64 28.21h-83.41c-5.97 0-10.81-4.84-10.81-10.81 0-5.97 4.84-10.81 10.81-10.81h83.41c5.97 0 10.81 4.84 10.81 10.81 0 5.98-4.84 10.81-10.81 10.81z"/><path class="st3" d="M275.94 0c-2.63 0-4.76 2.13-4.76 4.76v25.3c0 2.63 2.13 4.76 4.76 4.76s4.76-2.13 4.76-4.76V4.76c-.01-2.63-2.14-4.76-4.76-4.76z"/><path class="st7" d="M317.64 83.61h-83.41c-5.97 0-10.81-4.84-10.81-10.81 0-5.97 4.84-10.81 10.81-10.81h83.41c5.97 0 10.81 4.84 10.81 10.81 0 5.97-4.84 10.81-10.81 10.81z"/><path class="st3" d="M275.94 55.39c-2.63 0-4.76 2.13-4.76 4.76v25.3c0 2.63 2.13 4.76 4.76 4.76s4.76-2.13 4.76-4.76v-25.3c-.01-2.63-2.14-4.76-4.76-4.76z"/><path class="st7" d="M317.64 139h-83.41c-5.97 0-10.81-4.84-10.81-10.81 0-5.97 4.84-10.81 10.81-10.81h83.41c5.97 0 10.81 4.84 10.81 10.81 0 5.97-4.84 10.81-10.81 10.81z"/><path class="st3" d="M275.94 110.79c-2.63 0-4.76 2.13-4.76 4.76v25.3c0 2.63 2.13 4.76 4.76 4.76s4.76-2.13 4.76-4.76v-25.3a4.765 4.765 0 0 0-4.76-4.76z"/><path class="st7" d="M309.97 200.76h-68.06c-10.21 0-18.48-8.27-18.48-18.48s8.27-18.48 18.48-18.48h68.06c10.21 0 18.48 8.27 18.48 18.48 0 10.2-8.28 18.48-18.48 18.48z"/><path class="st8" d="M241.21 201.36c-10.38 0-18.79-8.41-18.79-18.79 0-10.38 8.41-18.79 18.79-18.79 10.38 0 18.79 8.41 18.79 18.79 0 10.38-8.42 18.79-18.79 18.79z"/></g></svg>