<svg xmlns="http://www.w3.org/2000/svg" viewBox="0 0 247.89 200.91"><style>.st3{fill:#4066ff}.st7{fill:none;stroke-width:3;stroke-miterlimit:10;stroke:#fff}</style><g id="Arte"><path class="st3" d="M44.45 59.58l-21.74 70.66h10.47l18.25-59.33 18.25 59.33h10.46L58.41 59.58zm156.72 0l-21.74 70.66h10.47l18.25-59.33 18.25 59.33h10.46l-21.73-70.66z"/><path d="M187.93 25.35V12.44m6.46 6.45h-12.92M98.07 98.2V85.28m6.46 6.46H91.61M6.46 72.5V59.58m6.46 6.46H0m241.43-4.9V48.23m6.46 6.45h-12.91" fill="none" stroke="#4066ff" stroke-width="3" stroke-miterlimit="10"/><path class="st7" d="M135.19 36.29V12.86h4.14c3.14 0 5.68-2.54 5.68-5.68s-2.54-5.68-5.68-5.68h-19.64c-3.14 0-5.68 2.54-5.68 5.68s2.54 5.68 5.68 5.68h4.14v23.43m-11.94 11.94H44.33c-3.14 0-5.68 2.54-5.68 5.68s2.54 5.68 5.68 5.68h67.56m35.24-.01h67.56c3.14 0 5.68-2.54 5.68-5.68s-2.54-5.68-5.68-5.68h-67.56m-23.3 23.3V170c-5.73 2.17-9.82 7.69-9.82 14.18h-45.4c-4.2 0-7.61 3.41-7.61 7.61s3.41 7.61 7.61 7.61h121.8c4.2 0 7.61-3.41 7.61-7.61 0-4.21-3.41-7.61-7.61-7.61H145c0-6.49-4.08-12.02-9.82-14.18V71.52"/><path d="M84.71 130.24H18.14c0 18.38 14.9 33.29 33.29 33.29s33.28-14.91 33.28-33.29zm90.15 0c0 18.38 14.9 33.29 33.29 33.29s33.29-14.9 33.29-33.29h-66.58z" stroke="#e4ba80" stroke-linejoin="round" fill="none" stroke-width="3" stroke-miterlimit="10"/><path class="st3" d="M129.51 34.09c-10.94 0-19.81 8.87-19.81 19.81s8.87 19.81 19.81 19.81 19.81-8.87 19.81-19.81-8.87-19.81-19.81-19.81zm0 29.56c-5.38 0-9.75-4.36-9.75-9.75 0-5.38 4.36-9.75 9.75-9.75 5.38 0 9.75 4.36 9.75 9.75s-4.37 9.75-9.75 9.75z"/><path class="st7" d="M145 184.19h-30.99m21.18-14.18h-11.36"/></g></svg>