<svg xmlns="http://www.w3.org/2000/svg" viewBox="0 0 605.59 589.26"><style>.st1,.st13{stroke:#e4ba80;stroke-linecap:round;stroke-linejoin:round;fill:none;stroke-width:3;stroke-miterlimit:10}.st13{stroke:#2a2f41}</style><g id="Art"><path class="st1" d="M193.51 107.07c0-20.84 16.89-37.73 37.73-37.73h77.95m103.7 427.82c0 20.84-16.89 37.73-37.73 37.73h-77.95m164.3-240.87h95.58c20.43 0 37-16.57 37-37V48.5c0-20.43-16.57-37-37-37h-200.9c-20.43 0-37 16.57-37 37v100.28"/><path class="st1" d="M309.19 148.78V48.5c0-25.92 21.08-47 47-47h200.9c25.92 0 47 21.08 47 47v208.52c0 25.92-21.08 47-47 47h-95.58"/><path class="st1" d="M461.51 284.02h95.58c14.89 0 27-12.11 27-27V48.5c0-14.89-12.11-27-27-27h-200.9c-14.89 0-27 12.11-27 27v100.28M287.21 455.5v85.26c0 20.43-16.57 37-37 37H48.5c-20.43 0-37-16.57-37-37V331.02c0-20.43 16.57-37 37-37h96.4"/><path class="st1" d="M297.21 455.5v85.26c0 25.92-21.08 47-47 47H48.5c-25.92 0-47-21.08-47-47V331.02c0-25.92 21.08-47 47-47h96.4"/><path class="st1" d="M144.9 304.02H48.5c-14.89 0-27 12.11-27 27v209.73c0 14.89 12.11 27 27 27h201.71c14.89 0 27-12.11 27-27V455.5"/><g id="XMLID_14_"><path d="M498.22 153.97v86.84c0 2.87-2.32 5.19-5.19 5.19h-37.19c1.2-6.32 3.04-12.53 5.51-18.51l.41-.99a95.687 95.687 0 0 0 7.2-36.4v-41.32h24.07c2.87 0 5.19 2.33 5.19 5.19zM371.25 246h-98.93c-2.86 0-5.19-2.32-5.19-5.19v-86.84c0-2.86 2.33-5.19 5.19-5.19h94.85v3.17l-9.85 4.59a24.53 24.53 0 0 0-14.16 22.23v8.77c0 8.66 2.58 17.12 7.42 24.3L367.53 237c1.84 2.73 3.1 5.79 3.72 9zm-31.98 202.14v2.17c0 2.86-2.32 5.19-5.19 5.19h-94.84v-3.17l9.84-4.59a24.538 24.538 0 0 0 14.17-22.23v-8.77c0-8.66-2.59-17.12-7.42-24.3l-16.96-25.16c-1.84-2.73-3.1-5.79-3.72-9h98.93c2.87 0 5.19 2.32 5.19 5.19v84.67zm-188.72-89.79c-1.2 6.3-3.04 12.48-5.49 18.44l-.41.99a95.498 95.498 0 0 0-7.2 36.4v41.32h-24.08c-2.86 0-5.19-2.33-5.19-5.19v-86.84c0-2.87 2.33-5.19 5.19-5.19h36.8l.38.07z" stroke="#2a2f41" stroke-miterlimit="10" fill="#214dff"/><path class="st13" d="M371.25 246h-98.93c-2.86 0-5.19-2.32-5.19-5.19v-86.84c0-2.86 2.33-5.19 5.19-5.19h94.85m101.79 0h24.07c2.87 0 5.19 2.33 5.19 5.19v86.84c0 2.87-2.32 5.19-5.19 5.19h-37.19m-188.71-7.43h-15.36c-3.34 0-6.63.68-9.66 1.99-1.41.6-2.76 1.34-4.04 2.2l-25.17 16.95a43.457 43.457 0 0 1-24.29 7.42h-8.78c-9.53 0-18.2-5.52-22.23-14.17l-4.58-9.84"/><path class="st13" d="M187.75 243.12h-57.24c-7.02 0-12.72-5.7-12.72-12.72 0-3.52 1.43-6.7 3.73-9s5.48-3.73 8.99-3.73m38.11 0h-47.71c-7.03 0-12.73-5.69-12.73-12.72 0-3.51 1.42-6.7 3.73-9 2.3-2.31 5.49-3.73 9-3.73h13.28m34.43 0h-34.43c-7.03 0-12.72-5.69-12.72-12.72 0-3.52 1.42-6.7 3.72-9 2.31-2.3 5.49-3.72 9-3.72h8.72m25.71 0h-25.71c-7.02 0-12.72-5.7-12.72-12.73 0-3.51 1.43-6.69 3.73-8.99s5.48-3.73 8.99-3.73h48.25a95.65 95.65 0 0 1 36.4 7.2l1 .41a94.61 94.61 0 0 0 13.56 4.43 95.38 95.38 0 0 0 22.84 2.77h2.17m194.38 306.81v29.02c0 2.87-2.33 5.19-5.2 5.19h-86.83c-2.87 0-5.2-2.32-5.2-5.19V450.9m0-87.18v-92.46c0-2.87 2.33-5.19 5.2-5.19h86.83c2.87 0 5.2 2.32 5.2 5.19v89.9m-89.8-95.09V250.7c0-1.59-.15-3.16-.46-4.7-.62-3.21-1.88-6.27-3.72-9l-16.95-25.16a43.465 43.465 0 0 1-7.42-24.3v-8.77c0-9.53 5.52-18.2 14.16-22.23l9.85-4.59"/><path class="st13" d="M367.17 186.69v-57.24c0-7.03 5.7-12.72 12.72-12.72 3.51 0 6.7 1.42 9 3.72 2.31 2.31 3.73 5.49 3.73 9"/><path class="st13" d="M392.62 167.56v-47.72c0-7.02 5.69-12.72 12.72-12.72 3.52 0 6.7 1.42 9 3.73 2.3 2.3 3.72 5.48 3.72 8.99v13.29"/><path class="st13" d="M418.06 167.56v-34.43c0-7.03 5.7-12.72 12.73-12.72 3.51 0 6.69 1.42 9 3.72 2.3 2.31 3.72 5.49 3.72 9v8.72"/><path class="st13" d="M443.51 167.56v-25.71c0-7.03 5.7-12.72 12.73-12.72 3.51 0 6.69 1.42 8.99 3.72 2.31 2.31 3.73 5.49 3.73 9v48.25c0 12.49-2.45 24.85-7.2 36.4l-.41.99a94.847 94.847 0 0 0-5.51 18.51 94.976 94.976 0 0 0-1.7 17.9v2.17M137.45 455.5h-24.08c-2.86 0-5.19-2.33-5.19-5.19v-86.84c0-2.87 2.33-5.19 5.19-5.19h36.8m84.99 0h98.92c2.87 0 5.19 2.32 5.19 5.19v86.84c0 2.86-2.32 5.19-5.19 5.19h-94.84m100.03-89.79h15.37c3.33 0 6.61-.68 9.64-1.98 1.42-.61 2.78-1.35 4.06-2.21l25.17-16.95a43.433 43.433 0 0 1 24.29-7.42h8.77a24.5 24.5 0 0 1 22.23 14.17l4.59 9.84"/><path class="st13" d="M418.65 361.16h57.24c7.03 0 12.73 5.7 12.73 12.72 0 3.52-1.42 6.7-3.73 9-2.3 2.3-5.49 3.73-9 3.73"/><path class="st13" d="M437.79 386.61h47.71c7.03 0 12.72 5.69 12.72 12.72 0 3.51-1.42 6.7-3.72 9-2.3 2.31-5.48 3.73-9 3.73h-13.29"/><path class="st13" d="M437.79 412.06h34.42c7.03 0 12.73 5.69 12.73 12.72 0 3.52-1.42 6.7-3.73 9-2.3 2.3-5.49 3.72-9 3.72h-8.72"/><path class="st13" d="M437.79 437.5h25.7c7.03 0 12.72 5.7 12.72 12.73 0 3.51-1.42 6.69-3.72 8.99-2.31 2.3-5.49 3.73-9 3.73h-48.24c-12.49 0-24.86-2.45-36.41-7.2l-.99-.41c-4.41-1.82-8.95-3.3-13.57-4.43a95.236 95.236 0 0 0-22.83-2.77h-2.18M144.9 141.33v-29.02c0-2.87 2.32-5.19 5.19-5.19h86.84c2.87 0 5.19 2.32 5.19 5.19v41.06m0 87.2v92.45c0 2.87-2.32 5.19-5.19 5.19h-86.84c-2.87 0-5.19-2.32-5.19-5.19v-89.9m89.79 95.09v15.37c0 1.59.16 3.16.46 4.7.62 3.21 1.88 6.27 3.72 9l16.96 25.16a43.544 43.544 0 0 1 7.42 24.3v8.77c0 9.53-5.53 18.2-14.17 22.23l-9.84 4.59"/><path class="st13" d="M239.24 417.59v57.24c0 7.03-5.7 12.72-12.73 12.72-3.51 0-6.69-1.42-8.99-3.72-2.3-2.31-3.73-5.49-3.73-9m0-38.11v47.72c0 7.02-5.7 12.72-12.73 12.72-3.51 0-6.69-1.42-8.99-3.73-2.31-2.3-3.73-5.48-3.73-8.99v-13.29m0-34.43v34.43c0 7.03-5.7 12.72-12.72 12.72-3.52 0-6.7-1.42-9-3.72-2.3-2.31-3.73-5.49-3.73-9v-8.72m0-25.71v25.71c0 7.03-5.69 12.72-12.72 12.72-3.51 0-6.69-1.42-9-3.72-2.3-2.31-3.72-5.49-3.72-9v-48.25c0-12.49 2.44-24.85 7.2-36.4l.41-.99a95.522 95.522 0 0 0 5.49-18.44 94.894 94.894 0 0 0 1.71-17.97v-2.17"/></g><path d="M550.78 420.68v-42.7m21.35 21.35h-42.69M55.61 226.29v-42.7m21.35 21.35h-42.7m73.92 321.76v-21.35m10.67 10.67H97.5M498.22 90.69V69.34m10.67 10.67h-21.35" stroke="#214dff" fill="none" stroke-width="3" stroke-miterlimit="10"/><path d="M339.27 316.39v10.43c-23.15-8.48-46.42 8.48-69.59 0v-10.43c23.13 8.47 46.43-8.48 69.59 0zm0-20.88v10.43c-23.15-8.47-46.42 8.48-69.59 0v-10.43c23.15 8.48 46.42-8.48 69.59 0zm0-20.88v10.45c-23.15-8.48-46.42 8.48-69.59 0v-10.45c23.15 8.48 46.42-8.48 69.59 0z" fill="#214dff"/></g></svg>