<svg version="1.1" id="Layer_1" xmlns="http://www.w3.org/2000/svg" x="0" y="0" viewBox="0 0 605 317" xml:space="preserve"><style>.st0{fill-rule:evenodd;clip-rule:evenodd}.st8{enable-background:new}.st9{fill:#03f}.st10{fill:#fff}.st11{fill:#1f1f1f}.st12{fill:#fff}.st12,.st13,.st14,.st16{fill-rule:evenodd;clip-rule:evenodd}.st13{stroke:#fff;stroke-linecap:round;stroke-linejoin:round;fill:#fff}.st14{fill:#00c578}.st16{fill:#cc1d99}</style><g transform="matrix(-1 0 0 1 1050 3)"><path id="group-34-h_12_" class="st0" d="M458 0h138v62H450V8c0-4.4 3.6-8 8-8z"/></g><path d="M458 0h138v62H450V8c0-4.4 3.6-8 8-8z" fill-rule="evenodd" clip-rule="evenodd" fill="#f36" stroke="#f36" transform="matrix(-1 0 0 1 1050 3)"/><g transform="matrix(-1 0 0 1 1050 3)"><path id="group-34-j_12_" class="st0" d="M450 210h146v97H458c-4.4 0-8-3.6-8-8v-89z"/></g><path d="M450 210h146v97H458c-4.4 0-8-3.6-8-8v-89h0z" fill-rule="evenodd" clip-rule="evenodd" fill="#f8c71c" stroke="#f8c71c" transform="matrix(-1 0 0 1 1050 3)"/><g transform="translate(4 3)"><path id="group-34-l" class="st0" d="M450 67h146v137H450z"/></g><path fill-rule="evenodd" clip-rule="evenodd" fill="#3b5998" stroke="#3b5998" d="M450 67h146v137H450z" transform="translate(4 3)"/><g transform="translate(4 4)"><path id="group-34-n_12_" class="st0" d="M8 0h301v306H8c-4.4 0-8-3.6-8-8V8c0-4.4 3.6-8 8-8z"/></g><path d="M8 0h301v306H8c-4.4 0-8-3.6-8-8V8c0-4.4 3.6-8 8-8z" fill-rule="evenodd" clip-rule="evenodd" fill="#f2f2f2" transform="translate(4 4)"/><g transform="translate(4 3)"><path id="group-34-p" class="st0" d="M315 1h130v89H315z"/></g><path fill-rule="evenodd" clip-rule="evenodd" fill="#00c578" stroke="#00c578" d="M315 1h130v89H315z" transform="translate(4 3)"/><g transform="translate(4 3)"><path id="group-34-r" class="st0" d="M315 95h130v89H315z"/></g><path fill-rule="evenodd" clip-rule="evenodd" fill="#cc1d99" stroke="#cc1d99" d="M315 95h130v89H315z" transform="translate(4 3)"/><g transform="translate(4 3)"><path id="group-34-t" class="st0" d="M315 189h130v118H315z"/></g><path fill-rule="evenodd" clip-rule="evenodd" fill="#00acee" stroke="#00acee" d="M315 189h130v118H315z" transform="translate(4 3)"/><g class="st8"><path class="st9" d="M22.7 29.4l-1.5-3.2h-.1V37h-3.3V20.9h3.8l4.4 7.6 1.5 3.2h.1V20.9h3.3V37h-3.8l-4.4-7.6zM33.8 37v-2.8h2.1V23.7h-2.1v-2.8h7.6v2.8h-2.1v10.5h2.1V37h-7.6zM38 20l-2-1 2.3-4.5 2.8 1.4L38 20zm10.1 17l-5.2-16.1h3.5l2.4 7.7 1.3 5h.1l1.2-5 2.4-7.7h3.4L52 37h-3.9zm11.2 0V20.9h10.9V24h-7.4v3.3h6.4v3.1h-6.4v3.5h7.4V37H59.3zm14 0V20.9h3.5v12.9h6.1V37h-9.6zm17.6-16.1h6c1.1 0 2 .2 2.9.5.9.3 1.6.8 2.2 1.5.6.7 1.1 1.5 1.4 2.5.3 1 .5 2.2.5 3.5s-.2 2.5-.5 3.5-.8 1.8-1.4 2.5-1.4 1.2-2.2 1.5c-.8.4-1.8.6-2.9.6h-6V20.9zm6 13c1 0 1.9-.3 2.5-.9.6-.6.9-1.5.9-2.8v-2.5c0-1.3-.3-2.2-.9-2.8-.6-.6-1.4-.9-2.5-.9h-2.6v9.8h2.6zm10 3.1V20.9h10.9V24h-7.4v3.3h6.4v3.1h-6.4v3.5h7.4V37h-10.9zm19.4 0V20.9h10.9V24h-7.4v3.3h6.4v3.1h-6.4v3.5h7.4V37h-10.9zm18.9-7.6l-1.5-3.2h-.1V37h-3.3V20.9h3.8l4.4 7.6 1.5 3.2h.1V20.9h3.3V37h-3.8l-4.4-7.6zm21.9 5h-.1c-.1.8-.5 1.5-1.2 2s-1.7.8-2.9.8c-.9 0-1.8-.2-2.6-.5-.8-.4-1.5-.9-2.1-1.6-.6-.7-1.1-1.5-1.4-2.6-.3-1-.5-2.2-.5-3.6 0-1.3.2-2.5.5-3.6.4-1 .8-1.9 1.5-2.6.6-.7 1.4-1.2 2.3-1.6s1.9-.6 3-.6c1.4 0 2.7.3 3.7.9 1 .6 1.9 1.6 2.5 2.8l-2.9 1.6c-.2-.6-.6-1.2-1.1-1.6-.5-.4-1.2-.7-2.2-.7-1.1 0-2 .3-2.6.9-.6.6-1 1.6-1 3V30c0 1.3.3 2.3 1 3 .6.6 1.5 1 2.6 1 .4 0 .8 0 1.2-.1.4-.1.7-.3 1-.5.3-.2.5-.5.7-.7.2-.3.2-.6.2-1V31h-3v-2.9h6.3V37h-2.9v-2.6zm16.3 2.6l-1.1-3.8h-5.4l-1.2 3.8h-3.5l5.3-16.1h4.3L187 37h-3.6zm-3.8-12.9h-.1l-1.8 6.1h3.7l-1.8-6.1zm18.7-3.2v11.4c0 .7-.1 1.4-.4 2-.2.6-.6 1.1-1 1.5-.5.4-1 .8-1.7 1-.7.2-1.4.4-2.2.4-.8 0-1.5-.1-2.1-.3-.6-.2-1.1-.5-1.6-.9-.4-.4-.8-.9-1.1-1.4-.3-.6-.5-1.2-.6-1.8l3.3-.6c.3 1.4.9 2.1 2 2.1.5 0 .9-.2 1.3-.5s.5-.8.5-1.5v-8.4h-4.9v-2.8h8.5zM211.2 37l-1.2-3.8h-5.4l-1.1 3.8H200l5.3-16.1h4.3l5.2 16.1h-3.6zm-3.8-12.9h-.1l-1.8 6.1h3.7l-1.8-6.1zm21.6 2.4l-1.2 2.3-3.1 5.7-3.1-5.7-1.2-2.5h-.1V37H217V20.9h3.7l3.9 7.5 3.9-7.5h3.7V37H229V26.5zm6.9 10.5V20.9h10.9V24h-7.4v3.3h6.4v3.1h-6.4v3.5h7.4V37h-10.9zm18.8-7.6l-1.5-3.2h-.1V37h-3.3V20.9h3.8l4.4 7.6 1.5 3.2h.1V20.9h3.3V37h-3.8l-4.4-7.6zm18.5-5.3V37h-3.5V24.1h-4.3V21h12.2v3.1h-4.4zm12.6 13.2c-1.1 0-2-.2-2.9-.5s-1.6-.9-2.2-1.6c-.6-.7-1.1-1.6-1.4-2.6-.3-1-.5-2.2-.5-3.6s.2-2.6.5-3.6.8-1.9 1.4-2.6c.6-.7 1.4-1.2 2.2-1.6s1.8-.5 2.9-.5c1.1 0 2 .2 2.9.5s1.6.9 2.2 1.6c.6.7 1.1 1.6 1.4 2.6.3 1 .5 2.2.5 3.6s-.2 2.6-.5 3.6-.8 1.9-1.4 2.6c-.6.7-1.4 1.2-2.2 1.6s-1.9.5-2.9.5zm0-3.1c1.1 0 1.9-.3 2.5-1 .6-.7.9-1.7.9-3v-2.4c0-1.3-.3-2.3-.9-3-.6-.7-1.4-1-2.5-1s-1.9.3-2.5 1c-.6.7-.9 1.7-.9 3v2.4c0 1.3.3 2.3.9 3 .6.6 1.4 1 2.5 1z" transform="translate(4 3)"/></g><g class="st8"><path class="st9" d="M109.8 50.9h6c1.1 0 2 .2 2.9.5.9.3 1.6.8 2.2 1.5.6.7 1.1 1.5 1.4 2.5.3 1 .5 2.2.5 3.5s-.2 2.5-.5 3.5-.8 1.8-1.4 2.5c-.6.7-1.4 1.2-2.2 1.5-.9.3-1.8.5-2.9.5h-6v-16zm6 13c1 0 1.9-.3 2.5-.9.6-.6.9-1.5.9-2.8v-2.5c0-1.3-.3-2.2-.9-2.8-.6-.6-1.4-.9-2.5-.9h-2.6v9.8h2.6zm16.5 3.4c-1.1 0-2-.2-2.9-.5s-1.6-.9-2.2-1.6c-.6-.7-1.1-1.6-1.4-2.6s-.5-2.2-.5-3.6.2-2.6.5-3.6.8-1.9 1.4-2.6c.6-.7 1.4-1.2 2.2-1.6s1.8-.5 2.9-.5 2 .2 2.9.5 1.6.9 2.2 1.6c.6.7 1.1 1.6 1.4 2.6.3 1 .5 2.2.5 3.6s-.2 2.6-.5 3.6-.8 1.9-1.4 2.6c-.6.7-1.4 1.2-2.2 1.6s-1.9.5-2.9.5zm0-3.1c1.1 0 1.9-.3 2.5-1 .6-.7.9-1.7.9-3v-2.4c0-1.3-.3-2.3-.9-3-.6-.7-1.4-1-2.5-1s-1.9.3-2.5 1c-.6.7-.9 1.7-.9 3v2.4c0 1.3.3 2.3.9 3 .6.6 1.4 1 2.5 1zm22.1-10.1V67h-3.5V54.1h-4.3V51h12.2v3.1h-4.4zm6 12.9v-2.8h2.1V53.7h-2.1v-2.8h7.6v2.8h-2v10.5h2.1V67h-7.7zM183 56.5l-1.2 2.3-3.1 5.7-3.1-5.7-1.2-2.5h-.1V67H171V50.9h3.7l3.9 7.5 3.9-7.5h3.7V67H183V56.5zm6.8 10.5V50.9h10.9V54h-7.4v3.3h6.4v3.1h-6.4v3.5h7.4V67h-10.9z" transform="translate(4 3)"/></g><g class="st8"><path class="st10" d="M372.1 235h-11.9v-3.3l5.2-4.4c.5-.4.9-.8 1.2-1.1.3-.3.6-.6.8-1 .2-.3.3-.6.4-.9.1-.3.1-.6.1-1v-.3c0-.3-.1-.6-.2-.8s-.3-.4-.5-.6c-.2-.2-.4-.3-.7-.4-.3-.1-.5-.1-.8-.1-.4 0-.7.1-1 .2-.3.1-.6.3-.8.5-.2.2-.4.5-.5.7-.1.3-.3.6-.3.9l-3.1-1.2c.2-.6.5-1.1.8-1.6.3-.5.8-1 1.3-1.4.5-.4 1.1-.7 1.8-.9.7-.2 1.5-.3 2.3-.3.9 0 1.7.1 2.4.4.7.3 1.3.6 1.8 1.1.5.4.9 1 1.1 1.6s.4 1.3.4 2-.1 1.4-.4 2c-.2.6-.6 1.1-1 1.7-.4.5-.9 1-1.4 1.5s-1.1.9-1.7 1.4l-3.1 2.4h7.9v2.9zm8.4.3c-2.2 0-3.8-.8-4.9-2.3-1.1-1.5-1.6-3.6-1.6-6.4s.5-4.9 1.6-6.4 2.7-2.3 4.9-2.3 3.8.8 4.9 2.3c1.1 1.5 1.6 3.6 1.6 6.4s-.5 4.9-1.6 6.4-2.7 2.3-4.9 2.3zm0-3.1c1 0 1.6-.4 2-1.1.4-.7.6-1.7.6-3V225c0-1.3-.2-2.3-.6-3s-1-1.1-2-1.1-1.6.4-2 1.1-.6 1.7-.6 3v3.2c0 1.3.2 2.3.6 3 .4.7 1 1 2 1zm14.4 3.1c-2.2 0-3.8-.8-4.9-2.3-1.1-1.5-1.6-3.6-1.6-6.4s.5-4.9 1.6-6.4 2.7-2.3 4.9-2.3 3.8.8 4.9 2.3c1.1 1.5 1.6 3.6 1.6 6.4s-.5 4.9-1.6 6.4-2.7 2.3-4.9 2.3zm0-3.1c1 0 1.6-.4 2-1.1.4-.7.6-1.7.6-3V225c0-1.3-.2-2.3-.6-3s-1-1.1-2-1.1-1.6.4-2 1.1c-.4.7-.6 1.7-.6 3v3.2c0 1.3.2 2.3.6 3 .4.7 1 1 2 1z" transform="translate(4 3)"/></g><g class="st8"><path class="st10" d="M343.6 254.4h3.6v2.1h.1c.2-.7.6-1.3 1.2-1.7s1.4-.7 2.2-.7c1.6 0 2.8.6 3.6 1.7.8 1.1 1.2 2.8 1.2 4.9 0 2.1-.4 3.8-1.2 4.9-.8 1.1-2 1.7-3.6 1.7-.4 0-.8-.1-1.2-.2-.4-.1-.7-.3-1-.5-.3-.2-.5-.5-.8-.8s-.4-.6-.5-.9h-.1v6.9h-3.6v-17.4zm5.9 10c.7 0 1.2-.2 1.7-.7s.7-1.1.7-1.9v-2.2c0-.8-.2-1.4-.7-1.9s-1-.7-1.7-.7-1.2.2-1.7.5-.7.8-.7 1.4v3.7c0 .6.2 1 .7 1.4s1 .4 1.7.4zm13.8 2.9c-.9 0-1.8-.2-2.5-.5s-1.3-.7-1.8-1.3-.9-1.3-1.2-2.1c-.3-.8-.4-1.7-.4-2.7 0-1 .1-1.9.4-2.7.3-.8.7-1.5 1.2-2.1.5-.6 1.1-1 1.8-1.3.7-.3 1.6-.5 2.5-.5.9 0 1.8.2 2.5.5s1.3.7 1.8 1.3c.5.6.9 1.3 1.2 2.1.3.8.4 1.7.4 2.7 0 1-.1 1.9-.4 2.7-.3.8-.7 1.5-1.2 2.1s-1.1 1-1.8 1.3c-.8.3-1.6.5-2.5.5zm0-2.8c.7 0 1.2-.2 1.6-.6s.6-1 .6-1.8v-2.6c0-.8-.2-1.4-.6-1.8-.4-.4-.9-.6-1.6-.6-.7 0-1.2.2-1.6.6-.4.4-.6 1-.6 1.8v2.6c0 .8.2 1.4.6 1.8.3.4.9.6 1.6.6zm8.4 2.5v-12.6h3.6v2.1h.1c.2-.7.6-1.2 1.2-1.7s1.3-.7 2.3-.7c1.3 0 2.3.4 2.9 1.3s1 2.1 1 3.7v7.9h-3.6v-7.6c0-.8-.1-1.4-.4-1.8-.3-.4-.7-.6-1.4-.6-.3 0-.6 0-.8.1-.3.1-.5.2-.7.3s-.4.4-.5.6c-.1.2-.2.5-.2.8v8.2h-3.5zm18.7 0c-1.2 0-2.2-.3-2.8-.9-.6-.6-.9-1.5-.9-2.7v-6.2h-1.8v-2.8h.9c.5 0 .8-.1 1-.3.2-.2.3-.6.3-1V251h3.2v3.4h2.5v2.8h-2.5v7.1h2.3v2.8h-2.2zm9.8.3c-.9 0-1.8-.2-2.5-.5s-1.3-.7-1.8-1.3-.9-1.3-1.2-2.1c-.3-.8-.4-1.7-.4-2.7 0-1 .1-1.9.4-2.7.3-.8.7-1.5 1.2-2.1.5-.6 1.1-1 1.8-1.3.7-.3 1.6-.5 2.5-.5.9 0 1.8.2 2.5.5s1.3.7 1.8 1.3c.5.6.9 1.3 1.2 2.1.3.8.4 1.7.4 2.7 0 1-.1 1.9-.4 2.7-.3.8-.7 1.5-1.2 2.1s-1.1 1-1.8 1.3c-.7.3-1.6.5-2.5.5zm0-2.8c.7 0 1.2-.2 1.6-.6s.6-1 .6-1.8v-2.6c0-.8-.2-1.4-.6-1.8-.4-.4-.9-.6-1.6-.6-.7 0-1.2.2-1.6.6-.4.4-.6 1-.6 1.8v2.6c0 .8.2 1.4.6 1.8.4.4.9.6 1.6.6zm12.7 2.8c-1.2 0-2.2-.2-3.1-.6s-1.6-.9-2.2-1.7l2.1-2.1c.4.5.9.9 1.5 1.2s1.2.4 1.8.4c.7 0 1.2-.1 1.5-.3.3-.2.4-.5.4-.9 0-.6-.4-.9-1.3-1.1l-1.4-.2c-2.8-.4-4.2-1.6-4.2-3.9 0-.6.1-1.2.3-1.7.2-.5.6-.9 1-1.3s.9-.6 1.5-.8c.6-.2 1.3-.3 2-.3s1.2 0 1.7.1 1 .2 1.3.4c.4.2.8.4 1.1.6s.7.5 1 .8l-2 2.1c-.4-.4-.9-.7-1.4-.9-.5-.2-1-.3-1.5-.3-.6 0-1 .1-1.3.3-.3.2-.4.4-.4.8 0 .3.1.6.3.8.2.2.5.3 1 .4l1.4.2c2.8.4 4.2 1.6 4.2 3.8 0 .6-.1 1.2-.4 1.7-.3.5-.6 1-1.1 1.3-.5.4-1 .7-1.7.9-.5.2-1.3.3-2.1.3z" transform="translate(4 3)"/></g><g class="st8"><path class="st10" d="M369.1 125l5.6-13.8h-5.2v3h-3v-6h11.9v3.1l-5.4 13.6h-3.9zm22.9-13.6h-7.6l-.4 5.3h.2c.2-.4.3-.8.5-1.1.2-.3.4-.6.7-.8.3-.2.6-.4 1-.5.4-.1.8-.2 1.4-.2.7 0 1.4.1 2 .4.6.2 1.2.6 1.6 1 .5.5.8 1 1.1 1.7s.4 1.4.4 2.2c0 .8-.1 1.6-.4 2.4-.3.7-.7 1.4-1.2 1.9-.6.5-1.2.9-2 1.2s-1.7.4-2.7.4c-.8 0-1.5-.1-2.2-.3-.6-.2-1.2-.4-1.7-.7-.5-.3-.9-.6-1.2-1s-.7-.8-.9-1.2l2.6-2.1c.4.7.8 1.2 1.3 1.7s1.2.7 2.1.7c.9 0 1.5-.2 2-.7s.7-1.2.7-2v-.2c0-.8-.2-1.4-.7-1.8-.4-.4-1.1-.7-1.8-.7s-1.2.1-1.6.4c-.4.3-.7.5-1 .8l-3-.4.6-9.5H392v3.1z" transform="translate(4 3)"/></g><g class="st8"><path class="st10" d="M342.6 144.4h3.6v2.1h.1c.2-.7.6-1.3 1.2-1.7s1.4-.7 2.2-.7c1.6 0 2.8.6 3.6 1.7.8 1.1 1.2 2.8 1.2 4.9 0 2.1-.4 3.8-1.2 4.9-.8 1.1-2 1.7-3.6 1.7-.4 0-.8-.1-1.2-.2-.4-.1-.7-.3-1-.5-.3-.2-.5-.5-.8-.8s-.4-.6-.5-.9h-.1v6.9h-3.6v-17.4zm5.9 10c.7 0 1.2-.2 1.7-.7s.7-1.1.7-1.9v-2.2c0-.8-.2-1.4-.7-1.9s-1-.7-1.7-.7-1.2.2-1.7.5-.7.8-.7 1.4v3.7c0 .6.2 1 .7 1.4s1 .4 1.7.4zm13.8 2.9c-.9 0-1.8-.2-2.5-.5s-1.3-.7-1.8-1.3-.9-1.3-1.2-2.1c-.3-.8-.4-1.7-.4-2.7 0-1 .1-1.9.4-2.7.3-.8.7-1.5 1.2-2.1.5-.6 1.1-1 1.8-1.3.7-.3 1.6-.5 2.5-.5.9 0 1.8.2 2.5.5s1.3.7 1.8 1.3c.5.6.9 1.3 1.2 2.1.3.8.4 1.7.4 2.7 0 1-.1 1.9-.4 2.7-.3.8-.7 1.5-1.2 2.1s-1.1 1-1.8 1.3c-.8.3-1.6.5-2.5.5zm0-2.8c.7 0 1.2-.2 1.6-.6s.6-1 .6-1.8v-2.6c0-.8-.2-1.4-.6-1.8-.4-.4-.9-.6-1.6-.6-.7 0-1.2.2-1.6.6-.4.4-.6 1-.6 1.8v2.6c0 .8.2 1.4.6 1.8.3.4.9.6 1.6.6zm8.4 2.5v-12.6h3.6v2.1h.1c.2-.7.6-1.2 1.2-1.7s1.3-.7 2.3-.7c1.3 0 2.3.4 2.9 1.3s1 2.1 1 3.7v7.9h-3.6v-7.6c0-.8-.1-1.4-.4-1.8-.3-.4-.7-.6-1.4-.6-.3 0-.6 0-.8.1-.3.1-.5.2-.7.3s-.4.4-.5.6c-.1.2-.2.5-.2.8v8.2h-3.5zm18.7 0c-1.2 0-2.2-.3-2.8-.9-.6-.6-.9-1.5-.9-2.7v-6.2h-1.8v-2.8h.9c.5 0 .8-.1 1-.3.2-.2.3-.6.3-1V141h3.2v3.4h2.5v2.8h-2.5v7.1h2.3v2.8h-2.2zm9.8.3c-.9 0-1.8-.2-2.5-.5s-1.3-.7-1.8-1.3-.9-1.3-1.2-2.1c-.3-.8-.4-1.7-.4-2.7 0-1 .1-1.9.4-2.7.3-.8.7-1.5 1.2-2.1.5-.6 1.1-1 1.8-1.3.7-.3 1.6-.5 2.5-.5.9 0 1.8.2 2.5.5s1.3.7 1.8 1.3c.5.6.9 1.3 1.2 2.1.3.8.4 1.7.4 2.7 0 1-.1 1.9-.4 2.7-.3.8-.7 1.5-1.2 2.1s-1.1 1-1.8 1.3c-.7.3-1.6.5-2.5.5zm0-2.8c.7 0 1.2-.2 1.6-.6s.6-1 .6-1.8v-2.6c0-.8-.2-1.4-.6-1.8-.4-.4-.9-.6-1.6-.6-.7 0-1.2.2-1.6.6-.4.4-.6 1-.6 1.8v2.6c0 .8.2 1.4.6 1.8.4.4.9.6 1.6.6zm12.7 2.8c-1.2 0-2.2-.2-3.1-.6s-1.6-.9-2.2-1.7l2.1-2.1c.4.5.9.9 1.5 1.2s1.2.4 1.8.4c.7 0 1.2-.1 1.5-.3.3-.2.4-.5.4-.9 0-.6-.4-.9-1.3-1.1l-1.4-.2c-2.8-.4-4.2-1.6-4.2-3.9 0-.6.1-1.2.3-1.7.2-.5.6-.9 1-1.3s.9-.6 1.5-.8c.6-.2 1.3-.3 2-.3s1.2 0 1.7.1 1 .2 1.3.4c.4.2.8.4 1.1.6s.7.5 1 .8l-2 2.1c-.4-.4-.9-.7-1.4-.9-.5-.2-1-.3-1.5-.3-.6 0-1 .1-1.3.3-.3.2-.4.4-.4.8 0 .3.1.6.3.8.2.2.5.3 1 .4l1.4.2c2.8.4 4.2 1.6 4.2 3.8 0 .6-.1 1.2-.4 1.7-.3.5-.6 1-1.1 1.3-.5.4-1 .7-1.7.9-.5.2-1.3.3-2.1.3z" transform="translate(4 3)"/></g><g class="st8"><path class="st10" d="M507.7 116.9c.9 0 1.5-.2 2-.5.4-.3.6-.8.6-1.3v-.2c0-.6-.2-1.1-.6-1.5s-.9-.6-1.7-.6c-.7 0-1.3.2-1.9.5-.6.3-1.1.8-1.5 1.5l-2.3-2.1c.3-.4.7-.8 1-1.1l1.2-.9c.4-.3 1-.4 1.6-.6.6-.1 1.2-.2 1.9-.2.9 0 1.7.1 2.4.3.7.2 1.4.5 1.9.9s.9.9 1.2 1.4.4 1.2.4 1.8c0 .5-.1 1-.3 1.4-.2.4-.4.8-.7 1.1-.3.3-.6.6-1 .8s-.8.3-1.2.4v.1c.5.1 1 .3 1.4.5s.8.5 1.1.8c.3.3.6.7.7 1.2.2.5.3 1 .3 1.5 0 .8-.2 1.4-.5 2-.3.6-.7 1.1-1.3 1.6-.6.4-1.2.8-2 1-.8.2-1.6.3-2.6.3-.8 0-1.6-.1-2.3-.3-.7-.2-1.2-.4-1.7-.7s-.9-.6-1.3-1-.7-.8-.9-1.2l2.7-2.1c.4.7.8 1.3 1.4 1.7s1.3.7 2.2.7c.8 0 1.5-.2 1.9-.6s.7-1 .7-1.7v-.1c0-.7-.3-1.2-.8-1.5-.5-.3-1.2-.5-2.1-.5h-1.5v-3h1.6zm15.3 10.4c-2.2 0-3.8-.8-4.9-2.3-1.1-1.5-1.6-3.6-1.6-6.4s.5-4.9 1.6-6.4 2.7-2.3 4.9-2.3 3.8.8 4.9 2.3c1.1 1.5 1.6 3.6 1.6 6.4s-.5 4.9-1.6 6.4-2.7 2.3-4.9 2.3zm0-3.1c1 0 1.6-.4 2-1.1.4-.7.6-1.7.6-3V117c0-1.3-.2-2.3-.6-3s-1-1.1-2-1.1-1.6.4-2 1.1-.6 1.7-.6 3v3.2c0 1.3.2 2.3.6 3 .4.7 1 1 2 1zm14.4 3.1c-2.2 0-3.8-.8-4.9-2.3-1.1-1.5-1.6-3.6-1.6-6.4s.5-4.9 1.6-6.4 2.7-2.3 4.9-2.3 3.8.8 4.9 2.3c1.1 1.5 1.6 3.6 1.6 6.4s-.5 4.9-1.6 6.4-2.7 2.3-4.9 2.3zm0-3.1c1 0 1.6-.4 2-1.1.4-.7.6-1.7.6-3V117c0-1.3-.2-2.3-.6-3s-1-1.1-2-1.1-1.6.4-2 1.1c-.4.7-.6 1.7-.6 3v3.2c0 1.3.2 2.3.6 3 .4.7 1 1 2 1z" transform="translate(4 3)"/></g><g class="st8"><path class="st10" d="M486.1 146.4h3.6v2.1h.1c.2-.7.6-1.3 1.2-1.7s1.4-.7 2.2-.7c1.6 0 2.8.6 3.6 1.7.8 1.1 1.2 2.8 1.2 4.9 0 2.1-.4 3.8-1.2 4.9-.8 1.1-2 1.7-3.6 1.7-.4 0-.8-.1-1.2-.2-.4-.1-.7-.3-1-.5-.3-.2-.5-.5-.8-.8s-.4-.6-.5-.9h-.1v6.9H486v-17.4zm5.9 10c.7 0 1.2-.2 1.7-.7s.7-1.1.7-1.9v-2.2c0-.8-.2-1.4-.7-1.9s-1-.7-1.7-.7-1.2.2-1.7.5-.7.8-.7 1.4v3.7c0 .6.2 1 .7 1.4s1 .4 1.7.4zm13.8 2.9c-.9 0-1.8-.2-2.5-.5s-1.3-.7-1.8-1.3-.9-1.3-1.2-2.1c-.3-.8-.4-1.7-.4-2.7 0-1 .1-1.9.4-2.7.3-.8.7-1.5 1.2-2.1.5-.6 1.1-1 1.8-1.3.7-.3 1.6-.5 2.5-.5.9 0 1.8.2 2.5.5s1.3.7 1.8 1.3c.5.6.9 1.3 1.2 2.1.3.8.4 1.7.4 2.7 0 1-.1 1.9-.4 2.7-.3.8-.7 1.5-1.2 2.1s-1.1 1-1.8 1.3c-.8.3-1.6.5-2.5.5zm0-2.8c.7 0 1.2-.2 1.6-.6s.6-1 .6-1.8v-2.6c0-.8-.2-1.4-.6-1.8-.4-.4-.9-.6-1.6-.6-.7 0-1.2.2-1.6.6-.4.4-.6 1-.6 1.8v2.6c0 .8.2 1.4.6 1.8.3.4.9.6 1.6.6zm8.4 2.5v-12.6h3.6v2.1h.1c.2-.7.6-1.2 1.2-1.7s1.3-.7 2.3-.7c1.3 0 2.3.4 2.9 1.3s1 2.1 1 3.7v7.9h-3.6v-7.6c0-.8-.1-1.4-.4-1.8-.3-.4-.7-.6-1.4-.6-.3 0-.6 0-.8.1-.3.1-.5.2-.7.3s-.4.4-.5.6c-.1.2-.2.5-.2.8v8.2h-3.5zm18.7 0c-1.2 0-2.2-.3-2.8-.9-.6-.6-.9-1.5-.9-2.7v-6.2h-1.8v-2.8h.9c.5 0 .8-.1 1-.3.2-.2.3-.6.3-1V143h3.2v3.4h2.5v2.8h-2.5v7.1h2.3v2.8h-2.2zm9.8.3c-.9 0-1.8-.2-2.5-.5s-1.3-.7-1.8-1.3-.9-1.3-1.2-2.1c-.3-.8-.4-1.7-.4-2.7 0-1 .1-1.9.4-2.7.3-.8.7-1.5 1.2-2.1.5-.6 1.1-1 1.8-1.3.7-.3 1.6-.5 2.5-.5.9 0 1.8.2 2.5.5s1.3.7 1.8 1.3c.5.6.9 1.3 1.2 2.1.3.8.4 1.7.4 2.7 0 1-.1 1.9-.4 2.7-.3.8-.7 1.5-1.2 2.1s-1.1 1-1.8 1.3c-.7.3-1.6.5-2.5.5zm0-2.8c.7 0 1.2-.2 1.6-.6s.6-1 .6-1.8v-2.6c0-.8-.2-1.4-.6-1.8-.4-.4-.9-.6-1.6-.6-.7 0-1.2.2-1.6.6-.4.4-.6 1-.6 1.8v2.6c0 .8.2 1.4.6 1.8.4.4.9.6 1.6.6zm12.7 2.8c-1.2 0-2.2-.2-3.1-.6s-1.6-.9-2.2-1.7l2.1-2.1c.4.5.9.9 1.5 1.2s1.2.4 1.8.4c.7 0 1.2-.1 1.5-.3.3-.2.4-.5.4-.9 0-.6-.4-.9-1.3-1.1l-1.4-.2c-2.8-.4-4.2-1.6-4.2-3.9 0-.6.1-1.2.3-1.7.2-.5.6-.9 1-1.3s.9-.6 1.5-.8c.6-.2 1.3-.3 2-.3s1.2 0 1.7.1 1 .2 1.3.4c.4.2.8.4 1.1.6s.7.5 1 .8l-2 2.1c-.4-.4-.9-.7-1.4-.9-.5-.2-1-.3-1.5-.3-.6 0-1 .1-1.3.3-.3.2-.4.4-.4.8 0 .3.1.6.3.8.2.2.5.3 1 .4l1.4.2c2.8.4 4.2 1.6 4.2 3.8 0 .6-.1 1.2-.4 1.7-.3.5-.6 1-1.1 1.3-.5.4-1 .7-1.7.9-.5.2-1.3.3-2.1.3z" transform="translate(4 3)"/></g><g class="st8"><path class="st11" d="M514.1 246h-11.9v-3.3l5.2-4.4c.5-.4.9-.8 1.2-1.1.3-.3.6-.6.8-1 .2-.3.3-.6.4-.9.1-.3.1-.6.1-1v-.3c0-.3-.1-.6-.2-.8s-.3-.4-.5-.6c-.2-.2-.4-.3-.7-.4-.3-.1-.5-.1-.8-.1-.4 0-.7.1-1 .2-.3.1-.6.3-.8.5-.2.2-.4.5-.5.7-.1.3-.3.6-.3.9l-3.1-1.2c.2-.6.5-1.1.8-1.6.3-.5.8-1 1.3-1.4.5-.4 1.1-.7 1.8-.9.7-.2 1.5-.3 2.3-.3.9 0 1.7.1 2.4.4.7.3 1.3.6 1.8 1.1.5.4.9 1 1.1 1.6s.4 1.3.4 2-.1 1.4-.4 2c-.2.6-.6 1.1-1 1.7-.4.5-.9 1-1.4 1.5s-1.1.9-1.7 1.4l-3.1 2.4h7.9v2.9zm8.4.3c-2.2 0-3.8-.8-4.9-2.3-1.1-1.5-1.6-3.6-1.6-6.4s.5-4.9 1.6-6.4 2.7-2.3 4.9-2.3 3.8.8 4.9 2.3c1.1 1.5 1.6 3.6 1.6 6.4s-.5 4.9-1.6 6.4-2.7 2.3-4.9 2.3zm0-3.1c1 0 1.6-.4 2-1.1.4-.7.6-1.7.6-3V236c0-1.3-.2-2.3-.6-3s-1-1.1-2-1.1-1.6.4-2 1.1-.6 1.7-.6 3v3.2c0 1.3.2 2.3.6 3 .4.7 1 1 2 1zm14.4 3.1c-2.2 0-3.8-.8-4.9-2.3-1.1-1.5-1.6-3.6-1.6-6.4s.5-4.9 1.6-6.4 2.7-2.3 4.9-2.3 3.8.8 4.9 2.3c1.1 1.5 1.6 3.6 1.6 6.4s-.5 4.9-1.6 6.4-2.7 2.3-4.9 2.3zm0-3.1c1 0 1.6-.4 2-1.1.4-.7.6-1.7.6-3V236c0-1.3-.2-2.3-.6-3s-1-1.1-2-1.1-1.6.4-2 1.1c-.4.7-.6 1.7-.6 3v3.2c0 1.3.2 2.3.6 3 .4.7 1 1 2 1z" transform="translate(4 3)"/></g><g class="st8"><path class="st11" d="M485.6 265.4h3.6v2.1h.1c.2-.7.6-1.3 1.2-1.7s1.4-.7 2.2-.7c1.6 0 2.8.6 3.6 1.7.8 1.1 1.2 2.8 1.2 4.9 0 2.1-.4 3.8-1.2 4.9-.8 1.1-2 1.7-3.6 1.7-.4 0-.8-.1-1.2-.2-.4-.1-.7-.3-1-.5-.3-.2-.5-.5-.8-.8s-.4-.6-.5-.9h-.1v6.9h-3.6v-17.4zm5.9 10c.7 0 1.2-.2 1.7-.7s.7-1.1.7-1.9v-2.2c0-.8-.2-1.4-.7-1.9s-1-.7-1.7-.7-1.2.2-1.7.5-.7.8-.7 1.4v3.7c0 .6.2 1 .7 1.4s1 .4 1.7.4zm13.8 2.9c-.9 0-1.8-.2-2.5-.5s-1.3-.7-1.8-1.3-.9-1.3-1.2-2.1c-.3-.8-.4-1.7-.4-2.7 0-1 .1-1.9.4-2.7.3-.8.7-1.5 1.2-2.1.5-.6 1.1-1 1.8-1.3.7-.3 1.6-.5 2.5-.5.9 0 1.8.2 2.5.5s1.3.7 1.8 1.3c.5.6.9 1.3 1.2 2.1.3.8.4 1.7.4 2.7 0 1-.1 1.9-.4 2.7-.3.8-.7 1.5-1.2 2.1s-1.1 1-1.8 1.3c-.8.3-1.6.5-2.5.5zm0-2.8c.7 0 1.2-.2 1.6-.6s.6-1 .6-1.8v-2.6c0-.8-.2-1.4-.6-1.8-.4-.4-.9-.6-1.6-.6-.7 0-1.2.2-1.6.6-.4.4-.6 1-.6 1.8v2.6c0 .8.2 1.4.6 1.8.3.4.9.6 1.6.6zm8.4 2.5v-12.6h3.6v2.1h.1c.2-.7.6-1.2 1.2-1.7s1.3-.7 2.3-.7c1.3 0 2.3.4 2.9 1.3s1 2.1 1 3.7v7.9h-3.6v-7.6c0-.8-.1-1.4-.4-1.8-.3-.4-.7-.6-1.4-.6-.3 0-.6 0-.8.1-.3.1-.5.2-.7.3s-.4.4-.5.6c-.1.2-.2.5-.2.8v8.2h-3.5zm18.7 0c-1.2 0-2.2-.3-2.8-.9-.6-.6-.9-1.5-.9-2.7v-6.2h-1.8v-2.8h.9c.5 0 .8-.1 1-.3.2-.2.3-.6.3-1V262h3.2v3.4h2.5v2.8h-2.5v7.1h2.3v2.8h-2.2zm9.8.3c-.9 0-1.8-.2-2.5-.5s-1.3-.7-1.8-1.3-.9-1.3-1.2-2.1c-.3-.8-.4-1.7-.4-2.7 0-1 .1-1.9.4-2.7.3-.8.7-1.5 1.2-2.1.5-.6 1.1-1 1.8-1.3.7-.3 1.6-.5 2.5-.5.9 0 1.8.2 2.5.5s1.3.7 1.8 1.3c.5.6.9 1.3 1.2 2.1.3.8.4 1.7.4 2.7 0 1-.1 1.9-.4 2.7-.3.8-.7 1.5-1.2 2.1s-1.1 1-1.8 1.3c-.7.3-1.6.5-2.5.5zm0-2.8c.7 0 1.2-.2 1.6-.6s.6-1 .6-1.8v-2.6c0-.8-.2-1.4-.6-1.8-.4-.4-.9-.6-1.6-.6-.7 0-1.2.2-1.6.6-.4.4-.6 1-.6 1.8v2.6c0 .8.2 1.4.6 1.8.4.4.9.6 1.6.6zm12.7 2.8c-1.2 0-2.2-.2-3.1-.6s-1.6-.9-2.2-1.7l2.1-2.1c.4.5.9.9 1.5 1.2s1.2.4 1.8.4c.7 0 1.2-.1 1.5-.3.3-.2.4-.5.4-.9 0-.6-.4-.9-1.3-1.1l-1.4-.2c-2.8-.4-4.2-1.6-4.2-3.9 0-.6.1-1.2.3-1.7.2-.5.6-.9 1-1.3s.9-.6 1.5-.8c.6-.2 1.3-.3 2-.3s1.2 0 1.7.1 1 .2 1.3.4c.4.2.8.4 1.1.6s.7.5 1 .8l-2 2.1c-.4-.4-.9-.7-1.4-.9-.5-.2-1-.3-1.5-.3-.6 0-1 .1-1.3.3-.3.2-.4.4-.4.8 0 .3.1.6.3.8.2.2.5.3 1 .4l1.4.2c2.8.4 4.2 1.6 4.2 3.8 0 .6-.1 1.2-.4 1.7-.3.5-.6 1-1.1 1.3-.5.4-1 .7-1.7.9-.5.2-1.3.3-2.1.3z" transform="translate(4 3)"/></g><g class="st8"><path class="st10" d="M473.2 30h-11.9v-3.3l5.2-4.4c.5-.4.9-.8 1.2-1.1.3-.3.6-.6.8-1 .2-.3.3-.6.4-.9.1-.3.1-.6.1-1V18c0-.3-.1-.6-.2-.8s-.3-.4-.5-.6c-.2-.2-.4-.3-.7-.4-.3-.1-.5-.1-.8-.1-.4 0-.7.1-1 .2-.3.1-.6.3-.8.5-.2.2-.4.5-.5.7-.1.3-.3.6-.3.9l-3.1-1.2c.2-.6.5-1.1.8-1.6.3-.5.8-1 1.3-1.4.5-.4 1.1-.7 1.8-.9.7-.2 1.5-.3 2.3-.3.9 0 1.7.1 2.4.4.7.3 1.3.6 1.8 1.1.5.4.9 1 1.1 1.6s.4 1.3.4 2-.1 1.4-.4 2c-.2.6-.6 1.1-1 1.7-.4.5-.9 1-1.4 1.5s-1.1.9-1.7 1.4l-3.1 2.4h7.9V30zm8.4.3c-2.2 0-3.8-.8-4.9-2.3-1.1-1.5-1.6-3.6-1.6-6.4s.5-4.9 1.6-6.4 2.7-2.3 4.9-2.3 3.8.8 4.9 2.3c1.1 1.5 1.6 3.6 1.6 6.4s-.5 4.9-1.6 6.4-2.7 2.3-4.9 2.3zm0-3.1c1 0 1.6-.4 2-1.1.4-.7.6-1.7.6-3V20c0-1.3-.2-2.3-.6-3s-1-1.1-2-1.1-1.6.4-2 1.1-.6 1.7-.6 3v3.2c0 1.3.2 2.3.6 3 .4.7 1 1 2 1zm14.4 3.1c-2.2 0-3.8-.8-4.9-2.3-1.1-1.5-1.6-3.6-1.6-6.4s.5-4.9 1.6-6.4 2.7-2.3 4.9-2.3 3.8.8 4.9 2.3c1.1 1.5 1.6 3.6 1.6 6.4s-.5 4.9-1.6 6.4-2.7 2.3-4.9 2.3zm0-3.1c1 0 1.6-.4 2-1.1.4-.7.6-1.7.6-3V20c0-1.3-.2-2.3-.6-3s-1-1.1-2-1.1-1.6.4-2 1.1c-.4.7-.6 1.7-.6 3v3.2c0 1.3.2 2.3.6 3 .4.7 1 1 2 1zm14.5-9.8h3.6v2.1h.1c.2-.7.6-1.3 1.2-1.7.6-.4 1.4-.7 2.2-.7 1.6 0 2.8.6 3.6 1.7.8 1.1 1.2 2.8 1.2 4.9 0 2.1-.4 3.8-1.2 4.9-.8 1.1-2 1.7-3.6 1.7-.4 0-.8-.1-1.2-.2-.4-.1-.7-.3-1-.5-.3-.2-.5-.5-.8-.8-.2-.3-.4-.6-.5-.9h-.1v6.9h-3.6V17.4zm5.9 10c.7 0 1.2-.2 1.7-.7.4-.5.7-1.1.7-1.9v-2.2c0-.8-.2-1.4-.7-1.9-.4-.5-1-.7-1.7-.7s-1.2.2-1.7.5c-.4.3-.7.8-.7 1.4v3.7c0 .6.2 1 .7 1.4.5.2 1 .4 1.7.4zm13.8 2.9c-.9 0-1.8-.2-2.5-.5s-1.3-.7-1.8-1.3-.9-1.3-1.2-2.1c-.3-.8-.4-1.7-.4-2.7 0-1 .1-1.9.4-2.7.3-.8.7-1.5 1.2-2.1.5-.6 1.1-1 1.8-1.3.7-.3 1.6-.5 2.5-.5s1.8.2 2.5.5 1.3.7 1.8 1.3c.5.6.9 1.3 1.2 2.1.3.8.4 1.7.4 2.7 0 1-.1 1.9-.4 2.7-.3.8-.7 1.5-1.2 2.1s-1.1 1-1.8 1.3c-.7.3-1.6.5-2.5.5zm0-2.8c.7 0 1.2-.2 1.6-.6.4-.4.6-1 .6-1.8v-2.6c0-.8-.2-1.4-.6-1.8-.4-.4-.9-.6-1.6-.6s-1.2.2-1.6.6c-.4.4-.6 1-.6 1.8V25c0 .8.2 1.4.6 1.8s.9.7 1.6.7zm8.4 2.5V17.4h3.6v2.1h.1c.2-.7.6-1.2 1.2-1.7s1.3-.7 2.3-.7c1.3 0 2.3.4 2.9 1.3s1 2.1 1 3.7V30h-3.6v-7.6c0-.8-.1-1.4-.4-1.8-.3-.4-.7-.6-1.4-.6-.3 0-.6 0-.8.1-.3.1-.5.2-.7.3s-.4.4-.5.6c-.1.2-.2.5-.2.8V30h-3.5zm18.8 0c-1.2 0-2.2-.3-2.8-.9-.6-.6-.9-1.5-.9-2.7v-6.2h-1.8v-2.8h.9c.5 0 .8-.1 1-.3.2-.2.3-.6.3-1V14h3.2v3.4h2.5v2.8h-2.5v7.1h2.3V30h-2.2zm9.7.3c-.9 0-1.8-.2-2.5-.5s-1.3-.7-1.8-1.3-.9-1.3-1.2-2.1c-.3-.8-.4-1.7-.4-2.7 0-1 .1-1.9.4-2.7.3-.8.7-1.5 1.2-2.1.5-.6 1.1-1 1.8-1.3.7-.3 1.6-.5 2.5-.5s1.8.2 2.5.5 1.3.7 1.8 1.3c.5.6.9 1.3 1.2 2.1.3.8.4 1.7.4 2.7 0 1-.1 1.9-.4 2.7-.3.8-.7 1.5-1.2 2.1s-1.1 1-1.8 1.3c-.7.3-1.5.5-2.5.5zm0-2.8c.7 0 1.2-.2 1.6-.6.4-.4.6-1 .6-1.8v-2.6c0-.8-.2-1.4-.6-1.8-.4-.4-.9-.6-1.6-.6s-1.2.2-1.6.6c-.4.4-.6 1-.6 1.8V25c0 .8.2 1.4.6 1.8s.9.7 1.6.7zm12.7 2.8c-1.2 0-2.2-.2-3.1-.6s-1.6-.9-2.2-1.7l2.1-2.1c.4.5.9.9 1.5 1.2s1.2.4 1.8.4c.7 0 1.2-.1 1.5-.3.3-.2.4-.5.4-.9 0-.6-.4-.9-1.3-1.1l-1.4-.2c-2.8-.4-4.2-1.6-4.2-3.9 0-.6.1-1.2.3-1.7.2-.5.6-.9 1-1.3s.9-.6 1.5-.8c.6-.2 1.3-.3 2-.3s1.2 0 1.7.1 1 .2 1.3.4c.4.2.8.4 1.1.6s.7.5 1 .8l-2 2.1c-.4-.4-.9-.7-1.4-.9-.5-.2-1-.3-1.5-.3-.6 0-1 .1-1.3.3-.3.2-.4.4-.4.8 0 .3.1.6.3.8.2.2.5.3 1 .4l1.4.2c2.8.4 4.2 1.6 4.2 3.8 0 .6-.1 1.2-.4 1.7-.3.5-.6 1-1.1 1.3-.5.4-1 .7-1.7.9-.5.2-1.2.3-2.1.3z" transform="translate(4 3)"/></g><g class="st8"><path class="st10" d="M360.2 31v-2.9h4.5V16.9h-.2l-3.4 4.5-2.3-1.8 4-5.3h5.5v13.8h3.6V31h-11.7zm19.3.3c-2.2 0-3.8-.8-4.9-2.3-1.1-1.5-1.6-3.6-1.6-6.4s.5-4.9 1.6-6.4 2.7-2.3 4.9-2.3 3.8.8 4.9 2.3c1.1 1.5 1.6 3.6 1.6 6.4s-.5 4.9-1.6 6.4-2.7 2.3-4.9 2.3zm0-3.1c1 0 1.6-.4 2-1.1.4-.7.6-1.7.6-3V21c0-1.3-.2-2.3-.6-3s-1-1.1-2-1.1-1.6.4-2 1.1-.6 1.7-.6 3v3.2c0 1.3.2 2.3.6 3 .4.7 1 1 2 1zm14.4 3.1c-2.2 0-3.8-.8-4.9-2.3-1.1-1.5-1.6-3.6-1.6-6.4s.5-4.9 1.6-6.4 2.7-2.3 4.9-2.3 3.8.8 4.9 2.3c1.1 1.5 1.6 3.6 1.6 6.4s-.5 4.9-1.6 6.4-2.7 2.3-4.9 2.3zm0-3.1c1 0 1.6-.4 2-1.1.4-.7.6-1.7.6-3V21c0-1.3-.2-2.3-.6-3s-1-1.1-2-1.1-1.6.4-2 1.1c-.4.7-.6 1.7-.6 3v3.2c0 1.3.2 2.3.6 3 .4.7 1 1 2 1z" transform="translate(4 3)"/></g><g class="st8"><path class="st10" d="M342.6 50.4h3.6v2.1h.1c.2-.7.6-1.3 1.2-1.7s1.4-.7 2.2-.7c1.6 0 2.8.6 3.6 1.7.8 1.1 1.2 2.8 1.2 4.9 0 2.1-.4 3.8-1.2 4.9-.8 1.1-2 1.7-3.6 1.7-.4 0-.8-.1-1.2-.2-.4-.1-.7-.3-1-.5-.3-.2-.5-.5-.8-.8s-.4-.6-.5-.9h-.1v6.9h-3.6V50.4zm5.9 10c.7 0 1.2-.2 1.7-.7s.7-1.1.7-1.9v-2.2c0-.8-.2-1.4-.7-1.9s-1-.7-1.7-.7-1.2.2-1.7.5-.7.8-.7 1.4v3.7c0 .6.2 1 .7 1.4s1 .4 1.7.4zm13.8 2.9c-.9 0-1.8-.2-2.5-.5s-1.3-.7-1.8-1.3-.9-1.3-1.2-2.1c-.3-.8-.4-1.7-.4-2.7 0-1 .1-1.9.4-2.7.3-.8.7-1.5 1.2-2.1.5-.6 1.1-1 1.8-1.3.7-.3 1.6-.5 2.5-.5.9 0 1.8.2 2.5.5s1.3.7 1.8 1.3c.5.6.9 1.3 1.2 2.1.3.8.4 1.7.4 2.7 0 1-.1 1.9-.4 2.7-.3.8-.7 1.5-1.2 2.1s-1.1 1-1.8 1.3c-.8.3-1.6.5-2.5.5zm0-2.8c.7 0 1.2-.2 1.6-.6s.6-1 .6-1.8v-2.6c0-.8-.2-1.4-.6-1.8-.4-.4-.9-.6-1.6-.6-.7 0-1.2.2-1.6.6-.4.4-.6 1-.6 1.8V58c0 .8.2 1.4.6 1.8.3.5.9.7 1.6.7zm8.4 2.5V50.4h3.6v2.1h.1c.2-.7.6-1.2 1.2-1.7s1.3-.7 2.3-.7c1.3 0 2.3.4 2.9 1.3s1 2.1 1 3.7V63h-3.6v-7.6c0-.8-.1-1.4-.4-1.8-.3-.4-.7-.6-1.4-.6-.3 0-.6 0-.8.1-.3.1-.5.2-.7.3s-.4.4-.5.6c-.1.2-.2.5-.2.8V63h-3.5zm18.7 0c-1.2 0-2.2-.3-2.8-.9-.6-.6-.9-1.5-.9-2.7v-6.2h-1.8v-2.8h.9c.5 0 .8-.1 1-.3.2-.2.3-.6.3-1V47h3.2v3.4h2.5v2.8h-2.5v7.1h2.3V63h-2.2zm9.8.3c-.9 0-1.8-.2-2.5-.5s-1.3-.7-1.8-1.3-.9-1.3-1.2-2.1c-.3-.8-.4-1.7-.4-2.7 0-1 .1-1.9.4-2.7.3-.8.7-1.5 1.2-2.1.5-.6 1.1-1 1.8-1.3.7-.3 1.6-.5 2.5-.5.9 0 1.8.2 2.5.5s1.3.7 1.8 1.3c.5.6.9 1.3 1.2 2.1.3.8.4 1.7.4 2.7 0 1-.1 1.9-.4 2.7-.3.8-.7 1.5-1.2 2.1s-1.1 1-1.8 1.3c-.7.3-1.6.5-2.5.5zm0-2.8c.7 0 1.2-.2 1.6-.6s.6-1 .6-1.8v-2.6c0-.8-.2-1.4-.6-1.8-.4-.4-.9-.6-1.6-.6-.7 0-1.2.2-1.6.6-.4.4-.6 1-.6 1.8V58c0 .8.2 1.4.6 1.8.4.5.9.7 1.6.7zm12.7 2.8c-1.2 0-2.2-.2-3.1-.6s-1.6-.9-2.2-1.7l2.1-2.1c.4.5.9.9 1.5 1.2s1.2.4 1.8.4c.7 0 1.2-.1 1.5-.3.3-.2.4-.5.4-.9 0-.6-.4-.9-1.3-1.1l-1.4-.2c-2.8-.4-4.2-1.6-4.2-3.9 0-.6.1-1.2.3-1.7.2-.5.6-.9 1-1.3s.9-.6 1.5-.8c.6-.2 1.3-.3 2-.3s1.2 0 1.7.1 1 .2 1.3.4c.4.2.8.4 1.1.6s.7.5 1 .8l-2 2.1c-.4-.4-.9-.7-1.4-.9-.5-.2-1-.3-1.5-.3-.6 0-1 .1-1.3.3-.3.2-.4.4-.4.8 0 .3.1.6.3.8.2.2.5.3 1 .4l1.4.2c2.8.4 4.2 1.6 4.2 3.8 0 .6-.1 1.2-.4 1.7-.3.5-.6 1-1.1 1.3-.5.4-1 .7-1.7.9-.5.2-1.3.3-2.1.3z" transform="translate(4 3)"/></g><g class="st8"><path class="st10" d="M339.5 290.9c-.4.6-.9 1.1-1.4 1.5v.4c0 .8-.1 1.5-.3 2.3-.2.8-.6 1.5-1 2.2-.5.7-1 1.3-1.6 1.9-.6.5-1.4 1-2.3 1.3s-1.9.5-2.9.5c-1.6 0-3.1-.4-4.4-1.3h.7c1.3 0 2.5-.4 3.6-1.2-.6 0-1.2-.2-1.7-.6-.5-.4-.8-.8-1-1.4h.5c.3 0 .5 0 .8-.1-.7-.1-1.2-.5-1.7-1-.4-.5-.7-1.1-.7-1.8.4.2.8.3 1.3.4-.4-.3-.7-.6-.9-1s-.3-.9-.3-1.4c0-.5.1-1 .4-1.5.7.9 1.6 1.6 2.6 2.1s2.1.8 3.3.9c0-.2-.1-.4-.1-.7 0-.8.3-1.5.8-2s1.2-.8 2-.8 1.5.3 2.1.9c.6-.1 1.3-.4 1.8-.7-.2.7-.6 1.2-1.3 1.6.6-.1 1.1-.2 1.7-.5z" transform="translate(4 3)"/></g><path class="st11" d="M471 294.6h.4c.1-.1.1-.4 0-.6-.1-.4-.2-.6-.4-.6s-.2.3-.2.7c.1.2.1.3.2.5zm-2 .3c.2.1.3.1.3.1v-.1c-.1-.1-.3-.3-.4-.3-.4-.1-.8-.1-1.2.1-.1.1-.2.2-.2.3h.1c.1 0 .4-.1.8-.2.2-.1.4 0 .6.1zm-.3.1c-.2 0-.3.1-.4.2-.1.1-.1.1-.1.2h.2c.2-.1.5-.1.7-.1h.2v-.1c-.1-.1-.3-.2-.6-.2zm1.7.7c.1.1.3 0 .4-.1.1-.1 0-.2-.2-.3-.1-.1-.3 0-.4.1-.1.1 0 .2.2.3zm.9-.8c-.1 0-.2.1-.2.3 0 .2.1.3.2.3s.2-.1.2-.3c0-.1-.1-.3-.2-.3zm-8.1 2.9h-.2c-.1 0-.2 0-.2-.1-.1-.1-.1-.2 0-.3v-.1c.1-.2.3-.5.1-.9-.1-.2-.4-.4-.6-.4-.3 0-.5.1-.7.2-.3.3-.3.7-.3.8 0 0 0 .1.1.1 0 0 .1 0 .2-.1 0-.1.1-.2.1-.2.1-.1.2-.2.3-.2.1 0 .3 0 .4.1.2.1.3.3.2.5 0 .1-.1.3-.1.5 0 .3.3.5.5.5 0-.2.1-.3.2-.4zm11.2-.7s-.1-.2-.1-.4l-.1-.3c.3-.4.3-.7.2-.9 0-.2-.1-.4-.4-.6-.2-.2-.6-.4-1.2-.6l-.3-.1v-1c0-.2 0-.5-.1-.9s-.4-.8-.6-1.1c.8-.8 1.3-1.6 1.3-2.3 0-1.4-1.8-1.8-4.1-.9l-.5.2c-.3-.3-.6-.5-.9-.8-2.6-2.1-10.6 6.3-8 8.3l.6.4c-.2.4-.2.8-.2 1.2.1.6.4 1.1.9 1.5.5.4 1.1.6 1.7.6 1 2.2 3.3 3.5 5.9 3.6 2.9.1 5.3-1.2 6.3-3.5.1-.2.3-.9.3-1.5-.1-.6-.5-.9-.7-.9zm-11.7 1.7h-.3c-.9 0-1.8-.8-1.9-1.6-.1-1 .4-1.7 1.3-1.9h.4c.5 0 1.3.4 1.5 1.5.2.9-.1 1.9-1 2zm-1-4c-.6.1-1.1.4-1.4.8-.2-.1-.5-.4-.6-.5-.5-.9.5-2.6 1.3-3.6 1.8-2.4 4.6-4.2 5.9-3.9.2.1.9.8.9.8s-1.3.7-2.5 1.6c-1.6 1.2-2.9 2.9-3.6 4.8zm9.1 3.7s0-.1 0 0c0-.1 0-.1 0 0 0-.1 0-.1 0 0 0-.1-1.4.1-2.7-.3.1-.4.5-.3 1.1-.2.9 0 1.7 0 2.6-.3.6-.2 1.3-.5 1.9-.9.2.4.3.9.3.9h.3c.1.1.2.2.1.6-.1.7-.4 1.3-1 1.8-.3.3-.7.6-1.2.8-.2.1-.5.2-.8.3-2 .6-4.1-.1-4.8-1.5-.1-.1-.1-.2-.1-.3-.3-1 0-2.1.7-2.9 0 0 .1-.1.1-.2s0-.1-.1-.2c-.3-.4-1.2-1-1-2.2.1-.9.9-1.5 1.7-1.4h.2c.3 0 .6.1.9.1.4 0 .8 0 1.3-.4.2-.1.3-.2.5-.3h.2c.1 0 .2 0 .3.1.4.2.4.8.5 1.2 0 .2 0 .8.1 1 0 .4.1.4.3.5.1 0 .2.1.4.1.5.1.8.3 1 .4.1.1.2.2.2.3.1.4-.3.9-1.4 1.4-1.1.5-2.5.6-3.5.5h-.3c-.8-.1-1.2.8-.7 1.5.3.4 1.1.7 1.9.7 1.8 0 3.3-.7 3.8-1.4v-.1s0-.1 0 0c-.4.3-2.3 1.4-4.4 1 0 0-.2 0-.5-.1-.2-.1-.6-.2-.6-.6 1.6.5 2.7.1 2.7.1zm-5.8-7c.6-.7 1.4-1.3 2.1-1.6-.1.1-.2.3-.2.5.4-.3 1.2-.6 1.9-.6l-.3.3c.5 0 1.1.2 1.6.4v.1c-.6-.1-1.7-.2-2.8 0-1 .2-1.7.6-2.3.9 0 .1 0 0 0 0z" transform="translate(4 3)"/><g class="st8"><path class="st10" d="M469.6 184.4v2.4h-1.4c-.5 0-.9.1-1 .3-.2.2-.3.5-.3 1v1.7h2.6l-.3 2.6h-2.3v6.8h-2.7v-6.8h-2.3v-2.6h2.3v-1.9c0-1.1.3-2 .9-2.6.6-.6 1.4-.9 2.5-.9.8-.1 1.5-.1 2 0z" transform="translate(4 3)"/></g><g transform="translate(323 77)"><path class="st12" d="M4 2h9c1.1 0 2 .9 2 2v7c0 1.1-.9 2-2 2H4c-1.1 0-2-.9-2-2V4c0-1.1.9-2 2-2zM1 4.2v5.7c-.6-.3-1-1-1-1.7V5.9c0-.7.4-1.4 1-1.7zm15 5.6V4.2c.6.3 1 1 1 1.7v2.2c0 .7-.4 1.4-1 1.7z"/><path class="st13" d="M8.5.3v6.4"/><circle class="st14" cx="5.5" cy="5.5" r="1.5"/><circle class="st14" cx="11.5" cy="5.5" r="1.5"/><path d="M4 10h9.4" fill="none" stroke="#00c578" stroke-linecap="square" stroke-dasharray="2"/></g><g transform="translate(323 169)"><path class="st12" d="M4 2h9c1.1 0 2 .9 2 2v7c0 1.1-.9 2-2 2H4c-1.1 0-2-.9-2-2V4c0-1.1.9-2 2-2zM1 4.2v5.7c-.6-.3-1-1-1-1.7V5.9c0-.7.4-1.4 1-1.7zm15 5.6V4.2c.6.3 1 1 1 1.7v2.2c0 .7-.4 1.4-1 1.7z"/><path class="st13" d="M8.5.3v6.4"/><circle class="st16" cx="5.5" cy="5.5" r="1.5"/><circle class="st16" cx="11.5" cy="5.5" r="1.5"/><path d="M4 10h9.4" fill="none" stroke="#cc1d99" stroke-linecap="square" stroke-dasharray="2"/></g><g class="st8"><path class="st10" d="M471 48v10c0 .3-.1.5-.3.7-.2.2-.4.3-.7.3h-11c-.3 0-.5-.1-.7-.3-.2-.2-.3-.4-.3-.7V48c0-.3.1-.5.3-.7.2-.2.4-.3.7-.3h1v-.8c0-.3.1-.6.4-.9.2-.2.5-.4.9-.4h.5c.3 0 .6.1.9.4.2.2.4.5.4.9v.8h3v-.8c0-.3.1-.6.4-.9.2-.2.5-.4.9-.4h.5c.3 0 .6.1.9.4.2.2.4.5.4.9v.8h1c.3 0 .5.1.7.3 0 .2.1.4.1.7zm-12 10h11v-8h-11v8zm3-9.5v-2.2c0-.1 0-.1-.1-.2s-.1-.1-.2-.1h-.5c-.1 0-.1 0-.2.1s-.1.1-.1.2v2.2c0 .1 0 .1.1.2s.1.1.2.1h.5c.1 0 .1 0 .2-.1s.1-.1.1-.2zm6.2 4l-4 4c-.1 0-.1.1-.2.1s-.1 0-.2-.1l-2.2-2.2c0-.1-.1-.1-.1-.2s0-.1.1-.2l.4-.4s.1-.1.2-.1.1 0 .2.1l1.7 1.7 3.5-3.5c.1 0 .1-.1.2-.1s.1 0 .2.1l.4.4s.1.1.1.2-.3.2-.3.2zm-.2-4v-2.2c0-.1 0-.1-.1-.2s-.1-.1-.2-.1h-.5c-.1 0-.1 0-.2.1s-.1.1-.1.2v2.2c0 .1 0 .1.1.2s.1.1.2.1h.5c.1 0 .1 0 .2-.1s.1-.1.1-.2z" transform="translate(4 3)"/></g><path d="M249.8 170.8c1.4 4.4 2.1 8.9 2.6 13.5.8 7 .8 14 0 21-1.3 11.3-4.4 22.2-9.7 32.3-14.1 26.6-35.9 43.2-65.2 49.8-6.2 1.4-12.6 2.1-19 1.8-.6-.6-.6-1.3-.6-2.1v-36.3c0-.5 0-1 .2-1.5.4-1 1.4-.9 2.2-.9 11.7-.1 22.1-3.9 31.3-11 11.3-8.8 18-20.3 20.1-34.5 1-6.6.6-13.1-.8-19.6-.2-.7-.4-1.4-.1-2.2.5-.6 1.2-.7 1.8-.8 11.7-3 23.5-6 35.2-9.1.6-.4 1.3-.6 2-.4z" fill="#3b5997"/><path d="M75.7 149.5c2.4-5 5.6-9.5 9-13.8 11.4-14.2 25.8-24.3 43-30.3 10.9-3.8 22.2-5.5 33.8-5.1 2.9.1 5.8.1 8.6.7.4.6.4 1.3.3 2-1.6 12.6-3.1 25.2-4.7 37.8 0 .2-.1.4-.2.7-.5.9-1.5.7-2.3.7-3.7 0-7.4-.2-11.1.3-9.8 1.2-18.5 5-26.2 11.1-5 3.9-9.2 8.6-12.5 14.1-.4.6-.7 1.3-1.4 1.7-.7.2-1.2-.1-1.8-.4-11.2-6.2-22.4-12.3-33.5-18.4-.3-.3-.8-.5-1-1.1z" fill="#fe3366"/><path d="M75.7 149.5c4.6 2.2 9 4.8 13.5 7.3 7.6 4.1 15.2 8.3 22.8 12.4.4.8-.1 1.4-.4 2.1-4.4 8.7-6.2 18.1-5.6 27.8.7 9.8 3.9 18.8 9.6 26.8.6.9 1.4 1.6 1.7 2.7.1.8-.4 1.2-1 1.7-8.6 7.2-17.3 14.3-25.9 21.5-1 .8-2 1.7-3 2.5-.4.3-.8.9-1.5.7-4.8-5.5-8.6-11.6-11.9-18-7.5-14.9-10.7-30.7-9.9-47.3.7-14 4.5-27.3 11.2-39.7.2-.2.3-.3.4-.5z" fill="#f7c61c"/><path d="M170.2 101.1c7.7.8 15.2 2.7 22.4 5.6 29.1 11.9 48.1 32.9 57 63.1.1.3.1.7.2 1-3.7 1.4-7.5 2.1-11.3 3.1-9.2 2.4-18.4 4.8-27.7 7.2-.7-.3-.8-1.1-1-1.7-2.6-8.1-6.8-15.3-12.7-21.3-8.4-8.5-20.3-14.2-32.1-16" fill="#00abed"/><path d="M85.9 255c10.2-8.4 20.4-16.9 30.5-25.3.3-.2.5-.5.7-.7.7-.1 1 .4 1.4.8 6 7 13.3 12.1 21.9 15.4.6.2 1.2.4 1.5 1.1.2.6-.1 1.2-.2 1.8-3.8 11.4-7.4 22.8-11.1 34.2-.3.8-.4 1.8-1.4 2.2-17-5.6-31.3-15.2-42.9-28.8-.1-.2-.2-.5-.4-.7z" fill="#00c478"/><path d="M129.3 284.5c1.9-5.7 3.8-11.4 5.6-17.2 2.3-7.1 4.6-14.2 6.8-21.2.6-.6 1.3-.2 1.9 0 4.3 1.2 8.6 2.1 13 2.2.6 0 1.4-.1 1.8.7v40.1c-9.5.2-18.8-1.4-27.9-4.2-.4-.1-.8-.3-1.2-.4z" fill="#cb1d98"/><path class="st9" d="M123.1 198.8v-3.9h6v-15h-.3l-4.5 6-3.1-2.4 5.3-7h7.4V195h4.7v3.9h-15.5zm25.8.4c-2.9 0-5.1-1-6.5-3-1.4-2-2.1-4.9-2.1-8.5s.7-6.5 2.1-8.5 3.6-3 6.5-3 5.1 1 6.5 3 2.1 4.9 2.1 8.5-.7 6.5-2.1 8.5c-1.4 1.9-3.6 3-6.5 3zm0-4.1c1.3 0 2.2-.5 2.7-1.4.5-.9.7-2.3.7-4v-4.2c0-1.7-.2-3-.7-4-.5-.9-1.4-1.4-2.7-1.4s-2.2.5-2.7 1.4c-.5.9-.7 2.3-.7 4v4.2c0 1.7.2 3 .7 4 .5.9 1.4 1.4 2.7 1.4zm19.2 4.1c-2.9 0-5.1-1-6.5-3-1.4-2-2.1-4.9-2.1-8.5s.7-6.5 2.1-8.5 3.6-3 6.5-3 5.1 1 6.5 3c1.4 2 2.1 4.9 2.1 8.5s-.7 6.5-2.1 8.5c-1.4 1.9-3.6 3-6.5 3zm0-4.1c1.3 0 2.2-.5 2.7-1.4.5-.9.7-2.3.7-4v-4.2c0-1.7-.2-3-.7-4-.5-.9-1.4-1.4-2.7-1.4-1.3 0-2.2.5-2.7 1.4-.5.9-.7 2.3-.7 4v4.2c0 1.7.2 3 .7 4 .5.9 1.4 1.4 2.7 1.4zm19.2 4.1c-2.9 0-5.1-1-6.5-3-1.4-2-2.1-4.9-2.1-8.5s.7-6.5 2.1-8.5 3.6-3 6.5-3 5.1 1 6.5 3 2.1 4.9 2.1 8.5-.7 6.5-2.1 8.5c-1.4 1.9-3.6 3-6.5 3zm0-4.1c1.3 0 2.2-.5 2.7-1.4.5-.9.7-2.3.7-4v-4.2c0-1.7-.2-3-.7-4-.5-.9-1.4-1.4-2.7-1.4s-2.2.5-2.7 1.4c-.5.9-.7 2.3-.7 4v4.2c0 1.7.2 3 .7 4 .5.9 1.4 1.4 2.7 1.4zM137 208.2h2.1v1.2h.1c.1-.4.3-.7.7-1 .4-.3.8-.4 1.3-.4.9 0 1.6.3 2.1 1s.7 1.6.7 2.9c0 1.2-.2 2.2-.7 2.9-.5.7-1.2 1-2.1 1-.2 0-.5 0-.7-.1l-.6-.3c-.2-.1-.3-.3-.4-.4s-.2-.4-.3-.6h-.2v4h-2v-10.2zm3.4 5.9c.4 0 .7-.1 1-.4s.4-.6.4-1.1v-1.3c0-.5-.1-.8-.4-1.1s-.6-.4-1-.4-.7.1-1 .3-.4.5-.4.8v2.2c0 .3.1.6.4.8s.6.2 1 .2zm8.1 1.6c-.5 0-1-.1-1.4-.3-.4-.2-.8-.4-1.1-.8s-.5-.7-.7-1.2c-.2-.5-.2-1-.2-1.6s.1-1.1.2-1.6c.2-.5.4-.9.7-1.2.3-.3.7-.6 1.1-.8.4-.2.9-.3 1.4-.3s1 .1 1.4.3c.4.2.8.4 1.1.8.3.3.5.7.7 1.2.2.5.2 1 .2 1.6s-.1 1.1-.2 1.6c-.2.5-.4.9-.7 1.2s-.7.6-1.1.8c-.4.2-.9.3-1.4.3zm0-1.6c.4 0 .7-.1 1-.4.2-.3.3-.6.3-1.1v-1.5c0-.5-.1-.8-.3-1.1-.2-.3-.5-.4-1-.4-.4 0-.7.1-1 .4-.2.3-.3.6-.3 1.1v1.5c0 .5.1.8.3 1.1.2.3.5.4 1 .4zm4.9 1.5v-7.3h2.1v1.2h.1c.1-.4.4-.7.7-1 .3-.3.8-.4 1.4-.4.8 0 1.3.3 1.7.8.4.5.6 1.2.6 2.2v4.6h-2.1v-4.4c0-.5-.1-.8-.2-1.1s-.4-.3-.8-.3c-.2 0-.3 0-.5.1-.2 0-.3.1-.4.2l-.3.3c-.1.1-.1.3-.1.5v4.8h-2.2zm10.9 0c-.7 0-1.3-.2-1.6-.5-.4-.4-.6-.9-.6-1.6v-3.6h-1v-1.6h.5c.3 0 .5-.1.6-.2.1-.1.2-.3.2-.6v-1.2h1.9v2h1.5v1.6h-1.5v4.1h1.3v1.6h-1.3zm5.7.1c-.5 0-1-.1-1.4-.3-.4-.2-.8-.4-1.1-.8s-.5-.7-.7-1.2c-.2-.5-.2-1-.2-1.6s.1-1.1.2-1.6c.2-.5.4-.9.7-1.2.3-.3.7-.6 1.1-.8.4-.2.9-.3 1.4-.3s1 .1 1.4.3c.4.2.8.4 1.1.8.3.3.5.7.7 1.2.2.5.2 1 .2 1.6s-.1 1.1-.2 1.6c-.2.5-.4.9-.7 1.2s-.7.6-1.1.8c-.4.2-.9.3-1.4.3zm0-1.6c.4 0 .7-.1 1-.4.2-.3.3-.6.3-1.1v-1.5c0-.5-.1-.8-.3-1.1-.2-.3-.5-.4-1-.4-.4 0-.7.1-1 .4-.2.3-.3.6-.3 1.1v1.5c0 .5.1.8.3 1.1.3.3.6.4 1 .4zm7.4 1.6c-.7 0-1.3-.1-1.8-.3s-.9-.6-1.3-1l1.2-1.2c.3.3.6.5.9.7.3.2.7.3 1.1.3.4 0 .7-.1.9-.2.2-.1.2-.3.2-.5 0-.3-.2-.6-.7-.6l-.8-.1c-1.7-.2-2.5-1-2.5-2.3 0-.4.1-.7.2-1s.3-.5.6-.8c.2-.2.5-.4.9-.5.4-.1.7-.2 1.2-.2.4 0 .7 0 1 .1.3.1.6.1.8.2.2.1.4.2.6.4.2.1.4.3.6.5l-1.2 1.2c-.2-.2-.5-.4-.8-.6-.3-.1-.6-.2-.9-.2-.4 0-.6.1-.8.2-.1.1-.2.3-.2.4 0 .2.1.3.2.5s.3.2.6.2l.8.1c1.6.2 2.4 1 2.4 2.2 0 .4-.1.7-.2 1s-.4.6-.6.8c-.3.2-.6.4-1 .5-.5.2-.9.2-1.4.2z"/></svg>