<svg xmlns="http://www.w3.org/2000/svg" viewBox="0 0 553.16 518.96"><style>.st3{fill:#4066ff}.st10,.st7{fill:none;stroke-width:3;stroke-miterlimit:10}.st7{stroke:#fff}.st10{stroke:#2a2f41}</style><g id="Arte"><path d="M387.02 369.14v149.82m14.9-149.82v149.82m-29.79-149.82v149.82M155.96 218.39H0m155.96 14.89H0m155.96-29.78H0" stroke="#4066ff" fill="none" stroke-width="3" stroke-miterlimit="10"/><path class="st7" d="M358.94 198.22v-79.31c0-2.97-2.41-5.38-5.38-5.38H232.84c-2.97 0-5.38 2.41-5.38 5.38v158.62c0 2.97 2.41 5.38 5.38 5.38h105.49m-90.92-84.69h99.06m-99.06 10.39h91.57m-91.57 10.4h91.57m-91.57 10.39h91.57m-91.57 10.4h91.57m-91.57 10.39h91.57m-91.57 10.4h91.57"/><path class="st3" d="M247.41 134.32h91.57v49.15h-91.57z"/><circle class="st3" cx="155.96" cy="51.51" r="40.49"/><circle class="st3" cx="501.65" cy="177.77" r="40.49"/><circle class="st3" cx="255.74" cy="369.14" r="40.49"/><path d="M163.2 61.13c-1.41 1.45-3.38 2.28-5.62 2.52v3.14h-2.52v-3.1c-2.17-.17-4.17-.9-5.86-2.45-1.38-1.24-2.41-3.14-2.45-5.31H151a4.2 4.2 0 0 0 1.27 2.9c.79.76 1.76 1.1 2.79 1.21V53.2c-.55-.07-1.14-.14-1.69-.24-3.72-.59-6-2.96-6-6.48 0-1.83.86-3.34 2.11-4.55 1.34-1.34 3.27-2.28 5.58-2.48v-3.21h2.52v3.27c1.93.24 3.65.97 4.93 2.14 1.38 1.28 2.31 3.03 2.38 4.93h-4.24c-.04-.83-.52-1.76-1.07-2.34-.48-.52-1.21-.86-2-1.07v6.31l1.17.17c3.52.55 6.41 2.76 6.41 6.65 0 2.17-.82 3.65-1.96 4.83zm-8.14-18.07c-.93.14-1.86.48-2.55 1.14a2.97 2.97 0 0 0-.93 2.17c0 1.59 1 2.34 2.45 2.59.34.07.69.14 1.03.17v-6.07zm3.1 10.62l-.58-.1v6.41c1-.17 1.83-.52 2.45-1.14.55-.55.96-1.24.96-2.38 0-1.76-1.34-2.51-2.83-2.79z" fill="#2a2f41"/><path d="M205.97 51.51h252.61c23.79 0 43.07 19.28 43.07 43.07v33.19m0 100.01v98.28c0 23.79-19.28 43.07-43.07 43.07H305.74m-100.01.01h-6.7c-23.79 0-43.07-19.28-43.07-43.07V101.52" fill="none" stroke="#e4ba80" stroke-width="3" stroke-miterlimit="10"/><circle class="st10" cx="501.65" cy="177.77" r="30.63"/><circle class="st10" cx="501.65" cy="177.77" r="25.33"/><circle class="st10" cx="501.65" cy="177.77" r="4.81"/><path class="st10" d="M514.31 155.84l-3.68 6.38m12.95 2.89l-6.38 3.68m9.78 8.98h-7.37m3.97 12.67l-6.38-3.69m-2.89 12.96l-3.68-6.38m-8.98 9.77v-7.36m-12.67 3.97l3.69-6.38m-12.96-2.89l6.38-3.69m-9.77-8.98h7.37m-3.98-12.66l6.38 3.68m2.89-12.95l3.69 6.38m8.98-9.78v7.37m11.65 17.96h-6.84m-4.81-4.81v-9.89"/><circle class="st10" cx="155.96" cy="51.51" r="30.63"/><circle class="st10" cx="155.96" cy="51.51" r="25.33"/><circle class="st10" cx="255.74" cy="369.14" r="30.63"/><circle class="st10" cx="255.74" cy="369.14" r="25.33"/><path class="st7" d="M399.39 198.22h-52.91c-4.5 0-8.15 3.65-8.15 8.15v103.85c0 4.5 3.65 8.15 8.15 8.15h52.91c4.5 0 8.15-3.65 8.15-8.15V206.37c-.01-4.5-3.65-8.15-8.15-8.15z"/><path transform="rotate(90 372.93 252.218)" class="st3" d="M329.12 225.15h87.63v54.13h-87.63z"/><path class="st7" d="M381.02 309.61h-16.17c-1.66 0-3-1.34-3-3s1.34-3 3-3h16.17c1.66 0 3 1.34 3 3s-1.35 3-3 3z"/><path id="Path_113_1_" class="st10" d="M271.06 366.91l-3.08-.87a1.06 1.06 0 0 1-.7-.62l-.75-1.81c-.13-.3-.11-.65.06-.94l1.57-2.8c.24-.42.16-.95-.18-1.29l-1.68-1.68a1.09 1.09 0 0 0-1.29-.18l-2.8 1.57c-.29.16-.63.18-.94.06l-1.81-.75c-.3-.13-.53-.38-.62-.7l-.87-3.08c-.13-.46-.55-.78-1.04-.78h-2.37c-.48 0-.91.32-1.04.78l-.87 3.08c-.09.32-.32.58-.62.7l-1.81.75c-.3.13-.65.11-.94-.06l-2.8-1.57c-.42-.24-.95-.16-1.29.18l-1.68 1.68c-.34.34-.41.87-.18 1.29l1.57 2.8c.16.29.18.63.05.94l-.75 1.81c-.13.3-.39.53-.7.62l-3.08.87c-.46.13-.78.55-.78 1.04v2.38c0 .48.32.91.78 1.04l3.08.87c.32.09.58.32.7.62l.75 1.81c.13.3.11.65-.05.94l-1.57 2.8c-.24.42-.16.95.18 1.29l1.68 1.68c.34.34.87.41 1.29.18l2.8-1.57c.29-.16.63-.18.94-.06l1.81.75c.3.13.53.39.62.7l.87 3.08c.13.46.55.78 1.04.78h2.37c.48 0 .91-.32 1.04-.78l.87-3.08c.09-.32.32-.58.62-.7l1.81-.75c.3-.13.65-.11.94.06l2.8 1.57c.42.24.95.16 1.29-.18l1.68-1.68c.34-.34.41-.87.18-1.29l-1.57-2.8c-.16-.29-.18-.63-.06-.94l.75-1.81c.13-.3.39-.53.7-.62l3.08-.87c.46-.13.78-.55.78-1.04v-2.38c0-.48-.32-.91-.78-1.04zm-15.32 10.28a8.051 8.051 0 0 1 0-16.1c4.45 0 8.05 3.61 8.05 8.05s-3.61 8.05-8.05 8.05z"/><circle class="st7" cx="155.96" cy="51.51" r="50.01"/><circle class="st7" cx="255.74" cy="369.14" r="50.01"/><circle class="st7" cx="501.65" cy="177.77" r="50.01"/></g></svg>