<svg id="Camada_1" data-name="Camada 1" xmlns="http://www.w3.org/2000/svg" viewBox="0 0 152.69 77.52"><defs><style>.cls-1{fill:#fff}</style></defs><path class="cls-1" d="M63.12 23V4.11a2.37 2.37 0 012.7-2.6h2.43c3.59 0 5.39 2.3 5.39 5.66v6.09c0 3.36-2 5.53-5.3 5.53h-1.27V23a2 2 0 11-3.95 0zm4.8-7.66c1.25 0 1.81-1 1.81-3.19V7.83c0-2.07-.59-2.86-1.68-2.86h-1v10.36zM75.78 23V10.2c0-3.62 2-5.53 4.9-5.53s4.84 1.71 4.84 5.33v1.74a1.91 1.91 0 01-1.88 1.94 1.87 1.87 0 01-1.87-1.94V10.2c0-1.55-.3-2-1.09-2s-1 .56-1 2.14V23a1.94 1.94 0 01-3.88 0zM87.16 2a2 2 0 113.95 0 2 2 0 11-3.95 0zm.04 21V7a1.94 1.94 0 113.88 0v16a1.94 1.94 0 01-3.88 0zm22.69-12.8V23a1.94 1.94 0 01-3.89 0V10.33c0-1.58-.33-2.14-1.12-2.14s-1.18.56-1.18 2.14V23a1.94 1.94 0 11-3.88 0V10.33c0-1.58-.33-2.14-1.18-2.14s-1.12.56-1.12 2.14V23a1.94 1.94 0 01-3.88 0V10.2c0-3.62 2-5.53 4.9-5.53a4.12 4.12 0 013.22 1.25A4.12 4.12 0 01105 4.67c2.89 0 4.89 1.91 4.89 5.53zm2.3 9.44v-9.41c0-3.59 2-5.49 5-5.49s5 1.91 5 5.49v4.61c0 1.64-.89 2.43-2.53 2.43h-3.59v2.37c0 1.45.46 2.07 1.28 2.07s1.15-.63 1.15-1.48V20a1.81 1.81 0 113.62 0v.49c0 3.06-1.87 4.67-4.8 4.67-3.12.04-5.13-1.87-5.13-5.52zm6.18-5.49v-4c0-1.58-.33-2.11-1.18-2.11s-1.12.53-1.12 2.11v4zM124.59 2a2 2 0 013.95 0 2 2 0 01-3.95 0zm0 21.05V7a1.94 1.94 0 113.88 0v16a1.94 1.94 0 01-3.88 0zm6.48-.05V10.2c0-3.62 2-5.53 4.9-5.53s4.84 1.71 4.84 5.36v1.74a1.91 1.91 0 01-1.88 1.94 1.87 1.87 0 01-1.87-1.94V10.2c0-1.55-.3-2-1.09-2s-1 .56-1 2.14V23a1.94 1.94 0 01-3.88 0zm20.63-12.8V23a1.92 1.92 0 01-1.94 2 1.74 1.74 0 01-1.15-.39 4.47 4.47 0 01-2.34.69c-2.8 0-4.61-1.64-4.61-4.74v-3.75c0-3.16 1.81-4.8 4.61-4.8a4.85 4.85 0 011.58.33V10.2c0-1.51-.36-1.94-1.05-1.94s-1.12.53-1.12 1.41v.07a1.74 1.74 0 01-1.81 1.81 1.78 1.78 0 01-1.84-2v-.24a4.35 4.35 0 014.74-4.54c3.31 0 4.93 1.91 4.93 5.43zm-3.85 7.14c0-1.55-.49-2.27-1.22-2.27s-1.15.49-1.15 2.11v2.92c0 1.55.36 2.11 1.15 2.11s1.22-.79 1.22-2.3zM63 32.38a2.23 2.23 0 112.23 2.23A2.19 2.19 0 0163 32.38zm0 23.8V38a2.19 2.19 0 114.39 0v18.18a2.19 2.19 0 01-4.39 0zm7.36 0v-14.5c0-4.09 2.27-6.25 5.65-6.25s5.73 2.16 5.73 6.25v14.5a2.19 2.19 0 01-4.39 0V41.83c0-1.78-.37-2.42-1.34-2.42s-1.26.63-1.26 2.42v14.35a2.19 2.19 0 11-4.39 0zm23.02-22.72a1.6 1.6 0 01-1.45 1.34c-.74 0-1-.45-1.64-.45s-1 .33-1 1.67v.07h.19a2 2 0 010 4h-.19v16.09a2.19 2.19 0 11-4.39 0V40.12a2 2 0 110-4V36c0-3.64 1.75-5.8 5-5.8a5 5 0 012.31.48 2.11 2.11 0 011.17 2.78zM104 41.68v14.5a2.17 2.17 0 01-2.19 2.19 2 2 0 01-1.3-.45 5 5 0 01-2.64.78c-3.16 0-5.21-1.86-5.21-5.35v-4.2c0-3.57 2-5.43 5.21-5.43a5.48 5.48 0 011.79.37v-2.41c0-1.71-.41-2.19-1.19-2.19s-1.26.59-1.26 1.6v.07a2 2 0 01-2 2A2 2 0 0193.12 41v-.3c0-3 2-5.13 5.35-5.13 3.76-.03 5.53 2.13 5.53 6.11zm-9.33-8.44A1.62 1.62 0 0195.2 32l1.9-2.08a1.83 1.83 0 013 0L102 32a1.62 1.62 0 01.48 1.23 1.42 1.42 0 01-1.48 1.53 1.52 1.52 0 01-1.11-.48l-1.3-1.41-1.3 1.41a1.53 1.53 0 01-1.12.48 1.41 1.41 0 01-1.45-1.52zm5 16.51c0-1.75-.56-2.57-1.38-2.57s-1.3.56-1.3 2.38v3.31c0 1.75.41 2.38 1.3 2.38s1.38-.89 1.38-2.6zm6.98 6.43v-14.5c0-4.09 2.27-6.25 5.65-6.25s5.7 2.16 5.7 6.25v14.5a2.19 2.19 0 01-4.39 0V41.83c0-1.78-.37-2.42-1.34-2.42S111 40 111 41.83v14.35a2.19 2.19 0 11-4.39 0zm13.98-3.75V41.79c0-4.13 2.27-6.25 5.65-6.25s5.28 2.08 5.28 5.06v.4a2 2 0 01-2.08 2.23 1.88 1.88 0 01-2-2v-.07c0-1-.33-1.64-1.19-1.64s-1.23.63-1.23 2.42v10.37c0 1.78.45 2.38 1.26 2.38s1.15-.59 1.15-1.56V53a2 2 0 012.08-2.16 2 2 0 012 2.16v.59a4.89 4.89 0 01-5.28 5.09c-3.37-.01-5.64-2.13-5.64-6.25zm13.2-20.05a2.23 2.23 0 112.23 2.23 2.19 2.19 0 01-2.23-2.23zm0 23.8V38a2.19 2.19 0 114.39 0v18.18a2.19 2.19 0 01-4.39 0zM152 41.68v14.5a2.17 2.17 0 01-2.19 2.19 2 2 0 01-1.3-.45 5 5 0 01-2.64.78c-3.16 0-5.21-1.86-5.21-5.35v-4.2c0-3.57 2-5.43 5.21-5.43a5.48 5.48 0 011.79.37v-2.41c0-1.71-.41-2.19-1.19-2.19s-1.26.59-1.26 1.6v.07a2 2 0 01-2 2 2 2 0 01-2.13-2.16v-.3c0-3 2-5.13 5.35-5.13 3.76-.03 5.57 2.13 5.57 6.11zm-4.35 8.07c0-1.75-.56-2.57-1.38-2.57s-1.3.56-1.3 2.38v3.31c0 1.75.41 2.38 1.3 2.38s1.38-.89 1.38-2.6zM66.37 76.87a.55.55 0 01-.56.53h-2.34c-.65 0-.93-.27-.93-.91v-8.83c0-.64.27-.91.93-.91h2.34a.53.53 0 110 1.07H63.7V71h1.89a.53.53 0 110 1.07H63.7v4.26h2.12a.55.55 0 01.55.54zm-2.45-11.33a.51.51 0 01.08-.26l.61-1a.49.49 0 01.9.26.52.52 0 01-.08.26l-.61 1a.49.49 0 01-.9-.26zm15.77 4.05v2c0 1.84-.88 2.85-2.4 2.85h-.89v2.44a.58.58 0 11-1.16 0v-9.22c0-.64.27-.91.93-.91h1.11c1.53 0 2.41 1 2.41 2.84zm-1.16.24c0-1.37-.38-2-1.35-2h-.78v5.54h.78c1 0 1.35-.65 1.35-2zm8.81 2.77a2 2 0 01.87 1.77v2.48a.58.58 0 11-1.16 0v-2.16c0-.87-.46-1.54-1.2-1.54H85v3.7a.58.58 0 11-1.16 0v-9.19c0-.64.27-.91.93-.91h1c1.52 0 2.4 1 2.4 2.85v.72a2.69 2.69 0 01-.83 2.28zm-.23-2.54v-.23c0-1.37-.41-2-1.39-2H85v4.28h.68c1.02-.02 1.43-.68 1.43-2.05zm5.6 6.79v-9.59a.58.58 0 011.16 0v9.59a.58.58 0 11-1.16 0zM98.42 75v-5.85a2.29 2.29 0 114.57 0V75a2.29 2.29 0 11-4.57 0zm3.41-.2v-5.45c0-1.14-.4-1.6-1.13-1.6s-1.13.46-1.13 1.6v5.48c0 1.14.4 1.6 1.13 1.6s1.13-.43 1.13-1.6zm9.08-2.2a2 2 0 01.87 1.77v2.48a.58.58 0 11-1.16 0v-2.16c0-.87-.46-1.54-1.2-1.54h-.81v3.7a.58.58 0 11-1.16 0v-9.19c0-.64.27-.91.93-.91h1c1.52 0 2.4 1 2.4 2.85v.72a2.69 2.69 0 01-.87 2.28zm-.23-2.54v-.23c0-1.37-.41-2-1.39-2h-.68v4.28h.68c.98-.02 1.39-.68 1.39-2.05zm5.6 6.79v-9.59a.58.58 0 011.16 0v9.59a.58.58 0 11-1.16 0zm5.81-.33v-8.86c0-.64.27-.91.93-.91h1.08c1.52 0 2.41 1 2.41 2.85v5c0 1.84-.88 2.85-2.41 2.85H123c-.63-.02-.91-.29-.91-.93zm1.9-.15c1 0 1.35-.65 1.35-2v-4.5c0-1.37-.38-2-1.35-2h-.78v8.55zm11.48-7.28v7.76a.58.58 0 11-1.16 0v-3.29h-2.25v3.29a.58.58 0 11-1.16 0v-7.76a2.29 2.29 0 114.57 0zm-1.16 3.41v-3.21c0-1.14-.4-1.6-1.13-1.6s-1.13.46-1.13 1.6v3.21zm5.69 4.02v-8.86c0-.64.27-.91.93-.91H142c1.52 0 2.41 1 2.41 2.85v5c0 1.84-.88 2.85-2.41 2.85h-1.1c-.66-.02-.9-.29-.9-.93zm1.9-.15c1 0 1.35-.65 1.35-2v-4.5c0-1.37-.38-2-1.35-2h-.78v8.55zm10.79.5a.55.55 0 01-.56.53h-2.34c-.65 0-.93-.27-.93-.91v-8.83c0-.64.27-.91.93-.91h2.34a.53.53 0 110 1.07H150V71h1.89a.53.53 0 110 1.07H150v4.26h2.12a.55.55 0 01.57.54zm-113-74.68L6.56 12.36a9.29 9.29 0 00-5.18 13.73l10 14.35 11.2-20.84a10 10 0 0118.34 2.79l4.17 17.46 6.35-26.64A9.28 9.28 0 0039.69 2.19zM23.48 62.1L11.39 40.44 1.74 54.66A10 10 0 008 69.51L39 77a10 10 0 0012.09-12l-6-25.11-4.66 19.51a9.28 9.28 0 01-16.95 2.7z"/><path class="cls-1" d="M33.87 56.8a3.22 3.22 0 11-3.1-3.36 3.17 3.17 0 013.1 3.36zm1-31.43l-.81 23.71a3.17 3.17 0 01-6.32-.22l-1.2-23.32c0-2.93 2.61-3.95 5.31-3.61a3.52 3.52 0 013.04 3.44z"/></svg>