<svg xmlns="http://www.w3.org/2000/svg" viewBox="0 0 58 47.5"><path d="M24.4 5.4C13.9 10.2 8.6 16.2 8.6 23.2c0 2.3 1.4 3.4 4.2 3.4h3.8c2.9 0 5.3.9 7.2 2.8 1.9 1.9 2.8 4.3 2.8 7.4 0 2.9-1 5.4-3.1 7.5-2.1 2.1-5 3.1-8.7 3.1-4.5 0-8.1-1.6-10.8-4.8-2.7-3.2-4-7.1-4-11.8C0 24 2.1 17.9 6.3 12.5 10.5 7.1 16.5 2.9 24.4 0v5.4zm31.2 0c-10.5 4.8-15.8 10.8-15.8 17.8 0 2.3 1.4 3.4 4.2 3.4h3.8c3.1 0 5.5.9 7.4 2.8 1.9 1.9 2.8 4.3 2.8 7.4 0 3.3-1.1 5.9-3.3 7.8-2.2 1.9-5 2.8-8.5 2.8-4.5 0-8.1-1.5-10.8-4.6-2.7-3.1-4-7.1-4-12 0-6.8 2.1-12.9 6.3-18.3S47.9 2.9 55.6 0v5.4z" fill="#ccc"/></svg>