<svg id="Camada_1" data-name="Camada 1" xmlns="http://www.w3.org/2000/svg" viewBox="0 0 110.87 96.04"><defs><clipPath id="clip-path"><path class="cls-1" transform="rotate(-45 56.883 49.908)" d="M24.64 17.66h64.48v64.48H24.64z"/></clipPath><style>.cls-1{fill:none}.cls-2{fill:#231f20}.cls-3{fill:#fff}</style></defs><path class="cls-2" transform="rotate(-45 56.883 49.908)" d="M24.64 17.66h64.48v64.48H24.64z"/><path class="cls-3" d="M56.88 96L10.74 49.9 56.88 3.76 103 49.9zM11.83 49.9L56.88 95l45.06-45.1L56.88 4.85z"/><g clip-path="url(#clip-path)"><path class="cls-1" d="M0 8.18h110.87v83.15H0z"/><path class="cls-3" d="M51.73 94.9l-.59-.18 4.64-15.17-13.52-9.41 15.87-6.09.22.58-14.79 5.67 12.94 9-4.77 15.6z"/><path class="cls-3" transform="rotate(-31.72 48.963 83.998)" d="M40.54 83.68h16.81v.62H40.54z"/><path class="cls-3" transform="rotate(-83.71 42.521 77.338)" d="M35.82 77.03h13.39v.62H35.82z"/><path class="cls-3" transform="rotate(-27.92 33.67 75.558)" d="M23.07 75.26h21.2v.62h-21.2z"/><path class="cls-3" transform="rotate(-3.31 31.715 71.234)" d="M20.41 70.94h22.65v.62H20.41z"/><path class="cls-3" transform="rotate(-69.85 29.736 65.725)" d="M29.43 51.56h.62v28.32h-.62z"/><path class="cls-3" transform="rotate(-35.27 36.619 61.534)" d="M36.32 50.45h.62v22.18h-.62z"/><path class="cls-3" transform="rotate(-37.49 24.08 57.2)" d="M16.35 56.88h15.47v.62H16.35z"/><path class="cls-3" transform="rotate(-30.36 22.2 38.788)" d="M21.89 22.91h.62v31.75h-.62z"/><path class="cls-3" transform="rotate(-1.34 42.886 62.506)" d="M42.54 54.68h.62v15.93h-.62z"/><path class="cls-3" transform="rotate(-80.01 36.444 53.584)" d="M36.13 47.27h.62V59.9h-.62z"/><path class="cls-3" transform="rotate(-36.43 38.682 46.257)" d="M28.17 45.94h21.02v.62H28.17z"/><path class="cls-3" transform="rotate(-35.84 46.665 51.792)" d="M41.72 51.48h9.88v.62h-9.88z"/><path class="cls-3" transform="rotate(-81.06 48.036 55.526)" d="M47.73 50.08h.62v10.89h-.62z"/><path class="cls-3" transform="rotate(-52.81 48.16 63.29)" d="M39.47 62.99h17.38v.62H39.47z"/><path class="cls-3" transform="rotate(-37.79 59.91 84.102)" d="M59.6 77.64h.62v12.9h-.62z"/><path class="cls-3" transform="rotate(-52.4 67.184 82.344)" d="M60.07 81.93h14.84v.62H60.07z"/><path class="cls-3" transform="rotate(-.07 73.626 65.526)" d="M71.72 60.37h.62v16h-.62z"/><path class="cls-3" transform="rotate(-23.76 80.691 72.546)" d="M71.23 72.24H90.2v.62H71.23z"/><path class="cls-3" transform="rotate(-68.59 79.522 79.306)" d="M79.21 71.27h.62v16.08h-.62z"/><path class="cls-3" transform="rotate(-69.67 79.9 66.333)" d="M79.6 57.9h.62v16.86h-.62z"/><path class="cls-3" transform="rotate(-40.55 77.99 58.283)" d="M70.11 57.98h15.73v.62H70.11z"/><path class="cls-3" transform="rotate(-15.41 86.22 61.453)" d="M85.93 52.86h.62v17.21h-.62z"/><path class="cls-3" transform="rotate(-57.59 91.073 57.697)" d="M90.77 49.26h.62v16.87h-.62z"/><path class="cls-3" transform="rotate(-17.08 90.408 51.165)" d="M83.66 50.88h13.53v.62H83.66z"/><path class="cls-3" transform="rotate(-53.4 101.781 52.822)" d="M101.46 46.74h.62V58.9h-.62z"/><path class="cls-3" transform="rotate(-9 95.812 42.38)" d="M95.49 35.39h.62v13.9h-.62z"/><path class="cls-3" transform="rotate(-4.29 83.336 48.573)" d="M83 43.34h.62v10.27H83z"/><path class="cls-3" transform="rotate(-22.71 88.903 40.855)" d="M82.43 40.55h12.96v.62H82.43z"/><path class="cls-3" transform="rotate(-69.39 85.832 35.65)" d="M77.6 35.34h16.47v.62H77.6z"/><path class="cls-3" transform="rotate(-35.12 77.627 35.55)" d="M77.32 26.66h.62v17.76h-.62z"/><path class="cls-3" transform="rotate(-8.68 80.844 27.008)" d="M72.42 26.7h16.91v.62H72.42z"/><path class="cls-3" transform="rotate(-29.82 68.7 21.953)" d="M68.39 14.27h.62v15.38h-.62z"/><path class="cls-3" transform="rotate(-47.46 68.842 10.95)" d="M62.96 10.64h11.77v.62H62.96z"/><path class="cls-3" transform="rotate(-53.47 54.713 7.772)" d="M54.41-4.86h.62V20.4h-.62z"/><path class="cls-3" transform="rotate(-82.03 51.134 13.363)" d="M50.82-.51h.62v27.76h-.62z"/><path class="cls-3" transform="rotate(-28.24 56.058 20.04)" d="M46.03 19.73h20.04v.62H46.03z"/><path class="cls-3" transform="rotate(-55 58.387 24.535)" d="M47.1 24.22h22.58v.62H47.1z"/><path class="cls-3" transform="rotate(-47.33 39.317 17.57)" d="M39.01 7.25h.62v20.64h-.62z"/><path class="cls-3" transform="rotate(-13.73 33.208 27.93)" d="M19.08 27.61h28.23v.62H19.08z"/><path class="cls-3" transform="rotate(-88.12 46.687 31.202)" d="M40.05 30.89h13.29v.62H40.05z"/><path class="cls-3" transform="rotate(-73.52 33.043 35.842)" d="M32.73 21.14h.62v29.41h-.62z"/><path class="cls-3" transform="rotate(-24.81 59.812 34.152)" d="M45.85 33.84h27.96v.62H45.85z"/><path class="cls-3" transform="rotate(-56.09 66.584 37.097)" d="M55.96 36.79h21.25v.62H55.96z"/><path class="cls-3" transform="rotate(-70.13 22.692 49.762)" d="M22.38 41.76H23v16.01h-.62z"/><path class="cls-3" transform="rotate(-6.23 15.831 52.834)" d="M15.49 47.01h.62v11.77h-.62z"/><path class="cls-3" transform="rotate(-52.25 11.83 51.357)" d="M6.38 51.05h10.9v.62H6.38z"/><path class="cls-3" transform="rotate(-67.02 17.326 41.962)" d="M11.8 41.65h11.06v.62H11.8z"/><path class="cls-3" transform="rotate(-70.54 80.525 51.998)" d="M80.21 48.21h.62v7.57h-.62z"/><circle class="cls-3" cx="42.94" cy="70.55" r="1.29"/><circle class="cls-3" cx="42.76" cy="54.59" r="1.29"/><circle class="cls-3" cx="56.37" cy="79.33" r="1.29"/><circle class="cls-3" cx="58.54" cy="64.36" r="1.09"/><circle class="cls-3" cx="53.56" cy="56.14" r="1.09"/><circle class="cls-3" cx="61.3" cy="45.94" r="1.09"/><circle class="cls-3" cx="72" cy="63.27" r="1.09"/><circle class="cls-3" cx="72.34" cy="76.38" r="1.29"/><circle class="cls-3" cx="88.44" cy="69.44" r="1.09"/><circle class="cls-3" cx="83.85" cy="53.18" r="1.29"/><circle class="cls-3" cx="83.26" cy="43.05" r="1.09"/><circle class="cls-3" cx="30.41" cy="52.51" r="1.29"/><circle class="cls-3" cx="19.69" cy="72.42" r="1.09"/><circle class="cls-3" cx="18.11" cy="61.61" r="1.09"/><circle class="cls-3" cx="15.5" cy="47.02" r="1.29"/><circle class="cls-3" cx="5.41" cy="62.82" r="1.09"/><circle class="cls-3" cx="19.69" cy="84.35" r="1.09"/><circle class="cls-3" cx="63.13" cy="88.18" r="1.29"/><circle class="cls-3" cx="47.19" cy="40.76" r="1.09"/><circle class="cls-3" cx="47.24" cy="24.48" r="1.09"/><circle class="cls-3" cx="19.06" cy="31.93" r="1.09"/><circle class="cls-3" cx="72.62" cy="28.6" r="1.29"/><circle class="cls-3" cx="89.91" cy="25.56" r="1.09"/><circle class="cls-3" cx="94.81" cy="38.71" r="1.09"/><circle class="cls-3" cx="105.76" cy="39.67" r="1.09"/><circle class="cls-3" cx="97.41" cy="49.14" r="1.29"/><circle class="cls-3" cx="100.06" cy="63.27" r="1.09"/><circle class="cls-3" cx="93.86" cy="85.6" r="1.09"/><circle class="cls-3" cx="108.32" cy="18.11" r="1.09"/><circle class="cls-3" cx="93.62" cy="12.21" r="1.09"/><circle class="cls-3" cx="64.76" cy="15.47" r="1.29"/><circle class="cls-3" cx="77.57" cy="14.39" r="1.09"/><circle class="cls-3" cx="32.58" cy="10.6" r="1.09"/><circle class="cls-3" cx="15.93" cy="14.11" r="1.09"/><circle class="cls-3" cx="3.24" cy="16.56" r="1.09"/></g><path class="cls-3" d="M59.38 80.95l.1-.12 5.15-6.09.38-4.45L75.2 64.7l3.73-6.77 1.29-5.74 1.5-3.03 3.81-5.57-2.2-4.14-5.97-3.35-2.97-.58-1.85-1.07-4.48-1.76-4.53-1.6-.12-1.93-2.06-3.66-6.82 2.5-4.67 1.55-1.5-5.51-6.58 1.28.13 3.8-4.03.01-4.12.84v8.14l-3.21 1.33-2.31 3.69 5.16 4.39 3.78 1 2.16-1.89 2.16 3.03 4.72 2.13 2.13 1.59 3.54 7.55 1 1.84-.48 1.57 4.17 5.18.62 2.69-4.54 4.61 3.56 2.43m-44.07 7.06h-.92V81h1.24a1.93 1.93 0 011.25.34 1.68 1.68 0 01.55 1.28 1.57 1.57 0 01-1.74 1.7h-.39zm1.15-3.68c0-.83-.63-.81-1.15-.83v1.67c.53 0 1.15-.03 1.15-.83zm1.7 3.68V81h1.48c.81 0 1.63.23 1.63 1.4a1.15 1.15 0 01-.92 1.25c.33.15.43.45.56.81l.65 1.86h-1l-.49-1.51c-.2-.64-.4-.7-1-.7v2.21zm1.32-3c.41 0 .81-.18.81-.73a.65.65 0 00-.74-.73h-.48v1.46zm2.68 3V81h1v5.32zm6.3 0v-3.14c0-.48 0-1 .06-1.43 0 .18-.08.37-.14.55l-1.15 4h-.87l-1-3.32c-.12-.41-.22-.83-.31-1.25 0 .46.07.93.07 1.39v3.18h-.87V81h1.44l.82 2.79a10.36 10.36 0 01.29 1.31c.07-.37.14-.72.24-1.08l.87-3h1.47v5.32zm4.7 0h-2.7V81H30v.88h-1.78v1.28h1.61V84h-1.61v1.42H30zm1 0V81h.92v5.32zm2 0V81h1.48c.8 0 1.63.23 1.63 1.4a1.15 1.15 0 01-.92 1.25c.33.15.43.45.56.81l.65 1.86h-1l-.49-1.51c-.2-.64-.4-.7-1-.7v2.21zm1.32-3c.41 0 .81-.18.81-.73a.65.65 0 00-.74-.73h-.48v1.46zm5.87 3l-.39-1.21h-1.88l-.38 1.21h-.94L38.36 81h1l1.81 5.32zm-1.25-4c0-.11-.06-.23-.09-.35 0 .14-.06.29-.1.44l-.54 1.79h1.32zM13 79.1l-1.07-2.33c-.1-.22-.18-.45-.27-.68a8.2 8.2 0 01.08 1v2h-.63v-3.84h.78L13 77.58c.1.22.16.46.24.68a6.33 6.33 0 01-.06-.94v-2.07h.63v3.85zm3.83 0l-.28-.88h-1.36l-.28.88h-.68l1.28-3.85h.73l1.31 3.85zm-.91-2.87c0-.08 0-.17-.06-.25 0 .1 0 .21-.08.32l-.39 1.3h1zM20.38 79a2.56 2.56 0 01-.74.13 1.72 1.72 0 01-1.8-1.92c0-1.28.66-2 1.74-2a2.21 2.21 0 01.79.17l-.05.66a1.26 1.26 0 00-.7-.21c-.66 0-1.07.52-1.07 1.28s.43 1.36 1.13 1.36a1.73 1.73 0 00.69-.16zm.53.1v-3.85h.66v3.85zm2.94.09c-1 0-1.61-.83-1.61-2s.57-2 1.61-2 1.59.86 1.59 2-.58 2-1.59 2zm0-3.43c-.64 0-.9.77-.9 1.42s.26 1.41.91 1.41.89-.77.89-1.41-.27-1.42-.91-1.42zM28 79.1l-1.1-2.32c-.1-.22-.18-.45-.27-.68a8.2 8.2 0 01.08 1v2h-.63v-3.85h.78L28 77.58c.1.22.16.46.24.68a6.4 6.4 0 01-.06-.94v-2.07h.63v3.85zm3.82 0l-.28-.88h-1.36l-.28.88h-.68l1.28-3.85h.73l1.31 3.85zm-.91-2.87c0-.08 0-.17-.06-.25 0 .1 0 .21-.08.32l-.39 1.3h1zm4.01 2.87H33v-3.85h.66v3.22h1.28zm-23.68-5.74V68h1.49c.81 0 1.64.23 1.64 1.41a1.16 1.16 0 01-.92 1.26c.33.15.43.45.56.81l.66 1.87h-1l-.5-1.52c-.2-.64-.4-.71-1-.71v2.22zm1.33-3c.42 0 .82-.18.82-.74a.66.66 0 00-.75-.73h-.48v1.47zm5.43 3h-2.69V68H18v.88h-1.77v1.29h1.62v.87h-1.62v1.43H18zM19 68h1a3.07 3.07 0 012 .51 2.7 2.7 0 01.82 2.17 2.81 2.81 0 01-.82 2.19 2.58 2.58 0 01-1.74.49H19zm1.16 4.53c1 0 1.74-.59 1.74-1.89a1.88 1.88 0 00-.68-1.55 2.26 2.26 0 00-1.29-.26v3.69zm6.27.83h-2.72V68h2.69v.88h-1.77v1.29h1.62v.87h-1.62v1.43h1.8zM11.14 94.81v-6.69h1.15v6.69zm5.86 0l-1.86-4c-.18-.38-.32-.78-.47-1.18a14.31 14.31 0 01.13 1.72v3.5h-1.08v-6.73h1.35L17 92.17c.17.38.28.79.42 1.18a11.08 11.08 0 01-.1-1.63v-3.6h1.08v6.69zm3.92 0h-1.16v-6.69h3.16v1.1h-2v1.58h1.93v1.1h-1.93zm12.26 0l-1.87-4c-.18-.38-.32-.78-.47-1.18a14.25 14.25 0 01.16 1.68v3.5h-1.12v-6.69h1.35l1.92 4.05c.17.38.28.79.42 1.18a11.05 11.05 0 01-.1-1.63v-3.6h1.09v6.69zm6.89-.17a4.42 4.42 0 01-1.29.22 3 3 0 01-3.12-3.33c0-2.22 1.15-3.46 3-3.46a3.82 3.82 0 011.36.29L40 89.5a2.2 2.2 0 00-1.21-.36c-1.14 0-1.86.9-1.86 2.23s.75 2.37 2 2.37a3 3 0 001.2-.28zm.93.17v-6.69h1.15v6.69zm6.49 0L47 93.29h-2.36l-.48 1.52H43l2.22-6.69h1.27l2.28 6.69zm-1.57-5c0-.14-.08-.29-.11-.44-.05.18-.08.37-.13.55L45 92.19h1.65zm-18.9-1.15l-.18-.54h-1.27l-.18.54h1.63zm.09.26H25.3l-2 5.89h1.18l.52-1.52h2.36l.49 1.52h1.25zm-1.75 3.27l.64-2.25c0-.18.08-.37.13-.55 0 .15.07.3.11.44l.76 2.36z"/><circle class="cls-3" cx="47.21" cy="32.74" r="5.92" transform="rotate(-17.3 47.21 32.739)"/><path class="cls-2" d="M52.1 30.39a3.2 3.2 0 01-2.5-1.05 2.44 2.44 0 01-1.05.9 3.1 3.1 0 00-.11-.86 6.8 6.8 0 01-2.59 1.92 1.77 1.77 0 000-1.52s-1.39 2.57-2.95 2.89a4.37 4.37 0 00.1-1.5s-.46 1.76-1.54 2.15c-.72-2.48 1.06-5.22 4-6.15s5.91.38 6.69 2.89c0 .1.06.21.08.31z"/><path class="cls-2" d="M52.17 30.5a3.46 3.46 0 01-2.49-.92 2.45 2.45 0 01-1 .75l-.28.1v-.25a3.19 3.19 0 000-.46A6.06 6.06 0 0146 31.4l-.38.09.15-.32a1.82 1.82 0 00.14-1c-.47.76-1.6 2.34-2.87 2.6l-.3.06.07-.26s0-.14.07-.33a2.49 2.49 0 01-1.22 1.18h-.26v-.1a5.88 5.88 0 014.23-6.21 5.77 5.77 0 016.89 2.82 1.22 1.22 0 01.09.32v.2zM41.68 33a3.54 3.54 0 001.21-1.92l.23-.87.18.84a3.68 3.68 0 01-.06 1.28c1.32-.54 2.48-2.66 2.49-2.69l.19-.35.19.31a1.72 1.72 0 01.13 1.32 7.73 7.73 0 002.11-1.72l.26-.3.11.34a2.89 2.89 0 01.11.63 2.49 2.49 0 00.67-.68l.17-.27.19.23a3 3 0 002.22 1v-.09c-.76-2.45-3.59-3.67-6.44-2.78s-4.51 3.39-3.96 5.72z"/><ellipse class="cls-2" cx="44.21" cy="33.81" rx=".72" ry=".53" transform="rotate(-17.31 44.19 33.815)"/><path class="cls-2" d="M43.41 34.05c-.1-.32.17-.7.61-.84a.75.75 0 011 .34c.1.32-.17.7-.61.84a.75.75 0 01-1-.34zm.21-.07a.55.55 0 00.72.25c.32-.1.52-.38.45-.61a.55.55 0 00-.72-.25c-.32.1-.52.38-.45.63z"/><ellipse class="cls-2" cx="50.21" cy="32.08" rx=".72" ry=".53" transform="rotate(-17.3 50.234 32.09)"/><path class="cls-2" d="M49.41 32.33c-.1-.32.17-.7.61-.84a.75.75 0 011 .34c.1.32-.17.7-.61.84a.75.75 0 01-1-.34zm.21-.07a.55.55 0 00.72.25c.32-.1.52-.38.45-.61a.55.55 0 00-.72-.25c-.32.1-.52.35-.45.61zm-3.86 3.62v-.06l.29-.09a2.12 2.12 0 003.84-1.2v-.05l.3-.09v.07a2.44 2.44 0 01-4.43 1.38zM50 34.6a2.29 2.29 0 01-4.1 1.28 2.3 2.3 0 004.13-1.29z"/><path class="cls-2" d="M48.51 36.91a2.34 2.34 0 001.79-2.43v-.2l-.51.16v.15a2 2 0 01-3.63 1.13l-.07-.13-.51.16.09.18a2.34 2.34 0 002.84.98z"/><path class="cls-2" d="M41.41 34.74a6.14 6.14 0 117.68 4 6.14 6.14 0 01-7.68-4zm.43-.13a5.69 5.69 0 103.74-7.12 5.69 5.69 0 00-3.74 7.12z"/><path class="cls-2" d="M49.63 38.14a.58.58 0 01.71-.4 1.35 1.35 0 01-.69-1.06 1 1 0 011.08-.91s-.71-1.29.4-1.62c0 0 .33 0 .34-.12a1.1 1.1 0 01.11-1.14 1 1 0 011.28.09s-.36-1.76.81-1.31a6.22 6.22 0 01.63.33s-.1-1.34.47-1.47c0 0 .49-.09 1.21.86a1.47 1.47 0 01.15-.62s.31-.56.71-.66l1 6-.21-.2a1.12 1.12 0 01-.56-.08s.29.7-.27.87c0 0-.47.18-.72-.49a.81.81 0 01-.91.4s0 .82-.69.34c0 0-.29.31-.52.22 0 0 .21.6-.32.81 0 0-.19.14-.58-.13a.75.75 0 01-.27.13s1 1.44.06 1c0 0-.07.34-.26.43 0 0 4.93 4.42 5 5.08l.08.06.12.71h-.32a8.06 8.06 0 01-2.77-.86s-.28.14-.51-.46-1.21 0-2-2.08c0 0-.74-.23-.37-.78 0 0-2.06-1-.75-1.37a3 3 0 01-.67-.39s-.83-.45-.77-1.18z"/><path class="cls-2" d="M65.86 35.45a.58.58 0 00-.8-.15 1.35 1.35 0 00.31-1.23 1 1 0 00-1.31-.51s.25-1.45-.9-1.41c0 0-.31.12-.36 0a1.1 1.1 0 00-.47-1 1 1 0 00-1.19.5s-.23-1.78-1.18-1a6.33 6.33 0 00-.49.51s-.34-1.3-.92-1.24c0 0-.5.08-.87 1.2a4.57 4.57 0 00-.2-.67.5.5 0 00-.53-.34l.5 6.11a2.17 2.17 0 00.14-.26 1.12 1.12 0 00.5-.25s0 .75.54.74c0 0 .51 0 .53-.7a.81.81 0 001 .09s.27.77.77.1c0 0 .38.2.56 0 0 0 0 .64.56.67 0 0 .23.07.51-.31a.75.75 0 00.29 0s-.46 1.67.25.94c0 0 .18.3.39.32 0 0-3.25 5.77-3.1 6.42l-.05.08.12.71.31-.09A8.06 8.06 0 0063 43s.31 0 .34-.6 1.14-.4 1.22-2.61c0 0 .63-.45.1-.86 0 0 1.62-1.63.27-1.54 0 0 .48-.46.5-.59s.73-.68.43-1.35z"/><circle class="cls-3" cx="58.41" cy="40.47" r="5.92" transform="rotate(-9.4 58.393 40.435)"/><path class="cls-3" d="M63.84 38.14A5.91 5.91 0 0052.45 40a9.19 9.19 0 0111.39-1.89z"/><path class="cls-2" d="M52.19 40.65v-.63a6.14 6.14 0 0111.83-2l.23.59-.55-.31a9 9 0 00-11.12 1.84zm5.23-5.93a5.72 5.72 0 00-4.68 4.68 9.41 9.41 0 0110.62-1.76 5.72 5.72 0 00-5.94-2.92z"/><circle class="cls-2" cx="56.49" cy="40.88" r=".72" transform="rotate(-9.39 56.526 40.866)"/><path class="cls-2" d="M56.63 41.7a.83.83 0 11.69-1 .84.84 0 01-.69 1zm-.24-1.43a.61.61 0 10.7.5.61.61 0 00-.7-.49z"/><circle class="cls-2" cx="60.29" cy="40.25" r=".72" transform="rotate(-9.38 60.266 40.224)"/><path class="cls-2" d="M60.42 41.07a.83.83 0 11.69-1 .84.84 0 01-.69 1zm-.24-1.43a.61.61 0 10.7.5.61.61 0 00-.69-.49zM59 44.35a2.23 2.23 0 01-2.57-1.29v-.07l.3-.05v.05a2.12 2.12 0 004-.66v-.05l.3-.05v.07A2.23 2.23 0 0159 44.35zm-2.4-1.26a2.3 2.3 0 004.27-.71 2.29 2.29 0 01-4.24.7z"/><path class="cls-2" d="M59 44.46a2.34 2.34 0 01-2.69-1.37l-.06-.19.53-.09v.14a2 2 0 003.75-.62v-.15l.53-.09v.2A2.34 2.34 0 0159 44.46z"/><path class="cls-2" d="M59.35 46.38a6.14 6.14 0 115.05-7.06 6.14 6.14 0 01-5.05 7.06zm-1.93-11.66A5.69 5.69 0 1064 39.4a5.69 5.69 0 00-6.58-4.68z"/><circle class="cls-3" cx="69.25" cy="39.61" r="5.92" transform="rotate(-75.36 69.248 39.612)"/><path class="cls-3" d="M70.66 33.94a5.89 5.89 0 00-7.2 4.34c0 .13-.06.27-.09.4h.16a3.55 3.55 0 002.69-1.59 2.43 2.43 0 001.13 1 4.6 4.6 0 01.12-1.09s1.5 1.9 2.79 2.12a2.51 2.51 0 010-1.9s1.49 3.06 3.17 3.29a6.16 6.16 0 01-.13-1.86s.49 2.15 1.65 2.53a6 6 0 00-4.29-7.24z"/><path class="cls-2" d="M63.26 38.77v-.1c0-.13.06-.27.09-.41a6 6 0 017.31-4.4 6.13 6.13 0 014.39 7.36v.05h-.11c-.85-.27-1.34-1.41-1.57-2.08a7.91 7.91 0 00.16 1.3v.13h-.13c-1.49-.21-2.79-2.5-3.14-3.17a2.51 2.51 0 00.07 1.65l.07.16h-.17a6.05 6.05 0 01-2.72-2 4.79 4.79 0 00-.08.88v.13h-.12a2.36 2.36 0 01-1.11-.93 3.61 3.61 0 01-2.68 1.51zM70.63 34a5.79 5.79 0 00-7.09 4.27c0 .1 0 .19-.07.29h.06A3.48 3.48 0 0066.14 37l.08-.13.07.13a2.49 2.49 0 001 .92 4.46 4.46 0 01.12-1v-.18l.11.14A7 7 0 0070.11 39a2.5 2.5 0 01.07-1.81l.08-.17.08.17s1.38 2.8 2.92 3.21a5.69 5.69 0 01-.1-1.76l.08-.44.1.44s.47 2 1.52 2.44A6 6 0 0070.63 34z"/><path class="cls-3" d="M63.56 38.7a3.55 3.55 0 002.69-1.59 2.44 2.44 0 001.13 1A4.6 4.6 0 0167.5 37s1.5 1.9 2.79 2.12a2.51 2.51 0 010-1.9s1.49 3.06 3.17 3.29a6.16 6.16 0 01-.13-1.86s.49 2.15 1.65 2.53a6 6 0 00-4.3-7.18 5.89 5.89 0 00-7.2 4.34c0 .13-.06.27-.09.4z"/><path class="cls-2" d="M63.13 38.91v-.26c0-.14.06-.28.09-.41a6.1 6.1 0 017.47-4.5 6.27 6.27 0 014.48 7.52v.12l-.22.07h-.07a2.51 2.51 0 01-1.31-1.34c0 .24.07.4.07.41l.07.32h-.32c-1.36-.19-2.57-2-3.08-2.94a2.5 2.5 0 00.15 1.24l.17.38-.41-.07a5.72 5.72 0 01-2.61-1.84 4.79 4.79 0 000 .58v.32l-.3-.1a2.35 2.35 0 01-1.07-.83A3.75 3.75 0 0163.56 39zm7.5-4.73a5.66 5.66 0 00-6.92 4.18v.11A3.36 3.36 0 0066.06 37l.2-.31.18.32a2.55 2.55 0 00.72.77 4.3 4.3 0 01.12-.8l.11-.43.28.35a7.54 7.54 0 002.27 1.93 2.52 2.52 0 01.14-1.67l.2-.41.2.41s1.26 2.56 2.68 3.09a5.27 5.27 0 01-.07-1.59l.2-1.08.24 1.07a4 4 0 001.3 2.27 5.82 5.82 0 00-4.2-6.74z"/><circle class="cls-2" cx="67.29" cy="39.53" r=".72" transform="rotate(-75.37 67.285 39.532)"/><path class="cls-2" d="M67.07 40.34a.83.83 0 111-.6.84.84 0 01-1 .6zm.37-1.4a.61.61 0 10.44.75.61.61 0 00-.44-.75z"/><circle class="cls-2" cx="71.01" cy="40.5" r=".72" transform="rotate(-75.35 71.007 40.506)"/><path class="cls-2" d="M70.79 41.31a.83.83 0 111-.6.84.84 0 01-1 .6zm.37-1.4a.61.61 0 10.44.74.61.61 0 00-.44-.74zm-2.98 3.82a2.23 2.23 0 01-1.82-2.22v-.07l.3.08v.05a2.12 2.12 0 003.89 1l.3.08v.06a2.23 2.23 0 01-2.67 1.02zM66.5 41.6a2.3 2.3 0 004.18 1.09 2.29 2.29 0 01-4.16-1.09z"/><path class="cls-2" d="M68.15 43.84a2.34 2.34 0 01-1.9-2.34v-.2l.52.14v.15a2 2 0 003.68 1l.06-.14.52.14-.08.18a2.34 2.34 0 01-2.8 1.07z"/><path class="cls-2" d="M67.65 45.72a6.14 6.14 0 117.49-4.39 6.14 6.14 0 01-7.49 4.39zm3-11.44a5.69 5.69 0 104.06 6.94 5.69 5.69 0 00-4.07-6.93zm-18.39 6.6a6.8 6.8 0 00-12.67 4.62h.07l.14-.06-.18.22a35.66 35.66 0 003 6.7l2.79-1.07-3-6.88.24-.1s-.49-2.35-.17-2.93a26.06 26.06 0 00.67 2.77l3-1.21s-.77-2.13-.91-2.78c0 0 1.07 2.22 1.68 2.44l2.4-.8 2.38 7 2.8-1.08a35.61 35.61 0 00-2.24-6.84z"/><circle class="cls-3" cx="46.42" cy="44.32" r="5.92" transform="rotate(-21.03 46.42 44.313)"/><path class="cls-2" d="M44.22 38.62a6 6 0 00-3.68 6.87h.06l2.45-1a8.24 8.24 0 010-2.65 22.75 22.75 0 00.58 2.42l2.66-1.06s-.67-1.87-.8-2.44c0 0 .94 1.95 1.47 2.14l4.65-1.54a6 6 0 00-7.39-2.74z"/><path class="cls-2" d="M48.62 50a6.14 6.14 0 113.53-7.93A6.14 6.14 0 0148.62 50zm-4.24-11a5.69 5.69 0 107.35 3.27A5.69 5.69 0 0044.38 39z"/><path class="cls-2" transform="rotate(-20.43 44.875 42.063)" d="M41.27 40.38h7.24v3.39h-7.24z"/><path class="cls-2" d="M42.87 45.48l1.39.68a.78.78 0 00.6 0c.4-.15.71-.44.56-.85a.78.78 0 00-1-.45l-1.08.42m6.49-2.47s-.5 1.26-.58 1.44a.78.78 0 01-.44.42c-.4.15-.82.15-1-.26a.78.78 0 01.45-1l1.11-.41m-1.46 5.2a2.23 2.23 0 01-2.77-.75v-.06l.29-.11a2.12 2.12 0 003.76-1.44v-.05l.29-.11v.07a2.23 2.23 0 01-1.57 2.45zm-2.61-.75a2.3 2.3 0 004-1.55 2.29 2.29 0 01-4 1.54z"/><path class="cls-2" d="M48 48.3a2.34 2.34 0 01-2.91-.8l-.1-.17.5-.19.07.13a2 2 0 003.55-1.36v-.15l.5-.19v.19A2.34 2.34 0 0148 48.3z"/><circle class="cls-3" cx="75.55" cy="48.32" r="5.92" transform="rotate(-69.69 75.549 48.32)"/><path class="cls-2" d="M77.66 42.58a6 6 0 00-7.3 2.73l2.47.9s1.21-1.77 1.76-2a22.83 22.83 0 00-1.16 2.21l2.69 1s.73-1.85 1-2.36c0 0-.58 2.08-.31 2.58l4.51 1.91a6 6 0 00-3.66-6.97zm-5.5 4.2s.51 1.24.59 1.42a.77.77 0 00.44.41c.4.15.82.14 1-.27a.78.78 0 00-.46-1L72.62 47m6.5 2.35l-1.38.65a.77.77 0 01-.6 0c-.4-.15-.71-.43-.56-.83a.78.78 0 011-.46l1.08.4m-4.53 3.02a2.23 2.23 0 01-1.59-2.39v-.07l.29.11v.05a2.12 2.12 0 003.78 1.4l.29.11v.06a2.23 2.23 0 01-2.77.73zm-1.46-2.29a2.3 2.3 0 004.06 1.5 2.29 2.29 0 01-4-1.49z"/><path class="cls-2" d="M74.09 52.24a2.34 2.34 0 01-1.66-2.52v-.19l.5.19v.15a2 2 0 003.57 1.32l.07-.13.5.19-.1.17a2.34 2.34 0 01-2.88.82z"/><path class="cls-2" d="M73.42 54.07a6.14 6.14 0 117.89-3.62 6.14 6.14 0 01-7.89 3.62zM77.52 43a5.69 5.69 0 103.36 7.31A5.69 5.69 0 0077.52 43zM57.4 56.32a6.14 6.14 0 112.89-8.18 6.14 6.14 0 01-2.89 8.18zm-5.1-10.67a5.69 5.69 0 107.58 2.68 5.69 5.69 0 00-7.57-2.67z"/><circle class="cls-3" cx="54.63" cy="50.51" r="5.92" transform="rotate(-25.53 54.635 50.523)"/><circle class="cls-2" cx="53.13" cy="51.83" r=".72" transform="rotate(-25.52 53.136 51.84)"/><path class="cls-2" d="M53.49 52.58a.83.83 0 11.39-1.11.84.84 0 01-.39 1.11zm-.62-1.3a.61.61 0 10.81.29.61.61 0 00-.82-.29z"/><circle class="cls-2" cx="56.6" cy="50.17" r=".72" transform="rotate(-25.54 56.61 50.173)"/><path class="cls-2" d="M57 50.93a.84.84 0 11.39-1.11.84.84 0 01-.39 1.11zm-.62-1.3a.61.61 0 10.81.29.61.61 0 00-.86-.3zm.14 4.83a2.23 2.23 0 01-2.82-.53v-.06l.28-.13a2.12 2.12 0 003.63-1.73v-.05l.28-.13v.07a2.23 2.23 0 01-1.37 2.56zm-2.66-.55a2.3 2.3 0 003.9-1.86 2.29 2.29 0 01-3.88 1.85z"/><path class="cls-2" d="M56.56 54.56a2.34 2.34 0 01-3-.57l-.11-.16.55-.23.08.12a2 2 0 003.43-1.64v-.14l.48-.23.06.19a2.34 2.34 0 01-1.49 2.66z"/><path class="cls-3" d="M54.25 44.91a12.64 12.64 0 01-2.14 5.81c-2 2.89-.8 4.85.91 7.72 0 0-6.08-4.74-3.71-10.14a2.09 2.09 0 01.13-.22 5.64 5.64 0 014.81-3.17z"/><path class="cls-2" d="M53.83 59.35l-.94-.73c-.06 0-6.18-4.91-3.78-10.4a2.07 2.07 0 01.15-.25l.14-.22a6.19 6.19 0 012.6-2.54 5.69 5.69 0 012.25-.53h.25v.25a12.75 12.75 0 01-2.18 5.93c-1.89 2.77-.78 4.64.91 7.47zm-1.65-13.73a5.78 5.78 0 00-2.4 2.38l-.15.23a2 2 0 00-.11.19c-1.63 3.73 1 7.19 2.55 8.84-1.26-2.25-1.87-4.12-.14-6.65A12.75 12.75 0 0054 45.14a5.14 5.14 0 00-1.82.48z"/><path class="cls-2" d="M53.06 58.52l-.19.13c-.06 0-6.21-4.93-3.79-10.45a2.2 2.2 0 01.15-.26l.14-.22A6.22 6.22 0 0152 45.18a5.7 5.7 0 012.27-.54h.29v.29a12.79 12.79 0 01-2.18 5.94c-1.88 2.75-.77 4.61.92 7.43zm-.86-12.87A5.75 5.75 0 0049.81 48l-.15.23a1.89 1.89 0 00-.11.19C48 52 50.29 55.27 51.88 57c-1.16-2.14-1.66-4 0-6.42A12.74 12.74 0 0054 45.19a5.06 5.06 0 00-1.8.46z"/><path class="cls-3" d="M58.91 49.29c.4.28 1.91 1.53 2.67 5.08 0 0-.8-4.71-1.64-6.22v-.09A5 5 0 0054.12 45v.08a21.6 21.6 0 004.79 4.21z"/><path class="cls-2" d="M61.81 54.33l-.44.08c-.73-3.39-2.16-4.64-2.58-4.95A21.32 21.32 0 0154 45.14v-.09l-.12-.26.29-.05a5.19 5.19 0 016 3.23v.06c.83 1.54 1.61 6.11 1.64 6.3zm-7.32-9.2a25.43 25.43 0 004.56 4 5.8 5.8 0 011.65 2 13.46 13.46 0 00-.94-2.87 4.75 4.75 0 00-5.28-3.13zM70.19 47z"/><path class="cls-2" d="M60 48s.17-.17 0-.55a.7.7 0 00.68 0 .81.81 0 00.18-.47l.15-.1s.21.33.42.26c0 0 .4 0 .4-.4a.28.28 0 00.21 0s.39.7 1.09-.35c0 0 .41.83 1.08 0a1 1 0 00.42-.1s-.15.5.29.58c0 0 .38.08.51-.4a.67.67 0 00.74.21s.08.56.57.18c0 0 .25.19.42.11a.53.53 0 00.05.34l2.65-.14c.09-.06.52-.33.4-.77 0 0-.2-.62-.71-.67 0 0 .42-.94-.47-1.08 0 0-.26 0-.28-.05a.7.7 0 00-.2-.78.8.8 0 00-1 .17s.11-1.24-.75-.83a4.85 4.85 0 00-.46.28s-.05-.93-.51-1c0 0-.39 0-.85.69a1 1 0 01-.32-.27s-.14-.51-.46-.55a1 1 0 00-.84.5s-.2-.52-1.11-.21a1 1 0 00-.55 1.23s-.48-.91-1-.3c0 0-.59.52-.32 1 0 0-.8-.24-1.1.11 0 0-.5.57 0 1 0 0-.77 0-.74.61 0 .59.05.54.29.57 0 0 .4.26.28.41"/><circle class="cls-3" cx="64.49" cy="49.39" r="5.92" transform="rotate(-87.7 64.247 49.367)"/><circle class="cls-2" cx="62.53" cy="49.39" r=".72" transform="rotate(-87.48 62.532 49.39)"/><path class="cls-2" d="M62.49 50.22a.83.83 0 11.87-.8.84.84 0 01-.87.8zm.06-1.44a.61.61 0 10.58.64.61.61 0 00-.57-.64z"/><circle class="cls-2" cx="66.37" cy="49.56" r=".72" transform="rotate(-87.48 66.367 49.556)"/><path class="cls-2" d="M66.33 50.39a.84.84 0 11.87-.8.84.84 0 01-.87.8zm.06-1.44a.61.61 0 10.58.64.61.61 0 00-.57-.64zm-2.11 4.36a2.23 2.23 0 01-2.28-1.8v-.07h.31v.05a2.12 2.12 0 004 .18v-.05h.31v.07a2.23 2.23 0 01-2.34 1.62zm-2.09-1.73a2.3 2.3 0 004.32.19 2.29 2.29 0 01-4.29-.19z"/><path class="cls-2" d="M64.28 53.42a2.34 2.34 0 01-2.35-1.89v-.2h.54v.15a2 2 0 003.8.17v-.15h.53v.2a2.35 2.35 0 01-2.52 1.72z"/><path class="cls-2" d="M64.19 55.37a6.14 6.14 0 116.4-5.86 6.14 6.14 0 01-6.4 5.86zm.52-11.81a5.69 5.69 0 105.43 5.93 5.69 5.69 0 00-5.43-5.93z"/><path class="cls-3" d="M68 62.33s2.57 4.38 3.32 5.78A14.55 14.55 0 0173 69.44s1.69 1.85-.7.51c0 0 2.78 3.58-.84.54 0 0 2.34 4.42-.73.59 0 0 1.31 5.08-1.47-.64 0 0-1.08 2.17-1.39 1.22-.14-.44.7-1.5.32-2.32a26.12 26.12 0 00-2.84-4.14z"/><path class="cls-2" d="M70.9 73.38c-.19 0-.46 0-1.67-2.45-.29.52-.75 1.19-1.15 1.19-.12 0-.33-.05-.44-.4a1.54 1.54 0 01.16-.92 1.9 1.9 0 00.2-1.37 26.23 26.23 0 00-2.77-4.06l-.23-.15L68.09 62l.15.26s2.52 4.31 3.3 5.74a14.11 14.11 0 011.6 1.32c.77.84.65 1.1.62 1.19a.33.33 0 01-.33.19 1.18 1.18 0 01-.43-.1c.63.93.53 1.13.49 1.22a.3.3 0 01-.28.17c-.16 0-.41-.09-1.11-.62.53 1.14.41 1.33.37 1.41a.28.28 0 01-.24.14c-.15 0-.37-.08-1.09-.92a2.2 2.2 0 010 1.32.31.31 0 01-.24.06zm-1.66-3.45l.2.41a15.64 15.64 0 001.35 2.45 10.06 10.06 0 00-.3-1.65l-.26-1 .65.81A14.49 14.49 0 0072 72.2a14.32 14.32 0 00-.75-1.61l-.54-1 .88.74A12.2 12.2 0 0073 71.37a10.78 10.78 0 00-.87-1.29l-.68-.87 1 .54a5.52 5.52 0 00.88.42 4 4 0 00-.45-.59 14.48 14.48 0 00-1.58-1.29c-.77-1.29-2.73-4.63-3.3-5.59l-2.36 2.48a30.15 30.15 0 012.71 4 2.24 2.24 0 01-.13 1.82 1.64 1.64 0 00-.16.62.37.37 0 000 .08 3.79 3.79 0 00.94-1.37z"/><path class="cls-3" d="M70.3 63.9s-2.91 4.16-3.87 5.43a14.59 14.59 0 01-.53 2s-1 2.31-.76-.43c0 0-2.09 4-.84-.53 0 0-3 4-.85-.42 0 0-4.07 3.31 0-1.61 0 0-2.42-.08-1.69-.76.34-.31 1.66 0 2.24-.68a26.13 26.13 0 002.58-4.31z"/><path class="cls-2" d="M64 72.79a.29.29 0 01-.23-.12c-.09-.12-.16-.34.07-1.33-.53.61-.89.93-1.1.93a.28.28 0 01-.24-.13c-.07-.11-.16-.26.36-1.41a2.79 2.79 0 01-1.11.57.31.31 0 01-.29-.17c-.08-.18-.19-.41 1.53-2.55-.65-.05-1.43-.2-1.57-.58a.48.48 0 01.19-.54 1.54 1.54 0 01.9-.23 1.9 1.9 0 001.32-.43 26.3 26.3 0 002.53-4.22l.06-.24 4.25 1.45-.17.24s-2.86 4.09-3.84 5.4a14.1 14.1 0 01-.53 2c-.45 1.06-.73 1.06-.83 1.06a.31.31 0 01-.23-.1.83.83 0 01-.16-.55c-.57 1-.8 1-.89 1zm.83-3.45l-.31 1.11a12.09 12.09 0 00-.38 1.7 10.79 10.79 0 00.81-1.33l.51-1-.09 1.1a5.41 5.41 0 000 1 4.16 4.16 0 00.34-.65 14.54 14.54 0 00.51-2v-.05c.81-1.07 3.05-4.27 3.69-5.18l-3.24-1.11a30 30 0 01-2.54 4.15 2.24 2.24 0 01-1.64.6 1.65 1.65 0 00-.63.12l-.06.07a3.8 3.8 0 001.6.3h.46l-.29.35a15.66 15.66 0 00-1.66 2.25 10 10 0 001.37-1l.81-.66-.46.93a14.37 14.37 0 00-.63 1.57 14.63 14.63 0 001.16-1.35z"/><circle class="cls-3" cx="69.96" cy="57.94" r="6.04" transform="rotate(-86.74 69.951 57.937)"/><path class="cls-2" d="M70 64.2h-.4a6.25 6.25 0 11.36 0zm0-12.07a5.82 5.82 0 10.34 0z"/><circle class="cls-2" cx="68.51" cy="57.17" r=".66" transform="rotate(-44.42 68.51 57.176)"/><path class="cls-2" d="M67.95 57.72a.79.79 0 111.11 0 .79.79 0 01-1.11 0zm.94-.92a.53.53 0 100 .74.53.53 0 00-.01-.74z"/><circle class="cls-2" cx="70.95" cy="59.66" r=".66" transform="rotate(-44.45 70.941 59.66)"/><path class="cls-2" d="M70.39 60.21a.78.78 0 111.11 0 .79.79 0 01-1.11 0zm.94-.92a.53.53 0 100 .74.53.53 0 00-.01-.73zm-3.06.55a2.35 2.35 0 01-.65-1.28 1.4 1.4 0 101.92 2 2.35 2.35 0 01-1.27-.72zM64.67 57zm-8.16 2.51s.11-.16-.05-.46a.58.58 0 00.55-.14.67.67 0 00.07-.41l.11-.11s.22.23.39.15a.35.35 0 00.26-.39.23.23 0 00.16 0s.43.51.83-.46c0 0 .47.61.88-.18a.78.78 0 00.33-.15s0 .43.34.42c0 0 .33 0 .35-.41a.56.56 0 00.63 0s.16.44.49.05c0 0 .24.11.36 0a.44.44 0 00.1.27l2.13-.55a.61.61 0 00.2-.69S64.39 56 64 56c0 0 .19-.84-.56-.81 0 0-.2.07-.23 0a.58.58 0 00-.29-.6.66.66 0 00-.77.3s-.12-1-.75-.56a4.31 4.31 0 00-.33.3s-.2-.75-.57-.71c0 0-.32 0-.58.7a.81.81 0 01-.31-.16s-.2-.39-.47-.37a.79.79 0 00-.6.54s-.25-.39-.94 0a.85.85 0 00-.25 1.09s-.54-.66-.86-.08c0 0-.39.52-.1.85 0 0-.69-.07-.87.27 0 0-.31.55.16.81 0 0-.63.15-.5.61.13.47.13.43.33.42 0 0 .37.15.29.29"/><path class="cls-3" d="M57.14 64.21s-.78 5-1 6.6a14.56 14.56 0 00-1 1.82s-.9 2.34.84.22c0 0-1.28 4.35 1 .2 0 0-.56 5 .9.28 0 0 .64 5.21 1.13-1.14 0 0 1.8 1.62 1.74.62 0-.46-1.2-1.14-1.14-2a26.07 26.07 0 011.12-4.89z"/><path class="cls-2" d="M57 75.56a.28.28 0 01-.21-.1 2.72 2.72 0 01-.13-1.41c-.55.92-.76 1-.92 1a.29.29 0 01-.23-.12c-.12-.16-.1-.59 0-1.27-.24.23-.39.29-.51.29a.31.31 0 01-.26-.14c-.17-.24 0-.83.17-1.28a14.16 14.16 0 011-1.82c.2-1.62 1-6.5 1-6.55v-.29L61 65.78l-.12.21a26.22 26.22 0 00-1.1 4.81c0 .43.34.84.66 1.2a1.54 1.54 0 01.49.79.56.56 0 01-.12.43.42.42 0 01-.32.13 2.93 2.93 0 01-1.33-.72c-.23 2.7-.48 2.92-.77 2.92-.14 0-.39 0-.63-1.27-.38 1.18-.56 1.28-.76 1.28zm1-3.3l.13 1a10.06 10.06 0 00.32 1.65 15.67 15.67 0 00.36-2.78v-.45l.34.31a3.9 3.9 0 001.36.89.36.36 0 000-.09c0-.11-.21-.34-.37-.52a2.24 2.24 0 01-.77-1.55 30 30 0 011-4.77l-3.1-1.44c-.17 1.1-.77 5-.93 6.29v.05a14.38 14.38 0 00-1 1.78 4 4 0 00-.2.71 5.64 5.64 0 00.66-.72l.7-.86-.31 1.06a10.79 10.79 0 00-.34 1.52 12.14 12.14 0 00.9-1.49l.55-1-.13 1.15a14.58 14.58 0 00-.1 1.77 14.33 14.33 0 00.57-1.58z"/><circle class="cls-3" cx="60.79" cy="61.3" r="6.04" transform="rotate(-8.86 60.765 61.258)"/><path class="cls-2" d="M60.79 67.56a6.26 6.26 0 01-1-12.45 6.31 6.31 0 011-.08 6.26 6.26 0 011 12.45 6.3 6.3 0 01-1 .08zm0-12.08a5.81 5.81 0 000 11.63 5.93 5.93 0 00.9-.07 5.81 5.81 0 00-.89-11.56z"/><circle class="cls-2" cx="59.18" cy="62.26" r=".66" transform="rotate(-8.86 59.13 62.236)"/><path class="cls-2" d="M59.3 63a.78.78 0 11.65-.9.78.78 0 01-.65.9zm-.2-1.3a.53.53 0 10.6.44.53.53 0 00-.6-.4z"/><circle class="cls-2" cx="62.62" cy="61.72" r=".66" transform="rotate(-8.85 62.628 61.72)"/><path class="cls-2" d="M62.74 62.5a.78.78 0 11.66-.9.79.79 0 01-.66.9zm-.2-1.3a.53.53 0 10.6.44.53.53 0 00-.6-.44zM61.21 64a2.35 2.35 0 01-1.42-.22 1.4 1.4 0 102.71-.42 2.35 2.35 0 01-1.29.64z"/></svg>