<svg xmlns="http://www.w3.org/2000/svg" xmlns:xlink="http://www.w3.org/1999/xlink" width="65" height="65"><defs><path id="a" d="M.892 32.415l31.724 31.723 31.726-31.723L32.616.69z"/><path id="c" d="M.892 32.415l31.724 31.723 31.726-31.723L32.616.69z"/><path id="e" d="M.892 32.415l31.724 31.723 31.726-31.723L32.616.69z"/><path id="g" d="M.892 32.415l31.724 31.723 31.726-31.723L32.616.69z"/><path id="i" d="M.892 32.415l31.724 31.723 31.726-31.723L32.616.69z"/><path id="k" d="M.892 32.415l31.724 31.723 31.726-31.723L32.616.69z"/><path id="m" d="M.892 32.415l31.724 31.723 31.726-31.723L32.616.69z"/><path id="o" d="M.892 32.415l31.724 31.723 31.726-31.723L32.616.69z"/><path id="q" d="M.892 32.415l31.724 31.723 31.726-31.723L32.616.69z"/><path id="s" d="M.892 32.415l31.724 31.723 31.726-31.723L32.616.69z"/><path id="u" d="M.892 32.415l31.724 31.723 31.726-31.723L32.616.69z"/><path id="w" d="M.892 32.415l31.724 31.723 31.726-31.723L32.616.69z"/><path id="y" d="M.892 32.415l31.724 31.723 31.726-31.723L32.616.69z"/><path id="A" d="M.892 32.415l31.724 31.723 31.726-31.723L32.616.69z"/><path id="C" d="M.892 32.415l31.724 31.723 31.726-31.723L32.616.69z"/><path id="E" d="M.892 32.415l31.724 31.723 31.726-31.723L32.616.69z"/><path id="G" d="M.892 32.415l31.724 31.723 31.726-31.723L32.616.69z"/><path id="I" d="M.892 32.415l31.724 31.723 31.726-31.723L32.616.69z"/><path id="K" d="M.892 32.415l31.724 31.723 31.726-31.723L32.616.69z"/><path id="M" d="M.892 32.415l31.724 31.723 31.726-31.723L32.616.69z"/><path id="O" d="M.892 32.415l31.724 31.723 31.726-31.723L32.616.69z"/><path id="Q" d="M.892 32.415l31.724 31.723 31.726-31.723L32.616.69z"/><path id="S" d="M.892 32.415l31.724 31.723 31.726-31.723L32.616.69z"/><path id="U" d="M.892 32.415l31.724 31.723 31.726-31.723L32.616.69z"/><path id="W" d="M.892 32.415l31.724 31.723 31.726-31.723L32.616.69z"/><path id="Y" d="M.892 32.415l31.724 31.723 31.726-31.723L32.616.69z"/><path id="aa" d="M.892 32.415l31.724 31.723 31.726-31.723L32.616.69z"/><path id="ac" d="M.892 32.415l31.724 31.723 31.726-31.723L32.616.69z"/><path id="ae" d="M.892 32.415l31.724 31.723 31.726-31.723L32.616.69z"/><path id="ag" d="M.892 32.415l31.724 31.723 31.726-31.723L32.616.69z"/><path id="ai" d="M.892 32.415l31.724 31.723 31.726-31.723L32.616.69z"/><path id="ak" d="M.892 32.415l31.724 31.723 31.726-31.723L32.616.69z"/><path id="am" d="M.892 32.415l31.724 31.723 31.726-31.723L32.616.69z"/><path id="ao" d="M.892 32.415l31.724 31.723 31.726-31.723L32.616.69z"/><path id="aq" d="M.892 32.415l31.724 31.723 31.726-31.723L32.616.69z"/><path id="as" d="M.892 32.415l31.724 31.723 31.726-31.723L32.616.69z"/><path id="au" d="M.892 32.415l31.724 31.723 31.726-31.723L32.616.69z"/><path id="aw" d="M.892 32.415l31.724 31.723 31.726-31.723L32.616.69z"/><path id="ay" d="M.892 32.415l31.724 31.723 31.726-31.723L32.616.69z"/><path id="aA" d="M.892 32.415l31.724 31.723 31.726-31.723L32.616.69z"/><path id="aC" d="M.892 32.415l31.724 31.723 31.726-31.723L32.616.69z"/><path id="aE" d="M.892 32.415l31.724 31.723 31.726-31.723L32.616.69z"/><path id="aG" d="M.892 32.415l31.724 31.723 31.726-31.723L32.616.69z"/><path id="aI" d="M.892 32.415l31.724 31.723 31.726-31.723L32.616.69z"/><path id="aK" d="M.892 32.415l31.724 31.723 31.726-31.723L32.616.69z"/><path id="aM" d="M.892 32.415l31.724 31.723 31.726-31.723L32.616.69z"/><path id="aO" d="M.892 32.415l31.724 31.723 31.726-31.723L32.616.69z"/><path id="aQ" d="M.892 32.415l31.724 31.723 31.726-31.723L32.616.69z"/><path id="aS" d="M.892 32.415l31.724 31.723 31.726-31.723L32.616.69z"/><path id="aU" d="M.892 32.415l31.724 31.723 31.726-31.723L32.616.69"/><path id="aW" d="M.892 32.415l31.724 31.723 31.726-31.723L32.616.69"/><path id="aY" d="M.892 32.415l31.724 31.723 31.726-31.723L32.616.69"/><path id="ba" d="M.892 32.415l31.724 31.723 31.726-31.723L32.616.69"/><path id="bc" d="M.892 32.415l31.724 31.723 31.726-31.723L32.616.69"/><path id="be" d="M.892 32.415l31.724 31.723 31.726-31.723L32.616.69"/><path id="bg" d="M.892 32.415l31.724 31.723 31.726-31.723L32.616.69"/><path id="bi" d="M.892 32.415l31.724 31.723 31.726-31.723L32.616.69"/><path id="bk" d="M.892 32.415l31.724 31.723 31.726-31.723L32.616.69"/><path id="bm" d="M.892 32.415l31.724 31.723 31.726-31.723L32.616.69"/><path id="bo" d="M.892 32.415l31.724 31.723 31.726-31.723L32.616.69"/><path id="bq" d="M.892 32.415l31.724 31.723 31.726-31.723L32.616.69"/><path id="bs" d="M.892 32.415l31.724 31.723 31.726-31.723L32.616.69"/><path id="bu" d="M.892 32.415l31.724 31.723 31.726-31.723L32.616.69"/><path id="bw" d="M.892 32.415l31.724 31.723 31.726-31.723L32.616.69"/><path id="by" d="M.892 32.415l31.724 31.723 31.726-31.723L32.616.69"/><path id="bA" d="M.892 32.415l31.724 31.723 31.726-31.723L32.616.69"/><path id="bC" d="M.892 32.415l31.724 31.723 31.726-31.723L32.616.69"/><path id="bE" d="M.892 32.415l31.724 31.723 31.726-31.723L32.616.69"/><path id="bG" d="M.892 32.415l31.724 31.723 31.726-31.723L32.616.69"/><path id="bI" d="M.892 32.415l31.724 31.723 31.726-31.723L32.616.69"/><path id="bK" d="M.892 32.415l31.724 31.723 31.726-31.723L32.616.69"/><path id="bM" d="M.892 32.415l31.724 31.723 31.726-31.723L32.616.69"/><path id="bO" d="M.892 32.415l31.724 31.723 31.726-31.723L32.616.69"/><path id="bQ" d="M.892 32.415l31.724 31.723 31.726-31.723L32.616.69"/><path id="bS" d="M.892 32.415l31.724 31.723 31.726-31.723L32.616.69"/><path id="bU" d="M.892 32.415l31.724 31.723 31.726-31.723L32.616.69"/><path id="bW" d="M.892 32.415l31.724 31.723 31.726-31.723L32.616.69"/><path id="bY" d="M.892 32.415l31.724 31.723 31.726-31.723L32.616.69"/><path id="ca" d="M.892 32.415l31.724 31.723 31.726-31.723L32.616.69"/><path id="cc" d="M.892 32.415l31.724 31.723 31.726-31.723L32.616.69"/></defs><g fill="none" fill-rule="evenodd" transform="translate(0 -.001)"><path fill="#231F20" d="M32.616 64.139L.892 32.415 32.616.691l31.726 31.724z"/><path fill="#FFF" d="M1.27 32.415L32.617 63.76l31.347-31.345L32.616 1.069 1.27 32.415zm31.346 32.103L.514 32.415 32.616.311 64.72 32.415 32.616 64.518z"/><mask id="b" fill="#fff"><use xlink:href="#a"/></mask><path fill="#FFF" d="M29.03 63.723l-.412-.126 3.231-10.557-9.411-6.543 11.045-4.239.154.402-10.287 3.948 9.002 6.258z" mask="url(#b)"/><mask id="d" fill="#fff"><use xlink:href="#c"/></mask><path fill="#FFF" d="M22.227 59.39l-.226-.366 9.954-6.147.226.366z" mask="url(#d)"/><mask id="f" fill="#fff"><use xlink:href="#e"/></mask><path fill="#FFF" d="M22.328 56.157l-.427-.047 1.015-9.262.428.047z" mask="url(#f)"/><mask id="h" fill="#fff"><use xlink:href="#g"/></mask><path fill="#FFF" d="M10.053 53.917l-.202-.38 13.028-6.911.201.38z" mask="url(#h)"/><mask id="j" fill="#fff"><use xlink:href="#i"/></mask><path fill="#FFF" d="M7.262 47.938l-.025-.43 15.731-.906.024.429z" mask="url(#j)"/><mask id="l" fill="#fff"><use xlink:href="#k"/></mask><path fill="#FFF" d="M22.905 47.018L4.404 40.23l.147-.404 18.502 6.789z" mask="url(#l)"/><mask id="n" fill="#fff"><use xlink:href="#m"/></mask><path fill="#FFF" d="M22.804 46.941l-8.912-12.603.351-.248 8.912 12.602z" mask="url(#n)"/><mask id="p" fill="#fff"><use xlink:href="#o"/></mask><path fill="#FFF" d="M5.655 40.932l-.261-.341 8.543-6.548.261.341z" mask="url(#p)"/><mask id="r" fill="#fff"><use xlink:href="#q"/></mask><path fill="#FFF" d="M13.882 34.323L2.716 15.261l.371-.218 11.166 19.063z" mask="url(#r)"/><mask id="t" fill="#fff"><use xlink:href="#s"/></mask><path fill="#FFF" d="M22.765 46.821l-.26-11.079.429-.009.261 11.078z" mask="url(#t)"/><mask id="v" fill="#fff"><use xlink:href="#u"/></mask><path fill="#FFF" d="M22.683 35.949l-8.653-1.523.074-.424 8.652 1.524z" mask="url(#v)"/><mask id="x" fill="#fff"><use xlink:href="#w"/></mask><path fill="#FFF" d="M14.195 34.387l-.255-.346 11.771-8.679.255.345z" mask="url(#x)"/><mask id="z" fill="#fff"><use xlink:href="#y"/></mask><path fill="#FFF" d="M22.846 35.912l-.251-.349 5.575-4.024.251.349z" mask="url(#z)"/><mask id="B" fill="#fff"><use xlink:href="#A"/></mask><path fill="#FFF" d="M30.17 37.127l-7.484-1.177.067-.425 7.484 1.178z" mask="url(#B)"/><mask id="D" fill="#fff"><use xlink:href="#C"/></mask><path fill="#FFF" d="M23.066 46.683l-.343-.26 7.309-9.638.343.26z" mask="url(#D)"/><mask id="F" fill="#fff"><use xlink:href="#E"/></mask><path fill="#FFF" d="M37.299 59.88l-5.5-7.093.34-.263 5.5 7.092z" mask="url(#F)"/><mask id="H" fill="#fff"><use xlink:href="#G"/></mask><path fill="#FFF" d="M37.006 59.127l-.34-.264 6.324-8.164.34.263z" mask="url(#H)"/><mask id="J" fill="#fff"><use xlink:href="#I"/></mask><path fill="#FFF" d="M42.945 50.831L42.931 39.7h.43l.014 11.131z" mask="url(#J)"/><mask id="L" fill="#fff"><use xlink:href="#K"/></mask><path fill="#FFF" d="M43.246 51.027l-.172-.393 12.077-5.319.174.393z" mask="url(#L)"/><mask id="N" fill="#fff"><use xlink:href="#M"/></mask><path fill="#FFF" d="M53.495 55.113l-10.414-4.082.158-.4 10.412 4.082z" mask="url(#N)"/><mask id="P" fill="#fff"><use xlink:href="#O"/></mask><path fill="#FFF" d="M54.059 46.085l-10.997-4.076.15-.403 10.997 4.076z" mask="url(#P)"/><mask id="R" fill="#fff"><use xlink:href="#Q"/></mask><path fill="#FFF" d="M43.277 41.971l-.279-.326 8.314-7.119.28.326z" mask="url(#R)"/><mask id="T" fill="#fff"><use xlink:href="#S"/></mask><path fill="#FFF" d="M54.425 46.287l-3.181-11.542.415-.114 3.18 11.541z" mask="url(#T)"/><mask id="V" fill="#fff"><use xlink:href="#U"/></mask><path fill="#FFF" d="M61.248 41.163l-9.911-6.293.23-.363 9.91 6.293z" mask="url(#V)"/><mask id="X" fill="#fff"><use xlink:href="#W"/></mask><path fill="#FFF" d="M51.515 34.895l-.126-.412 9-2.762.126.412z" mask="url(#X)"/><mask id="Z" fill="#fff"><use xlink:href="#Y"/></mask><path fill="#FFF" d="M67.117 37.144l-6.793-5.045.256-.345 6.793 5.044z" mask="url(#Z)"/><mask id="ab" fill="#fff"><use xlink:href="#aa"/></mask><path fill="#FFF" d="M60.24 31.96l-1.514-9.55.425-.067 1.513 9.55z" mask="url(#ab)"/><mask id="ad" fill="#fff"><use xlink:href="#ac"/></mask><path fill="#FFF" d="M51.06 35.004l-.536-7.128.43-.032.534 7.128z" mask="url(#ad)"/><mask id="af" fill="#fff"><use xlink:href="#ae"/></mask><path fill="#FFF" d="M50.822 28.058l-.166-.396 8.317-3.479.166.396z" mask="url(#af)"/><mask id="ah" fill="#fff"><use xlink:href="#ag"/></mask><path fill="#FFF" d="M50.94 27.936l-.402-.151 4.037-10.725.402.151z" mask="url(#ah)"/><mask id="aj" fill="#fff"><use xlink:href="#ai"/></mask><path fill="#FFF" d="M50.429 27.602L43.32 17.494l.352-.248 7.109 10.109z" mask="url(#aj)"/><mask id="al" fill="#fff"><use xlink:href="#ak"/></mask><path fill="#FFF" d="M43.528 17.582l-.065-.425 11.635-1.769.065.425z" mask="url(#al)"/><mask id="an" fill="#fff"><use xlink:href="#am"/></mask><path fill="#FFF" d="M43.309 17.719l-5.32-9.282.373-.214 5.321 9.282z" mask="url(#an)"/><mask id="ap" fill="#fff"><use xlink:href="#ao"/></mask><path fill="#FFF" d="M38.333 8.476l-.317-.292 5.535-6.04.317.292z" mask="url(#ap)"/><mask id="ar" fill="#fff"><use xlink:href="#aq"/></mask><path fill="#FFF" d="M38.047 8.503L23.924-1.96l.256-.346L38.303 8.157z" mask="url(#ar)"/><mask id="at" fill="#fff"><use xlink:href="#as"/></mask><path fill="#FFF" d="M38.145 8.543L19.02 5.867l.059-.427 19.125 2.678z" mask="url(#at)"/><mask id="av" fill="#fff"><use xlink:href="#au"/></mask><path fill="#FFF" d="M25.997 15.126l-.204-.379 12.28-6.606.203.378z" mask="url(#av)"/><mask id="ax" fill="#fff"><use xlink:href="#aw"/></mask><path fill="#FFF" d="M29.334 21.321l-.352-.247 9.017-12.867.352.247z" mask="url(#ax)"/><mask id="az" fill="#fff"><use xlink:href="#ay"/></mask><path fill="#FFF" d="M25.53 14.943L14.969 5.208l.291-.316 10.562 9.735z" mask="url(#az)"/><mask id="aB" fill="#fff"><use xlink:href="#aA"/></mask><path fill="#FFF" d="M6.649 19.667l-.102-.417 19.077-4.674.102.418z" mask="url(#aB)"/><mask id="aD" fill="#fff"><use xlink:href="#aC"/></mask><path fill="#FFF" d="M25.59 24.031l-.43-.014.3-9.239.43.014z" mask="url(#aD)"/><mask id="aF" fill="#fff"><use xlink:href="#aE"/></mask><path fill="#FFF" d="M25.777 25.74l-19.62-5.803.122-.412 19.62 5.803z" mask="url(#aF)"/><mask id="aH" fill="#fff"><use xlink:href="#aG"/></mask><path fill="#FFF" d="M25.929 25.729l-.18-.39 17.657-8.165.18.391z" mask="url(#aH)"/><mask id="aJ" fill="#fff"><use xlink:href="#aI"/></mask><path fill="#FFF" d="M35.423 29.762l-.357-.24 8.251-12.272.357.24z" mask="url(#aJ)"/><mask id="aL" fill="#fff"><use xlink:href="#aK"/></mask><path fill="#FFF" d="M13.994 34.416L3.516 30.629l.146-.404 10.478 3.786z" mask="url(#aL)"/><mask id="aN" fill="#fff"><use xlink:href="#aM"/></mask><path fill="#FFF" d="M4.264 38.595l-.888-8.144.427-.046.888 8.143z" mask="url(#aN)"/><mask id="aP" fill="#fff"><use xlink:href="#aO"/></mask><path fill="#FFF" d="M-.884 36.559l-.339-.262 4.642-6.001.341.262z" mask="url(#aP)"/><mask id="aR" fill="#fff"><use xlink:href="#aQ"/></mask><path fill="#FFF" d="M3.788 30.511l-.396-.168 3.009-7.08.395.168z" mask="url(#aR)"/><mask id="aT" fill="#fff"><use xlink:href="#aS"/></mask><path fill="#FFF" d="M51.476 34.952l-4.966-1.755.143-.405 4.967 1.755z" mask="url(#aT)"/><mask id="aV" fill="#fff"><use xlink:href="#aU"/></mask><path fill="#FFF" d="M23.812 46.78a.896.896 0 10-1.792 0 .896.896 0 001.792 0" mask="url(#aV)"/><mask id="aX" fill="#fff"><use xlink:href="#aW"/></mask><path fill="#FFF" d="M23.683 35.675a.896.896 0 10-1.792-.002.896.896 0 001.792.002" mask="url(#aX)"/><mask id="aZ" fill="#fff"><use xlink:href="#aY"/></mask><path fill="#FFF" d="M33.154 52.89a.895.895 0 10-.896.896.896.896 0 00.896-.896" mask="url(#aZ)"/><mask id="bb" fill="#fff"><use xlink:href="#ba"/></mask><path fill="#FFF" d="M34.525 42.472a.755.755 0 10-1.51 0 .755.755 0 001.51 0" mask="url(#bb)"/><mask id="bd" fill="#fff"><use xlink:href="#bc"/></mask><path fill="#FFF" d="M31.062 36.758a.756.756 0 10-1.512 0 .756.756 0 001.512 0" mask="url(#bd)"/><mask id="bf" fill="#fff"><use xlink:href="#be"/></mask><path fill="#FFF" d="M36.445 29.655a.755.755 0 10-1.51 0 .755.755 0 001.51 0" mask="url(#bf)"/><mask id="bh" fill="#fff"><use xlink:href="#bg"/></mask><path fill="#FFF" d="M43.892 41.717a.756.756 0 10-1.512.002.756.756 0 001.512-.002" mask="url(#bh)"/><mask id="bj" fill="#fff"><use xlink:href="#bi"/></mask><path fill="#FFF" d="M44.27 50.84a.896.896 0 10.001.001" mask="url(#bj)"/><mask id="bl" fill="#fff"><use xlink:href="#bk"/></mask><path fill="#FFF" d="M55.331 46.006a.755.755 0 10-1.51 0 .755.755 0 001.51 0" mask="url(#bl)"/><mask id="bn" fill="#fff"><use xlink:href="#bm"/></mask><path fill="#FFF" d="M52.275 34.695a.896.896 0 10-1.792 0 .896.896 0 001.792 0" mask="url(#bn)"/><mask id="bp" fill="#fff"><use xlink:href="#bo"/></mask><path fill="#FFF" d="M51.725 27.648a.755.755 0 10-1.51 0 .755.755 0 001.51 0" mask="url(#bp)"/><mask id="br" fill="#fff"><use xlink:href="#bq"/></mask><path fill="#FFF" d="M15.094 34.227a.896.896 0 10-1.792 0 .896.896 0 001.792 0" mask="url(#br)"/><mask id="bt" fill="#fff"><use xlink:href="#bs"/></mask><path fill="#FFF" d="M7.497 48.083a.756.756 0 10-1.512 0 .756.756 0 001.512 0" mask="url(#bt)"/><mask id="bv" fill="#fff"><use xlink:href="#bu"/></mask><path fill="#FFF" d="M6.393 40.562a.756.756 0 10-1.512 0 .756.756 0 001.512 0" mask="url(#bv)"/><mask id="bx" fill="#fff"><use xlink:href="#bw"/></mask><path fill="#FFF" d="M4.718 30.41a.896.896 0 100 .001" mask="url(#bx)"/><mask id="bz" fill="#fff"><use xlink:href="#by"/></mask><path fill="#FFF" d="M7.497 56.38a.755.755 0 10-1.51 0 .755.755 0 001.51 0" mask="url(#bz)"/><mask id="bB" fill="#fff"><use xlink:href="#bA"/></mask><path fill="#FFF" d="M37.86 59.051a.895.895 0 10-1.793 0 .896.896 0 001.793 0" mask="url(#bB)"/><mask id="bD" fill="#fff"><use xlink:href="#bC"/></mask><path fill="#FFF" d="M26.626 26.05a.755.755 0 100 .001" mask="url(#bD)"/><mask id="bF" fill="#fff"><use xlink:href="#bE"/></mask><path fill="#FFF" d="M26.662 14.726a.755.755 0 10-1.51 0 .755.755 0 001.51 0" mask="url(#bF)"/><mask id="bH" fill="#fff"><use xlink:href="#bG"/></mask><path fill="#FFF" d="M7.054 19.91a.756.756 0 10-1.512 0 .756.756 0 001.512 0" mask="url(#bH)"/><mask id="bJ" fill="#fff"><use xlink:href="#bI"/></mask><path fill="#FFF" d="M44.46 17.595a.897.897 0 10-1.791.001.897.897 0 001.79-.001" mask="url(#bJ)"/><mask id="bL" fill="#fff"><use xlink:href="#bK"/></mask><path fill="#FFF" d="M56.353 15.481a.756.756 0 00-1.512 0 .756.756 0 001.512 0" mask="url(#bL)"/><mask id="bN" fill="#fff"><use xlink:href="#bM"/></mask><path fill="#FFF" d="M59.76 24.627a.755.755 0 10-1.51 0 .755.755 0 001.51 0" mask="url(#bN)"/><mask id="bP" fill="#fff"><use xlink:href="#bO"/></mask><path fill="#FFF" d="M61.707 31.885a.895.895 0 10-.896.896c.495 0 .896-.4.896-.896" mask="url(#bP)"/><mask id="bR" fill="#fff"><use xlink:href="#bQ"/></mask><path fill="#FFF" d="M63.416 41.717a.755.755 0 10-1.51 0 .755.755 0 001.51 0" mask="url(#bR)"/><mask id="bT" fill="#fff"><use xlink:href="#bS"/></mask><path fill="#FFF" d="M59.096 57.254a.755.755 0 10-1.51 0 .755.755 0 001.51 0" mask="url(#bT)"/><mask id="bV" fill="#fff"><use xlink:href="#bU"/></mask><path fill="#FFF" d="M58.933 6.192a.756.756 0 10-1.512.002.756.756 0 001.512-.002" mask="url(#bV)"/><mask id="bX" fill="#fff"><use xlink:href="#bW"/></mask><path fill="#FFF" d="M38.993 8.458a.896.896 0 10-1.794 0 .896.896 0 001.794 0" mask="url(#bX)"/><mask id="bZ" fill="#fff"><use xlink:href="#bY"/></mask><path fill="#FFF" d="M47.766 7.704a.756.756 0 10-1.512.002.756.756 0 001.512-.002" mask="url(#bZ)"/><mask id="cb" fill="#fff"><use xlink:href="#ca"/></mask><path fill="#FFF" d="M16.464 5.068a.755.755 0 10-1.51 0 .755.755 0 001.51 0" mask="url(#cb)"/><mask id="cd" fill="#fff"><use xlink:href="#cc"/></mask><path fill="#FFF" d="M4.881 7.51a.755.755 0 10-1.51 0 .755.755 0 001.51 0" mask="url(#cd)"/><path fill="#FFF" d="M34.354 54.016l.068-.081 3.583-4.24.264-3.097 7.093-3.884 2.593-4.711.9-3.995 1.043-2.107 2.649-3.877-1.528-2.881-4.158-2.333-2.062-.404-1.287-.739-3.118-1.227-3.154-1.117-.086-1.338-1.43-2.548-4.743 1.741-3.253 1.074-1.041-3.831-4.581.892.092 2.645-2.805.004-2.865.583v5.663l-2.232.925-1.609 2.574 3.593 3.048 2.626.699 1.507-1.313 1.5 2.106 3.284 1.481 1.483 1.106 2.464 5.255.697 1.283-.338 1.089 2.9 3.601.433 1.878-3.161 3.206 2.483 1.687M2.293 55.191c0-.577-.438-.566-.8-.577v1.16c.367 0 .8-.023.8-.583zm-.8 2.557H.857v-3.7h.866c.3 0 .61.033.87.24.239.198.383.537.383.886 0 .854-.56 1.182-1.21 1.182-.087 0-.182-.006-.271-.012v1.404zm2.875-2.108c.289 0 .565-.122.565-.51 0-.383-.227-.505-.515-.505h-.333v1.015h.283zm-.921 2.108v-3.7h1.032c.56 0 1.131.161 1.131.977 0 .471-.244.804-.638.87.228.106.3.311.389.561l.455 1.292h-.71L4.762 56.7c-.139-.444-.278-.489-.671-.489v1.537h-.644zm2.84 0h.638v-3.7h-.638zm4.355 0v-2.185c.011-.334.022-.666.044-.998h-.022c-.028.127-.055.255-.094.382l-.799 2.801h-.588l-.677-2.313a11.879 11.879 0 01-.216-.87h-.022c.028.322.05.649.05.97v2.214h-.605v-3.7h1.004l.571 1.94c.084.3.156.6.2.91.05-.255.094-.505.167-.748l.604-2.103h1.021v3.7h-.638zm3.273 0h-1.881v-3.7h1.864v.61h-1.226v.893h1.121v.606h-1.121v.987h1.243zm.678 0h.638v-3.7h-.638zm2.346-2.108c.288 0 .566-.122.566-.51 0-.383-.228-.505-.516-.505h-.333v1.015h.283zm-.921 2.108v-3.7h1.032c.56 0 1.13.161 1.13.977 0 .471-.242.804-.637.87.228.106.3.311.389.561l.455 1.292h-.711l-.343-1.048c-.14-.444-.278-.489-.671-.489v1.537h-.644zm4.11-2.757a2.9 2.9 0 01-.06-.244c-.028.1-.045.206-.073.306l-.377 1.248h.915l-.405-1.31zM21 57.748l-.272-.843h-1.303l-.267.843h-.654l1.226-3.7h.704l1.26 3.7H21zM2.075 52.733l-.748-1.62c-.072-.152-.128-.313-.189-.474.03.229.053.462.053.69v1.404H.753v-2.681h.542l.768 1.624c.068.153.113.318.17.474a4.332 4.332 0 01-.04-.655v-1.443h.437v2.68h-.555zm2.041-1.998a2.408 2.408 0 01-.044-.177c-.02.072-.032.15-.052.221l-.274.904h.663l-.293-.948zm.631 1.998l-.196-.61h-.945l-.193.61h-.475l.89-2.682h.51l.912 2.682h-.503zm2.473-.068a1.8 1.8 0 01-.52.088c-.71 0-1.25-.442-1.25-1.335 0-.888.462-1.387 1.21-1.387.19 0 .366.049.547.117l-.036.459a.88.88 0 00-.487-.145c-.458 0-.748.362-.748.892 0 .555.302.949.784.949.165 0 .326-.044.483-.113l.016.475zm.368.068h.462v-2.681h-.462zm2.038-2.323c-.446 0-.627.539-.627.989 0 .45.18.98.63.98.439 0 .62-.534.62-.98 0-.442-.181-.99-.623-.99m.004 2.385c-.728 0-1.117-.58-1.117-1.404 0-.82.393-1.395 1.117-1.395.728 0 1.11.6 1.11 1.415 0 .8-.406 1.384-1.11 1.384m2.873-.061l-.748-1.62c-.072-.152-.128-.313-.189-.474.028.229.053.462.053.69v1.404h-.439v-2.681h.543l.768 1.624c.07.153.113.318.17.474a4.332 4.332 0 01-.04-.655v-1.443h.437v2.68h-.555zm2.042-1.998a2.408 2.408 0 01-.044-.177c-.02.072-.032.15-.053.221l-.273.904h.663l-.293-.948zm.63 1.998l-.196-.61h-.945l-.193.61h-.474l.888-2.682h.51l.913 2.682h-.502zm2.159 0h-1.351v-2.681h.462v2.243h.889zM1.785 46.616c.291 0 .569-.123.569-.513 0-.385-.229-.508-.519-.508H1.5v1.021h.285zm-.926 2.121v-3.723h1.038c.563 0 1.138.162 1.138.983 0 .474-.245.81-.642.876.229.106.302.313.391.563l.458 1.301h-.714l-.347-1.055c-.139-.446-.278-.49-.675-.49v1.545H.859zm4.721 0H3.688v-3.723h1.875v.615H4.33v.898h1.127v.608H4.33v.994h1.25zm1.457-.569c.725 0 1.211-.408 1.211-1.312 0-.424-.156-.854-.475-1.077-.262-.184-.602-.179-.898-.184v2.567c.05 0 .106.006.162.006zm-.804-3.154h.72c.475 0 1.005.023 1.412.357.43.358.569.916.569 1.513 0 .58-.162 1.161-.575 1.512-.345.296-.798.341-1.211.341h-.915v-3.723zm5.196 3.723H9.537v-3.723h1.875v.615h-1.233v.898h1.127v.608h-1.127v.994h1.25zM.789 63.66h.802v-4.653H.789zm4.087 0L3.58 60.848c-.126-.265-.224-.543-.328-.823.048.398.091.803.091 1.2v2.435h-.76v-4.653h.941l1.332 2.818c.12.266.196.551.293.823a7.82 7.82 0 01-.069-1.137v-2.504h.76v4.653h-.963zm2.721 0h-.81v-4.653h2.198v.767H7.59v1.102h1.34v.768H7.597zm8.525 0l-1.297-2.812c-.127-.265-.224-.543-.329-.823.048.398.09.803.09 1.2v2.435h-.76v-4.653h.941l1.334 2.818c.119.266.196.551.293.823a7.682 7.682 0 01-.07-1.137v-2.504h.76v4.653h-.962zm4.798-.119a3.07 3.07 0 01-.9.154c-1.234 0-2.17-.768-2.17-2.317 0-1.542.804-2.406 2.1-2.406.329 0 .636.083.95.202l-.062.795a1.533 1.533 0 00-.845-.25c-.795 0-1.298.627-1.298 1.548 0 .962.524 1.647 1.36 1.647.287 0 .566-.077.838-.196l.028.823zm.642.119h.802v-4.653h-.802zm3.426-3.467a4.05 4.05 0 01-.077-.307c-.035.125-.056.258-.09.384l-.475 1.569h1.15l-.508-1.646zm1.095 3.467l-.342-1.06H24.1l-.334 1.06h-.823l1.542-4.653h.885l1.584 4.653h-.872zm-14.242-4.278l-.127-.375h-.887l-.124.375zm-1.154 2.458l.475-1.57c.034-.126.055-.259.09-.385.021.105.05.21.077.308l.51 1.646h-1.152zm1.215-2.277h-1.26L9.285 63.66h.823l.335-1.06h1.64l.341 1.06h.872l-1.394-4.097z"/><path fill="#FFF" d="M21.955 21.7a4.12 4.12 0 117.866-2.449 4.12 4.12 0 01-7.866 2.449"/><path fill="#231F20" d="M29.289 18.84s-1.087.072-1.737-.731c0 0-.292.464-.734.625 0 0 .009-.323-.078-.601 0 0-.973 1.142-1.804 1.339 0 0 .283-.583-.001-1.058 0 0-.964 1.785-2.05 2.01 0 0 .167-.662.086-1.041 0 0-.32 1.227-1.072 1.5l-.02-.003c-.502-1.73.74-3.636 2.8-4.277 2.082-.648 4.116.267 4.658 2.009.022.07.042.144.058.216l-.106.013z"/><path fill="#231F20" d="M22.04 20.656c.474-.278.766-1.042.843-1.338l.158-.606.126.587c.058.268.001.656-.044.89.918-.373 1.727-1.853 1.734-1.868l.131-.242.131.22c.193.322.152.684.09.918.71-.316 1.463-1.192 1.471-1.2l.181-.213.073.236c.047.152.068.315.077.438.281-.177.466-.467.468-.469l.12-.187.128.16c.506.623 1.305.682 1.542.685l-.019-.06c-.529-1.703-2.497-2.554-4.48-1.936-1.916.597-3.113 2.363-2.73 3.985zm7.3-1.739c-.046.002-1.044.06-1.732-.64-.136.165-.378.407-.692.522l-.194.07.005-.175s.003-.147-.02-.322c-.339.353-1.047 1.017-1.692 1.171l-.266.063.108-.222c.002-.004.164-.345.097-.698-.329.528-1.113 1.627-1.995 1.81l-.208.042.046-.179s.024-.096.048-.23c-.187.335-.465.68-.847.82l-.044.014-.142-.025-.019-.067c-.095-1.763.841-3.79 2.941-4.318 2.11-.528 3.874.251 4.797 1.965.037.07.044.15.061.225l.031.141-.284.033zm-6.024 2.448c-.061-.196.104-.422.37-.504.265-.083.529.01.59.205.06.195-.104.422-.37.505-.265.082-.53-.01-.59-.206"/><path fill="#231F20" d="M23.39 21.342c.052.166.276.243.5.174.223-.07.363-.261.311-.426-.05-.166-.274-.244-.498-.174-.224.07-.364.26-.313.426m-.149.046c-.07-.226.122-.487.428-.582.305-.096.611.01.681.237.07.226-.12.487-.427.583-.304.095-.611-.012-.681-.238m4.25-1.222c-.06-.196.104-.422.37-.504.264-.083.53.009.59.205.061.196-.105.422-.37.505-.265.082-.529-.01-.59-.206"/><path fill="#231F20" d="M27.566 20.142c.052.166.275.244.5.175.223-.07.363-.262.312-.427-.052-.166-.276-.244-.5-.174-.223.07-.363.26-.312.426m-.149.047c-.07-.226.121-.488.427-.582.306-.095.612.01.682.236.071.227-.12.488-.427.584-.305.095-.612-.012-.682-.238m.439 1.58c.065.608-.408 1.225-1.116 1.445-.707.221-1.446-.019-1.738-.556l-.01.003c.294.543 1.036.784 1.75.561.716-.223 1.19-.842 1.124-1.456l-.01.003zm-2.98.889l-.02-.043.206-.063.016.032c.26.523.964.76 1.637.55.674-.21 1.12-.804 1.037-1.382l-.005-.037.205-.064.007.047c.104.671-.408 1.361-1.191 1.605-.783.243-1.595-.034-1.891-.645z"/><path fill="#231F20" d="M26.791 23.377c.82-.255 1.354-.982 1.245-1.69l-.02-.138-.357.111.015.103c.077.54-.345 1.097-.983 1.296-.636.198-1.3-.02-1.544-.51l-.046-.092-.355.11.06.125c.313.645 1.166.94 1.985.685"/><path fill="#231F20" d="M22.148 21.773a3.962 3.962 0 004.954 2.602 3.963 3.963 0 002.602-4.955 3.96 3.96 0 00-4.954-2.6 3.96 3.96 0 00-2.602 4.953m-.298.093a4.275 4.275 0 012.806-5.345c2.248-.7 4.646.56 5.346 2.807a4.273 4.273 0 01-2.807 5.344 4.273 4.273 0 01-5.345-2.806"/><path fill="#231F20" d="M27.572 24.23s.113-.374.49-.278c0 0-.442-.22-.48-.74 0 0 .096-.66.75-.63 0 0-.492-.898.278-1.13 0 0 .232.007.24-.082 0 0-.222-.436.076-.795 0 0 .395-.357.894.066 0 0-.252-1.226.561-.909 0 0 .354.164.44.228 0 0-.068-.93.33-1.024 0 0 .343-.06.84.597 0 0 .011-.31.103-.433 0 0 .214-.39.498-.457 0 0 .013-.003.034-.005l.695 4.195a1.686 1.686 0 01-.148-.14s-.265.027-.389-.054c0 0 .2.487-.19.61 0 0-.33.121-.504-.345 0 0-.21.396-.63.281 0 0-.004.57-.483.24 0 0-.202.217-.362.151 0 0 .144.42-.22.563 0 0-.133.098-.403-.092 0 0-.119.087-.186.09 0 0 .678 1 .044.678 0 0-.05.234-.18.298 0 0 3.43 3.073 3.48 3.533l.052.042.082.494c-.119.01-.225.011-.225.011s-1.515-.225-1.925-.598c0 0-.196.095-.357-.318-.162-.412-.007-.015-.007-.015s-.842-.008-1.387-1.445c0 0-.513-.157-.255-.545 0 0-1.434-.71-.52-.952 0 0-.422-.194-.465-.273 0 0-.618-.312-.57-.817"/><path fill="#231F20" d="M38.864 22.361s-.227-.317-.554-.105c0 0 .348-.35.216-.855 0 0-.303-.594-.912-.356 0 0 .176-1.008-.627-.979 0 0-.218.082-.253 0 0 0 .068-.484-.33-.728 0 0-.49-.21-.824.35 0 0-.157-1.242-.824-.68 0 0-.283.27-.343.358 0 0-.235-.902-.642-.863 0 0-.345.052-.603.835 0 0-.06-.288-.137-.47 0 0-.08-.264-.37-.237 0 0-.013.001-.034.007l.344 4.252a1.54 1.54 0 00.096-.179s.258-.06.35-.176c0 0-.032.524.376.515 0 0 .352.008.367-.487 0 0 .326.305.688.061 0 0 .186.54.533.071 0 0 .26.141.39.027 0 0 0 .444.39.463 0 0 .159.05.353-.217 0 0 .14.043.204.025 0 0-.32 1.165.178.656 0 0 .123.206.268.224 0 0-2.26 4.014-2.158 4.466l-.037.057.082.494c.117-.03.218-.063.218-.063s1.362-.7 1.629-1.186c0 0 .216.027.236-.416.02-.442 0-.016 0-.016s.796-.279.849-1.815c0 0 .436-.314.067-.598 0 0 1.127-1.135.186-1.069 0 0 .336-.319.35-.408 0 0 .485-.494.278-.958"/><path fill="#FFF" d="M37.745 25.183a4.12 4.12 0 10-8.128 1.346 4.12 4.12 0 008.128-1.346"/><path fill="#FFF" d="M37.457 24.23a4.115 4.115 0 00-4.49-2.532 4.115 4.115 0 00-3.437 3.845 6.396 6.396 0 017.927-1.312"/><path fill="#231F20" d="M32.992 21.852a3.984 3.984 0 00-3.257 3.253 6.502 6.502 0 013.502-1.772 6.491 6.491 0 013.885.549 3.98 3.98 0 00-4.13-2.03zm-3.64 4.124l.023-.441a4.29 4.29 0 013.566-3.991 4.291 4.291 0 014.661 2.629l.163.41-.384-.216a6.21 6.21 0 00-4.093-.726 6.203 6.203 0 00-3.64 2.006l-.296.329zm3.489.079a.503.503 0 10-.994.164.503.503 0 00.994-.164"/><path fill="#231F20" d="M32.275 25.718a.426.426 0 00-.35.488.427.427 0 00.84-.138.425.425 0 00-.49-.35m.165.992a.582.582 0 11-.189-1.148.582.582 0 01.189 1.148m3.04-1.092a.502.502 0 10-.992.164.504.504 0 10.993-.165"/><path fill="#231F20" d="M34.915 25.281a.425.425 0 10.489.349.427.427 0 00-.49-.349m.165.992a.581.581 0 11.479-.668.583.583 0 01-.48.668m-2.648 1.398c.216.578.918.92 1.657.796.74-.122 1.293-.67 1.312-1.287l-.01.001c-.019.611-.572 1.157-1.303 1.28-.732.12-1.43-.219-1.646-.79h-.01zm1.671.88c-.809.133-1.576-.253-1.785-.899l-.014-.045.211-.035.012.035c.186.553.851.884 1.547.77.696-.116 1.218-.644 1.216-1.227v-.038l.212-.034.001.048c.011.678-.592 1.291-1.4 1.424z"/><path fill="#231F20" d="M34.114 28.628c-.847.14-1.651-.27-1.872-.951l-.043-.132.368-.061.033.099c.173.517.8.825 1.46.716.658-.108 1.153-.602 1.15-1.15v-.103l.367-.06.002.139c.01.716-.62 1.362-1.465 1.503"/><path fill="#231F20" d="M32.992 21.852a3.962 3.962 0 00-3.258 4.55 3.963 3.963 0 004.55 3.258 3.962 3.962 0 003.258-4.55 3.962 3.962 0 00-4.55-3.258m1.343 8.115a4.272 4.272 0 01-4.908-3.514 4.272 4.272 0 013.514-4.909 4.275 4.275 0 014.909 3.515 4.273 4.273 0 01-3.515 4.908"/><path fill="#FFF" d="M45.207 26.296a4.119 4.119 0 10-7.97-2.083 4.119 4.119 0 007.97 2.083"/><path fill="#FFF" d="M42.2 21.312c-2.236-.584-4.424.781-5.009 3.017a3.933 3.933 0 00-.062.277l.114.005s1.168-.029 1.87-1.104c0 0 .312.548.787.701 0 0-.009-.402.084-.759 0 0 1.046 1.321 1.94 1.478 0 0-.305-.698.001-1.323 0 0 1.035 2.127 2.202 2.29 0 0-.178-.809-.09-1.291 0 0 .341 1.499 1.15 1.758l.02-.007a4.184 4.184 0 00-3.007-5.042"/><path fill="#231F20" d="M42.184 21.373c-2.181-.57-4.346.736-4.931 2.973a4.468 4.468 0 00-.047.2h.04c.007 0 1.14-.041 1.812-1.075l.057-.087.052.091c.003.005.27.464.67.64.002-.141.017-.421.086-.681l.032-.125.08.1c.009.013.953 1.196 1.787 1.43-.074-.23-.198-.763.046-1.263l.058-.119.057.12c.01.018.96 1.95 2.032 2.23l.031.007c-.045-.23-.144-.826-.072-1.223l.055-.306.07.303c.003.014.329 1.407 1.06 1.695a4.14 4.14 0 00-2.975-4.91zm-5.132 3.294l.014-.073c.018-.094.039-.188.064-.282.602-2.305 2.836-3.65 5.086-3.063 2.232.584 3.602 2.88 3.053 5.12l-.008.037-.075.023-.019-.007c-.588-.189-.933-.98-1.09-1.45.008.43.112.901.113.907l.02.09-.091-.013c-1.036-.142-1.944-1.738-2.188-2.201-.2.556.047 1.14.05 1.146l.047.11-.116-.02c-.768-.136-1.626-1.084-1.894-1.4-.06.306-.054.612-.054.612l.002.094-.085-.027c-.383-.125-.659-.482-.771-.646a2.504 2.504 0 01-1.865 1.05l-.193-.006z"/><path fill="#FFF" d="M37.262 24.623s1.168-.03 1.869-1.104c0 0 .314.549.788.702 0 0-.01-.404.085-.76 0 0 1.045 1.322 1.938 1.478 0 0-.304-.698.003-1.323 0 0 1.035 2.128 2.202 2.29 0 0-.18-.808-.092-1.29 0 0 .342 1.498 1.15 1.758l.022-.006a4.186 4.186 0 00-3.008-5.043c-2.236-.585-4.424.78-5.01 3.017a5.048 5.048 0 00-.061.277l.114.005z"/><path fill="#231F20" d="M42.18 21.475c-2.13-.556-4.248.72-4.819 2.906l-.02.079c.255-.029 1.114-.191 1.66-1.027l.138-.213.126.222c.003.004.202.345.504.535.01-.153.032-.359.083-.555l.08-.302.193.245c.01.011.818 1.024 1.58 1.341-.066-.285-.109-.733.1-1.159l.14-.287.14.287c.008.019.876 1.781 1.863 2.148-.049-.287-.109-.766-.047-1.108l.136-.748.17.741c.082.361.396 1.286.905 1.582a4.048 4.048 0 00-2.933-4.687zm-5.219 3.293l.033-.178c.018-.096.04-.192.065-.288.615-2.355 2.9-3.729 5.2-3.129 2.28.596 3.68 2.942 3.12 5.231l-.022.086-.152.047-.047-.015c-.412-.132-.709-.534-.91-.932.025.165.05.28.051.282l.048.22-.222-.032c-.948-.131-1.79-1.42-2.144-2.044-.073.448.101.856.103.861l.116.266-.286-.05c-.693-.121-1.453-.876-1.817-1.281-.026.221-.022.402-.022.402l.004.222-.209-.067c-.337-.109-.596-.386-.742-.578a2.606 2.606 0 01-1.862.988l-.305-.011z"/><path fill="#231F20" d="M40.34 25.327a.501.501 0 10-.972-.254.502.502 0 10.973.253"/><path fill="#231F20" d="M39.962 24.788a.426.426 0 10-.212.824.426.426 0 00.212-.824m-.254.974a.582.582 0 01.293-1.125c.31.081.497.4.416.71a.583.583 0 01-.71.415m3.223.241a.503.503 0 10-.614.359c.269.07.544-.09.614-.36"/><path fill="#231F20" d="M42.55 25.465a.425.425 0 10-.216.822.425.425 0 00.216-.822m-.254.973a.582.582 0 01-.416-.709.582.582 0 011.125.293.58.58 0 01-.709.416m-2.989.198c-.038.616.464 1.213 1.189 1.402.724.189 1.455-.086 1.723-.641l-.01-.003c-.266.55-.994.824-1.711.637-.717-.188-1.218-.782-1.182-1.392l-.009-.003zm1.167 1.484c-.792-.207-1.336-.872-1.263-1.547l.005-.048.208.055-.004.036c-.056.582.417 1.155 1.099 1.333.683.178 1.375-.09 1.611-.625l.014-.034.209.054-.019.045c-.267.623-1.067.938-1.86.73z"/><path fill="#231F20" d="M40.455 28.195c-.83-.217-1.398-.918-1.322-1.63l.014-.139.361.094-.01.104c-.052.543.395 1.08 1.041 1.25.646.167 1.299-.082 1.52-.582l.041-.095.36.095-.054.127c-.283.66-1.121.993-1.951.776"/><path fill="#231F20" d="M42.19 21.55a3.961 3.961 0 00-4.828 2.828 3.962 3.962 0 002.828 4.829 3.962 3.962 0 004.828-2.828 3.963 3.963 0 00-2.828-4.83m-2.079 7.96a4.273 4.273 0 01-3.05-5.21 4.273 4.273 0 015.208-3.051 4.274 4.274 0 013.051 5.21 4.272 4.272 0 01-5.209 3.05m-10.708-3.373a4.732 4.732 0 00-8.816 3.216l.05.006.096-.038-.127.154s.628 2.127 2.063 4.66l1.943-.747-2.063-4.785.167-.066s-.344-1.633-.121-2.041c0 0 .285 1.476.464 1.924l.009.019 2.107-.84s-.534-1.485-.632-1.934c0 0 .745 1.546 1.169 1.698l1.669-.555 1.654 4.879 1.949-.75c-.632-2.818-1.581-4.8-1.581-4.8"/><path fill="#FFF" d="M29.182 27.054a4.12 4.12 0 10-7.687 2.958 4.12 4.12 0 007.687-2.958"/><path fill="#231F20" d="M23.804 24.566a4.15 4.15 0 00-2.56 4.777l.044.004 1.704-.668s-.183-1.483.014-1.841c0 0 .248 1.294.405 1.686l.007.017 1.848-.736s-.468-1.302-.554-1.696c0 0 .653 1.356 1.025 1.488l3.234-1.073a4.147 4.147 0 00-5.167-1.958"/><path fill="#231F20" d="M23.918 24.84a3.959 3.959 0 00-2.273 5.112 3.961 3.961 0 005.113 2.273 3.961 3.961 0 002.273-5.113 3.96 3.96 0 00-5.113-2.273m2.952 7.677a4.274 4.274 0 01-5.517-2.452 4.275 4.275 0 012.453-5.517A4.275 4.275 0 0129.323 27a4.274 4.274 0 01-2.453 5.516"/><path fill="#231F20" d="M21.498 26.74l4.723-1.759.823 2.211-4.723 1.758zm1.372 2.6s.845.416.968.473c.128.058.28.067.42.013.28-.108.495-.309.387-.589a.541.541 0 00-.7-.31l-.753.29m4.52-1.738s-.35.875-.403 1a.537.537 0 01-.303.29c-.28.108-.573.103-.681-.177a.542.542 0 01.31-.7c.086-.032.754-.29.754-.29m-2.829 3.102c.33.522 1.086.715 1.785.446.698-.269 1.13-.918 1.025-1.526l-.01.004c.105.602-.326 1.248-1.018 1.514s-1.446.076-1.772-.441l-.01.003zm1.815.524c-.766.294-1.594.071-1.93-.519l-.023-.042.2-.077.02.032c.293.505 1.01.695 1.669.441.659-.253 1.064-.874.944-1.446l-.007-.036.2-.078.01.048c.147.662-.318 1.383-1.083 1.677z"/><path fill="#231F20" d="M26.403 31.301c-.801.308-1.671.07-2.025-.554l-.068-.12.347-.134.052.09c.275.472.95.647 1.575.407.622-.239 1.008-.822.895-1.357l-.022-.1.348-.134.03.134c.156.701-.331 1.46-1.132 1.768"/><path fill="#FFF" d="M49.465 32.74a4.117 4.117 0 00-2.433-5.291 4.118 4.118 0 10-2.86 7.725 4.12 4.12 0 005.293-2.433"/><path fill="#231F20" d="M47.07 27.32a4.148 4.148 0 00-5.076 1.896l.029.032 1.72.623s.843-1.234 1.227-1.373c0 0-.67 1.136-.81 1.535l-.006.016 1.875.668s.508-1.286.704-1.64c0 0-.406 1.45-.214 1.796l3.139 1.33a4.148 4.148 0 00-2.587-4.883m-3.826 2.922s.358.866.413.99a.536.536 0 00.306.286c.28.104.572.094.675-.185a.54.54 0 00-.319-.693l-.752-.28m4.52 1.674s-.836.424-.959.482a.535.535 0 01-.418.019c-.28-.103-.496-.301-.392-.581a.54.54 0 01.694-.318l.752.279m-4.162.461c-.099.61.342 1.253 1.044 1.513.703.26 1.457.058 1.78-.469l-.01-.003c-.32.521-1.072.721-1.766.464-.696-.257-1.136-.898-1.039-1.502l-.009-.003zm1.015 1.592c-.768-.285-1.244-1-1.105-1.665l.01-.047.202.075-.007.037c-.114.572.3 1.19.962 1.434.661.245 1.377.046 1.665-.463l.018-.032.201.075-.023.042c-.328.594-1.154.828-1.923.544z"/><path fill="#231F20" d="M44.592 34.041c-.805-.298-1.301-1.052-1.154-1.754l.028-.135.349.13-.02.101c-.106.535.286 1.114.913 1.346.625.231 1.3.047 1.569-.427l.05-.09.35.128-.066.121c-.347.63-1.214.877-2.02.58"/><path fill="#231F20" d="M46.976 27.6a3.963 3.963 0 00-5.085 2.337 3.961 3.961 0 002.337 5.084 3.963 3.963 0 005.086-2.337 3.96 3.96 0 00-2.338-5.084m-2.856 7.714a4.273 4.273 0 01-2.521-5.485 4.271 4.271 0 015.485-2.521 4.273 4.273 0 012.523 5.484 4.276 4.276 0 01-5.487 2.522M29.434 29.46a3.96 3.96 0 00-1.865 5.276 3.96 3.96 0 005.276 1.865 3.961 3.961 0 001.864-5.276 3.96 3.96 0 00-5.275-1.865m3.545 7.422a4.27 4.27 0 01-5.69-2.011 4.272 4.272 0 012.01-5.693 4.274 4.274 0 015.692 2.013 4.27 4.27 0 01-2.012 5.69"/><path fill="#FFF" d="M34.766 31.065a4.118 4.118 0 00-5.492-1.94 4.118 4.118 0 105.492 1.94"/><path fill="#231F20" d="M30.457 33.539a.503.503 0 10-.908.435.503.503 0 00.908-.435"/><path fill="#231F20" d="M29.82 33.373a.426.426 0 10.567.199.427.427 0 00-.566-.2m.434.907a.58.58 0 11-.503-1.045.58.58 0 01.503 1.045m2.616-1.893a.503.503 0 10-.907.434.503.503 0 00.907-.434"/><path fill="#231F20" d="M32.235 32.22a.425.425 0 10.367.766.425.425 0 00-.367-.766m.434.907a.582.582 0 01-.501-1.048.582.582 0 01.501 1.048m-2.157 2.079c.368.495 1.137.627 1.813.304.676-.322 1.056-1.003.902-1.6l-.008.004c.151.593-.229 1.27-.897 1.59-.669.32-1.435.188-1.8-.301l-.01.003zm1.85.38c-.74.355-1.585.197-1.965-.365l-.026-.04.194-.093.021.03c.332.48 1.063.613 1.7.31.636-.304.991-.956.827-1.517l-.01-.035.193-.093.014.047c.2.648-.209 1.404-.949 1.757z"/><path fill="#231F20" d="M32.395 35.657c-.774.37-1.661.201-2.062-.394l-.078-.114.336-.16.059.085c.31.45.999.571 1.6.283.603-.288.942-.9.788-1.424l-.03-.099.336-.16.04.131c.21.686-.215 1.483-.99 1.852"/><path fill="#FFF" d="M30.786 28.938s-.114 2.034-1.487 4.043c-1.374 2.01-.56 3.373.633 5.374 0 0-4.227-3.297-2.583-7.053 0 0 .032-.064.091-.153.308-.462 1.117-2.13 3.346-2.211"/><path fill="#231F20" d="M29.347 29.433c-.938.448-1.418 1.224-1.676 1.643a3.44 3.44 0 01-.102.16 1.492 1.492 0 00-.079.134c-1.136 2.595.666 5 1.774 6.152-.876-1.563-1.298-2.867-.094-4.628a8.87 8.87 0 001.443-3.79 3.558 3.558 0 00-1.266.33zm1.142 9.553l-.653-.508c-.043-.034-4.303-3.416-2.629-7.239.004-.009.039-.08.103-.177.028-.04.059-.091.096-.152.275-.444.786-1.27 1.807-1.758a3.94 3.94 0 011.567-.37l.171-.006-.009.172c-.005.084-.133 2.1-1.514 4.121-1.317 1.926-.54 3.23.635 5.201l.426.715z"/><path fill="#231F20" d="M29.359 29.458c-.93.444-1.408 1.216-1.664 1.631-.04.063-.073.118-.102.162-.05.073-.076.126-.08.131-1.08 2.468.517 4.767 1.624 5.964-.81-1.49-1.153-2.765.01-4.469a8.84 8.84 0 001.435-3.743 3.513 3.513 0 00-1.223.324zm.594 8.95l-.134.092c-.043-.034-4.32-3.43-2.637-7.272.007-.014.04-.084.106-.18l.095-.152c.277-.447.79-1.278 1.818-1.769a3.962 3.962 0 011.579-.372l.2-.007-.011.2c-.005.085-.132 2.108-1.52 4.136-1.306 1.912-.532 3.21.638 5.172l-.134.152z"/><path fill="#FFF" d="M34.03 31.988c.277.198 1.33 1.062 1.86 3.535 0 0-.555-3.275-1.14-4.325l-.033-.064c-.477-1.081-1.613-2.582-4.025-2.16l.027.056c.179.349 1.422 1.606 3.31 2.958"/><path fill="#231F20" d="M30.948 29.094c.348.457 1.507 1.575 3.173 2.766.245.175.705.585 1.145 1.407-.191-.788-.42-1.577-.651-1.993l-.01-.019-.018-.034-.004-.006-.008-.018c-.406-.92-1.411-2.386-3.627-2.103m5.096 6.402l-.306.06c-.505-2.36-1.504-3.232-1.8-3.442-1.87-1.337-3.151-2.609-3.358-3.014l-.03-.06-.083-.183.198-.035c2.586-.455 3.739 1.214 4.195 2.25l.022.041c.595 1.07 1.139 4.25 1.162 4.383m5.834-5.093l.033-.003-.033.003"/><path fill="#231F20" d="M34.77 31.11s.117-.115.034-.384c0 0 .26.131.473-.025 0 0 .108-.11.128-.325l.107-.07s.143.228.294.183c0 0 .276-.027.276-.278 0 0 .06.025.143-.012 0 0 .27.487.759-.24 0 0 .283.578.754 0 0 0 .206-.003.294-.068 0 0-.107.35.205.403 0 0 .266.058.356-.276 0 0 .199.255.513.143 0 0 .058.391.394.127 0 0 .177.133.294.074 0 0-.028.13.035.24l1.84-.1c.065-.045.364-.227.282-.537 0 0-.138-.434-.493-.466 0 0 .292-.656-.323-.754 0 0-.18.023-.193-.038 0 0 .128-.317-.136-.539 0 0-.34-.216-.682.115 0 0 .075-.862-.521-.58 0 0-.257.14-.317.192 0 0-.037-.645-.353-.679 0 0-.271-.015-.59.477 0 0-.181-.097-.225-.184 0 0-.1-.356-.324-.38 0 0-.347-.032-.583.346 0 0-.137-.36-.775-.149 0 0-.49.17-.382.855 0 0 .039.013 0 0 0 0-.335-.635-.691-.21 0 0-.407.361-.222.681 0 0-.557-.169-.762.08 0 0-.348.395 0 .691 0 0-.54.018-.514.421v.004c.03.408.038.375.202.398 0 0 .277.18.192.285"/><path fill="#FFF" d="M42.026 32.24a4.12 4.12 0 10-8.231-.363 4.12 4.12 0 008.231.364"/><path fill="#231F20" d="M37.047 32.08a.502.502 0 10-1.003-.043.502.502 0 001.003.043"/><path fill="#231F20" d="M36.564 31.634a.425.425 0 10-.038.849.425.425 0 00.038-.849m-.044 1.004a.58.58 0 11.049-1.159.58.58 0 01-.049 1.159m3.2-.44a.503.503 0 10-1.005-.043.503.503 0 001.005.043"/><path fill="#231F20" d="M39.236 31.752a.424.424 0 10-.038.847.424.424 0 00.038-.847m-.044 1.005a.582.582 0 11.053-1.162.582.582 0 01-.053 1.162m-2.881.821c.092.61.708 1.088 1.457 1.122.748.032 1.404-.39 1.55-.99h-.01c-.146.594-.8 1.014-1.54.98-.74-.031-1.355-.507-1.447-1.112h-.01zm1.453 1.206c-.82-.037-1.49-.573-1.56-1.248l-.006-.047.215.009.004.037c.067.58.65 1.04 1.355 1.072.704.03 1.325-.377 1.443-.948l.008-.038.214.01-.009.047c-.13.666-.846 1.142-1.664 1.106z"/><path fill="#231F20" d="M37.761 34.861c-.857-.038-1.56-.604-1.635-1.317l-.015-.138.373.017.011.103c.063.542.614.973 1.281 1.002.666.03 1.252-.352 1.363-.886l.021-.102.371.017-.026.136c-.138.703-.888 1.206-1.744 1.168"/><path fill="#231F20" d="M38.063 28a3.96 3.96 0 00-4.127 3.778 3.962 3.962 0 003.778 4.128 3.961 3.961 0 004.127-3.78A3.959 3.959 0 0038.063 28m-.362 8.217a4.273 4.273 0 01-4.077-4.452 4.273 4.273 0 014.453-4.077c2.35.104 4.18 2.1 4.076 4.453a4.273 4.273 0 01-4.452 4.076"/><path fill="#FFF" d="M40.384 41.064s1.787 3.05 2.312 4.023c0 0 .73.515 1.122.918 0 0 1.18 1.29-.489.354 0 0 1.934 2.493-.58.375 0 0 1.631 3.075-.51.414 0 0 .912 3.534-1.025-.448 0 0-.75 1.511-.967.848-.1-.304.487-1.046.22-1.614 0 0-1.387-2.409-1.975-2.88l1.892-1.99z"/><path fill="#231F20" d="M41.216 46.347l.14.285c.533 1.1.807 1.533.942 1.705-.013-.252-.104-.737-.21-1.149l-.183-.7.454.563c.394.488.63.745.77.88a10.005 10.005 0 00-.519-1.123l-.377-.71.615.518c.522.44.81.642.966.736a7.464 7.464 0 00-.609-.897l-.472-.608.671.377c.323.18.508.26.613.294a2.886 2.886 0 00-.314-.408c-.374-.384-1.09-.89-1.097-.896l-.03-.02-.017-.033c-.445-.824-1.815-3.17-2.205-3.839l-1.64 1.725c.648.66 1.834 2.717 1.888 2.81.194.411.032.853-.097 1.21-.06.161-.133.362-.11.432.01.031.02.05.025.058.123-.043.428-.472.654-.926l.142-.284zm1.156 2.404c-.135 0-.32-.009-1.163-1.708-.205.363-.522.83-.8.83-.084 0-.233-.037-.31-.277-.057-.172.021-.387.112-.637.116-.317.247-.676.114-.958-.007-.013-1.372-2.377-1.93-2.825l-.133-.105 2.152-2.265.104.18c.018.03 1.757 2.998 2.298 3.995.144.103.757.55 1.114.916.535.585.455.766.43.825-.019.041-.077.134-.229.134a.806.806 0 01-.298-.073c.438.646.37.786.34.846a.21.21 0 01-.192.115c-.11 0-.286-.063-.77-.434.367.794.288.927.255.983a.198.198 0 01-.17.096c-.108 0-.258-.059-.762-.639.078.411.11.785.006.917a.216.216 0 01-.168.084z"/><path fill="#FFF" d="M41.951 42.156s-2.026 2.896-2.691 3.78c0 0-.164.878-.366 1.403 0 0-.679 1.61-.526-.297 0 0-1.458 2.8-.584-.37 0 0-2.113 2.765-.589-.292 0 0-2.83 2.305-.019-1.117 0 0-1.687-.053-1.175-.526.235-.217 1.154.007 1.558-.474 0 0 1.611-2.265 1.793-2.996l2.599.89z"/><path fill="#231F20" d="M38.148 45.937l-.213.775c-.182.657-.246 1.004-.266 1.184.152-.2.381-.583.56-.926l.355-.682-.06.766c-.03.37-.025.571-.013.68.071-.106.165-.28.24-.456.192-.5.353-1.362.355-1.37l.007-.037.022-.029c.563-.748 2.125-2.972 2.57-3.606l-2.253-.77c-.33.864-1.703 2.8-1.765 2.888-.293.348-.763.386-1.14.416-.172.014-.386.031-.44.082a.273.273 0 00-.042.046c.094.095.61.193 1.115.208l.317.011-.2.244c-.776.945-1.057 1.375-1.157 1.57.223-.117.626-.403.957-.673l.561-.456-.323.648c-.28.561-.415.883-.479 1.067.21-.207.536-.59.804-.94l.488-.64zm-.577 2.401a.204.204 0 01-.162-.08c-.066-.087-.11-.238.046-.928-.366.428-.622.644-.765.644a.192.192 0 01-.168-.094c-.049-.078-.112-.179.252-.982-.29.206-.605.397-.774.397a.219.219 0 01-.203-.12c-.058-.123-.135-.288 1.064-1.774-.454-.036-.996-.136-1.095-.4-.033-.089-.037-.225.13-.378.132-.124.361-.143.625-.164.336-.027.718-.058.92-.296.007-.013 1.586-2.239 1.76-2.934l.041-.165 2.956 1.011-.12.17c-.019.028-1.99 2.847-2.672 3.755-.033.174-.182.917-.367 1.395-.31.734-.509.734-.575.734a.214.214 0 01-.16-.072c-.052-.056-.097-.146-.11-.38-.4.661-.557.661-.623.661z"/><path fill="#FFF" d="M45.907 38.244a4.201 4.201 0 10-8.388-.478 4.201 4.201 0 008.388.478"/><path fill="#231F20" d="M41.71 33.96a4.044 4.044 0 00-4.033 3.814 4.015 4.015 0 001.019 2.922 4.017 4.017 0 002.787 1.345 4.048 4.048 0 004.269-3.807 4.05 4.05 0 00-4.042-4.274m.008 8.4a4.325 4.325 0 01-3.255-1.456 4.327 4.327 0 01-1.098-3.148 4.354 4.354 0 014.596-4.1 4.361 4.361 0 014.103 4.596 4.359 4.359 0 01-4.346 4.108"/><path fill="#231F20" d="M41.023 37.799a.455.455 0 10-.637-.651.455.455 0 00.637.651"/><path fill="#231F20" d="M40.965 37.217a.366.366 0 10-.523.513.366.366 0 00.523-.513m-.652.64a.548.548 0 01.78-.766.547.547 0 01-.78.765m2.408 1.676a.455.455 0 10-.637-.651.455.455 0 00.637.651"/><path fill="#231F20" d="M42.663 38.951a.365.365 0 10-.005.517.365.365 0 00.005-.517m-.651.638a.544.544 0 11.779-.764.546.546 0 11-.779.764m-1.471-.258a1.633 1.633 0 01-.453-.893c-.444.477-.523 1.136-.166 1.5.356.363 1.015.298 1.501-.136a1.635 1.635 0 01-.882-.47m-2.509-1.973l.025-.008-.025.008M32.36 39.1s.076-.113-.035-.319c0 0 .233.065.38-.097 0 0 .07-.107.052-.287l.075-.074s.154.163.27.102c0 0 .219-.068.179-.272 0 0 .054.01.114-.033 0 0 .3.352.579-.32 0 0 .325.424.614-.125 0 0 .168-.035.229-.103 0 0-.03.303.233.295 0 0 .226.004.244-.283 0 0 .205.175.44.033 0 0 .112.309.344.038 0 0 .165.079.25.013 0 0-.001.11.068.188l1.483-.383c.045-.047.258-.244.14-.482 0 0-.182-.331-.477-.3 0 0 .13-.581-.387-.56 0 0-.141.048-.163.001 0 0 .053-.28-.2-.418 0 0-.311-.119-.536.207 0 0-.08-.715-.52-.388 0 0-.186.157-.226.208 0 0-.135-.519-.398-.495 0 0-.223.033-.402.486 0 0-.164-.049-.214-.113 0 0-.14-.274-.326-.257 0 0-.288.031-.418.378 0 0-.171-.271-.655.006 0 0-.373.217-.172.757 0 0 .034.005 0 0 0 0-.377-.461-.597-.057 0 0-.272.361-.07.591 0 0-.48-.046-.606.189 0 0-.22.38.113.564 0 0-.436.103-.35.428l.002.003c.09.326.09.299.229.29 0 0 .256.102.204.202"/><path fill="#FFF" d="M32.797 42.373s-.545 3.493-.677 4.59c0 0-.49.747-.707 1.266 0 0-.624 1.631.585.15 0 0-.887 3.028.678.136 0 0-.391 3.459.626.198 0 0 .446 3.623.788-.792 0 0 1.253 1.131 1.21.434-.018-.319-.835-.794-.795-1.42 0 0 .407-2.75.782-3.403l-2.49-1.159z"/><path fill="#231F20" d="M33.368 47.977l.088.718c.052.422.144.907.225 1.147.064-.21.159-.715.254-1.932l.023-.316.236.212c.328.294.78.613.95.62a.256.256 0 00.002-.06c-.005-.075-.148-.236-.261-.364-.252-.284-.564-.637-.535-1.078.017-.117.367-2.466.727-3.318l-2.157-1.004c-.12.765-.534 3.45-.645 4.38l-.005.037-.02.03c-.005.008-.485.74-.694 1.24-.067.175-.12.367-.14.492.08-.07.224-.21.46-.5l.488-.596-.216.738c-.11.371-.209.805-.238 1.056.11-.143.304-.438.628-1.038l.384-.707-.091.8c-.05.438-.08.94-.072 1.235.081-.177.208-.503.394-1.102l.215-.69zM32.7 50.27a.194.194 0 01-.148-.07c-.108-.12-.12-.526-.093-.983-.386.642-.527.706-.643.706a.199.199 0 01-.164-.084c-.084-.111-.073-.407.034-.881-.17.157-.272.199-.358.199a.217.217 0 01-.182-.095c-.116-.168.003-.576.122-.889.2-.476.607-1.116.703-1.265.138-1.126.668-4.525.672-4.559l.032-.204 2.833 1.316-.084.148c-.358.621-.76 3.322-.764 3.349-.018.297.235.584.46.837.175.198.327.37.337.551.008.132-.02.234-.086.303a.291.291 0 01-.221.09c-.26 0-.665-.29-.928-.502-.16 1.877-.331 2.032-.534 2.032-.095 0-.274 0-.441-.884-.285.81-.412.885-.547.885z"/><path fill="#FFF" d="M39.486 39.697a4.2 4.2 0 10-8.298 1.292 4.2 4.2 0 008.298-1.292"/><path fill="#231F20" d="M35.342 36.298a4.047 4.047 0 00-4.001 4.667 4.021 4.021 0 004.618 3.374 4.05 4.05 0 003.374-4.619 4.022 4.022 0 00-3.991-3.422m-.01 8.402a4.333 4.333 0 01-4.3-3.687 4.36 4.36 0 014.31-5.027 4.332 4.332 0 014.299 3.686 4.36 4.36 0 01-4.309 5.028"/><path fill="#231F20" d="M34.663 40.941a.455.455 0 10-.901.141c.039.25.272.42.521.38a.454.454 0 00.38-.52"/><path fill="#231F20" d="M34.156 40.65a.366.366 0 10.114.724.366.366 0 00-.114-.724m.141.901a.545.545 0 11-.17-1.078.545.545 0 01.17 1.078m2.763-.983a.454.454 0 00-.52-.38.454.454 0 00-.38.52c.039.25.272.42.52.38.25-.038.42-.27.38-.52"/><path fill="#231F20" d="M36.554 40.276a.367.367 0 10.115.724.367.367 0 00-.115-.724m.14.901a.545.545 0 11-.167-1.079.548.548 0 01.624.456.548.548 0 01-.456.623m-1.065 1.047c-.356.057-.7-.005-.99-.15.13.639.62 1.086 1.123 1.007.503-.079.834-.654.763-1.302-.23.227-.54.39-.896.445"/></g></svg>