<svg xmlns="http://www.w3.org/2000/svg" viewBox="0 0 410 225.28"><style>.st0,.st2{fill:none;stroke:#e4ba80;stroke-width:3;stroke-miterlimit:10}.st2{stroke:#f2f2f2}.st3{fill:#4066ff}.st4{fill:none;stroke:#4066ff;stroke-width:3;stroke-miterlimit:10}</style><g id="Arte"><path class="st4" d="M294.37 61.6l19.21-12.36a99.366 99.366 0 0 1 53.8-15.82h42.12M294.37 163.69l19.21 12.36a99.366 99.366 0 0 0 53.8 15.82h42.12M115.13 61.6L95.92 49.24a99.391 99.391 0 0 0-53.8-15.82H0m115.13 130.27l-19.21 12.36a99.366 99.366 0 0 1-53.8 15.82H0M151.66 30.18V17.27m6.46 6.46h-12.91m110.88 6.45V17.27m6.45 6.46h-12.91m-97.97 184.29V195.1m6.46 6.46H145.2m110.88 6.46V195.1m6.46 6.46h-12.92"/><path class="st2" d="M102.8 119.2v-12.91m6.46 6.45H96.35m210.85 6.46v-12.91m6.46 6.45h-12.92"/><g id="Group_131" transform="translate(-749.917 -7694.667)"><path class="st0" d="M1009.91 7799.26l-11.16-3.15a3.873 3.873 0 0 1-2.54-2.26l-2.71-6.55a3.91 3.91 0 0 1 .2-3.4l5.67-10.12c.85-1.52.59-3.43-.65-4.66l-6.08-6.08a3.908 3.908 0 0 0-4.66-.65l-10.12 5.67c-1.04.58-2.29.66-3.4.2l-6.55-2.71a3.895 3.895 0 0 1-2.26-2.54l-3.15-11.16a3.897 3.897 0 0 0-3.75-2.84h-8.6c-1.75 0-3.28 1.16-3.75 2.84l-3.15 11.16a3.895 3.895 0 0 1-2.26 2.54l-6.55 2.71c-1.1.46-2.35.38-3.4-.2l-10.12-5.67a3.893 3.893 0 0 0-4.66.65l-6.08 6.08a3.908 3.908 0 0 0-.65 4.66l5.67 10.12c.58 1.04.65 2.29.19 3.4l-2.71 6.55a3.895 3.895 0 0 1-2.54 2.26l-11.16 3.15a3.897 3.897 0 0 0-2.84 3.75v8.6c0 1.74 1.16 3.28 2.84 3.75l11.16 3.15c1.15.32 2.09 1.16 2.54 2.26l2.71 6.55c.46 1.1.39 2.35-.19 3.4l-5.67 10.12c-.85 1.52-.59 3.43.65 4.66l6.08 6.08a3.89 3.89 0 0 0 4.66.64l10.12-5.67c1.04-.58 2.29-.66 3.4-.2l6.55 2.71c1.1.46 1.94 1.39 2.26 2.54l3.15 11.16a3.897 3.897 0 0 0 3.75 2.84h8.6c1.75 0 3.28-1.16 3.75-2.84l3.15-11.16a3.873 3.873 0 0 1 2.26-2.54l6.55-2.71a3.91 3.91 0 0 1 3.4.2l10.12 5.67c1.52.85 3.43.59 4.66-.64l6.08-6.08c1.23-1.23 1.5-3.14.65-4.66l-5.67-10.12a3.905 3.905 0 0 1-.2-3.4l2.71-6.55c.46-1.1 1.39-1.94 2.54-2.26l11.16-3.15a3.897 3.897 0 0 0 2.84-3.75v-8.6c0-1.74-1.16-3.28-2.84-3.75z"/><path class="st2" d="M954.45 7836.46c-16.1 0-29.15-13.05-29.15-29.15s13.05-29.15 29.15-29.15c16.1 0 29.15 13.05 29.15 29.15s-13.05 29.15-29.15 29.15z"/><path id="Path_114" class="st3" d="M967.05 7812.02c0 1.04-.85 1.89-1.89 1.89h-22.63c-1.05 0-1.89-.85-1.89-1.89 0-1.05.85-1.89 1.89-1.89h22.63c1.04-.01 1.89.84 1.89 1.89 0-.01 0 0 0 0zm-1.89 5.68h-22.63c-1.04-.01-1.9.83-1.91 1.87-.01 1.04.83 1.9 1.87 1.91h22.67c1.04.01 1.9-.83 1.91-1.87s-.83-1.9-1.87-1.91h-.04zm-11.31-11.36a6.6 6.6 0 1 0-6.6-6.6c-.01 3.64 2.95 6.6 6.6 6.6z"/><path id="Path_115" class="st3" d="M990.18 7727.66l-2.68 4.78a.97.97 0 0 0 .16 1.17l3.13 3.13c.31.31.79.38 1.17.16l4.78-2.68c.26-.15.57-.16.85-.05l3.22 1.33c.28.11.48.35.57.64l1.49 5.27c.12.42.5.71.94.71h4.42c.44 0 .82-.29.94-.71l1.49-5.27c.08-.29.29-.52.57-.64l3.22-1.33c.28-.11.59-.1.85.05l4.78 2.68c.38.22.86.15 1.17-.16l3.13-3.13a.97.97 0 0 0 .16-1.17l-2.68-4.78a.976.976 0 0 1-.05-.85l1.33-3.21c.11-.28.35-.48.64-.56l5.27-1.49c.42-.12.71-.5.71-.94v-4.42c0-.44-.29-.82-.71-.94l-5.27-1.49a.993.993 0 0 1-.64-.56l-1.33-3.22c-.11-.28-.1-.59.05-.85l2.68-4.78a.97.97 0 0 0-.16-1.17l-3.13-3.13a.97.97 0 0 0-1.17-.16l-4.78 2.68c-.26.15-.57.16-.85.05l-3.22-1.33a.985.985 0 0 1-.57-.64l-1.49-5.27a.975.975 0 0 0-.94-.71h-4.43c-.44 0-.82.29-.94.71l-1.49 5.27c-.08.29-.29.52-.56.64l-3.22 1.33c-.28.11-.59.1-.85-.05l-4.78-2.68a.984.984 0 0 0-1.17.16l-3.13 3.13a.97.97 0 0 0-.16 1.17l2.68 4.78c.15.26.16.57.05.85l-1.33 3.22c-.11.28-.35.48-.64.56l-5.27 1.49c-.42.12-.71.5-.71.94v4.42c0 .44.29.82.71.94l5.27 1.49c.29.08.52.29.64.56l1.33 3.21c.11.27.09.59-.05.85zm7.26-18.05c12.62-9.44 26.79 4.73 17.34 17.34-.06.08-.14.16-.23.22-12.62 9.44-26.79-4.72-17.34-17.34.07-.08.15-.15.23-.22zm-111.68 18.05l-2.68 4.78a.97.97 0 0 0 .16 1.17l3.13 3.13c.31.31.79.38 1.17.16l4.78-2.68c.26-.15.57-.16.85-.05l3.22 1.33c.28.11.48.35.57.64l1.49 5.27c.12.42.5.71.94.71h4.42c.44 0 .82-.29.94-.71l1.49-5.27c.08-.29.29-.52.57-.64l3.22-1.33c.28-.11.59-.1.85.05l4.78 2.68c.38.22.86.15 1.17-.16l3.13-3.13a.97.97 0 0 0 .16-1.17l-2.68-4.78a.976.976 0 0 1-.05-.85l1.33-3.21c.11-.28.35-.48.64-.56l5.27-1.49c.42-.12.71-.5.71-.94v-4.42c0-.44-.29-.82-.71-.94l-5.27-1.49a.993.993 0 0 1-.64-.56l-1.33-3.22c-.11-.28-.1-.59.05-.85l2.68-4.78a.97.97 0 0 0-.16-1.17l-3.13-3.13a.97.97 0 0 0-1.17-.16l-4.78 2.68c-.26.15-.57.16-.85.05l-3.22-1.33a.985.985 0 0 1-.57-.64l-1.49-5.27a.975.975 0 0 0-.94-.71h-4.42c-.44 0-.82.29-.94.71l-1.49 5.27c-.08.29-.29.52-.57.64l-3.22 1.33c-.28.11-.59.1-.85-.05l-4.78-2.68a.984.984 0 0 0-1.17.16l-3.13 3.13a.97.97 0 0 0-.16 1.17l2.68 4.78c.15.26.16.57.05.85l-1.33 3.22c-.11.28-.35.48-.64.56l-5.27 1.49c-.42.12-.71.5-.71.94v4.42c0 .44.29.82.71.94l5.27 1.49c.29.08.52.29.64.56l1.33 3.21c.11.28.1.59-.05.85zm7.26-18.05c12.62-9.45 26.79 4.72 17.34 17.34-.06.08-.14.16-.22.22-12.62 9.44-26.79-4.72-17.34-17.34.06-.08.13-.15.22-.22zm-24.47 88.53l2.68-4.78a.97.97 0 0 0-.16-1.17l-3.13-3.13a.97.97 0 0 0-1.17-.16l-4.78 2.68c-.26.15-.57.16-.85.05l-3.22-1.33a.985.985 0 0 1-.57-.64l-1.49-5.27a.975.975 0 0 0-.94-.71h-4.42c-.44 0-.82.29-.94.71l-1.49 5.27c-.08.29-.29.52-.57.64l-3.22 1.33c-.28.11-.59.1-.85-.05l-4.78-2.68a.97.97 0 0 0-1.17.16l-3.13 3.13a.97.97 0 0 0-.16 1.17l2.68 4.78c.15.26.16.57.05.85l-1.33 3.21c-.11.28-.35.48-.64.57l-5.27 1.49c-.42.12-.71.5-.71.94v4.42c0 .44.29.82.71.94l5.27 1.49c.29.08.52.29.64.56l1.33 3.22c.11.28.1.59-.05.85l-2.68 4.78a.97.97 0 0 0 .16 1.17l3.13 3.13c.31.31.79.38 1.17.16l4.78-2.68c.26-.15.57-.16.85-.05l3.22 1.33c.28.11.48.35.57.64l1.49 5.27c.12.42.5.71.94.71h4.42c.44 0 .82-.29.94-.71l1.49-5.27c.08-.29.29-.52.57-.64l3.22-1.33c.28-.11.59-.1.85.05l4.78 2.68c.38.22.86.15 1.17-.16l3.13-3.13a.97.97 0 0 0 .16-1.17l-2.68-4.78a.976.976 0 0 1-.05-.85l1.33-3.22c.11-.28.35-.48.64-.56l5.27-1.49c.42-.12.71-.5.71-.94v-4.42c0-.44-.29-.82-.71-.94l-5.27-1.49a.982.982 0 0 1-.64-.57l-1.33-3.21c-.12-.28-.1-.59.05-.85zm-7.26 18.05c-12.62 9.44-26.79-4.72-17.34-17.34.06-.09.14-.16.22-.23 12.62-9.45 26.79 4.72 17.34 17.34-.06.09-.14.16-.22.23zm219.55-6.57v-4.42c0-.44-.29-.82-.71-.94l-5.27-1.49a.993.993 0 0 1-.64-.56l-1.33-3.22c-.11-.28-.1-.59.05-.85l2.68-4.78a.97.97 0 0 0-.16-1.17l-3.13-3.13a.97.97 0 0 0-1.17-.16l-4.78 2.68c-.26.15-.57.16-.85.05l-3.22-1.33a.946.946 0 0 1-.56-.64l-1.49-5.27a.975.975 0 0 0-.94-.71h-4.42c-.44 0-.82.29-.94.71l-1.49 5.27c-.08.29-.29.52-.57.64l-3.22 1.33c-.28.11-.59.1-.85-.05l-4.78-2.68a.97.97 0 0 0-1.17.16l-3.13 3.13a.97.97 0 0 0-.16 1.17l2.68 4.78c.15.26.16.57.05.85l-1.33 3.22c-.11.28-.35.48-.64.57l-5.27 1.49c-.42.12-.71.5-.71.94v4.42c0 .44.29.82.71.94l5.27 1.49c.29.08.52.29.64.56l1.33 3.22c.11.28.1.59-.05.85l-2.68 4.78a.97.97 0 0 0 .16 1.17l3.13 3.13c.31.31.79.38 1.17.16l4.78-2.68c.26-.15.57-.16.85-.05l3.22 1.33c.28.11.48.35.57.64l1.49 5.27c.12.42.5.71.94.71h4.42c.44 0 .82-.29.94-.71l1.49-5.27c.08-.29.29-.52.56-.64l3.22-1.33c.28-.11.59-.1.85.05l4.78 2.68c.38.22.86.15 1.17-.16l3.13-3.13a.97.97 0 0 0 .16-1.17l-2.68-4.78a.976.976 0 0 1-.05-.85l1.33-3.22c.11-.28.35-.48.64-.56l5.27-1.49c.42-.13.71-.52.71-.95zm-15.16 6.57c-12.62 9.44-26.79-4.72-17.34-17.34.06-.08.14-.16.22-.23 12.62-9.44 26.79 4.73 17.34 17.34-.06.09-.14.16-.22.23zm-148.28 70.77l2.68-4.78c.21-.38.15-.86-.16-1.16l-3.13-3.13a.97.97 0 0 0-1.17-.16l-4.78 2.68c-.26.15-.57.16-.85.05l-3.22-1.33a.985.985 0 0 1-.57-.64l-1.49-5.27a.975.975 0 0 0-.94-.71h-4.42c-.44 0-.82.29-.94.71l-1.49 5.27c-.08.29-.29.52-.57.64l-3.22 1.33c-.28.11-.59.1-.85-.05l-4.78-2.68a.984.984 0 0 0-1.17.16l-3.13 3.13a.97.97 0 0 0-.16 1.16l2.68 4.78c.15.26.16.57.05.85l-1.33 3.22c-.11.28-.35.48-.64.56l-5.27 1.49c-.42.12-.71.5-.71.94v4.42c0 .44.29.82.71.94l5.27 1.49c.29.08.52.29.64.56l1.33 3.22c.11.28.1.59-.05.85l-2.68 4.78c-.21.38-.15.86.16 1.16l3.13 3.13c.31.31.79.38 1.17.16l4.78-2.68c.26-.15.57-.16.85-.05l3.22 1.33c.28.11.48.35.57.64l1.49 5.27c.12.42.5.71.94.71h4.42c.44 0 .82-.29.94-.71l1.49-5.27c.08-.29.29-.52.57-.64l3.22-1.33c.28-.11.59-.1.85.05l4.78 2.68c.38.22.86.15 1.17-.16l3.13-3.13a.97.97 0 0 0 .16-1.16l-2.68-4.78a.976.976 0 0 1-.05-.85l1.33-3.22c.11-.28.35-.48.64-.56l5.27-1.49c.42-.12.71-.5.71-.94v-4.42c0-.44-.29-.82-.71-.94l-5.27-1.49a.993.993 0 0 1-.64-.56l-1.33-3.22c-.11-.27-.09-.59.05-.85zm-7.26 18.05c-12.62 9.44-26.79-4.72-17.34-17.34.06-.08.14-.16.23-.23 12.62-9.44 26.79 4.72 17.34 17.34-.07.09-.14.17-.23.23zm111.68-18.05l2.68-4.78c.21-.38.15-.86-.16-1.16l-3.13-3.13a.97.97 0 0 0-1.17-.16l-4.78 2.68c-.26.15-.57.16-.85.05l-3.22-1.33a.985.985 0 0 1-.57-.64l-1.49-5.27a.975.975 0 0 0-.94-.71h-4.42c-.44 0-.82.29-.94.71l-1.49 5.27c-.08.29-.29.52-.56.64l-3.22 1.33c-.28.11-.59.1-.85-.05l-4.78-2.68a.984.984 0 0 0-1.17.16l-3.13 3.13a.97.97 0 0 0-.16 1.16l2.68 4.78c.15.26.16.57.05.85l-1.33 3.22c-.11.28-.35.48-.64.56l-5.27 1.49c-.42.12-.71.5-.71.94v4.42c0 .44.29.82.71.94l5.27 1.49c.29.08.52.29.64.56l1.33 3.22c.11.28.1.59-.05.85l-2.68 4.78c-.21.38-.15.86.16 1.16l3.13 3.13c.31.31.79.38 1.17.16l4.78-2.68c.26-.15.57-.16.85-.05l3.22 1.33c.28.11.48.35.57.64l1.49 5.27c.12.42.5.71.94.71h4.42c.44 0 .82-.29.94-.71l1.49-5.27c.08-.29.29-.52.57-.64l3.22-1.33c.28-.11.59-.1.85.05l4.78 2.68c.38.22.86.15 1.17-.16l3.13-3.13a.97.97 0 0 0 .16-1.16l-2.68-4.78a.976.976 0 0 1-.05-.85l1.33-3.22c.11-.28.35-.48.64-.56l5.27-1.49c.42-.12.71-.5.71-.94v-4.42c0-.44-.29-.82-.71-.94l-5.27-1.49a.993.993 0 0 1-.64-.56l-1.33-3.22c-.12-.27-.1-.59.04-.85zm-7.26 18.05c-12.62 9.44-26.79-4.72-17.34-17.34.06-.08.14-.16.22-.23 12.62-9.44 26.79 4.73 17.34 17.34-.06.09-.13.17-.22.23z"/><path class="st0" d="M976.83 7907.62a103.54 103.54 0 0 1-45.97-.27" id="Group_124"/><path class="st0" d="M1052.36 7838.37a103.268 103.268 0 0 1-22.01 38.17" id="Group_125"/><path class="st0" d="M930.85 7707.46c15.12-3.53 30.83-3.62 45.99-.27" id="Group_126"/><path class="st0" d="M1030.36 7738.28c10 10.99 17.5 24.02 22.01 38.18" id="Group_127"/><path class="st0" d="M856.53 7776.46a101.673 101.673 0 0 1 21.33-37.41" id="Group_128"/><path class="st0" d="M877.87 7875.78a101.893 101.893 0 0 1-21.33-37.41" id="Group_129"/></g><path class="st4" d="M330.92 112.74H410m-410 0h79.08"/></g></svg>