<svg xmlns="http://www.w3.org/2000/svg" viewBox="0 0 410 207.94"><style>.st4,.st7{fill:none;stroke:#4066ff;stroke-width:3;stroke-miterlimit:10}.st7{stroke:#fff}</style><g id="Arte"><path class="st4" d="M265.4 130.65H410m0 20H261.03m3.09-10H410M265.45 49.86h19.21c16.6 0 30.11 13.51 30.11 30.11s-13.51 30.11-30.11 30.11h-19.21"/><path class="st4" d="M265.45 90.09h19.21c5.58 0 10.11-4.54 10.11-10.11s-4.54-10.11-10.11-10.11h-19.21"/><path class="st4" d="M265.45 59.86h19.21c11.11 0 20.11 9 20.11 20.11s-9 20.11-20.11 20.11h-19.21M126.8 110.42h-19.21c-5.58 0-10.11 4.54-10.11 10.11s4.54 10.11 10.11 10.11h20.61"/><path class="st4" d="M131.35 150.65h-23.77c-16.6 0-30.11-13.51-30.11-30.11s13.51-30.11 30.11-30.11h19.21"/><path class="st4" d="M126.8 100.42h-19.21c-11.11 0-20.11 9-20.11 20.11s9 20.11 20.11 20.11h20.61M0 49.86h126.8m0 20H0m0-10h126.8m69.33 0V46.95m6.45 6.46h-12.91m6.46 100.15v-12.91m6.45 6.46h-12.91"/><path class="st7" d="M265.45 33L196.73 1.65 126.8 33v94.78c0 20.05 10.06 38.76 26.78 49.82l43.15 28.54 42.34-28.49a59.727 59.727 0 0 0 26.38-49.55V33z"/><path d="M159.1 169.26a49.61 49.61 0 0 1-22.3-41.48V39.47l59.89-26.85 58.76 26.81v88.66c0 16.58-8.21 32-21.97 41.26l-36.81 24.77-37.57-24.86z" fill="none" stroke="#e4ba80" stroke-width="3" stroke-miterlimit="10"/><path class="st7" d="M164.61 160.92a39.637 39.637 0 0 1-17.81-33.14V45.95l49.86-22.35 48.8 22.26v82.23c0 13.24-6.56 25.57-17.55 32.96l-31.27 21.04-32.03-21.17z"/><path d="M225.85 113.63v8.92c-19.78-7.24-39.65 7.24-59.44 0v-8.92c19.76 7.23 39.66-7.24 59.44 0zM166.41 95.8v8.92c19.79 7.24 39.66-7.24 59.44 0V95.8c-19.79-7.25-39.66 7.24-59.44 0zm0-17.83v8.92c19.79 7.24 39.66-7.24 59.44 0v-8.92c-19.79-7.25-39.66 7.24-59.44 0z" fill="#4066ff"/></g></svg>