<svg xmlns="http://www.w3.org/2000/svg" viewBox="0 0 379.4 352.2"><path d="M226.6 193.2c0-10 3.2-19.2 8.7-26.5-.7-3.9-2.6-7.3-5.2-10.7-1.8-2.5-3.8-5.2-6-7.5-11.3-12.2-25.1-18.9-42.5-18.6-27.5.4-55.2.2-82.7 0-14.6-.1-27.2 4.6-37 14.9-6.6 6.9-12.4 14.8-17 23-10.7 19.5-14.9 40.9-17.6 62.7-1.3 10.4-2.2 21-3.3 31.4v51.7c.1 1.1-.1 13.5 0 14.6h38c-.2-5.3-.2-21.9-.3-27.2-.8-28.5.1-57 6-85.1 2-9.6 5.2-19 7.9-28.5.7.2 1.2.3 1.7.4.1 1.4.2 2.6.2 4l-1.2 136.4h100.8c2-13.2 6.9-37.5 11.8-50.4 3.3-8.7 8.6-16.8 14.3-24.1.6-.8 1-1.7 1-2.7v-63c8.8 16.4 11.4 34.2 14 52.9 7.7-6.6 16-10.9 25.7-12.8-10.4-8.1-17.3-20.7-17.3-34.9zm-87.4-71c27 .2 49.4-21.9 49.4-49 0-26.9-22-49-48.9-49s-49 21.9-49.1 48.7c0 26.9 21.8 49.1 48.6 49.3z"/><path d="M200.8 269.5c-8.8 18.5-9.1 38.3-11.2 58.5h21.3l.7-4c1.8-10.2 4.9-20.2 7.4-30.2l1.8.3c.1 1.5.2 3.1.2 4.6V328h101.5v-34.3c.4-.1.8-.1 1.2-.2 1.6 4.9 3.4 9.7 4.8 14.8 1.7 6.6 3.1 13.1 4.1 19.8l22.9.2c-.6-4.9-1.2-9.8-2.1-14.7-3.2-18-8.5-35.1-19.4-49.6-9.2-12.3-14.8-18.9-30-18.5-21.6.4-43.2.4-64.8 0h-.4c-14.8-.1-28.5 8.1-36.3 21.3l-1.7 2.7zm71.7-32.7c24.5.1 44.1-19.5 44.1-44 0-24.3-19.5-44-43.6-44.1-24.8 0-44.5 19.6-44.5 44.3-.1 24 19.9 43.8 44 43.8z"/></svg>