<svg xmlns="http://www.w3.org/2000/svg" viewBox="0 0 20 14" width="20" height="20"><style/><path id="Layer" d="M6 7c1.42 0 2.69-.85 3.23-2.16.55-1.31.25-2.81-.76-3.81-1-1.01-2.5-1.31-3.81-.76a3.485 3.485 0 00-1.89 4.57c.17.42.43.81.76 1.13.32.33.71.59 1.13.76.43.18.88.27 1.34.27zm2.4 1h-.26c-.33.16-.68.29-1.04.37-.36.09-.73.13-1.1.13-.37 0-.74-.04-1.1-.13A4.77 4.77 0 013.86 8H3.6c-.47 0-.94.09-1.38.27-.43.18-.83.45-1.17.78-.33.34-.6.74-.78 1.17-.18.44-.27.91-.27 1.38v.9c0 .2.04.39.11.57.08.19.19.35.33.49s.3.25.49.33c.18.07.37.11.57.11h9c.2 0 .39-.04.57-.11.19-.08.35-.19.49-.33s.25-.3.33-.49c.07-.18.11-.37.11-.57v-.9c0-.47-.09-.94-.27-1.38-.18-.43-.45-.83-.78-1.17-.34-.33-.74-.6-1.17-.78C9.34 8.09 8.87 8 8.4 8zM15 7c1.21 0 2.31-.73 2.77-1.85.47-1.12.21-2.41-.65-3.27a2.988 2.988 0 00-3.27-.65 2.997 2.997 0 00-.97 4.89A3.008 3.008 0 0015 7zm1.5 1h-.12c-.22.08-.45.15-.68.19a4.05 4.05 0 01-1.4 0 4.04 4.04 0 01-.68-.19h-.12c-.15 0-.3.01-.46.03-.15.02-.3.05-.44.09-.15.04-.29.09-.43.15s-.28.13-.41.21c.2.21.37.44.53.68.15.24.28.5.39.76.1.27.18.54.24.83.05.28.08.56.08.85V13h5.5c.2 0 .39-.04.57-.11.19-.08.35-.19.49-.33s.25-.3.33-.49c.07-.18.11-.37.11-.57 0-.46-.09-.91-.27-1.34-.17-.42-.43-.81-.76-1.13-.32-.33-.71-.59-1.13-.76A3.45 3.45 0 0016.5 8z" fill="#fff"/></svg>