<svg xmlns="http://www.w3.org/2000/svg" viewBox="0 0 1175.36 598.73"><style>.st0{fill:#2a2f41}.st1{fill:none;stroke:#e4ba80;stroke-width:3;stroke-linecap:round;stroke-linejoin:round;stroke-miterlimit:10}.st8{fill:#f2f2f2}.st13,.st29{stroke-width:3;stroke-miterlimit:10}.st13{fill:none;stroke-linecap:round;stroke-linejoin:round;stroke:#2a2f41}.st29{stroke:#214dff}.st29,.st30{fill:#214dff}</style><g id="Art"><path transform="rotate(-90 1116.734 201.563)" class="st30" d="M1106.04 142.93h21.39v117.26h-21.39z"/><path transform="rotate(-90 1116.734 243.126)" class="st30" d="M1106.04 184.5h21.39v117.26h-21.39z"/><path transform="rotate(-90 1116.734 284.69)" class="st30" d="M1106.04 226.06h21.39v117.26h-21.39z"/><path class="st1" d="M383.41 204.52V1.5h674.7v495.01H507.62"/><path class="st13" d="M943.75 103.25V84.72c0-15.67-12.71-28.38-28.38-28.38-15.67 0-28.38 12.71-28.38 28.38v18.52"/><path class="st13" d="M933.75 103.25V84.72c0-10.13-8.25-18.38-18.38-18.38s-18.38 8.25-18.38 18.38v18.52"/><path class="st1" d="M474.05 530.08H288.73c-18.54 0-33.57-15.03-33.57-33.57s15.03-33.57 33.57-33.57h185.31c18.54 0 33.57 15.03 33.57 33.57.01 18.54-15.02 33.57-33.56 33.57z"/><path class="st1" d="M474.05 597.22H288.73c-18.54 0-33.57-15.03-33.57-33.57s15.03-33.57 33.57-33.57h185.31c18.54 0 33.57 15.03 33.57 33.57.01 18.54-15.02 33.57-33.56 33.57z"/><path class="st13" d="M82.66 547.56c-1.75 4.74-3.48 7.2-3.48 7.2m424.9-73.25h539.03V16.5h-644.7v213.72"/><path class="st30" d="M952.14 103.25H878.6a5.06 5.06 0 0 0-5.06 5.06v73.53c0 2.8 2.27 5.06 5.06 5.06h73.53c2.8 0 5.06-2.27 5.06-5.06v-73.53c.01-2.8-2.26-5.06-5.05-5.06z"/><path class="st0" d="M926.16 136.46c0-5.96-4.83-10.79-10.79-10.79s-10.79 4.83-10.79 10.79c0 4.59 2.87 8.5 6.92 10.06l-6.92 17.97h21.58l-6.92-17.97c4.04-1.56 6.92-5.47 6.92-10.06z"/><ellipse class="st13" cx="718.12" cy="125.67" rx="55.26" ry="31.91"/><circle class="st30" cx="718.12" cy="125.67" r="23.29"/><circle class="st0" cx="718.12" cy="125.67" r="10.69"/><path class="st30" d="M543.27 135.23h20.18l21.84 21.84v-21.84h16.87V69.49h-93.13v33.68"/><path class="st30" d="M543.27 103.17v65.74h-54.42l-21.84 21.84v-21.84h-16.87v-65.74z"/><circle class="st8" cx="519.74" cy="136.11" r="7.11"/><circle class="st8" cx="496.71" cy="136.11" r="7.11"/><circle class="st8" cx="473.67" cy="136.11" r="7.11"/><circle class="st8" cx="578.63" cy="101.84" r="7.11"/><circle class="st8" cx="555.59" cy="101.84" r="7.11"/><path class="st8" d="M539.54 103.17c.08-.43.13-.87.13-1.32 0-3.93-3.18-7.11-7.11-7.11s-7.11 3.18-7.11 7.11c0 .45.05.89.13 1.32h13.96z"/><path class="st13" d="M595.55 442.98h-138.8a6.61 6.61 0 0 1-6.61-6.61V230.11a6.61 6.61 0 0 1 6.61-6.61h138.8a6.61 6.61 0 0 1 6.61 6.61v206.27c0 3.65-2.96 6.6-6.61 6.6zm194.61 0h-138.8a6.61 6.61 0 0 1-6.61-6.61V230.11a6.61 6.61 0 0 1 6.61-6.61h138.8a6.61 6.61 0 0 1 6.61 6.61v206.27c0 3.65-2.96 6.6-6.61 6.6zm194.61 0h-138.8a6.61 6.61 0 0 1-6.61-6.61V230.11a6.61 6.61 0 0 1 6.61-6.61h138.8a6.61 6.61 0 0 1 6.61 6.61v206.27c0 3.65-2.96 6.6-6.61 6.6z"/><path class="st13" d="M517.92 297.46h-47.75c-1.99 0-3.6-1.61-3.6-3.6V246.1c0-1.99 1.61-3.6 3.6-3.6h47.75c1.99 0 3.6 1.61 3.6 3.6v47.75c0 2-1.61 3.61-3.6 3.61z"/><circle class="st30" cx="494.04" cy="261.92" r="8.32"/><path class="st30" d="M477.92 286.36c0-8.9 7.22-16.12 16.12-16.12 8.9 0 16.12 7.22 16.12 16.12h-32.24zm105.54-32.77h-45.35a5.55 5.55 0 0 1 0-11.1h45.35a5.55 5.55 0 0 1 5.55 5.55c-.01 3.07-2.49 5.55-5.55 5.55zm0 21.94h-45.35a5.55 5.55 0 0 1 0-11.1h45.35a5.55 5.55 0 0 1 5.55 5.55c-.01 3.06-2.49 5.55-5.55 5.55zm0 21.93h-45.35a5.55 5.55 0 0 1 0-11.1h45.35a5.55 5.55 0 0 1 5.55 5.55c-.01 3.06-2.49 5.55-5.55 5.55z"/><path class="st13" d="M466.56 314.3H589m-122.44 12.94H589m-122.44 12.94H589m-122.44 12.94H589m-122.44 12.95H589m-122.44 12.94H589m-122.44 12.94H589m-122.44 12.94H589m-122.44 12.94H589m71.83-103.53h51.95m-51.95 12.94h51.95m-51.95 12.94h51.95m-51.95 12.94h51.95m-51.95 12.95h51.95m-51.95 12.94h51.95m-51.95 12.94h51.95m-51.95 12.94h51.95m-51.95 12.94h51.95M724.3 314.3h51.96m-51.96 12.94h51.96m-51.96 12.94h51.96m-51.96 12.94h51.96m-51.96 12.95h51.96m-51.96 12.94h51.96m-51.96 12.94h51.96m-51.96 12.94h51.96m-51.96 12.94h51.96"/><path class="st30" d="M629.42 340.18l-11.93-6.88v13.77zm194.61 0l-11.93-6.88v13.77z"/><g id="XMLID_12_"><g id="XMLID_17_"><path class="st30" d="M354.26 147.72c.54 3.82.82 7.58.85 11.22-1.35.32-22.71 5.23-21.7-9.29 1.14-16.45-19.52-20.14-14.75 3.09-16.39-23.09-39.43-20.42-58.06-13.28-5.74-46.82 68.45-68.68 87.61-33.02 9.36 17.43 4.12 27.67 6.05 41.28zM180.6 448.82c-11.98 22.32-30 56.93-42.55 81.15l-55.39 17.6-16.99-15.58S144 470.17 180.6 448.82z"/><path class="st30" d="M437.82 370.95c.22 54.14-21.24 92-59.52 92H231.42c0 45.48-50.6 69.75-79.45 110.46-14.44-6.11-28.33-15.55-28.33-15.55s5.97-11.6 14.41-27.89c12.55-24.22 30.57-58.83 42.56-81.15 2.89-5.39 5.43-10.06 7.46-13.7 16.11-28.89 41.65-38.94 111.64-41.66 7.6-.3 14.94-.72 22-1.24 72.62-5.34 116.1-21.27 116.11-21.27zM221.56 206.9l22.47 60.59-17.96 10.8c-1.56-6.89-1.23-12.75-1.3-15.96-.07-2.98-2.61-3.51-4.96-.6L200.3 212.9l21.26-6z"/><path class="st13" d="M210.78 252.62c-23.68 75 53.69 97.58 101.34 104.07 16.34 2.23 29.18 2.57 33.26 2.48 30.6-.66 38.46-65.18 40.03-102.23 1.73-40.77-42.88-44.77-48.99-9.15-5.56 32.43-8.57 71.74-8.57 71.74s-6.11 1.82-15.73 2.75c-9.01.87-21.1.96-34.11-1.98-11.35-2.55-23.42-7.4-34.75-16.04-8.72-6.64-13.32-14.11-15.75-21-.6-1.7-1.07-3.36-1.44-4.97-1.56-6.89-1.23-12.75-1.3-15.96-.07-2.98-2.61-3.51-4.96-.6-1.08 1.34-2.12 3.42-2.86 6.32-1.3 5.1-1.65 12.76.36 23.5"/><path class="st13" d="M216.95 268.05l-6.17-15.43-17.19-43.02 31.05-8.76 15.69 42.29 9.83 26.51-6.21 3.73-16.44 9.89m95.37-33.7c-5.73 16.5-10.85 38.8-10.76 72.72m26-123.63c1.93 16.19-7.23 27.93-15.2 50.83"/><path class="st13" d="M355.22 158.89l2.74 4.42s15 24.15 29.27 47.43c34.53 56.34 50.4 114.16 50.59 160.21.22 54.14-21.24 92-59.52 92H231.42c0 45.48-50.6 69.75-79.45 110.46-14.44-6.11-28.33-15.55-28.33-15.55s5.97-11.6 14.41-27.89c12.55-24.22 30.57-58.83 42.56-81.15 2.89-5.39 5.43-10.06 7.46-13.7 16.11-28.89 41.65-38.94 111.64-41.66 7.6-.3 14.94-.72 22-1.24 72.62-5.34 116.1-21.27 116.1-21.27m-125.69-14.26c1.18 12.69 9.59 35.53 9.59 35.53"/><path class="st13" d="M123.64 557.86c-29.4-3.78-66.93-4.62-81.24.36-8.34 2.9-8.79 7.77 4.86 15.19 37.05 20.14 96.2 41.62 104.71 0m28.63-124.59C144 470.17 65.67 531.99 65.67 531.99l16.99 15.58 55.39-17.6"/><path class="st13" d="M65.67 531.99c-29.72-19.83-76.82-26.15-61.01-5.42 15.82 20.74 37.74 31.65 37.74 31.65m197.93-315.09c10.55 4.32 37.71 47.18 54.11 53.71 14.11-19.92 27.61-45.69 28.44-47.28.03-.05.04-.08.04-.08m-78.97 23.89c7.79 3.43 33.54 46.07 34.06 46.93v.01m-9.88-150.96c-4.8-9.73-7.25-19.85-7.52-29.38m7.52 29.38c5.44 9.3 6.38 28.82 6.38 28.82l13.29-4.24m67.38-35.01s-.02.01-.07.02c-1.35.32-22.71 5.23-21.7-9.29 1.14-16.45-19.52-20.14-14.75 3.09-16.39-23.09-39.43-20.42-58.06-13.28-5.74-46.82 68.45-68.68 87.61-33.02 9.36 17.43 4.12 27.67 6.05 41.28.54 3.82.82 7.58.85 11.22.09 16.9-5.46 31.47-16.99 39.71-1.54 1.1-3.19 2.09-4.95 2.96-14.08 6.95-31.2 3.4-45.37-7.68m-10.39-30.59c5.34-4.12 12.02-6 18.63-5.33"/></g></g><path class="st30" d="M660.83 242.04h115.43v54.79H660.83z"/><path class="st29" d="M878.23 267.93h-18.17c-2.13 0-3.85-1.73-3.85-3.85V245.9c0-2.13 1.73-3.85 3.85-3.85h18.17c2.13 0 3.85 1.73 3.85 3.85v18.17a3.86 3.86 0 0 1-3.85 3.86z"/><path class="st13" d="M923 267.93h-18.17c-2.13 0-3.85-1.73-3.85-3.85V245.9c0-2.13 1.73-3.85 3.85-3.85H923c2.13 0 3.85 1.73 3.85 3.85v18.17c0 2.13-1.72 3.86-3.85 3.86zm44.77 0H949.6c-2.13 0-3.85-1.73-3.85-3.85V245.9c0-2.13 1.73-3.85 3.85-3.85h18.17c2.13 0 3.85 1.73 3.85 3.85v18.17a3.847 3.847 0 0 1-3.85 3.86zm-89.54 50.47h-18.17c-2.13 0-3.85-1.73-3.85-3.85v-18.17c0-2.13 1.73-3.85 3.85-3.85h18.17c2.13 0 3.85 1.73 3.85 3.85v18.17c0 2.13-1.73 3.85-3.85 3.85z"/><path class="st29" d="M923 318.4h-18.17c-2.13 0-3.85-1.73-3.85-3.85v-18.17c0-2.13 1.73-3.85 3.85-3.85H923c2.13 0 3.85 1.73 3.85 3.85v18.17c0 2.13-1.72 3.85-3.85 3.85zm44.77 0H949.6c-2.13 0-3.85-1.73-3.85-3.85v-18.17c0-2.13 1.73-3.85 3.85-3.85h18.17c2.13 0 3.85 1.73 3.85 3.85v18.17c.01 2.13-1.72 3.85-3.85 3.85z"/><path class="st13" d="M878.23 368.88h-18.17c-2.13 0-3.85-1.73-3.85-3.85v-18.17c0-2.13 1.73-3.85 3.85-3.85h18.17c2.13 0 3.85 1.73 3.85 3.85v18.17c0 2.12-1.73 3.85-3.85 3.85zm44.77 0h-18.17c-2.13 0-3.85-1.73-3.85-3.85v-18.17c0-2.13 1.73-3.85 3.85-3.85H923c2.13 0 3.85 1.73 3.85 3.85v18.17c0 2.12-1.72 3.85-3.85 3.85z"/><path class="st29" d="M967.77 368.88H949.6c-2.13 0-3.85-1.73-3.85-3.85v-18.17c0-2.13 1.73-3.85 3.85-3.85h18.17c2.13 0 3.85 1.73 3.85 3.85v18.17c.01 2.12-1.72 3.85-3.85 3.85zm-89.54 50.47h-18.17c-2.13 0-3.85-1.73-3.85-3.85v-18.17c0-2.13 1.73-3.85 3.85-3.85h18.17c2.13 0 3.85 1.73 3.85 3.85v18.17c0 2.13-1.73 3.85-3.85 3.85z"/><path class="st13" d="M923 419.35h-18.17c-2.13 0-3.85-1.73-3.85-3.85v-18.17c0-2.13 1.73-3.85 3.85-3.85H923c2.13 0 3.85 1.73 3.85 3.85v18.17c0 2.13-1.72 3.85-3.85 3.85zm44.77 0H949.6c-2.13 0-3.85-1.73-3.85-3.85v-18.17c0-2.13 1.73-3.85 3.85-3.85h18.17c2.13 0 3.85 1.73 3.85 3.85v18.17c.01 2.13-1.72 3.85-3.85 3.85z"/></g></svg>