<svg xmlns="http://www.w3.org/2000/svg" viewBox="0 0 410 212.12"><style>.st1,.st2{fill:none;stroke-miterlimit:10;stroke:#4066ff;stroke-width:4}.st2{stroke:#f2f2f2;stroke-width:3}.st3{fill:#4066ff}</style><g id="Arte"><path d="M91.67 117.91H0m91.67-29.79H0m410 29.79h-91.67M410 88.12h-91.67" fill="none" stroke="#e4ba80" stroke-width="3" stroke-miterlimit="10"/><path class="st1" d="M91.67 103.02H0m410 0h-91.67"/><path class="st2" d="M307.33 39.54H102.67c-6.08 0-11 4.93-11 11v114.08c0 6.08 4.93 11 11 11h47.86c4.83 0 8.75 3.92 8.75 8.75s-3.92 8.75-8.75 8.75h-9.41c-9.66 0-17.49 7.83-17.49 17.49h162.73c0-9.66-7.83-17.49-17.49-17.49h-9.41c-4.83 0-8.75-3.92-8.75-8.75s3.92-8.75 8.75-8.75h47.86c6.08 0 11-4.93 11-11V50.55c.01-6.08-4.92-11.01-10.99-11.01z"/><path class="st2" d="M102.68 161.32V53.85c0-1.82 1.48-3.3 3.3-3.3h198.05c1.82 0 3.3 1.48 3.3 3.3v107.48c0 1.82-1.48 3.3-3.3 3.3H105.98a3.305 3.305 0 0 1-3.3-3.31z"/><path class="st3" d="M257.53 123.97c0 21.84-23.52 39.54-52.53 39.54s-52.53-17.7-52.53-39.54h105.06z"/><path class="st1" d="M205 2v97.39m19.43 0V39.78C224.43 18.92 241.35 2 262.22 2h56.11M185.57 99.39V39.78C185.57 18.92 168.65 2 147.78 2H91.67"/><path class="st3" d="M205 110.26l6.27-10.87h-12.54zm-19.43 0l6.27-10.87h-12.55zm38.86 0l6.28-10.87h-12.55z"/><path d="M132 96.86V72.4m12.23 12.23h-24.46m163.77 51.57v-24.46m12.23 12.23h-24.46" fill="none" stroke="#4066ff" stroke-width="3" stroke-miterlimit="10"/></g></svg>