<svg xmlns="http://www.w3.org/2000/svg" viewBox="0 0 333.49 238.82"><style>.st3{fill:#4066ff}</style><g id="Arte"><path d="M207.11 41.85H107.7c-7.33 0-13.28 5.95-13.28 13.28v142.06c0 7.33 5.95 13.28 13.28 13.28h99.41c7.33 0 13.28-5.95 13.28-13.28V55.13c0-7.34-5.95-13.28-13.28-13.28z" fill="none" stroke="#f2f2f2" stroke-width="3" stroke-miterlimit="10"/><path d="M194.08 182.12h-73.35c-3.87 0-7-3.13-7-7s3.13-7 7-7h73.35c3.87 0 7 3.13 7 7s-3.14 7-7 7zm0-32.64h-73.35c-3.87 0-7-3.13-7-7s3.13-7 7-7h73.35c3.87 0 7 3.13 7 7-.01 3.87-3.14 7-7 7zm0-32.65h-73.35c-3.87 0-7-3.13-7-7s3.13-7 7-7h73.35c3.87 0 7 3.13 7 7s-3.14 7-7 7zm0-32.64h-73.35c-3.87 0-7-3.13-7-7s3.13-7 7-7h73.35c3.87 0 7 3.13 7 7s-3.14 7-7 7z" fill="none" stroke="#e4ba80" stroke-width="3" stroke-miterlimit="10"/><path class="st3" d="M238.47 114.81h-37.4v-10h37.4c7.22 0 13.09-5.87 13.09-13.09 0-7.21-5.87-13.08-13.09-13.08H221.4v-10h17.08c12.73 0 23.09 10.36 23.09 23.08s-10.37 23.09-23.1 23.09zm-124.74 65.31h-37.4c-12.73 0-23.09-10.36-23.09-23.08s10.36-23.08 23.09-23.08h17.06v10H76.33c-7.22 0-13.09 5.87-13.09 13.08s5.87 13.08 13.09 13.08h37.4v10z"/><path class="st3" d="M179.99 109.81l21.35 12.33V97.49zm-44.92 65.31l-21.34-12.32v24.65z"/><circle class="st3" cx="220.39" cy="210.47" r="28.35"/><path fill="#2a2f41" d="M214.56 222.92l-12.11-15.34 3.93-3.1 8.87 11.24 19.48-16.74 3.26 3.79z"/><path class="st3" d="M40.34 89.35H5c-2.76 0-5-2.24-5-5V49.01c0-2.76 2.24-5 5-5h35.34c2.76 0 5 2.24 5 5v35.34c0 2.76-2.24 5-5 5zm288.15 96.12h-35.34c-2.76 0-5-2.24-5-5v-35.34c0-2.76 2.24-5 5-5h35.34c2.76 0 5 2.24 5 5v35.34c0 2.76-2.24 5-5 5zM305.82 45.34h-35.34c-2.76 0-5-2.24-5-5V5c0-2.76 2.24-5 5-5h35.34c2.76 0 5 2.24 5 5v35.34c0 2.76-2.24 5-5 5z"/><path d="M53.47 117.99v-12.91m6.46 6.46H47.01m166.75-82.41V16.21m6.46 6.46H207.3m103.52 101.78v-12.91m6.45 6.45h-12.91M22.67 205.44v-12.92m6.46 6.46H16.21" fill="none" stroke="#4066ff" stroke-width="3" stroke-miterlimit="10"/></g></svg>