<svg version="1.1" id="Layer_1" xmlns="http://www.w3.org/2000/svg" x="0" y="0" viewBox="0 0 42 25" xml:space="preserve"><style>.st1{fill:#fff}</style><path class="st1" d="M17.5 20.7c1.4 0 3 .2 4.8.6 2 .5 3.5 1.1 4.8 2 1.4 1 2.2 2 2.2 3.2v2.9H5.8v-2.9c0-1.2.7-2.3 2.2-3.2 1.2-.8 2.8-1.5 4.8-2 1.7-.4 3.3-.6 4.7-.6zm0-2.9c-1 0-2-.3-2.9-.8-.9-.5-1.6-1.2-2.1-2.1-.5-.9-.8-1.9-.8-3s.3-2 .8-2.9 1.2-1.6 2.1-2.2c.9-.5 1.9-.8 2.9-.8s2 .3 2.9.8c.9.6 1.6 1.3 2.1 2.2s.8 1.9.8 2.9-.3 2-.8 2.9c-.5.9-1.2 1.6-2.1 2.1-.9.6-1.9.9-2.9.9z" transform="translate(-5 -5)"/><path class="st1" d="M39.6 24.2v-2.9c0-1.2-.7-2.3-2.2-3.2-1.2-.8-2.8-1.5-4.8-2-1.7-.4-3.3-.6-4.8-.6-1.4 0-3 .2-4.8.6-.9.2-1.8.5-2.5.8.8.3 1.6.7 2.2 1.1 1.4 1 2.2 2 2.2 3.2v2.9m.1-12.4c.9.5 1.9.8 2.9.8s2-.3 2.9-.8c.9-.5 1.6-1.2 2.1-2.1.5-.9.8-1.9.8-2.9 0-1.1-.3-2-.8-2.9s-1.2-1.6-2.1-2.2c-.9-.5-1.9-.8-2.9-.8s-2 .3-2.9.8c-.9.5-1.6 1.2-2.1 2.2s-.8 1.9-.8 2.9.3 2 .8 2.9c.5.9 1.2 1.6 2.1 2.1z"/></svg>