<svg xmlns="http://www.w3.org/2000/svg" viewBox="0 0 933.8 485.23"><style>.st1{stroke-linecap:round;stroke-linejoin:round}.st1,.st17,.st18{fill:none;stroke:#e4ba80;stroke-width:3;stroke-miterlimit:10}.st18{stroke:#2a2f41}.st22{stroke:#214dff;stroke-linecap:round;stroke-linejoin:round}.st22,.st23,.st28{fill:none;stroke-width:3;stroke-miterlimit:10}.st23{stroke-linejoin:round;stroke:#2a2f41}.st28{stroke:#214dff}.st30{fill:#214dff}</style><g id="Art"><path class="st17" d="M589.88 103.38v321.33"/><path class="st1" d="M344.69 57.48h424.22c19.24 0 34.84 15.6 34.84 34.84"/><path class="st30" d="M773.52 295.97c-2.47 7.17-5 15.58-6.06 25.5-39.29 3.54-78.64 19.57-117.88 5.21v-25.05c41.2 15.08 82.61-3.41 123.94-5.66zm-43.07-69.02c-5.16-6.5-9.91-14.48-14.17-22.6-22.25 3.57-44.5 5.19-66.69-2.94v25.05c26.91 9.86 53.88 5.4 80.86.49zm50.61 18.7c-43.83.09-87.74 21.88-131.48 5.87v25.05c43.56 15.94 87.27-5.57 130.87-5.87.96-7.76 1.23-16.73.61-25.05zm-30.54-22.22c.95-.15 1.9-.3 2.84-.44 10.43-8.42 13.38-21.11 19.83-27.21-13.61.77-27.24 3.28-40.85 5.77 5.91 7.95 13.47 17.65 18.18 21.88z"/><path class="st18" d="M828.79 435.77H932.3v4.36c0 23.99-19.45 43.44-43.44 43.44H305.03c-23.99 0-43.44-19.45-43.44-43.44v-4.36h528.02"/><path class="st18" d="M665.22 453.71H528.66c-9.91 0-17.94-8.03-17.94-17.94h172.44c0 9.91-8.03 17.94-17.94 17.94zm124.39-17.94H316.74V258.53m0-144.15v-8.21c0-7.65 6.2-13.85 13.85-13.85H863.3c7.65 0 13.85 6.2 13.85 13.85v329.6H828.8"/><path class="st18" d="M787.33 424.71H332.35c-2.52 0-4.55-2.04-4.55-4.55V258.53m0-144.15v-6.45c0-2.52 2.04-4.55 4.55-4.55h529.18c2.52 0 4.55 2.04 4.55 4.55v312.22c0 2.52-2.04 4.55-4.55 4.55h-31.37"/><path class="st17" d="M396.8 258.53H159.46a7.45 7.45 0 0 1-7.45-7.45V121.84a7.45 7.45 0 0 1 7.45-7.45H396.8a7.45 7.45 0 0 1 7.45 7.45v129.24c.01 4.11-3.33 7.45-7.45 7.45z"/><path class="st18" d="M563.07 406.7H351.73c-3.89 0-7.04-3.15-7.04-7.04V283.34c0-3.89 3.15-7.04 7.04-7.04h211.34c3.89 0 7.04 3.15 7.04 7.04v116.32c0 3.89-3.15 7.04-7.04 7.04zm-.05-148.17H433.05a7.09 7.09 0 0 1-7.09-7.09V121.47a7.09 7.09 0 0 1 7.09-7.09h129.97a7.09 7.09 0 0 1 7.09 7.09v129.97c0 3.92-3.17 7.09-7.09 7.09z"/><circle class="st30" cx="278.13" cy="186.46" r="34.27"/><path fill="#f2f2f2" d="M290.92 186.46l-19.38-11.2v22.39z"/><path class="st30" d="M483.44 134.1h-32.98a5.74 5.74 0 0 0-5.74 5.74v32.98a5.74 5.74 0 0 0 5.74 5.74h32.98a5.74 5.74 0 0 0 5.74-5.74v-32.98a5.74 5.74 0 0 0-5.74-5.74zm0 60.26h-32.98a5.74 5.74 0 0 0-5.74 5.74v32.98a5.74 5.74 0 0 0 5.74 5.74h32.98a5.74 5.74 0 0 0 5.74-5.74V200.1a5.74 5.74 0 0 0-5.74-5.74zm62.73-60.26H513.2a5.74 5.74 0 0 0-5.74 5.74v32.98a5.74 5.74 0 0 0 5.74 5.74h32.98a5.74 5.74 0 0 0 5.74-5.74v-32.98a5.755 5.755 0 0 0-5.75-5.74zm0 60.26H513.2a5.74 5.74 0 0 0-5.74 5.74v32.98a5.74 5.74 0 0 0 5.74 5.74h32.98a5.74 5.74 0 0 0 5.74-5.74V200.1a5.755 5.755 0 0 0-5.75-5.74zm-86.81 164.59H366.8a5.74 5.74 0 0 1-5.74-5.74v-54.29a5.74 5.74 0 0 1 5.74-5.74h92.56a5.74 5.74 0 0 1 5.74 5.74v54.29c-.01 3.17-2.57 5.74-5.74 5.74zm24.12-65.76h68.42v9.73h-68.42zm0 28.02h68.42v9.73h-68.42zm0 28.01h68.42v9.73h-68.42z"/><path class="st18" d="M361.07 376.62h190.84m-190.84 14.54h190.84"/><g id="XMLID_16_"><path class="st30" d="M802.42 474.09c-4.11 3.92-9.74 6.39-12.51 9.48h-26.95c6.06-7.25 21.28-8.29 28.27-11.9 5.59 2.14 11.19 2.42 11.19 2.42z"/><path class="st30" d="M824.48 471.68c-.7 6.34-1.12 10.6-1.12 11.89h-33.45c2.77-3.09 8.4-5.56 12.51-9.48.79-.74 1.52-1.55 2.17-2.42 7.2 2.14 17.1 3.66 19.89.01zm13.13-164.36c-3.23 7.39-6.23 11.81-6.23 11.81-7.82 9.33-10.17 37.02-4.28 34.08 3.46-1.73 9.18-6.34 13.45-12.71-.07.67-.14 1.34-.22 2.03-2.8 23.99-10.28 82.13-14.31 115.93-3.89-2.69-13.32-3.14-18.84-2.61-.02-.98-.05-2.04-.09-3.17-1.49-.12-9.94-.74-14.29.02-3.82-21.81-12.48-62.5-21.45-92.64-10.28-34.55-.06-57.47 5.34-73.05 15.34 5.65 49.1 2.2 54.98 0 1.49 6.77 3.91 13.1 5.92 20.3l.02.01zm-10.79-121.55c-3.16-1.33-5.59-3.94-6.25-9.72-.43-3.82-1.75-7.49-3.58-10.96-6.07-11.45-17.79-20.85-22.31-27.07-6.87 3.18-10.98 13.47-9.44 24.95 1.32 9.84 6.42 17.75 12.56 20.59 1.18 5.3-2.37 7.24-6.86 8.01-3.35.58-7.22.51-10.02.71-4.83.34-7.97 3.1-10.7 7.02 5.47-12.98-6.64-26.11 5.42-38.44 6.97-7.14.37-25.45 12.68-33.84 12.3-8.39 24.42-2.05 34.3 7.08s14.91 13.43 12.67 25.17c-2.23 11.75 12.31 12.49 9.51 32.63-3.98-5.56-12.19-3.68-17.98-6.13z"/><path class="st23" d="M816.99 165.04v.05c-.48 10.32-5.58 18.53-12.83 19.51-2.17.29-4.32-.1-6.36-1.04-6.14-2.84-11.24-10.75-12.56-20.59-1.54-11.48 2.57-21.77 9.44-24.95 4.52 6.22 16.24 15.62 22.31 27.07 1.83 3.47 3.15 7.14 3.58 10.96.66 5.78 3.09 8.39 6.25 9.72 5.79 2.45 14 .57 17.98 6.13 2.8-20.14-11.74-20.88-9.51-32.63 2.24-11.74-2.79-16.04-12.67-25.17s-22-15.47-34.3-7.08c-12.31 8.39-5.71 26.7-12.68 33.84-12.06 12.33.05 25.46-5.42 38.44-.11.27-.23.53-.36.8m67.73 107.21c-2.01-7.2-4.43-13.53-5.92-20.3-.89-4-1.45-8.14-1.41-12.71.19-22.38 6.53-41.95 6.53-41.95 6.33 16.78 8.37 46.61 8.37 46.61-1.09 11.35-4.44 21.24-7.55 28.36-3.23 7.39-6.23 11.81-6.23 11.81 6.9.18 14.73 5.78 14.73 5.78 12.86-19.58 16.78-39.43 13.23-80.44-3.54-41.02-8.76-45.49-14.54-52.57"/><path class="st23" d="M797.8 183.56c1.18 5.3-2.37 7.24-6.86 8.01-3.35.58-7.22.51-10.02.71-4.83.34-7.97 3.1-10.7 7.02-4.97 7.1-8.6 17.99-18.63 25.03-8.1-6.33-27.96-34.86-27.96-34.86-7.46 4.29-11.38 6.9-11.38 6.9 15.29 31.51 38.81 67.67 64.07 28.07 6.34 12.56 6.22 40.16 2.49 55.64-.51 2.13-1.26 4.44-2.12 6.93-5.4 15.58-15.62 38.5-5.34 73.05 8.97 30.14 17.63 70.83 21.45 92.64 1.26 7.19 1.99 12.33 2.04 14.36.05 2-1.35 3.44-3.61 4.61-6.99 3.61-22.21 4.65-28.27 11.9h60.4c0-1.29.42-5.55 1.12-11.89.43-3.75.95-8.22 1.54-13.22 4.03-33.8 11.51-91.94 14.31-115.93.08-.69.15-1.36.22-2.03"/><path class="st23" d="M723.63 189.47c-1.53-12.18-16.05-28.95-19.8-31.95.25 6.01 3.22 9.5 4.75 12.89 3.67 8.14-9.42 13.63 3.67 25.96m119.13 122.76c-7.82 9.33-10.17 37.02-4.28 34.08 3.46-1.73 9.18-6.34 13.45-12.71 2.99-4.46 5.26-9.78 5.56-15.59m-69.43-37.9h.01c15.34 5.65 49.1 2.2 54.98 0m-40.73-95.44c.57 11.45 2.84 33.92 11.91 27.74 9.07-6.19 22.99-25.23 23.97-33.54v-.01"/><path class="st18" d="M789.91 483.57c2.77-3.09 8.4-5.56 12.51-9.48.79-.74 1.52-1.55 2.17-2.42 1.65-2.22 2.73-4.89 2.73-8.25 0-1.33-.05-3.95-.14-7.57-.02-.98-.05-2.04-.09-3.17-.83-30.57-3.85-111-6.15-120.64"/><path class="st18" d="M792.8 452.7c4.35-.76 12.8-.14 14.29-.02.15.01.23.02.23.02m-.14 3.15c5.52-.53 14.95-.08 18.84 2.61h.01m-34.8 13.21c5.59 2.14 11.19 2.42 11.19 2.42m2.17-2.42c7.2 2.14 17.1 3.66 19.89.01l.01-.01"/></g><path d="M751.59 224.33c.62-.43 1.2-.89 1.77-1.35-.95.14-1.89.29-2.84.44.38.34.74.65 1.07.91zm-27.96-34.86c-7.46 4.29-11.37 6.9-11.37 6.9 1.28 2.64 2.62 5.32 4.02 7.98 5.35-.86 10.71-1.83 16.06-2.81-4.93-6.64-8.71-12.07-8.71-12.07z" fill="none"/><g id="XMLID_10_"><path class="st30" d="M151.52 398.19l23.25 85.54H165l-26.73-85.54zm-75.72 0l-26.73 85.54H39.3l23.38-86.01c1.69.31 3.42.47 5.17.47h7.95zm171.44 85.54h-53.75c-9.88 0-8.37-11.28-2.33-24.06h19.74c6.53 15.68 32.99 10.78 36.34 24.06zm-27.68-202.38c0 .67-.16 1.35-.5 1.99l-31.7 59.81h-61.84c-2.47 0-4.47-2-4.47-4.46v-1.87c8.45-1.6 14.02-2.87 14.02-2.87h46.03l30.48-54.68c.98-1.77 3.08-2.6 5.01-1.98 1.84.59 2.97 2.28 2.97 4.06zm-200.05-5.12c1.94-12.27 7.25-23.18 12.61-32.58 6.99 10.81 30.2 12.17 30.2 12.17 2.77 6.9 7.38 14.52 12.11 21.02 5.94 8.17 11.69 21.68 16.23 32.62 2.67 6.44 4.92 11.99 6.53 15.05l-.02.11c-10.02-1.66-20.34-4.12-32.42-4.12 0 0-3.07-9.91-5.07-25.02 0 0-17.35-3.77-29.14 1.89 6.84 31.86 8.02 45.78 36.1 45.78 4.39 0 9.07-.22 13.86-.6 0 0-15.65 8.86-22.95 21.98-16.11-14.34-28.6-36.71-36.05-60.72-3.05-9.82-3.34-19.03-1.99-27.58zM92.2 196.4c-10.38 6.33-27.16 8.37-27.16 16.15-3.69-7.78-12.28-8.19-11.47 0 .82 8.19 6.11 10.92 6.11 10.92s-7.84 4.18-17.21 2.36c1.8-3.47 3.06-6.57 3.39-9.27-1.02-4.8-5.2-10.42-4.82-17.44.66-12.33 7.75-18.7 21.48-20.33 12.22-1.45 27.15 4.9 29.68 17.61z"/><path class="st23" d="M121.05 336.72v1.97c0 2.46 2 4.46 4.47 4.46h61.84c41.69 0 12.99 55.04 23.54 116.52h-19.74c-3.53-44.14-18.27-57.04-10.54-79.01 0 0-9.84.05-23.09.1-20.43.06-48.98.1-62.15-.1-14.01-.21-26.77-6.27-37.83-16.13-16.11-14.34-28.6-36.71-36.05-60.72-3.05-9.82-3.34-19.03-1.99-27.58 1.94-12.27 7.25-23.18 12.61-32.58 3.83-6.73 7.69-12.69 10.35-17.82 1.8-3.47 3.06-6.57 3.39-9.27-1.02-4.8-5.2-10.42-4.82-17.44.66-12.33 7.75-18.7 21.48-20.33 12.22-1.45 27.15 4.9 29.68 17.61.31 1.57.44 3.24.34 5.01-.9 16.84 4.65 23.23 4.65 23.23-6.05.23-8.8.68-8.8.68-6.7 10.18-.96 22.1-14.93 17.7-3.67-1.15-8.16-2.19-12.26-3.8-2.59 3.59-1.65 9.73 1.12 16.6 2.77 6.9 7.38 14.52 12.11 21.02 5.94 8.17 11.69 21.68 16.23 32.62 2.67 6.44 4.92 11.99 6.53 15.05"/><path class="st23" d="M165.53 333.95c-3.83-6.51-8.8-10.36-16.08-11.63-6.09-1.06-13.8-.31-23.82 2.19-10.02 2.51-19.11 1.66-28.46.11-10.02-1.66-20.34-4.12-32.42-4.12 0 0-3.07-9.91-5.07-25.02 0 0-17.35-3.77-29.14 1.89 6.84 31.86 8.02 45.78 36.1 45.78 4.39 0 9.07-.22 13.86-.6 14.46-1.15 29.83-3.7 40.55-5.73 8.45-1.6 14.02-2.87 14.02-2.87h30.46z"/><path class="st23" d="M90.66 309.46c11.3 12.87 47.13 2.96 58.79 12.86l.01.01M32.12 243.65c6.99 10.81 30.2 12.17 30.2 12.17m-42.8 20.41h-7.83c-7.33 0-12.26 7.52-9.34 14.24l39.38 90.59a28.49 28.49 0 0 0 20.95 16.66c1.69.31 3.42.47 5.17.47h88.95c4.82 0 8.73-3.91 8.73-8.73 0-2.42-.98-4.6-2.56-6.18a8.654 8.654 0 0 0-6.17-2.55h-5.58"/><path class="st23" d="M62.68 397.71v.01L39.3 483.73h9.77l26.73-85.54m75.59-.48l.13.48 23.25 85.54H165l-26.73-85.54m52.89 61.48c-6.04 12.78-7.55 24.06 2.33 24.06h53.75c-3.35-13.28-29.81-8.38-36.34-24.06M92.19 196.4c-10.37 6.33-27.15 8.37-27.15 16.15-3.69-7.78-12.28-8.19-11.47 0 .82 8.19 6.11 10.92 6.11 10.92s-7.84 4.18-17.21 2.36m15.08 138.7c7.3-13.12 22.95-21.98 22.95-21.98m85.03-8.6h15.57l30.48-54.68c.98-1.77 3.08-2.6 5.01-1.98 1.84.59 2.97 2.28 2.97 4.06 0 .67-.16 1.35-.5 1.99l-31.7 59.81"/></g><path class="st22" d="M295.21 54.03c0-9.59-7.85-17.35-17.48-17.21-9.18.14-16.71 7.6-16.94 16.78-.11 4.44 1.46 8.5 4.12 11.61 2.15 2.51 3.27 5.74 3.27 9.04v.04h19.62v-.15c0-3.33 1.24-6.51 3.38-9.06 2.51-2.98 4.03-6.84 4.03-11.05zm-27.09 24.8h19.75m-17.2 4.53h14.65"/><path class="st28" d="M280.3 95.82h-4.6c-2.42 0-4.38-1.96-4.38-4.38v-3.55h13.36v3.55c0 2.42-1.96 4.38-4.38 4.38z"/><path class="st22" d="M278 21.35v10.3m13.3-7.47l-4.19 9.41m15.2-1.42l-7.66 6.9m14.46 4.88l-9.8 3.19m11.22 10.34l-10.25-1.08m-54.82 1.08l10.26-1.08m-8.83-12.45l9.8 3.19m-3-14.97l7.66 6.9m3.34-14.89l4.2 9.41M278 21.35v10.3m0 5.18v5.5a4.2 4.2 0 1 1 0 8.4v10.04a4.2 4.2 0 1 0 0 8.4v5.13"/><path class="st22" d="M260.87 55.75h3.7a4.2 4.2 0 1 1 8.4 0h10.04a4.2 4.2 0 1 0 8.4 0h3.7"/><path class="st1" d="M66.61 152.19V92.32c0-19.24 15.6-34.84 34.84-34.84h122.28"/><path class="st28" d="M855.88 42.69V0m21.35 21.35h-42.7M268.89 349.59V306.9m21.34 21.35h-42.69M109.42 144.77v-21.34m10.67 10.67H98.75M589.88 32.02V10.67m10.67 10.68h-21.34m70.37 365.95v-21.35m10.67 10.67h-21.34"/></g></svg>