<svg xmlns="http://www.w3.org/2000/svg" viewBox="0 0 58 58"><style/><g id="Layer_2"><g id="Buttons"><path id="Layer" d="M28.82 56.64C13.44 56.64 1 44.2 1 28.82S13.44 1 28.82 1s27.82 12.44 27.82 27.82S44.2 56.64 28.82 56.64z" fill="none" stroke="#fff" stroke-width="2"/></g></g><g id="black"><g id="github"><path id="Layer" fill-rule="evenodd" d="M24.43 46.52c0-.45-.02-1.64-.03-3.22-5.13 1.14-6.22-2.54-6.22-2.54-.84-2.19-2.05-2.77-2.05-2.77-1.67-1.18.13-1.15.13-1.15 1.85.13 2.83 1.95 2.83 1.95 1.64 2.89 4.32 2.06 5.37 1.57.17-1.22.64-2.05 1.17-2.53-4.1-.47-8.41-2.1-8.41-9.35 0-2.07.72-3.76 1.9-5.08-.19-.48-.82-2.41.18-5.01 0 0 1.55-.51 5.08 1.94 1.47-.42 3.05-.63 4.62-.64 1.57.01 3.15.22 4.62.64 3.53-2.45 5.08-1.94 5.08-1.94 1 2.6.37 4.53.18 5.01 1.18 1.32 1.9 3.01 1.9 5.08 0 7.27-4.32 8.87-8.43 9.34.66.58 1.25 1.74 1.25 3.5 0 2.53-.02 4.58-.02 5.2 0 .5.33 1.09 1.27.91 7.33-2.51 12.61-9.6 12.61-17.96 0-10.46-8.27-18.93-18.46-18.93-10.19 0-18.46 8.47-18.46 18.93 0 8.36 5.29 15.46 12.62 17.96.93.17 1.27-.41 1.27-.91z" fill="#fff"/></g></g></svg>