<svg xmlns="http://www.w3.org/2000/svg" viewBox="0 0 57.64 57.64"><g data-name="Layer 2"><circle cx="28.82" cy="28.82" r="27.82" fill="none" stroke="#fff" stroke-miterlimit="10" stroke-width="2"/><path d="M37.1 14.1H20.54a4.6 4.6 0 0 0-4.6 4.6v20.24a4.61 4.61 0 0 0 4.6 4.61H37.1a4.6 4.6 0 0 0 4.6-4.61V18.7a4.59 4.59 0 0 0-4.6-4.6zm-2.76 2.76h4.6v4.6h-4.6zm-5.52 5.51a6.45 6.45 0 1 1-6.43 6.45 6.44 6.44 0 0 1 6.43-6.45zm11 7.37h-.13a3.52 3.52 0 0 1 .13.92V38a3.67 3.67 0 0 1-3.68 3.68H21.46A3.68 3.68 0 0 1 17.78 38v-7.34a3.52 3.52 0 0 1 .13-.92h-.13v-3.68h1.84v1.43h.05a8.69 8.69 0 0 0-.05.89 9.44 9.44 0 0 0 9.2 9.62A9.44 9.44 0 0 0 38 28.36v-2.3h1.84z" fill="#fff" fill-rule="evenodd" data-name="logo - Instagram"/></g></svg>