<svg xmlns="http://www.w3.org/2000/svg" viewBox="0 0 57.64 57.64"><g data-name="Layer 2"><circle cx="28.82" cy="28.82" r="27.82" fill="none" stroke="#fff" stroke-miterlimit="10" stroke-width="2"/><path d="M43.09 28a14 14 0 0 1-20.78 12.16l-7.75 2.47 2.52-7.46a13.79 13.79 0 0 1-2-7.18 14 14 0 0 1 28 0zm-14-11.68A11.75 11.75 0 0 0 17.3 28a11.6 11.6 0 0 0 2.25 6.86l-1.47 4.34 4.52-1.44a11.72 11.72 0 1 0 6.48-21.44zm7.06 14.88c-.08-.15-.31-.23-.65-.4s-2-1-2.35-1.11-.54-.17-.77.17-.89 1.14-1.09 1.34-.4.25-.74.08a9.28 9.28 0 0 1-2.76-1.69 10 10 0 0 1-1.91-2.36c-.2-.34 0-.52.15-.69s.34-.4.51-.6a2.21 2.21 0 0 0 .34-.57.63.63 0 0 0 0-.6c-.09-.17-.78-1.84-1.06-2.52s-.58-.57-.78-.57h-.65a1.24 1.24 0 0 0-.92.43 3.81 3.81 0 0 0-1.2 2.84 6.64 6.64 0 0 0 1.4 3.52c.17.23 2.38 3.78 5.87 5.14s3.49.91 4.12.85A3.42 3.42 0 0 0 36 32.82a2.75 2.75 0 0 0 .15-1.62z" fill="#fff"/></g></svg>