<svg xmlns="http://www.w3.org/2000/svg" width="139" height="32" viewBox="0 0 139 32">
    <g fill="none" fill-rule="evenodd">
        <path fill="#2B2523" d="M0 31.864L76.739 31.864 76.739 0 0 0z" transform="translate(.722 .116)"/>
        <path fill="#686969" d="M76.738 31.864L137.857 31.864 137.857 0 76.738 0z" transform="translate(.722 .116)"/>
        <path fill="#FFF" d="M52.842 23.374h-3.72V8.5h3.72c4.107 0 7.437 3.33 7.437 7.437 0 4.108-3.33 7.437-7.437 7.437m0-19.123h-7.968v23.372h7.968c6.456 0 11.688-5.23 11.688-11.686 0-6.454-5.232-11.686-11.688-11.686M67.193 27.624L71.442 27.624 71.442 4.261 67.193 4.261zM21.515 12.203c0-4.692-3.803-8.473-8.495-8.473-4.691 0-8.494 3.78-8.494 8.473v15.425h4.247V12.203c0-2.345 1.9-4.225 4.247-4.225 2.344 0 4.247 1.88 4.247 4.225v15.425h4.248V12.203z" transform="translate(.722 .116)"/>
        <path fill="#FFF" d="M16.207 18.084c0-1.76-1.426-3.187-3.185-3.187-1.762 0-3.188 1.427-3.188 3.187 0 1.76 1.426 3.187 3.188 3.187 1.76 0 3.185-1.427 3.185-3.187M84.748 17.758c-1.54 0-2.74-1.297-2.74-2.955 0-1.657 1.2-2.955 2.74-2.955 1.282 0 2.23.727 2.58 1.886h-1.166c-.255-.514-.76-.896-1.414-.896-.93 0-1.662.897-1.662 1.965 0 1.079.732 1.976 1.662 1.976.645 0 1.16-.4 1.414-.916h1.16c-.362 1.152-1.317 1.895-2.574 1.895M90.75 15.57c0-.727-.464-1.232-1.035-1.232-.569 0-1.036.505-1.036 1.232 0 .71.467 1.2 1.036 1.2.571 0 1.035-.49 1.035-1.2m1.085-.009c0 1.257-.951 2.196-2.12 2.196-1.167 0-2.112-.939-2.112-2.196 0-1.256.945-2.212 2.112-2.212 1.169 0 2.12.956 2.12 2.212M98.72 17.66h-1.08v-2.458c0-.237-.081-.798-.79-.798-.474 0-.816.324-.816.798v2.457h-1.078v-2.457c0-.237-.075-.798-.783-.798-.481 0-.816.324-.816.798v2.457h-1.078v-2.432c0-1.068.742-1.878 1.894-1.878.57 0 1.035.23 1.337.597.319-.367.794-.597 1.34-.597 1.177 0 1.87.776 1.87 1.878v2.432zM101.143 17.758c-1.175 0-1.87-.775-1.87-1.876v-2.425h1.079v2.457c0 .237.08.8.79.8.475 0 .817-.335.817-.8v-2.457h1.078v2.425c0 1.068-.751 1.876-1.894 1.876M105.544 13.35c1.176 0 1.871.776 1.871 1.876v2.434h-1.08v-2.458c0-.236-.081-.798-.791-.798-.474 0-.816.326-.816.798v2.458h-1.077v-2.434c0-1.068.75-1.876 1.893-1.876M108.133 17.659h1.076v-4.202h-1.076v4.202zm-.008-4.66v-.604c0-.3.245-.536.546-.536.297 0 .538.236.538.536v.604h-1.084zM111.88 17.758c-1.264 0-2.168-.98-2.168-2.194 0-1.219.904-2.214 2.169-2.214 1.013 0 1.779.572 2.025 1.517h-1.152c-.145-.284-.481-.528-.873-.528-.597 0-1.076.553-1.076 1.231 0 .66.479 1.209 1.076 1.209.4 0 .744-.247.885-.54h1.147c-.245.956-1.012 1.518-2.032 1.518M116.332 14.363c-.597 0-1.077.514-1.077 1.207 0 .668.48 1.183 1.077 1.183.596 0 1.078-.531 1.078-1.183 0-.667-.482-1.207-1.078-1.207zm2.153 3.296h-1.017v-.442c-.318.353-.776.533-1.282.533-1.11 0-2.015-.98-2.015-2.187 0-1.217.89-2.213 2.161-2.213 1.265 0 2.153.996 2.153 2.213v2.096zM120.903 18.084c.36-.138.923.017.923.54 0 .407-.305.651-.75.651-.288 0-.59-.147-.783-.343l.144-.253c.157.147.374.22.58.22.188 0 .342-.088.342-.26 0-.14-.12-.27-.324-.27-.099 0-.198.025-.287.105l-.294-.196.277-.537c-1.1-.149-1.86-1.07-1.86-2.17 0-1.225.907-2.22 2.171-2.22 1.011 0 1.78.572 2.033 1.517h-1.16c-.163-.284-.482-.472-.873-.472-.595 0-1.076.53-1.076 1.174 0 .63.481 1.151 1.076 1.151.4 0 .72-.19.88-.483h1.153c-.235.942-.98 1.503-1.976 1.528l-.196.318zM125.669 14.363c-.594 0-1.078.514-1.078 1.207 0 .668.484 1.183 1.078 1.183.597 0 1.079-.531 1.079-1.183 0-.667-.482-1.207-1.079-1.207zm.66-1.542c-.473 0-.822-.302-1.141-.302-.188 0-.309.098-.366.332h-.507c.073-.488.352-.97.898-.97.474 0 .815.312 1.116.312.189 0 .288-.098.354-.344h.504c-.065.498-.345.972-.858.972zm1.494 4.838h-1.018v-.442c-.32.353-.777.533-1.282.533-1.11 0-2.014-.98-2.014-2.187 0-1.217.888-2.213 2.16-2.213 1.265 0 2.154.996 2.154 2.213v2.096zM131.417 15.57c0-.727-.467-1.232-1.036-1.232-.573 0-1.036.505-1.036 1.232 0 .71.463 1.2 1.036 1.2.569 0 1.036-.49 1.036-1.2m1.084-.009c0 1.257-.952 2.196-2.12 2.196-1.168 0-2.113-.939-2.113-2.196 0-1.256.945-2.212 2.113-2.212 1.168 0 2.12.956 2.12 2.212M84.961 22.471c-.196-.237-.49-.377-.831-.377-.622 0-1.119.49-1.144 1.208l1.975-.83zm1.207 1.647c-.243.857-.987 1.436-2.029 1.436-1.194 0-2.156-.977-2.156-2.194 0-1.215.962-2.213 2.156-2.213 1.009 0 1.858.637 2.062 1.763l-2.971 1.25c.215.286.531.45.9.45.349 0 .71-.156.89-.492h1.148zM91.548 20.797h-1.021v3.659h1.02c1.28 0 1.477-1.155 1.477-1.837 0-.834-.263-1.822-1.476-1.822m0 4.662h-2.1v-5.666h2.1c1.575 0 2.552 1.085 2.552 2.835 0 1.727-1.002 2.831-2.552 2.831M94.692 25.459h1.079v-4.203h-1.079v4.203zm-.008-4.662v-.604c0-.302.245-.539.547-.539.295 0 .54.237.54.539v.604h-1.087zM98.703 22.186c-.687-.123-1.145.244-1.145.838v2.435h-1.076v-2.435c0-1.19.825-2.023 2.221-1.851v1.013zM101.756 22.471c-.196-.237-.488-.377-.833-.377-.62 0-1.117.49-1.142 1.208l1.975-.83zm1.208 1.647c-.243.857-.988 1.436-2.033 1.436-1.19 0-2.154-.977-2.154-2.194 0-1.215.965-2.213 2.154-2.213 1.014 0 1.86.637 2.065 1.763l-2.97 1.25c.213.286.532.45.897.45.352 0 .71-.156.89-.492h1.15zM103.696 25.516h1.078v-4.202h-1.078v4.202zm-.005-4.66v-.603c0-.303.242-.538.544-.538.294 0 .539.235.539.538v.603h-1.083zM107.324 25.508c-1.233.132-1.884-.61-1.884-1.764v-3.497h1.076v1.067h.76v.953h-.76v1.486c0 .587.27.808.808.776v.979zM110.715 23.426c0-.726-.465-1.233-1.035-1.233-.571 0-1.038.507-1.038 1.233 0 .711.467 1.201 1.038 1.201.57 0 1.035-.49 1.035-1.2m1.084-.01c0 1.258-.953 2.198-2.12 2.198-1.168 0-2.114-.94-2.114-2.198 0-1.256.946-2.212 2.115-2.212 1.166 0 2.119.956 2.119 2.212M111.926 24.472c.279.025.52 0 .678-.156.108-.095.21-.292.21-.905 0-.555.058-1.19.549-1.657.35-.341.818-.482 1.419-.433v1.047c-.301-.036-.522.023-.675.179-.1.103-.214.26-.214.864 0 .555-.056 1.248-.537 1.698-.351.335-.833.447-1.43.407v-1.044zM41.685 12.203c0-4.692-3.805-8.473-8.496-8.473-4.69 0-8.493 3.78-8.493 8.473v15.425h4.247V12.203c0-2.345 1.9-4.225 4.246-4.225 2.348 0 4.248 1.88 4.248 4.225v15.425h4.248V12.203z" transform="translate(.722 .116)"/>
    </g>
</svg>
