<svg xmlns="http://www.w3.org/2000/svg" width="81" height="40" viewBox="0 0 81 40">
    <g fill="none" fill-rule="evenodd">
        <path fill="#FFF" d="M0 19.488L3.939 23.426 3.939 15.547z" transform="translate(.017 .876)"/>
        <path fill="#DEDEDE" d="M0 19.488L3.939 23.426 3.939 15.547z" transform="translate(.017 .876)"/>
        <path fill="#FFF" d="M35.037 23.427L23.428 35.034 35.037 35.034zM3.939 3.938L3.939 15.546 15.548 3.938zM3.939 35.034L15.548 35.034 3.939 23.427zM35.037 3.938L23.428 3.938 35.037 15.546zM19.488 38.973L23.427 35.034 15.549 35.034zM19.488 0L15.549 3.938 23.427 3.938zM38.977 19.488L35.038 15.547 35.038 23.426z" transform="translate(.017 .876)"/>
        <path fill="#FFF" d="M19.488 28.553c-5.008 0-9.067-4.058-9.067-9.064 0-5.01 4.06-9.068 9.067-9.068 5.008 0 9.067 4.058 9.067 9.068 0 5.006-4.059 9.064-9.067 9.064zm15.55-13.006L23.427 3.939h-7.879L3.94 15.547v7.88l11.61 11.607h7.878l11.61-11.607v-7.88z" transform="translate(.017 .876)"/>
        <path fill="#FFF" d="M19.488 26.675c-3.97 0-7.187-3.218-7.187-7.187 0-3.972 3.217-7.19 7.187-7.19 3.971 0 7.188 3.218 7.188 7.19 0 3.969-3.217 7.187-7.188 7.187m0-16.254c-5.008 0-9.067 4.058-9.067 9.067 0 5.007 4.06 9.065 9.067 9.065 5.008 0 9.067-4.058 9.067-9.065 0-5.01-4.059-9.067-9.067-9.067" transform="translate(.017 .876)"/>
        <path fill="#FFF" d="M19.488 23.573c-2.258 0-4.087-1.83-4.087-4.085 0-2.257 1.83-4.089 4.087-4.089 2.257 0 4.086 1.832 4.086 4.09 0 2.253-1.829 4.084-4.086 4.084m0-11.275c-3.97 0-7.187 3.217-7.187 7.19 0 3.968 3.217 7.187 7.187 7.187 3.971 0 7.188-3.219 7.188-7.187 0-3.973-3.217-7.19-7.188-7.19" transform="translate(.017 .876)"/>
        <path fill="#FFF" d="M19.488 15.399c-2.258 0-4.087 1.833-4.087 4.089 0 2.254 1.83 4.085 4.087 4.085 2.257 0 4.086-1.831 4.086-4.085 0-2.256-1.829-4.09-4.086-4.09" transform="translate(.017 .876)"/>
        <path fill="silver" d="M35.037 23.427L23.428 35.034 35.037 35.034zM3.939 3.938L3.939 15.546 15.548 3.938zM3.939 35.034L15.548 35.034 3.939 23.427zM35.037 3.938L23.428 3.938 35.037 15.546z" transform="translate(.017 .876)"/>
        <path fill="#DEDEDE" d="M19.488 38.973L23.427 35.034 15.549 35.034zM19.488 0L15.549 3.938 23.427 3.938zM38.977 19.488L35.038 15.547 35.038 23.426z" transform="translate(.017 .876)"/>
        <path fill="#A7A7A7" d="M19.488 28.553c-5.008 0-9.067-4.058-9.067-9.064 0-5.01 4.06-9.068 9.067-9.068 5.008 0 9.067 4.058 9.067 9.068 0 5.006-4.059 9.064-9.067 9.064zm15.55-13.006L23.427 3.939h-7.879L3.94 15.547v7.88l11.61 11.607h7.878l11.61-11.607v-7.88z" transform="translate(.017 .876)"/>
        <path fill="#000" d="M19.488 26.675c-3.97 0-7.187-3.218-7.187-7.187 0-3.972 3.217-7.19 7.187-7.19 3.971 0 7.188 3.218 7.188 7.19 0 3.969-3.217 7.187-7.188 7.187m0-16.254c-5.008 0-9.067 4.058-9.067 9.067 0 5.007 4.06 9.065 9.067 9.065 5.008 0 9.067-4.058 9.067-9.065 0-5.01-4.059-9.067-9.067-9.067" transform="translate(.017 .876)"/>
        <path fill="#484848" d="M19.488 23.573c-2.258 0-4.087-1.83-4.087-4.085 0-2.257 1.83-4.089 4.087-4.089 2.257 0 4.086 1.832 4.086 4.09 0 2.253-1.829 4.084-4.086 4.084m0-11.275c-3.97 0-7.187 3.217-7.187 7.19 0 3.968 3.217 7.187 7.187 7.187 3.971 0 7.188-3.219 7.188-7.187 0-3.973-3.217-7.19-7.188-7.19" transform="translate(.017 .876)"/>
        <path fill="#FFF" d="M19.488 15.399c-2.258 0-4.087 1.833-4.087 4.089 0 2.254 1.83 4.085 4.087 4.085 2.257 0 4.086-1.831 4.086-4.085 0-2.256-1.829-4.09-4.086-4.09" transform="translate(.017 .876)"/>
        <path stroke="#484848" stroke-width=".4" d="M19.488 12.298c-3.97 0-7.187 3.217-7.187 7.19 0 3.968 3.217 7.186 7.187 7.186 3.971 0 7.188-3.218 7.188-7.186 0-3.973-3.217-7.19-7.188-7.19z" transform="translate(.017 .876)"/>
        <path fill="#FFF" d="M45.534 15.434h1.264c.877 0 1.518-.54 1.518-1.345 0-.744-.54-1.335-1.476-1.335h-1.306v2.68zm0-3.414h1.02c.763 0 1.202-.51 1.202-1.172 0-.652-.377-1.122-1.172-1.122h-1.05v2.294zm-.896-2.578c0-.275.142-.49.48-.49h1.578c1.284 0 1.956.908 1.956 1.733 0 .795-.417 1.406-1.008 1.59v.02c.876.093 1.571.836 1.571 1.794 0 1.142-.848 2.119-2.375 2.119h-1.723c-.337 0-.479-.213-.479-.488V9.442zM54.063 13.171c0-.775-.448-1.67-1.437-1.67-1.111-.042-1.508.844-1.538 1.67h2.974zm-2.976.672c0 .928.59 1.652 1.601 1.652 1.191 0 1.498-.733 1.834-.733.163 0 .327.141.327.396 0 .438-1.112 1.112-2.171 1.112-1.733 0-2.485-1.337-2.485-2.773 0-1.468.915-2.772 2.434-2.772 1.476 0 2.331 1.335 2.331 2.64 0 .315-.11.478-.497.478h-3.373zM56.223 11.205c0-.295.173-.48.448-.48s.448.185.448.48v.459h.02c.204-.417.704-.938 1.225-.938.315 0 .499.205.499.458 0 .255-.184.419-.562.49-.53.092-1.182.489-1.182 1.539v2.577c0 .296-.173.48-.448.48s-.448-.184-.448-.48v-4.585zM59.839 11.205c0-.295.174-.48.449-.48.276 0 .447.185.447.48v.214l.023.02c.397-.508.958-.713 1.497-.713.836 0 1.886.53 1.886 2.059v3.005c0 .296-.173.48-.448.48-.276 0-.45-.184-.45-.48v-2.955c0-.947-.662-1.335-1.253-1.335-.591 0-1.255.388-1.255 1.335v2.955c0 .296-.171.48-.447.48-.275 0-.45-.184-.45-.48v-4.585zM67.879 15.496c1.1 0 1.487-1.081 1.487-2 0-.915-.387-1.996-1.487-1.996-1.101 0-1.487 1.08-1.487 1.997 0 .918.386 1.999 1.487 1.999zm2.335.335c0 .317-.246.439-.418.439-.186 0-.42-.122-.42-.44v-.375h-.02c-.386.55-.895.815-1.477.815-1.527 0-2.384-1.336-2.384-2.773 0-1.436.857-2.771 2.384-2.771.623 0 1.06.265 1.478.724h.02v-.286c0-.316.233-.438.419-.438.172 0 .418.122.418.438v4.667zM71.802 11.205c0-.295.174-.48.448-.48.276 0 .449.185.449.48v.459h.02c.204-.417.702-.938 1.224-.938.316 0 .498.205.498.458 0 .255-.182.419-.562.49-.528.092-1.18.489-1.18 1.539v2.577c0 .296-.173.48-.45.48-.273 0-.447-.184-.447-.48v-4.585zM77.57 11.5c-1.104 0-1.488 1.081-1.488 1.997 0 .918.384 1.999 1.487 1.999 1.102 0 1.49-1.081 1.49-1.999 0-.916-.388-1.997-1.49-1.997zm1.395 4.025h-.02c-.255.489-.733.745-1.446.745-1.47 0-2.316-1.336-2.316-2.773 0-1.436.846-2.771 2.316-2.771.713 0 1.212.398 1.446.733h.02V8.82c0-.296.172-.479.45-.479.273 0 .448.183.448.479v6.97c0 .296-.175.48-.449.48-.277 0-.449-.184-.449-.48v-.265zM44.269 19.3c-.06-.158-.09-.257-.09-.356 0-.258.188-.406.398-.406.285 0 .384.14.454.337l1.196 3.638h.02l1.196-3.638c.069-.197.168-.337.455-.337.206 0 .395.148.395.406 0 .1-.03.198-.09.356l-1.512 4.241c-.089.257-.178.376-.454.376-.279 0-.366-.119-.455-.376l-1.513-4.24zM51.397 23.166c1.066 0 1.44-1.048 1.44-1.938 0-.889-.375-1.938-1.44-1.938-1.069 0-1.444 1.049-1.444 1.938 0 .89.375 1.938 1.444 1.938zm2.264.326c0 .306-.239.425-.407.425-.178 0-.405-.119-.405-.425v-.367h-.018c-.378.535-.873.792-1.434.792-1.483 0-2.314-1.295-2.314-2.689 0-1.395.831-2.69 2.314-2.69.602 0 1.026.258 1.434.702h.017v-.276c0-.306.227-.426.407-.426.167 0 .405.12.405.426v4.528zM55.201 19.003c0-.286.168-.465.435-.465.266 0 .434.179.434.465v.208l.021.02c.385-.494.928-.693 1.453-.693.81 0 1.828.516 1.828 1.998v2.916c0 .287-.168.465-.435.465-.268 0-.434-.178-.434-.465v-2.867c0-.92-.642-1.295-1.216-1.295-.573 0-1.217.376-1.217 1.295v2.867c0 .287-.168.465-.434.465-.267 0-.435-.178-.435-.465v-4.45zM63.322 23.047h1.857c.247 0 .426.129.426.405 0 .278-.179.405-.426.405h-2.26c-.329 0-.468-.207-.468-.474v-5.078c0-.287.17-.465.434-.465.27 0 .437.178.437.465v4.742zM70.132 20.911c0-.75-.436-1.62-1.395-1.62-1.076-.04-1.461.82-1.491 1.62h2.886zm-2.886.653c0 .9.573 1.602 1.553 1.602 1.154 0 1.452-.712 1.777-.712.159 0 .318.138.318.384 0 .426-1.078 1.08-2.106 1.08-1.681 0-2.413-1.296-2.413-2.69 0-1.423.89-2.69 2.362-2.69 1.435 0 2.264 1.295 2.264 2.561 0 .306-.107.465-.482.465h-3.273zM75.667 20.911c0-.75-.435-1.62-1.394-1.62-1.077-.04-1.462.82-1.494 1.62h2.888zm-2.888.653c0 .9.574 1.602 1.555 1.602 1.155 0 1.45-.712 1.777-.712.16 0 .316.138.316.384 0 .426-1.076 1.08-2.106 1.08-1.678 0-2.409-1.296-2.409-2.69 0-1.423.889-2.69 2.361-2.69 1.434 0 2.264 1.295 2.264 2.561 0 .306-.11.465-.483.465h-3.275zM77.762 19.003c0-.286.169-.465.436-.465.266 0 .434.179.434.465v.446h.022c.196-.405.679-.911 1.184-.911.307 0 .485.199.485.445 0 .248-.178.406-.543.475-.515.089-1.148.476-1.148 1.493v2.5c0 .288-.168.466-.434.466-.267 0-.436-.178-.436-.465v-4.45zM45.064 29.512c0 .145-.087.235-.22.235-.135 0-.219-.09-.219-.235v-3.114c0-.135.07-.24.234-.24h1.25c.125 0 .214.065.214.205 0 .14-.089.206-.215.206h-1.044v1.163h.924c.126 0 .216.065.216.205 0 .14-.09.205-.216.205h-.924v1.37zM48.954 29.367c.802 0 1.09-.75 1.09-1.43 0-.679-.288-1.429-1.09-1.429-.798 0-1.089.75-1.089 1.43 0 .68.291 1.43 1.09 1.43m0-3.24c1.015 0 1.56.884 1.56 1.81 0 .924-.545 1.81-1.56 1.81-1.015 0-1.559-.886-1.559-1.81 0-.926.544-1.81 1.558-1.81M51.832 26.363c0-.145.084-.235.219-.235s.22.09.22.235v2.114c0 .56.379.89.94.89.559 0 .938-.33.938-.89v-2.114c0-.145.086-.235.221-.235.136 0 .22.09.22.235v1.944c0 1.2-.77 1.44-1.379 1.44-.61 0-1.379-.24-1.379-1.44v-1.944zM56.481 29.512c0 .145-.085.235-.22.235s-.219-.09-.219-.235v-3.124c0-.175.06-.26.2-.26.13 0 .19.055.31.23l1.798 2.584h.01v-2.579c0-.144.085-.235.221-.235.134 0 .218.091.218.235v3.124c0 .174-.059.26-.199.26-.13 0-.189-.055-.31-.23l-1.799-2.584h-.01v2.58zM60.717 29.337h.63c.83 0 1.14-.694 1.14-1.42 0-.729-.33-1.38-1.17-1.38h-.6v2.8zm-.44-2.939c0-.135.07-.24.235-.24h.866c1.059 0 1.579.82 1.579 1.76 0 1.064-.565 1.798-1.52 1.798h-.925c-.165 0-.234-.105-.234-.239v-3.079zM65.519 26.638h-.012l-.684 1.924h1.38l-.684-1.924zm-1.062 2.943c-.034.097-.093.166-.212.166s-.213-.069-.213-.186c0-.059.047-.175.06-.219l1.106-2.944c.053-.155.144-.27.315-.27.168 0 .26.115.314.27l1.106 2.944c.013.044.058.16.058.22 0 .116-.094.185-.209.185-.121 0-.18-.069-.215-.166l-.23-.639h-1.65l-.23.64zM68.434 26.569h-.665c-.125 0-.216-.066-.216-.206 0-.14.09-.205.216-.205h1.769c.125 0 .214.065.214.205 0 .14-.09.206-.214.206h-.665v2.943c0 .145-.085.235-.22.235-.133 0-.22-.09-.22-.235v-2.943zM71.365 29.512c0 .145-.086.235-.22.235s-.22-.09-.22-.235v-3.149c0-.144.086-.235.22-.235s.22.091.22.235v3.15zM74.24 29.367c.8 0 1.091-.75 1.091-1.43 0-.679-.292-1.429-1.09-1.429-.8 0-1.092.75-1.092 1.43 0 .68.291 1.43 1.091 1.43m0-3.24c1.015 0 1.56.884 1.56 1.81 0 .924-.545 1.81-1.56 1.81-1.014 0-1.56-.886-1.56-1.81 0-.926.546-1.81 1.56-1.81M77.557 29.512c0 .145-.086.235-.22.235s-.22-.09-.22-.235v-3.124c0-.175.06-.26.202-.26.128 0 .188.055.308.23l1.798 2.584h.01v-2.579c0-.144.086-.235.22-.235.135 0 .223.091.223.235v3.124c0 .174-.063.26-.2.26-.132 0-.192-.055-.31-.23l-1.801-2.584h-.01v2.58z" transform="translate(.017 .876)"/>
    </g>
</svg>
