<svg xmlns="http://www.w3.org/2000/svg" width="167" height="48" viewBox="0 0 167 48">
    <g fill="none" fill-rule="evenodd">
        <path fill="#FFF" d="M71.363 27.78v7.136c1.377 0 2.756-.03 3.97-.03 3.543 0 4.264-2.036 4.264-3.539 0-1.474-.951-3.568-4.462-3.568h-3.772zm0-2.418h3.445c3.083 0 3.772-1.65 3.772-3.037 0-1.444-.623-3.036-3.707-3.036-.92 0-2.461 0-3.51-.03v6.103zm3.575-8.462c4.823 0 7.153 2.005 7.153 5.337 0 1.857-1.248 3.48-3.083 4.128 2.229.59 4.166 2.623 4.166 5.16 0 3.273-2.363 5.75-7.808 5.75-2.658 0-4.79-.06-7.251-.09l-.197-.206V17.195l.197-.206c2.395-.03 4.658-.089 6.823-.089zM89.236 26.542c1.279-.03 2.723-.06 3.642-.06 3.214 0 4.003-1.827 4.003-3.538 0-1.798-.79-3.567-4.003-3.567-.953 0-2.527 0-3.642-.029v7.194zm7.053 1.769c1.083.354 1.87 1.356 2.33 2.506l1.443 3.45c.328.796.722 1.591 1.476 2.123-.458.618-1.476.972-2.362.972-1.312 0-1.771-.648-2.295-1.917l-1.642-3.979c-.557-1.357-1.28-2.418-3.314-2.418h-2.69v8.108c-.523.088-1.181.118-1.737.118-.527 0-1.214-.03-1.707-.118V17.195l.197-.206c2.46-.03 4.823-.089 7.053-.089 4.56 0 7.447 2.123 7.447 6.044 0 2.713-1.805 4.689-4.2 5.367zM109.276 29.727c.525 0 1.411-.03 1.673-.03h3.28c.23 0 1.115.03 1.642.03l-1.51-4.275c-.59-1.71-1.279-3.775-1.739-5.337h-.163c-.329 1.326-.919 3.184-1.281 4.275l-1.902 5.337zm-.886 2.535l-1.739 4.924c-.426.089-.983.118-1.509.118-.624 0-1.246-.09-1.706-.206l-.098-.148 7.415-19.931c.524-.088 1.443-.118 2.001-.118.557 0 1.475.03 1.968.118l7.349 19.93c-.492.296-1.28.414-2.034.414-1.083 0-1.641-.355-2.067-1.651l-1.214-3.45c-.557 0-1.707.029-1.969.029h-4.494c-.263 0-1.345-.03-1.903-.03zM125.184 32.91c1.902 1.12 4.33 2.006 6.594 2.006 2.657 0 4.166-1.15 4.2-2.773 0-1.385-1.084-2.447-2.986-3.183l-3.87-1.504c-2.757-1.062-4.497-2.595-4.497-5.1 0-3.216 3.018-5.72 7.415-5.72 2.723 0 5.248.765 6.956 1.532-.034.885-.558 1.857-1.28 2.448-1.706-.768-3.937-1.387-5.61-1.387-2.428 0-3.937 1.21-3.937 2.773 0 1.297 1.116 2.033 2.723 2.653l3.806 1.474c2.821 1.061 4.921 2.86 4.921 5.484 0 3.391-2.625 5.926-8.039 5.926-2.723 0-5.675-.825-7.873-2.21.098-.915.754-1.889 1.477-2.419M143.695 17.019c.492-.088 1.214-.118 1.738-.118.527 0 1.214.03 1.74.118v20.138c-.526.088-1.213.118-1.74.118-.524 0-1.246-.03-1.738-.118V17.019zM165.81 34.443c0 .324-.033.855-.099 1.238-.196 1.003-1.017 1.504-2.263 1.504h-8.563c-1.18 0-2.034-.678-2.034-1.946V17.077l.23-.177h1.312c1.443 0 1.97.62 1.97 2.005v15.656c1.015-.089 2.032-.118 2.918-.118h6.53zM69.909 8.735c.49-.016 1.025-.03 1.248-.03 1.322 0 1.589-1.085 1.589-1.872 0-.802-.267-1.872-1.59-1.872-.37 0-.801 0-1.247-.016v3.79zm1.366 1.515h-1.366v3.373c-.312.06-.713.073-.995.073-.268 0-.684-.014-.996-.073V3.55l.104-.088c1.189-.03 2.184-.06 3.253-.06 2.05 0 3.522 1.114 3.522 3.432 0 2.244-1.471 3.417-3.522 3.417zM77.665 9.745c.208 0 .52-.015.668-.015h1.278c.133 0 .415.015.624.015l-.446-1.516c-.252-.846-.58-1.99-.803-2.88h-.09c-.147.755-.46 1.826-.652 2.51l-.58 1.886zm-.491 1.574l-.697 2.32c-.253.057-.55.073-.863.073-.311 0-.713-.045-.951-.134l-.073-.104 3.312-10c.327-.043.818-.073 1.159-.073.312 0 .833.03 1.145.09l3.253 9.998c-.282.163-.758.253-1.145.253-.637 0-.95-.224-1.188-1.07l-.416-1.353c-.222 0-.58.016-.728.016h-2.08c-.148 0-.49 0-.728-.016zM85.524 6.225c0-.402.015-.685.015-1.1h-.015c-.208 0-.684.014-.893.014h-1.648c-.06-.296-.075-.594-.075-.831 0-.223.015-.535.075-.833h7.103c.058.209.102.52.102.773 0 .654-.341.89-1.069.89h-.698c-.209 0-.684-.013-.892-.013h-.014c0 .415.014.698.014 1.1v7.398c-.342.06-.713.074-1.01.074-.283 0-.654-.014-.995-.074V6.225zM93.442 8.185c.521-.03 1.085-.044 1.367-.044 1.293 0 1.589-.787 1.589-1.604 0-.832-.296-1.605-1.589-1.605-.357 0-.906 0-1.367-.016v3.269zm3.149 1.07c.536.194.892.699 1.1 1.307l.55 1.5c.148.417.372.818.698 1.086-.253.356-.802.595-1.322.595-.728 0-.981-.402-1.263-1.175l-.625-1.768c-.222-.594-.519-1.07-1.381-1.07h-.906v3.893c-.327.06-.714.074-.996.074-.252 0-.669-.014-.981-.074V3.55l.105-.09c1.188-.03 2.317-.058 3.388-.058 2.064 0 3.491 1.024 3.491 3.135 0 1.41-.892 2.377-1.858 2.718zM100.544 3.475c.298-.06.729-.073.995-.073.282 0 .669.014.995.073v10.148c-.326.06-.713.074-.995.074-.266 0-.697-.014-.995-.074V3.475zM107.095 9.745c.208 0 .52-.015.67-.015h1.276c.134 0 .416.015.624.015l-.446-1.516c-.252-.846-.579-1.99-.802-2.88h-.089c-.149.755-.46 1.826-.653 2.51l-.58 1.886zm-.49 1.574l-.698 2.32c-.253.057-.55.073-.863.073-.31 0-.713-.045-.95-.134l-.074-.104 3.312-10c.327-.043.818-.073 1.16-.073.312 0 .832.03 1.143.09l3.254 9.998c-.282.163-.758.253-1.144.253-.638 0-.95-.224-1.188-1.07l-.416-1.353c-.223 0-.58.016-.729.016h-2.08c-.148 0-.49 0-.727-.016zM119.65 9.745c.208 0 .52-.015.668-.015h1.278c.133 0 .415.015.624.015l-.446-1.516c-.252-.846-.58-1.99-.802-2.88h-.09c-.148.755-.46 1.826-.653 2.51l-.579 1.886zm-.491 1.574l-.697 2.32c-.253.057-.55.073-.863.073-.311 0-.713-.045-.951-.134l-.073-.104 3.312-10c.327-.043.818-.073 1.159-.073.312 0 .833.03 1.145.09l3.253 9.998c-.282.163-.758.253-1.145.253-.637 0-.95-.224-1.188-1.07l-.415-1.353c-.223 0-.58.016-.729.016h-2.08c-.148 0-.49 0-.728-.016zM127.39 3.49c.43-.074.995-.104 1.336-.104.357 0 .847.03 1.264.104l1.143 4.116c.105.415.476 1.946.565 2.54h.104c.09-.594.46-2.125.565-2.54l1.128-4.116c.447-.074.922-.104 1.263-.104.357 0 .906.03 1.353.104l.787 10.104c-.282.073-.684.102-1.01.102-.312 0-.595-.014-.877-.059l-.282-4.769c-.06-.92-.118-2.288-.118-3.224h-.105l-1.739 6.463c-.296.045-.742.074-1.024.074-.268 0-.713-.029-1.01-.074l-1.739-6.463h-.104c-.016.936-.06 2.303-.119 3.224l-.282 4.77c-.283.044-.579.058-.892.058-.312 0-.713-.029-.995-.102l.787-10.104zM141.133 9.745c.208 0 .52-.015.668-.015h1.278c.133 0 .415.015.624.015l-.446-1.516c-.252-.846-.58-1.99-.803-2.88h-.089c-.148.755-.46 1.826-.653 2.51l-.579 1.886zm-.49 1.574l-.698 2.32c-.253.057-.55.073-.863.073-.31 0-.713-.045-.95-.134l-.074-.104 3.312-10c.327-.043.818-.073 1.16-.073.311 0 .832.03 1.144.09l3.253 9.998c-.282.163-.758.253-1.145.253-.637 0-.95-.224-1.188-1.07l-.415-1.353c-.223 0-.58.016-.729.016h-2.08c-.148 0-.49 0-.728-.016zM151.978 4.976c-.564 0-1.025 0-1.62-.015v7.176c.595-.014 1.056-.014 1.62-.014 1.946 0 2.23-1.947 2.23-3.581s-.284-3.566-2.23-3.566m2.66 7.979c-.654.535-1.858.742-2.66.742-1.248 0-2.214-.03-3.506-.06l-.104-.088v-10l.104-.088c1.277-.045 2.258-.06 3.506-.06.802 0 2.006.209 2.66.743 1.365 1.1 1.618 2.675 1.618 4.398 0 1.738-.237 3.313-1.619 4.413M160.015 9.745c.21 0 .521-.015.67-.015h1.276c.134 0 .416.015.624.015l-.445-1.516c-.252-.846-.58-1.99-.803-2.88h-.089c-.148.755-.46 1.826-.653 2.51l-.58 1.886zm-.49 1.574l-.698 2.32c-.253.057-.55.073-.862.073-.31 0-.713-.045-.95-.134l-.074-.104 3.312-10c.326-.043.818-.073 1.16-.073.311 0 .831.03 1.142.09l3.255 9.998c-.282.163-.758.253-1.145.253-.637 0-.95-.224-1.188-1.07l-.416-1.353c-.223 0-.579.016-.728.016h-2.08c-.148 0-.49 0-.728-.016zM80.824 0c.294.154.695.619.799 1.062l-2.461 1.462c-.248-.09-.475-.42-.55-.666L80.825 0zM70.373 43.332l1.135-.007c.51 0 .764.24.764.722v1.9c-.621.197-1.273.295-1.957.295-.346 0-.653-.057-.921-.173-.266-.115-.491-.282-.67-.498-.181-.217-.317-.483-.41-.799-.09-.314-.136-.672-.136-1.072 0-.437.064-.819.19-1.144.129-.326.3-.596.514-.813.215-.217.46-.379.74-.487.279-.109.57-.162.874-.162.626 0 1.214.173 1.762.52-.004.076-.023.155-.054.234-.031.08-.07.156-.115.231-.046.074-.1.143-.16.202-.06.061-.121.113-.184.155-.4-.259-.804-.389-1.213-.389-.785 0-1.177.55-1.177 1.646 0 1.093.402 1.64 1.206 1.64.11 0 .218-.005.322-.015.103-.009.205-.024.306-.044v-.483c0-.11 0-.207.004-.289.002-.082.006-.15.01-.209h-.36c-.207 0-.351-.04-.43-.119-.08-.08-.12-.204-.12-.372 0-.145.027-.302.08-.47M76.736 44.791c.13.376.392.563.786.563.198 0 .359-.049.48-.148.124-.099.22-.224.29-.375.07-.152.116-.322.14-.51.025-.187.036-.373.036-.555 0-.169-.005-.357-.017-.564-.013-.207-.047-.4-.105-.58-.058-.182-.15-.333-.274-.456-.126-.123-.31-.185-.55-.185-.23 0-.407.06-.53.177-.123.118-.214.264-.275.438-.06.173-.097.357-.112.552-.015.195-.021.367-.021.516 0 .222.01.42.032.592.022.174.06.351.12.535m-.586.996c-.515-.429-.772-1.134-.772-2.115 0-.424.049-.796.148-1.116.099-.32.24-.589.426-.805.185-.217.41-.38.675-.49.265-.113.563-.167.895-.167.333 0 .633.054.9.166.267.11.493.275.678.494.186.22.328.49.427.808.099.321.147.691.147 1.11 0 .42-.048.788-.147 1.108-.1.321-.241.59-.427.805-.185.217-.411.381-.678.491-.267.111-.567.166-.9.166-.548 0-1.006-.15-1.372-.455M84.629 45.167l.945-3.965c.117-.029.266-.044.448-.044.251 0 .448.027.593.079l.043.059-1.35 4.838c-.276.029-.55.044-.828.044-.276 0-.477-.035-.599-.106-.123-.069-.216-.208-.278-.415l-1.2-4.354c.261-.111.475-.166.643-.166.203 0 .352.046.448.137.097.091.171.236.225.433l.556 2.059c.085.322.177.76.274 1.314.01.058.036.087.08.087M90.882 44.676l-.007.52v.006c.221-.008.398-.014.532-.014h1.67c0 .178-.007.316-.02.412-.059.37-.305.556-.738.556H90.4c-.208 0-.37-.06-.489-.18-.118-.121-.176-.284-.176-.491v-4.233l.05-.05h3.113c.03.14.044.29.044.454 0 .165-.035.335-.102.513h-1.964l.007.52v.506c.125-.004.287-.007.49-.007h1.1c.042.134.063.289.063.462 0 .173-.02.332-.064.476h-1.589v.55zM97.504 42.018v1.423c.218 0 .402-.004.556-.011.154-.007.278-.036.373-.087.092-.051.164-.122.213-.215.047-.091.073-.224.073-.398 0-.47-.227-.704-.68-.704h-.3c-.089 0-.168-.003-.235-.008m2.391.708c0 .159-.024.31-.072.45-.048.144-.112.27-.191.384-.08.113-.175.212-.282.296-.108.084-.22.148-.335.19.25.093.434.315.555.665l.217.615c.081.24.201.419.361.534-.072.096-.18.178-.325.242-.144.065-.303.098-.476.098-.174 0-.31-.05-.405-.15-.096-.097-.185-.27-.267-.515l-.26-.758c-.053-.145-.125-.255-.214-.332-.09-.077-.221-.116-.4-.116h-.297v1.805c-.154.03-.347.044-.577.044-.232 0-.422-.014-.57-.044v-4.896l.05-.05 1.058-.023c.286-.003.511-.006.675-.006.264 0 .507.032.722.097.217.066.401.162.553.293.151.13.27.293.353.49.085.198.127.427.127.687M107.16 41.151l.05.051v4.91c-.192.044-.42.065-.682.065-.263 0-.495-.014-.697-.044l-1.134-2.585c-.135-.293-.271-.632-.411-1.018l-.022.008c.058.702.086 1.423.086 2.16v1.435c-.148.03-.33.044-.541.044-.212 0-.39-.014-.534-.044v-4.91c.183-.044.404-.065.66-.065.258 0 .488.014.69.044l1.12 2.577c.202.476.352.843.447 1.1l.03-.016c-.06-.669-.087-1.379-.087-2.13v-.882c0-.25.05-.429.15-.538.103-.108.266-.162.492-.162h.383zM111.847 44.791c.13.376.392.563.786.563.198 0 .36-.049.481-.148.123-.099.22-.224.29-.375.07-.152.115-.322.14-.51.024-.187.035-.373.035-.555 0-.169-.005-.357-.017-.564-.013-.207-.047-.4-.105-.58-.058-.182-.149-.333-.274-.456-.126-.123-.309-.185-.55-.185-.23 0-.407.06-.53.177-.123.118-.214.264-.275.438-.06.173-.097.357-.112.552-.015.195-.02.367-.02.516 0 .222.01.42.031.592.022.174.061.351.12.535m-.586.996c-.515-.429-.772-1.134-.772-2.115 0-.424.05-.796.148-1.116.1-.32.24-.589.426-.805.185-.217.41-.38.675-.49.265-.113.563-.167.895-.167.333 0 .633.054.9.166.267.11.493.275.678.494.186.22.328.49.427.808.1.321.147.691.147 1.11 0 .42-.048.788-.147 1.108-.099.321-.24.59-.427.805-.185.217-.41.381-.678.491-.267.111-.567.166-.9.166-.548 0-1.006-.15-1.372-.455M123.278 42.184l.008.563v.456h1.553c.038.144.057.3.057.472s-.02.329-.057.474h-1.553v1.985c-.154.029-.345.044-.574.044-.23 0-.421-.015-.575-.044v-4.888l.05-.043h3.092c.029.12.043.27.043.45s-.05.314-.148.4c-.1.088-.255.13-.467.13h-1.43zM129.619 44.676l-.007.52v.006c.22-.008.399-.014.532-.014h1.67c0 .178-.007.316-.021.412-.058.37-.304.556-.737.556h-1.92c-.207 0-.371-.06-.488-.18-.118-.121-.177-.284-.177-.491v-4.233l.05-.05h3.113c.029.14.044.29.044.454 0 .165-.035.335-.102.513h-1.964l.007.52v.506c.125-.004.288-.007.489-.007h1.1c.043.134.065.289.065.462 0 .173-.022.332-.065.476h-1.59v.55zM136.956 45.275c.636 0 .954-.535.954-1.603 0-1.073-.318-1.61-.954-1.61h-.408c-.117 0-.22-.003-.307-.008v3.228c.087-.004.19-.007.307-.007h.408zm1.329.541c-.154.125-.356.217-.606.274-.251.058-.528.087-.831.087-.15 0-.365-.002-.646-.007-.282-.005-.635-.012-1.058-.022l-.05-.05v-4.86l.05-.05c.279-.01.569-.018.87-.023.3-.004.618-.007.95-.007.409 0 .75.066 1.025.195.275.13.493.308.657.535.164.227.28.492.347.797.067.306.1.636.1.986 0 .483-.055.898-.165 1.25-.111.352-.326.65-.643.895zM143.528 44.676l-.008.52v.006c.22-.008.399-.014.533-.014h1.67c0 .178-.007.316-.021.412-.058.37-.304.556-.737.556h-1.921c-.207 0-.37-.06-.488-.18-.118-.121-.176-.284-.176-.491v-4.233l.05-.05h3.113c.029.14.043.29.043.454 0 .165-.034.335-.101.513h-1.965l.008.52v.506c.124-.004.287-.007.488-.007h1.1c.044.134.065.289.065.462 0 .173-.021.332-.064.476h-1.59v.55zM150.15 42.018v1.423c.217 0 .402-.004.556-.011.154-.007.278-.036.372-.087.093-.051.165-.122.213-.215.047-.091.072-.224.072-.398 0-.47-.227-.704-.679-.704h-.3c-.088 0-.167-.003-.234-.008m2.391.708c0 .159-.025.31-.073.45-.048.144-.112.27-.191.384-.08.113-.174.212-.282.296-.109.084-.22.148-.336.19.251.093.436.315.556.665l.217.615c.081.24.202.419.361.534-.072.096-.18.178-.325.242-.144.065-.303.098-.477.098-.173 0-.308-.05-.404-.15-.096-.097-.185-.27-.267-.515l-.26-.758c-.054-.145-.124-.255-.214-.332-.089-.077-.222-.116-.4-.116h-.296v1.805c-.154.03-.347.044-.578.044-.231 0-.421-.014-.57-.044v-4.896l.05-.05 1.058-.023c.286-.003.512-.006.676-.006.264 0 .505.032.721.097.217.066.402.162.553.293.152.13.27.293.354.49.084.198.127.427.127.687M157.097 44.191l.288-.008h.527l.127.005.134.003-.123-.447c-.115-.404-.248-.9-.397-1.489h-.043c-.039.207-.155.667-.347 1.38l-.166.556zm.021.91c-.129 0-.226-.002-.289-.007l-.31 1.047c-.115.03-.276.044-.484.044-.23 0-.418-.027-.563-.08l-.036-.057 1.59-4.846c.186-.03.405-.044.656-.044.283 0 .51.017.68.051l1.558 4.852c-.169.093-.358.139-.57.139-.25 0-.426-.044-.527-.13-.1-.087-.188-.254-.26-.498l-.138-.478c-.062.005-.156.008-.28.008h-1.027zM164.827 45.16h1.254c0 .191-.013.356-.036.493-.025.138-.102.256-.232.355-.13.098-.3.148-.512.148h-1.632c-.207 0-.371-.06-.491-.18-.121-.122-.181-.285-.181-.492v-4.282l.05-.05h.424c.45 0 .674.244.674.736v3.3c.213-.019.44-.029.682-.029" transform="translate(.674 .307)"/>
        <path fill="#231F20" d="M0.546 47.559L63.447 47.559 63.447 2.233 0.546 2.233z" transform="translate(.674 .307)"/>
        <path fill="#FFF" d="M1.6 46.188L62.038 46.188 62.038 3.41 1.6 3.41z" transform="translate(.674 .307)"/>
        <path fill="#FFF" d="M1.6 3.402L1.6 26.663 25.651 7.256 62.038 23.305 62.038 3.402z" transform="translate(.674 .307)"/>
        <path fill="#FFF" d="M1.6 43.954c-.112 0-.225-.023-.33-.07-.286-.13-.47-.416-.47-.73v-16.49c0-.243.11-.472.298-.623L25.15 6.634c.144-.118.322-.178.502-.178.11 0 .22.022.323.068l36.388 16.05c.35.154.541.534.457.907-.082.367-.407.624-.78.624h-.023c-.874-.024-1.74-.037-2.599-.037-5.57 0-11.186.516-16.694 1.532-.049.008-.098.012-.145.012-.172 0-.342-.055-.482-.16-3.753-2.826-8.226-4.32-12.937-4.32-10.63 0-19.57 7.605-21.256 18.084-.036.22-.16.416-.348.54-3.494 2.32-5.41 3.984-5.429 4.001-.148.13-.337.197-.526.197" transform="translate(.674 .307)"/>
        <path fill="#231F20" d="M25.652 5.656c-.359 0-.716.121-1.005.354L.595 25.418c-.376.303-.595.76-.595 1.245v16.491c0 .628.367 1.197.938 1.457.212.096.438.143.661.143.381 0 .756-.135 1.054-.395.018-.015 1.904-1.652 5.345-3.938.372-.247.624-.638.694-1.078 1.624-10.089 10.231-17.412 20.467-17.412 4.535 0 8.843 1.438 12.456 4.16.279.21.618.321.963.321.096 0 .193-.009.29-.027 5.46-1.006 11.027-1.516 16.548-1.516.854 0 1.721.012 2.577.036l.046.001c.746 0 1.395-.517 1.56-1.248.168-.746-.216-1.507-.915-1.816L26.297 5.792c-.208-.09-.427-.136-.645-.136m-.001 1.6l36.388 16.05c-.883-.025-1.756-.038-2.623-.038-5.99 0-11.619.582-16.838 1.544-3.737-2.813-8.383-4.48-13.419-4.48-11.117 0-20.335 8.123-22.046 18.757C3.524 41.472 1.6 43.154 1.6 43.154v-16.49L25.651 7.255" transform="translate(.674 .307)"/>
        <path fill="#231F20" d="M42.587 24.813c-16.48 3.032-28.865 9.86-35.523 14.276-3.594 2.383-5.521 4.066-5.521 4.066v3.038s1.771-1.475 5.234-3.514c7.026-4.136 21.02-10.589 41.39-11.769 4.35-.252 8.989-.264 13.913.04v-7.645c-6.986-.197-13.51.405-19.493 1.508" transform="translate(.674 .307)"/>
    </g>
</svg>
