<svg xmlns="http://www.w3.org/2000/svg" width="166" height="33" viewBox="0 0 166 33">
    <g fill="#FFF" fill-rule="evenodd">
        <path d="M0 7.819L32.273 7.819 32.273 0 0 0zM56.949 23.714L66.909 23.714 67.701 20.929 61.639 20.929 62.175 19.066 67.102 19.066 67.894 16.281 62.968 16.281 63.46 14.568 69.265 14.568 70.057 11.805 60.334 11.805zM53.051 15.832c-.279.963-.964 1.35-1.778 1.392l-1.799-.005.731-2.65h1.071v-.002h.04c.835 0 2.035.152 1.735 1.264m-.214-4.025H47.1l-3.406 11.909h3.92l1.05-3.706h1.97c.214 0 .43 0 .643-.021v-.002c3.04-.192 4.817-1.756 5.502-4.176.685-2.442-.514-4.005-3.94-4.005M12.668 15.02c0-.564-.484-.908-1.018-.908H8.96l-.623 2.205h2.88c.843 0 1.451-.533 1.451-1.296M6.943 21.18h2.584c1.457 0 1.687-.747 1.823-.988.108-.192.18-.748.024-1.01-.157-.267-.223-.575-1.36-.575H7.686c-.002.003-.744 2.572-.744 2.572M25.991 15.18c0-.234-.048-1.054-1.253-1.054h-2.542c-.014.066-.738 2.668-.738 2.668h2.591c1.463 0 1.942-1.07 1.942-1.615" transform="translate(.325 .292)"/>
        <path d="M28.752 13.613c.412 1.103.099 2.213-.317 2.91-.361.606-1.264 1.549-2.304 1.83.542 0 1.177.433 1.22 1.392.013.273.159 4.006.159 4.006h-3.245l-.115-3.326c-.036-.388.097-1.291-1.355-1.291h-1.996l-1.277 4.522h-3.495l3.453-11.927h-7.519c1.029.02 2.434.268 3.16 1.154.88 1.07.606 2.404.252 3.139-.069.143-.623 1.113-1.577 1.556.084.024.853.515 1.115 1.328.372 1.148-.072 2.799-.899 3.493-.619.52-1.151 1.233-4.203 1.233H2.765l3.441-11.903H0v20.449h32.273v-20.45h-6.702c1.075.025 2.59.3 3.181 1.885M106.34 17.695c-.428 1.563-1.199 2.807-2.356 3.256-.3.107-.62.172-.964.172-1.864 0-1.799-1.907-1.349-3.428.343-1.221 1.092-2.634 2.313-3.127.278-.106.58-.171.921-.171 1.735-.043 1.906 1.67 1.435 3.298m-.578-6.211c-.6 0-1.199.065-1.778.193-2.934.642-5.333 2.848-6.233 5.976-1.135 4.069.707 6.382 4.435 6.382.62 0 1.22-.064 1.798-.193 2.827-.641 5.312-2.784 6.275-6.147.901-3.148-.235-6.211-4.497-6.211M83.016 13.369L83.466 11.806 83.016 11.806 72.521 11.806 71.643 14.932 75.156 14.932 72.649 23.715 76.548 23.715 79.054 14.932 82.566 14.932zM134.592 15.81c-.214.75-.836 1.07-1.842 1.136h-1.886l.686-2.378H133.37c.9 0 1.457.407 1.222 1.243m3.705-.386c.043-.086.065-.15.086-.235.257-.9.257-1.63-.086-2.164-.514-.835-1.82-1.221-4.241-1.221h-5.632l-3.385 11.909h3.898l1.199-4.155h1.179c.728 0 1.178.086 1.435.278.407.3.342.857.064 1.799-.022.086-.043.15-.064.214-.257.942-.343 1.628-.321 1.864H136.39l.086-.364c-.45 0-.258-.515.193-2.077.685-2.4 0-2.7-1.114-3.171 1.413-.364 2.334-1.413 2.74-2.677M165.242 15.253c.3-2.077-.728-3.77-4.026-3.77-3 0-5.548 1.264-6.255 3.813-1.306 4.541 5.91 3.3 5.397 5.12-.15.556-.9.877-1.863.877-.385 0-.771-.106-1.028-.3-.278-.214-.43-.513-.386-.942h-3.748c-.514 2.142 1.007 3.983 4.156 3.983 3.276 0 5.975-1.348 6.747-4.112 1.242-4.326-5.934-3.233-5.42-5.012.107-.428.557-.685 1.436-.685.364 0 .706.064.942.215.236.15.385.407.32.813h3.728zM145.472 19.665h-1.22l1.22-2.184 1.2-2.099.042 4.283h-1.242zm.257-7.86l-.257.385-7.176 11.16-.235.364h3.835l.9-1.565H146.692v1.565h3.898l-.878-11.909h-3.984zM92.097 15.81c-.214.75-.835 1.07-1.842 1.136H88.37l.685-2.378h1.821c.9 0 1.456.407 1.221 1.243m-.536-4.006H85.95L83.015 22.15l-.449 1.564H86.486l1.156-4.155h1.178c.73 0 1.178.086 1.435.278.407.3.342.857.064 1.799-.02.086-.042.15-.064.214-.235.942-.343 1.628-.322 1.864h3.963l.107-.364c-.47 0-.279-.515.172-2.077.685-2.4 0-2.7-1.114-3.171 1.5-.385 2.42-1.542 2.827-2.912.643-2.314-.342-3.385-4.327-3.385M120.562 15.532c-.192.686-.856 1.028-1.648 1.028h-1.607l.557-1.992H119.234c.836 0 1.585.023 1.328.964m-.792 4.306c-.235.856-.942 1.07-1.82 1.09H116.063l.622-2.183h1.263c1.221 0 2.121.064 1.821 1.093m.686-8.033h-5.719l-3.384 11.91h5.825c.258 0 .514 0 .771-.022 2.7-.15 4.692-1.114 5.377-3.556.363-1.306 0-2.42-1.2-2.742.9-.47 1.95-1.37 2.292-2.591.664-2.377-1.285-3-3.962-3" transform="translate(.325 .292)"/>
    </g>
</svg>
