<svg id="Camada_1" data-name="Camada 1" xmlns="http://www.w3.org/2000/svg" viewBox="0 0 152.69 77.52"><defs><style>.cls-1{fill:#fff;}</style></defs><title>site-observa</title><path class="cls-1" d="M63.12,23V4.11a2.37,2.37,0,0,1,2.7-2.6h2.43c3.59,0,5.39,2.3,5.39,5.66v6.09c0,3.36-2,5.53-5.3,5.53H67.07V23a2,2,0,1,1-3.95,0Zm4.8-7.66c1.25,0,1.81-1,1.81-3.19V7.83c0-2.07-.59-2.86-1.68-2.86h-1V15.33Z"/><path class="cls-1" d="M75.78,23V10.2c0-3.62,2-5.53,4.9-5.53S85.52,6.38,85.52,10v1.74a1.91,1.91,0,0,1-1.88,1.94,1.87,1.87,0,0,1-1.87-1.94V10.2c0-1.55-.3-2-1.09-2s-1,.56-1,2.14V23a1.94,1.94,0,0,1-3.88,0Z"/><path class="cls-1" d="M87.16,2a2,2,0,1,1,3.95,0,2,2,0,1,1-3.95,0ZM87.2,23V7a1.94,1.94,0,1,1,3.88,0V23a1.94,1.94,0,0,1-3.88,0Z"/><path class="cls-1" d="M109.89,10.2V23A1.94,1.94,0,0,1,106,23V10.33c0-1.58-.33-2.14-1.12-2.14s-1.18.56-1.18,2.14V23a1.94,1.94,0,1,1-3.88,0V10.33c0-1.58-.33-2.14-1.18-2.14s-1.12.56-1.12,2.14V23a1.94,1.94,0,0,1-3.88,0V10.2c0-3.62,2-5.53,4.9-5.53a4.12,4.12,0,0,1,3.22,1.25A4.12,4.12,0,0,1,105,4.67C107.89,4.67,109.89,6.58,109.89,10.2Z"/><path class="cls-1" d="M112.19,19.64V10.23c0-3.59,2-5.49,5-5.49s5,1.91,5,5.49v4.61c0,1.64-.89,2.43-2.53,2.43h-3.59v2.37c0,1.45.46,2.07,1.28,2.07s1.15-.63,1.15-1.48V20a1.81,1.81,0,1,1,3.62,0v.49c0,3.06-1.87,4.67-4.8,4.67C114.2,25.2,112.19,23.29,112.19,19.64Zm6.18-5.49v-4c0-1.58-.33-2.11-1.18-2.11s-1.12.53-1.12,2.11v4Z"/><path class="cls-1" d="M124.59,2a2,2,0,0,1,3.95,0,2,2,0,0,1-3.95,0Zm0,21.05V7a1.94,1.94,0,1,1,3.88,0V23a1.94,1.94,0,0,1-3.88,0Z"/><path class="cls-1" d="M131.07,23V10.2c0-3.62,2-5.53,4.9-5.53s4.84,1.71,4.84,5.36v1.74a1.91,1.91,0,0,1-1.88,1.94,1.87,1.87,0,0,1-1.87-1.94V10.2c0-1.55-.3-2-1.09-2s-1,.56-1,2.14V23a1.94,1.94,0,0,1-3.88,0Z"/><path class="cls-1" d="M151.7,10.2V23A1.92,1.92,0,0,1,149.76,25a1.74,1.74,0,0,1-1.15-.39,4.47,4.47,0,0,1-2.34.69c-2.8,0-4.61-1.64-4.61-4.74V16.81c0-3.16,1.81-4.8,4.61-4.8a4.85,4.85,0,0,1,1.58.33V10.2c0-1.51-.36-1.94-1.05-1.94s-1.12.53-1.12,1.41v.07a1.74,1.74,0,0,1-1.81,1.81,1.78,1.78,0,0,1-1.84-2V9.31a4.35,4.35,0,0,1,4.74-4.54C150.08,4.77,151.7,6.68,151.7,10.2Zm-3.85,7.14c0-1.55-.49-2.27-1.22-2.27s-1.15.49-1.15,2.11V20.1c0,1.55.36,2.11,1.15,2.11s1.22-.79,1.22-2.3Z"/><path class="cls-1" d="M63,32.38a2.23,2.23,0,1,1,2.23,2.23A2.19,2.19,0,0,1,63,32.38Zm0,23.8V38a2.19,2.19,0,1,1,4.39,0V56.18a2.19,2.19,0,0,1-4.39,0Z"/><path class="cls-1" d="M70.36,56.18V41.68c0-4.09,2.27-6.25,5.65-6.25s5.73,2.16,5.73,6.25v14.5a2.19,2.19,0,0,1-4.39,0V41.83c0-1.78-.37-2.42-1.34-2.42s-1.26.63-1.26,2.42V56.18a2.19,2.19,0,1,1-4.39,0Z"/><path class="cls-1" d="M93.38,33.46a1.6,1.6,0,0,1-1.45,1.34c-.74,0-1-.45-1.64-.45s-1,.33-1,1.67v.07h.19a2,2,0,0,1,0,4h-.19V56.18a2.19,2.19,0,1,1-4.39,0V40.12a2,2,0,1,1,0-4V36c0-3.64,1.75-5.8,5-5.8a5,5,0,0,1,2.31.48A2.11,2.11,0,0,1,93.38,33.46Z"/><path class="cls-1" d="M104,41.68v14.5a2.17,2.17,0,0,1-2.19,2.19,2,2,0,0,1-1.3-.45,5,5,0,0,1-2.64.78c-3.16,0-5.21-1.86-5.21-5.35v-4.2c0-3.57,2-5.43,5.21-5.43a5.48,5.48,0,0,1,1.79.37V41.68c0-1.71-.41-2.19-1.19-2.19s-1.26.59-1.26,1.6v.07a2,2,0,0,1-2,2A2,2,0,0,1,93.12,41v-.3c0-3,2-5.13,5.35-5.13C102.23,35.54,104,37.7,104,41.68Zm-9.33-8.44A1.62,1.62,0,0,1,95.2,32l1.9-2.08a1.83,1.83,0,0,1,3,0L102,32a1.62,1.62,0,0,1,.48,1.23A1.42,1.42,0,0,1,101,34.76a1.52,1.52,0,0,1-1.11-.48l-1.3-1.41-1.3,1.41a1.53,1.53,0,0,1-1.12.48A1.41,1.41,0,0,1,94.72,33.24Zm5,16.51c0-1.75-.56-2.57-1.38-2.57s-1.3.56-1.3,2.38v3.31c0,1.75.41,2.38,1.3,2.38s1.38-.89,1.38-2.6Z"/><path class="cls-1" d="M106.65,56.18V41.68c0-4.09,2.27-6.25,5.65-6.25S118,37.59,118,41.68v14.5a2.19,2.19,0,0,1-4.39,0V41.83c0-1.78-.37-2.42-1.34-2.42S111,40,111,41.83V56.18a2.19,2.19,0,1,1-4.39,0Z"/><path class="cls-1" d="M120.63,52.43V41.79c0-4.13,2.27-6.25,5.65-6.25s5.28,2.08,5.28,5.06V41a2,2,0,0,1-2.08,2.23,1.88,1.88,0,0,1-2-2v-.07c0-1-.33-1.64-1.19-1.64s-1.23.63-1.23,2.42V52.31c0,1.78.45,2.38,1.26,2.38s1.15-.59,1.15-1.56V53a2,2,0,0,1,2.08-2.16,2,2,0,0,1,2,2.16v.59a4.89,4.89,0,0,1-5.28,5.09C122.9,58.67,120.63,56.55,120.63,52.43Z"/><path class="cls-1" d="M133.83,32.38a2.23,2.23,0,1,1,2.23,2.23A2.19,2.19,0,0,1,133.83,32.38Zm0,23.8V38a2.19,2.19,0,1,1,4.39,0V56.18a2.19,2.19,0,0,1-4.39,0Z"/><path class="cls-1" d="M152,41.68v14.5a2.17,2.17,0,0,1-2.19,2.19,2,2,0,0,1-1.3-.45,5,5,0,0,1-2.64.78c-3.16,0-5.21-1.86-5.21-5.35v-4.2c0-3.57,2-5.43,5.21-5.43a5.48,5.48,0,0,1,1.79.37V41.68c0-1.71-.41-2.19-1.19-2.19s-1.26.59-1.26,1.6v.07a2,2,0,0,1-2,2A2,2,0,0,1,141.08,41v-.3c0-3,2-5.13,5.35-5.13C150.19,35.54,152,37.7,152,41.68Zm-4.35,8.07c0-1.75-.56-2.57-1.38-2.57s-1.3.56-1.3,2.38v3.31c0,1.75.41,2.38,1.3,2.38s1.38-.89,1.38-2.6Z"/><path class="cls-1" d="M66.37,76.87a.55.55,0,0,1-.56.53H63.47c-.65,0-.93-.27-.93-.91V67.66c0-.64.27-.91.93-.91h2.34a.53.53,0,1,1,0,1.07H63.7V71h1.89a.53.53,0,1,1,0,1.07H63.7v4.26h2.12A.55.55,0,0,1,66.37,76.87ZM63.92,65.54a.51.51,0,0,1,.08-.26l.61-1a.49.49,0,0,1,.9.26.52.52,0,0,1-.08.26l-.61,1a.49.49,0,0,1-.9-.26Z"/><path class="cls-1" d="M79.69,69.59v2c0,1.84-.88,2.85-2.4,2.85H76.4v2.44a.58.58,0,1,1-1.16,0V67.66c0-.64.27-.91.93-.91h1.11C78.81,66.75,79.69,67.75,79.69,69.59Zm-1.16.24c0-1.37-.38-2-1.35-2H76.4v5.54h.78c1,0,1.35-.65,1.35-2Z"/><path class="cls-1" d="M87.34,72.6a2,2,0,0,1,.87,1.77v2.48a.58.58,0,1,1-1.16,0V74.69c0-.87-.46-1.54-1.2-1.54H85v3.7a.58.58,0,1,1-1.16,0V67.66c0-.64.27-.91.93-.91h1c1.52,0,2.4,1,2.4,2.85v.72A2.69,2.69,0,0,1,87.34,72.6Zm-.23-2.54v-.23c0-1.37-.41-2-1.39-2H85v4.28h.68C86.7,72.09,87.11,71.43,87.11,70.06Z"/><path class="cls-1" d="M92.71,76.85V67.26a.58.58,0,0,1,1.16,0v9.59a.58.58,0,1,1-1.16,0Z"/><path class="cls-1" d="M98.42,75V69.15a2.29,2.29,0,1,1,4.57,0V75a2.29,2.29,0,1,1-4.57,0Zm3.41-.2V69.35c0-1.14-.4-1.6-1.13-1.6s-1.13.46-1.13,1.6v5.48c0,1.14.4,1.6,1.13,1.6S101.83,76,101.83,74.83Z"/><path class="cls-1" d="M110.91,72.6a2,2,0,0,1,.87,1.77v2.48a.58.58,0,1,1-1.16,0V74.69c0-.87-.46-1.54-1.2-1.54h-.81v3.7a.58.58,0,1,1-1.16,0V67.66c0-.64.27-.91.93-.91h1c1.52,0,2.4,1,2.4,2.85v.72A2.69,2.69,0,0,1,110.91,72.6Zm-.23-2.54v-.23c0-1.37-.41-2-1.39-2h-.68v4.28h.68C110.27,72.09,110.68,71.43,110.68,70.06Z"/><path class="cls-1" d="M116.28,76.85V67.26a.58.58,0,0,1,1.16,0v9.59a.58.58,0,1,1-1.16,0Z"/><path class="cls-1" d="M122.09,76.52V67.66c0-.64.27-.91.93-.91h1.08c1.52,0,2.41,1,2.41,2.85v5c0,1.84-.88,2.85-2.41,2.85H123C122.37,77.43,122.09,77.16,122.09,76.52Zm1.9-.15c1,0,1.35-.65,1.35-2v-4.5c0-1.37-.38-2-1.35-2h-.78v8.55Z"/><path class="cls-1" d="M135.47,69.09v7.76a.58.58,0,1,1-1.16,0V73.56h-2.25v3.29a.58.58,0,1,1-1.16,0V69.09a2.29,2.29,0,1,1,4.57,0Zm-1.16,3.41V69.29c0-1.14-.4-1.6-1.13-1.6s-1.13.46-1.13,1.6V72.5Z"/><path class="cls-1" d="M140,76.52V67.66c0-.64.27-.91.93-.91H142c1.52,0,2.41,1,2.41,2.85v5c0,1.84-.88,2.85-2.41,2.85H140.9C140.24,77.43,140,77.16,140,76.52Zm1.9-.15c1,0,1.35-.65,1.35-2v-4.5c0-1.37-.38-2-1.35-2h-.78v8.55Z"/><path class="cls-1" d="M152.69,76.87a.55.55,0,0,1-.56.53h-2.34c-.65,0-.93-.27-.93-.91V67.66c0-.64.27-.91.93-.91h2.34a.53.53,0,1,1,0,1.07H150V71h1.89a.53.53,0,1,1,0,1.07H150v4.26h2.12A.55.55,0,0,1,152.69,76.87Z"/><path class="cls-1" d="M39.69,2.19,6.56,12.36A9.29,9.29,0,0,0,1.38,26.09l10,14.35L22.58,19.6a10,10,0,0,1,18.34,2.79l4.17,17.46,6.35-26.64A9.28,9.28,0,0,0,39.69,2.19Z"/><path class="cls-1" d="M23.48,62.1,11.39,40.44,1.74,54.66A10,10,0,0,0,8,69.51L39,77A10,10,0,0,0,51.09,65l-6-25.11L40.43,59.4A9.28,9.28,0,0,1,23.48,62.1Z"/><path class="cls-1" d="M33.87,56.8a3.22,3.22,0,1,1-3.1-3.36A3.17,3.17,0,0,1,33.87,56.8Zm1-31.43-.81,23.71a3.17,3.17,0,0,1-6.32-.22L26.54,25.54c0-2.93,2.61-3.95,5.31-3.61A3.52,3.52,0,0,1,34.89,25.37Z"/></svg>