<svg xmlns="http://www.w3.org/2000/svg" xmlns:xlink="http://www.w3.org/1999/xlink" width="65" height="65" viewBox="0 0 65 65">
    <defs>
        <path id="prefix__a" d="M0.892 32.415L32.616 64.138 64.342 32.415 32.616 0.69z"/>
        <path id="prefix__c" d="M0.892 32.415L32.616 64.138 64.342 32.415 32.616 0.69z"/>
        <path id="prefix__e" d="M0.892 32.415L32.616 64.138 64.342 32.415 32.616 0.69z"/>
        <path id="prefix__g" d="M0.892 32.415L32.616 64.138 64.342 32.415 32.616 0.69z"/>
        <path id="prefix__i" d="M0.892 32.415L32.616 64.138 64.342 32.415 32.616 0.69z"/>
        <path id="prefix__k" d="M0.892 32.415L32.616 64.138 64.342 32.415 32.616 0.69z"/>
        <path id="prefix__m" d="M0.892 32.415L32.616 64.138 64.342 32.415 32.616 0.69z"/>
        <path id="prefix__o" d="M0.892 32.415L32.616 64.138 64.342 32.415 32.616 0.69z"/>
        <path id="prefix__q" d="M0.892 32.415L32.616 64.138 64.342 32.415 32.616 0.69z"/>
        <path id="prefix__s" d="M0.892 32.415L32.616 64.138 64.342 32.415 32.616 0.69z"/>
        <path id="prefix__u" d="M0.892 32.415L32.616 64.138 64.342 32.415 32.616 0.69z"/>
        <path id="prefix__w" d="M0.892 32.415L32.616 64.138 64.342 32.415 32.616 0.69z"/>
        <path id="prefix__y" d="M0.892 32.415L32.616 64.138 64.342 32.415 32.616 0.69z"/>
        <path id="prefix__A" d="M0.892 32.415L32.616 64.138 64.342 32.415 32.616 0.69z"/>
        <path id="prefix__C" d="M0.892 32.415L32.616 64.138 64.342 32.415 32.616 0.69z"/>
        <path id="prefix__E" d="M0.892 32.415L32.616 64.138 64.342 32.415 32.616 0.69z"/>
        <path id="prefix__G" d="M0.892 32.415L32.616 64.138 64.342 32.415 32.616 0.69z"/>
        <path id="prefix__I" d="M0.892 32.415L32.616 64.138 64.342 32.415 32.616 0.69z"/>
        <path id="prefix__K" d="M0.892 32.415L32.616 64.138 64.342 32.415 32.616 0.69z"/>
        <path id="prefix__M" d="M0.892 32.415L32.616 64.138 64.342 32.415 32.616 0.69z"/>
        <path id="prefix__O" d="M0.892 32.415L32.616 64.138 64.342 32.415 32.616 0.69z"/>
        <path id="prefix__Q" d="M0.892 32.415L32.616 64.138 64.342 32.415 32.616 0.69z"/>
        <path id="prefix__S" d="M0.892 32.415L32.616 64.138 64.342 32.415 32.616 0.69z"/>
        <path id="prefix__U" d="M0.892 32.415L32.616 64.138 64.342 32.415 32.616 0.69z"/>
        <path id="prefix__W" d="M0.892 32.415L32.616 64.138 64.342 32.415 32.616 0.69z"/>
        <path id="prefix__Y" d="M0.892 32.415L32.616 64.138 64.342 32.415 32.616 0.69z"/>
        <path id="prefix__aa" d="M0.892 32.415L32.616 64.138 64.342 32.415 32.616 0.69z"/>
        <path id="prefix__ac" d="M0.892 32.415L32.616 64.138 64.342 32.415 32.616 0.69z"/>
        <path id="prefix__ae" d="M0.892 32.415L32.616 64.138 64.342 32.415 32.616 0.69z"/>
        <path id="prefix__ag" d="M0.892 32.415L32.616 64.138 64.342 32.415 32.616 0.69z"/>
        <path id="prefix__ai" d="M0.892 32.415L32.616 64.138 64.342 32.415 32.616 0.69z"/>
        <path id="prefix__ak" d="M0.892 32.415L32.616 64.138 64.342 32.415 32.616 0.69z"/>
        <path id="prefix__am" d="M0.892 32.415L32.616 64.138 64.342 32.415 32.616 0.69z"/>
        <path id="prefix__ao" d="M0.892 32.415L32.616 64.138 64.342 32.415 32.616 0.69z"/>
        <path id="prefix__aq" d="M0.892 32.415L32.616 64.138 64.342 32.415 32.616 0.69z"/>
        <path id="prefix__as" d="M0.892 32.415L32.616 64.138 64.342 32.415 32.616 0.69z"/>
        <path id="prefix__au" d="M0.892 32.415L32.616 64.138 64.342 32.415 32.616 0.69z"/>
        <path id="prefix__aw" d="M0.892 32.415L32.616 64.138 64.342 32.415 32.616 0.69z"/>
        <path id="prefix__ay" d="M0.892 32.415L32.616 64.138 64.342 32.415 32.616 0.69z"/>
        <path id="prefix__aA" d="M0.892 32.415L32.616 64.138 64.342 32.415 32.616 0.69z"/>
        <path id="prefix__aC" d="M0.892 32.415L32.616 64.138 64.342 32.415 32.616 0.69z"/>
        <path id="prefix__aE" d="M0.892 32.415L32.616 64.138 64.342 32.415 32.616 0.69z"/>
        <path id="prefix__aG" d="M0.892 32.415L32.616 64.138 64.342 32.415 32.616 0.69z"/>
        <path id="prefix__aI" d="M0.892 32.415L32.616 64.138 64.342 32.415 32.616 0.69z"/>
        <path id="prefix__aK" d="M0.892 32.415L32.616 64.138 64.342 32.415 32.616 0.69z"/>
        <path id="prefix__aM" d="M0.892 32.415L32.616 64.138 64.342 32.415 32.616 0.69z"/>
        <path id="prefix__aO" d="M0.892 32.415L32.616 64.138 64.342 32.415 32.616 0.69z"/>
        <path id="prefix__aQ" d="M0.892 32.415L32.616 64.138 64.342 32.415 32.616 0.69z"/>
        <path id="prefix__aS" d="M0.892 32.415L32.616 64.138 64.342 32.415 32.616 0.69z"/>
        <path id="prefix__aU" d="M0.892 32.415L32.616 64.138 64.342 32.415 32.616 0.69"/>
        <path id="prefix__aW" d="M0.892 32.415L32.616 64.138 64.342 32.415 32.616 0.69"/>
        <path id="prefix__aY" d="M0.892 32.415L32.616 64.138 64.342 32.415 32.616 0.69"/>
        <path id="prefix__ba" d="M0.892 32.415L32.616 64.138 64.342 32.415 32.616 0.69"/>
        <path id="prefix__bc" d="M0.892 32.415L32.616 64.138 64.342 32.415 32.616 0.69"/>
        <path id="prefix__be" d="M0.892 32.415L32.616 64.138 64.342 32.415 32.616 0.69"/>
        <path id="prefix__bg" d="M0.892 32.415L32.616 64.138 64.342 32.415 32.616 0.69"/>
        <path id="prefix__bi" d="M0.892 32.415L32.616 64.138 64.342 32.415 32.616 0.69"/>
        <path id="prefix__bk" d="M0.892 32.415L32.616 64.138 64.342 32.415 32.616 0.69"/>
        <path id="prefix__bm" d="M0.892 32.415L32.616 64.138 64.342 32.415 32.616 0.69"/>
        <path id="prefix__bo" d="M0.892 32.415L32.616 64.138 64.342 32.415 32.616 0.69"/>
        <path id="prefix__bq" d="M0.892 32.415L32.616 64.138 64.342 32.415 32.616 0.69"/>
        <path id="prefix__bs" d="M0.892 32.415L32.616 64.138 64.342 32.415 32.616 0.69"/>
        <path id="prefix__bu" d="M0.892 32.415L32.616 64.138 64.342 32.415 32.616 0.69"/>
        <path id="prefix__bw" d="M0.892 32.415L32.616 64.138 64.342 32.415 32.616 0.69"/>
        <path id="prefix__by" d="M0.892 32.415L32.616 64.138 64.342 32.415 32.616 0.69"/>
        <path id="prefix__bz" d="M0.892 32.415L32.616 64.138 64.342 32.415 32.616 0.69"/>
        <path id="prefix__bB" d="M0.892 32.415L32.616 64.138 64.342 32.415 32.616 0.69"/>
        <path id="prefix__bD" d="M0.892 32.415L32.616 64.138 64.342 32.415 32.616 0.69"/>
        <path id="prefix__bF" d="M0.892 32.415L32.616 64.138 64.342 32.415 32.616 0.69"/>
        <path id="prefix__bH" d="M0.892 32.415L32.616 64.138 64.342 32.415 32.616 0.69"/>
        <path id="prefix__bJ" d="M0.892 32.415L32.616 64.138 64.342 32.415 32.616 0.69"/>
        <path id="prefix__bL" d="M0.892 32.415L32.616 64.138 64.342 32.415 32.616 0.69"/>
        <path id="prefix__bN" d="M0.892 32.415L32.616 64.138 64.342 32.415 32.616 0.69"/>
        <path id="prefix__bP" d="M0.892 32.415L32.616 64.138 64.342 32.415 32.616 0.69"/>
        <path id="prefix__bQ" d="M0.892 32.415L32.616 64.138 64.342 32.415 32.616 0.69"/>
        <path id="prefix__bS" d="M0.892 32.415L32.616 64.138 64.342 32.415 32.616 0.69"/>
        <path id="prefix__bU" d="M0.892 32.415L32.616 64.138 64.342 32.415 32.616 0.69"/>
        <path id="prefix__bW" d="M0.892 32.415L32.616 64.138 64.342 32.415 32.616 0.69"/>
        <path id="prefix__bX" d="M0.892 32.415L32.616 64.138 64.342 32.415 32.616 0.69"/>
        <path id="prefix__bZ" d="M0.892 32.415L32.616 64.138 64.342 32.415 32.616 0.69"/>
        <path id="prefix__cb" d="M0.892 32.415L32.616 64.138 64.342 32.415 32.616 0.69"/>
        <path id="prefix__cd" d="M0.892 32.415L32.616 64.138 64.342 32.415 32.616 0.69"/>
        <path id="prefix__cf" d="M0.892 32.415L32.616 64.138 64.342 32.415 32.616 0.69"/>
        <path id="prefix__ch" d="M0.892 32.415L32.616 64.138 64.342 32.415 32.616 0.69"/>
    </defs>
    <g fill="none" fill-rule="evenodd" transform="translate(0 -.001)">
        <path fill="#231F20" d="M32.616 64.139L0.892 32.415 32.616 0.691 64.342 32.415z"/>
        <path fill="#FFF" d="M1.27 32.415L32.617 63.76l31.347-31.345L32.616 1.069 1.27 32.415zm31.346 32.103L.514 32.415 32.616.311 64.72 32.415 32.616 64.518z"/>
        <mask id="prefix__b" fill="#fff">
            <use xlink:href="#prefix__a"/>
        </mask>
        <path fill="#FFF" d="M29.03 63.723L28.618 63.597 31.849 53.04 22.438 46.497 33.483 42.258 33.637 42.66 23.35 46.608 32.352 52.866z" mask="url(#prefix__b)"/>
        <mask id="prefix__d" fill="#fff">
            <use xlink:href="#prefix__c"/>
        </mask>
        <path fill="#FFF" d="M22.227 59.39L22.001 59.024 31.955 52.877 32.181 53.243z" mask="url(#prefix__d)"/>
        <mask id="prefix__f" fill="#fff">
            <use xlink:href="#prefix__e"/>
        </mask>
        <path fill="#FFF" d="M22.328 56.157L21.901 56.11 22.916 46.848 23.344 46.895z" mask="url(#prefix__f)"/>
        <mask id="prefix__h" fill="#fff">
            <use xlink:href="#prefix__g"/>
        </mask>
        <path fill="#FFF" d="M10.053 53.917L9.851 53.537 22.879 46.626 23.08 47.006z" mask="url(#prefix__h)"/>
        <mask id="prefix__j" fill="#fff">
            <use xlink:href="#prefix__i"/>
        </mask>
        <path fill="#FFF" d="M7.262 47.938L7.237 47.508 22.968 46.602 22.992 47.031z" mask="url(#prefix__j)"/>
        <mask id="prefix__l" fill="#fff">
            <use xlink:href="#prefix__k"/>
        </mask>
        <path fill="#FFF" d="M22.905 47.018L4.404 40.23 4.551 39.826 23.053 46.615z" mask="url(#prefix__l)"/>
        <mask id="prefix__n" fill="#fff">
            <use xlink:href="#prefix__m"/>
        </mask>
        <path fill="#FFF" d="M22.804 46.941L13.892 34.338 14.243 34.09 23.155 46.692z" mask="url(#prefix__n)"/>
        <mask id="prefix__p" fill="#fff">
            <use xlink:href="#prefix__o"/>
        </mask>
        <path fill="#FFF" d="M5.655 40.932L5.394 40.591 13.937 34.043 14.198 34.384z" mask="url(#prefix__p)"/>
        <mask id="prefix__r" fill="#fff">
            <use xlink:href="#prefix__q"/>
        </mask>
        <path fill="#FFF" d="M13.882 34.323L2.716 15.261 3.087 15.043 14.253 34.106z" mask="url(#prefix__r)"/>
        <mask id="prefix__t" fill="#fff">
            <use xlink:href="#prefix__s"/>
        </mask>
        <path fill="#FFF" d="M22.765 46.821L22.505 35.742 22.934 35.733 23.195 46.811z" mask="url(#prefix__t)"/>
        <mask id="prefix__v" fill="#fff">
            <use xlink:href="#prefix__u"/>
        </mask>
        <path fill="#FFF" d="M22.683 35.949L14.03 34.426 14.104 34.002 22.756 35.526z" mask="url(#prefix__v)"/>
        <mask id="prefix__x" fill="#fff">
            <use xlink:href="#prefix__w"/>
        </mask>
        <path fill="#FFF" d="M14.195 34.387L13.94 34.041 25.711 25.362 25.966 25.707z" mask="url(#prefix__x)"/>
        <mask id="prefix__z" fill="#fff">
            <use xlink:href="#prefix__y"/>
        </mask>
        <path fill="#FFF" d="M22.846 35.912L22.595 35.563 28.17 31.539 28.421 31.888z" mask="url(#prefix__z)"/>
        <mask id="prefix__B" fill="#fff">
            <use xlink:href="#prefix__A"/>
        </mask>
        <path fill="#FFF" d="M30.17 37.127L22.686 35.95 22.753 35.525 30.237 36.703z" mask="url(#prefix__B)"/>
        <mask id="prefix__D" fill="#fff">
            <use xlink:href="#prefix__C"/>
        </mask>
        <path fill="#FFF" d="M23.066 46.683L22.723 46.423 30.032 36.785 30.375 37.045z" mask="url(#prefix__D)"/>
        <mask id="prefix__F" fill="#fff">
            <use xlink:href="#prefix__E"/>
        </mask>
        <path fill="#FFF" d="M37.299 59.88L31.799 52.787 32.139 52.524 37.639 59.616z" mask="url(#prefix__F)"/>
        <mask id="prefix__H" fill="#fff">
            <use xlink:href="#prefix__G"/>
        </mask>
        <path fill="#FFF" d="M37.006 59.127L36.666 58.863 42.99 50.699 43.33 50.962z" mask="url(#prefix__H)"/>
        <mask id="prefix__J" fill="#fff">
            <use xlink:href="#prefix__I"/>
        </mask>
        <path fill="#FFF" d="M42.945 50.831L42.931 39.7 43.361 39.7 43.375 50.831z" mask="url(#prefix__J)"/>
        <mask id="prefix__L" fill="#fff">
            <use xlink:href="#prefix__K"/>
        </mask>
        <path fill="#FFF" d="M43.246 51.027L43.074 50.634 55.151 45.315 55.325 45.708z" mask="url(#prefix__L)"/>
        <mask id="prefix__N" fill="#fff">
            <use xlink:href="#prefix__M"/>
        </mask>
        <path fill="#FFF" d="M53.495 55.113L43.081 51.031 43.239 50.631 53.651 54.713z" mask="url(#prefix__N)"/>
        <mask id="prefix__P" fill="#fff">
            <use xlink:href="#prefix__O"/>
        </mask>
        <path fill="#FFF" d="M54.059 46.085L43.062 42.009 43.212 41.606 54.209 45.682z" mask="url(#prefix__P)"/>
        <mask id="prefix__R" fill="#fff">
            <use xlink:href="#prefix__Q"/>
        </mask>
        <path fill="#FFF" d="M43.277 41.971L42.998 41.645 51.312 34.526 51.592 34.852z" mask="url(#prefix__R)"/>
        <mask id="prefix__T" fill="#fff">
            <use xlink:href="#prefix__S"/>
        </mask>
        <path fill="#FFF" d="M54.425 46.287L51.244 34.745 51.659 34.631 54.839 46.172z" mask="url(#prefix__T)"/>
        <mask id="prefix__V" fill="#fff">
            <use xlink:href="#prefix__U"/>
        </mask>
        <path fill="#FFF" d="M61.248 41.163L51.337 34.87 51.567 34.507 61.477 40.8z" mask="url(#prefix__V)"/>
        <mask id="prefix__X" fill="#fff">
            <use xlink:href="#prefix__W"/>
        </mask>
        <path fill="#FFF" d="M51.515 34.895L51.389 34.483 60.389 31.721 60.515 32.133z" mask="url(#prefix__X)"/>
        <mask id="prefix__Z" fill="#fff">
            <use xlink:href="#prefix__Y"/>
        </mask>
        <path fill="#FFF" d="M67.117 37.144L60.324 32.099 60.58 31.754 67.373 36.798z" mask="url(#prefix__Z)"/>
        <mask id="prefix__ab" fill="#fff">
            <use xlink:href="#prefix__aa"/>
        </mask>
        <path fill="#FFF" d="M60.24 31.96L58.726 22.41 59.151 22.343 60.664 31.893z" mask="url(#prefix__ab)"/>
        <mask id="prefix__ad" fill="#fff">
            <use xlink:href="#prefix__ac"/>
        </mask>
        <path fill="#FFF" d="M51.06 35.004L50.524 27.876 50.954 27.844 51.488 34.972z" mask="url(#prefix__ad)"/>
        <mask id="prefix__af" fill="#fff">
            <use xlink:href="#prefix__ae"/>
        </mask>
        <path fill="#FFF" d="M50.822 28.058L50.656 27.662 58.973 24.183 59.139 24.579z" mask="url(#prefix__af)"/>
        <mask id="prefix__ah" fill="#fff">
            <use xlink:href="#prefix__ag"/>
        </mask>
        <path fill="#FFF" d="M50.94 27.936L50.538 27.785 54.575 17.06 54.977 17.211z" mask="url(#prefix__ah)"/>
        <mask id="prefix__aj" fill="#fff">
            <use xlink:href="#prefix__ai"/>
        </mask>
        <path fill="#FFF" d="M50.429 27.602L43.32 17.494 43.672 17.246 50.781 27.355z" mask="url(#prefix__aj)"/>
        <mask id="prefix__al" fill="#fff">
            <use xlink:href="#prefix__ak"/>
        </mask>
        <path fill="#FFF" d="M43.528 17.582L43.463 17.157 55.098 15.388 55.163 15.813z" mask="url(#prefix__al)"/>
        <mask id="prefix__an" fill="#fff">
            <use xlink:href="#prefix__am"/>
        </mask>
        <path fill="#FFF" d="M43.309 17.719L37.989 8.437 38.362 8.223 43.683 17.505z" mask="url(#prefix__an)"/>
        <mask id="prefix__ap" fill="#fff">
            <use xlink:href="#prefix__ao"/>
        </mask>
        <path fill="#FFF" d="M38.333 8.476L38.016 8.184 43.551 2.144 43.868 2.436z" mask="url(#prefix__ap)"/>
        <mask id="prefix__ar" fill="#fff">
            <use xlink:href="#prefix__aq"/>
        </mask>
        <path fill="#FFF" d="M38.047 8.503L23.924 -1.96 24.18 -2.306 38.303 8.157z" mask="url(#prefix__ar)"/>
        <mask id="prefix__at" fill="#fff">
            <use xlink:href="#prefix__as"/>
        </mask>
        <path fill="#FFF" d="M38.145 8.543L19.02 5.867 19.079 5.44 38.204 8.118z" mask="url(#prefix__at)"/>
        <mask id="prefix__av" fill="#fff">
            <use xlink:href="#prefix__au"/>
        </mask>
        <path fill="#FFF" d="M25.997 15.126L25.793 14.747 38.073 8.141 38.276 8.519z" mask="url(#prefix__av)"/>
        <mask id="prefix__ax" fill="#fff">
            <use xlink:href="#prefix__aw"/>
        </mask>
        <path fill="#FFF" d="M29.334 21.321L28.982 21.074 37.999 8.207 38.351 8.454z" mask="url(#prefix__ax)"/>
        <mask id="prefix__az" fill="#fff">
            <use xlink:href="#prefix__ay"/>
        </mask>
        <path fill="#FFF" d="M25.53 14.943L14.969 5.208 15.26 4.892 25.822 14.627z" mask="url(#prefix__az)"/>
        <mask id="prefix__aB" fill="#fff">
            <use xlink:href="#prefix__aA"/>
        </mask>
        <path fill="#FFF" d="M6.649 19.667L6.547 19.25 25.624 14.576 25.726 14.994z" mask="url(#prefix__aB)"/>
        <mask id="prefix__aD" fill="#fff">
            <use xlink:href="#prefix__aC"/>
        </mask>
        <path fill="#FFF" d="M25.59 24.031L25.16 24.017 25.46 14.778 25.89 14.792z" mask="url(#prefix__aD)"/>
        <mask id="prefix__aF" fill="#fff">
            <use xlink:href="#prefix__aE"/>
        </mask>
        <path fill="#FFF" d="M25.777 25.74L6.157 19.937 6.279 19.525 25.899 25.328z" mask="url(#prefix__aF)"/>
        <g>
            <mask id="prefix__aH" fill="#fff">
                <use xlink:href="#prefix__aG"/>
            </mask>
            <path fill="#FFF" d="M25.929 25.729L25.749 25.339 43.406 17.174 43.586 17.565z" mask="url(#prefix__aH)"/>
        </g>
        <g>
            <mask id="prefix__aJ" fill="#fff">
                <use xlink:href="#prefix__aI"/>
            </mask>
            <path fill="#FFF" d="M35.423 29.762L35.066 29.522 43.317 17.25 43.674 17.49z" mask="url(#prefix__aJ)"/>
        </g>
        <g>
            <mask id="prefix__aL" fill="#fff">
                <use xlink:href="#prefix__aK"/>
            </mask>
            <path fill="#FFF" d="M13.994 34.416L3.516 30.629 3.662 30.225 14.14 34.011z" mask="url(#prefix__aL)"/>
        </g>
        <g>
            <mask id="prefix__aN" fill="#fff">
                <use xlink:href="#prefix__aM"/>
            </mask>
            <path fill="#FFF" d="M4.264 38.595L3.376 30.451 3.803 30.405 4.691 38.548z" mask="url(#prefix__aN)"/>
        </g>
        <g>
            <mask id="prefix__aP" fill="#fff">
                <use xlink:href="#prefix__aO"/>
            </mask>
            <path fill="#FFF" d="M-0.884 36.559L-1.223 36.297 3.419 30.296 3.76 30.558z" mask="url(#prefix__aP)"/>
        </g>
        <g>
            <mask id="prefix__aR" fill="#fff">
                <use xlink:href="#prefix__aQ"/>
            </mask>
            <path fill="#FFF" d="M3.788 30.511L3.392 30.343 6.401 23.263 6.796 23.431z" mask="url(#prefix__aR)"/>
        </g>
        <g>
            <mask id="prefix__aT" fill="#fff">
                <use xlink:href="#prefix__aS"/>
            </mask>
            <path fill="#FFF" d="M51.476 34.952L46.51 33.197 46.653 32.792 51.62 34.547z" mask="url(#prefix__aT)"/>
        </g>
        <g>
            <mask id="prefix__aV" fill="#fff">
                <use xlink:href="#prefix__aU"/>
            </mask>
            <path fill="#FFF" d="M23.812 46.78c0-.495-.401-.896-.896-.896-.496 0-.897.4-.897.896s.4.897.897.897c.495 0 .896-.401.896-.897" mask="url(#prefix__aV)"/>
        </g>
        <g>
            <mask id="prefix__aX" fill="#fff">
                <use xlink:href="#prefix__aW"/>
            </mask>
            <path fill="#FFF" d="M23.683 35.675c0-.496-.401-.897-.896-.897s-.896.4-.896.897c0 .495.4.896.896.896.495 0 .896-.401.896-.896" mask="url(#prefix__aX)"/>
        </g>
        <g>
            <mask id="prefix__aZ" fill="#fff">
                <use xlink:href="#prefix__aY"/>
            </mask>
            <path fill="#FFF" d="M33.154 52.89c0-.495-.4-.896-.896-.896s-.897.4-.897.896c0 .495.401.896.897.896.495 0 .896-.401.896-.896" mask="url(#prefix__aZ)"/>
        </g>
        <g>
            <mask id="prefix__bb" fill="#fff">
                <use xlink:href="#prefix__ba"/>
            </mask>
            <path fill="#FFF" d="M34.525 42.472c0-.417-.338-.755-.756-.755-.417 0-.755.338-.755.755s.338.755.755.755c.418 0 .756-.338.756-.755" mask="url(#prefix__bb)"/>
        </g>
        <g>
            <mask id="prefix__bd" fill="#fff">
                <use xlink:href="#prefix__bc"/>
            </mask>
            <path fill="#FFF" d="M31.062 36.758c0-.417-.338-.756-.756-.756-.417 0-.756.34-.756.756 0 .417.339.755.756.755.418 0 .756-.338.756-.755" mask="url(#prefix__bd)"/>
        </g>
        <g>
            <mask id="prefix__bf" fill="#fff">
                <use xlink:href="#prefix__be"/>
            </mask>
            <path fill="#FFF" d="M36.445 29.655c0-.417-.338-.755-.756-.755-.417 0-.755.338-.755.755s.338.755.755.755c.418 0 .756-.338.756-.755" mask="url(#prefix__bf)"/>
        </g>
        <g>
            <mask id="prefix__bh" fill="#fff">
                <use xlink:href="#prefix__bg"/>
            </mask>
            <path fill="#FFF" d="M43.892 41.717c0-.417-.339-.755-.757-.755-.416 0-.755.338-.755.755s.338.755.755.755c.419 0 .757-.338.757-.755" mask="url(#prefix__bh)"/>
        </g>
        <g>
            <mask id="prefix__bj" fill="#fff">
                <use xlink:href="#prefix__bi"/>
            </mask>
            <path fill="#FFF" d="M44.27 50.84c0-.494-.401-.895-.896-.895s-.896.4-.896.896c0 .495.4.896.896.896.495 0 .897-.401.897-.896" mask="url(#prefix__bj)"/>
        </g>
        <g>
            <mask id="prefix__bl" fill="#fff">
                <use xlink:href="#prefix__bk"/>
            </mask>
            <path fill="#FFF" d="M55.331 46.006c0-.417-.338-.755-.755-.755-.418 0-.756.338-.756.755s.338.755.756.755c.417 0 .755-.338.755-.755" mask="url(#prefix__bl)"/>
        </g>
        <g>
            <mask id="prefix__bn" fill="#fff">
                <use xlink:href="#prefix__bm"/>
            </mask>
            <path fill="#FFF" d="M52.275 34.695c0-.495-.401-.896-.897-.896-.495 0-.896.4-.896.896 0 .495.4.896.896.896s.897-.401.897-.896" mask="url(#prefix__bn)"/>
        </g>
        <g>
            <mask id="prefix__bp" fill="#fff">
                <use xlink:href="#prefix__bo"/>
            </mask>
            <path fill="#FFF" d="M51.725 27.648c0-.417-.338-.755-.756-.755-.417 0-.755.338-.755.755s.338.755.755.755c.418 0 .756-.338.756-.755" mask="url(#prefix__bp)"/>
        </g>
        <g>
            <mask id="prefix__br" fill="#fff">
                <use xlink:href="#prefix__bq"/>
            </mask>
            <path fill="#FFF" d="M15.094 34.227c0-.496-.402-.896-.897-.896s-.896.4-.896.896c0 .495.4.896.896.896.495 0 .897-.401.897-.896" mask="url(#prefix__br)"/>
        </g>
        <g>
            <mask id="prefix__bt" fill="#fff">
                <use xlink:href="#prefix__bs"/>
            </mask>
            <path fill="#FFF" d="M7.497 48.083c0-.417-.338-.756-.756-.756-.417 0-.755.339-.755.756s.338.755.755.755c.418 0 .756-.338.756-.755" mask="url(#prefix__bt)"/>
        </g>
        <g>
            <mask id="prefix__bv" fill="#fff">
                <use xlink:href="#prefix__bu"/>
            </mask>
            <path fill="#FFF" d="M6.393 40.562c0-.417-.338-.756-.755-.756-.418 0-.756.339-.756.756 0 .416.338.755.756.755.417 0 .755-.339.755-.755" mask="url(#prefix__bv)"/>
        </g>
        <g>
            <mask id="prefix__bx" fill="#fff">
                <use xlink:href="#prefix__bw"/>
            </mask>
            <path fill="#FFF" d="M4.718 30.41c0-.494-.401-.895-.896-.895-.496 0-.897.4-.897.896 0 .495.4.896.897.896.495 0 .896-.401.896-.896" mask="url(#prefix__bx)"/>
        </g>
        <g/>
        <g>
            <mask id="prefix__bA" fill="#fff">
                <use xlink:href="#prefix__bz"/>
            </mask>
            <path fill="#FFF" d="M7.497 56.38c0-.417-.338-.755-.756-.755-.417 0-.755.338-.755.755s.338.755.755.755c.418 0 .756-.338.756-.755" mask="url(#prefix__bA)"/>
        </g>
        <g>
            <mask id="prefix__bC" fill="#fff">
                <use xlink:href="#prefix__bB"/>
            </mask>
            <path fill="#FFF" d="M37.86 59.051c0-.496-.4-.897-.896-.897s-.897.401-.897.897c0 .495.401.896.897.896.495 0 .896-.4.896-.896" mask="url(#prefix__bC)"/>
        </g>
        <g>
            <mask id="prefix__bE" fill="#fff">
                <use xlink:href="#prefix__bD"/>
            </mask>
            <path fill="#FFF" d="M26.626 26.05c0-.416-.338-.754-.755-.754-.418 0-.756.338-.756.755s.338.755.756.755c.417 0 .755-.338.755-.755" mask="url(#prefix__bE)"/>
        </g>
        <g>
            <mask id="prefix__bG" fill="#fff">
                <use xlink:href="#prefix__bF"/>
            </mask>
            <path fill="#FFF" d="M26.662 14.726c0-.417-.338-.755-.755-.755-.418 0-.756.338-.756.755s.338.755.756.755c.417 0 .755-.338.755-.755" mask="url(#prefix__bG)"/>
        </g>
        <g>
            <mask id="prefix__bI" fill="#fff">
                <use xlink:href="#prefix__bH"/>
            </mask>
            <path fill="#FFF" d="M7.054 19.91c0-.417-.338-.756-.755-.756-.418 0-.756.34-.756.756 0 .417.338.755.756.755.417 0 .755-.338.755-.755" mask="url(#prefix__bI)"/>
        </g>
        <g>
            <mask id="prefix__bK" fill="#fff">
                <use xlink:href="#prefix__bJ"/>
            </mask>
            <path fill="#FFF" d="M44.46 17.595c0-.495-.402-.896-.897-.896-.496 0-.897.4-.897.896 0 .495.401.896.897.896.495 0 .896-.401.896-.896" mask="url(#prefix__bK)"/>
        </g>
        <g>
            <mask id="prefix__bM" fill="#fff">
                <use xlink:href="#prefix__bL"/>
            </mask>
            <path fill="#FFF" d="M56.353 15.481c0-.417-.34-.755-.756-.755-.417 0-.756.338-.756.755s.339.755.756.755.756-.338.756-.755" mask="url(#prefix__bM)"/>
        </g>
        <g>
            <mask id="prefix__bO" fill="#fff">
                <use xlink:href="#prefix__bN"/>
            </mask>
            <path fill="#FFF" d="M59.76 24.627c0-.417-.338-.755-.756-.755-.417 0-.755.338-.755.755s.338.755.755.755c.418 0 .756-.338.756-.755" mask="url(#prefix__bO)"/>
        </g>
        <g/>
        <g>
            <mask id="prefix__bR" fill="#fff">
                <use xlink:href="#prefix__bQ"/>
            </mask>
            <path fill="#FFF" d="M61.707 31.885c0-.496-.4-.896-.896-.896s-.897.4-.897.896.401.896.897.896c.495 0 .896-.4.896-.896" mask="url(#prefix__bR)"/>
        </g>
        <g>
            <mask id="prefix__bT" fill="#fff">
                <use xlink:href="#prefix__bS"/>
            </mask>
            <path fill="#FFF" d="M63.416 41.717c0-.417-.338-.755-.755-.755-.418 0-.756.338-.756.755s.338.755.756.755c.417 0 .755-.338.755-.755" mask="url(#prefix__bT)"/>
        </g>
        <g>
            <mask id="prefix__bV" fill="#fff">
                <use xlink:href="#prefix__bU"/>
            </mask>
            <path fill="#FFF" d="M59.096 57.254c0-.417-.338-.755-.755-.755s-.756.338-.756.755.34.755.756.755c.417 0 .755-.338.755-.755" mask="url(#prefix__bV)"/>
        </g>
        <g/>
        <g>
            <mask id="prefix__bY" fill="#fff">
                <use xlink:href="#prefix__bX"/>
            </mask>
            <path fill="#FFF" d="M58.933 6.192c0-.417-.339-.755-.756-.755s-.756.338-.756.755.339.756.756.756.756-.339.756-.756" mask="url(#prefix__bY)"/>
        </g>
        <g>
            <mask id="prefix__ca" fill="#fff">
                <use xlink:href="#prefix__bZ"/>
            </mask>
            <path fill="#FFF" d="M38.993 8.458c0-.496-.4-.896-.896-.896-.495 0-.897.4-.897.896 0 .495.401.896.897.896.495 0 .896-.4.896-.896" mask="url(#prefix__ca)"/>
        </g>
        <g>
            <mask id="prefix__cc" fill="#fff">
                <use xlink:href="#prefix__cb"/>
            </mask>
            <path fill="#FFF" d="M47.766 7.704c0-.417-.339-.755-.757-.755-.417 0-.755.338-.755.755s.338.755.755.755c.418 0 .757-.338.757-.755" mask="url(#prefix__cc)"/>
        </g>
        <g>
            <mask id="prefix__ce" fill="#fff">
                <use xlink:href="#prefix__cd"/>
            </mask>
            <path fill="#FFF" d="M16.464 5.068c0-.418-.338-.755-.756-.755-.417 0-.755.337-.755.755 0 .417.338.755.755.755.418 0 .756-.338.756-.755" mask="url(#prefix__ce)"/>
        </g>
        <g>
            <mask id="prefix__cg" fill="#fff">
                <use xlink:href="#prefix__cf"/>
            </mask>
            <path fill="#FFF" d="M4.881 7.51c0-.417-.338-.755-.755-.755-.418 0-.756.338-.756.755s.338.755.756.755c.417 0 .755-.338.755-.755" mask="url(#prefix__cg)"/>
        </g>
        <g/>
        <path fill="#FFF" d="M34.354 54.016L34.422 53.935 38.005 49.695 38.269 46.598 45.362 42.714 47.955 38.003 48.855 34.008 49.898 31.901 52.547 28.024 51.019 25.143 46.861 22.81 44.799 22.406 43.512 21.667 40.394 20.44 37.24 19.323 37.154 17.985 35.724 15.437 30.981 17.178 27.728 18.252 26.687 14.421 22.106 15.313 22.198 17.958 19.393 17.962 16.528 18.545 16.528 24.208 14.296 25.133 12.687 27.707 16.28 30.755 18.906 31.454 20.413 30.141 21.913 32.247 25.197 33.728 26.68 34.834 29.144 40.089 29.841 41.372 29.503 42.461 32.403 46.062 32.836 47.94 29.675 51.146 32.158 52.833M2.293 55.191c0-.577-.438-.566-.8-.577v1.16c.367 0 .8-.023.8-.583zm-.8 2.557H.857v-3.7h.866c.3 0 .61.033.87.24.239.198.383.537.383.886 0 .854-.56 1.182-1.21 1.182-.087 0-.182-.006-.271-.012v1.404zM4.368 55.64c.289 0 .565-.122.565-.51 0-.383-.227-.505-.515-.505h-.333v1.015h.283zm-.921 2.108v-3.7h1.032c.56 0 1.131.161 1.131.977 0 .471-.244.804-.638.87.228.106.3.311.389.561l.455 1.292h-.71L4.762 56.7c-.139-.444-.278-.489-.671-.489v1.537h-.644zM6.287 57.748L6.925 57.748 6.925 54.048 6.287 54.048zM10.642 57.748v-2.185c.011-.334.022-.666.044-.998h-.022c-.028.127-.055.255-.094.382l-.799 2.801h-.588l-.677-2.313c-.083-.288-.155-.577-.216-.87h-.022c.028.322.05.649.05.97v2.214h-.605v-3.7h1.004l.571 1.94c.084.3.156.6.2.91.05-.255.094-.505.167-.748l.604-2.103h1.021v3.7h-.638zM13.915 57.748L12.034 57.748 12.034 54.048 13.898 54.048 13.898 54.658 12.672 54.658 12.672 55.551 13.793 55.551 13.793 56.157 12.672 56.157 12.672 57.144 13.915 57.144zM14.593 57.748L15.231 57.748 15.231 54.048 14.593 54.048zM16.939 55.64c.288 0 .566-.122.566-.51 0-.383-.228-.505-.516-.505h-.333v1.015h.283zm-.921 2.108v-3.7h1.032c.56 0 1.13.161 1.13.977 0 .471-.242.804-.637.87.228.106.3.311.389.561l.455 1.292h-.711l-.343-1.048c-.14-.444-.278-.489-.671-.489v1.537h-.644zM20.128 54.991c-.022-.078-.044-.16-.06-.244-.028.1-.045.206-.073.306l-.377 1.248h.915l-.405-1.31zM21 57.748l-.272-.843h-1.303l-.267.843h-.654l1.226-3.7h.704l1.26 3.7h-.694zM2.075 52.733l-.748-1.62c-.072-.152-.128-.313-.189-.474.03.229.053.462.053.69v1.404H.753v-2.681h.542l.768 1.624c.068.153.113.318.17.474-.033-.213-.04-.438-.04-.655v-1.443h.437v2.68h-.555zM4.116 50.735c-.016-.057-.032-.117-.044-.177-.02.072-.032.15-.052.221l-.274.904h.663l-.293-.948zm.631 1.998l-.196-.61h-.945l-.193.61h-.475l.89-2.682h.51l.912 2.682h-.503zM7.22 52.665c-.174.052-.343.088-.52.088-.71 0-1.25-.442-1.25-1.335 0-.888.462-1.387 1.21-1.387.19 0 .366.049.547.117l-.036.459c-.149-.097-.314-.145-.487-.145-.458 0-.748.362-.748.892 0 .555.302.949.784.949.165 0 .326-.044.483-.113l.016.475zM7.588 52.733L8.05 52.733 8.05 50.052 7.588 50.052zM9.626 50.41c-.446 0-.627.539-.627.989 0 .45.18.98.63.98.439 0 .62-.534.62-.98 0-.442-.181-.99-.623-.99m.004 2.385c-.728 0-1.117-.58-1.117-1.404 0-.82.393-1.395 1.117-1.395.728 0 1.11.6 1.11 1.415 0 .8-.406 1.384-1.11 1.384M12.503 52.733l-.748-1.62c-.072-.152-.128-.313-.189-.474.028.229.053.462.053.69v1.404h-.439v-2.681h.543l.768 1.624c.07.153.113.318.17.474-.033-.213-.04-.438-.04-.655v-1.443h.437v2.68h-.555zM14.545 50.735c-.016-.057-.032-.117-.044-.177-.02.072-.032.15-.053.221l-.273.904h.663l-.293-.948zm.63 1.998l-.196-.61h-.945l-.193.61h-.474l.888-2.682h.51l.913 2.682h-.502zM17.334 52.733L15.983 52.733 15.983 50.052 16.445 50.052 16.445 52.295 17.334 52.295zM1.785 46.616c.291 0 .569-.123.569-.513 0-.385-.229-.508-.519-.508H1.5v1.021h.285zm-.926 2.121v-3.723h1.038c.563 0 1.138.162 1.138.983 0 .474-.245.81-.642.876.229.106.302.313.391.563l.458 1.301h-.714l-.347-1.055c-.139-.446-.278-.49-.675-.49v1.545H.859zM5.58 48.737L3.688 48.737 3.688 45.014 5.563 45.014 5.563 45.629 4.33 45.629 4.33 46.527 5.457 46.527 5.457 47.135 4.33 47.135 4.33 48.129 5.58 48.129zM7.037 48.168c.725 0 1.211-.408 1.211-1.312 0-.424-.156-.854-.475-1.077-.262-.184-.602-.179-.898-.184v2.567c.05 0 .106.006.162.006zm-.804-3.154h.72c.475 0 1.005.023 1.412.357.43.358.569.916.569 1.513 0 .58-.162 1.161-.575 1.512-.345.296-.798.341-1.211.341h-.915v-3.723zM11.429 48.737L9.537 48.737 9.537 45.014 11.412 45.014 11.412 45.629 10.179 45.629 10.179 46.527 11.306 46.527 11.306 47.135 10.179 47.135 10.179 48.129 11.429 48.129zM.789 63.66L1.591 63.66 1.591 59.007.789 59.007zM4.876 63.66L3.58 60.848c-.126-.265-.224-.543-.328-.823.048.398.091.803.091 1.2v2.435h-.76v-4.653h.941l1.332 2.818c.12.266.196.551.293.823-.055-.369-.069-.76-.069-1.137v-2.504h.76v4.653h-.963zM7.597 63.66L6.787 63.66 6.787 59.007 8.985 59.007 8.985 59.774 7.59 59.774 7.59 60.876 8.93 60.876 8.93 61.644 7.597 61.644zM16.122 63.66l-1.297-2.812c-.127-.265-.224-.543-.329-.823.048.398.09.803.09 1.2v2.435h-.76v-4.653h.941l1.334 2.818c.119.266.196.551.293.823-.056-.369-.07-.76-.07-1.137v-2.504h.76v4.653h-.962zM20.92 63.541c-.3.091-.592.154-.9.154-1.234 0-2.17-.768-2.17-2.317 0-1.542.804-2.406 2.1-2.406.329 0 .636.083.95.202l-.062.795c-.26-.168-.545-.25-.845-.25-.795 0-1.298.627-1.298 1.548 0 .962.524 1.647 1.36 1.647.287 0 .566-.077.838-.196l.028.823zM21.562 63.66L22.364 63.66 22.364 59.007 21.562 59.007zM24.988 60.193c-.028-.098-.056-.203-.077-.307-.035.125-.056.258-.09.384l-.475 1.569h1.15l-.508-1.646zm1.095 3.467l-.342-1.06H24.1l-.334 1.06h-.823l1.542-4.653h.885l1.584 4.653h-.872zM11.841 59.382L11.714 59.007 10.827 59.007 10.703 59.382zM10.687 61.84l.475-1.57c.034-.126.055-.259.09-.385.021.105.05.21.077.308l.51 1.646h-1.152zm1.215-2.277h-1.26L9.285 63.66h.823l.335-1.06h1.64l.341 1.06h.872l-1.394-4.097z"/>
        <path fill="#FFF" d="M21.955 21.7c-.676-2.172.536-4.48 2.708-5.157 2.172-.676 4.48.536 5.157 2.708.677 2.172-.536 4.48-2.708 5.157-2.17.676-4.48-.536-5.157-2.708"/>
        <path fill="#231F20" d="M29.289 18.84s-1.087.072-1.737-.731c0 0-.292.464-.734.625 0 0 .009-.323-.078-.601 0 0-.973 1.142-1.804 1.339 0 0 .283-.583-.001-1.058 0 0-.964 1.785-2.05 2.01 0 0 .167-.662.086-1.041 0 0-.32 1.227-1.072 1.5l-.02-.003c-.502-1.73.74-3.636 2.8-4.277 2.082-.648 4.116.267 4.658 2.009.022.07.042.144.058.216l-.106.013z"/>
        <path fill="#231F20" d="M22.04 20.656c.474-.278.766-1.042.843-1.338l.158-.606.126.587c.058.268.001.656-.044.89.918-.373 1.727-1.853 1.734-1.868l.131-.242.131.22c.193.322.152.684.09.918.71-.316 1.463-1.192 1.471-1.2l.181-.213.073.236c.047.152.068.315.077.438.281-.177.466-.467.468-.469l.12-.187.128.16c.506.623 1.305.682 1.542.685l-.019-.06c-.529-1.703-2.497-2.554-4.48-1.936-1.916.597-3.113 2.363-2.73 3.985zm7.3-1.739c-.046.002-1.044.06-1.732-.64-.136.165-.378.407-.692.522l-.194.07.005-.175s.003-.147-.02-.322c-.339.353-1.047 1.017-1.692 1.171l-.266.063.108-.222c.002-.004.164-.345.097-.698-.329.528-1.113 1.627-1.995 1.81l-.208.042.046-.179s.024-.096.048-.23c-.187.335-.465.68-.847.82l-.044.014-.142-.025-.019-.067c-.095-1.763.841-3.79 2.941-4.318 2.11-.528 3.874.251 4.797 1.965.037.07.044.15.061.225l.031.141-.284.033zM23.316 21.365c-.061-.196.104-.422.37-.504.265-.083.529.01.59.205.06.195-.104.422-.37.505-.265.082-.53-.01-.59-.206"/>
        <path fill="#231F20" d="M23.39 21.342c.052.166.276.243.5.174.223-.07.363-.261.311-.426-.05-.166-.274-.244-.498-.174-.224.07-.364.26-.313.426m-.149.046c-.07-.226.122-.487.428-.582.305-.096.611.01.681.237.07.226-.12.487-.427.583-.304.095-.611-.012-.681-.238M27.492 20.166c-.06-.196.104-.422.37-.504.264-.083.53.009.59.205.061.196-.105.422-.37.505-.265.082-.529-.01-.59-.206"/>
        <path fill="#231F20" d="M27.566 20.142c.052.166.275.244.5.175.223-.07.363-.262.312-.427-.052-.166-.276-.244-.5-.174-.223.07-.363.26-.312.426m-.149.047c-.07-.226.121-.488.427-.582.306-.095.612.01.682.236.071.227-.12.488-.427.584-.305.095-.612-.012-.682-.238M27.856 21.769c.065.608-.408 1.225-1.116 1.445-.707.221-1.446-.019-1.738-.556l-.01.003c.294.543 1.036.784 1.75.561.716-.223 1.19-.842 1.124-1.456l-.01.003zm-2.98.889l-.02-.043.206-.063.016.032c.26.523.964.76 1.637.55.674-.21 1.12-.804 1.037-1.382l-.005-.037.205-.064.007.047c.104.671-.408 1.361-1.191 1.605-.783.243-1.595-.034-1.891-.645z"/>
        <path fill="#231F20" d="M26.791 23.377c.82-.255 1.354-.982 1.245-1.69l-.02-.138-.357.111.015.103c.077.54-.345 1.097-.983 1.296-.636.198-1.3-.02-1.544-.51l-.046-.092-.355.11.06.125c.313.645 1.166.94 1.985.685"/>
        <path fill="#231F20" d="M22.148 21.773c.648 2.083 2.871 3.25 4.954 2.602 2.083-.649 3.25-2.872 2.602-4.955-.649-2.083-2.872-3.25-4.954-2.6-2.084.648-3.25 2.87-2.602 4.953m-.298.093c-.7-2.247.56-4.645 2.806-5.345 2.248-.7 4.646.56 5.346 2.807.7 2.247-.56 4.645-2.807 5.344-2.247.701-4.645-.559-5.345-2.806"/>
        <path fill="#231F20" d="M27.572 24.23s.113-.374.49-.278c0 0-.442-.22-.48-.74 0 0 .096-.66.75-.63 0 0-.492-.898.278-1.13 0 0 .232.007.24-.082 0 0-.222-.436.076-.795 0 0 .395-.357.894.066 0 0-.252-1.226.561-.909 0 0 .354.164.44.228 0 0-.068-.93.33-1.024 0 0 .343-.06.84.597 0 0 .011-.31.103-.433 0 0 .214-.39.498-.457 0 0 .013-.003.034-.005l.695 4.195c-.047-.04-.096-.084-.148-.14 0 0-.265.027-.389-.054 0 0 .2.487-.19.61 0 0-.33.121-.504-.345 0 0-.21.396-.63.281 0 0-.004.57-.483.24 0 0-.202.217-.362.151 0 0 .144.42-.22.563 0 0-.133.098-.403-.092 0 0-.119.087-.186.09 0 0 .678 1 .044.678 0 0-.05.234-.18.298 0 0 3.43 3.073 3.48 3.533l.052.042.082.494c-.119.01-.225.011-.225.011s-1.515-.225-1.925-.598c0 0-.196.095-.357-.318-.162-.412-.007-.015-.007-.015s-.842-.008-1.387-1.445c0 0-.513-.157-.255-.545 0 0-1.434-.71-.52-.952 0 0-.422-.194-.465-.273 0 0-.618-.312-.57-.817"/>
        <path fill="#231F20" d="M38.864 22.361s-.227-.317-.554-.105c0 0 .348-.35.216-.855 0 0-.303-.594-.912-.356 0 0 .176-1.008-.627-.979 0 0-.218.082-.253 0 0 0 .068-.484-.33-.728 0 0-.49-.21-.824.35 0 0-.157-1.242-.824-.68 0 0-.283.27-.343.358 0 0-.235-.902-.642-.863 0 0-.345.052-.603.835 0 0-.06-.288-.137-.47 0 0-.08-.264-.37-.237 0 0-.013.001-.034.007l.344 4.252c.033-.052.064-.11.096-.179 0 0 .258-.06.35-.176 0 0-.032.524.376.515 0 0 .352.008.367-.487 0 0 .326.305.688.061 0 0 .186.54.533.071 0 0 .26.141.39.027 0 0 0 .444.39.463 0 0 .159.05.353-.217 0 0 .14.043.204.025 0 0-.32 1.165.178.656 0 0 .123.206.268.224 0 0-2.26 4.014-2.158 4.466l-.037.057.082.494c.117-.03.218-.063.218-.063s1.362-.7 1.629-1.186c0 0 .216.027.236-.416.02-.442 0-.016 0-.016s.796-.279.849-1.815c0 0 .436-.314.067-.598 0 0 1.127-1.135.186-1.069 0 0 .336-.319.35-.408 0 0 .485-.494.278-.958"/>
        <path fill="#FFF" d="M37.745 25.183c-.371-2.244-2.492-3.762-4.736-3.391-2.244.37-3.762 2.492-3.39 4.736.371 2.244 2.491 3.762 4.735 3.39 2.245-.371 3.763-2.491 3.391-4.735"/>
        <path fill="#FFF" d="M37.457 24.23c-.7-1.756-2.549-2.853-4.49-2.532-1.944.322-3.34 1.956-3.437 3.845.948-1.057 2.237-1.808 3.732-2.056 1.496-.248 2.957.049 4.195.744"/>
        <path fill="#231F20" d="M32.992 21.852c-1.673.277-2.98 1.611-3.257 3.253.966-.941 2.168-1.551 3.502-1.772 1.334-.221 2.668-.031 3.885.549-.79-1.466-2.458-2.307-4.13-2.03zm-3.64 4.124l.023-.441c.101-1.987 1.6-3.666 3.566-3.991 1.965-.325 3.926.781 4.661 2.629l.163.41-.384-.216c-1.263-.709-2.678-.96-4.093-.726-1.415.234-2.674.928-3.64 2.006l-.296.329zM32.841 26.055c-.045-.274-.304-.46-.578-.414-.275.045-.46.304-.415.578.046.274.305.46.58.414.273-.045.458-.304.413-.578"/>
        <path fill="#231F20" d="M32.275 25.718c-.23.039-.388.257-.35.488.04.232.258.388.49.35.23-.038.387-.257.35-.488-.039-.232-.259-.39-.49-.35m.165.992c-.316.052-.616-.162-.668-.478-.053-.316.162-.616.478-.668.316-.053.615.162.668.478.052.316-.163.616-.478.668M35.48 25.618c-.045-.274-.304-.46-.578-.414-.274.045-.46.305-.414.578.045.274.305.46.578.415.275-.046.46-.305.415-.58"/>
        <path fill="#231F20" d="M34.915 25.281c-.231.038-.388.257-.35.488.038.231.258.388.489.35.23-.038.388-.258.35-.489-.04-.23-.258-.388-.49-.349m.165.992c-.316.052-.616-.162-.668-.479-.052-.316.163-.615.478-.667.317-.053.616.162.669.478.052.316-.163.615-.48.668M32.43 27.671c.216.578.918.92 1.657.796.74-.122 1.293-.67 1.312-1.287l-.01.001c-.019.611-.572 1.157-1.303 1.28-.732.12-1.43-.219-1.646-.79h-.01zm1.671.88c-.809.133-1.576-.253-1.785-.899l-.014-.045.211-.035.012.035c.186.553.851.884 1.547.77.696-.116 1.218-.644 1.216-1.227v-.038l.212-.034.001.048c.011.678-.592 1.291-1.4 1.424z"/>
        <path fill="#231F20" d="M34.114 28.628c-.847.14-1.651-.27-1.872-.951l-.043-.132.368-.061.033.099c.173.517.8.825 1.46.716.658-.108 1.153-.602 1.15-1.15v-.103l.367-.06.002.139c.01.716-.62 1.362-1.465 1.503"/>
        <path fill="#231F20" d="M32.992 21.852c-2.152.356-3.614 2.397-3.258 4.55.357 2.152 2.398 3.614 4.55 3.258 2.153-.357 3.614-2.398 3.258-4.55-.357-2.153-2.397-3.614-4.55-3.258m1.343 8.115c-2.322.385-4.524-1.192-4.908-3.514-.385-2.323 1.19-4.524 3.514-4.909 2.322-.384 4.524 1.192 4.909 3.515.384 2.322-1.192 4.524-3.515 4.908"/>
        <path fill="#FFF" d="M45.207 26.296c.575-2.201-.743-4.451-2.943-5.026-2.202-.575-4.452.743-5.027 2.944-.575 2.2.743 4.45 2.944 5.026 2.201.575 4.451-.743 5.026-2.944"/>
        <path fill="#FFF" d="M42.2 21.312c-2.236-.584-4.424.781-5.009 3.017-.024.092-.045.185-.062.277l.114.005s1.168-.029 1.87-1.104c0 0 .312.548.787.701 0 0-.009-.402.084-.759 0 0 1.046 1.321 1.94 1.478 0 0-.305-.698.001-1.323 0 0 1.035 2.127 2.202 2.29 0 0-.178-.809-.09-1.291 0 0 .341 1.499 1.15 1.758l.02-.007c.543-2.215-.792-4.463-3.007-5.042"/>
        <path fill="#231F20" d="M42.184 21.373c-2.181-.57-4.346.736-4.931 2.973-.017.066-.033.133-.047.2h.04c.007 0 1.14-.041 1.812-1.075l.057-.087.052.091c.003.005.27.464.67.64.002-.141.017-.421.086-.681l.032-.125.08.1c.009.013.953 1.196 1.787 1.43-.074-.23-.198-.763.046-1.263l.058-.119.057.12c.01.018.96 1.95 2.032 2.23l.031.007c-.045-.23-.144-.826-.072-1.223l.055-.306.07.303c.003.014.329 1.407 1.06 1.695.495-2.155-.829-4.349-2.975-4.91zm-5.132 3.294l.014-.073c.018-.094.039-.188.064-.282.602-2.305 2.836-3.65 5.086-3.063 2.232.584 3.602 2.88 3.053 5.12l-.008.037-.075.023-.019-.007c-.588-.189-.933-.98-1.09-1.45.008.43.112.901.113.907l.02.09-.091-.013c-1.036-.142-1.944-1.738-2.188-2.201-.2.556.047 1.14.05 1.146l.047.11-.116-.02c-.768-.136-1.626-1.084-1.894-1.4-.06.306-.054.612-.054.612l.002.094-.085-.027c-.383-.125-.659-.482-.771-.646-.714 1.01-1.817 1.05-1.865 1.05l-.193-.006z"/>
        <path fill="#FFF" d="M37.262 24.623s1.168-.03 1.869-1.104c0 0 .314.549.788.702 0 0-.01-.404.085-.76 0 0 1.045 1.322 1.938 1.478 0 0-.304-.698.003-1.323 0 0 1.035 2.128 2.202 2.29 0 0-.18-.808-.092-1.29 0 0 .342 1.498 1.15 1.758l.022-.006c.542-2.216-.793-4.464-3.008-5.043-2.236-.585-4.424.78-5.01 3.017-.022.091-.044.184-.061.277l.114.005z"/>
        <path fill="#231F20" d="M42.18 21.475c-2.13-.556-4.248.72-4.819 2.906l-.02.079c.255-.029 1.114-.191 1.66-1.027l.138-.213.126.222c.003.004.202.345.504.535.01-.153.032-.359.083-.555l.08-.302.193.245c.01.011.818 1.024 1.58 1.341-.066-.285-.109-.733.1-1.159l.14-.287.14.287c.008.019.876 1.781 1.863 2.148-.049-.287-.109-.766-.047-1.108l.136-.748.17.741c.082.361.396 1.286.905 1.582.413-2.07-.872-4.148-2.933-4.687zm-5.219 3.293l.033-.178c.018-.096.04-.192.065-.288.615-2.355 2.9-3.729 5.2-3.129 2.28.596 3.68 2.942 3.12 5.231l-.022.086-.152.047-.047-.015c-.412-.132-.709-.534-.91-.932.025.165.05.28.051.282l.048.22-.222-.032c-.948-.131-1.79-1.42-2.144-2.044-.073.448.101.856.103.861l.116.266-.286-.05c-.693-.121-1.453-.876-1.817-1.281-.026.221-.022.402-.022.402l.004.222-.209-.067c-.337-.109-.596-.386-.742-.578-.74.949-1.814.987-1.862.988l-.305-.011z"/>
        <path fill="#231F20" d="M40.34 25.327c.07-.27-.09-.543-.358-.613-.27-.071-.543.09-.614.359-.07.269.09.544.36.613.268.07.543-.09.613-.36"/>
        <path fill="#231F20" d="M39.962 24.788c-.227-.058-.46.078-.518.305-.06.226.077.459.303.517.227.06.46-.076.519-.302.059-.227-.077-.46-.304-.52m-.254.974c-.31-.082-.496-.399-.415-.709.08-.31.398-.495.708-.416.31.081.497.4.416.71-.081.31-.4.495-.71.415M42.93 26.003c.07-.27-.09-.543-.36-.614-.268-.07-.543.09-.613.36-.07.269.09.543.359.613.269.07.544-.09.614-.36"/>
        <path fill="#231F20" d="M42.55 25.465c-.227-.06-.459.076-.519.303-.059.227.077.46.304.52.227.058.46-.078.52-.305.058-.226-.078-.459-.305-.518m-.254.973c-.31-.08-.496-.399-.416-.709.081-.31.4-.496.71-.415.31.08.496.4.415.708-.08.311-.399.497-.709.416M39.307 26.636c-.038.616.464 1.213 1.189 1.402.724.189 1.455-.086 1.723-.641l-.01-.003c-.266.55-.994.824-1.711.637-.717-.188-1.218-.782-1.182-1.392l-.009-.003zm1.167 1.484c-.792-.207-1.336-.872-1.263-1.547l.005-.048.208.055-.004.036c-.056.582.417 1.155 1.099 1.333.683.178 1.375-.09 1.611-.625l.014-.034.209.054-.019.045c-.267.623-1.067.938-1.86.73z"/>
        <path fill="#231F20" d="M40.455 28.195c-.83-.217-1.398-.918-1.322-1.63l.014-.139.361.094-.01.104c-.052.543.395 1.08 1.041 1.25.646.167 1.299-.082 1.52-.582l.041-.095.36.095-.054.127c-.283.66-1.121.993-1.951.776"/>
        <path fill="#231F20" d="M42.19 21.55c-2.11-.551-4.277.717-4.828 2.828-.552 2.11.717 4.277 2.828 4.829 2.111.55 4.277-.718 4.828-2.828.552-2.111-.717-4.277-2.828-4.83m-2.079 7.96c-2.277-.596-3.647-2.932-3.05-5.21.594-2.277 2.931-3.645 5.208-3.051 2.277.595 3.647 2.932 3.051 5.21-.595 2.277-2.932 3.646-5.209 3.05M29.403 26.135c-1.094-2.111-3.625-3.106-5.896-2.233-2.22.853-3.426 3.196-2.92 5.449l.05.006.096-.038-.127.154s.628 2.127 2.063 4.66l1.943-.747-2.063-4.785.167-.066s-.344-1.633-.121-2.041c0 0 .285 1.476.464 1.924l.009.019 2.107-.84s-.534-1.485-.632-1.934c0 0 .745 1.546 1.169 1.698l1.669-.555 1.654 4.879 1.949-.75c-.632-2.818-1.581-4.8-1.581-4.8"/>
        <path fill="#FFF" d="M29.182 27.054c-.816-2.123-3.199-3.183-5.322-2.366-2.123.816-3.183 3.2-2.367 5.322.816 2.123 3.2 3.183 5.323 2.366 2.123-.816 3.182-3.199 2.366-5.322"/>
        <path fill="#231F20" d="M23.804 24.566c-1.945.748-3.003 2.802-2.56 4.777l.044.004 1.704-.668s-.183-1.483.014-1.841c0 0 .248 1.294.405 1.686l.007.017 1.848-.736s-.468-1.302-.554-1.696c0 0 .653 1.356 1.025 1.488l3.234-1.073c-.958-1.85-3.176-2.723-5.167-1.958"/>
        <path fill="#231F20" d="M23.918 24.84c-2.037.782-3.056 3.075-2.273 5.112.783 2.036 3.076 3.056 5.113 2.273 2.036-.783 3.056-3.077 2.273-5.113-.783-2.037-3.076-3.056-5.113-2.273m2.952 7.677c-2.197.845-4.672-.255-5.517-2.452-.844-2.198.256-4.672 2.453-5.517 2.197-.844 4.672.256 5.517 2.453.844 2.197-.256 4.672-2.453 5.516"/>
        <path fill="#231F20" d="M21.498 26.74L26.221 24.981 27.044 27.192 22.321 28.95zM22.87 29.34s.845.416.968.473c.128.058.28.067.42.013.28-.108.495-.309.387-.589-.107-.278-.42-.418-.7-.31l-.753.29M27.712 27.479s-.35.875-.403 1c-.056.129-.161.236-.303.29-.28.108-.573.103-.681-.177-.107-.28.032-.592.31-.7.086-.032.754-.29.754-.29M24.56 30.704c.33.522 1.086.715 1.785.446.698-.269 1.13-.918 1.025-1.526l-.01.004c.105.602-.326 1.248-1.018 1.514s-1.446.076-1.772-.441l-.01.003zm1.815.524c-.766.294-1.594.071-1.93-.519l-.023-.042.2-.077.02.032c.293.505 1.01.695 1.669.441.659-.253 1.064-.874.944-1.446l-.007-.036.2-.078.01.048c.147.662-.318 1.383-1.083 1.677z"/>
        <path fill="#231F20" d="M26.403 31.301c-.801.308-1.671.07-2.025-.554l-.068-.12.347-.134.052.09c.275.472.95.647 1.575.407.622-.239 1.008-.822.895-1.357l-.022-.1.348-.134.03.134c.156.701-.331 1.46-1.132 1.768"/>
        <path fill="#FFF" d="M49.465 32.74c.79-2.132-.3-4.502-2.433-5.291-2.134-.79-4.504.299-5.293 2.433-.79 2.133.3 4.502 2.433 5.292 2.133.789 4.504-.3 5.293-2.433"/>
        <path fill="#231F20" d="M47.07 27.32c-1.955-.723-4.105.12-5.076 1.896l.029.032 1.72.623s.843-1.234 1.227-1.373c0 0-.67 1.136-.81 1.535l-.006.016 1.875.668s.508-1.286.704-1.64c0 0-.406 1.45-.214 1.796l3.139 1.33c.502-2.022-.586-4.142-2.587-4.883M43.245 30.242s.358.866.413.99c.057.128.164.234.306.286.28.104.572.094.675-.185.103-.28-.04-.59-.319-.693l-.752-.28M48.088 32.034s-.836.424-.959.482c-.127.06-.276.072-.418.019-.28-.103-.496-.301-.392-.581.103-.28.414-.421.694-.318l.752.279M43.603 32.376c-.099.61.342 1.253 1.044 1.513.703.26 1.457.058 1.78-.469l-.01-.003c-.32.521-1.072.721-1.766.464-.696-.257-1.136-.898-1.039-1.502l-.009-.003zm1.015 1.592c-.768-.285-1.244-1-1.105-1.665l.01-.047.202.075-.007.037c-.114.572.3 1.19.962 1.434.661.245 1.377.046 1.665-.463l.018-.032.201.075-.023.042c-.328.594-1.154.828-1.923.544z"/>
        <path fill="#231F20" d="M44.592 34.041c-.805-.298-1.301-1.052-1.154-1.754l.028-.135.349.13-.02.101c-.106.535.286 1.114.913 1.346.625.231 1.3.047 1.569-.427l.05-.09.35.128-.066.121c-.347.63-1.214.877-2.02.58"/>
        <path fill="#231F20" d="M46.976 27.6c-2.047-.757-4.328.292-5.085 2.337-.757 2.046.291 4.327 2.337 5.084 2.047.758 4.328-.291 5.086-2.337.758-2.046-.291-4.327-2.338-5.084m-2.856 7.714c-2.207-.817-3.339-3.277-2.521-5.485.816-2.208 3.277-3.339 5.485-2.521 2.208.816 3.339 3.277 2.523 5.484-.818 2.208-3.279 3.339-5.487 2.522M29.434 29.46c-1.969.94-2.806 3.307-1.865 5.276.94 1.969 3.307 2.806 5.276 1.865 1.968-.94 2.805-3.308 1.864-5.276-.94-1.97-3.306-2.805-5.275-1.865m3.545 7.422c-2.124 1.015-4.677.113-5.69-2.011-1.017-2.125-.114-4.678 2.01-5.693 2.125-1.014 4.677-.111 5.692 2.013 1.015 2.124.112 4.677-2.012 5.69"/>
        <path fill="#FFF" d="M34.766 31.065c-.981-2.052-3.439-2.922-5.492-1.94-2.052.98-2.922 3.438-1.941 5.49.98 2.053 3.439 2.923 5.492 1.942 2.052-.98 2.921-3.439 1.941-5.492"/>
        <path fill="#231F20" d="M30.457 33.539c-.12-.25-.419-.356-.67-.237-.25.12-.357.42-.237.67.12.251.42.358.67.238.251-.12.357-.42.237-.671"/>
        <path fill="#231F20" d="M29.82 33.373c-.21.1-.3.354-.2.566.102.212.356.301.567.2.212-.1.3-.355.2-.567-.101-.21-.355-.3-.566-.2m.434.907c-.29.14-.637.016-.775-.273-.138-.288-.015-.636.274-.775.289-.138.636-.014.774.274.138.29.016.637-.273.774M32.871 32.386c-.12-.25-.42-.357-.67-.237-.25.12-.357.42-.238.671.12.25.422.356.672.236.25-.119.357-.42.236-.67"/>
        <path fill="#231F20" d="M32.235 32.22c-.211.1-.301.355-.2.566.1.212.355.302.566.2.212-.1.3-.354.2-.566-.1-.211-.355-.301-.566-.2m.434.907c-.29.138-.637.015-.775-.274-.138-.29-.015-.636.274-.774.289-.138.636-.015.774.273.139.289.016.638-.273.775M30.512 35.206c.368.495 1.137.627 1.813.304.676-.322 1.056-1.003.902-1.6l-.008.004c.151.593-.229 1.27-.897 1.59-.669.32-1.435.188-1.8-.301l-.01.003zm1.85.38c-.74.355-1.585.197-1.965-.365l-.026-.04.194-.093.021.03c.332.48 1.063.613 1.7.31.636-.304.991-.956.827-1.517l-.01-.035.193-.093.014.047c.2.648-.209 1.404-.949 1.757z"/>
        <path fill="#231F20" d="M32.395 35.657c-.774.37-1.661.201-2.062-.394l-.078-.114.336-.16.059.085c.31.45.999.571 1.6.283.603-.288.942-.9.788-1.424l-.03-.099.336-.16.04.131c.21.686-.215 1.483-.99 1.852"/>
        <path fill="#FFF" d="M30.786 28.938s-.114 2.034-1.487 4.043c-1.374 2.01-.56 3.373.633 5.374 0 0-4.227-3.297-2.583-7.053 0 0 .032-.064.091-.153.308-.462 1.117-2.13 3.346-2.211"/>
        <path fill="#231F20" d="M29.347 29.433c-.938.448-1.418 1.224-1.676 1.643-.038.063-.072.116-.102.16-.051.078-.079.134-.079.134-1.136 2.595.666 5 1.774 6.152-.876-1.563-1.298-2.867-.094-4.628 1.102-1.612 1.38-3.26 1.443-3.79-.459.037-.884.146-1.266.33zm1.142 9.553l-.653-.508c-.043-.034-4.303-3.416-2.629-7.239.004-.009.039-.08.103-.177.028-.04.059-.091.096-.152.275-.444.786-1.27 1.807-1.758.47-.225.997-.349 1.567-.37l.171-.006-.009.172c-.005.084-.133 2.1-1.514 4.121-1.317 1.926-.54 3.23.635 5.201l.426.715z"/>
        <path fill="#231F20" d="M29.359 29.458c-.93.444-1.408 1.216-1.664 1.631-.04.063-.073.118-.102.162-.05.073-.076.126-.08.131-1.08 2.468.517 4.767 1.624 5.964-.81-1.49-1.153-2.765.01-4.469 1.078-1.575 1.365-3.184 1.435-3.743-.443.038-.853.147-1.223.324zm.594 8.95l-.134.092c-.043-.034-4.32-3.43-2.637-7.272.007-.014.04-.084.106-.18l.095-.152c.277-.447.79-1.278 1.818-1.769.473-.226 1.005-.352 1.579-.372l.2-.007-.011.2c-.005.085-.132 2.108-1.52 4.136-1.306 1.912-.532 3.21.638 5.172l-.134.152z"/>
        <path fill="#FFF" d="M34.03 31.988c.277.198 1.33 1.062 1.86 3.535 0 0-.555-3.275-1.14-4.325l-.033-.064c-.477-1.081-1.613-2.582-4.025-2.16l.027.056c.179.349 1.422 1.606 3.31 2.958"/>
        <path fill="#231F20" d="M30.948 29.094c.348.457 1.507 1.575 3.173 2.766.245.175.705.585 1.145 1.407-.191-.788-.42-1.577-.651-1.993l-.01-.019-.018-.034-.004-.006-.008-.018c-.406-.92-1.411-2.386-3.627-2.103m5.096 6.402l-.306.06c-.505-2.36-1.504-3.232-1.8-3.442-1.87-1.337-3.151-2.609-3.358-3.014l-.03-.06-.083-.183.198-.035c2.586-.455 3.739 1.214 4.195 2.25l.022.041c.595 1.07 1.139 4.25 1.162 4.383M41.878 30.403l.033-.003-.033.003"/>
        <path fill="#231F20" d="M34.77 31.11s.117-.115.034-.384c0 0 .26.131.473-.025 0 0 .108-.11.128-.325l.107-.07s.143.228.294.183c0 0 .276-.027.276-.278 0 0 .06.025.143-.012 0 0 .27.487.759-.24 0 0 .283.578.754 0 0 0 .206-.003.294-.068 0 0-.107.35.205.403 0 0 .266.058.356-.276 0 0 .199.255.513.143 0 0 .058.391.394.127 0 0 .177.133.294.074 0 0-.028.13.035.24l1.84-.1c.065-.045.364-.227.282-.537 0 0-.138-.434-.493-.466 0 0 .292-.656-.323-.754 0 0-.18.023-.193-.038 0 0 .128-.317-.136-.539 0 0-.34-.216-.682.115 0 0 .075-.862-.521-.58 0 0-.257.14-.317.192 0 0-.037-.645-.353-.679 0 0-.271-.015-.59.477 0 0-.181-.097-.225-.184 0 0-.1-.356-.324-.38 0 0-.347-.032-.583.346 0 0-.137-.36-.775-.149 0 0-.49.17-.382.855 0 0 .039.013 0 0 0 0-.335-.635-.691-.21 0 0-.407.361-.222.681 0 0-.557-.169-.762.08 0 0-.348.395 0 .691 0 0-.54.018-.514.421v.004c.03.408.038.375.202.398 0 0 .277.18.192.285"/>
        <path fill="#FFF" d="M42.026 32.24c.1-2.272-1.661-4.195-3.933-4.296-2.273-.1-4.196 1.66-4.296 3.934-.101 2.272 1.66 4.196 3.933 4.296 2.272.1 4.196-1.661 4.296-3.933"/>
        <path fill="#231F20" d="M37.047 32.08c.012-.277-.203-.511-.48-.523-.278-.013-.512.202-.524.48-.013.276.202.511.48.523.277.014.512-.202.524-.48"/>
        <path fill="#231F20" d="M36.564 31.634c-.234-.01-.433.171-.443.405-.011.234.172.433.405.444.234.01.433-.172.443-.406.01-.234-.172-.433-.405-.443m-.044 1.004c-.321-.014-.57-.285-.555-.606.014-.319.286-.568.606-.554.32.014.569.286.554.606-.014.32-.286.57-.605.554M39.72 32.198c.012-.277-.203-.512-.48-.524-.278-.013-.513.202-.525.48-.012.277.203.512.48.524.278.013.513-.202.525-.48"/>
        <path fill="#231F20" d="M39.236 31.752c-.234-.01-.433.17-.443.406-.01.234.172.432.405.443.235.01.434-.172.444-.406.011-.234-.172-.433-.406-.443m-.044 1.005c-.32-.014-.569-.286-.555-.606.014-.32.286-.57.606-.555.32.014.57.286.555.606-.014.32-.287.57-.606.555M36.311 33.578c.092.61.708 1.088 1.457 1.122.748.032 1.404-.39 1.55-.99h-.01c-.146.594-.8 1.014-1.54.98-.74-.031-1.355-.507-1.447-1.112h-.01zm1.453 1.206c-.82-.037-1.49-.573-1.56-1.248l-.006-.047.215.009.004.037c.067.58.65 1.04 1.355 1.072.704.03 1.325-.377 1.443-.948l.008-.038.214.01-.009.047c-.13.666-.846 1.142-1.664 1.106z"/>
        <path fill="#231F20" d="M37.761 34.861c-.857-.038-1.56-.604-1.635-1.317l-.015-.138.373.017.011.103c.063.542.614.973 1.281 1.002.666.03 1.252-.352 1.363-.886l.021-.102.371.017-.026.136c-.138.703-.888 1.206-1.744 1.168"/>
        <path fill="#231F20" d="M38.063 28c-2.18-.096-4.031 1.599-4.127 3.778-.097 2.18 1.599 4.03 3.778 4.128 2.18.096 4.032-1.6 4.127-3.78.097-2.18-1.598-4.03-3.778-4.126m-.362 8.217c-2.352-.103-4.181-2.101-4.077-4.452.104-2.352 2.1-4.181 4.453-4.077 2.35.104 4.18 2.1 4.076 4.453-.104 2.352-2.101 4.18-4.452 4.076"/>
        <path fill="#FFF" d="M40.384 41.064s1.787 3.05 2.312 4.023c0 0 .73.515 1.122.918 0 0 1.18 1.29-.489.354 0 0 1.934 2.493-.58.375 0 0 1.631 3.075-.51.414 0 0 .912 3.534-1.025-.448 0 0-.75 1.511-.967.848-.1-.304.487-1.046.22-1.614 0 0-1.387-2.409-1.975-2.88l1.892-1.99z"/>
        <path fill="#231F20" d="M41.216 46.347l.14.285c.533 1.1.807 1.533.942 1.705-.013-.252-.104-.737-.21-1.149l-.183-.7.454.563c.394.488.63.745.77.88-.099-.277-.312-.733-.519-1.123l-.377-.71.615.518c.522.44.81.642.966.736-.119-.223-.37-.59-.609-.897l-.472-.608.671.377c.323.18.508.26.613.294-.065-.109-.186-.267-.314-.408-.374-.384-1.09-.89-1.097-.896l-.03-.02-.017-.033c-.445-.824-1.815-3.17-2.205-3.839l-1.64 1.725c.648.66 1.834 2.717 1.888 2.81.194.411.032.853-.097 1.21-.06.161-.133.362-.11.432.01.031.02.05.025.058.123-.043.428-.472.654-.926l.142-.284zm1.156 2.404c-.135 0-.32-.009-1.163-1.708-.205.363-.522.83-.8.83-.084 0-.233-.037-.31-.277-.057-.172.021-.387.112-.637.116-.317.247-.676.114-.958-.007-.013-1.372-2.377-1.93-2.825l-.133-.105 2.152-2.265.104.18c.018.03 1.757 2.998 2.298 3.995.144.103.757.55 1.114.916.535.585.455.766.43.825-.019.041-.077.134-.229.134-.059 0-.144-.012-.298-.073.438.646.37.786.34.846-.036.072-.107.114-.192.115-.11 0-.286-.063-.77-.434.367.794.288.927.255.983-.037.06-.1.096-.17.096-.108 0-.258-.059-.762-.639.078.411.11.785.006.917-.042.055-.1.08-.168.084z"/>
        <path fill="#FFF" d="M41.951 42.156s-2.026 2.896-2.691 3.78c0 0-.164.878-.366 1.403 0 0-.679 1.61-.526-.297 0 0-1.458 2.8-.584-.37 0 0-2.113 2.765-.589-.292 0 0-2.83 2.305-.019-1.117 0 0-1.687-.053-1.175-.526.235-.217 1.154.007 1.558-.474 0 0 1.611-2.265 1.793-2.996l2.599.89z"/>
        <path fill="#231F20" d="M38.148 45.937l-.213.775c-.182.657-.246 1.004-.266 1.184.152-.2.381-.583.56-.926l.355-.682-.06.766c-.03.37-.025.571-.013.68.071-.106.165-.28.24-.456.192-.5.353-1.362.355-1.37l.007-.037.022-.029c.563-.748 2.125-2.972 2.57-3.606l-2.253-.77c-.33.864-1.703 2.8-1.765 2.888-.293.348-.763.386-1.14.416-.172.014-.386.031-.44.082-.023.021-.036.037-.042.046.094.095.61.193 1.115.208l.317.011-.2.244c-.776.945-1.057 1.375-1.157 1.57.223-.117.626-.403.957-.673l.561-.456-.323.648c-.28.561-.415.883-.479 1.067.21-.207.536-.59.804-.94l.488-.64zm-.577 2.401c-.064 0-.122-.029-.162-.08-.066-.087-.11-.238.046-.928-.366.428-.622.644-.765.644-.07 0-.132-.034-.168-.094-.049-.078-.112-.179.252-.982-.29.206-.605.397-.774.397-.09 0-.167-.045-.203-.12-.058-.123-.135-.288 1.064-1.774-.454-.036-.996-.136-1.095-.4-.033-.089-.037-.225.13-.378.132-.124.361-.143.625-.164.336-.027.718-.058.92-.296.007-.013 1.586-2.239 1.76-2.934l.041-.165 2.956 1.011-.12.17c-.019.028-1.99 2.847-2.672 3.755-.033.174-.182.917-.367 1.395-.31.734-.509.734-.575.734-.06 0-.118-.025-.16-.072-.052-.056-.097-.146-.11-.38-.4.661-.557.661-.623.661z"/>
        <path fill="#FFF" d="M45.907 38.244c.132-2.316-1.638-4.3-3.954-4.433-2.316-.131-4.3 1.639-4.432 3.954-.133 2.316 1.638 4.3 3.953 4.433 2.316.132 4.301-1.638 4.433-3.954"/>
        <path fill="#231F20" d="M41.71 33.96c-2.14 0-3.912 1.676-4.033 3.814-.062 1.078.3 2.116 1.019 2.922.72.806 1.709 1.284 2.787 1.345 2.242.124 4.142-1.59 4.269-3.807.126-2.226-1.582-4.14-3.808-4.267-.08-.005-.156-.007-.234-.007m.008 8.4c-.084 0-.168-.003-.252-.007-1.162-.066-2.228-.58-3.003-1.449-.774-.869-1.165-1.986-1.098-3.148.136-2.387 2.182-4.24 4.596-4.1 2.399.136 4.239 2.198 4.103 4.596-.132 2.303-2.041 4.108-4.346 4.108"/>
        <path fill="#231F20" d="M41.023 37.799c.18-.176.183-.464.006-.645-.175-.18-.464-.183-.644-.006-.18.176-.183.464-.007.645.176.18.465.183.645.006"/>
        <path fill="#231F20" d="M40.965 37.217c-.14-.144-.373-.146-.518-.005-.144.141-.147.373-.005.518.141.143.373.146.518.004.144-.14.146-.373.005-.517m-.652.64c-.21-.217-.207-.563.01-.774.214-.21.56-.207.77.008.211.215.207.562-.007.772-.216.211-.562.208-.773-.007M42.721 39.532c.18-.176.183-.464.006-.645-.176-.179-.465-.183-.645-.006-.18.176-.182.465-.007.645.177.18.466.184.646.006"/>
        <path fill="#231F20" d="M42.663 38.951c-.141-.145-.373-.147-.517-.006-.145.141-.148.374-.005.517.14.146.373.147.517.006.145-.14.146-.373.005-.517m-.651.638c-.212-.215-.208-.56.008-.772.214-.21.56-.207.771.008.212.215.208.561-.006.772-.216.211-.563.207-.773-.008M40.541 39.331c-.253-.257-.403-.573-.453-.893-.444.477-.523 1.136-.166 1.5.356.363 1.015.298 1.501-.136-.318-.056-.63-.213-.882-.47M38.032 37.359l.025-.008-.025.008M32.36 39.1s.076-.113-.035-.319c0 0 .233.065.38-.097 0 0 .07-.107.052-.287l.075-.074s.154.163.27.102c0 0 .219-.068.179-.272 0 0 .054.01.114-.033 0 0 .3.352.579-.32 0 0 .325.424.614-.125 0 0 .168-.035.229-.103 0 0-.03.303.233.295 0 0 .226.004.244-.283 0 0 .205.175.44.033 0 0 .112.309.344.038 0 0 .165.079.25.013 0 0-.001.11.068.188l1.483-.383c.045-.047.258-.244.14-.482 0 0-.182-.331-.477-.3 0 0 .13-.581-.387-.56 0 0-.141.048-.163.001 0 0 .053-.28-.2-.418 0 0-.311-.119-.536.207 0 0-.08-.715-.52-.388 0 0-.186.157-.226.208 0 0-.135-.519-.398-.495 0 0-.223.033-.402.486 0 0-.164-.049-.214-.113 0 0-.14-.274-.326-.257 0 0-.288.031-.418.378 0 0-.171-.271-.655.006 0 0-.373.217-.172.757 0 0 .034.005 0 0 0 0-.377-.461-.597-.057 0 0-.272.361-.07.591 0 0-.48-.046-.606.189 0 0-.22.38.113.564 0 0-.436.103-.35.428l.002.003c.09.326.09.299.229.29 0 0 .256.102.204.202"/>
        <path fill="#FFF" d="M32.797 42.373s-.545 3.493-.677 4.59c0 0-.49.747-.707 1.266 0 0-.624 1.631.585.15 0 0-.887 3.028.678.136 0 0-.391 3.459.626.198 0 0 .446 3.623.788-.792 0 0 1.253 1.131 1.21.434-.018-.319-.835-.794-.795-1.42 0 0 .407-2.75.782-3.403l-2.49-1.159z"/>
        <path fill="#231F20" d="M33.368 47.977l.088.718c.052.422.144.907.225 1.147.064-.21.159-.715.254-1.932l.023-.316.236.212c.328.294.78.613.95.62.002-.012.004-.032.002-.06-.005-.075-.148-.236-.261-.364-.252-.284-.564-.637-.535-1.078.017-.117.367-2.466.727-3.318l-2.157-1.004c-.12.765-.534 3.45-.645 4.38l-.005.037-.02.03c-.005.008-.485.74-.694 1.24-.067.175-.12.367-.14.492.08-.07.224-.21.46-.5l.488-.596-.216.738c-.11.371-.209.805-.238 1.056.11-.143.304-.438.628-1.038l.384-.707-.091.8c-.05.438-.08.94-.072 1.235.081-.177.208-.503.394-1.102l.215-.69zM32.7 50.27c-.056 0-.11-.025-.148-.07-.108-.12-.12-.526-.093-.983-.386.642-.527.706-.643.706-.066 0-.125-.03-.164-.084-.084-.111-.073-.407.034-.881-.17.157-.272.199-.358.199-.074 0-.14-.034-.182-.095-.116-.168.003-.576.122-.889.2-.476.607-1.116.703-1.265.138-1.126.668-4.525.672-4.559l.032-.204 2.833 1.316-.084.148c-.358.621-.76 3.322-.764 3.349-.018.297.235.584.46.837.175.198.327.37.337.551.008.132-.02.234-.086.303-.037.04-.107.09-.221.09-.26 0-.665-.29-.928-.502-.16 1.877-.331 2.032-.534 2.032-.095 0-.274 0-.441-.884-.285.81-.412.885-.547.885z"/>
        <path fill="#FFF" d="M39.486 39.697c-.357-2.292-2.504-3.86-4.796-3.503-2.292.357-3.86 2.504-3.503 4.796.356 2.292 2.504 3.86 4.796 3.504 2.292-.358 3.86-2.505 3.503-4.797"/>
        <path fill="#231F20" d="M35.342 36.298c-.21 0-.42.017-.627.05-2.204.343-3.717 2.414-3.374 4.617.309 1.983 1.987 3.423 3.99 3.423.209 0 .42-.017.628-.049 2.204-.344 3.717-2.415 3.374-4.619-.31-1.983-1.988-3.422-3.991-3.422m-.01 8.402c-2.158 0-3.967-1.55-4.3-3.687-.37-2.373 1.26-4.605 3.634-4.974.224-.035.45-.053.676-.053 2.158 0 3.966 1.55 4.299 3.686.37 2.374-1.26 4.605-3.633 4.975-.224.035-.452.053-.676.053"/>
        <path fill="#231F20" d="M34.663 40.941c-.039-.249-.271-.419-.521-.38-.249.04-.418.272-.38.521.039.25.272.42.521.38.249-.039.419-.27.38-.52"/>
        <path fill="#231F20" d="M34.156 40.65c-.199.031-.336.218-.305.418.031.2.22.337.418.306.2-.03.337-.219.305-.419-.03-.2-.218-.336-.418-.305m.141.901c-.298.047-.578-.157-.624-.455-.046-.298.158-.578.456-.624.297-.046.576.158.623.455.046.298-.158.578-.455.624M37.06 40.568c-.038-.25-.271-.418-.52-.38-.25.039-.42.272-.38.52.039.25.272.42.52.38.25-.038.42-.27.38-.52"/>
        <path fill="#231F20" d="M36.554 40.276c-.2.031-.336.22-.305.418.03.2.219.337.418.306.199-.03.337-.218.305-.418-.03-.2-.218-.337-.418-.306m.14.901c-.297.047-.577-.157-.623-.455-.046-.297.158-.577.456-.624.297-.046.577.158.624.456.046.297-.16.577-.456.623M35.63 42.224c-.356.057-.7-.005-.99-.15.13.639.62 1.086 1.123 1.007.503-.079.834-.654.763-1.302-.23.227-.54.39-.896.445"/>
    </g>
</svg>
